<svg width="300" height="76" viewBox="0 0 300 76" fill="none" xmlns="http://www.w3.org/2000/svg">
<path d="M300.002 74.035C299.512 74.2166 299.013 74.372 298.507 74.5006C297.735 74.655 296.947 74.7459 296.166 74.8549C295.94 74.8841 295.712 74.894 295.484 74.8844C293.57 74.8095 291.706 74.4915 290.014 73.5468C288.924 72.9181 287.959 72.0953 287.166 71.1191C285.768 69.4675 284.531 67.6866 283.471 65.8004C283.244 65.3939 283.203 65.2462 282.594 65.5892C281.459 66.2296 280.303 66.8337 279.126 67.3923C278.694 67.573 278.232 67.6723 277.764 67.6853C276.973 67.7353 276.174 67.7103 275.384 67.7148C274.029 67.7134 272.698 67.3571 271.523 66.6815C271.13 66.4658 270.742 66.2432 270.369 66.0002C270.206 65.8703 270.054 65.7267 269.915 65.571L271.607 62.9071L272.804 63.677C273.769 64.2791 274.822 64.728 275.924 65.0078C276.845 65.2269 277.796 65.2823 278.736 65.1713C279.957 65.0547 281.105 64.5409 282.006 63.7088C282.044 63.6823 282.077 63.6484 282.102 63.6091C282.127 63.5698 282.144 63.5259 282.152 63.48C282.16 63.4341 282.158 63.3871 282.148 63.3418C282.137 63.2964 282.117 63.2537 282.09 63.216C281.302 61.6512 280.5 60.0933 279.737 58.5173C278.715 56.4007 277.727 54.2659 276.724 52.1425C276.635 51.9586 276.519 51.7905 276.392 51.5702C275.5 52.9329 274.641 54.2273 273.785 55.5332C272.679 57.2182 271.564 58.8965 270.478 60.5952C268.662 63.4204 266.718 66.1592 265.076 69.0933C264.801 69.5884 264.785 69.6384 265.169 70.0176C265.673 70.5127 266.191 70.9964 266.729 71.4575C267.133 71.7991 267.636 72.0021 268.164 72.0366C268.746 72.0865 269.327 72.166 269.906 72.2364C270.167 72.2766 270.411 72.3918 270.608 72.568C270.804 72.7442 270.946 72.9738 271.014 73.2288C271.112 73.6649 270.719 74.3008 270.176 74.4892C269.666 74.6759 269.141 74.8195 268.607 74.9185C267.472 75.107 266.32 75.2659 265.167 75.1456C263.35 74.9593 261.578 74.5256 260.027 73.4968C259.418 73.0681 258.847 72.5871 258.322 72.0593C257.781 71.5415 257.295 70.9646 256.777 70.4196C256.142 69.7383 256.167 69.2387 256.609 68.6028C257.082 67.9215 257.602 67.2924 258.115 66.652C258.989 65.5574 259.875 64.4764 260.752 63.3863C262.06 61.7587 263.366 60.1282 264.671 58.4945C266.068 56.7391 267.449 54.9745 268.843 53.219C269.947 51.8314 271.064 50.4552 272.173 49.0721C272.649 48.4749 273.12 47.8708 273.599 47.2735C273.889 46.9101 273.937 46.7307 273.692 46.3651C273.108 45.5021 272.52 44.6414 271.898 43.8057C271.271 42.9699 270.532 42.2248 269.702 41.5914C268.916 41.0018 267.959 40.683 266.977 40.683C266.163 40.6603 265.35 40.6626 264.537 40.6694C263.841 40.6563 263.154 40.4969 262.523 40.2016C262.046 39.9972 261.687 39.4476 261.733 39.0093C261.754 38.7547 261.855 38.5131 262.02 38.3188C262.186 38.1244 262.409 37.987 262.657 37.926C263.382 37.7421 264.124 37.624 264.858 37.4718C266.016 37.2447 267.185 37.2447 268.357 37.2198C269.339 37.1944 270.32 37.2913 271.278 37.5082C273.527 38.0138 275.632 39.0233 277.435 40.4605C278.933 41.6618 280.028 43.1857 280.964 44.8254C281.756 46.2175 282.553 47.6073 283.307 49.0244C284.161 50.6391 284.981 52.2743 285.785 53.9139C286.623 55.6217 287.434 57.3431 288.244 59.0646C288.81 60.2614 289.312 61.49 289.923 62.6618C290.981 64.7058 292.11 66.6997 293.556 68.487C294.344 69.4567 295.146 70.4241 296.186 71.1554C296.664 71.5167 297.234 71.7362 297.83 71.789C298.432 71.8322 299.032 71.9185 299.627 72.0161C299.766 72.0624 299.896 72.1314 300.013 72.2205L300.002 74.035Z" fill="#100E5D"/>
<path d="M211.883 0C212.029 0.0658592 212.172 0.193036 212.317 0.190765C213.354 0.202056 214.382 0.37995 215.362 0.717638C216.543 1.07636 217.67 1.59275 218.712 2.25284C218.816 2.31483 218.903 2.40046 218.967 2.5027C219.031 2.60495 219.07 2.72089 219.08 2.84103C219.355 4.57381 219.264 6.3134 219.191 8.04845C219.127 8.79675 218.99 9.53691 218.78 10.2581C218.729 10.4918 218.601 10.7017 218.416 10.8543C218.232 11.0069 218.002 11.0936 217.763 11.1007C216.879 11.1643 215.989 11.2369 215.117 10.9712C214.92 10.9312 214.719 10.9076 214.518 10.9008C214.43 11.1104 214.36 11.3269 214.309 11.5481C214.197 12.2725 214.102 13.0015 214.02 13.7305C213.954 14.3232 213.793 14.43 213.196 14.2574C212.676 14.1052 212.144 13.9939 211.617 13.8577C210.877 13.6646 210.139 13.4603 209.399 13.2718C208.945 13.1559 208.49 13.0674 208.036 12.9516C207.825 12.8993 207.621 12.813 207.355 12.7245C207.582 11.9001 207.775 11.1347 207.986 10.3217C207.418 10.1332 206.898 9.98789 206.396 9.78804C205.702 9.51098 205.034 9.20893 204.634 8.49129C204.556 8.35217 204.51 8.1968 204.502 8.03726C204.493 7.87773 204.521 7.71835 204.584 7.57154C205.474 5.30053 206.762 3.25662 208.168 1.26268C208.457 0.849515 208.892 0.560791 209.385 0.454201C209.975 0.31637 210.575 0.228249 211.179 0.190765C211.304 0.190765 211.422 0.0658592 211.543 0H211.883Z" fill="#100E5D"/>
<path d="M143.013 38.6619C143.013 38.7437 142.95 38.8549 142.986 38.9049C143.195 39.2092 143.165 39.5521 143.165 39.8905C143.165 46.7777 143.165 53.6665 143.165 60.5567C143.165 62.3167 143.14 64.0768 143.186 65.8345C143.213 66.886 143.59 67.7808 144.682 68.1827C145.048 68.319 145.414 68.4598 145.786 68.5779C146.577 68.83 146.79 69.8179 146.468 70.3833C146.244 70.7917 145.959 71.1632 145.623 71.4848C144.88 72.1468 144.105 72.7706 143.299 73.3538C142.391 74.0033 141.396 74.2077 140.32 73.7967C139.391 73.4424 138.503 73.0472 137.822 72.2705C137.29 71.6896 136.931 70.9714 136.786 70.1971C136.698 69.702 136.593 69.2092 136.484 68.6437C136.316 68.7914 136.168 68.914 136.03 69.0457C134.354 70.6581 132.56 72.1116 130.505 73.2176C129.5 73.7568 128.448 74.2016 127.362 74.5461C125.797 75.0503 124.203 75.0548 122.592 74.973C120.355 74.872 118.187 74.1613 116.324 72.9178C115.219 72.1728 114.309 71.1717 113.674 69.9995C113.259 69.2524 112.909 68.4689 112.527 67.7013C112.496 67.6377 112.457 67.5786 112.398 67.4742C111.894 67.9284 111.412 68.3644 110.938 68.8027C109.547 70.1367 108.019 71.3183 106.377 72.3273C105.16 73.0597 103.866 73.6538 102.517 74.0987C100.785 74.6871 98.9607 74.9594 97.1321 74.9026C96.3628 74.8511 95.5988 74.738 94.8475 74.5643C93.6089 74.2839 92.426 73.798 91.3479 73.1267C89.3003 71.9131 87.5999 70.1924 86.4107 68.1305C85.8083 67.0963 85.3615 65.9791 85.0845 64.8148C84.6798 63.2594 84.522 61.6501 84.6166 60.0457C84.6802 59.1873 84.8733 58.3379 84.9959 57.4817C85.1717 56.4292 85.4919 55.4059 85.9474 54.4409C86.6682 52.8594 87.6186 51.3932 88.768 50.0896C90.1833 48.4267 91.7833 46.9303 93.5371 45.6294C93.6689 45.534 93.7824 45.4136 93.9073 45.3023C93.7529 45.0525 93.5235 45.132 93.3305 45.1297C91.9883 45.1297 90.6439 45.1297 89.2994 45.1297C88.1276 45.1297 86.9535 45.1411 85.7817 45.1297C85.4439 45.1217 85.1081 45.0767 84.7801 44.9958C84.6441 44.9599 84.5165 44.8975 84.4048 44.8121C84.293 44.7267 84.1992 44.62 84.1289 44.4982C84.0586 44.3763 84.0131 44.2418 83.9951 44.1023C83.9771 43.9628 83.9869 43.8211 84.0239 43.6854C84.1109 43.3596 84.2555 43.0519 84.4508 42.777C85.2571 41.7641 86.1155 40.8057 87.2601 40.1472C87.8541 39.7814 88.534 39.5785 89.2313 39.559C95.248 39.5469 101.265 39.5469 107.284 39.559C107.716 39.5611 108.142 39.6662 108.526 39.8655C109.434 40.3606 109.625 41.2872 109 42.2229C108.221 43.4639 106.986 44.349 105.56 44.6869C104.681 44.8936 103.784 45.0139 102.901 45.2047C102.258 45.3378 101.622 45.5053 100.997 45.7066C99.7704 46.1065 98.5829 46.6189 97.4501 47.2372C95.195 48.484 93.4304 50.2054 92.3948 52.5877C91.9999 53.439 91.7277 54.3421 91.5864 55.2698C91.4978 55.9783 91.3456 56.6778 91.2639 57.3864C91.2076 57.8385 91.2015 58.2955 91.2457 58.749C91.3289 59.65 91.4638 60.5455 91.6499 61.431C91.9673 62.8052 92.5976 64.0875 93.4917 65.1782C94.8225 66.8042 96.5281 67.9375 98.438 68.7414C99.3473 69.1495 100.318 69.4035 101.311 69.4931C102.857 69.5908 104.218 69.0571 105.494 68.2327C106.909 67.3243 108.076 66.1411 109.166 64.8784C109.836 64.0995 110.499 63.3137 111.183 62.5461C111.25 62.4838 111.303 62.4072 111.337 62.3219C111.37 62.2366 111.385 62.1448 111.378 62.0533C111.378 61.9783 111.378 61.9034 111.367 61.8262C111.249 60.7179 111.108 59.6142 111.019 58.5037C110.949 57.5953 110.917 56.6869 110.915 55.7785C110.915 53.8686 110.888 51.9564 110.958 50.0465C111.006 48.7861 111.206 47.5325 111.335 46.2766C111.335 46.1835 111.335 46.0881 111.358 45.995C111.501 45.0275 111.642 44.0601 111.792 43.0926C111.862 42.6384 111.971 42.207 112.019 41.7596C112.076 41.3701 112.256 41.009 112.532 40.7285C113.281 39.8951 114.224 39.3319 115.216 38.8481C115.6 38.6619 116.002 38.5143 116.395 38.3462C117.333 37.9465 118.189 38.1191 118.997 38.7164C118.927 39.484 118.863 40.2516 118.786 41.0169C118.754 41.3349 118.691 41.6506 118.657 41.9685C118.514 43.2811 118.377 44.5961 118.239 45.9087C118.239 45.9473 118.239 45.9836 118.225 46.0222C118.132 47.1691 118.044 48.3182 117.948 49.4651C117.83 50.8572 117.696 52.2493 117.589 53.6415C117.474 54.7902 117.49 55.9483 117.637 57.0934C117.679 57.3557 117.704 57.6205 117.712 57.886C117.754 58.7511 117.893 59.6089 118.125 60.4431C118.289 61.079 118.452 61.7149 118.598 62.3553C118.901 63.5152 119.417 64.6087 120.119 65.5802C120.755 66.5747 121.532 67.4719 122.424 68.244C122.918 68.6439 123.494 68.9293 124.112 69.0798C125.067 69.3021 126.045 69.4081 127.025 69.3955C127.801 69.4209 128.577 69.3615 129.34 69.2183C130.61 68.9357 131.773 68.2959 132.692 67.3743C134.081 66.0344 135.183 64.4256 135.93 62.646C136.048 62.3735 136.198 62.1123 136.325 61.8421C136.522 61.3736 136.609 60.8664 136.58 60.3591C136.58 54.4931 136.6 48.6271 136.552 42.7611C136.552 41.6051 137.041 40.8489 137.876 40.2017C138.843 39.4656 139.915 38.8785 141.056 38.4598C141.317 38.3448 141.602 38.2941 141.887 38.3119C142.172 38.3297 142.448 38.4154 142.693 38.562C142.795 38.6089 142.903 38.6411 143.013 38.6574V38.6619Z" fill="#100E5D"/>
<path d="M207.234 42.3841C206.626 45.5635 206.042 48.6249 205.447 51.7339C205.878 51.8338 206.31 51.9269 206.741 52.0314C207.423 52.1994 208.129 52.3516 208.815 52.5492C209.408 52.7195 209.987 52.9375 210.568 53.1396C212.514 53.8209 214.217 54.8429 215.46 56.5461C215.963 57.2425 216.337 58.0231 216.566 58.8512C216.897 59.8764 217.028 60.956 216.95 62.0306C216.866 62.8886 216.679 63.7334 216.393 64.5469C215.907 65.8636 215.193 67.0849 214.286 68.1555C213.279 69.355 212.129 70.4265 210.861 71.3463C209.572 72.2733 208.195 73.0698 206.748 73.724C206.049 74.0288 205.332 74.2926 204.602 74.5143C203.921 74.7414 203.21 74.9685 202.501 75.1252C201.915 75.2724 201.316 75.3637 200.712 75.3978C199.599 75.4409 198.479 75.4636 197.367 75.3978C196.642 75.3569 195.929 75.1411 195.207 75.023C194.398 74.8632 193.607 74.6236 192.845 74.3077C191.767 73.8923 190.745 73.343 189.804 72.6726C187.559 71.1169 185.91 68.8441 185.128 66.2274C184.782 65.0357 184.588 63.8048 184.551 62.5643C184.539 62.0137 184.742 61.4799 185.117 61.0768C185.798 60.2774 186.675 59.7573 187.597 59.2918C188.278 58.942 188.973 58.5878 189.763 58.5651C190.06 58.5539 190.355 58.6114 190.626 58.7331C190.985 58.908 191.121 59.2532 191.135 59.6665C191.157 60.629 191.31 61.584 191.589 62.5053C191.957 63.6593 192.532 64.7367 193.286 65.6847C194.501 67.2135 196.079 68.4154 197.875 69.182C198.729 69.5506 199.619 69.8284 200.53 70.0109C201.626 70.2195 202.746 70.2737 203.857 70.1722C205.553 70.0812 207.191 69.5215 208.588 68.5552C209.446 67.9489 209.903 67.0609 210.177 66.0571C210.344 65.3993 210.414 64.7207 210.384 64.0427C210.363 62.8302 209.875 61.6725 209.021 60.8111C207.946 59.7031 206.624 58.865 205.163 58.3652C204.902 58.2721 204.643 58.1676 204.314 58.0405C203.921 59.2509 203.859 60.4795 203.535 61.6741L206.326 62.3258C206.26 63.584 205.987 64.799 205.776 66.0662L193.417 62.9072C193.572 61.749 193.717 60.6726 193.872 59.5439C194.621 59.5439 195.291 59.8913 196.079 59.9595L196.931 56.3894C196.617 56.2918 196.32 56.2009 196.022 56.1056C195.523 55.9466 195.018 55.8081 194.53 55.6196C193.46 55.2261 192.447 54.6915 191.519 54.0299C190.029 52.9398 188.755 51.6453 188.219 49.833C187.996 49.1118 187.94 48.3488 188.058 47.6029C188.321 46.0132 189.137 44.8096 190.202 43.6968C191.234 42.567 192.395 41.5617 193.66 40.7013C194.912 39.8928 196.204 39.1411 197.521 38.4303C198.518 37.883 199.565 37.4265 200.591 36.9337C200.746 36.867 200.903 36.8086 201.064 36.7589C201.274 36.7046 201.46 36.5799 201.589 36.4055C201.719 36.2312 201.785 36.0177 201.777 35.8005C201.777 35.6347 201.797 35.4667 201.809 35.2577C201.209 35.2078 200.803 35.6756 200.219 35.7392C200.201 35.0579 200.542 34.481 200.721 33.8792C200.9 33.2774 200.932 32.5802 201.384 32.1101C202.118 32.2464 202.799 32.369 203.48 32.503C204.034 32.612 204.579 32.7551 205.136 32.8505C205.524 32.9212 205.918 32.9546 206.312 32.9504C206.531 32.9369 206.75 32.9874 206.941 33.0957C207.371 33.3416 207.866 33.4479 208.358 33.4C208.541 33.3666 208.729 33.388 208.899 33.4614C209.316 33.672 209.769 33.8022 210.234 33.8452C210.972 33.9542 210.993 33.9542 210.895 34.6945C210.895 34.7831 210.861 34.8739 210.829 35.0352L208.883 34.5946C208.817 34.6877 208.676 34.8058 208.656 34.9489C208.609 35.1884 208.603 35.434 208.638 35.6756C208.638 35.7551 208.824 35.855 208.935 35.8732C211.27 36.2365 213.164 37.4061 214.778 39.0707C215.758 40.1225 216.658 41.246 217.47 42.4318C217.924 43.0745 217.767 44.0397 217.308 44.5688C216.309 45.7225 215.062 46.5287 213.72 47.1964C213.36 47.3511 212.976 47.444 212.585 47.4712C212.051 47.5371 211.649 47.2713 211.351 46.8399C210.49 45.5509 209.489 44.3605 208.367 43.2903C208.024 42.9973 207.677 42.7452 207.234 42.3841ZM200.378 41.7028L200.278 41.6393C200.092 41.7505 199.901 41.855 199.719 41.9731L196.669 43.9511C196.138 44.2978 195.608 44.6476 195.08 45.0003C194.839 45.1365 194.654 45.3525 194.556 45.6109C194.458 45.8693 194.454 46.1539 194.544 46.4152C194.862 47.4598 195.402 48.3546 196.431 48.8679C196.962 49.1313 197.478 49.4311 198.009 49.69C198.165 49.7375 198.326 49.7605 198.489 49.7581C199.127 47.0283 199.753 44.3599 200.378 41.6915V41.7028ZM204.482 41.1692C204.08 41.1374 203.725 41.1033 203.371 41.0829C202.878 41.0533 202.772 41.1487 202.69 41.6256C202.601 42.1434 202.515 42.6635 202.399 43.1744C202.131 44.3849 201.841 45.5885 201.568 46.7967C201.336 47.8217 201.109 48.8482 200.887 49.8762C200.839 50.0784 200.822 50.2867 200.837 50.4939C200.844 50.5639 200.866 50.6315 200.903 50.6917C200.939 50.7518 200.989 50.803 201.048 50.8414C201.383 50.9586 201.728 51.0468 202.079 51.1048C202.497 51.1775 202.583 51.1048 202.651 50.6938C202.735 50.1941 202.822 49.6922 202.917 49.1949C203.003 48.752 203.101 48.3115 203.199 47.8709C203.319 47.3417 203.451 46.8149 203.56 46.2812C203.669 45.7475 203.746 45.2456 203.848 44.7301C203.93 44.3259 204.025 43.9239 204.114 43.5219C204.232 42.9905 204.366 42.4614 204.464 41.9322C204.492 41.6751 204.498 41.416 204.482 41.1578V41.1692ZM204.902 51.6453C205.522 48.4 206.121 45.2729 206.719 42.0776L205.199 41.369C205.102 41.7051 205.006 41.9844 204.943 42.2774C204.825 42.8293 204.729 43.3834 204.616 43.9352C204.502 44.4871 204.366 45.0707 204.248 45.6362C204.146 46.1313 204.066 46.6332 203.957 47.1283C203.766 48.0072 203.562 48.886 203.364 49.7649C203.294 50.0738 203.217 50.3826 203.167 50.696C203.143 50.8995 203.131 51.1043 203.13 51.3092L204.902 51.6453ZM201.093 41.151C200.351 44.1601 199.66 47.1328 198.984 50.0987C199.399 50.3258 199.733 50.5371 200.14 50.4349C200.455 50.1215 200.367 49.7127 200.453 49.3516C200.66 48.4772 200.873 47.6029 201.062 46.7218C201.25 45.8406 201.4 44.9913 201.577 44.1283C201.663 43.7059 201.77 43.288 201.868 42.8679C201.965 42.4477 202.095 41.9595 202.195 41.5053C202.202 41.3682 202.191 41.2308 202.163 41.0965L201.093 41.151ZM201.034 61.0723C201.652 61.2312 202.19 61.3766 202.733 61.5083C202.974 61.5673 203.071 61.4288 203.108 61.2062C203.162 60.8747 203.23 60.5431 203.292 60.2115C203.389 59.6597 203.496 59.1078 203.58 58.5537C203.614 58.3266 203.673 58.0586 203.58 57.8974C203.487 57.7361 203.203 57.7271 203.006 57.6453C202.941 57.6066 202.873 57.5732 202.803 57.5454C202.484 57.4363 202.141 57.4105 201.809 57.4704C201.55 58.6604 201.3 59.83 201.034 61.0723ZM199.542 56.8096C199.445 57.0367 199.347 57.2365 199.283 57.4386C199.24 57.5817 199.252 57.7384 199.217 57.8928C199.04 58.6945 198.85 59.4962 198.684 60.3001C198.681 60.3597 198.693 60.4191 198.719 60.4728C198.745 60.5264 198.785 60.5725 198.834 60.6067C199.288 60.7248 199.742 60.8179 200.196 60.8974C200.446 60.9405 200.56 60.8043 200.607 60.5522C200.805 59.4848 201.023 58.4243 201.234 57.3592C200.794 56.8482 200.115 57.1525 199.542 56.8096ZM205.154 63.266C205.091 63.2258 205.025 63.1901 204.956 63.1593C204.629 63.0458 204.445 63.291 204.221 63.4523C204.032 63.5885 203.882 63.7997 203.58 63.7202C203.037 63.5794 202.483 63.475 201.934 63.3523C201.529 63.2638 201.125 63.1729 200.725 63.073C200.255 62.9572 199.79 62.8187 199.317 62.7096C198.845 62.6006 198.359 62.528 197.884 62.4144C196.935 62.1873 195.993 61.9443 195.003 61.6968L194.855 61.288C194.775 61.4372 194.726 61.6009 194.712 61.7694C194.675 62.0306 194.828 62.1532 195.05 62.2123C195.377 62.2986 195.707 62.3758 196.034 62.453C196.765 62.6233 197.498 62.7778 198.223 62.964C199.252 63.232 200.267 63.5317 201.305 63.8065C202.172 64.0367 203.042 64.2585 203.914 64.472C204.218 64.5469 204.534 64.581 204.87 64.6377L205.154 63.266ZM198.068 60.4386C198.336 59.176 198.654 58.0109 198.831 56.8482C198.377 56.5121 197.934 56.5325 197.469 56.5734C197.242 57.7725 196.76 58.8989 196.763 60.1162L198.068 60.4386ZM205.79 35.6097C205.837 35.3077 205.878 35.0511 205.915 34.7922C205.958 34.4901 205.894 34.4106 205.604 34.4333C205.174 34.4674 204.745 34.5151 204.305 34.5605C204.134 34.9738 203.932 35.3735 204.077 35.8754L205.79 35.6097ZM207.845 35.6302C208.124 35.1078 208.124 35.1078 208.056 34.5219C207.566 34.5537 207.075 34.2017 206.578 34.5219C206.498 34.8989 206.426 35.2396 206.351 35.6302H207.845ZM203.53 34.7808C202.971 34.7604 202.899 34.7967 202.644 34.9489C202.39 35.101 202.474 35.3849 202.417 35.6075C202.361 35.83 202.149 36.0344 202.358 36.3228C202.633 36.048 203.153 36.2978 203.335 35.8959C203.482 35.5711 203.685 35.2214 203.528 34.7808H203.53Z" fill="#100E5D"/>
<path d="M229 44.7915C229.909 44.0012 230.694 43.2904 231.498 42.6159C233.022 41.3462 234.72 40.3022 236.54 39.516C237.39 39.1253 238.287 38.8474 239.208 38.6893C240.451 38.5099 241.707 38.2556 242.983 38.544C243.698 38.7052 244.452 38.6961 245.156 38.8869C246.061 39.1202 246.943 39.4357 247.791 39.8294C248.998 40.3811 250.059 41.2069 250.891 42.2412C251.488 43.0027 251.992 43.833 252.392 44.7143C252.685 45.3593 252.934 46.0247 253.177 46.6901C253.315 47.0596 253.424 47.4392 253.502 47.8256C253.62 48.416 253.697 49.0156 253.793 49.6106C253.92 50.41 254.046 51.2101 254.172 52.011C254.182 52.0666 254.189 52.1227 254.193 52.1791C254.292 53.7256 254.399 55.2699 254.488 56.8142C254.54 57.7022 254.61 58.5901 254.595 59.4758C254.563 61.2926 254.508 63.1095 254.406 64.9263C254.352 65.8824 254.179 66.8316 254.054 67.7855C253.956 68.5508 253.881 69.3207 253.752 70.0837C253.657 70.7883 253.505 71.484 253.298 72.164C253.087 72.7726 252.562 73.1904 252.046 73.5629C251.223 74.148 250.336 74.6393 249.403 75.0277C248.495 75.4092 247.638 75.5205 246.766 74.9914C246.681 74.952 246.593 74.9194 246.503 74.8937C246.474 74.241 246.515 73.5871 246.623 72.9429C246.644 72.8316 246.687 72.7158 246.698 72.6113C246.791 71.6348 246.871 70.6583 246.971 69.6817C247.093 68.4622 247.234 67.245 247.366 66.0254C247.366 65.9891 247.366 65.9505 247.38 65.9141C247.475 64.6129 247.545 63.3116 247.668 62.0148C247.786 60.7726 247.868 59.5303 247.895 58.2813C247.914 56.9587 247.815 55.637 247.6 54.332C247.388 53.035 247.085 51.7548 246.691 50.5008C246.333 49.3653 245.669 48.3615 244.961 47.3941C244.358 46.5668 243.662 45.811 242.887 45.1412C242.589 44.8878 242.248 44.6908 241.879 44.5599C241.441 44.4077 240.957 44.3873 240.517 44.2624C239.492 43.9785 238.45 44.0898 237.417 44.1102C236.849 44.1168 236.286 44.2001 235.741 44.3577C234.671 44.7004 233.69 45.2768 232.87 46.0451C231.56 47.226 230.631 48.684 229.797 50.2079C229.508 50.7494 229.267 51.3156 229.077 51.8998C228.963 52.278 228.908 52.6718 228.914 53.0671C228.905 58.8581 228.905 64.6484 228.914 70.438C228.914 70.7582 228.884 71.0807 228.878 71.4009C228.838 71.8926 228.608 72.3493 228.235 72.6727C227.325 73.5569 226.249 74.2516 225.069 74.7166C224.776 74.8415 224.483 74.9596 224.183 75.0663C223.954 75.1573 223.707 75.1913 223.461 75.1656C223.216 75.1399 222.981 75.0552 222.775 74.9187C222.419 74.6916 222.321 74.2919 222.289 73.8922C222.258 73.4925 222.255 73.061 222.255 72.6454C222.255 60.8589 222.255 49.0708 222.255 37.2813C222.263 36.884 222.247 36.4866 222.208 36.0913C222.167 35.6872 222.014 35.3027 221.765 34.9815C221.517 34.6603 221.183 34.4153 220.802 34.2745C220.529 34.1587 220.23 34.1087 219.946 34.0133C218.958 33.684 218.461 32.7983 219.176 31.7627C219.739 30.9452 220.511 30.3502 221.277 29.7529C221.755 29.3973 222.26 29.0785 222.787 28.7991C223.312 28.4979 223.933 28.4101 224.522 28.5538C225.369 28.7084 226.173 29.0396 226.884 29.5258C227.733 30.1213 228.343 30.9995 228.605 32.0035C228.871 33.1429 228.999 34.3104 228.984 35.4804C229.032 38.3191 229.009 41.1579 229.014 43.9944L229 44.7915Z" fill="#100E5D"/>
<path d="M42.1175 36.7908C42.1833 36.8658 42.2333 36.9748 42.3173 37.0179C42.6057 37.1406 42.9055 37.245 43.2757 37.3745C41.1841 41.8234 39.1107 46.2314 37.0372 50.6349C36.583 50.7076 34.6981 49.9831 33.9055 49.4335C33.8101 48.8363 34.119 48.298 34.2439 47.7439C34.4097 46.999 34.6459 46.2677 34.8571 45.5319C35.0683 44.7961 35.2908 44.0989 35.493 43.379C35.6042 42.9816 35.6769 42.5751 35.7814 42.1777C35.8858 41.7802 36.0085 41.3919 36.1357 40.9513C36.021 40.8942 35.8986 40.8544 35.7723 40.8332C34.9229 40.8491 34.069 40.8332 33.2242 40.9218C32.7409 40.9938 32.2816 41.1799 31.8843 41.4646C31.1178 41.9901 30.4296 42.6217 29.8404 43.3404C28.9646 44.3378 28.1908 45.4204 27.5308 46.5721C27.4486 46.6709 27.4067 46.7971 27.4135 46.9255C27.4202 47.0539 27.4751 47.175 27.5671 47.2647C29.5823 49.7628 31.5876 52.2677 33.583 54.7795L37.7685 60.03C39.5247 62.2329 41.2795 64.4366 43.0327 66.6409C43.5891 67.3427 44.141 68.0467 44.6724 68.7643C44.8459 68.9896 44.9385 69.2667 44.9352 69.551C44.9319 69.8353 44.8329 70.1102 44.6542 70.3313C43.2235 71.9392 41.82 73.588 39.7193 74.3828C39.0532 74.6343 38.3702 74.8385 37.6754 74.9937C36.3128 75.3071 34.9297 75.2208 33.5558 75.1504C32.9785 75.0817 32.4085 74.9617 31.8525 74.7916C31.5397 74.7317 31.2348 74.6357 30.9441 74.5054C30.727 74.4159 30.5451 74.2578 30.4262 74.0552C30.3073 73.8527 30.2579 73.6168 30.2855 73.3836C30.2941 73.1858 30.3598 72.9947 30.4747 72.8335C30.5895 72.6723 30.7486 72.5478 30.9328 72.4752C31.268 72.3542 31.6177 72.2778 31.9729 72.2481C32.4271 72.1822 32.8699 72.1527 33.3173 72.0936C33.9146 72.0141 34.3915 71.6826 34.8434 71.3124C35.1591 71.0512 35.4702 70.781 35.7519 70.4903C36.0017 70.2405 36.2061 69.9566 36.4672 69.6637C36.0335 68.9188 35.6338 68.1807 35.1864 67.4744C34.0812 65.7288 32.9608 63.9876 31.8253 62.2511C30.5217 60.2549 29.1909 58.2746 27.8851 56.2783C26.9131 54.7976 25.9593 53.3056 24.9986 51.8204C24.7715 51.759 24.6989 51.8839 24.6171 52.0475C24.097 53.1421 23.5611 54.2276 23.041 55.32C21.8964 57.7272 20.7526 60.136 19.6095 62.5463C19.5142 62.7484 19.3824 62.9324 19.2757 63.13C19.0736 63.4956 19.0963 63.725 19.4233 63.9589C20.2972 64.6022 21.3073 65.0358 22.3756 65.2261C23.2732 65.3506 24.1852 65.3229 25.0736 65.1444C25.6596 65.0203 26.2322 64.84 26.7836 64.6061C27.6768 64.2769 28.5099 63.8035 29.25 63.2049C29.5134 62.9914 29.6815 63.055 29.8745 63.3548C30.2696 63.9657 30.6716 64.5743 31.0554 65.1898C31.145 65.3638 31.2209 65.5445 31.2825 65.7303C30.5321 66.3587 29.6856 66.8625 28.7753 67.2223C27.2159 67.8069 25.5429 68.0245 23.8858 67.8582C23.0034 67.8011 22.1432 67.5565 21.3628 67.1406C20.2999 66.5569 19.2212 66.0051 18.1084 65.4146C17.6542 66.1618 17.1864 66.9271 16.7004 67.6856C15.6239 69.348 14.4748 70.9604 13.0327 72.3298C12.0712 73.2233 10.9288 73.8994 9.68297 74.3124C8.11211 74.8591 6.44459 75.0726 4.78668 74.9392C4.07636 74.8592 3.37119 74.7387 2.67464 74.5781C2.28584 74.5142 1.90512 74.4084 1.53914 74.2624C1.32462 74.1855 1.13821 74.0458 1.00415 73.8616C0.870085 73.6773 0.794575 73.4569 0.787437 73.2291C0.77154 72.6137 1.33702 72.0936 2.03195 72.0187C2.61333 71.9664 3.19243 71.8733 3.77381 71.8166C4.27423 71.7449 4.74547 71.5375 5.13641 71.217C6.21741 70.4426 7.03498 69.4229 7.84118 68.3942C9.4922 66.2867 10.7935 63.9566 11.929 61.5425C12.7443 59.8256 13.5528 58.1065 14.3703 56.3896C15.2129 54.6228 16.0327 52.8468 16.9184 51.1027C17.6587 49.6402 18.4627 48.2072 19.2643 46.7878C19.8934 45.6705 20.5361 44.5577 21.222 43.4744C22.4301 41.569 24.0993 40.161 26.0706 39.0891C27.1103 38.5388 28.2068 38.1032 29.3408 37.7901C29.879 37.6334 30.4491 37.5902 31.0009 37.4835C31.8725 37.3068 32.7638 37.2472 33.6512 37.3064C34.7571 37.3904 35.8586 37.5198 37.0191 37.6334C37.1122 37.3836 37.2462 37.0951 37.3234 36.7976C37.4301 36.4388 37.4983 36.0687 37.5959 35.7076C37.664 35.4509 37.8639 35.3669 38.1864 35.4805C38.661 35.6462 39.1311 35.8302 39.6012 36.0119C40.2825 36.273 40.9479 36.5456 41.6292 36.7931C41.7945 36.8306 41.9641 36.8451 42.1334 36.8363L42.1175 36.7908Z" fill="#100E5D"/>
<path d="M154.019 60.1549C154.162 60.5704 154.246 60.9088 154.389 61.22C155.113 62.841 156.153 64.3016 157.448 65.5167C158.814 66.8223 160.408 67.8661 162.151 68.5962C163.268 69.0332 164.427 69.3558 165.61 69.5591C167.234 69.852 168.853 69.7862 170.468 69.684C171.46 69.5914 172.441 69.395 173.393 69.0981C175.283 68.5652 177.074 67.7259 178.693 66.6136C179.552 66.0209 180.421 65.444 181.284 64.8558C181.679 64.5983 182.129 64.438 182.597 64.388C183.278 64.2949 184.057 64.7786 184.103 65.5621C184.129 65.8347 184.093 66.1097 183.998 66.3665C183.902 66.6233 183.75 66.8553 183.553 67.0451C183.07 67.5166 182.563 67.963 182.034 68.3827C180.537 69.5585 178.963 70.6335 177.324 71.6007C175.799 72.5144 174.188 73.2751 172.514 73.8717C171.503 74.2237 170.47 74.5053 169.443 74.7642C167.154 75.3365 164.84 75.3138 162.519 75.1594C161.847 75.0854 161.182 74.9593 160.53 74.7824C159.928 74.6439 159.333 74.4758 158.742 74.2987C156 73.4779 153.503 71.9908 151.475 69.9701C150.135 68.6406 149.043 67.0834 148.248 65.3714C147.822 64.3939 147.482 63.3809 147.233 62.3441C146.69 60.2616 146.699 58.1564 146.844 56.0443C146.92 55.3922 147.048 54.7474 147.228 54.1162C147.365 53.553 147.537 52.9989 147.701 52.4448C148.046 51.3442 148.508 50.2836 149.079 49.2813C151.141 45.454 154.367 42.3822 158.29 40.5106C159.443 39.9298 160.651 39.4672 161.897 39.1299C162.834 38.8481 163.799 38.6654 164.774 38.5848C165.528 38.5485 166.277 38.4372 167.029 38.4054C168.328 38.3738 169.625 38.5074 170.89 38.8028C172.354 39.1123 173.761 39.6487 175.059 40.3925C176.663 41.305 177.945 42.6918 178.729 44.3623C179.077 45.0318 179.27 45.7705 179.295 46.5243C179.295 47.5644 179.345 48.6068 179.256 49.6401C179.179 50.2679 179.008 50.8804 178.748 51.4569C177.917 53.4233 176.595 55.1436 174.91 56.4531C173.561 57.518 172.079 58.4021 170.502 59.0829C169.707 59.4136 168.89 59.6853 168.056 59.896C167.89 59.9351 167.72 59.9549 167.549 59.955C165.773 60.014 164 60.0799 162.224 60.1208C161.658 60.1208 161.088 60.0504 160.525 60.0527C159.714 60.0527 158.904 60.1072 158.093 60.1208C156.975 60.1412 155.86 60.1458 154.743 60.1549H154.019ZM153.165 54.5477H153.901C157.116 54.5477 160.332 54.5477 163.55 54.5477C164.551 54.5675 165.552 54.4999 166.541 54.3456C167.634 54.1722 168.717 53.9379 169.784 53.6439C170.665 53.4039 171.495 53.0027 172.23 52.4607C172.975 51.8884 173.427 51.1231 173.327 50.176C173.257 49.5593 173.087 48.958 172.825 48.3956C172.025 46.6696 170.577 45.6704 168.869 44.9618C168.061 44.6127 167.212 44.3722 166.341 44.2464C165.433 44.1329 164.524 43.9444 163.602 43.8876C161.922 43.7558 160.233 43.9683 158.638 44.5122C157.961 44.7309 157.335 45.0822 156.796 45.5455C155.965 46.3225 155.277 47.2405 154.766 48.257C154.212 49.2139 153.815 50.2537 153.592 51.3365C153.534 51.7637 153.446 52.1863 153.33 52.6015C153.131 53.2192 153.178 53.8346 153.165 54.5477Z" fill="#100E5D"/>
<path d="M55.5262 44.7824C56.3688 44.0397 57.1159 43.3607 57.879 42.7135C59.2762 41.5319 60.8186 40.5337 62.4687 39.743C63.441 39.2581 64.4691 38.8943 65.53 38.6597C66.6415 38.4291 67.7777 38.3398 68.9116 38.394C69.8116 38.4578 70.7052 38.5914 71.5845 38.7937C72.5171 38.9937 73.4216 39.3072 74.2779 39.7271C75.7985 40.4146 77.0902 41.5235 78.0001 42.9224C78.8512 44.2831 79.5158 45.752 79.9759 47.2896C80.0856 47.689 80.1668 48.0958 80.2189 48.5068C80.3234 49.1768 80.4142 49.8467 80.505 50.5189C80.6345 51.4705 80.7798 52.422 80.882 53.3759C80.9479 53.9958 80.9206 54.6272 80.9865 55.2449C81.1953 57.5438 81.2432 59.8545 81.1296 62.1601C81.0819 63.5727 80.9025 64.9807 80.7798 66.391C80.7685 66.5227 80.7549 66.6544 80.7367 66.7861C80.5936 67.7922 80.4528 68.7983 80.3075 69.802C80.2212 70.3993 80.1235 70.9921 80.035 71.5871C79.948 72.0088 79.7441 72.3975 79.4468 72.7089C78.7882 73.5061 77.9047 73.9966 77.0236 74.4826C76.5847 74.7314 76.1221 74.936 75.6428 75.0935C75.2579 75.2267 74.8501 75.2806 74.4438 75.2522C74.0375 75.2237 73.6412 75.1133 73.2787 74.9277C73.1895 74.8927 73.1144 74.8292 73.0651 74.747C73.0158 74.6649 72.9951 74.5687 73.0062 74.4735C73.0289 74.2668 73.0312 74.0579 73.0539 73.8513C73.1129 73.3289 73.1788 72.8043 73.2401 72.282C73.3703 71.2146 73.499 70.148 73.6262 69.0821C73.6262 69.0435 73.6398 69.0072 73.6421 68.9686C73.7374 67.8036 73.8192 66.634 73.9237 65.469C74.0372 64.2108 74.1689 62.9527 74.2916 61.6946C74.3097 61.5265 74.3325 61.3562 74.3347 61.1881C74.3461 59.4667 74.3983 57.7453 74.3347 56.0261C74.3052 55.1291 74.1076 54.2366 73.9532 53.3463C73.8737 52.8444 73.7783 52.3448 73.6534 51.8543C73.5291 51.3072 73.3675 50.7692 73.1697 50.2441C72.4242 48.4861 71.3444 46.8895 69.9903 45.5432C69.3077 44.8689 68.4367 44.4175 67.4922 44.2487C66.1 43.9421 64.7011 44.0057 63.3181 44.1079C61.7284 44.2282 60.3658 45.0163 59.2303 46.1177C57.8336 47.4553 56.8457 49.07 56.01 50.7983C55.8307 51.165 55.6789 51.5446 55.5558 51.9338C55.4934 52.1707 55.4674 52.4157 55.4785 52.6605C55.4785 56.9164 55.4785 61.1737 55.4785 65.4326C55.4785 67.2494 55.4785 69.0662 55.4785 70.883C55.4851 71.5063 55.2498 72.1078 54.8222 72.5613C54.0455 73.4243 53.0554 73.9898 52.0221 74.4758C51.5156 74.7142 50.9797 74.8891 50.4528 75.0844C49.8873 75.2933 48.8222 74.7756 48.8926 73.9784C48.9085 73.7899 48.8926 73.5992 48.8926 73.4107C48.8926 67.3183 48.8926 61.2252 48.8926 55.1313C48.8926 52.7286 48.8699 50.3259 48.8472 47.9232C48.8498 47.3765 48.7392 46.8353 48.5225 46.3335C48.3991 46.0699 48.2242 45.8336 48.0081 45.6386C47.792 45.4436 47.5392 45.2938 47.2643 45.198C46.9055 45.0503 46.5308 44.9391 46.1629 44.8051C45.3408 44.5076 45.2545 43.5356 45.6428 42.8566C45.9607 42.326 46.3796 41.863 46.876 41.494C47.5686 40.9557 48.2636 40.4175 48.988 39.9224C49.826 39.3524 50.7299 39.3728 51.686 39.6681C52.6104 39.9212 53.4513 40.4148 54.1228 41.0988C54.7678 41.7874 55.1801 42.6612 55.3014 43.5969C55.3582 43.9898 55.4445 44.3554 55.5262 44.7824Z" fill="#100E5D"/>
<path d="M238.003 46.172C236.339 47.07 234.963 48.4192 234.031 50.0645C233.403 51.1053 232.936 52.2345 232.644 53.4143C232.403 54.3976 232.169 55.3855 232.01 56.3848C231.887 57.1353 231.834 57.8955 231.851 58.6558C231.878 59.8798 231.872 61.113 232.139 62.3212C232.237 62.7595 232.289 63.2114 232.41 63.6429C232.621 64.3969 232.832 65.1554 233.111 65.8844C233.501 66.9575 234.121 67.932 234.928 68.739C235.787 69.5793 236.784 70.1153 238.046 70.0222C238.868 69.9631 239.445 69.5203 239.922 68.923C240.457 68.2015 240.85 67.3844 241.078 66.5157C241.716 64.4309 241.662 62.2962 241.48 60.1705C241.406 58.9651 241.023 57.799 240.367 56.7845C240.052 56.3166 239.686 55.8761 239.046 55.8556C238.937 55.8702 238.831 55.896 238.728 55.9328C238.826 56.0436 238.931 56.149 239.041 56.2485C239.886 56.9412 240.322 57.8791 240.615 58.8988C240.916 59.8528 241.053 60.8512 241.019 61.8511C240.933 63.2614 240.683 64.6421 239.931 65.8821C239.429 66.711 238.748 67.3605 237.822 67.6376C237.408 67.7798 236.963 67.8029 236.538 67.7041C236.112 67.6053 235.723 67.3886 235.414 67.0789C234.692 66.3434 234.141 65.4569 233.802 64.4832C233.557 63.8382 233.348 63.1728 233.173 62.5074C233.051 62.0914 232.97 61.6648 232.93 61.2334C232.844 60.1228 232.703 59.0032 232.757 57.8995C232.792 57.0157 232.893 56.1358 233.062 55.2674C233.355 53.8179 233.892 52.4287 234.651 51.1592C235.474 49.7908 236.695 48.7061 238.151 48.0502C238.784 47.7209 239.482 47.5363 240.195 47.5097C241.373 47.5097 242.316 48.0615 243.088 48.9086C243.86 49.7557 244.319 50.7527 244.728 51.8041C245.111 52.8628 245.388 53.9567 245.557 55.0698C245.864 56.9765 245.94 58.9133 245.784 60.8382C245.707 61.9299 245.555 63.015 245.329 64.0857C245.13 65.0532 244.796 65.9934 244.516 66.9427C244.149 68.1788 243.583 69.347 242.84 70.4014C242.089 71.4824 241.196 72.4453 239.979 73.0199C239.677 73.1607 239.398 73.4287 238.918 73.3378C239.245 73.1107 239.504 72.9336 239.77 72.761C241.289 71.7686 242.323 70.3673 243.068 68.7481C243.41 67.9818 243.702 67.1944 243.944 66.3908C244.075 65.8619 244.179 65.3268 244.255 64.7875C244.628 62.9707 244.576 61.1425 244.451 59.3144C244.396 58.4945 244.183 57.686 244.06 56.8685C243.917 56.037 243.668 55.2273 243.32 54.4589C242.89 53.462 242.379 52.515 241.555 51.7701C240.731 51.0252 239.818 50.7141 238.762 50.9321C237.761 51.1387 236.845 51.6383 236.13 52.3673C235.361 53.1665 234.806 54.1468 234.517 55.2175C234.233 56.2767 234.119 57.3745 234.181 58.4695C234.187 59.3007 234.289 60.1283 234.485 60.9359C234.801 62.1168 235.253 63.2432 236.075 64.1766C236.277 64.4234 236.53 64.6244 236.816 64.7661C237.101 64.9078 237.414 64.9871 237.733 64.9987C238.142 65.0303 238.547 64.9026 238.864 64.6423C239.181 64.382 239.385 64.0093 239.434 63.602C239.66 62.5237 239.506 61.4002 238.998 60.4226C238.866 60.109 238.615 59.8602 238.301 59.73C238.068 59.6482 237.814 59.6435 237.578 59.7167C237.342 59.7899 237.136 59.9371 236.99 60.1365C236.733 60.4985 236.501 60.8779 236.295 61.272C236.207 61.4459 236.08 61.5968 235.923 61.7125C235.881 61.5804 235.852 61.4441 235.839 61.306C235.839 60.2682 235.769 59.2212 235.871 58.1925C235.989 56.937 236.369 55.7202 236.986 54.6202C237.045 54.5249 237.109 54.4331 237.179 54.3454C237.962 53.2712 238.782 53.1304 239.92 53.7118C240.896 54.2114 241.51 55.0494 241.964 56.0078C242.441 57.0839 242.767 58.2212 242.931 59.387C243.077 60.4547 243.137 61.5324 243.108 62.6096C243.108 63.652 242.904 64.6648 242.718 65.6868C242.561 66.5325 242.312 67.3586 241.977 68.1508C241.396 69.5475 240.656 70.8215 239.3 71.6278C238.808 71.9388 238.255 72.1403 237.678 72.2187C237.101 72.2971 236.514 72.2504 235.957 72.082C234.579 71.6868 233.654 70.7466 232.909 69.5952C232.294 68.6557 231.823 67.6291 231.513 66.5498C231.313 65.848 231.09 65.1508 230.909 64.4446C230.797 64.0071 230.716 63.5624 230.666 63.1138C230.439 61.2356 230.289 59.3484 230.457 57.4589C230.536 56.4264 230.681 55.4 230.893 54.3863C231.292 52.5944 231.856 50.8503 232.896 49.306C233.627 48.2182 234.515 47.2803 235.721 46.7284C236.327 46.487 236.951 46.2927 237.588 46.1471C237.727 46.1325 237.867 46.1409 238.003 46.172Z" fill="#100E5D"/>
<path d="M70.946 27.9475C70.9945 28.0376 71.0348 28.1319 71.0664 28.2291C71.2253 29.0126 71.809 29.4214 72.4585 29.7257C73.0285 29.9937 73.6144 30.2572 74.2753 30.2549C74.4057 30.2725 74.5342 30.3021 74.6591 30.3435C75.4412 30.5007 76.2538 30.376 76.9528 29.9914C77.2163 29.8484 77.407 29.569 77.6909 29.2943C77.9483 29.3712 78.2009 29.4638 78.4471 29.5713C80.2639 30.4797 82.0807 31.4176 83.6818 32.6849C84.8798 33.5818 85.9112 34.6817 86.7295 35.9347C87.1185 36.5351 87.3562 37.2208 87.4222 37.9332C87.4403 38.1872 87.3733 38.44 87.2319 38.6518C87.0904 38.8635 86.8825 39.0222 86.6409 39.1027C85.837 39.4298 85.0853 39.2185 84.329 38.9892C83.4729 38.7303 82.6258 38.4351 81.7719 38.158C81.1337 37.9513 80.4979 37.731 79.8529 37.5516C79.1511 37.3541 78.4381 37.1996 77.7318 37.0225C77.2617 36.9044 76.7938 36.7772 76.3237 36.6614C75.9218 36.5615 75.5198 36.4615 75.1156 36.3843C74.5433 36.2776 73.9642 36.2004 73.3919 36.0936C72.8196 35.9869 72.2155 35.8529 71.6296 35.7303C71.5728 35.7189 71.5183 35.7053 71.4615 35.6985C70.7144 35.6054 69.9672 35.5191 69.2223 35.4169C68.3661 35.3011 67.51 35.1671 66.6561 35.0422C66.5993 35.0422 66.5425 35.024 66.488 35.0195C65.3957 34.9286 64.3056 34.8491 63.2155 34.7447C61.9574 34.6235 60.7015 34.4918 59.4479 34.3495C58.812 34.2791 58.1807 34.1724 57.5448 34.0974C56.4365 33.968 55.728 33.2708 55.1648 32.3987C54.7742 31.7901 55.0058 30.7886 55.619 30.2458C56.1946 29.7432 56.8626 29.3576 57.5857 29.1103C58.5372 28.781 59.5047 28.4812 60.4812 28.2382C61.1625 28.0724 61.862 28.0588 62.5433 27.9226C64.0194 27.6273 65.516 27.6818 67.0035 27.6546C67.9869 27.6341 68.9702 27.7023 69.9558 27.7613C70.2899 27.7998 70.6208 27.862 70.946 27.9475ZM56.4116 31.8196C56.4979 32.2738 56.8499 32.3647 57.1156 32.4668C58.2511 32.8983 59.4434 33.046 60.6379 33.164C61.4078 33.239 62.1799 33.2912 62.9521 33.3344C63.5931 33.3927 64.2384 33.3851 64.8779 33.3117C62.0754 32.837 59.2208 32.7212 56.4116 31.8196Z" fill="#100E5D"/>
<path d="M139.781 37.5561C138.834 37.5561 137.889 37.5561 136.944 37.5561C135.925 37.5424 134.9 36.5773 134.755 35.5667C134.528 34.0337 135.132 32.7733 136 31.6083C136.482 30.9681 137.013 30.3667 137.589 29.8097C138.259 29.1556 138.325 28.3608 138.1 27.5727C137.8 26.5062 137.229 25.5354 136.442 24.7544C136.415 24.7294 136.395 24.6976 136.368 24.6704C136.197 24.4932 136 24.307 136.175 24.0413C136.372 23.737 136.588 23.955 136.81 24.0413C138.704 24.793 140.482 25.8091 142.09 27.0595C143.408 28.0746 144.625 29.2056 145.304 30.7907C145.535 31.3225 145.673 31.8903 145.71 32.469C145.817 34.0701 145.234 35.4213 144.184 36.5568C143.074 37.765 143.56 37.522 141.936 37.547C141.218 37.547 140.499 37.547 139.781 37.547V37.5561Z" fill="#100E5D"/>
<path d="M269.458 30.6813C269.533 33.4724 267.232 35.6208 264.584 35.6526C263.937 35.6637 263.294 35.5468 262.692 35.3086C262.09 35.0704 261.542 34.7156 261.077 34.2646C260.613 33.8136 260.242 33.2753 259.987 32.6807C259.731 32.086 259.596 31.4467 259.588 30.7994C259.561 27.8176 261.807 25.7646 264.489 25.726C265.143 25.7175 265.792 25.8398 266.397 26.0856C267.003 26.3314 267.554 26.6959 268.017 27.1576C268.48 27.6192 268.846 28.1688 269.093 28.7739C269.341 29.3791 269.465 30.0276 269.458 30.6813Z" fill="#100E5D"/>
<path d="M28.2976 32.8822C28.393 35.6801 26.0266 37.8784 23.3491 37.8579C22.6926 37.8512 22.0439 37.7143 21.4406 37.4553C20.8374 37.1962 20.2914 36.8201 19.8344 36.3488C19.3774 35.8774 19.0184 35.3201 18.7781 34.7091C18.5378 34.0981 18.4211 33.4455 18.4347 32.7891C18.471 30.2228 20.742 27.8837 23.4558 27.9336C26.0584 27.9813 28.3862 30.2228 28.2976 32.8822Z" fill="#100E5D"/>
<path d="M95.0959 59.5574C95.1842 59.5472 95.2734 59.5472 95.3616 59.5574C96.4222 59.8265 97.5157 59.9435 98.6092 59.9049C99.5118 59.8375 100.41 59.7169 101.298 59.5438C102.914 59.2798 104.422 58.5632 105.647 57.4772C106.145 56.9949 106.616 56.4854 107.057 55.951C107.155 55.842 107.248 55.7239 107.339 55.624C107.4 55.6604 107.455 55.674 107.457 55.6967C107.582 56.4757 107.8 57.2433 107.78 58.0426C107.759 58.951 107.841 59.8594 107.709 60.7679C107.537 61.9465 107.121 63.0525 105.972 63.6906C105.582 63.9153 105.146 64.0496 104.698 64.0835C103.436 64.1388 102.18 63.8847 101.039 63.3432C98.8794 62.3984 96.9513 61.0722 95.0664 59.6778L95.0959 59.5574Z" fill="#100E5D"/>
<path d="M59.4512 37.1609L59.8327 34.9966C60.1756 35.0148 60.4754 35.0216 60.7729 35.0511C61.1839 35.092 61.5927 35.1714 62.0061 35.201C63.3823 35.3009 64.7585 35.3781 66.1325 35.4803C66.9614 35.5394 67.7903 35.6052 68.6147 35.7074C69.3596 35.8005 70.0999 35.9481 70.8425 36.0708C71.4171 36.1661 71.9962 36.2388 72.5662 36.3592C73.3179 36.5159 74.0651 36.6998 74.81 36.8929C75.5549 37.0859 76.2543 37.288 76.972 37.4992C77.617 37.69 78.2551 37.9035 78.8978 38.101C79.7358 38.3577 80.5783 38.6029 81.4163 38.8641C81.8705 39.0072 82.3247 39.1707 82.8562 39.3456C82.5871 40.1714 82.234 40.9673 81.8024 41.721C74.8849 37.5197 67.4837 36.0458 59.4512 37.1609Z" fill="#100E5D"/>
<path d="M120.363 59.9548C120.488 59.68 120.563 59.4756 120.67 59.2894C121.366 58.0056 122.349 56.8997 123.543 56.0577C124.3 55.4971 125.197 55.1553 126.136 55.0699C126.567 55.0392 127 55.1047 127.402 55.2619C127.805 55.419 128.168 55.6637 128.464 55.9783C128.916 56.4507 129.265 57.0122 129.488 57.627C129.929 58.79 130.176 60.0175 130.219 61.2606C130.219 61.4196 130.199 61.5808 130.183 61.8511C129.768 61.4446 129.431 61.1107 129.088 60.7837C128.307 60.0273 127.337 59.4941 126.279 59.2394C125.229 59.0003 124.14 58.9926 123.086 59.2167C122.257 59.3845 121.447 59.6316 120.665 59.9548C120.565 59.9663 120.464 59.9663 120.363 59.9548Z" fill="#100E5D"/>
<path d="M264.037 53.7548C266.75 48.8199 265.715 44.6118 261.473 40.985C261.611 40.96 261.684 40.9259 261.743 40.9418C263.114 41.2363 264.427 41.7574 265.626 42.4838C266.73 43.181 267.67 44.0463 268.188 45.2704C268.559 46.1209 268.639 47.0701 268.415 47.9706C267.92 50.0145 266.619 51.4997 265.177 52.9055C264.834 53.2371 264.466 53.5459 264.112 53.8638L264.037 53.7548Z" fill="#100E5D"/>
<path d="M285.762 30.1004C285.253 30.2162 284.821 30.3275 284.381 30.407C283.331 30.608 282.318 30.9655 281.374 31.4675C280.256 31.9929 279.311 32.8255 278.649 33.868C278.177 34.6242 277.45 35.0921 276.648 35.4418C275.761 35.8498 274.807 36.093 273.832 36.1594C273.439 36.1776 273.051 36.273 272.658 36.3139C271.72 36.3849 270.778 36.2722 269.883 35.9823C270.019 35.9561 270.157 35.9409 270.296 35.9369C272.783 36.0413 274.759 35.0285 276.298 33.1344C277.073 32.1784 277.94 31.3517 279.062 30.8294C279.976 30.4045 280.946 30.1109 281.942 29.9573C282.969 29.8054 284.009 29.7507 285.046 29.7938C285.296 29.8006 285.557 29.8029 285.762 30.1004Z" fill="#100E5D"/>
<path d="M213.033 19.0971C211.848 18.8495 210.712 18.4884 209.568 18.1887C208.423 17.8889 207.265 17.5528 206.043 17.2144C206.315 16.2651 206.654 15.3772 207.022 14.4233L213.608 16.113C213.406 17.1304 213.226 18.0797 213.033 19.0971Z" fill="#100E5D"/>
<path d="M46.1016 32.9072C45.636 33.0866 45.2681 32.7505 44.8775 32.6279C43.8624 32.3099 42.8722 31.9193 41.873 31.556C40.8215 31.1744 39.77 30.7952 38.7231 30.4068C38.6299 30.3562 38.5443 30.2928 38.4688 30.2184C39.4952 28.4424 41.521 28.0041 43.1607 28.481C44.0959 28.7505 44.9051 29.3435 45.4437 30.1542C45.9824 30.9649 46.2156 31.9406 46.1016 32.9072Z" fill="#100E5D"/>
<path d="M211.81 27.9497C211.703 28.6106 211.617 29.1647 211.519 29.7665C211.291 29.7703 211.063 29.7574 210.838 29.7279C210.361 29.628 209.891 29.5008 209.416 29.3827C208.996 29.2851 208.576 29.1874 208.153 29.1034C207.288 28.9308 206.418 28.7832 205.555 28.5992C204.586 28.3926 203.623 28.145 202.635 27.9179C202.635 27.1799 202.964 26.5849 203.182 25.9263L211.81 27.9497Z" fill="#100E5D"/>
<path d="M38.1334 30.6885C38.6512 30.8565 39.1486 31.0019 39.6346 31.1813C40.5611 31.5219 41.4741 31.8921 42.4007 32.2305C43.4998 32.6332 44.6043 33.0246 45.7141 33.4046C45.9412 33.4864 46.0252 33.6521 45.9412 33.8406C45.7027 34.422 45.487 35.017 44.9237 35.4054L37.82 32.8323C37.6406 32.1351 37.8041 31.4402 38.1334 30.6885Z" fill="#100E5D"/>
<path d="M212.87 20.7301C212.527 21.4545 212.836 22.2153 212.403 22.8807L204.908 20.8186C204.928 20.5891 204.964 20.3614 205.017 20.1373C205.119 19.7989 205.281 19.4787 205.383 19.1426C205.465 18.8701 205.61 18.7702 205.882 18.8383C206.373 18.9609 206.868 19.0654 207.356 19.1903C207.79 19.3016 208.217 19.4356 208.651 19.5491C209.332 19.7285 210.032 19.8966 210.72 20.0737C211.208 20.2009 211.694 20.3326 212.18 20.4757C212.396 20.5257 212.596 20.621 212.87 20.7301Z" fill="#100E5D"/>
<path d="M204.348 22.397L212.16 24.3364C212.333 25.0177 211.963 25.5945 211.933 26.294C210.798 26.017 209.757 25.7512 208.704 25.5014C208.229 25.3879 207.745 25.3175 207.268 25.2107C206.792 25.104 206.326 24.9723 205.851 24.8587C205.377 24.7452 204.904 24.6316 204.423 24.5385C203.773 24.4273 203.651 24.2433 203.869 23.6301C203.937 23.4371 203.971 23.2304 204.044 23.0397C204.116 22.8489 204.234 22.6354 204.348 22.397Z" fill="#100E5D"/>
<path d="M211.261 32.5187C210.953 32.5179 210.645 32.4982 210.339 32.4596C209.808 32.3552 209.283 32.2098 208.749 32.0895C208.348 32.0001 207.944 31.9184 207.537 31.8442C206.985 31.7443 206.426 31.6693 205.874 31.558C205.322 31.4468 204.782 31.3037 204.232 31.1901C203.683 31.0766 203.16 30.9971 202.627 30.8904C202.336 30.8313 202.052 30.7473 201.693 30.6633C201.811 30.2726 201.92 29.9411 202.02 29.5891C202.132 29.5656 202.245 29.5572 202.359 29.5641C202.947 29.6776 203.533 29.8094 204.119 29.9275C204.559 30.016 205.002 30.0978 205.443 30.1773C205.961 30.2704 206.481 30.3499 206.998 30.4475C207.68 30.5747 208.361 30.72 209.042 30.8449C209.633 30.954 210.225 31.0524 210.818 31.1402C211.272 31.2083 211.307 31.2401 211.304 31.6625C211.304 31.9169 211.279 32.1758 211.261 32.5187Z" fill="#100E5D"/>
<path d="M75.0807 30.0891C73.9758 30.0615 72.9055 29.6979 72.0126 29.0467C71.8997 28.9791 71.796 28.8974 71.7037 28.8037C71.4766 28.5334 71.3086 28.2155 71.4607 27.8703C71.5212 27.7033 71.6261 27.556 71.7642 27.4443C71.9023 27.3327 72.0683 27.2609 72.2442 27.2367C73.6749 27.0096 75.0216 27.2004 76.2639 27.9611C76.5004 28.1078 76.7076 28.2973 76.8748 28.5198C77.2404 29.0149 77.1201 29.5508 76.5523 29.7643C76.0708 29.9099 75.5788 30.0185 75.0807 30.0891Z" fill="#100E5D"/>
<path d="M42.1349 36.8134C42.0599 36.45 41.6807 36.5091 41.4672 36.4069C40.6723 36.0412 39.8389 35.7574 39.0236 35.4303C38.8867 35.3752 38.7646 35.2889 38.667 35.1783C38.2644 34.6844 37.9745 34.1085 37.8177 33.4909C37.8056 33.3716 37.8056 33.2514 37.8177 33.1321L44.6716 35.7029C43.8949 36.4296 43.0024 36.6113 42.119 36.7952L42.1349 36.8134Z" fill="#100E5D"/>
<path d="M93.522 57.5566C93.2923 57.0555 93.2134 56.4984 93.2949 55.9532C93.3357 55.499 93.3766 55.0448 93.4311 54.5906C93.4896 53.9715 93.7131 53.3794 94.0784 52.876C94.2192 52.6779 94.4045 52.5155 94.6195 52.4019C94.8344 52.2883 95.073 52.2267 95.316 52.222C96.1382 52.172 96.8558 52.4945 97.5871 52.767C98.1366 52.9714 98.6658 53.2212 99.2017 53.4665L99.1881 53.5914L98.2093 53.6731C97.5873 53.697 96.9671 53.7554 96.3516 53.848C95.307 54.0569 94.5802 54.7133 94.1238 55.6648C93.8609 56.1595 93.6915 56.6984 93.6242 57.2545C93.6041 57.3594 93.5697 57.461 93.522 57.5566Z" fill="#100E5D"/>
<path d="M102.512 52.3287C102.671 52.1289 102.823 51.9222 102.991 51.7292C103.661 50.9548 104.354 50.1985 105.262 49.6853C105.545 49.5137 105.851 49.3829 106.17 49.2969C106.852 49.1516 107.403 49.39 107.876 49.9055C108.428 50.5096 108.755 51.2341 109.098 51.9495C109.216 52.2015 109.325 52.4536 109.438 52.7102C109.513 52.8919 109.565 53.0827 109.627 53.2689L109.518 53.337C109.216 53.0713 108.914 52.8079 108.609 52.5399C107.994 51.9949 107.358 51.4862 106.565 51.2273C106.008 51.049 105.408 51.049 104.851 51.2273C104.04 51.4897 103.283 51.8942 102.614 52.4218L102.512 52.3287Z" fill="#100E5D"/>
<path d="M135.214 53.9205C134.376 54.541 133.447 55.0275 132.459 55.3626C132 55.4657 131.526 55.4834 131.06 55.4149C130.841 55.3714 130.644 55.2505 130.506 55.0742C130.217 54.7491 130.037 54.3418 129.991 53.9092C129.939 53.3278 129.841 52.751 129.777 52.1719C129.771 51.9861 129.779 51.8002 129.8 51.6155C130.159 51.9902 130.438 52.3331 130.77 52.6147C131.433 53.1687 132.244 53.5175 133.102 53.6185L135.214 53.9205Z" fill="#100E5D"/>
<path d="M122.257 49.0745C122.847 49.5287 123.344 49.942 123.846 50.3258C124.363 50.6877 124.93 50.9716 125.529 51.1683C126.165 51.3954 126.819 51.2433 127.573 51.3636C126.753 52.0677 126.045 52.6944 125.179 53.0964C124.872 53.2227 124.531 53.2407 124.212 53.1474C123.893 53.0542 123.615 52.8552 123.424 52.5832C123.168 52.2182 122.956 51.825 122.79 51.4113C122.593 50.8858 122.428 50.3489 122.295 49.8035C122.261 49.5621 122.248 49.3181 122.257 49.0745Z" fill="#100E5D"/>
<path d="M143.025 38.6686C142.798 38.2621 142.469 38.1644 142.001 38.1576C140.336 38.1281 139.028 38.9366 137.752 39.8495C137.391 40.1084 137.055 40.3991 136.698 40.683C136.528 40.281 136.496 38.6095 136.639 37.9578H143.084C143.141 38.0696 143.165 38.1956 143.152 38.3205C143.139 38.4454 143.09 38.5639 143.012 38.6618L143.025 38.6686Z" fill="#100E5D"/>
<path d="M205.165 3.96076C205.167 4.10706 205.138 4.25219 205.081 4.38681C205.024 4.52143 204.939 4.64257 204.832 4.74245C204.725 4.84232 204.598 4.91873 204.46 4.96676C204.322 5.01478 204.175 5.03337 204.029 5.02132C203.744 5.02019 203.471 4.9077 203.268 4.70786C203.064 4.50801 202.947 4.23664 202.941 3.95167C202.954 3.66613 203.077 3.39656 203.283 3.19907C203.49 3.00157 203.765 2.89136 204.051 2.89136C204.337 2.89136 204.611 3.00157 204.818 3.19907C205.025 3.39656 205.147 3.66613 205.16 3.95167L205.165 3.96076Z" fill="#100E5D"/>
<path d="M206.565 1.59021C206.575 1.73573 206.556 1.88189 206.507 2.01949C206.459 2.15709 206.382 2.28317 206.283 2.3898C206.183 2.49644 206.062 2.58132 205.928 2.63913C205.794 2.69694 205.65 2.72642 205.504 2.72571C204.886 2.72571 204.448 2.27151 204.45 1.59021C204.444 1.44726 204.466 1.30445 204.516 1.17042C204.566 1.03639 204.643 0.913915 204.742 0.810409C204.841 0.706904 204.96 0.624514 205.091 0.568224C205.223 0.511933 205.364 0.48291 205.508 0.48291C205.651 0.48291 205.792 0.511933 205.924 0.568224C206.055 0.624514 206.174 0.706904 206.273 0.810409C206.372 0.913915 206.449 1.03639 206.499 1.17042C206.549 1.30445 206.571 1.44726 206.565 1.59021Z" fill="#100E5D"/>
<path d="M222.447 4.62365C222.449 4.7636 222.423 4.90253 222.371 5.03247C222.319 5.1624 222.242 5.28077 222.144 5.38079C222.046 5.48081 221.929 5.56051 221.801 5.61531C221.672 5.6701 221.533 5.69892 221.393 5.70011C221.249 5.70101 221.107 5.67332 220.974 5.61863C220.84 5.56394 220.719 5.48334 220.617 5.38151C220.516 5.27969 220.435 5.15866 220.38 5.02544C220.326 4.89223 220.298 4.74948 220.299 4.60548C220.304 4.31569 220.418 4.03845 220.618 3.82831C220.817 3.61817 221.088 3.49034 221.378 3.46998C221.918 3.46771 222.452 4.04681 222.447 4.62365Z" fill="#100E5D"/>
<path d="M222.447 7.55824C222.456 7.70253 222.434 7.84699 222.383 7.9822C222.332 8.11742 222.253 8.24035 222.151 8.34298C222.049 8.44561 221.927 8.52565 221.792 8.57787C221.657 8.63009 221.513 8.65332 221.369 8.64605C221.229 8.64941 221.091 8.62389 220.962 8.57111C220.833 8.51832 220.717 8.4394 220.62 8.33933C220.523 8.23927 220.448 8.12022 220.399 7.9897C220.351 7.85917 220.33 7.72 220.338 7.58095C220.338 6.91782 220.78 6.44545 221.403 6.47043C221.877 6.49314 222.515 6.91555 222.447 7.55824Z" fill="#100E5D"/>
</svg>
