<svg width="1280" height="834" viewBox="0 0 1280 834" fill="none" xmlns="http://www.w3.org/2000/svg">
<rect width="1280" height="834" fill="#E3E3E3"/>
<path d="M-2165 -1745C-2165 -1746.1 -2164.1 -1747 -2163 -1747H2163C2164.1 -1747 2165 -1746.1 2165 -1745V5139C2165 5140.1 2164.1 5141 2163 5141H-2163C-2164.1 5141 -2165 5140.1 -2165 5139V-1745Z" fill="white"/>
<path d="M-2163 -1746H2163V-1748H-2163V-1746ZM2164 -1745V5139H2166V-1745H2164ZM2163 5140H-2163V5142H2163V5140ZM-2164 5139V-1745H-2166V5139H-2164ZM-2163 5140C-2163.55 5140 -2164 5139.55 -2164 5139H-2166C-2166 5140.66 -2164.66 5142 -2163 5142V5140ZM2164 5139C2164 5139.55 2163.55 5140 2163 5140V5142C2164.66 5142 2166 5140.66 2166 5139H2164ZM2163 -1746C2163.55 -1746 2164 -1745.55 2164 -1745H2166C2166 -1746.66 2164.66 -1748 2163 -1748V-1746ZM-2163 -1748C-2164.66 -1748 -2166 -1746.66 -2166 -1745H-2164C-2164 -1745.55 -2163.55 -1746 -2163 -1746V-1748Z" fill="black" fill-opacity="0.1"/>
<g clip-path="url(#clip0_325_71)">
<rect width="1280" height="832" transform="translate(0 2)" fill="url(#paint0_linear_325_71)"/>
<path d="M1267.12 145.381C1273.87 137.279 1281.19 142.005 1284 145.381L1280.62 221.337C1269.15 245.643 1248.84 235.403 1240.11 227.245C1229.31 256.277 1207.48 243.28 1197.92 233.153C1175.64 248.006 1160.5 231.465 1155.72 221.337C1144.92 239.567 1132.09 228.933 1127.02 221.337C1112.17 232.14 1105.08 221.337 1103.39 214.586C1102.04 230.114 1085.39 225.557 1077.23 221.337C1065.75 242.267 1045.44 230.058 1036.72 221.337C1010.39 236.191 997.055 215.148 993.679 202.77C992.329 186.566 1008.87 188.142 1017.31 190.955C1026.76 178.127 1038.69 185.61 1043.47 190.955C1059.51 166.48 1058.66 201.926 1061.2 190.955C1063.22 182.178 1072.73 182.797 1077.23 184.203C1081.96 170.7 1093.27 175.764 1098.33 179.983C1107.78 166.48 1116.9 174.357 1120.27 179.983C1120.27 166.48 1131.53 167.605 1137.15 169.856C1143.9 148.757 1157.41 162.26 1155.72 154.665C1154.37 148.588 1164.16 145.944 1169.22 145.381C1170.57 129.852 1185.54 129.346 1192.85 131.034C1213.11 94.5751 1232.8 115.843 1240.11 131.034C1264.42 119.556 1268.25 135.816 1267.12 145.381Z" fill="url(#paint1_linear_325_71)"/>
<g filter="url(#filter0_f_325_71)">
<path d="M-18.9712 501.249C-23.9155 495.316 -29.2719 498.777 -31.332 501.249L-28.8598 556.873C-20.4544 574.673 -5.58019 567.174 0.806255 561.199C8.71722 582.46 24.7039 572.942 31.7084 565.525C48.0248 576.403 59.1084 564.289 62.6106 556.873C70.5216 570.223 79.9158 562.435 83.6241 556.873C94.5017 564.784 99.6933 556.873 100.929 551.929C101.918 563.301 114.114 559.963 120.089 556.873C128.494 572.2 143.368 563.259 149.755 556.873C169.038 567.75 178.803 552.341 181.275 543.276C182.264 531.409 170.15 532.563 163.97 534.623C157.048 525.229 148.313 530.709 144.81 534.623C133.068 516.7 133.686 542.658 131.832 534.623C130.348 528.196 123.385 528.649 120.089 529.679C116.628 519.79 108.346 523.499 104.638 526.589C97.7155 516.7 91.0406 522.468 88.5685 526.589C88.5685 516.7 80.3279 517.524 76.2076 519.172C71.2632 503.721 61.3745 513.61 62.6106 508.047C63.5995 503.597 56.4302 501.661 52.7219 501.249C51.7331 489.877 40.7731 489.506 35.4167 490.742C20.5837 464.043 6.16264 479.617 0.806255 490.742C-16.9934 482.337 -19.7952 494.244 -18.9712 501.249Z" fill="url(#paint2_linear_325_71)" fill-opacity="0.6"/>
</g>
<path d="M-48.5439 98.7544C-46.0132 96.3819 -38.5792 93.0603 -29.089 98.7544C-20.3896 74.3961 7.92299 36.6881 51.5781 80.7228C66.4462 72.3398 99.0293 65.5385 110.418 105.397C118.01 97.8053 135.092 89.359 142.684 116.311C151.542 109.194 171.914 101.696 182.543 128.649C189.503 127.858 204.181 130.072 207.218 145.257C208.738 155.1 201.134 175.289 158.563 177.293C152.841 188.208 133.157 205.985 100.199 189.769C87.6109 196.29 63.636 202.923 68.4425 177.293C54.6053 192.504 21.329 215.158 -1.07899 184.091C-9.26238 193.246 -30.2121 206.063 -48.5439 184.091V145.257V98.7544Z" fill="url(#paint3_linear_325_71)"/>
<g filter="url(#filter1_f_325_71)">
<path d="M545 312.858C546.509 311.443 550.943 309.462 556.602 312.858C561.791 298.332 578.675 275.844 604.71 302.105C613.577 297.105 633.009 293.049 639.8 316.82C644.328 312.292 654.516 307.255 659.043 323.329C664.326 319.084 676.475 314.613 682.814 330.686C686.965 330.215 695.718 331.535 697.53 340.591C698.436 346.461 693.901 358.501 668.513 359.697C665.1 366.206 653.362 376.807 633.706 367.137C626.199 371.025 611.901 374.981 614.768 359.697C606.515 368.768 586.67 382.278 573.307 363.75C568.426 369.21 555.933 376.854 545 363.75V340.591V312.858Z" fill="url(#paint4_linear_325_71)"/>
</g>
<g filter="url(#filter2_f_325_71)">
<path d="M492.775 589.756C311.651 601.211 74.8333 498.589 -1.0156 471.416C-1.01246 507.933 -66.7214 624.826 -4.0349 645.22C15.7802 651.667 252.82 695.189 341.717 707.706C533.237 722.29 572.974 657.827 568.903 623.772C552.324 567.755 576.411 543.36 590.526 538.164L688.531 524.364L797.604 519.733L950.543 511.459C1163.23 492.118 1320.89 435.731 1373.14 409.955C1521.21 336.902 1567.92 296.91 1669.4 276.509C1817.7 246.695 2021.8 339.979 2145.88 387.342L2143.2 368.326C2024.04 306.211 1842.76 266.869 1767.02 254.962C1605.38 231.251 1483.48 316.422 1406.51 363.818C1241.87 457.556 1066.85 472.892 947.231 487.935C856.445 492.073 769.004 486.013 736.632 482.465L631.703 472.924C537.043 464.638 516.996 519.698 518.805 548.264C527.747 581.589 505.178 589.811 492.775 589.756Z" fill="url(#paint5_linear_325_71)"/>
</g>
<g filter="url(#filter3_f_325_71)">
<path d="M1356.83 223.61C1330.06 216.075 1249.74 213.854 1142.66 265.255C1094.47 286.077 985.245 347.115 933.844 424.691L848.177 547.244C834.097 571.635 789.637 624.939 724.434 643.025C690.524 658.493 610.806 690.142 563.213 692.998C505.109 700.335 386.999 716.318 379.384 721.553C286.405 737.259 276.837 790.862 201.409 805.978C169.061 812.46 133.891 814.636 99.1055 813.341C75.0934 817.815 49.688 819.377 25.8105 815.645C-27.2317 807.355 -81.301 777.684 -105.091 751.029C-108.947 746.908 -112.012 742.659 -114.194 738.305C-112.06 742.395 -108.98 746.672 -105.091 751.029C-73.4159 784.883 11.6324 810.085 99.1055 813.341C145.288 804.736 186.318 785.357 201.409 772.141C237.478 733.658 335.088 709.293 379.384 701.921L435.306 689.428L473.976 684.669C509.472 681.893 590.46 671.581 630.438 652.543C665.538 639.455 744.424 598.525 779.167 539.51L871.378 378.288C892.398 344.576 954.428 265.255 1034.38 217.661C1071.27 197.038 1166.22 154.839 1250.93 151.031C1276.51 150.634 1333.51 153.887 1356.83 170.068V223.61Z" fill="url(#paint6_linear_325_71)"/>
</g>
<g filter="url(#filter4_f_325_71)">
<path d="M862.332 394.651C1049.37 332.28 1240.41 348.853 1312.55 364.936V330.68C1222.87 317.015 1142.38 312.856 1113.34 312.485C1029.43 306.246 933.146 331.175 895.494 344.419C841.705 352.44 722.474 436.385 669.581 477.355C627.088 518.35 528.61 563.751 484.682 581.327C329.233 624.996 239.719 621.06 214.394 613.633C111.657 606.801 10.2205 535.035 -27.6559 500.006V515.973C9.09985 545.061 108.968 606.504 214.394 619.574C319.82 632.645 442.996 602.741 491.406 586.155C537.126 580.213 635.515 514.612 678.994 482.554C719.336 446.609 818.028 408.975 862.332 394.651Z" fill="#D4B58E"/>
</g>
<g filter="url(#filter5_f_325_71)">
<path d="M2.62478 245.123C52.5637 198.708 199.555 114.357 388.009 148.267C432.392 155.633 534.507 180.528 587.899 221.181C641.657 255.09 759.372 321.534 800.165 316.032C849.192 325.466 966.969 331.241 1045.86 278.874C1124.76 226.506 1185.3 49.5634 1185.3 49.5634C1185.3 49.5634 1220.18 -25.8799 1258.57 -60.3208C1286.2 -85.1037 1307.57 -112.913 1339.54 -110.087C1324.01 -112.729 1284.82 -109.758 1252.3 -76.7328C1239.13 -62.9244 1205.49 -23.0668 1176.25 25.8966C1122.37 153.128 1121.24 197.431 1042.5 270.067C1025.97 289.001 954.929 322.849 802.933 306.773C757.015 294.468 650.674 257.994 592.659 210.529C526.145 166.356 380.973 79.2459 332.397 84.1911C294.07 76.3441 201.128 69.5269 135.974 105.034C112.414 114.672 48.876 146.029 -16.7871 194.348L2.62478 245.123Z" fill="url(#paint7_linear_325_71)"/>
</g>
</g>
<g style="mix-blend-mode:multiply">
<rect width="1280" height="834" fill="white"/>
</g>
<defs>
<filter id="filter0_f_325_71" x="-33.332" y="474" width="216.664" height="102.202" filterUnits="userSpaceOnUse" color-interpolation-filters="sRGB">
<feFlood flood-opacity="0" result="BackgroundImageFix"/>
<feBlend mode="normal" in="SourceGraphic" in2="BackgroundImageFix" result="shape"/>
<feGaussianBlur stdDeviation="1" result="effect1_foregroundBlur_325_71"/>
</filter>
<filter id="filter1_f_325_71" x="543" y="287.993" width="156.635" height="87.0146" filterUnits="userSpaceOnUse" color-interpolation-filters="sRGB">
<feFlood flood-opacity="0" result="BackgroundImageFix"/>
<feBlend mode="normal" in="SourceGraphic" in2="BackgroundImageFix" result="shape"/>
<feGaussianBlur stdDeviation="1" result="effect1_foregroundBlur_325_71"/>
</filter>
<filter id="filter2_f_325_71" x="-34.215" y="247.793" width="2183.18" height="465.108" filterUnits="userSpaceOnUse" color-interpolation-filters="sRGB">
<feFlood flood-opacity="0" result="BackgroundImageFix"/>
<feBlend mode="normal" in="SourceGraphic" in2="BackgroundImageFix" result="shape"/>
<feGaussianBlur stdDeviation="1.5411" result="effect1_foregroundBlur_325_71"/>
</filter>
<filter id="filter3_f_325_71" x="-117.276" y="147.918" width="1477.19" height="672.902" filterUnits="userSpaceOnUse" color-interpolation-filters="sRGB">
<feFlood flood-opacity="0" result="BackgroundImageFix"/>
<feBlend mode="normal" in="SourceGraphic" in2="BackgroundImageFix" result="shape"/>
<feGaussianBlur stdDeviation="1.5411" result="effect1_foregroundBlur_325_71"/>
</filter>
<filter id="filter4_f_325_71" x="-31.0062" y="308.15" width="1346.91" height="317.991" filterUnits="userSpaceOnUse" color-interpolation-filters="sRGB">
<feFlood flood-opacity="0" result="BackgroundImageFix"/>
<feBlend mode="normal" in="SourceGraphic" in2="BackgroundImageFix" result="shape"/>
<feGaussianBlur stdDeviation="1.675" result="effect1_foregroundBlur_325_71"/>
</filter>
<filter id="filter5_f_325_71" x="-20.3321" y="-114.373" width="1363.42" height="440.176" filterUnits="userSpaceOnUse" color-interpolation-filters="sRGB">
<feFlood flood-opacity="0" result="BackgroundImageFix"/>
<feBlend mode="normal" in="SourceGraphic" in2="BackgroundImageFix" result="shape"/>
<feGaussianBlur stdDeviation="1.77251" result="effect1_foregroundBlur_325_71"/>
</filter>
<linearGradient id="paint0_linear_325_71" x1="677" y1="-34" x2="695" y2="832" gradientUnits="userSpaceOnUse">
<stop stop-color="#71CFFF"/>
<stop offset="1" stop-color="#CCF0FF"/>
</linearGradient>
<linearGradient id="paint1_linear_325_71" x1="1138.8" y1="81.3008" x2="1138.8" y2="245" gradientUnits="userSpaceOnUse">
<stop stop-color="white"/>
<stop offset="1" stop-color="#93DEFF"/>
</linearGradient>
<linearGradient id="paint2_linear_325_71" x1="75" y1="454.322" x2="75" y2="574.202" gradientUnits="userSpaceOnUse">
<stop stop-color="white"/>
<stop offset="1" stop-color="#93DEFF"/>
</linearGradient>
<linearGradient id="paint3_linear_325_71" x1="79.4256" y1="5.56658" x2="79.4256" y2="250.179" gradientUnits="userSpaceOnUse">
<stop stop-color="#F3FBFE"/>
<stop offset="1" stop-color="#9BE1FF"/>
</linearGradient>
<linearGradient id="paint4_linear_325_71" x1="621.318" y1="257.283" x2="621.318" y2="403.164" gradientUnits="userSpaceOnUse">
<stop stop-color="#F3FBFE"/>
<stop offset="1" stop-color="#9BE1FF"/>
</linearGradient>
<linearGradient id="paint5_linear_325_71" x1="-200.786" y1="546.367" x2="2612.45" y2="381.207" gradientUnits="userSpaceOnUse">
<stop stop-color="#0075FF"/>
<stop offset="1" stop-color="white"/>
</linearGradient>
<linearGradient id="paint6_linear_325_71" x1="-1035.89" y1="1332.27" x2="1342.79" y2="174.598" gradientUnits="userSpaceOnUse">
<stop offset="0.316667" stop-color="#DEE1E9"/>
<stop offset="1" stop-color="#DC2C38"/>
</linearGradient>
<linearGradient id="paint7_linear_325_71" x1="-4.68218" y1="227.872" x2="1624.24" y2="-201.444" gradientUnits="userSpaceOnUse">
<stop stop-color="#F59D86"/>
<stop offset="1" stop-color="#DEE1E9"/>
</linearGradient>
<clipPath id="clip0_325_71">
<rect width="1280" height="832" fill="white" transform="translate(0 2)"/>
</clipPath>
</defs>
</svg>
