<svg width="1016" height="584" viewBox="0 0 1016 584" fill="none" xmlns="http://www.w3.org/2000/svg">
<path d="M1015.38 545.036V477.345L908.393 464.117L840.312 477.345L1015.38 545.036Z" fill="#4E6181"/>
<path d="M0 557.875L322.898 529.864L408.486 586.274L0 596V557.875Z" fill="#6E81B5"/>
<path d="M64.5801 577.715L281.661 572.658L278.549 547.76L327.178 528.308L197.241 540.757L64.5801 577.715Z" fill="#667F9F"/>
<path d="M365.691 513.136C361.93 513.136 382.186 510.802 493.294 501.465V523.251H743.054L809.19 556.708L934.07 513.136L1002.93 531.809V588.997H615.451L275.824 546.982L365.691 513.136Z" fill="#95AED3"/>
<path d="M773.4 274.658H670.306L629.457 459.838L785.46 467.619L773.4 274.658Z" fill="url(#paint0_radial_1504_482)"/>
<path fill-rule="evenodd" clip-rule="evenodd" d="M767.083 452.467C776.813 444.803 786.181 435.107 788.91 429.877C791.949 424.058 799.511 413.254 800.283 413.631C801.31 414.132 797.305 420.976 796.133 420.724C795.643 420.619 795.471 420.844 795.75 421.224C796.513 422.261 792.602 428.52 791.359 428.253C790.765 428.125 790.563 428.488 790.911 429.06C791.26 429.633 790.866 430.28 790.029 430.505C789.197 430.73 788.813 431.152 789.176 431.442C789.54 431.733 788.796 433.272 787.522 434.862C786.25 436.451 785.276 437.942 785.358 438.175C785.527 438.649 789.022 434.487 793.395 428.604C796.824 423.99 803.412 411.202 802.981 409.994C802.816 409.529 802.165 410.111 801.534 411.284C799.576 414.926 799.806 412.168 802.045 405.149C804.728 396.737 805.008 384.21 802.727 374.513C801.804 370.584 800.647 366.705 800.158 365.892C792.782 353.644 788.388 348.17 787.161 349.702C786.798 350.156 785.308 350.238 783.852 349.885C782.396 349.531 780.697 349.678 780.075 350.21C778.74 351.353 775.864 350.524 776.173 349.085C776.554 347.315 770.066 344.84 762.857 344.005C753.138 342.878 743.417 344.383 732.974 348.631C725.457 351.69 724.056 352.587 719.289 357.401C715.262 361.467 713.171 364.616 710.644 370.418C708.811 374.627 707.409 377.392 707.53 376.563C707.649 375.734 707.058 376.802 706.214 378.938C705.372 381.074 704.829 383.269 705.01 383.817C705.19 384.364 705.098 385.041 704.804 385.321C704.179 385.914 702.84 393.866 703.196 394.866C703.329 395.241 703.991 392.802 704.667 389.445C705.91 383.271 707.346 379.017 706.8 383.128C706.645 384.291 706.741 386.558 707.013 388.167C707.286 389.776 707.41 392.687 707.29 394.637C707.169 396.586 707.236 398.98 707.438 399.957C707.641 400.934 707.937 403.532 708.096 405.73C708.256 407.928 708.924 410.435 709.581 411.3C710.6 412.643 710.538 412.77 709.154 412.17C708.259 411.782 707.342 410.446 707.105 409.185C706.809 407.612 706.555 407.334 706.289 408.288C706.076 409.049 706.728 412.25 707.737 415.401C708.747 418.551 709.371 421.559 709.124 422.084C708.878 422.61 709.173 423.769 709.78 424.661C710.849 426.232 710.887 426.223 711.01 424.38C711.093 423.138 711.394 423.708 711.879 426.03C712.417 428.609 712.733 429.148 713.033 428.003C713.413 426.549 714.096 426.954 714.402 428.815C714.472 429.242 715.217 429.836 716.056 430.133C717.855 430.772 720.233 433.455 718.71 433.127C717.034 432.767 718.01 434.147 720.867 436.18C722.341 437.229 723.092 437.498 722.535 436.779C721.056 434.869 722.011 434.894 726.837 436.894C729.234 437.887 731.603 438.284 732.181 437.788C732.752 437.299 733.612 437.212 734.091 437.596C734.639 438.035 734.349 438.279 733.311 438.254C732.191 438.226 731.97 438.461 732.625 438.985C733.168 439.421 733.118 439.925 732.512 440.141C730.817 440.744 734.327 442.034 737.07 441.816C738.844 441.676 739.016 441.53 737.803 441.196C736.493 440.835 736.547 440.639 738.116 440.068C739.177 439.683 740.2 439.895 740.433 440.548C740.891 441.836 743.866 441.841 747.111 440.559C749.201 439.733 749.201 439.733 746.844 439.808C744.601 439.88 744.618 439.833 747.182 438.83C749.146 438.061 749.866 438.134 749.843 439.1C749.818 440.083 751.058 440.149 754.65 439.355C760.129 438.143 764.185 435.611 767.761 431.17C769.092 429.517 771.625 426.384 773.389 424.21C779.973 416.09 782.86 410.958 783.899 405.524C785.69 396.148 784.958 394.709 782.207 402.198C780.835 405.931 779.104 409.655 778.36 410.474C777.121 411.837 777.066 411.567 777.703 407.254C778.086 404.666 778.105 401.721 777.746 400.711C777.386 399.701 776.973 396.629 776.826 393.885C776.68 391.14 775.856 386.86 774.996 384.372C774.136 381.885 773.836 379.936 774.328 380.042C774.822 380.147 775.062 379.731 774.861 379.116C774.661 378.501 775.417 378.742 776.543 379.653C778.905 381.565 778.076 380.059 774.243 375.473C769.327 369.59 760.992 367.903 749.113 370.383C742.151 371.837 741.683 372.06 737.316 376.03C732.147 380.727 729.01 385.113 728.082 388.935C727.067 393.117 728.007 400.278 729.921 402.953C731.694 405.428 732.167 409.603 730.645 409.338C730.15 409.252 730.008 410.161 730.328 411.358C730.911 413.535 730.911 413.535 730.847 411.174C730.791 409.132 730.938 408.982 731.939 410.07C732.576 410.761 733.08 411.998 733.06 412.82C733.036 413.795 733.289 413.981 733.788 413.357C734.282 412.741 734.541 412.913 734.518 413.843C734.498 414.684 734.959 415.114 735.626 414.877C736.457 414.581 736.405 414.139 735.436 413.258C734.703 412.592 733.816 411.155 733.465 410.067C732.863 408.196 732.902 408.166 734.157 409.519C734.888 410.307 735.401 410.628 735.297 410.232C735.192 409.836 736.475 410.311 738.146 411.289C739.818 412.267 743.186 413.285 745.63 413.553C748.074 413.82 749.973 414.511 749.849 415.088C749.502 416.701 753.018 413.829 754.371 411.393C755.011 410.242 756.28 408.502 757.193 407.527C758.689 405.926 758.847 405.926 758.808 407.525C758.774 408.918 759.087 408.677 760.265 406.402C761.995 403.065 763.086 395.874 762.522 391.527C761.972 387.283 757.297 382.303 753.39 381.798C750.374 381.408 750.374 381.408 754.364 380.561C756.558 380.095 759.26 379.85 760.369 380.018C762.257 380.303 762.244 380.405 760.146 381.636C757.907 382.948 757.907 382.948 760.695 384.037C763.257 385.038 763.641 385.628 765.472 391.395C767.08 396.461 767.309 398.842 766.66 403.796C766.218 407.167 766.231 410.129 766.688 410.375C767.144 410.622 766.979 410.726 766.318 410.608C765.607 410.479 765.148 411.232 765.19 412.455C765.285 415.223 762.141 421.946 760.223 423.076C759.377 423.575 757.302 424.996 755.614 426.235C753.678 427.656 750.714 428.892 747.591 429.583C739.337 431.408 728.491 426.534 720.405 417.364C716.599 413.048 711.525 400.018 712.117 396.084C712.31 394.801 712.347 392.966 712.201 392.004C711.867 389.82 712.992 385.585 714.001 385.226C714.416 385.078 716.039 382.435 717.608 379.352C719.177 376.27 720.896 373.841 721.428 373.955C721.959 374.07 724.908 372.189 727.98 369.776C731.691 366.862 735.634 364.609 739.723 363.068C743.11 361.791 744.868 360.914 743.63 361.12C738.482 361.974 739.909 360.486 745.978 358.673C752.629 356.687 768.133 355.813 770.014 357.32C770.519 357.725 771.219 357.696 771.571 357.259C771.921 356.82 773.485 357.162 775.046 358.016C776.606 358.871 777.034 359.296 775.998 358.961C774.505 358.479 774.193 358.578 774.497 359.434C774.752 360.149 774.062 360.192 772.462 359.56C771.13 359.035 772.107 359.97 774.631 361.638C777.156 363.305 779.397 365.163 779.611 365.763C779.825 366.364 780.823 367.771 781.829 368.889C782.836 370.007 783.748 371.395 783.856 371.973C783.963 372.55 784.528 373.125 785.111 373.251C787.853 373.84 791.403 391.692 789.388 394.759C788.877 395.536 788.586 397.007 788.742 398.026C788.898 399.045 788.87 400.928 788.679 402.21C788.086 406.197 783.38 419.082 781.938 420.67C781.183 421.501 780.893 422.442 781.292 422.762C781.691 423.081 781.67 423.777 781.245 424.308C780.734 424.945 780.568 424.823 780.757 423.947C780.947 423.064 780.696 422.892 780.005 423.432C779.435 423.877 779.155 424.763 779.381 425.4C780.23 427.785 768.495 441.909 763.025 445.084C761.069 446.219 754.712 448.861 748.897 450.954C739.202 454.443 737.898 454.708 733.158 454.146C730.314 453.81 728.348 453.822 728.788 454.175C731.075 456.006 720.371 452.965 717.131 450.863C713.332 448.398 713.332 448.398 718.298 450.497C721.03 451.652 724.214 452.848 725.372 453.154C726.53 453.462 724.032 452.234 719.822 450.427C715.611 448.619 710.446 445.662 708.343 443.856C706.241 442.049 704.389 440.85 704.227 441.191C704.064 441.532 702.812 440.54 701.443 438.988C698.239 435.352 692.331 417.453 691.678 409.4C690.661 396.852 692.369 389.86 697.811 384.298C699.042 383.039 701.098 380.132 702.379 377.837C704.709 373.665 704.709 373.665 702.181 376.61C698.432 380.978 698.836 379.393 702.978 373.491C708.642 365.419 705.864 367.89 698.794 377.212C695.297 381.825 692.194 385.483 691.901 385.344C691.607 385.204 692.628 382.453 694.17 379.228C695.712 376.005 696.48 374.087 695.875 374.968C695.27 375.848 694.685 376.312 694.574 376.001C694.463 375.689 693.146 378.016 691.647 381.172C689.077 386.581 688.385 389.062 690.013 387.029C691.037 385.751 690.36 390.209 689.021 393.554C688.431 395.029 688.348 395.766 688.835 395.193C689.323 394.62 689.408 396.559 689.026 399.501C688.644 402.443 688.794 408.333 689.361 412.59C690.333 419.883 689.87 418.551 687.658 407.68C687.133 405.095 687.128 401.58 687.648 399.868C688.167 398.155 688.198 396.669 687.717 396.566C686.834 396.376 685.962 401.555 685.692 408.59C685.611 410.683 686.45 416.117 687.556 420.667C689.69 429.441 692.515 435.444 697.193 441.151C698.649 442.927 700.154 445.262 700.538 446.341C700.921 447.418 701.706 448.401 702.282 448.525C702.859 448.649 704.556 449.908 706.053 451.323C713.997 458.83 731.048 463.827 735.572 459.975C736.786 458.942 737.832 458.541 738.312 458.924C738.74 459.266 741.098 459.163 743.554 458.696C747.232 457.995 747.68 458.073 746.095 459.136C744.516 460.195 744.951 460.267 748.516 459.536C754.644 458.279 764.44 454.55 767.083 452.467ZM760.147 453.072C761.619 452.052 763.499 450.513 764.322 449.652C765.145 448.79 766.278 448.185 766.84 448.306C767.402 448.427 769.021 447.472 770.437 446.184C774.142 442.817 774.823 442.947 771.634 446.413C770.133 448.044 767.089 450.342 764.87 451.52C759.189 454.535 756.99 455.257 760.147 453.072ZM740.972 460.318C740.275 460.29 739.556 460.581 739.375 460.962C739.194 461.343 739.764 461.365 740.643 461.011C741.615 460.619 741.744 460.347 740.972 460.318ZM736.85 460.846C736.43 460.647 735.922 460.828 735.721 461.248C735.522 461.669 735.867 461.833 736.487 461.612C737.107 461.391 737.271 461.047 736.85 460.846ZM744.653 457.095C745.392 456.591 746.724 456.117 747.615 456.04C748.506 455.963 747.901 456.374 746.272 456.954C744.643 457.534 743.914 457.597 744.653 457.095ZM739.351 458.049C739.551 457.629 740.059 457.448 740.48 457.647C740.9 457.848 740.737 458.192 740.116 458.413C739.496 458.634 739.152 458.47 739.351 458.049ZM732.621 460.127C732.743 459.559 732.376 459.261 731.805 459.464C731.235 459.667 730.881 459.595 731.019 459.305C731.157 459.014 732.224 458.694 733.389 458.593C734.976 458.456 735.288 458.691 734.634 459.528C733.438 461.058 732.352 461.38 732.621 460.127ZM775.44 430.927C777.547 428.297 779.046 426.037 778.771 425.906C778.496 425.775 776.394 428.07 774.099 431.006C771.803 433.941 770.305 436.2 770.767 436.027C771.23 435.853 773.333 433.558 775.44 430.927ZM762.874 432.628C764.682 430.649 766.827 428.961 767.641 428.876C768.585 428.777 767.976 429.865 765.955 431.883C761.458 436.373 758.884 436.996 762.874 432.628ZM761.557 432.028C761.757 431.608 762.265 431.427 762.686 431.627C763.106 431.827 762.942 432.171 762.322 432.392C761.702 432.613 761.357 432.449 761.557 432.028ZM790.387 417.767C792.929 410.292 794.76 402.377 795.346 396.323C795.661 393.064 796.123 390.915 796.372 391.548C797.484 394.368 794.332 411.181 791.513 417.473C789.057 422.954 788.58 423.079 790.387 417.767ZM734.173 440.821C734.373 440.401 734.881 440.22 735.302 440.419C735.722 440.62 735.558 440.964 734.938 441.185C734.318 441.406 733.973 441.242 734.173 440.821ZM730.671 435.962C726.642 435.665 721.508 433.569 723.274 432.94C723.811 432.749 724.365 432.912 724.504 433.302C724.643 433.693 725.964 434.117 727.439 434.243C729.528 434.423 728.959 433.971 724.871 432.205C721.984 430.957 718.84 429.019 717.886 427.898C715.882 425.544 713.632 419.048 714.915 419.323C715.391 419.426 715.945 419.962 716.148 420.514C716.954 422.724 723.789 428.716 728.376 431.235C731.05 432.704 733.09 434.219 732.908 434.601C732.726 434.984 733.719 435.321 735.113 435.351C736.508 435.381 737.716 435.593 737.797 435.823C737.974 436.318 736.029 436.356 730.671 435.962ZM725.635 437.821C725.182 437.458 724.621 437.228 724.388 437.311C724.155 437.394 724.336 437.759 724.789 438.122C725.243 438.485 725.804 438.715 726.037 438.632C726.269 438.549 726.089 438.184 725.635 437.821ZM732.045 433.95C731.625 433.751 731.117 433.931 730.916 434.352C730.717 434.773 731.061 434.936 731.682 434.715C732.302 434.495 732.466 434.15 732.045 433.95ZM770.451 418.771C770.582 418.068 771.24 415.797 771.912 413.722C772.585 411.647 773.339 408.589 773.588 406.927C773.835 405.266 774.256 404.473 774.521 405.165C774.786 405.857 774.484 408.511 773.849 411.062C773.214 413.613 773.056 415.989 773.496 416.341C773.936 416.694 773.809 416.877 773.212 416.749C772.616 416.621 772.113 417.163 772.093 417.954C772.074 418.745 771.643 419.539 771.135 419.72C770.628 419.9 770.32 419.473 770.451 418.771ZM762.248 419.874C762.408 419.136 762.215 419.044 761.743 419.634C760.982 420.584 760.914 421.451 761.62 421.199C761.825 421.126 762.108 420.53 762.248 419.874ZM702.189 437.584C701.968 436.963 701.624 436.8 701.424 437.22C701.224 437.641 701.405 438.149 701.826 438.349C702.246 438.548 702.41 438.204 702.189 437.584ZM716.699 431.466C716.245 431.103 715.684 430.874 715.451 430.956C715.219 431.039 715.399 431.404 715.853 431.767C716.306 432.13 716.867 432.36 717.1 432.277C717.333 432.194 717.152 431.829 716.699 431.466ZM700.197 434.876C699.805 433.905 699.533 433.776 699.503 434.546C699.476 435.244 699.767 435.964 700.148 436.145C700.528 436.326 700.551 435.756 700.197 434.876ZM800.372 392.441C800.513 391.444 800.025 389.341 799.288 387.768C798.55 386.195 798.443 385.589 799.051 386.422C800.156 387.936 800.156 387.936 800.226 386.004C800.293 384.165 800.332 384.162 801.028 385.938C801.922 388.222 801.704 396.284 800.779 395.102C800.415 394.636 800.232 393.438 800.372 392.441ZM737.528 417.478C737.032 417.08 735.689 416.614 734.546 416.442C733.055 416.218 732.72 416.334 733.367 416.852C733.863 417.249 735.206 417.715 736.349 417.887C737.84 418.111 738.175 417.995 737.528 417.478ZM696.475 431.353C696.675 430.933 697.019 431.096 697.24 431.717C697.461 432.337 697.298 432.681 696.877 432.482C696.456 432.282 696.276 431.774 696.475 431.353ZM773.107 398.191C772.872 396.26 771.682 391.538 770.463 387.699C767.88 379.567 768.625 377.763 771.374 385.488C773.366 391.086 775.093 401.147 774.12 401.493C773.798 401.608 773.341 400.122 773.107 398.191ZM744.627 406.288C740.29 405.018 736.291 402.12 735.393 399.597C734.975 398.422 739.316 390.996 740.709 390.5C741.023 390.388 742.079 392.265 743.058 394.67C744.037 397.075 745.743 399.732 746.849 400.574C748.304 401.682 748.695 402.453 748.264 403.36C747.223 405.552 748.196 406.319 749.334 404.203C750.619 401.812 752.601 402.688 751.669 405.235C750.825 407.54 749.549 407.731 744.627 406.288ZM729.057 403.229C728.836 402.608 728.492 402.445 728.292 402.865C728.093 403.286 728.273 403.794 728.694 403.994C729.114 404.193 729.278 403.849 729.057 403.229ZM746.684 393.814C746.054 392.043 748.122 388.815 750.411 388C752.763 387.163 759.25 388.932 759.833 390.569C760.019 391.092 759.482 391.202 758.5 390.843C757.174 390.357 756.93 390.468 757.241 391.413C757.503 392.212 756.964 392.214 755.541 391.419C752.947 389.97 751.563 390.133 749.776 392.1C748.906 393.058 748.75 394.068 749.36 394.78C750.174 395.731 750.058 395.821 748.67 395.313C747.752 394.977 746.858 394.302 746.684 393.814ZM739.823 394.629C740.89 393.207 741.385 392.185 740.922 392.359C740.078 392.674 736.65 397.61 737.455 397.352C737.69 397.276 738.756 396.051 739.823 394.629ZM725.264 399.887C725.131 398.349 724.903 398.057 724.499 398.909C724.182 399.577 724.267 400.562 724.688 401.1C725.125 401.659 725.371 401.138 725.264 399.887ZM768.798 377.88C767.863 377.033 766.539 376.539 765.858 376.781C765.176 377.024 764.483 376.841 764.317 376.376C764.151 375.911 763.612 375.673 763.119 375.849C762.627 376.024 762.594 376.465 763.047 376.828C763.501 377.191 763.309 377.688 762.622 377.933C760.686 378.622 758.321 378.39 758.505 377.529C758.598 377.102 757.795 377.268 756.724 377.897C755.652 378.526 754.639 378.655 754.472 378.185C754.182 377.372 752.22 378.368 747.202 381.873C745.943 382.753 746.156 382.238 747.828 380.36C749.222 378.794 751.296 377.089 752.44 376.573C753.582 376.056 754.414 375.345 754.289 374.993C753.663 373.234 765.468 373.374 768.477 375.161C769.263 375.627 770.753 377.81 771.79 380.01C773.192 382.983 773.267 383.421 772.087 381.716C771.214 380.453 769.733 378.727 768.798 377.88ZM765.147 385.09C764.59 384.439 764.612 384.049 765.196 384.175C765.758 384.295 766.345 384.752 766.501 385.191C766.934 386.408 766.231 386.355 765.147 385.09ZM788.812 374.65C789.013 374.23 789.357 374.393 789.578 375.014C789.799 375.634 789.635 375.978 789.214 375.779C788.794 375.579 788.613 375.071 788.812 374.65ZM734.369 392.834C734.773 390.952 742.57 380.698 745.164 378.636C750.128 374.691 750.205 375.668 745.325 380.692C742.648 383.446 739.152 387.452 737.554 389.594C734.304 393.95 734.079 394.178 734.369 392.834ZM725.957 395.602C726.116 394.864 725.923 394.772 725.452 395.363C724.69 396.313 724.622 397.179 725.328 396.928C725.534 396.854 725.816 396.258 725.957 395.602ZM743.094 387.744C743.216 387.176 743.696 386.576 744.162 386.41C744.627 386.244 744.908 386.573 744.786 387.141C744.664 387.709 744.184 388.309 743.718 388.475C743.253 388.641 742.972 388.312 743.094 387.744ZM780.954 362.805C780.03 361.31 779.623 360.242 780.049 360.431C780.866 360.794 786.538 369.221 786.961 370.7C787.273 371.791 783.187 366.422 780.954 362.805ZM703.925 396.917C703.705 396.296 703.36 396.133 703.16 396.553C702.961 396.974 703.142 397.482 703.562 397.682C703.983 397.881 704.146 397.537 703.925 396.917ZM739.433 379.384C740.924 377.459 743.276 375.914 747.161 374.306C752.745 371.995 752.745 371.995 748.36 374.409C745.948 375.736 742.848 377.877 741.471 379.165C737.899 382.51 736.929 382.614 739.433 379.384ZM776.105 361.524C774.989 360.51 774.868 360.177 775.677 360.351C776.299 360.485 777.508 361.231 778.364 362.009C779.48 363.023 779.601 363.355 778.792 363.181C778.17 363.047 776.961 362.301 776.105 361.524ZM689.191 390.003C689.765 388.287 689.725 388.267 688.757 389.797C687.741 391.405 687.54 392.259 688.237 392.011C688.412 391.949 688.842 391.046 689.191 390.003ZM773.462 357.864C773.008 357.501 772.447 357.272 772.214 357.355C771.982 357.438 772.162 357.802 772.616 358.166C773.069 358.529 773.63 358.758 773.863 358.675C774.096 358.592 773.915 358.227 773.462 357.864ZM713.993 377.27C715.163 373.15 718.955 366.264 721.627 363.405C723.266 361.651 724.887 360.845 727.954 360.259C732.077 359.47 732.077 359.47 728.933 361.781C727.203 363.052 724.911 365.346 723.84 366.878C722.769 368.411 721.352 369.548 720.693 369.407C719.975 369.253 719.853 369.436 720.387 369.865C720.909 370.283 719.859 372.168 717.858 374.401C715.976 376.503 714.55 378.542 714.689 378.934C714.829 379.326 714.535 379.791 714.039 379.968C713.541 380.145 713.521 378.93 713.993 377.27ZM767.478 359.358C767.057 359.159 766.549 359.34 766.349 359.76C766.15 360.181 766.494 360.344 767.114 360.124C767.735 359.903 767.898 359.558 767.478 359.358ZM763.973 359.335C763.114 359.132 762.031 359.102 761.565 359.267C761.1 359.433 761.421 359.734 762.28 359.937C763.139 360.14 764.222 360.17 764.688 360.004C765.153 359.838 764.832 359.537 763.973 359.335ZM759.803 359.229C759.383 359.03 758.875 359.21 758.674 359.631C758.475 360.052 758.82 360.215 759.44 359.994C760.06 359.774 760.224 359.429 759.803 359.229ZM721.402 372.957C721.583 372.576 722.302 372.285 723 372.313C723.771 372.342 723.642 372.614 722.671 373.006C721.791 373.36 721.221 373.338 721.402 372.957ZM757.991 358.603C759.182 357.053 757.846 357.528 755.875 359.356C754.93 360.233 754.88 360.548 755.727 360.28C756.435 360.058 757.453 359.302 757.991 358.603ZM688.202 383.294C688.361 382.556 688.168 382.464 687.697 383.054C686.935 384.004 686.867 384.871 687.573 384.619C687.779 384.546 688.061 383.95 688.202 383.294ZM773.347 352.184C772.894 351.821 772.713 351.456 772.946 351.373C773.179 351.29 773.74 351.52 774.194 351.883C774.647 352.246 774.827 352.611 774.595 352.693C774.362 352.776 773.801 352.547 773.347 352.184ZM753.277 359.645C752.856 359.446 752.348 359.626 752.148 360.047C751.948 360.467 752.293 360.631 752.913 360.41C753.533 360.189 753.697 359.845 753.277 359.645ZM749.59 360.003C749.169 359.804 748.661 359.985 748.461 360.405C748.262 360.826 748.606 360.99 749.226 360.769C749.847 360.548 750.01 360.204 749.59 360.003ZM706.161 372.134C706.321 371.396 706.128 371.304 705.656 371.894C705.237 372.417 704.953 373.013 705.027 373.219C705.278 373.925 705.906 373.325 706.161 372.134ZM725.817 363.314C728.041 360.444 727.568 360.33 724.581 363.018C723.464 364.025 721.95 364.975 721.218 365.129C720.036 365.379 720.064 365.456 721.467 365.827C723.459 366.353 723.466 366.349 725.817 363.314ZM691.862 376.418C692.449 375.654 692.436 375.284 691.827 375.491C691.27 375.682 690.714 376.302 690.592 376.87C690.317 378.152 690.61 378.048 691.862 376.418ZM694.767 372.523C695.277 371.293 695.347 370.41 694.923 370.561C694.497 370.712 693.944 371.767 693.694 372.905C693.443 374.043 693.373 374.926 693.539 374.868C693.703 374.809 694.256 373.754 694.767 372.523ZM744.325 354.309C744.506 353.928 745.226 353.637 745.923 353.665C746.694 353.694 746.565 353.966 745.594 354.358C744.715 354.712 744.144 354.69 744.325 354.309ZM732.476 358.526C732.657 358.145 733.377 357.855 734.074 357.882C734.846 357.912 734.716 358.184 733.745 358.575C732.866 358.929 732.295 358.907 732.476 358.526ZM741.762 352.3C741.963 351.88 742.47 351.699 742.891 351.898C743.312 352.099 743.148 352.443 742.528 352.664C741.907 352.885 741.563 352.721 741.762 352.3ZM724.715 357.539C727.667 354.668 729.753 353.965 728.171 356.374C727.51 357.379 725.984 358.517 724.78 358.903C722.597 359.603 722.596 359.6 724.715 357.539ZM736.135 351.447C736.633 351.005 737.585 350.666 738.251 350.694C738.916 350.722 738.508 351.083 737.345 351.497C736.181 351.911 735.636 351.889 736.135 351.447Z" fill="#FFF39F" fill-opacity="0.6"/>
<path d="M627.902 358.3L617.398 346.24L637.239 354.021L627.902 358.3Z" fill="#6072A1"/>
<path d="M653.969 257.929L597.559 259.875L653.969 281.661V257.929Z" fill="#5C6D9A"/>
<path d="M648.91 213.969C640.87 215.525 600.67 222.916 600.67 222.916L648.91 224.473V213.969Z" fill="#ABC9F3"/>
<path d="M776.903 170.397C775.736 170.397 761.653 172.031 714.658 178.567L706.877 226.418L702.598 230.308L765.232 223.305L776.903 170.397Z" fill="#566793" stroke="#566793"/>
<path d="M714.658 178.62L668.799 164.172H664.084L675.755 267.655L679.256 260.653L694.086 259.097V232.897L706.086 228.601L714.658 178.62Z" fill="#404F7A"/>
<path d="M656.302 81.6971L664.861 86.3655L663.305 164.172H652.801V152.112L638.796 153.668L636.461 145.499L631.793 143.942L649.689 140.83L656.302 81.6971Z" fill="#54668E" stroke="#657FA3"/>
<path d="M670.308 465.674L643.854 466.063L649.3 387.478L652.801 362.58L668.363 354.799L684.313 286.329L747.726 287.496V299.945L693.65 296.833L684.313 370.749L674.198 373.083L670.308 465.674Z" fill="#EEF0E5"/>
<path d="M674.976 373.473C668.621 370.62 655.291 364.447 652.801 362.58L668.362 354.799L684.313 370.749L674.976 373.473Z" fill="#A8C0E3"/>
<path d="M508.47 489.016L570.326 479.679L909.175 486.681L929.793 483.18L983.48 489.405L800.634 550.094L745.78 519.36L482.404 512.358L508.47 489.016Z" fill="#9EB7DC"/>
<path d="M564.102 490.183L574.605 469.175L823.587 475.01L838.37 490.183L922.013 482.402L925.125 494.851L828.256 510.023L780.404 501.076L744.613 519.36L769.901 501.076L564.102 490.183Z" fill="#32456E"/>
<path d="M604.951 460.616L573.828 469.953L785.074 485.514L819.309 478.901L796.356 489.016L838.371 493.684L922.403 482.402L850.042 466.841L810.361 468.008L770.679 462.95L604.951 460.616Z" fill="#BDD9FF"/>
<path d="M818.529 479.29L795.965 490.183L781.571 501.465C771.76 506.164 756.591 513.443 749.083 517.082C748.111 517.628 747.137 518.133 746.169 518.582C742.995 520.056 744.782 519.166 749.083 517.082C759.05 511.477 768.802 501.465 769.511 501.465C770.289 501.465 785.196 483.554 786.885 485.312C814.606 479.891 819.554 479.034 818.529 479.29Z" fill="#4E6181"/>
<path d="M489.407 529.086L482.793 512.358L748.114 516.248L800.634 548.538L982.313 489.016L976.866 507.689L807.247 566.433L738.388 532.976L489.407 529.086Z" fill="#36456E"/>
<g filter="url(#filter0_d_1504_482)">
<path d="M631.015 144.332C631.275 148.352 630.782 142.309 626.736 85.9765L657.469 81.6971L649.3 141.219L653.19 151.334V164.561H664.472L676.143 266.877L679.255 260.653L693.65 263.765V230.697L759.785 222.916L774.958 145.499H802.579L803.746 238.478L801.023 243.924L795.966 287.496C784.813 287.237 761.964 286.874 759.785 287.496C757.607 288.118 790 292.164 806.469 294.11V304.225H765.232L812.305 316.674V329.512L803.746 346.629L768.344 333.013L801.023 351.298L803.746 374.251L795.966 381.253L815.806 384.755L806.469 401.094L774.958 406.54H812.305L815.806 469.175L770.678 463.728L768.344 434.162L765.232 351.298L755.895 354.41L747.725 329.512V287.496H685.869L667.973 355.966L653.19 362.58L649.3 389.034L643.853 466.063H605.728V428.715L614.676 384.755L613.898 355.966L633.738 354.41L617.399 346.629L619.344 318.619L649.3 316.674L647.744 260.653L597.947 259.875L600.671 222.916L640.741 222.138L639.185 154.446L635.684 145.499L631.015 144.332Z" fill="#6A80AF"/>
</g>
<g filter="url(#filter1_d_1504_482)">
<path d="M813.471 154.057L802.189 145.499V238.478L795.576 243.146L795.965 285.551L753.949 287.496C764.972 289.571 802.189 296.833 802.189 296.833L804.135 303.835H761.73L808.025 316.285L797.132 343.906L765.231 331.457L801.022 351.298L802.189 374.64L795.576 381.253L814.639 385.144C814.639 385.144 809.192 394.999 805.691 400.705L772.234 406.929L807.247 408.097C808.025 428.456 809.659 469.175 809.97 469.175H844.205L831.367 381.253L825.142 378.919L831.367 374.64V306.559L836.813 303.057L825.142 231.475H819.307L813.471 154.057Z" fill="#394A72"/>
</g>
<path d="M812.691 138.107L801.798 131.882V56.7989L789.738 43.5718L798.297 48.6292L812.691 61.8564V138.107Z" fill="#3B496C"/>
<path d="M803.355 132.661H776.512V90.2559L789.35 77.0287V43.5718L803.355 55.6318V132.661Z" fill="#6881B0"/>
<path d="M803.355 132.661H776.512L784.681 137.718L812.692 138.107L803.355 132.661Z" fill="#495478"/>
<path d="M694.817 17.1175L688.203 10.893V80.9191L694.817 87.1437V17.1175Z" fill="#C6D4F7" stroke="#C0CEF2"/>
<path d="M677.311 45.128L687.814 10.1149V80.5301H679.256L677.311 45.128Z" fill="#6A80AF"/>
<path d="M687.815 80.5301H679.256L687.037 87.5327L695.595 87.9217L687.815 80.5301Z" fill="#54668F"/>
<path d="M606.504 7.78068L618.175 0V38.9034L615.063 43.5718L606.504 7.78068Z" fill="#66748F"/>
<path d="M621.287 43.5718H615.062L618.175 38.9034L623.621 42.0157L621.287 43.5718Z" fill="#A0AAC6"/>
<path d="M625.565 7.00261L618.174 0V38.9034L623.62 42.0157L625.565 7.00261Z" fill="#C0CEF2"/>
<path d="M706.201 497.289L706.465 497.189C706.531 497.173 706.439 497.208 706.201 497.289L659.619 514.807L638.148 530.858C622.663 538.296 522.437 581.908 531.182 577.837C531.182 577.837 624.875 530.858 625.656 530.858C626.436 530.858 641.661 514.807 641.661 514.807C667.711 509.699 702.704 498.482 706.201 497.289Z" fill="#4E6181"/>
<path d="M665.637 160.282L665.248 87.9217L662.914 164.172H668.75L713.878 178.567L770.287 170.397L775.734 145.499H802.577L775.345 145.11L769.898 169.619L714.656 177.4L668.75 160.282H665.637Z" fill="#9CD9F9"/>
<path d="M777.289 90.2559V132.661H776.511L775.344 90.2559L788.571 76.2506L789.738 43.9608V77.0287L777.289 90.2559Z" fill="#6E83AE"/>
<path d="M760.173 222.916L694.037 233.031L704.93 229.141L760.173 222.916Z" fill="#6075A1"/>
<path d="M247.424 573.436L275.823 546.982L600.667 586.274L503.019 593.277L376.194 586.274L247.424 573.436Z" fill="#516596"/>
<g filter="url(#filter2_dif_1504_482)">
<path d="M891.17 257.68C891.17 257.68 888.896 232.911 899.883 229.676C907.208 227.519 918.554 235.485 918.554 235.485C912.084 248.13 905.845 252.781 891.17 257.68Z" fill="#FBE188"/>
</g>
<g filter="url(#filter3_dif_1504_482)">
<path d="M889.038 302.846C889.038 302.846 887.962 291.133 893.158 289.603C896.621 288.583 901.986 292.35 901.986 292.35C898.927 298.329 895.977 300.529 889.038 302.846Z" fill="#FBE188"/>
</g>
<g filter="url(#filter4_dif_1504_482)">
<path d="M865.113 335.408C865.113 335.408 869.72 339.51 868.277 341.957C867.315 343.588 863.911 344.066 863.911 344.066C862.942 340.68 863.284 338.781 865.113 335.408Z" fill="#FBE188"/>
</g>
<g filter="url(#filter5_dif_1504_482)">
<path d="M948.899 265.08C948.899 265.08 944.003 252.497 937.881 253.587C933.8 254.314 930.219 260.932 930.219 260.932C936.426 265.508 940.583 266.256 948.899 265.08Z" fill="#FBE188"/>
</g>
<g filter="url(#filter6_dif_1504_482)">
<path d="M893.284 417.117C893.284 417.117 889.143 406.474 883.966 407.396C880.514 408.011 877.485 413.609 877.485 413.609C882.735 417.478 886.251 418.111 893.284 417.117Z" fill="#FBE188"/>
</g>
<g filter="url(#filter7_dif_1504_482)">
<path d="M931.437 412.712C931.437 412.712 935.639 408.192 932.686 406.157C930.717 404.801 926.072 404.897 926.072 404.897C926.295 408.181 927.574 409.883 931.437 412.712Z" fill="#FBE188"/>
</g>
<g filter="url(#filter8_dif_1504_482)">
<path d="M919.099 337.241C919.099 337.241 915.537 333.41 918.04 331.686C919.709 330.537 923.646 330.618 923.646 330.618C923.457 333.401 922.373 334.843 919.099 337.241Z" fill="#FBE188"/>
</g>
<g filter="url(#filter9_dif_1504_482)">
<path d="M966.229 370.679C966.229 370.679 971.182 365.351 967.701 362.954C965.381 361.355 959.905 361.468 959.905 361.468C960.168 365.339 961.676 367.344 966.229 370.679Z" fill="#FBE188"/>
</g>
<g filter="url(#filter10_dif_1504_482)">
<path d="M970.188 294.308C970.188 294.308 975.141 299.635 971.66 302.033C969.34 303.631 963.864 303.518 963.864 303.518C964.127 299.648 965.635 297.642 970.188 294.308Z" fill="#FBE188"/>
</g>
<defs>
<filter id="filter0_d_1504_482" x="589.447" y="48.1971" width="288.859" height="458.478" filterUnits="userSpaceOnUse" color-interpolation-filters="sRGB">
<feFlood flood-opacity="0" result="BackgroundImageFix"/>
<feColorMatrix in="SourceAlpha" type="matrix" values="0 0 0 0 0 0 0 0 0 0 0 0 0 0 0 0 0 0 127 0" result="hardAlpha"/>
<feOffset dx="27" dy="2"/>
<feGaussianBlur stdDeviation="17.75"/>
<feComposite in2="hardAlpha" operator="out"/>
<feColorMatrix type="matrix" values="0 0 0 0 0.588235 0 0 0 0 0.878431 0 0 0 0 0.996078 0 0 0 0.28 0"/>
<feBlend mode="normal" in2="BackgroundImageFix" result="effect1_dropShadow_1504_482"/>
<feBlend mode="normal" in="SourceGraphic" in2="effect1_dropShadow_1504_482" result="shape"/>
</filter>
<filter id="filter1_d_1504_482" x="740.849" y="134.399" width="132.456" height="365.876" filterUnits="userSpaceOnUse" color-interpolation-filters="sRGB">
<feFlood flood-opacity="0" result="BackgroundImageFix"/>
<feColorMatrix in="SourceAlpha" type="matrix" values="0 0 0 0 0 0 0 0 0 0 0 0 0 0 0 0 0 0 127 0" result="hardAlpha"/>
<feOffset dx="8" dy="10"/>
<feGaussianBlur stdDeviation="10.55"/>
<feComposite in2="hardAlpha" operator="out"/>
<feColorMatrix type="matrix" values="0 0 0 0 0.588235 0 0 0 0 0.878431 0 0 0 0 0.996078 0 0 0 0.12 0"/>
<feBlend mode="normal" in2="BackgroundImageFix" result="effect1_dropShadow_1504_482"/>
<feBlend mode="normal" in="SourceGraphic" in2="effect1_dropShadow_1504_482" result="shape"/>
</filter>
<filter id="filter2_dif_1504_482" x="873.443" y="211.774" width="62.6434" height="63.4382" filterUnits="userSpaceOnUse" color-interpolation-filters="sRGB">
<feFlood flood-opacity="0" result="BackgroundImageFix"/>
<feColorMatrix in="SourceAlpha" type="matrix" values="0 0 0 0 0 0 0 0 0 0 0 0 0 0 0 0 0 0 127 0" result="hardAlpha"/>
<feOffset/>
<feGaussianBlur stdDeviation="8.76584"/>
<feComposite in2="hardAlpha" operator="out"/>
<feColorMatrix type="matrix" values="0 0 0 0 1 0 0 0 0 1 0 0 0 0 1 0 0 0 0.25 0"/>
<feBlend mode="normal" in2="BackgroundImageFix" result="effect1_dropShadow_1504_482"/>
<feBlend mode="normal" in="SourceGraphic" in2="effect1_dropShadow_1504_482" result="shape"/>
<feColorMatrix in="SourceAlpha" type="matrix" values="0 0 0 0 0 0 0 0 0 0 0 0 0 0 0 0 0 0 127 0" result="hardAlpha"/>
<feOffset/>
<feGaussianBlur stdDeviation="1.94796"/>
<feComposite in2="hardAlpha" operator="arithmetic" k2="-1" k3="1"/>
<feColorMatrix type="matrix" values="0 0 0 0 1 0 0 0 0 1 0 0 0 0 1 0 0 0 0.61 0"/>
<feBlend mode="normal" in2="shape" result="effect2_innerShadow_1504_482"/>
<feGaussianBlur stdDeviation="1.94796" result="effect3_foregroundBlur_1504_482"/>
</filter>
<filter id="filter3_dif_1504_482" x="874.863" y="275.346" width="41.2051" height="41.5817" filterUnits="userSpaceOnUse" color-interpolation-filters="sRGB">
<feFlood flood-opacity="0" result="BackgroundImageFix"/>
<feColorMatrix in="SourceAlpha" type="matrix" values="0 0 0 0 0 0 0 0 0 0 0 0 0 0 0 0 0 0 127 0" result="hardAlpha"/>
<feOffset/>
<feGaussianBlur stdDeviation="7.04102"/>
<feComposite in2="hardAlpha" operator="out"/>
<feColorMatrix type="matrix" values="0 0 0 0 1 0 0 0 0 1 0 0 0 0 1 0 0 0 0.25 0"/>
<feBlend mode="normal" in2="BackgroundImageFix" result="effect1_dropShadow_1504_482"/>
<feBlend mode="normal" in="SourceGraphic" in2="effect1_dropShadow_1504_482" result="shape"/>
<feColorMatrix in="SourceAlpha" type="matrix" values="0 0 0 0 0 0 0 0 0 0 0 0 0 0 0 0 0 0 127 0" result="hardAlpha"/>
<feOffset/>
<feGaussianBlur stdDeviation="1.56467"/>
<feComposite in2="hardAlpha" operator="arithmetic" k2="-1" k3="1"/>
<feColorMatrix type="matrix" values="0 0 0 0 1 0 0 0 0 1 0 0 0 0 1 0 0 0 0.61 0"/>
<feBlend mode="normal" in2="shape" result="effect2_innerShadow_1504_482"/>
<feGaussianBlur stdDeviation="1.56467" result="effect3_foregroundBlur_1504_482"/>
</filter>
<filter id="filter4_dif_1504_482" x="855.998" y="328.023" width="19.9442" height="23.4288" filterUnits="userSpaceOnUse" color-interpolation-filters="sRGB">
<feFlood flood-opacity="0" result="BackgroundImageFix"/>
<feColorMatrix in="SourceAlpha" type="matrix" values="0 0 0 0 0 0 0 0 0 0 0 0 0 0 0 0 0 0 127 0" result="hardAlpha"/>
<feOffset/>
<feGaussianBlur stdDeviation="3.69259"/>
<feComposite in2="hardAlpha" operator="out"/>
<feColorMatrix type="matrix" values="0 0 0 0 1 0 0 0 0 1 0 0 0 0 1 0 0 0 0.25 0"/>
<feBlend mode="normal" in2="BackgroundImageFix" result="effect1_dropShadow_1504_482"/>
<feBlend mode="normal" in="SourceGraphic" in2="effect1_dropShadow_1504_482" result="shape"/>
<feColorMatrix in="SourceAlpha" type="matrix" values="0 0 0 0 0 0 0 0 0 0 0 0 0 0 0 0 0 0 127 0" result="hardAlpha"/>
<feOffset/>
<feGaussianBlur stdDeviation="0.820576"/>
<feComposite in2="hardAlpha" operator="arithmetic" k2="-1" k3="1"/>
<feColorMatrix type="matrix" values="0 0 0 0 1 0 0 0 0 1 0 0 0 0 1 0 0 0 0.61 0"/>
<feBlend mode="normal" in2="shape" result="effect2_innerShadow_1504_482"/>
<feGaussianBlur stdDeviation="0.820576" result="effect3_foregroundBlur_1504_482"/>
</filter>
<filter id="filter5_dif_1504_482" x="916.605" y="239.906" width="45.9072" height="39.2818" filterUnits="userSpaceOnUse" color-interpolation-filters="sRGB">
<feFlood flood-opacity="0" result="BackgroundImageFix"/>
<feColorMatrix in="SourceAlpha" type="matrix" values="0 0 0 0 0 0 0 0 0 0 0 0 0 0 0 0 0 0 127 0" result="hardAlpha"/>
<feOffset/>
<feGaussianBlur stdDeviation="6.80687"/>
<feComposite in2="hardAlpha" operator="out"/>
<feColorMatrix type="matrix" values="0 0 0 0 1 0 0 0 0 1 0 0 0 0 1 0 0 0 0.25 0"/>
<feBlend mode="normal" in2="BackgroundImageFix" result="effect1_dropShadow_1504_482"/>
<feBlend mode="normal" in="SourceGraphic" in2="effect1_dropShadow_1504_482" result="shape"/>
<feColorMatrix in="SourceAlpha" type="matrix" values="0 0 0 0 0 0 0 0 0 0 0 0 0 0 0 0 0 0 127 0" result="hardAlpha"/>
<feOffset/>
<feGaussianBlur stdDeviation="1.51264"/>
<feComposite in2="hardAlpha" operator="arithmetic" k2="-1" k3="1"/>
<feColorMatrix type="matrix" values="0 0 0 0 1 0 0 0 0 1 0 0 0 0 1 0 0 0 0.61 0"/>
<feBlend mode="normal" in2="shape" result="effect2_innerShadow_1504_482"/>
<feGaussianBlur stdDeviation="1.51264" result="effect3_foregroundBlur_1504_482"/>
</filter>
<filter id="filter6_dif_1504_482" x="868.91" y="398.765" width="32.9493" height="27.3436" filterUnits="userSpaceOnUse" color-interpolation-filters="sRGB">
<feFlood flood-opacity="0" result="BackgroundImageFix"/>
<feColorMatrix in="SourceAlpha" type="matrix" values="0 0 0 0 0 0 0 0 0 0 0 0 0 0 0 0 0 0 127 0" result="hardAlpha"/>
<feOffset/>
<feGaussianBlur stdDeviation="4.28713"/>
<feComposite in2="hardAlpha" operator="out"/>
<feColorMatrix type="matrix" values="0 0 0 0 1 0 0 0 0 1 0 0 0 0 1 0 0 0 0.25 0"/>
<feBlend mode="normal" in2="BackgroundImageFix" result="effect1_dropShadow_1504_482"/>
<feBlend mode="normal" in="SourceGraphic" in2="effect1_dropShadow_1504_482" result="shape"/>
<feColorMatrix in="SourceAlpha" type="matrix" values="0 0 0 0 0 0 0 0 0 0 0 0 0 0 0 0 0 0 127 0" result="hardAlpha"/>
<feOffset/>
<feGaussianBlur stdDeviation="0.952696"/>
<feComposite in2="hardAlpha" operator="arithmetic" k2="-1" k3="1"/>
<feColorMatrix type="matrix" values="0 0 0 0 1 0 0 0 0 1 0 0 0 0 1 0 0 0 0.61 0"/>
<feBlend mode="normal" in2="shape" result="effect2_innerShadow_1504_482"/>
<feGaussianBlur stdDeviation="0.952696" result="effect3_foregroundBlur_1504_482"/>
</filter>
<filter id="filter7_dif_1504_482" x="917.072" y="395.896" width="25.666" height="25.816" filterUnits="userSpaceOnUse" color-interpolation-filters="sRGB">
<feFlood flood-opacity="0" result="BackgroundImageFix"/>
<feColorMatrix in="SourceAlpha" type="matrix" values="0 0 0 0 0 0 0 0 0 0 0 0 0 0 0 0 0 0 127 0" result="hardAlpha"/>
<feOffset/>
<feGaussianBlur stdDeviation="4.5"/>
<feComposite in2="hardAlpha" operator="out"/>
<feColorMatrix type="matrix" values="0 0 0 0 1 0 0 0 0 1 0 0 0 0 1 0 0 0 0.25 0"/>
<feBlend mode="normal" in2="BackgroundImageFix" result="effect1_dropShadow_1504_482"/>
<feBlend mode="normal" in="SourceGraphic" in2="effect1_dropShadow_1504_482" result="shape"/>
<feColorMatrix in="SourceAlpha" type="matrix" values="0 0 0 0 0 0 0 0 0 0 0 0 0 0 0 0 0 0 127 0" result="hardAlpha"/>
<feOffset/>
<feGaussianBlur stdDeviation="1"/>
<feComposite in2="hardAlpha" operator="arithmetic" k2="-1" k3="1"/>
<feColorMatrix type="matrix" values="0 0 0 0 1 0 0 0 0 1 0 0 0 0 1 0 0 0 0.61 0"/>
<feBlend mode="normal" in2="shape" result="effect2_innerShadow_1504_482"/>
<feGaussianBlur stdDeviation="1" result="effect3_foregroundBlur_1504_482"/>
</filter>
<filter id="filter8_dif_1504_482" x="908.148" y="321.617" width="24.498" height="24.6244" filterUnits="userSpaceOnUse" color-interpolation-filters="sRGB">
<feFlood flood-opacity="0" result="BackgroundImageFix"/>
<feColorMatrix in="SourceAlpha" type="matrix" values="0 0 0 0 0 0 0 0 0 0 0 0 0 0 0 0 0 0 127 0" result="hardAlpha"/>
<feOffset/>
<feGaussianBlur stdDeviation="4.5"/>
<feComposite in2="hardAlpha" operator="out"/>
<feColorMatrix type="matrix" values="0 0 0 0 1 0 0 0 0 1 0 0 0 0 1 0 0 0 0.25 0"/>
<feBlend mode="normal" in2="BackgroundImageFix" result="effect1_dropShadow_1504_482"/>
<feBlend mode="normal" in="SourceGraphic" in2="effect1_dropShadow_1504_482" result="shape"/>
<feColorMatrix in="SourceAlpha" type="matrix" values="0 0 0 0 0 0 0 0 0 0 0 0 0 0 0 0 0 0 127 0" result="hardAlpha"/>
<feOffset/>
<feGaussianBlur stdDeviation="1"/>
<feComposite in2="hardAlpha" operator="arithmetic" k2="-1" k3="1"/>
<feColorMatrix type="matrix" values="0 0 0 0 1 0 0 0 0 1 0 0 0 0 1 0 0 0 0.61 0"/>
<feBlend mode="normal" in2="shape" result="effect2_innerShadow_1504_482"/>
<feGaussianBlur stdDeviation="1" result="effect3_foregroundBlur_1504_482"/>
</filter>
<filter id="filter9_dif_1504_482" x="950.904" y="352.467" width="27.0371" height="27.2123" filterUnits="userSpaceOnUse" color-interpolation-filters="sRGB">
<feFlood flood-opacity="0" result="BackgroundImageFix"/>
<feColorMatrix in="SourceAlpha" type="matrix" values="0 0 0 0 0 0 0 0 0 0 0 0 0 0 0 0 0 0 127 0" result="hardAlpha"/>
<feOffset/>
<feGaussianBlur stdDeviation="4.5"/>
<feComposite in2="hardAlpha" operator="out"/>
<feColorMatrix type="matrix" values="0 0 0 0 1 0 0 0 0 1 0 0 0 0 1 0 0 0 0.25 0"/>
<feBlend mode="normal" in2="BackgroundImageFix" result="effect1_dropShadow_1504_482"/>
<feBlend mode="normal" in="SourceGraphic" in2="effect1_dropShadow_1504_482" result="shape"/>
<feColorMatrix in="SourceAlpha" type="matrix" values="0 0 0 0 0 0 0 0 0 0 0 0 0 0 0 0 0 0 127 0" result="hardAlpha"/>
<feOffset/>
<feGaussianBlur stdDeviation="1"/>
<feComposite in2="hardAlpha" operator="arithmetic" k2="-1" k3="1"/>
<feColorMatrix type="matrix" values="0 0 0 0 1 0 0 0 0 1 0 0 0 0 1 0 0 0 0.61 0"/>
<feBlend mode="normal" in2="shape" result="effect2_innerShadow_1504_482"/>
<feGaussianBlur stdDeviation="1" result="effect3_foregroundBlur_1504_482"/>
</filter>
<filter id="filter10_dif_1504_482" x="954.863" y="285.308" width="27.0371" height="27.2123" filterUnits="userSpaceOnUse" color-interpolation-filters="sRGB">
<feFlood flood-opacity="0" result="BackgroundImageFix"/>
<feColorMatrix in="SourceAlpha" type="matrix" values="0 0 0 0 0 0 0 0 0 0 0 0 0 0 0 0 0 0 127 0" result="hardAlpha"/>
<feOffset/>
<feGaussianBlur stdDeviation="4.5"/>
<feComposite in2="hardAlpha" operator="out"/>
<feColorMatrix type="matrix" values="0 0 0 0 1 0 0 0 0 1 0 0 0 0 1 0 0 0 0.25 0"/>
<feBlend mode="normal" in2="BackgroundImageFix" result="effect1_dropShadow_1504_482"/>
<feBlend mode="normal" in="SourceGraphic" in2="effect1_dropShadow_1504_482" result="shape"/>
<feColorMatrix in="SourceAlpha" type="matrix" values="0 0 0 0 0 0 0 0 0 0 0 0 0 0 0 0 0 0 127 0" result="hardAlpha"/>
<feOffset/>
<feGaussianBlur stdDeviation="1"/>
<feComposite in2="hardAlpha" operator="arithmetic" k2="-1" k3="1"/>
<feColorMatrix type="matrix" values="0 0 0 0 1 0 0 0 0 1 0 0 0 0 1 0 0 0 0.61 0"/>
<feBlend mode="normal" in2="shape" result="effect2_innerShadow_1504_482"/>
<feGaussianBlur stdDeviation="1" result="effect3_foregroundBlur_1504_482"/>
</filter>
<radialGradient id="paint0_radial_1504_482" cx="0" cy="0" r="1" gradientUnits="userSpaceOnUse" gradientTransform="translate(785.46 493.399) rotate(-112.477) scale(283.667 229.336)">
<stop offset="0.221667" stop-color="#FCD97D"/>
<stop offset="0.732985" stop-color="#EEBA56"/>
<stop offset="1" stop-color="#EDDF67"/>
</radialGradient>
</defs>
</svg>
