<svg width="315" height="62" viewBox="0 0 315 62" fill="none" xmlns="http://www.w3.org/2000/svg">
<g clip-path="url(#clip0_48_8780)">
<path d="M20.2181 29.8594C20.2315 29.5679 19.3431 29.9738 19.2392 30.0268C18.8617 30.2193 18.2886 30.5941 18.0497 30.9219C17.6584 31.459 16.9871 32.0061 16.8653 32.6501C16.7414 33.3054 16.5246 33.9182 16.4009 34.5723C16.3522 34.8303 16.178 34.9357 16.0931 35.1628C15.9412 35.5691 15.8349 35.9653 15.7547 36.3889C15.6468 36.9596 15.1723 37.5724 14.7448 37.995C14.1247 38.6081 13.3701 38.4716 12.5461 38.6246C11.4809 38.8226 9.1902 39.0901 8.96631 40.274" stroke="white" stroke-width="1.95172" stroke-linecap="round"/>
<path d="M32.0044 16.169C33.1467 16.169 34.2789 16.3593 35.4688 16.3593C36.142 16.3593 36.6053 16.357 37.2129 16.0633C37.7386 15.8093 38.2601 15.2471 38.7648 15.0698C39.6945 14.743 40.8294 13.7417 41.5316 13.1249C42.4099 12.3531 43.258 12.5801 44.3463 12.2158C45.1356 11.9516 46.5748 12.1736 47.4257 12.1736C48.7971 12.1736 50.1685 12.1736 51.5399 12.1736C52.2768 12.1736 54.0342 12.4403 54.6193 11.9833C54.9207 11.7479 55.646 11.7013 56.0386 11.6028C56.5563 11.4728 56.5879 11.032 57.1214 11.032" stroke="white" stroke-width="1.95172" stroke-linecap="round"/>
<path d="M74.2266 11.9832C75.9403 11.9832 77.7758 12.1941 79.2546 11.3279C79.7674 11.0275 80.3187 10.367 80.9387 10.2709C81.3513 10.2069 81.4177 9.8275 81.6243 9.61554C81.9124 9.32035 83.1044 9.50982 83.537 9.50982" stroke="white" stroke-width="1.95172" stroke-linecap="round"/>
<path d="M31.3545 21.6865C33.1258 21.6865 34.5712 21.7699 36.166 21.2214C37.9228 20.6173 39.8375 19.8663 41.3987 18.9277C41.7689 18.7052 41.973 18.4097 42.3492 18.1772C42.6238 18.0074 43.2954 17.5967 43.4799 17.3739C44.005 16.7393 44.7899 16.3932 45.3082 15.7461C45.7855 15.1501 46.6382 14.4604 47.2691 13.9914C48.5477 13.0407 49.794 11.6573 51.5393 11.6026C52.42 11.5749 53.2637 11.4123 54.1738 11.4123C54.7542 11.4123 54.501 11.1976 54.8715 11.0529C55.1728 10.9352 55.762 11.0318 56.0864 11.0318C59.1948 11.0318 61.9521 11.6887 64.8076 12.5539C66.6098 13.1 68.556 12.9344 70.4371 12.9344C71.9058 12.9344 73.5563 12.0961 74.9722 11.7506C77.6926 11.0866 79.6281 11.3904 82.4062 11.7506C83.7782 11.9284 86.0646 12.4269 87.0135 13.3995C87.3743 13.7694 88.185 13.5427 88.5652 13.8434C89.0167 14.2005 89.8978 14.2158 90.4536 14.2768C91.6335 14.4064 92.9521 14.6468 94.1466 14.6468C96.4339 14.6468 98.898 14.9005 101.064 14.2663C101.917 14.0161 102.682 13.4768 103.565 13.3044C104.556 13.1109 105.659 12.3636 106.705 12.3636" stroke="white" stroke-width="1.95172" stroke-linecap="round"/>
<path d="M31.6585 48.1481L31.6585 61.473L16.1909 61.473L16.1909 23.7387C16.3075 16.0032 19.389 14.7769 24.7858 14.7769L43.9743 14.7769C50.2705 14.8415 51.17 20.5497 51.17 23.7387L51.17 61.473L35.8034 61.473L35.8034 48.1481L35.8034 44.1728C34.4218 44.1435 31.6585 44.1025 31.6585 44.1728L31.6585 48.1481Z" fill="white"/>
<path d="M286.905 47.7735L286.905 61.0985L271.438 61.0985L271.438 23.3642C271.554 15.6287 274.637 14.4023 280.033 14.4023L299.222 14.4023C305.518 14.467 306.418 20.1752 306.418 23.3642L306.418 61.0985L291.051 61.0985L291.051 47.7735L291.051 43.7983C289.67 43.769 286.905 43.7281 286.905 43.7983L286.905 47.7735Z" fill="white"/>
<path d="M96.9435 48.8269C100.492 31.9524 96.1904 19.8159 94.2451 14.7533L107.457 14.7533C111.563 26.4646 111.987 35.1929 107.457 48.8269C108.355 48.8269 109.872 48.8954 109.982 48.8269C112.715 47.1211 113.867 23.3024 109.056 14.7533L119.242 14.7533C116.403 29.5795 116.332 37.4105 119.242 48.8269L122.628 48.8269C116.132 32.317 118.725 28.9409 121.599 14.7533L135.321 14.7533C129.297 28.9502 130.324 35.4785 133.222 47.8609C136.12 60.2433 133.222 60.858 131.701 61.4727L109.982 61.4727L97.7433 61.4727C95.376 60.3985 95.2443 56.9062 96.9435 48.8269Z" fill="white"/>
<path d="M141.916 14.7533C142.167 14.5124 160.621 14.7533 172.098 14.7533C178.494 21.7789 175.895 29.3313 172.098 31.9658C169.733 33.2081 168.162 33.9028 165.801 34.0735C159.203 34.5509 152.623 31.4075 152.409 26.8869L152.409 32.3171C154.335 35.088 157.396 36.2482 161.004 36.7959C164.217 37.2834 167.82 37.4496 172.098 35.303L172.098 44.3483C168.833 42.9528 160.325 40.8178 152.409 45.8997L152.409 48.3001C159.316 44.6779 169.599 45.5777 174.287 48.3001C177.889 50.3916 177.195 59.1896 174.287 61.4727L141.516 61.4727C135.486 49.1137 130.343 25.8249 141.916 14.7533Z" fill="white"/>
<path d="M196.182 29.582C196.825 36.1366 210.223 35.4121 216.04 39.5185C220.137 42.2409 225.872 50.4432 216.04 61.4732L211.732 61.4732L186.387 61.4732C181.577 58.3235 175.416 50.3987 183.991 40.9236C184.468 40.3967 186.29 39.3316 187.689 40.748C194.185 47.324 207.361 48.6025 205.978 47.9491C204.461 47.2329 181.446 35.0654 179.993 31.6148C177.569 25.8576 177.487 17.9151 186.387 14.4023L213.174 14.4023C225.1 21.1468 221.666 31.0879 216.04 33.9859C211.215 36.4716 206.595 35.0902 201.54 29.582C197.001 22.7546 196.077 26.7374 196.182 29.582Z" fill="white"/>
<path d="M295.025 35.479L283.032 35.479L283.032 34.8738L284.184 34.8738L284.184 25.2356L283.082 25.2356L283.082 24.7874L284.184 24.7874C284.383 21.3087 287.54 20.5136 289.091 20.551C292.736 20.4973 293.816 23.3528 293.898 24.7874L294.925 24.7874L294.925 25.2356L293.898 25.2356L293.898 34.8738L295.025 34.8738L295.025 35.479Z" fill="white"/>
<path d="M289.111 35.4791L285.611 35.4791L285.611 32.6403L285.611 29.4858L285.611 25.7683L289.111 25.7683L292.611 25.7683L292.611 29.4858L292.611 32.6403L292.611 35.4791L289.111 35.4791Z" fill="white"/>
<path d="M287.465 25.3172L285.459 25.3172C285.277 24.3619 285.968 23.7025 286.336 23.4923L287.691 24.6413C287.369 24.8215 287.407 25.167 287.465 25.3172Z" fill="white"/>
<path d="M123.601 28.0533C124.315 25.2085 126.973 24.7937 128.213 24.9419C128.984 25.1998 129.595 25.4794 130.072 25.7694C131.56 23.3833 133.171 23.9696 133.791 24.561C133.97 24.0021 133.469 23.6931 133.196 23.6085C140.575 17.0046 144.899 21.2393 146.139 24.1821C148.228 23.5535 150.331 24.5427 151.271 25.2595C154.425 27.6469 153.18 31.3764 152.163 32.9427C147.224 36.8542 143.709 34.4032 142.568 32.6888C138.581 36.7017 134.312 34.6452 132.675 33.1152C130.964 34.2498 128.41 33.7189 127.246 33.2601C123.556 31.9903 123.279 29.2598 123.601 28.0533Z" fill="#4D0D14"/>
<path d="M290.355 25.3178L287.794 25.3178C287.794 24.4707 288.632 24.2589 289.05 24.2589C290.053 24.2949 290.337 24.9799 290.355 25.3178Z" fill="white"/>
<path d="M288.95 24.0103C288.409 23.9922 288.071 24.2432 287.971 24.3709L286.616 23.1993C287.219 22.3522 288.423 22.2605 288.95 22.3205L288.95 24.0103Z" fill="white"/>
<path d="M290.254 24.4385C290.114 24.0962 289.561 24.0105 289.301 24.0105L289.301 22.3207C290.446 22.2539 291.25 22.9238 291.509 23.267L290.254 24.4385Z" fill="white"/>
<path d="M290.83 25.3172C290.91 25.065 290.662 24.7615 290.528 24.6413L291.81 23.4923C292.591 23.9969 292.671 24.9192 292.611 25.3172L290.83 25.3172Z" fill="white"/>
<path d="M289.108 35.4786L285.609 35.4786L285.609 32.6398M289.108 35.4786L292.608 35.4786L292.608 32.6398M289.108 35.4786L289.108 25.7678ZM289.108 25.7678L292.608 25.7678L292.608 29.4853M289.108 25.7678L285.609 25.7678L285.609 29.4853M285.609 29.4853L292.608 29.4853ZM285.609 29.4853L285.609 32.6398ZM292.608 29.4853L292.608 32.6398ZM285.609 32.6398L292.608 32.6398ZM285.459 25.3171L287.465 25.3171C287.407 25.1669 287.369 24.8215 287.691 24.6412L286.336 23.4922C285.968 23.7025 285.277 24.3618 285.459 25.3171ZM287.791 25.3171L290.352 25.3171C290.334 24.9792 290.05 24.2942 289.047 24.2582C288.629 24.2582 287.791 24.47 287.791 25.3171ZM287.967 24.3709C288.067 24.2432 288.405 23.9923 288.947 24.0104L288.947 22.3205C288.419 22.2605 287.216 22.3522 286.612 23.1993L287.967 24.3709ZM289.296 24.0104C289.556 24.0104 290.11 24.0961 290.25 24.4384L291.505 23.2669C291.245 22.9237 290.442 22.2538 289.296 22.3205L289.296 24.0104ZM290.526 24.6412C290.66 24.7614 290.907 25.0649 290.827 25.3171L292.608 25.3171C292.668 24.9191 292.588 23.9968 291.807 23.4922L290.526 24.6412Z" fill="#4D0D14"/>
<path d="M289.108 35.4786L285.609 35.4786L285.609 32.6398M289.108 35.4786L292.608 35.4786L292.608 32.6398M289.108 35.4786L289.108 25.7678M285.609 32.6398L285.609 29.4853M285.609 32.6398L292.608 32.6398M292.608 32.6398L292.608 29.4853M289.108 25.7678L292.608 25.7678L292.608 29.4853M289.108 25.7678L285.609 25.7678L285.609 29.4853M292.608 29.4853L285.609 29.4853M285.459 25.3171L287.465 25.3171C287.407 25.1669 287.369 24.8215 287.691 24.6412L286.336 23.4922C285.968 23.7025 285.277 24.3618 285.459 25.3171ZM287.791 25.3171L290.352 25.3171C290.334 24.9792 290.05 24.2942 289.047 24.2582C288.629 24.2582 287.791 24.47 287.791 25.3171ZM287.967 24.3709C288.067 24.2432 288.405 23.9923 288.947 24.0104L288.947 22.3205C288.419 22.2605 287.216 22.3522 286.612 23.1993L287.967 24.3709ZM289.296 24.0104C289.556 24.0104 290.11 24.0961 290.25 24.4384L291.505 23.2669C291.245 22.9237 290.442 22.2538 289.296 22.3205L289.296 24.0104ZM290.526 24.6412C290.66 24.7614 290.907 25.0649 290.827 25.3171L292.608 25.3171C292.668 24.9191 292.588 23.9968 291.807 23.4922L290.526 24.6412Z" stroke="#4D0D14" stroke-width="0.975861"/>
<mask id="mask0_48_8780" style="mask-type:alpha" maskUnits="userSpaceOnUse" x="205" y="-1" width="16" height="14">
<path fill-rule="evenodd" clip-rule="evenodd" d="M216.445 0.114763C216.233 0.362114 215.752 0.620358 214.782 1.0082C213.653 1.45999 213.237 1.65342 213.051 1.81337C212.654 2.15637 212.492 2.739 212.612 3.4062C212.632 3.51188 212.642 3.60366 212.634 3.61022C212.61 3.63001 212.338 3.2595 212.196 3.01566C211.996 2.67503 211.928 2.50024 211.818 2.0473C211.664 1.42221 211.498 1.17084 211.127 0.999307C210.743 0.823204 210.201 0.781955 209.881 0.90444C209.665 0.987017 209.416 1.17059 209.252 1.36838C209.124 1.52141 209.07 1.56098 208.854 1.6553L208.604 1.7647L208.624 1.65298C208.64 1.56364 208.636 1.54125 208.598 1.54125C208.57 1.54125 208.55 1.55899 208.55 1.58069C208.55 1.65339 208.49 1.6532 208.32 1.58001C208.228 1.54002 208.148 1.50381 208.142 1.49954C208.136 1.4953 208.162 1.40924 208.198 1.30835C208.274 1.0951 208.282 0.885444 208.218 0.780341C208.168 0.698172 208.016 0.569119 207.858 0.476277C207.802 0.442748 207.757 0.397668 207.757 0.376128C207.757 0.310519 207.633 0.330062 207.615 0.398517C207.547 0.653778 207.535 0.737422 207.535 0.974919C207.535 1.26226 207.493 1.30989 207.457 1.06385C207.431 0.887252 207.297 0.647401 207.185 0.577715C207.141 0.550535 207.001 0.50956 206.875 0.486678C206.747 0.463796 206.615 0.430295 206.581 0.412231C206.461 0.347635 206.449 0.42025 206.535 0.676112C206.681 1.1115 206.803 1.27293 207.035 1.33602C207.127 1.3609 207.221 1.38669 207.245 1.39331C207.273 1.40097 207.241 1.43522 207.157 1.4878C206.925 1.63218 206.897 1.69904 206.909 2.0613C206.919 2.31073 206.931 2.37768 206.967 2.38384C207.021 2.39294 207.413 2.16152 207.565 2.03009C207.737 1.88322 207.789 1.78915 207.789 1.62793C207.789 1.54763 207.799 1.48618 207.812 1.49135C208.096 1.60407 208.488 1.7972 208.466 1.81518C208.392 1.87764 207.629 2.19816 207.553 2.19816C207.383 2.19816 207.199 2.32576 207.031 2.56229C206.991 2.61793 206.937 2.66346 206.913 2.66346C206.867 2.66346 206.849 2.75988 206.893 2.78272C206.905 2.78985 207.061 2.81012 207.235 2.82768C207.685 2.87282 207.882 2.83896 208.064 2.68571C208.138 2.62287 208.22 2.53057 208.248 2.48062C208.276 2.43063 208.314 2.38974 208.332 2.38974C208.392 2.38974 208.334 2.54504 208.246 2.62048C208.15 2.70364 208.024 2.93369 207.992 3.08086C207.954 3.2585 207.998 3.36213 208.186 3.53587C208.28 3.62458 208.358 3.71577 208.358 3.7385C208.358 3.80356 208.462 3.82326 208.51 3.76729C208.594 3.66842 208.74 3.21238 208.74 3.05002C208.74 2.88199 208.712 2.83434 208.51 2.6469C208.438 2.58017 208.424 2.54636 208.44 2.48951C208.452 2.44969 208.472 2.41713 208.484 2.41713C208.498 2.41713 208.578 2.47842 208.664 2.55337C208.792 2.66527 208.942 2.85831 209.178 3.2089C209.194 3.23323 209.226 3.24082 209.262 3.22901C209.314 3.2118 209.318 3.17987 209.304 2.88882C209.29 2.54562 209.256 2.45087 209.094 2.29704L209.01 2.21804L209.122 2.23274C209.286 2.2545 209.601 2.42473 209.763 2.57954C210.001 2.80782 210.005 2.85106 209.879 3.68606C209.781 4.33253 209.771 4.46615 209.771 5.07208C209.771 5.81089 209.801 6.01923 209.979 6.48001C210.067 6.7049 210.071 6.73509 210.037 6.85361C209.983 7.03206 210.029 7.1075 210.289 7.27544C210.449 7.3797 210.519 7.44592 210.577 7.55348C210.663 7.71529 210.741 7.75622 210.921 7.73542C211.033 7.72253 211.107 7.74508 211.504 7.91431C212.198 8.20948 213.143 8.48237 214.135 8.67327C214.353 8.71502 214.546 8.76248 214.566 8.77871C214.586 8.79494 214.812 9.24547 215.068 9.77988C215.706 11.1093 215.756 11.2136 215.782 11.239C215.794 11.2511 215.85 11.2019 215.906 11.1295C216.076 10.904 216.116 10.8747 216.241 10.8747C216.303 10.8747 216.399 10.8551 216.453 10.8311C216.547 10.7892 216.629 10.79 216.835 10.8348C216.903 10.8493 216.945 10.837 217.025 10.7792C217.129 10.7029 217.143 10.702 217.425 10.7535C217.527 10.7719 217.529 10.77 217.509 10.7007C217.489 10.6287 217.489 10.6287 217.595 10.666C217.653 10.6865 217.741 10.7113 217.789 10.7212C217.877 10.7389 217.877 10.738 217.857 10.6307L217.837 10.5223L218.038 10.5739C218.33 10.6486 218.426 10.6529 218.44 10.5921C218.446 10.5646 218.426 10.524 218.394 10.5017C218.338 10.4632 218.338 10.462 218.402 10.477C218.51 10.5025 218.582 10.4654 218.564 10.3919C218.552 10.332 218.56 10.3273 218.688 10.3273C218.842 10.3273 219.09 10.2528 219.064 10.2149C219.054 10.2014 219.02 10.1904 218.99 10.1904C218.622 10.1904 217.942 9.74781 216.821 8.77527L216.226 8.25968L216.146 8.00471C216.026 7.61488 215.812 7.16813 215.458 6.57133C215.282 6.27294 215.144 6.02541 215.15 6.02128C215.158 6.01712 215.27 5.96882 215.402 5.91386C215.552 5.85107 215.718 5.75182 215.846 5.64653C215.97 5.54571 216.132 5.44746 216.251 5.39963C216.507 5.29873 216.823 5.11364 217.067 4.92388C217.253 4.77845 217.255 4.77457 217.199 4.72051C217.141 4.66589 217.139 4.66585 217.041 4.7181C216.963 4.75892 216.881 4.77081 216.677 4.7709C216.409 4.77101 215.98 4.69826 216.026 4.66114C216.04 4.65001 216.13 4.61947 216.226 4.5933C216.461 4.52889 216.841 4.36483 217.087 4.22114C217.289 4.10277 217.845 3.66091 217.845 3.61851C217.845 3.60611 217.815 3.58213 217.777 3.56522C217.721 3.53945 217.697 3.54551 217.627 3.60228C217.497 3.70648 216.983 3.89991 216.937 3.86101C216.929 3.85425 217.005 3.80484 217.107 3.75125C217.585 3.4966 218.092 3.05164 218.394 2.62185C218.458 2.53122 218.51 2.44855 218.51 2.43806C218.51 2.42759 218.48 2.40548 218.444 2.38892C218.39 2.36345 218.362 2.37287 218.262 2.45009C218.148 2.53865 217.567 2.81626 217.541 2.79413C217.535 2.78807 217.627 2.70693 217.747 2.61377C218.152 2.3015 218.546 1.82533 218.76 1.39008C218.844 1.21871 218.998 0.774318 218.978 0.759895C218.974 0.756828 218.94 0.746127 218.902 0.736164C218.842 0.720534 218.822 0.738079 218.756 0.862754C218.492 1.35335 217.705 1.79547 216.421 2.17303C216.17 2.24706 215.952 2.30763 215.938 2.30763C215.924 2.30763 215.954 2.23067 216.002 2.13656C216.082 1.98421 216.148 1.78676 216.21 1.52286C216.228 1.44677 216.222 1.43491 216.158 1.42706C216.104 1.42054 216.04 1.45569 215.922 1.55493C215.834 1.63021 215.712 1.71582 215.652 1.74519L215.544 1.79858L215.6 1.73151C215.844 1.43352 216.15 0.984773 216.387 0.575113C216.543 0.30718 216.671 0.0715171 216.671 0.0514268C216.671 0.0313093 216.643 0.00891993 216.611 0.00161192C216.569 -0.00788577 216.523 0.0239191 216.445 0.114763ZM208.326 2.22407L208.406 2.24455L208.322 2.27925C208.25 2.30881 208.21 2.30568 208.052 2.25823L207.866 2.20248L208.058 2.20304C208.162 2.20336 208.284 2.21282 208.326 2.22407Z" fill="black" stroke="black" stroke-width="1.95172"/>
</mask>
<g mask="url(#mask0_48_8780)">
<path fill-rule="evenodd" clip-rule="evenodd" d="M216.445 0.114763C216.233 0.362114 215.752 0.620358 214.782 1.0082C213.653 1.45999 213.237 1.65342 213.051 1.81337C212.654 2.15637 212.492 2.739 212.612 3.4062C212.632 3.51188 212.642 3.60366 212.634 3.61022C212.61 3.63001 212.338 3.2595 212.196 3.01566C211.996 2.67503 211.928 2.50024 211.818 2.0473C211.664 1.42221 211.498 1.17084 211.127 0.999307C210.743 0.823204 210.201 0.781955 209.881 0.90444C209.665 0.987017 209.416 1.17059 209.252 1.36838C209.124 1.52141 209.07 1.56098 208.854 1.6553L208.604 1.7647L208.624 1.65298C208.64 1.56364 208.636 1.54125 208.598 1.54125C208.57 1.54125 208.55 1.55899 208.55 1.58069C208.55 1.65339 208.49 1.6532 208.32 1.58001C208.228 1.54002 208.148 1.50381 208.142 1.49954C208.136 1.4953 208.162 1.40924 208.198 1.30835C208.274 1.0951 208.282 0.885444 208.218 0.780341C208.168 0.698172 208.016 0.569119 207.858 0.476277C207.802 0.442748 207.757 0.397668 207.757 0.376128C207.757 0.310519 207.633 0.330062 207.615 0.398517C207.547 0.653778 207.535 0.737422 207.535 0.974919C207.535 1.26226 207.493 1.30989 207.457 1.06385C207.431 0.887252 207.297 0.647401 207.185 0.577715C207.141 0.550535 207.001 0.50956 206.875 0.486678C206.747 0.463796 206.615 0.430295 206.581 0.412231C206.461 0.347635 206.449 0.42025 206.535 0.676112C206.681 1.1115 206.803 1.27293 207.035 1.33602C207.127 1.3609 207.221 1.38669 207.245 1.39331C207.273 1.40097 207.241 1.43522 207.157 1.4878C206.925 1.63218 206.897 1.69904 206.909 2.0613C206.919 2.31073 206.931 2.37768 206.967 2.38384C207.021 2.39294 207.413 2.16152 207.565 2.03009C207.737 1.88322 207.789 1.78915 207.789 1.62793C207.789 1.54763 207.799 1.48618 207.812 1.49135C208.096 1.60407 208.488 1.7972 208.466 1.81518C208.392 1.87764 207.629 2.19816 207.553 2.19816C207.383 2.19816 207.199 2.32576 207.031 2.56229C206.991 2.61793 206.937 2.66346 206.913 2.66346C206.867 2.66346 206.849 2.75988 206.893 2.78272C206.905 2.78985 207.061 2.81012 207.235 2.82768C207.685 2.87282 207.882 2.83896 208.064 2.68571C208.138 2.62287 208.22 2.53057 208.248 2.48062C208.276 2.43063 208.314 2.38974 208.332 2.38974C208.392 2.38974 208.334 2.54504 208.246 2.62048C208.15 2.70364 208.024 2.93369 207.992 3.08086C207.954 3.2585 207.998 3.36213 208.186 3.53587C208.28 3.62458 208.358 3.71577 208.358 3.7385C208.358 3.80356 208.462 3.82326 208.51 3.76729C208.594 3.66842 208.74 3.21238 208.74 3.05002C208.74 2.88199 208.712 2.83434 208.51 2.6469C208.438 2.58017 208.424 2.54636 208.44 2.48951C208.452 2.44969 208.472 2.41713 208.484 2.41713C208.498 2.41713 208.578 2.47842 208.664 2.55337C208.792 2.66527 208.942 2.85831 209.178 3.2089C209.194 3.23323 209.226 3.24082 209.262 3.22901C209.314 3.2118 209.318 3.17987 209.304 2.88882C209.29 2.54562 209.256 2.45087 209.094 2.29704L209.01 2.21804L209.122 2.23274C209.286 2.2545 209.601 2.42473 209.763 2.57954C210.001 2.80782 210.005 2.85106 209.879 3.68606C209.781 4.33253 209.771 4.46615 209.771 5.07208C209.771 5.81089 209.801 6.01923 209.979 6.48001C210.067 6.7049 210.071 6.73509 210.037 6.85361C209.983 7.03206 210.029 7.1075 210.289 7.27544C210.449 7.3797 210.519 7.44592 210.577 7.55348C210.663 7.71529 210.741 7.75622 210.921 7.73542C211.033 7.72253 211.107 7.74508 211.504 7.91431C212.198 8.20948 213.143 8.48237 214.135 8.67327C214.353 8.71502 214.546 8.76248 214.566 8.77871C214.586 8.79494 214.812 9.24547 215.068 9.77988C215.706 11.1093 215.756 11.2136 215.782 11.239C215.794 11.2511 215.85 11.2019 215.906 11.1295C216.076 10.904 216.116 10.8747 216.241 10.8747C216.303 10.8747 216.399 10.8551 216.453 10.8311C216.547 10.7892 216.629 10.79 216.835 10.8348C216.903 10.8493 216.945 10.837 217.025 10.7792C217.129 10.7029 217.143 10.702 217.425 10.7535C217.527 10.7719 217.529 10.77 217.509 10.7007C217.489 10.6287 217.489 10.6287 217.595 10.666C217.653 10.6865 217.741 10.7113 217.789 10.7212C217.877 10.7389 217.877 10.738 217.857 10.6307L217.837 10.5223L218.038 10.5739C218.33 10.6486 218.426 10.6529 218.44 10.5921C218.446 10.5646 218.426 10.524 218.394 10.5017C218.338 10.4632 218.338 10.462 218.402 10.477C218.51 10.5025 218.582 10.4654 218.564 10.3919C218.552 10.332 218.56 10.3273 218.688 10.3273C218.842 10.3273 219.09 10.2528 219.064 10.2149C219.054 10.2014 219.02 10.1904 218.99 10.1904C218.622 10.1904 217.942 9.74781 216.821 8.77527L216.226 8.25968L216.146 8.00471C216.026 7.61488 215.812 7.16813 215.458 6.57133C215.282 6.27294 215.144 6.02541 215.15 6.02128C215.158 6.01712 215.27 5.96882 215.402 5.91386C215.552 5.85107 215.718 5.75182 215.846 5.64653C215.97 5.54571 216.132 5.44746 216.251 5.39963C216.507 5.29873 216.823 5.11364 217.067 4.92388C217.253 4.77845 217.255 4.77457 217.199 4.72051C217.141 4.66589 217.139 4.66585 217.041 4.7181C216.963 4.75892 216.881 4.77081 216.677 4.7709C216.409 4.77101 215.98 4.69826 216.026 4.66114C216.04 4.65001 216.13 4.61947 216.226 4.5933C216.461 4.52889 216.841 4.36483 217.087 4.22114C217.289 4.10277 217.845 3.66091 217.845 3.61851C217.845 3.60611 217.815 3.58213 217.777 3.56522C217.721 3.53945 217.697 3.54551 217.627 3.60228C217.497 3.70648 216.983 3.89991 216.937 3.86101C216.929 3.85425 217.005 3.80484 217.107 3.75125C217.585 3.4966 218.092 3.05164 218.394 2.62185C218.458 2.53122 218.51 2.44855 218.51 2.43806C218.51 2.42759 218.48 2.40548 218.444 2.38892C218.39 2.36345 218.362 2.37287 218.262 2.45009C218.148 2.53865 217.567 2.81626 217.541 2.79413C217.535 2.78807 217.627 2.70693 217.747 2.61377C218.152 2.3015 218.546 1.82533 218.76 1.39008C218.844 1.21871 218.998 0.774318 218.978 0.759895C218.974 0.756828 218.94 0.746127 218.902 0.736164C218.842 0.720534 218.822 0.738079 218.756 0.862754C218.492 1.35335 217.705 1.79547 216.421 2.17303C216.17 2.24706 215.952 2.30763 215.938 2.30763C215.924 2.30763 215.954 2.23067 216.002 2.13656C216.082 1.98421 216.148 1.78676 216.21 1.52286C216.228 1.44677 216.222 1.43491 216.158 1.42706C216.104 1.42054 216.04 1.45569 215.922 1.55493C215.834 1.63021 215.712 1.71582 215.652 1.74519L215.544 1.79858L215.6 1.73151C215.844 1.43352 216.15 0.984773 216.387 0.575113C216.543 0.30718 216.671 0.0715171 216.671 0.0514268C216.671 0.0313093 216.643 0.00891993 216.611 0.00161192C216.569 -0.00788577 216.523 0.0239191 216.445 0.114763ZM208.326 2.22407L208.406 2.24455L208.322 2.27925C208.25 2.30881 208.21 2.30568 208.052 2.25823L207.866 2.20248L208.058 2.20304C208.162 2.20336 208.284 2.21282 208.326 2.22407Z" fill="white"/>
</g>
<path d="M65.2463 30.9303C68.6132 42.4226 66.649 56.0803 65.2463 61.4727L54.7671 61.4727L54.8392 22.2179C54.8153 20.2859 55.9264 16.0881 60.5636 14.7533L78.1302 14.7533C74.076 27.2808 76.441 40.8522 78.1302 46.0722L80.4494 46.0722C75.9143 33.7516 78.5597 20.0595 80.4494 14.7533L90.7567 14.7533C97.4923 29.6903 94.0831 49.6722 90.7567 61.4727L67.4793 61.4727C71.5337 48.8416 69.1687 35.8482 67.4793 30.9303L65.2463 30.9303Z" fill="white"/>
<path d="M254.249 33.1952C253.102 36.6364 251.783 39.2457 250.392 41.1969M250.392 41.1969C250.172 41.8636 249.866 43.3189 250.392 43.8059C250.917 44.2932 250.61 45.9745 250.392 46.4384M250.392 41.1969C248.813 43.4083 247.142 44.7741 245.519 45.5465M254.249 42.9364C251.937 46.4164 249.53 48.1317 247.264 48.7473M245.519 45.5465C242.376 47.041 239.414 46.3146 237.659 45.1977C238.575 46.2821 239.96 47.4599 241.637 48.2178M245.519 45.5465C244.935 45.8651 243.752 46.6936 243.674 47.459M243.674 47.459C243.546 47.8489 242.956 48.5466 241.637 48.2178M243.674 47.459C243.965 47.8939 244.373 48.9201 243.674 49.5463C243.384 49.8652 242.976 50.6596 243.674 51.2858M241.637 48.2178C243.286 48.9633 245.219 49.3027 247.264 48.7473M247.264 48.7473C249.14 47.941 252.91 45.0584 252.988 39.9792" stroke="white" stroke-width="0.975861"/>
<path d="M206.767 49.3758C197.092 50.221 189.377 45.9957 186.591 42.7675C185.288 42.9141 182.822 43.6558 183.992 46.5436C182.805 47.072 180.662 48.5398 182.593 50.9346C182.413 54.8688 183.612 56.6066 185.291 57.7844C187.819 59.8762 191.669 59.3147 195.558 59.453C199.656 59.5986 207.021 59.7993 209.577 59.453C218.072 58.8895 218.058 53.5776 217.173 50.232C214.616 47.1505 209.257 49.0236 206.767 49.3758Z" fill="white"/>
<path d="M183.992 46.5436C182.822 43.6558 185.288 42.9141 186.591 42.7675C189.377 45.9957 197.092 50.221 206.767 49.3758C209.257 49.0236 214.616 47.1505 217.173 50.232C218.058 53.5776 218.072 58.8895 209.577 59.453C207.021 59.7993 199.656 59.5986 195.558 59.453C191.669 59.3147 187.819 59.8762 185.291 57.7844C183.612 56.6066 182.413 54.8688 182.593 50.9346M183.992 46.5436C182.805 47.072 180.662 48.5398 182.593 50.9346ZM183.992 46.5436C185.608 48.097 188.99 49.6805 192.587 51.3737ZM182.593 50.9346C184.761 53.3522 189.625 55.3352 195.558 56.1601Z" fill="#4D0D14"/>
<path d="M128.265 29.5406C128.81 30.1966 130.229 31.0518 131.538 29.223C132.142 28.5526 132.559 27.1119 130.496 25.8596M133.1 33.2054C131.388 34.34 128.834 33.8091 127.67 33.3503C123.981 32.0805 123.703 29.35 124.025 28.1436C124.739 25.2988 127.397 24.8839 128.637 25.0321C129.409 25.29 130.019 25.5696 130.496 25.8596M133.1 33.2054C134.736 34.7354 139.006 36.7919 142.993 32.779M142.993 32.779L144.629 30.3659C145.348 29.5406 147.113 28.296 148.422 29.9215C148.844 30.7894 148.958 32.4488 146.042 32.1439M142.993 32.779C144.133 34.4934 147.649 36.9444 152.588 33.0329C153.604 31.4666 154.849 27.7371 151.695 25.3497C150.756 24.6329 148.652 23.6437 146.563 24.2723M146.563 24.2723C145.323 21.3295 140.999 17.0948 133.62 23.6987C133.893 23.7834 134.394 24.0923 134.215 24.6512C133.596 24.0598 131.984 23.4735 130.496 25.8596M133.1 33.2054C133.284 33.0834 133.458 32.9418 133.62 32.779L133.1 33.2054ZM146.563 24.2723C146.061 24.4234 145.559 24.668 145.075 25.0321L146.563 24.2723Z" stroke="white" stroke-width="1.46379"/>
<path d="M98.0423 53.4814C97.4424 55.3256 96.8074 58.6117 99.3413 60.0679" stroke="white" stroke-width="1.46379"/>
<path d="M132.521 53.63C133.021 55.6498 133.707 59.6902 130.123 60.3206" stroke="white" stroke-width="1.46379"/>
<path d="M168.5 48.1251C170.771 47.8806 174.953 49.4826 174.797 52.6915" stroke="white" stroke-width="1.46379"/>
<path d="M141.118 55.8057C142.317 58.001 141.418 59.406 147.114 59.4062" stroke="white" stroke-width="1.46379"/>
<path d="M241.923 37.0599C241.723 37.5575 241.443 38.6407 241.923 38.9919C242.403 39.3432 242.123 40.1921 241.923 40.5727C241.789 40.9824 241.743 41.8197 242.623 41.8899C242.855 42.2412 243.182 43.1018 242.623 43.7341" stroke="white" stroke-width="2.92758"/>
<path d="M57.0659 21.6031C57.0993 20.0809 57.9654 16.9838 61.1635 16.7731" stroke="white" stroke-width="1.46379"/>
<path d="M37.0791 36.01L30.583 36.01L30.583 29.6825L30.583 25.9987C30.5031 23.6101 32.8817 23.13 34.0809 23.1885C36.3196 23.1885 37.0126 25.062 37.0791 25.9987L37.0791 36.01Z" fill="#4D0D14"/>
<path d="M0.936227 55.0352C-0.507766 51.448 3.04206 50.6757 4.99745 50.738C4.45592 48.496 6.65441 48.5584 7.82135 48.8698C8.40533 46.2383 11.044 45.6385 12.4431 45.6935C15.5116 45.3947 17.1812 47.5619 17.6325 48.6829C19.618 47.4873 20.8664 48.4962 21.2425 49.2435L21.468 49.7378C22.4692 49.3598 23.5655 49.2433 24.1756 49.2435C28.6881 49.2435 29.2146 52.3574 28.9136 53.9143C26.9281 58.6971 21.6185 57.4017 19.2118 56.1563C15.6018 59.5939 10.0365 57.3396 7.705 55.7825C3.91452 57.2772 1.61312 55.9071 0.936227 55.0352Z" fill="#4D0D14"/>
<path d="M7.705 55.7825C3.91452 57.2772 1.61312 55.9071 0.936227 55.0352C-0.507766 51.448 3.04206 50.6757 4.99745 50.738C4.45592 48.496 6.65441 48.5584 7.82135 48.8698M7.705 55.7825C7.47938 55.5958 6.98301 55.0726 6.8025 54.4747M7.705 55.7825C10.0365 57.3396 15.6018 59.5939 19.2118 56.1563C21.6185 57.4017 26.9281 58.6971 28.9136 53.9143C29.2146 52.3574 28.6881 49.2435 24.1756 49.2435C23.5655 49.2433 22.4692 49.3598 21.468 49.7378M19.8887 50.738C20.2959 50.2884 20.8648 49.9656 21.468 49.7378M17.6325 48.6829C19.618 47.4873 20.8664 48.4962 21.2425 49.2435L21.468 49.7378M17.6325 48.6829C17.1812 47.5619 15.5116 45.3947 12.4431 45.6935C11.044 45.6385 8.40535 46.2383 7.82135 48.8698M17.6325 48.6829C17.8581 49.2435 18.0837 49.6171 18.0837 49.9909M7.705 49.9909C7.705 49.5814 7.74614 49.2087 7.82135 48.8698" stroke="white" stroke-width="1.46379"/>
<path d="M223.866 21.1233L223.866 14.4023L225.971 14.4023L225.971 17.7584L228.368 17.7584L228.368 14.4023L230.646 14.4023L230.646 17.7584L232.985 17.7584L232.985 14.4023L235.389 14.4023L235.389 17.7584L237.616 17.7584L237.616 14.4023L240.057 14.4023L240.057 21.1233L238.012 21.1233L238.012 23.02C240.057 24.3259 240.057 25.5032 240.057 26.8998L240.057 61.4732L223.866 61.4732L223.866 26.8998C223.866 24.6237 223.866 23.9746 225.597 23.02L225.597 21.1233L223.866 21.1233Z" fill="white"/>
<path d="M252.053 21.1233L252.053 14.4023L254.157 14.4023L254.157 17.7584L256.554 17.7584L256.554 14.4023L258.833 14.4023L258.833 17.7584L261.171 17.7584L261.171 14.4023L263.576 14.4023L263.576 17.7584L265.803 17.7584L265.803 14.4023L268.243 14.4023L268.243 21.1233L266.198 21.1233L266.198 23.02C268.243 24.3259 268.243 25.5032 268.243 26.8998L268.243 61.4732L252.053 61.4732L252.053 26.8998C252.053 24.6237 252.053 23.9746 253.784 23.02L253.784 21.1233L252.053 21.1233Z" fill="white"/>
<path fill-rule="evenodd" clip-rule="evenodd" d="M311.235 17.8444C311.135 17.9988 310.985 18.1783 310.907 18.2433C310.764 18.3601 310.764 18.3627 310.909 18.5247C311.053 18.6849 311.051 18.6949 310.768 19.0361C310.608 19.2274 310.386 19.4094 310.274 19.4403C310.164 19.4712 310.036 19.5899 309.992 19.7043C309.912 19.9103 309.926 19.9122 311.431 19.9122L312.952 19.9122L312.842 19.6825C312.78 19.5562 312.652 19.4297 312.556 19.4016C312.333 19.3361 311.903 18.8914 311.903 18.7239C311.903 18.6529 311.961 18.544 312.033 18.4818C312.143 18.3854 312.145 18.3596 312.051 18.3071C311.989 18.2734 311.829 18.0921 311.693 17.9045C311.559 17.7171 311.441 17.5636 311.435 17.5636C311.427 17.5636 311.337 17.6901 311.235 17.8444ZM309.484 20.359C309.352 20.5487 309.114 20.7901 308.955 20.8953C308.647 21.1006 308.571 21.3419 308.815 21.3419C308.999 21.3419 309.328 21.6287 309.328 21.7886C309.328 21.8528 309.386 21.9563 309.458 22.0188C309.534 22.0835 309.598 22.2791 309.608 22.4742C309.618 22.6625 309.676 23.1396 309.738 23.5344C309.798 23.9291 309.916 24.7546 309.996 25.3688C310.128 26.3678 310.132 26.4946 310.03 26.5736C309.968 26.6223 309.916 26.7285 309.916 26.81C309.916 26.9346 310.156 26.9581 311.421 26.9581C312.271 26.9581 312.942 26.9168 312.966 26.8631C312.99 26.8107 312.946 26.7066 312.868 26.6314C312.732 26.4986 312.736 26.4393 313.026 24.3014C313.26 22.5949 313.356 22.0778 313.462 21.9732C313.536 21.899 313.58 21.7993 313.56 21.7513C313.518 21.6588 313.922 21.3419 314.082 21.3419C314.307 21.3419 314.233 21.1352 313.932 20.9255C313.75 20.8002 313.496 20.544 313.364 20.3561L313.126 20.0143L311.425 20.0143L309.724 20.0143L309.484 20.359ZM310.206 23.0523C310.32 24.1804 310.496 25.7109 310.546 26.022C310.576 26.2073 310.558 26.2524 310.458 26.2259C310.356 26.1988 310.304 25.9636 310.2 25.0688C310.13 24.4512 310.024 23.5437 309.968 23.0523C309.87 22.2229 309.872 22.1588 309.988 22.1588C310.09 22.1588 310.132 22.3288 310.206 23.0523ZM312.345 22.2078C312.345 22.4022 312.039 26.0149 312.013 26.1157C311.991 26.2023 311.807 26.2434 311.433 26.2434L310.885 26.2434L310.843 25.8604C310.819 25.65 310.75 24.8801 310.69 24.15C310.628 23.4199 310.564 22.6731 310.546 22.4906L310.514 22.1588L311.429 22.1588C311.933 22.1588 312.345 22.1808 312.345 22.2078ZM312.976 22.4396C312.954 22.594 312.886 23.157 312.828 23.6905C312.578 25.9809 312.538 26.2434 312.443 26.2434C312.389 26.2434 312.345 26.2055 312.345 26.1593C312.345 25.9589 312.658 23.1299 312.758 22.4396C312.78 22.2828 312.846 22.1588 312.908 22.1588C312.99 22.1588 313.008 22.232 312.976 22.4396ZM305.543 25.8284C305.357 26.1142 305.461 26.2434 305.874 26.2434C306.27 26.2434 306.344 26.1017 306.104 25.7996C305.924 25.5746 305.701 25.586 305.543 25.8284ZM305.405 26.4127C305.379 26.4496 305.397 26.549 305.447 26.6335C305.499 26.7178 305.539 26.8829 305.539 27.0003C305.539 27.1782 305.591 27.2187 305.852 27.2447C306.154 27.2753 306.164 27.2667 306.164 26.9725C306.164 26.8055 306.204 26.6507 306.25 26.6288C306.298 26.6068 306.312 26.5339 306.284 26.467C306.226 26.3397 305.491 26.2942 305.405 26.4127ZM310.334 27.1285C310.242 27.2565 310.284 27.3666 310.428 27.3666C310.534 27.3666 310.576 27.4494 310.594 27.6961C310.608 27.9104 310.672 28.0637 310.774 28.1342C311.049 28.3237 311.167 28.5081 311.167 28.7482C311.167 28.93 311.135 28.9697 311.021 28.9288C310.784 28.8418 310.134 29.2282 309.786 29.6641C309.592 29.9081 309.306 30.4637 309.075 31.0427C308.613 32.2028 308.303 32.5659 307.775 32.5711C307.503 32.5738 307.396 32.5198 307.242 32.3054C307.134 32.1573 307.048 31.9734 307.048 31.8969C307.048 31.8024 306.952 31.7576 306.754 31.7576C306.36 31.7576 306.374 31.5735 306.772 31.5336C307.052 31.5055 307.086 31.4727 307.108 31.2215C307.122 31.0441 307.096 30.9372 307.034 30.9312C306.98 30.9261 306.838 30.9147 306.716 30.9057C306.564 30.8947 306.472 30.8177 306.422 30.656C306.354 30.4401 306.31 30.4247 305.832 30.4517L305.319 30.4812L305.297 31.5278C305.269 32.8989 305.289 32.9408 305.892 32.8982L306.37 32.8643L306.42 32.3962L306.472 31.9279L306.602 32.3321C306.876 33.1794 307.565 33.633 308.205 33.3847C308.753 33.1722 309.14 32.598 309.558 31.3828C309.94 30.2731 310.238 29.8171 310.724 29.6002C310.867 29.5366 311.025 29.4388 311.075 29.3831C311.141 29.3109 311.167 29.3278 311.167 29.4414C311.167 29.662 311.289 29.746 311.503 29.6719C311.665 29.6151 311.683 29.5572 311.683 29.0621C311.683 28.5002 311.739 28.3658 312.077 28.1342C312.179 28.0637 312.243 27.9104 312.257 27.6961C312.275 27.4494 312.317 27.3666 312.423 27.3666C312.5 27.3666 312.566 27.2978 312.566 27.2135C312.566 27.0842 312.395 27.0603 311.475 27.0603C310.873 27.0603 310.36 27.0909 310.334 27.1285ZM305.355 27.5709C305.155 27.8495 305.149 28.6902 305.347 28.9379C305.687 29.3657 306.406 29.178 306.504 28.6358C306.572 28.2576 306.482 27.6422 306.336 27.4945C306.13 27.2857 305.527 27.3326 305.355 27.5709ZM311.805 28.9672C311.695 29.1202 311.769 29.4082 311.971 29.6079C312.506 30.1375 312.359 31.3357 311.757 31.3457C311.589 31.3485 311.595 31.3325 311.829 31.1702C312.043 31.0232 312.091 30.9279 312.109 30.6291C312.153 29.9199 311.533 29.6148 311.185 30.1744C310.764 30.8551 311.241 31.8749 311.897 31.6929C312.381 31.5586 312.708 30.7591 312.57 30.0488C312.483 29.5902 311.923 28.8021 311.805 28.9672ZM305.535 29.4938C305.561 29.6046 305.519 29.7764 305.431 29.9155C305.351 30.0444 305.303 30.1902 305.325 30.239C305.347 30.288 305.593 30.3279 305.874 30.3279C306.404 30.3279 306.524 30.2056 306.274 29.9195C306.214 29.8496 306.164 29.6831 306.164 29.5496C306.164 29.3294 306.132 29.3067 305.828 29.3067C305.537 29.3067 305.499 29.3311 305.535 29.4938ZM307.132 29.4801C306.838 29.6805 306.494 30.3516 306.562 30.5931C306.596 30.7178 306.664 30.7457 306.824 30.7013C307 30.6528 307.084 30.7001 307.26 30.9442C307.525 31.3137 307.889 31.3497 308.177 31.0353C308.339 30.8588 308.371 30.7417 308.371 30.3296C308.371 29.9032 308.341 29.7994 308.145 29.5712C307.877 29.2593 307.503 29.2256 307.132 29.4801ZM305.353 33.2835C305.395 33.3928 305.459 33.5076 305.495 33.5389C305.533 33.5702 305.545 33.6877 305.523 33.7999C305.489 33.9822 305.521 34.0042 305.824 34.0042C306.132 34.0042 306.164 33.9818 306.164 33.7612C306.164 33.6278 306.214 33.4614 306.274 33.3914C306.482 33.1523 306.384 33.085 305.83 33.085C305.305 33.085 305.281 33.0952 305.353 33.2835ZM305.609 34.2339C305.591 34.3041 305.583 37.0267 305.593 40.2841L305.613 46.2067L305.87 46.2067L306.128 46.2067L306.146 40.2396C306.162 35.5336 306.146 34.2551 306.072 34.1909C305.93 34.0653 305.649 34.0914 305.609 34.2339ZM305.529 46.587C305.557 46.7388 305.519 46.891 305.413 47.0465L305.255 47.279L305.87 47.279L306.484 47.279L306.324 47.0428C306.236 46.9128 306.164 46.7059 306.164 46.5831C306.164 46.3859 306.124 46.3599 305.824 46.3599C305.511 46.3599 305.489 46.3766 305.529 46.587ZM305.325 47.6055C305.287 47.8632 305.133 53.9271 305.133 55.1163L305.135 55.8566L305.88 55.8566L306.628 55.8566L306.572 53.9931C306.542 52.9681 306.494 51.1176 306.466 49.8807C306.438 48.6439 306.392 47.5829 306.366 47.5228C306.338 47.4627 306.102 47.4039 305.838 47.3921C305.393 47.3721 305.357 47.3865 305.325 47.6055ZM304.965 56.0238C304.937 56.063 304.913 56.1561 304.913 56.2311C304.913 56.3377 305.123 56.3672 305.874 56.3672C306.752 56.3672 306.836 56.3514 306.812 56.1886C306.792 56.0321 306.678 56.0063 305.902 55.9813C305.415 55.9657 304.993 55.9848 304.965 56.0238ZM304.767 56.5715C304.767 56.635 305.185 56.6735 305.874 56.6735C306.594 56.6735 306.966 56.6379 306.938 56.5715C306.91 56.511 306.458 56.4694 305.828 56.4694C305.169 56.4694 304.767 56.5081 304.767 56.5715ZM304.669 56.8414C304.641 56.8802 304.619 56.9732 304.619 57.048C304.619 57.1562 304.877 57.1841 305.874 57.1841C307.032 57.1841 307.13 57.17 307.108 57.0055C307.086 56.8455 306.958 56.8239 305.902 56.7987C305.253 56.7835 304.697 56.8026 304.669 56.8414ZM304.739 57.9246C304.717 58.2755 304.681 59.2176 304.661 60.0178L304.621 61.473L305.844 61.473L307.066 61.473L307.034 59.5029C307.016 58.4195 306.976 57.4774 306.946 57.4096C306.908 57.3225 306.58 57.2863 305.834 57.2863L304.777 57.2863L304.739 57.9246Z" fill="white"/>
<path d="M19.3887 20.0221C19.6885 19.0267 20.8878 17.0363 23.2863 17.0363" stroke="#4D0D14" stroke-width="1.46379"/>
<path d="M274.637 20.0221C274.937 19.0267 276.136 17.0363 278.534 17.0363" stroke="#4D0D14" stroke-width="1.46379"/>
<path d="M48.2712 20.0221C47.9714 19.0267 46.7721 17.0363 44.3735 17.0363" stroke="#4D0D14" stroke-width="1.46379"/>
<path d="M302.52 19.8473C302.22 18.8519 301.021 16.8615 298.622 16.8615" stroke="#4D0D14" stroke-width="1.46379"/>
<path d="M91.7783 29.4924C92.8093 32.7027 92.9768 33.8742 92.3452 36.1814" stroke="white" stroke-width="1.46379"/>
<path d="M172.189 22.5855C171.456 18.605 167.191 15.8998 162.661 16.5431C158.131 17.1864 155.053 20.9348 155.785 24.9152C156.517 28.8957 160.783 31.6009 165.312 30.9576C169.842 30.3142 172.921 26.5659 172.189 22.5855Z" fill="white"/>
<path d="M159.749 15.9553C164.278 15.312 167.289 15.9614 168.021 19.9417C168.754 23.9222 165.675 27.6704 161.145 28.3138C156.615 28.9571 155.988 26.9677 155.256 22.9873C154.524 19.007 155.219 16.5987 159.749 15.9553Z" fill="white"/>
<path d="M15.7224 30.2702C15.5801 30.4952 15.3821 30.5966 15.1918 30.7738C15.0692 30.8878 15.1843 31.1038 15.0538 31.2399C14.7422 31.5652 14.6342 31.9885 15.1493 32.0512C15.6278 32.1095 15.9736 32.2844 16.4652 32.2844C16.9259 32.2844 17.3563 32.3682 17.8235 32.3682C18.2056 32.3682 18.5876 32.3682 18.9696 32.3682C19.4124 32.3682 20.1441 32.3551 20.5403 32.2005C20.979 32.0291 21.5729 32.0881 22.0472 32.014C22.6208 31.9244 23.1527 31.6969 23.7238 31.6969C24.0882 31.6969 24.5191 31.4546 24.8911 31.3799C25.3318 31.2914 25.8751 31.3611 26.3236 31.3611C27.6043 31.3611 28.8847 31.3611 30.1653 31.3611C30.6716 31.3611 30.9071 30.9714 31.3644 30.9415C31.5917 30.9268 32.2137 30.6976 32.3194 30.5219C32.6918 29.9039 31.8963 29.6827 31.3856 29.6827" stroke="white" stroke-width="2.92758" stroke-linecap="round"/>
<path d="M15.7224 30.446C15.5801 30.671 15.3821 30.7724 15.1918 30.9496C15.0692 31.0636 15.1843 31.2796 15.0538 31.4157C14.7422 31.741 14.6342 32.1643 15.1493 32.227C15.6278 32.2853 15.9736 32.4602 16.4652 32.4602C16.9259 32.4602 17.3563 32.544 17.8235 32.544C18.2056 32.544 18.5876 32.544 18.9696 32.544C19.4124 32.544 20.1441 32.5308 20.5403 32.3763C20.979 32.2049 21.5729 32.2639 22.0472 32.1897C22.6208 32.1002 23.1527 31.8727 23.7238 31.8727C24.0882 31.8727 24.5191 31.6303 24.8911 31.5557C25.3318 31.4672 25.8751 31.5369 26.3236 31.5369C27.6043 31.5369 28.8847 31.5369 30.1653 31.5369C30.6716 31.5369 30.9071 31.1472 31.3644 31.1173C31.5917 31.1026 32.2137 30.8733 32.3194 30.6977C32.6918 30.0796 31.8963 29.8585 31.3856 29.8585" stroke="white" stroke-width="1.95172" stroke-linecap="round"/>
<path d="M15.6914 31.0001L15.6914 29.5072L31.0823 28.8925L31.0823 30.3854L24.3863 30.3854L15.6914 31.0001Z" fill="white"/>
<path d="M15.7342 25.7396C15.5485 25.9386 15.333 26.0073 15.1097 26.1517C14.9659 26.2446 15.0352 26.4754 14.8791 26.5888C14.5064 26.8597 14.314 27.2594 14.8081 27.402C15.267 27.5345 15.5717 27.7608 16.0553 27.838C16.5087 27.9103 16.915 28.0605 17.3747 28.1339C17.7506 28.194 18.1265 28.2539 18.5024 28.3139C18.938 28.3835 19.6606 28.4855 20.0818 28.3954C20.5485 28.2958 21.1208 28.4471 21.6023 28.4486C22.1852 28.4506 22.7548 28.3104 23.3167 28.4002C23.6751 28.4574 24.1484 28.2867 24.5296 28.2716C24.9813 28.2537 25.5016 28.4077 25.9429 28.4781C27.2028 28.6794 28.4629 28.8805 29.7227 29.0816C30.221 29.1612 30.5318 28.8145 30.9878 28.8572C31.2144 28.8782 31.8731 28.7504 32.013 28.5942C32.5051 28.0447 31.7673 27.7022 31.2648 27.6219" stroke="white" stroke-width="2.92758" stroke-linecap="round"/>
<path d="M15.7342 25.9156C15.5485 26.1146 15.333 26.1833 15.1097 26.3277C14.9659 26.4206 15.0352 26.6514 14.8791 26.7649C14.5064 27.0357 14.314 27.4354 14.8081 27.578C15.267 27.7105 15.5717 27.9369 16.0553 28.014C16.5087 28.0863 16.915 28.2365 17.3747 28.3099C17.7506 28.37 18.1265 28.4299 18.5024 28.4899C18.938 28.5595 19.6606 28.6615 20.0818 28.5714C20.5485 28.4719 21.1208 28.6231 21.6023 28.6247C22.1852 28.6266 22.7548 28.4864 23.3167 28.5762C23.6751 28.6334 24.1484 28.4627 24.5296 28.4476C24.9813 28.4297 25.5016 28.5837 25.9429 28.6542C27.2028 28.8554 28.4629 29.0566 29.7227 29.2577C30.221 29.3372 30.5318 28.9905 30.9878 29.0332C31.2144 29.0543 31.8731 28.9264 32.013 28.7703C32.5051 28.2207 31.7673 27.8782 31.2648 27.7979" stroke="white" stroke-width="1.95172" stroke-linecap="round"/>
<path d="M90.4551 9.54136L90.4557 9.53985C90.4539 9.54766 90.4525 9.54897 90.4551 9.54136ZM90.4925 9.31941C90.4917 9.30411 90.4897 9.28732 90.4857 9.26996C90.4807 9.24767 90.4671 9.19925 90.4247 9.15116C90.373 9.0923 90.2868 9.04553 90.1803 9.04553C90.1207 9.04553 90.0755 9.0616 90.0656 9.06522L90.0648 9.06549C90.048 9.07149 90.0346 9.07773 90.027 9.08136C90.0116 9.08891 89.998 9.09682 89.9888 9.10228C89.9692 9.11391 89.9472 9.12835 89.925 9.14329C89.8795 9.17389 89.8193 9.21643 89.7495 9.2667C89.6096 9.36742 89.4237 9.50502 89.2243 9.65475C89.0188 9.80359 88.8249 9.95817 88.6774 10.0865C88.6038 10.1506 88.5387 10.2108 88.4887 10.2621C88.4681 10.2833 88.4479 10.3052 88.4299 10.3268C88.3508 10.3247 88.2682 10.3437 88.1945 10.3923C88.0971 10.4566 88.0531 10.5476 88.0406 10.6304C88.0398 10.6318 88.039 10.6333 88.038 10.6349C88.0262 10.6543 88.007 10.682 87.9798 10.7165C87.9258 10.7849 87.8505 10.8674 87.7665 10.9461C87.6154 11.0848 87.4995 11.22 87.4187 11.4074C87.3422 11.5857 87.3042 11.7963 87.2744 12.0738L87.2744 12.0753L87.2742 12.0767C87.2558 12.2699 87.2466 12.4742 87.2482 12.6507C87.2496 12.8142 87.26 12.9859 87.2954 13.0973C87.3118 13.153 87.329 13.2097 87.3474 13.2543C87.3566 13.2768 87.3711 13.3087 87.3933 13.3403C87.4127 13.368 87.4605 13.4284 87.5518 13.4623C87.6616 13.5029 87.7643 13.4814 87.8303 13.451C87.8858 13.4254 87.9232 13.3909 87.942 13.3725C87.9532 13.3615 87.9644 13.3493 87.9754 13.3367C87.9952 13.3541 88.0172 13.3738 88.0416 13.396C87.989 13.4257 87.939 13.4686 87.9036 13.5306C87.8367 13.6484 87.8561 13.7675 87.9008 13.8535C87.9438 13.9361 88.0144 14 88.0877 14.0431L88.0963 14.0481L88.1053 14.0526C88.2001 14.1003 88.32 14.1206 88.4085 14.1305C88.5081 14.1416 88.619 14.1448 88.7219 14.1384L88.7323 14.1377L88.7429 14.1364C88.7711 14.1329 88.8279 14.1353 88.902 14.1524C88.9698 14.168 89.0274 14.1901 89.0615 14.208C89.1599 14.2705 89.2822 14.3335 89.4291 14.3447C89.5732 14.3557 89.6942 14.3143 89.7931 14.2605C89.8077 14.271 89.8263 14.2855 89.8499 14.3055C89.9011 14.349 89.9646 14.4093 90.0474 14.4921C90.1047 14.5513 90.1491 14.6002 90.1829 14.6397C90.0915 14.7371 90.0564 14.8686 90.0703 14.9791L90.0721 14.9933L90.0755 15.0072C90.1013 15.1092 90.1771 15.181 90.2225 15.2189C90.2762 15.2639 90.341 15.3047 90.4071 15.3407C90.5401 15.413 90.7092 15.4822 90.8881 15.5386C91.2033 15.6413 91.5906 15.7889 91.7408 15.8682L91.7444 15.8701L91.748 15.8719C91.8521 15.9234 91.9642 15.9704 92.0674 16.0007C92.1171 16.0153 92.1733 16.0285 92.2307 16.0344C92.302 16.1744 92.4493 16.2541 92.5811 16.304C92.739 16.3638 92.9568 16.4118 93.2351 16.4588C93.662 16.5338 94.327 16.598 94.714 16.598C94.9678 16.598 95.1723 16.5883 95.3258 16.5558C95.4238 16.5351 95.5299 16.4985 95.6141 16.4306C95.6998 16.4719 95.8016 16.4999 95.9241 16.4913C96.072 16.4808 96.2101 16.4173 96.3308 16.3566L96.3326 16.3558L96.3342 16.3549C96.4516 16.2942 96.724 16.2466 97.2251 16.2671L97.2279 16.2672L97.2305 16.2673C97.4452 16.2726 97.6509 16.2675 97.813 16.2515C97.8925 16.2437 97.9721 16.2322 98.0404 16.2146C98.0742 16.2059 98.1156 16.193 98.1562 16.1732C98.1823 16.1603 98.2299 16.1342 98.2707 16.0883C98.2757 16.087 98.2819 16.0858 98.2887 16.0847C98.3023 16.0826 98.3171 16.0814 98.3315 16.0814C98.4574 16.0814 98.5755 16.047 98.6699 15.9962C98.7204 15.969 98.7728 15.9324 98.8176 15.886C98.82 15.8872 98.8224 15.8885 98.8248 15.8897L98.8266 15.8907L98.8286 15.8917C98.9235 15.9394 99.0256 15.9809 99.118 16.0041C99.1616 16.015 99.2229 16.0272 99.2889 16.0251C99.3407 16.0234 99.5044 16.0075 99.5861 15.8633L99.5917 15.8535L99.5963 15.8434C99.6281 15.7739 99.6379 15.6871 99.6411 15.6212C99.6423 15.5942 99.6427 15.5656 99.6421 15.5358L99.6906 15.6427L99.9683 15.5465C100.754 15.2743 101.172 15.067 101.417 14.8997L101.42 14.8974L101.423 14.8951C101.618 14.7541 101.905 14.5624 102.049 14.4744L102.051 14.4733L102.053 14.4722C102.192 14.3848 102.306 14.2378 102.396 14.0946C102.492 13.9426 102.581 13.7601 102.655 13.5683L102.657 13.5639L102.659 13.5593C102.715 13.3966 102.782 13.232 102.845 13.099C102.877 13.0323 102.906 12.9762 102.932 12.9336C102.955 12.8949 102.968 12.8775 102.971 12.8735C102.972 12.8725 102.972 12.8723 102.972 12.8727L102.976 12.8687L102.98 12.8645C103.049 12.7896 103.114 12.695 103.133 12.5886C103.141 12.5469 103.142 12.4971 103.128 12.4448C103.178 12.4236 103.228 12.3985 103.277 12.3702C103.409 12.2945 103.55 12.196 103.609 12.0187C103.658 11.8719 103.636 11.7016 103.609 11.5268C103.569 11.253 103.445 10.8598 103.33 10.6144L103.329 10.6124L103.328 10.6104C103.262 10.4731 103.154 10.3287 103.043 10.2057C102.933 10.0836 102.804 9.96505 102.683 9.88489C102.41 9.69891 101.926 9.56684 101.485 9.51298L101.483 9.51266L101.48 9.51238C101.081 9.46984 100.249 9.41768 99.6291 9.40719C99.3289 9.40211 99.0388 9.38941 98.8158 9.37317C98.7036 9.36502 98.6121 9.35622 98.5461 9.34756C98.5129 9.34319 98.4902 9.33937 98.4764 9.33655C98.4766 9.33658 98.4762 9.33649 98.4764 9.33655C98.2579 9.24878 97.9751 9.33504 97.8871 9.55444C97.8479 9.63536 97.8419 9.72021 97.8495 9.78718C97.8571 9.85461 97.8853 9.96091 97.9783 10.0428C98.035 10.0925 98.102 10.1183 98.1406 10.1313C98.1863 10.1467 98.2351 10.158 98.2817 10.1664C98.3752 10.1831 98.4836 10.1923 98.5897 10.1923C98.7036 10.1923 98.7784 10.2321 98.826 10.302L98.8296 10.3073L98.8336 10.3126C98.8575 10.3442 98.8945 10.4149 98.9315 10.5153C98.9669 10.6109 98.9953 10.7136 99.01 10.7965L99.0113 10.8031L99.0128 10.8096C99.0296 10.8801 99.0384 10.9892 99.0344 11.1093C99.0304 11.2291 99.0144 11.3394 98.9929 11.4117L98.9899 11.4211L98.9879 11.4307C98.9765 11.4854 98.9653 11.5242 98.9551 11.5515C98.7756 11.5304 98.4368 11.5136 98.1592 11.5048C97.9821 11.4942 97.8186 11.4935 97.6948 11.5045C97.6399 11.5094 97.5701 11.5184 97.5069 11.5394C97.4644 11.4334 97.3624 11.3866 97.3258 11.3722C97.2749 11.3524 97.2233 11.3441 97.1895 11.3396C97.1512 11.3345 97.1086 11.3312 97.0644 11.3287C96.9761 11.3238 96.8595 11.3211 96.7168 11.3186L96.7136 11.3185L96.7106 11.3185C96.5583 11.3185 96.417 11.3088 96.3156 11.2938C96.2861 11.2894 96.2631 11.285 96.2463 11.2812C96.2115 11.2486 96.1689 11.2218 96.1194 11.2034C96.0382 11.1731 95.9583 11.1722 95.8949 11.1809C95.7764 11.1972 95.6706 11.2525 95.5863 11.3123C95.5835 11.3139 95.5677 11.3228 95.5321 11.337C95.4947 11.3519 95.4466 11.3684 95.3898 11.385C95.2771 11.4181 95.1435 11.448 95.0198 11.4663C94.9437 11.4761 94.8857 11.4832 94.8403 11.4877C94.8391 11.4782 94.8379 11.468 94.8367 11.457C94.8285 11.3474 94.8029 11.241 94.7658 11.1538C94.747 11.1101 94.7216 11.062 94.6868 11.0187C94.6618 10.9875 94.5885 10.9028 94.4557 10.8794L94.451 10.8785L94.4462 10.8778C94.2805 10.8535 94.1673 10.938 94.1192 10.9873C94.0702 11.0374 94.0406 11.095 94.022 11.1383C93.9834 11.2292 93.959 11.3413 93.9459 11.4511L93.9459 11.4524C93.9289 11.6006 93.9077 11.6286 93.8955 11.6422C93.8733 11.6665 93.8209 11.7032 93.6262 11.7865C93.3454 11.8917 93.2437 11.884 93.2061 11.8734C93.102 11.8204 92.9838 11.7987 92.8889 11.791C92.7803 11.7822 92.6612 11.7882 92.5561 11.8134C92.5493 11.815 92.5411 11.8161 92.5323 11.8162C92.5259 11.8163 92.5201 11.8159 92.5151 11.8152C92.4535 11.759 92.3796 11.7306 92.3428 11.7176C92.2818 11.6957 92.2127 11.6795 92.1441 11.6673C92.0054 11.6426 91.8355 11.6285 91.6602 11.6285L91.6568 11.6285L91.6536 11.6285C91.5193 11.6311 91.4341 11.6312 91.3726 11.6264C91.3254 11.6227 91.3084 11.6172 91.3048 11.6158C91.3016 11.6133 91.293 11.6054 91.278 11.5851C91.2508 11.5479 91.2193 11.4926 91.1679 11.3972L91.1653 11.3923L91.1625 11.3875C91.0594 11.2144 90.9734 10.8754 90.9734 10.6521C90.9734 10.4704 90.9894 10.3859 91.0106 10.3376C91.025 10.3051 91.0462 10.2763 91.1249 10.2289L91.1367 10.2219L91.1475 10.2138C91.1699 10.1976 91.2421 10.1634 91.363 10.1333C91.4765 10.1051 91.5986 10.089 91.6954 10.089C91.9215 10.089 92.3182 10.1464 92.5493 10.2259L92.5553 10.2279L92.5615 10.2298C92.7712 10.2929 92.954 10.3447 93.1093 10.3447C93.2017 10.3447 93.2888 10.3275 93.3718 10.289C93.4477 10.2537 93.5067 10.2064 93.5519 10.1667C93.6148 10.1114 93.6738 10.046 93.719 9.98093C93.7552 9.92889 93.8157 9.83116 93.8157 9.72225C93.8157 9.66682 93.8061 9.59656 93.768 9.52963C93.7322 9.46641 93.642 9.36595 93.4825 9.35624C93.4735 9.3548 93.4597 9.35235 93.4404 9.34872C93.4002 9.3412 93.3446 9.33003 93.276 9.31593C93.1397 9.28786 92.9592 9.24947 92.7656 9.20816C92.5427 9.15921 92.3354 9.12782 92.1653 9.11609C92.0806 9.11024 91.9986 9.1088 91.925 9.11428C91.8627 9.11897 91.7639 9.13109 91.6774 9.17863L91.6762 9.17926C91.6692 9.18139 91.6584 9.18444 91.6428 9.18822C91.5986 9.19897 91.5351 9.21121 91.4541 9.2241C91.294 9.24959 91.0855 9.27451 90.8679 9.29471C90.7094 9.30694 90.587 9.3153 90.4925 9.31941ZM89.8935 9.33165C89.8935 9.33189 89.8935 9.33216 89.8935 9.33242C89.8937 9.3294 89.8939 9.32893 89.8935 9.33165ZM98.8673 14.8303C98.8671 14.8301 98.8673 14.8303 98.8673 14.8303ZM94.8563 11.5817C94.8565 11.582 94.8563 11.5817 94.8563 11.5817ZM90.304 9.31907C90.2988 9.31837 90.2966 9.31782 90.2968 9.31774C90.2968 9.31763 90.2996 9.31798 90.304 9.31907Z" fill="white"/>
<path d="M98.4764 9.33655C98.4902 9.33937 98.5129 9.34319 98.5461 9.34756C98.6121 9.35622 98.7036 9.36502 98.8158 9.37317C99.0388 9.38941 99.3289 9.40211 99.6291 9.40719C100.249 9.41768 101.081 9.46984 101.48 9.51238L101.483 9.51266L101.485 9.51298C101.926 9.56684 102.41 9.69891 102.683 9.88489C102.804 9.96505 102.933 10.0836 103.043 10.2057C103.154 10.3287 103.262 10.4731 103.328 10.6104L103.329 10.6124L103.33 10.6144C103.445 10.8598 103.569 11.253 103.609 11.5268C103.636 11.7016 103.658 11.8719 103.609 12.0187C103.55 12.196 103.409 12.2945 103.277 12.3702C103.228 12.3985 103.178 12.4236 103.128 12.4448C103.142 12.4971 103.141 12.5469 103.133 12.5886C103.114 12.695 103.049 12.7896 102.98 12.8645L102.976 12.8687L102.972 12.8727C102.972 12.8723 102.972 12.8725 102.971 12.8735C102.968 12.8775 102.955 12.8949 102.932 12.9336C102.906 12.9762 102.877 13.0323 102.845 13.099C102.782 13.232 102.715 13.3966 102.659 13.5593L102.657 13.5639L102.655 13.5683C102.581 13.7601 102.492 13.9426 102.396 14.0946C102.306 14.2378 102.192 14.3848 102.053 14.4722L102.051 14.4733L102.049 14.4744C101.905 14.5624 101.618 14.7541 101.423 14.8951L101.42 14.8974L101.417 14.8997C101.172 15.067 100.754 15.2743 99.9683 15.5465L99.6906 15.6427L99.6421 15.5358C99.6427 15.5656 99.6423 15.5942 99.6411 15.6212C99.6379 15.6871 99.6281 15.7739 99.5963 15.8434L99.5917 15.8535L99.5861 15.8633C99.5044 16.0075 99.3407 16.0234 99.2889 16.0251C99.2229 16.0272 99.1616 16.015 99.118 16.0041C99.0256 15.9809 98.9235 15.9394 98.8286 15.8917L98.8266 15.8907L98.8248 15.8897C98.8224 15.8885 98.82 15.8872 98.8176 15.886C98.7728 15.9324 98.7204 15.969 98.6699 15.9962C98.5755 16.047 98.4574 16.0814 98.3315 16.0814C98.3171 16.0814 98.3023 16.0826 98.2887 16.0847C98.2819 16.0858 98.2757 16.087 98.2707 16.0883C98.2299 16.1342 98.1823 16.1603 98.1562 16.1732C98.1156 16.193 98.0742 16.2059 98.0404 16.2146C97.9721 16.2322 97.8925 16.2437 97.813 16.2515C97.6509 16.2675 97.4452 16.2726 97.2305 16.2673L97.2279 16.2672L97.2251 16.2671C96.724 16.2466 96.4516 16.2942 96.3342 16.3549L96.3326 16.3558L96.3308 16.3566C96.2101 16.4173 96.072 16.4808 95.9241 16.4913C95.8016 16.4999 95.6998 16.4719 95.6141 16.4306C95.5299 16.4985 95.4238 16.5351 95.3258 16.5558C95.1723 16.5883 94.9678 16.598 94.714 16.598C94.327 16.598 93.662 16.5338 93.2351 16.4588C92.9568 16.4118 92.739 16.3638 92.5811 16.304C92.4493 16.2541 92.302 16.1744 92.2307 16.0344C92.1733 16.0285 92.1171 16.0153 92.0674 16.0007C91.9642 15.9704 91.8521 15.9234 91.748 15.8719L91.7444 15.8701L91.7408 15.8682C91.5906 15.7889 91.2033 15.6413 90.8881 15.5386C90.7092 15.4822 90.5401 15.413 90.4071 15.3407C90.341 15.3047 90.2762 15.2639 90.2225 15.2189C90.1771 15.181 90.1013 15.1092 90.0755 15.0072L90.0721 14.9933L90.0703 14.9791C90.0564 14.8686 90.0915 14.7371 90.1829 14.6397C90.1491 14.6002 90.1047 14.5513 90.0474 14.4921C89.9646 14.4093 89.9011 14.349 89.8499 14.3055C89.8263 14.2855 89.8077 14.271 89.7931 14.2605C89.6942 14.3143 89.5732 14.3557 89.4291 14.3447C89.2822 14.3335 89.1599 14.2705 89.0615 14.208C89.0274 14.1901 88.9698 14.168 88.902 14.1524C88.8279 14.1353 88.7711 14.1329 88.7429 14.1364L88.7323 14.1377L88.7219 14.1384C88.619 14.1448 88.5081 14.1416 88.4085 14.1305C88.32 14.1206 88.2001 14.1003 88.1053 14.0526L88.0963 14.0481L88.0877 14.0431C88.0144 14 87.9438 13.9361 87.9008 13.8535C87.8561 13.7675 87.8367 13.6484 87.9036 13.5306C87.939 13.4686 87.989 13.4257 88.0416 13.396C88.0172 13.3738 87.9952 13.3541 87.9754 13.3367C87.9644 13.3493 87.9532 13.3615 87.942 13.3725C87.9232 13.3909 87.8858 13.4254 87.8303 13.451C87.7643 13.4814 87.6616 13.5029 87.5518 13.4623C87.4605 13.4284 87.4127 13.368 87.3933 13.3403C87.3711 13.3087 87.3566 13.2768 87.3474 13.2543C87.329 13.2097 87.3118 13.153 87.2954 13.0973C87.26 12.9859 87.2496 12.8142 87.2482 12.6507C87.2466 12.4742 87.2558 12.2699 87.2742 12.0767L87.2744 12.0753L87.2744 12.0738C87.3042 11.7963 87.3422 11.5857 87.4187 11.4074C87.4995 11.22 87.6154 11.0848 87.7665 10.9461C87.8505 10.8674 87.9258 10.7849 87.9798 10.7165C88.007 10.682 88.0262 10.6543 88.038 10.6349C88.039 10.6333 88.0398 10.6318 88.0406 10.6304C88.0531 10.5476 88.0971 10.4566 88.1945 10.3923C88.2682 10.3437 88.3508 10.3247 88.4299 10.3268C88.4479 10.3052 88.4681 10.2833 88.4887 10.2621C88.5387 10.2108 88.6038 10.1506 88.6774 10.0865C88.8249 9.95817 89.0188 9.80359 89.2243 9.65475C89.4237 9.50502 89.6096 9.36742 89.7495 9.2667C89.8193 9.21643 89.8795 9.17389 89.925 9.14329C89.9472 9.12835 89.9692 9.11391 89.9888 9.10228C89.998 9.09682 90.0116 9.08891 90.027 9.08136C90.0346 9.07773 90.048 9.07149 90.0648 9.06549L90.0656 9.06522C90.0755 9.0616 90.1207 9.04553 90.1803 9.04553C90.2868 9.04553 90.373 9.0923 90.4247 9.15116C90.4671 9.19925 90.4807 9.24767 90.4857 9.26996C90.4897 9.28732 90.4917 9.30411 90.4925 9.31941C90.587 9.3153 90.7094 9.30694 90.8679 9.29471C91.0855 9.27451 91.294 9.24959 91.4541 9.2241C91.5351 9.21121 91.5986 9.19897 91.6428 9.18822C91.6584 9.18444 91.6692 9.18139 91.6762 9.17926L91.6774 9.17863C91.7639 9.13109 91.8627 9.11897 91.925 9.11428C91.9986 9.1088 92.0806 9.11024 92.1653 9.11609C92.3354 9.12782 92.5427 9.15921 92.7656 9.20816C92.9592 9.24947 93.1397 9.28786 93.276 9.31593C93.3446 9.33003 93.4002 9.3412 93.4404 9.34872C93.4597 9.35235 93.4735 9.3548 93.4825 9.35624C93.642 9.36595 93.7322 9.46641 93.768 9.52963C93.8061 9.59656 93.8157 9.66682 93.8157 9.72225C93.8157 9.83116 93.7552 9.92889 93.719 9.98093C93.6738 10.046 93.6148 10.1114 93.5519 10.1667C93.5067 10.2064 93.4477 10.2537 93.3718 10.289C93.2888 10.3275 93.2017 10.3447 93.1093 10.3447C92.954 10.3447 92.7712 10.2929 92.5615 10.2298L92.5553 10.2279L92.5493 10.2259C92.3182 10.1464 91.9215 10.089 91.6954 10.089C91.5986 10.089 91.4765 10.1051 91.363 10.1333C91.2421 10.1634 91.1699 10.1976 91.1475 10.2138L91.1367 10.2219L91.1249 10.2289C91.0462 10.2763 91.025 10.3051 91.0106 10.3376C90.9894 10.3859 90.9734 10.4704 90.9734 10.6521C90.9734 10.8754 91.0594 11.2144 91.1625 11.3875L91.1653 11.3923L91.1679 11.3972C91.2193 11.4926 91.2508 11.5479 91.278 11.5851C91.293 11.6054 91.3016 11.6133 91.3048 11.6158M98.4764 9.33655C98.4762 9.33649 98.4766 9.33658 98.4764 9.33655ZM98.4764 9.33655C98.2579 9.24878 97.9751 9.33504 97.8871 9.55444C97.8479 9.63536 97.8419 9.72021 97.8495 9.78718C97.8571 9.85461 97.8853 9.96091 97.9783 10.0428C98.035 10.0925 98.102 10.1183 98.1406 10.1313C98.1863 10.1467 98.2351 10.158 98.2817 10.1664C98.3752 10.1831 98.4836 10.1923 98.5897 10.1923C98.7036 10.1923 98.7784 10.2321 98.826 10.302L98.8296 10.3073L98.8336 10.3126C98.8575 10.3442 98.8945 10.4149 98.9315 10.5153C98.9669 10.6109 98.9953 10.7136 99.01 10.7965L99.0113 10.8031L99.0128 10.8096C99.0296 10.8801 99.0384 10.9892 99.0344 11.1093C99.0304 11.2291 99.0144 11.3394 98.9929 11.4117L98.9899 11.4211L98.9879 11.4307C98.9765 11.4854 98.9653 11.5242 98.9551 11.5515C98.7756 11.5304 98.4368 11.5136 98.1592 11.5048C97.9821 11.4942 97.8186 11.4935 97.6948 11.5045C97.6399 11.5094 97.5701 11.5184 97.5069 11.5394C97.4644 11.4334 97.3624 11.3866 97.3258 11.3722C97.2749 11.3524 97.2233 11.3441 97.1895 11.3396C97.1512 11.3345 97.1086 11.3312 97.0644 11.3287C96.9761 11.3238 96.8595 11.3211 96.7168 11.3186L96.7136 11.3185L96.7106 11.3185C96.5583 11.3185 96.417 11.3088 96.3156 11.2938C96.2861 11.2894 96.2631 11.285 96.2463 11.2812C96.2115 11.2486 96.1689 11.2218 96.1194 11.2034C96.0382 11.1731 95.9583 11.1722 95.8949 11.1809C95.7764 11.1972 95.6706 11.2525 95.5863 11.3123C95.5835 11.3139 95.5677 11.3228 95.5321 11.337C95.4947 11.3519 95.4466 11.3684 95.3898 11.385C95.2771 11.4181 95.1435 11.448 95.0198 11.4663C94.9437 11.4761 94.8857 11.4832 94.8403 11.4877C94.8391 11.4782 94.8379 11.468 94.8367 11.457C94.8285 11.3474 94.8029 11.241 94.7658 11.1538C94.747 11.1101 94.7216 11.062 94.6868 11.0187C94.6618 10.9875 94.5885 10.9028 94.4557 10.8794L94.451 10.8785L94.4462 10.8778C94.2805 10.8535 94.1673 10.938 94.1192 10.9873C94.0702 11.0374 94.0406 11.095 94.022 11.1383C93.9834 11.2292 93.959 11.3413 93.9459 11.4511L93.9459 11.4524C93.9289 11.6006 93.9077 11.6286 93.8955 11.6422C93.8733 11.6665 93.8209 11.7032 93.6262 11.7865C93.3454 11.8917 93.2437 11.884 93.2061 11.8734C93.102 11.8204 92.9838 11.7987 92.8889 11.791C92.7803 11.7822 92.6612 11.7882 92.5561 11.8134C92.5493 11.815 92.5411 11.8161 92.5323 11.8162C92.5259 11.8163 92.5201 11.8159 92.5151 11.8152C92.4535 11.759 92.3796 11.7306 92.3428 11.7176C92.2818 11.6957 92.2127 11.6795 92.1441 11.6673C92.0054 11.6426 91.8355 11.6285 91.6602 11.6285L91.6568 11.6285L91.6536 11.6285C91.5193 11.6311 91.4341 11.6312 91.3726 11.6264C91.3254 11.6227 91.3084 11.6172 91.3048 11.6158M91.3048 11.6158C91.3056 11.6164 91.3062 11.6167 91.3062 11.6167M88.047 10.6186C88.047 10.6186 88.0467 10.6188 88.0465 10.6193M88.0713 13.2165C88.0713 13.2165 88.0711 13.2167 88.0707 13.2171M87.913 13.0791C87.913 13.0791 87.9128 13.0789 87.9126 13.0783M88.3276 13.8543C88.3276 13.8543 88.3278 13.8542 88.3284 13.8541M94.5887 11.3126C94.5887 11.3126 94.5885 11.3128 94.5883 11.3133M91.686 9.17591C91.6862 9.17591 91.6852 9.1763 91.6832 9.177M93.4919 9.35761C93.4919 9.35764 93.4907 9.35752 93.4883 9.35715M96.2153 11.2728C96.2153 11.2728 96.2155 11.2729 96.2161 11.273M98.4664 9.33421C98.4664 9.33419 98.4676 9.33446 98.4696 9.33504M92.1975 15.9437C92.1975 15.9436 92.1977 15.9442 92.1981 15.9454M90.4551 9.54136L90.4557 9.53985C90.4539 9.54766 90.4525 9.54897 90.4551 9.54136ZM89.8935 9.33165C89.8935 9.33189 89.8935 9.33216 89.8935 9.33242C89.8937 9.3294 89.8939 9.32893 89.8935 9.33165ZM98.8673 14.8303C98.8673 14.8303 98.8671 14.8301 98.8673 14.8303ZM94.8563 11.5817C94.8563 11.5817 94.8565 11.582 94.8563 11.5817ZM90.304 9.31907C90.2988 9.31837 90.2966 9.31782 90.2968 9.31774C90.2968 9.31763 90.2996 9.31798 90.304 9.31907Z" stroke="white" stroke-width="0.975861"/>
<path d="M246.618 32.6484C246.47 32.4659 246.29 32.3167 246.216 32.3167C246.128 32.3167 245.951 32.4659 245.817 32.6319C245.623 32.8808 245.237 32.9969 244.064 33.1297C242.786 33.2625 242.535 33.2625 242.343 33.0468C242.223 32.914 241.985 32.8311 241.823 32.8808C241.659 32.9307 241.495 33.1132 241.451 33.2791C241.407 33.4781 241.183 33.6441 240.858 33.727C240.576 33.7934 239.878 34.0258 239.298 34.2415C238.735 34.4571 238.065 34.6231 237.827 34.5899C237.502 34.5732 237.338 34.6563 237.234 34.9217C237.146 35.1209 236.76 35.5192 236.374 35.7846C235.839 36.1828 235.661 36.3986 235.661 36.7139C235.661 36.9461 235.765 37.1618 235.883 37.2117C236.002 37.2614 236.314 37.1785 236.552 37.0457C236.804 36.9129 237.026 36.7968 237.072 36.7968C237.116 36.7968 237.146 37.0292 237.146 37.2946C237.146 37.6762 237.012 37.9086 236.61 38.2571L236.09 38.7051L236.18 41.5258L237.592 41.6089C237.592 40.3312 237.665 39.7835 237.769 39.5845C237.857 39.3688 238.035 39.1198 238.169 39.0037C238.303 38.8876 238.585 38.8045 238.823 38.788C239.075 38.788 239.386 38.9705 239.67 39.2858C240.056 39.7171 240.114 39.8998 240.114 40.6961L240.114 41.6089L241.971 41.5258C242.119 38.0247 242.135 37.9086 242.535 37.5269C242.786 37.278 243.114 37.1288 243.456 37.1288C243.798 37.1288 244.124 37.278 244.392 37.5269C244.777 37.9086 244.791 38.0247 244.865 39.7338L244.941 41.5258L247.018 41.6254C247.198 38.0911 247.212 38.0247 247.672 37.5933C247.983 37.2781 248.295 37.1288 248.653 37.1288C248.993 37.1288 249.321 37.278 249.588 37.5269C249.974 37.9086 249.988 38.0247 250.062 39.7338L250.136 41.5258L251.993 41.6089C251.993 40.3312 252.081 39.767 252.185 39.5346C252.275 39.3024 252.513 39.0536 252.705 38.954C252.884 38.8709 253.166 38.788 253.328 38.788C253.492 38.788 253.834 39.0204 254.072 39.2858C254.458 39.7171 254.518 39.8998 254.518 40.6961L254.518 41.6089L255.927 41.5258C256.001 38.7713 255.973 38.6055 255.705 38.4229C255.497 38.2736 255.407 38.0247 255.407 37.5933C255.407 37.0125 255.437 36.9793 255.705 37.1288C255.913 37.2449 256.077 37.2282 256.225 37.0956C256.358 36.9793 256.462 36.7471 256.446 36.5976C256.446 36.4318 256.225 36.1331 255.943 35.9339C255.645 35.7182 255.393 35.3698 255.363 35.1376C255.319 34.9052 255.185 34.6728 255.051 34.6064C254.917 34.5235 254.679 34.5567 254.518 34.6396C254.294 34.7724 253.864 34.6728 252.705 34.2249C251.859 33.9097 251.058 33.4948 250.924 33.3122C250.776 33.1297 250.626 32.9804 250.582 32.9804C250.538 32.9804 250.36 33.0633 250.182 33.1629C249.928 33.2957 249.455 33.2957 248.355 33.1629C247.212 33.0136 246.81 32.8975 246.618 32.6484Z" fill="white"/>
<path d="M16.2253 26.6917L16.1907 23.8783L23.7127 25.06L24.1103 26.692L16.2253 26.6917Z" fill="white"/>
</g>
<defs>
<clipPath id="clip0_48_8780">
<rect width="314.214" height="62" fill="white"/>
</clipPath>
</defs>
</svg>
