<svg width="21" height="20" viewBox="0 0 21 20" fill="none" xmlns="http://www.w3.org/2000/svg">
<path d="M0.00195312 10.002C0.00251636 12.3833 0.852424 14.6863 2.39892 16.4972C3.94541 18.308 6.08707 19.5078 8.43895 19.881V12.892H5.90195V10.002H8.44195V7.802C8.38587 7.28709 8.44385 6.76614 8.61177 6.27616C8.7797 5.78618 9.05345 5.33919 9.41359 4.96693C9.77373 4.59467 10.2114 4.30627 10.6956 4.12222C11.1797 3.93817 11.6985 3.86298 12.215 3.902C12.965 3.914 13.715 3.981 14.455 4.102V6.561H13.191C12.9761 6.53286 12.7577 6.55336 12.5519 6.62098C12.346 6.6886 12.158 6.80161 12.0017 6.95166C11.8454 7.10172 11.7249 7.28497 11.6489 7.48789C11.573 7.69081 11.5436 7.9082 11.563 8.124V10.002H14.334L13.891 12.893H11.563V19.881C13.4506 19.5827 15.2132 18.7497 16.6421 17.4808C18.071 16.2118 19.1064 14.56 19.6257 12.7208C20.145 10.8817 20.1264 8.93224 19.5721 7.10333C19.0179 5.27442 17.9512 3.64263 16.4983 2.40114C15.0455 1.15965 13.2673 0.360466 11.3743 0.0982009C9.48135 -0.164064 7.55287 0.121575 5.81721 0.9213C4.08154 1.72102 2.61137 3.00134 1.58076 4.61067C0.550147 6.22001 0.0022565 8.09095 0.00195312 10.002Z" fill="white"/>
</svg>
