<svg width="238" height="55" viewBox="0 0 238 55" fill="none" xmlns="http://www.w3.org/2000/svg">
<g clip-path="url(#clip0_320_2934)">
<path d="M37.7832 35.8912C44.2784 32.3148 49.203 29.59 49.6274 29.3784C50.9847 28.6541 52.3872 26.7379 49.6274 25.2497C48.7363 24.7817 43.9386 22.1412 37.7832 18.7368L29.2505 27.3774L37.7832 35.8912Z" fill="#FFD900"/>
<path d="M29.2502 27.3774L2.08008 54.835C2.71738 54.9198 3.43742 54.7502 4.28669 54.2822C6.0689 53.3043 24.9611 42.9587 37.7833 35.8931L29.2502 27.3774Z" fill="#F43249"/>
<path d="M29.2505 27.3774L37.7827 18.7788C37.7827 18.7788 6.198 1.49526 4.28656 0.475426C3.56745 0.0466125 2.76048 -0.0801672 2.03857 0.0466125L29.2505 27.3774Z" fill="#00EE76"/>
<path d="M29.2503 27.3774L2.03787 0.0470734C0.933406 0.302963 0 1.28131 0 3.28135V51.5993C0 53.4311 0.722367 54.7502 2.07971 54.8769L29.2498 27.3769L29.2503 27.3774Z" fill="#00D3FF"/>
<path d="M117.853 21.9273C112.972 21.9273 108.938 25.7153 108.938 30.9091C108.938 36.0604 112.929 39.8908 117.854 39.8908C122.778 39.8908 126.769 36.1028 126.769 30.9091C126.769 25.7153 122.778 21.9273 117.853 21.9273ZM117.853 36.3168C115.178 36.3168 112.845 34.0599 112.845 30.869C112.845 27.6338 115.18 25.4212 117.853 25.4212C120.527 25.4212 122.862 27.6338 122.862 30.869C122.862 34.0599 120.527 36.3168 117.853 36.3168ZM98.4522 21.9273C93.5277 21.9273 89.5365 25.7153 89.5365 30.9091C89.5365 36.0604 93.5277 39.8908 98.4522 39.8908C103.376 39.8908 107.367 36.1028 107.367 30.9091C107.367 25.7153 103.376 21.9273 98.4518 21.9273H98.4522ZM98.4522 36.3168C95.7766 36.3168 93.4435 34.0599 93.4435 30.869C93.4435 27.6338 95.7789 25.4212 98.4522 25.4212C101.127 25.4212 103.461 27.6338 103.461 30.869C103.461 34.0599 101.167 36.3168 98.4522 36.3168ZM75.3997 24.6945V28.4825H84.3991C84.1434 30.6108 83.4238 32.1857 82.3617 33.2508C81.0462 34.5698 79.0083 36.018 75.3997 36.018C69.8374 36.018 65.5511 31.5061 65.5511 25.9292C65.5511 20.3523 69.8397 15.7552 75.3997 15.7552C78.4128 15.7552 80.5795 16.9475 82.1925 18.4805L84.8658 15.7976C82.615 13.6274 79.6019 11.9676 75.3997 11.9676C67.7995 11.9676 61.4312 18.2241 61.4312 25.8444C61.4312 33.4652 67.7995 39.7216 75.3997 39.7216C79.5173 39.7216 82.575 38.3602 85.0368 35.8045C87.5414 33.2932 88.3056 29.7592 88.3056 26.9076C88.3056 26.0141 88.2215 25.2049 88.0927 24.5235L75.3997 24.6945ZM169.732 27.6314C169.009 25.6305 166.718 21.9273 162.132 21.9273C157.545 21.9273 153.768 25.5461 153.768 30.9091C153.768 35.9313 157.545 39.8908 162.557 39.8908C166.632 39.8908 168.967 37.3795 169.943 35.9313L166.93 33.8884C165.91 35.379 164.552 36.3569 162.557 36.3569C160.561 36.3569 159.161 35.4633 158.268 33.632L170.112 28.6522L169.732 27.6314ZM157.674 30.655C157.59 27.2059 160.35 25.4188 162.301 25.4188C163.872 25.4188 165.146 26.1851 165.612 27.335L157.674 30.655ZM148.037 39.2956H151.944V12.9879H148.037V39.2956ZM141.671 23.9283H141.544C140.653 22.8632 138.997 21.9273 136.873 21.9273C132.415 21.9273 128.382 25.8868 128.382 30.9091C128.382 35.9313 132.457 39.8489 136.873 39.8489C138.995 39.8489 140.651 38.9125 141.544 37.805H141.671V39.0822C141.671 42.5313 139.844 44.3603 136.915 44.3603C134.538 44.3603 133.051 42.6157 132.457 41.1675L129.062 42.6157C130.037 44.9998 132.628 47.9367 136.915 47.9367C141.5 47.9367 145.364 45.2119 145.364 38.6142V22.4801H141.671V23.9283ZM137.213 36.3168C134.538 36.3168 132.289 34.0599 132.289 30.9114C132.289 27.7629 134.539 25.4631 137.213 25.4631C139.846 25.4631 141.968 27.7629 141.968 30.9114C141.966 34.0175 139.844 36.3168 137.213 36.3168ZM187.944 12.9884H178.605V39.2956H182.511V29.3336H187.944C192.275 29.3336 196.52 26.1828 196.52 21.161C196.52 16.1388 192.275 12.9884 187.944 12.9884ZM188.071 25.6752H182.551V16.6487H188.071C190.958 16.6487 192.656 19.0752 192.656 21.1605C192.615 23.2039 190.96 25.6752 188.071 25.6752ZM212.101 21.8849C209.299 21.8849 206.37 23.1196 205.181 25.9292L208.621 27.3774C209.386 25.9292 210.744 25.4613 212.188 25.4613C214.226 25.4613 216.263 26.6955 216.305 28.8657V29.122C215.583 28.6965 214.099 28.0994 212.23 28.0994C208.495 28.0994 204.715 30.1852 204.715 34.0175C204.715 37.551 207.772 39.8065 211.168 39.8065C213.801 39.8065 215.243 38.6142 216.134 37.2103H216.261V39.2537H220.039V29.164C219.997 24.5249 216.559 21.8849 212.101 21.8849ZM211.635 36.2744C210.361 36.2744 208.577 35.6349 208.577 34.0618C208.577 32.0184 210.784 31.2521 212.695 31.2521C214.392 31.2521 215.199 31.6352 216.261 32.1456C215.964 34.5722 213.884 36.2744 211.635 36.2744ZM233.667 22.4824L229.21 33.8478H229.083L224.457 22.4819H220.254L227.216 38.4021L223.267 47.2995H227.342L237.997 22.4819H233.667L233.667 22.4824ZM198.686 39.2956H202.593V12.9879H198.686V39.2956Z" fill="white"/>
</g>
<defs>
<clipPath id="clip0_320_2934">
<rect width="238" height="55" fill="white"/>
</clipPath>
</defs>
</svg>
