<svg width="1280" height="761" style="background-color:#A383FC" viewBox="0 0 1280 761" fill="none" xmlns="http://www.w3.org/2000/svg">
<path fill-rule="evenodd" clip-rule="evenodd" d="M561.377 83.8751L561.754 85.7508L564.52 89.8905L567.286 94.0301L571.885 97.9503L576.484 101.87L583.66 106.522L590.835 111.173V112.839V114.506L589.671 115.125L588.508 115.745L584.543 116.304L580.579 116.862L579.952 117.248L579.325 117.633V118.715V119.798L582.621 122.899L585.916 126H587.547H589.177L591.672 123.414L594.167 120.827L595.706 118.792L597.246 116.758L603.305 117.763L609.365 118.767L615.093 118.761L620.822 118.755L624.031 117.269L627.24 115.782L628.12 114.907L629 114.031V113.687V113.342H626.956H624.912L619.591 111.208L614.271 109.074L611.488 108.726L608.706 108.378L606.768 106.339L604.83 104.301L602.528 104.322L600.225 104.344L598.741 105.161L597.257 105.979L596.482 105.683L595.708 105.388L592.618 101.241L589.528 97.095L587.305 95.3525L585.08 93.6094L582.051 92.0971L579.022 90.5854L574.346 88.6549L569.669 86.7243L565.995 84.3621L562.322 82H561.661H561L561.377 83.8751Z" fill="black" fill-opacity="0.51"/>
<path fill-rule="evenodd" clip-rule="evenodd" d="M691 169.637V170.275L696.193 172.179L701.385 174.083L702.642 174.445L703.899 174.808L704.96 176.035L706.02 177.262L704.913 178.543L703.807 179.823L704.673 180.412L705.539 181L708.773 180.597L712.007 180.195L713.817 178.222L715.628 176.249L718.892 175.243L722.156 174.236L727.914 173.829L733.671 173.423L734.335 172.585L735 171.746L732.645 171.008L730.289 170.269L724.146 171.343L718.002 172.417L715.035 173.597L712.067 174.776H710.274L708.481 174.777L706.332 172.923L704.184 171.069L702.496 170.397L700.807 169.724L695.904 169.362L691 169V169.637Z" fill="black" fill-opacity="0.51"/>
<path fill-rule="evenodd" clip-rule="evenodd" d="M1270 146.637V147.275L1275.19 149.179L1280.39 151.083L1281.64 151.445L1282.9 151.808L1283.96 153.035L1285.02 154.262L1283.91 155.543L1282.81 156.823L1283.67 157.412L1284.54 158L1287.77 157.597L1291.01 157.195L1292.82 155.222L1294.63 153.249L1297.89 152.243L1301.16 151.236L1306.91 150.829L1312.67 150.423L1313.34 149.585L1314 148.746L1311.64 148.008L1309.29 147.269L1303.15 148.343L1297 149.417L1294.03 150.597L1291.07 151.776H1289.27L1287.48 151.777L1285.33 149.923L1283.18 148.069L1281.5 147.397L1279.81 146.724L1274.9 146.362L1270 146V146.637Z" fill="black" fill-opacity="0.51"/>
<path fill-rule="evenodd" clip-rule="evenodd" d="M473.294 123.808L472.385 125.617V127.846V130.075L474.512 133.987L476.64 137.898L476.617 139.908L476.595 141.919L476.427 147.43L476.26 152.94L473.13 153.452L470 153.965V154.543V155.121L471.498 157.561L472.996 160H474.034H475.071L479.242 157.941L483.413 155.883L485.007 155.49L486.6 155.097L488.286 153.662L489.971 152.227L492.743 150.575L495.515 148.923L497.152 147.26L498.788 145.597L499.892 143.758L500.996 141.919L500.998 139.927L501 137.935H500.404H499.808V138.816V139.696L495.465 143.344L491.122 146.992L490.324 147.98L489.527 148.968H486.953H484.378L483.896 148.202L483.413 147.435L483.115 140.614L482.817 133.793L480.049 130.751L477.281 127.709L476.323 125.804L475.365 123.899V122.95V122H474.785H474.203L473.294 123.808Z" fill="black" fill-opacity="0.51"/>
<path fill-rule="evenodd" clip-rule="evenodd" d="M66 202L66.3846 203.617V205.846V208.075L68.5123 211.987L70.64 215.898L70.6173 217.908L70.5947 219.919L70.4271 225.43L70.2596 230.94L67.1298 231.452L64 231.965V232.543V233.121L65.4981 235.561L66.9957 238H68.0336H69.0715L73.2422 235.941L77.4135 233.883L79.007 233.49L80.6005 233.097L82.2858 231.662L83.9712 230.227L86.7433 228.575L89.5154 226.923L91.1518 225.26L92.7883 223.597L93.8918 221.758L94.9958 219.919L94.9976 217.927L95 215.935H94.4038H93.8077V216.816V217.696L89.4647 221.344L85.1217 224.992L84.3241 225.98L83.527 226.968H80.9528H78.378L77.8958 226.202L77.4135 225.435L77.1154 218.614L76 213L73 209.5L70.3234 205.846L69 203.617L68 202L67.5 201L66.3846 200L65.5 200.5L66 202Z" fill="black" fill-opacity="0.51"/>
<path fill-rule="evenodd" clip-rule="evenodd" d="M1242.29 83.8081L1241.38 85.6167V87.8459V90.075L1243.51 93.9866L1245.64 97.8981L1245.62 99.9084L1245.59 101.919L1245.43 107.43L1245.26 112.94L1242.13 113.452L1239 113.965V114.543V115.121L1240.5 117.561L1242 120H1243.03H1244.07L1248.24 117.941L1252.41 115.883L1254.01 115.49L1255.6 115.097L1257.29 113.662L1258.97 112.227L1261.74 110.575L1264.52 108.923L1266.15 107.26L1267.79 105.597L1268.89 103.758L1270 101.919L1270 99.9274L1270 97.9355H1269.4H1268.81V98.8156V99.6957L1264.46 103.344L1260.12 106.992L1259.32 107.98L1258.53 108.968H1255.95H1253.38L1252.9 108.202L1252.41 107.435L1252.12 100.614L1251.82 93.7929L1249.05 90.751L1246.28 87.7086L1245.32 85.8043L1244.37 83.8994V82.95V82H1243.78H1243.2L1242.29 83.8081Z" fill="black" fill-opacity="0.51"/>
<path fill-rule="evenodd" clip-rule="evenodd" d="M699 114.466V114.933L699.948 116.266L700.895 117.6H701.759H702.624L703.858 120.118L705.092 122.635L704.481 123.238L703.87 123.84V124.92V126H704.755H705.64L707.088 124.65L708.537 123.3L710.769 121.624L713 119.949V118.038V116.126L711.129 118.363L709.259 120.6H708.055H706.851L705.966 118.513L705.081 116.425L702.535 115.213L699.989 114H699.494H699V114.466Z" fill="black" fill-opacity="0.51"/>
<g opacity="0.5">
<path fill-rule="evenodd" clip-rule="evenodd" d="M648.991 0.290572C644.472 0.96075 637.768 2.79484 634.816 4.16825C633.3 4.87402 631.757 5.29148 631.389 5.09724C631.019 4.90249 630.897 4.92639 631.118 5.15012C631.338 5.37436 630.466 6.17624 629.18 6.93286C627.893 7.68897 625.622 9.43001 624.133 10.8019C622.643 12.1738 621.148 13.2197 620.81 13.1267C620.472 13.0331 620.374 13.1206 620.592 13.3204C621.19 13.8701 619.954 15.664 619.252 15.2653C618.895 15.0635 618.796 15.1499 619.013 15.4728C619.218 15.7774 618.933 16.7857 618.378 17.7121C614.965 23.4193 615.505 32.2271 619.827 36.0863L625.192 40.8345L618.378 37.9856C615.093 36.7194 613.345 39.1777 613.624 39.5916C613.772 39.8112 613.659 39.9912 613.373 39.9912C613.088 39.9912 612.539 40.6904 612.154 41.5451C611.662 42.6353 611.278 42.9384 610.868 42.5621C609.871 41.6463 605.399 41.9423 603.412 43.0553C602.403 43.6197 601.282 43.9253 600.92 43.7347C600.557 43.5435 600.439 43.5689 600.657 43.7901C600.874 44.0118 600.79 44.6433 600.468 45.1945C599.898 46.1733 599.851 46.1677 598.412 44.9662C595.956 42.9155 594.226 42.1365 590.722 41.5034C583.07 40.1209 574.033 44.3998 570.651 51.007C570.03 52.2197 569.43 53.2117 569.318 53.2117C569.206 53.2117 568.142 52.897 566.956 52.5126C562.736 51.1453 559.451 51.0278 555.932 52.1185C554.136 52.6753 552.467 53.0175 552.224 52.8792C551.98 52.7409 551.849 52.9305 551.932 53.3012C552.016 53.6714 551.668 53.9455 551.159 53.9104C550.587 53.8712 550.345 54.1133 550.527 54.546C550.687 54.9309 550.565 55.2456 550.255 55.2456C549.945 55.2456 549.172 56.2316 548.536 57.4372C547.395 59.6018 544.536 62.0252 543.122 62.0252C542.722 62.0252 542.51 62.132 542.652 62.2622C543.132 62.703 540.132 64.5127 537.24 65.5256C535.236 66.2278 531.941 66.6804 526.366 67.0195C517.508 67.5585 514.356 68.4245 511.588 71.0803L510 72.6037L511.559 72.0606C514.796 70.9318 521.764 71.5791 532.15 73.973C535.22 74.6808 540.72 73.6094 546.183 71.2394L551.357 68.9945L553.105 70.1746C558.735 73.974 567.118 74.2521 575.528 70.9185C578.16 69.8746 579.718 69.4968 579.958 69.8441C580.16 70.1391 581.565 70.765 583.079 71.2353C586.611 72.3321 590.39 71.9131 594.308 69.9906C595.907 69.206 597.215 68.8089 597.215 69.1084C597.215 69.4079 597.338 69.5396 597.488 69.4017C597.639 69.264 599.401 70.5987 601.405 72.3677C603.409 74.1372 605.179 75.5849 605.338 75.5849C605.497 75.5849 606.303 76.0267 607.129 76.5668C610.177 78.5595 616.992 81.3744 621.57 82.5307C631.109 84.9409 643.948 83.4119 654.242 78.6403L657.657 77.0569L660.005 78.1003C663.993 79.8729 669.608 79.2332 673.731 76.5368C675.378 75.4603 675.459 75.4557 677.1 76.3451C679.354 77.568 685.564 77.9493 688.824 77.0651C690.215 76.6883 691.352 76.2378 691.352 76.0639C691.352 75.8905 692.027 75.4659 692.851 75.1211C693.676 74.7759 694.664 74.0823 695.048 73.5794C695.708 72.7135 696 72.7582 700.473 74.4077C706.786 76.7351 710.741 77.272 719.04 76.9278C726.908 76.6013 730.247 75.5381 733.243 72.4048C734.664 70.9185 735.1 70.734 736.248 71.1331C738.147 71.7936 749.411 71.7103 752.322 71.0141C757.688 69.7312 761.212 68.2348 762.308 66.7729C762.503 66.5141 762.977 66.481 763.363 66.6997C763.794 66.9448 763.926 66.8924 763.705 66.5639C763.507 66.27 763.716 65.3766 764.169 64.5783C764.623 63.78 764.997 62.4407 765 61.6017C765.022 56.2362 758.506 48.854 752.145 47.0383C749.317 46.2308 743.404 45.7137 743.404 46.2735C743.404 46.542 742.837 45.7772 742.145 44.5742C740.461 41.6494 737.876 40.3497 734.431 40.6945C732.998 40.8373 731.24 41.3072 730.525 41.7373C729.272 42.4914 729.2 42.4594 728.568 40.8745C727.063 37.0969 720.221 35.2334 715.738 37.3792L713.502 38.4495V37.3614C713.502 36.7634 712.819 35.451 711.984 34.4457C711.149 33.4405 710.588 32.5628 710.738 32.4952C711.063 32.3488 708.148 30.7699 704.515 29.1235C703.074 28.4711 701.991 27.8462 702.108 27.7353C702.759 27.1155 694.493 27.3417 692.41 28.0007C691.091 28.4182 689.985 28.7126 689.953 28.6552C689.921 28.5977 689.626 26.7555 689.297 24.5614C688.885 21.8069 688.072 19.4054 686.672 16.8045C684.603 12.9609 679.731 7.60202 676.917 6.07606C676.057 5.60979 675.483 5.03521 675.642 4.80029C675.8 4.56486 675.724 4.43266 675.473 4.50588C674.583 4.76622 671.437 3.25451 671.787 2.73433C671.982 2.44399 671.898 2.34483 671.601 2.51365C671.303 2.68297 669.139 2.26144 666.793 1.57703C662.068 0.199553 653.688 -0.406046 648.991 0.290572ZM544.984 74.2908C541.695 76.1137 536.996 76.8556 533.55 76.0969C528.964 75.0866 529.312 76.2561 534.326 78.7039C537.102 80.0595 540.548 79.7132 543.273 77.8049C545.181 76.4686 547.688 73.6659 547.297 73.3069C547.185 73.2047 546.145 73.6476 544.984 74.2908ZM734.032 75.5315C733.038 76.7991 728.624 78.8051 727.614 78.4491C727.178 78.2951 726.608 78.5203 726.346 78.949C725.966 79.5724 724.658 79.7331 719.798 79.7534C716.459 79.7671 712.928 79.6176 711.953 79.4209C709.204 78.8666 709.85 79.848 713.235 81.3699C716.826 82.9848 722.148 83.5878 725.481 82.758C728.076 82.1117 733.416 78.7237 733.429 77.7159C733.433 77.3432 733.718 77.21 734.077 77.4129C734.448 77.6239 734.566 77.5537 734.359 77.2466C734.163 76.9552 734.374 76.4345 734.827 76.0888C735.71 75.4161 735.929 74.5679 735.221 74.5679C734.983 74.5679 734.449 75.0016 734.032 75.5315ZM650.929 82.7056C645.763 84.8179 641.652 85.7545 637.546 85.7545C634.243 85.7545 634.115 86.3784 637.223 87.3257C640.402 88.2938 646.921 88.2033 649.314 87.1579C651.572 86.1725 654.264 83.9972 655.614 82.068C656.832 80.3295 656.694 80.3483 650.929 82.7056Z" fill="white"/>
<path fill-rule="evenodd" clip-rule="evenodd" d="M1202.99 0.290572C1198.47 0.96075 1191.77 2.79484 1188.82 4.16825C1187.3 4.87402 1185.76 5.29148 1185.39 5.09724C1185.02 4.90249 1184.9 4.92639 1185.12 5.15012C1185.34 5.37436 1184.47 6.17624 1183.18 6.93286C1181.89 7.68897 1179.62 9.43001 1178.13 10.8019C1176.64 12.1738 1175.15 13.2197 1174.81 13.1267C1174.47 13.0331 1174.37 13.1206 1174.59 13.3204C1175.19 13.8701 1173.95 15.664 1173.25 15.2653C1172.9 15.0635 1172.8 15.1499 1173.01 15.4728C1173.22 15.7774 1172.93 16.7857 1172.38 17.7121C1168.96 23.4193 1169.5 32.2271 1173.83 36.0863L1179.19 40.8345L1172.38 37.9856C1169.09 36.7194 1167.35 39.1777 1167.62 39.5916C1167.77 39.8112 1167.66 39.9912 1167.37 39.9912C1167.09 39.9912 1166.54 40.6904 1166.15 41.5451C1165.66 42.6353 1165.28 42.9384 1164.87 42.5621C1163.87 41.6463 1159.4 41.9423 1157.41 43.0553C1156.4 43.6197 1155.28 43.9253 1154.92 43.7347C1154.56 43.5435 1154.44 43.5689 1154.66 43.7901C1154.87 44.0118 1154.79 44.6433 1154.47 45.1945C1153.9 46.1733 1153.85 46.1677 1152.41 44.9662C1149.96 42.9155 1148.23 42.1365 1144.72 41.5034C1137.07 40.1209 1128.03 44.3998 1124.65 51.007C1124.03 52.2197 1123.43 53.2117 1123.32 53.2117C1123.21 53.2117 1122.14 52.897 1120.96 52.5126C1116.74 51.1453 1113.45 51.0278 1109.93 52.1185C1108.14 52.6753 1106.47 53.0175 1106.22 52.8792C1105.98 52.7409 1105.85 52.9305 1105.93 53.3012C1106.02 53.6714 1105.67 53.9455 1105.16 53.9104C1104.59 53.8712 1104.35 54.1133 1104.53 54.546C1104.69 54.9309 1104.57 55.2456 1104.26 55.2456C1103.95 55.2456 1103.17 56.2316 1102.54 57.4372C1101.4 59.6018 1098.54 62.0252 1097.12 62.0252C1096.72 62.0252 1096.51 62.132 1096.65 62.2622C1097.13 62.703 1094.13 64.5127 1091.24 65.5256C1089.24 66.2278 1085.94 66.6804 1080.37 67.0195C1071.51 67.5585 1068.36 68.4245 1065.59 71.0803L1064 72.6037L1065.56 72.0606C1068.8 70.9318 1075.76 71.5791 1086.15 73.973C1089.22 74.6808 1094.72 73.6094 1100.18 71.2394L1105.36 68.9945L1107.1 70.1746C1112.74 73.974 1121.12 74.2521 1129.53 70.9185C1132.16 69.8746 1133.72 69.4968 1133.96 69.8441C1134.16 70.1391 1135.56 70.765 1137.08 71.2353C1140.61 72.3321 1144.39 71.9131 1148.31 69.9906C1149.91 69.206 1151.22 68.8089 1151.22 69.1084C1151.22 69.4079 1151.34 69.5396 1151.49 69.4017C1151.64 69.264 1153.4 70.5987 1155.41 72.3677C1157.41 74.1372 1159.18 75.5849 1159.34 75.5849C1159.5 75.5849 1160.3 76.0267 1161.13 76.5668C1164.18 78.5595 1170.99 81.3744 1175.57 82.5307C1185.11 84.9409 1197.95 83.4119 1208.24 78.6403L1211.66 77.0569L1214.01 78.1003C1217.99 79.8729 1223.61 79.2332 1227.73 76.5368C1229.38 75.4603 1229.46 75.4557 1231.1 76.3451C1233.35 77.568 1239.56 77.9493 1242.82 77.0651C1244.21 76.6883 1245.35 76.2378 1245.35 76.0639C1245.35 75.8905 1246.03 75.4659 1246.85 75.1211C1247.68 74.7759 1248.66 74.0823 1249.05 73.5794C1249.71 72.7135 1250 72.7582 1254.47 74.4077C1260.79 76.7351 1264.74 77.272 1273.04 76.9278C1280.91 76.6013 1284.25 75.5381 1287.24 72.4048C1288.66 70.9185 1289.1 70.734 1290.25 71.1331C1292.15 71.7936 1303.41 71.7103 1306.32 71.0141C1311.69 69.7312 1315.21 68.2348 1316.31 66.7729C1316.5 66.5141 1316.98 66.481 1317.36 66.6997C1317.79 66.9448 1317.93 66.8924 1317.7 66.5639C1317.51 66.27 1317.72 65.3766 1318.17 64.5783C1318.62 63.78 1319 62.4407 1319 61.6017C1319.02 56.2362 1312.51 48.854 1306.15 47.0383C1303.32 46.2308 1297.4 45.7137 1297.4 46.2735C1297.4 46.542 1296.84 45.7772 1296.14 44.5742C1294.46 41.6494 1291.88 40.3497 1288.43 40.6945C1287 40.8373 1285.24 41.3072 1284.52 41.7373C1283.27 42.4914 1283.2 42.4594 1282.57 40.8745C1281.06 37.0969 1274.22 35.2334 1269.74 37.3792L1267.5 38.4495V37.3614C1267.5 36.7634 1266.82 35.451 1265.98 34.4457C1265.15 33.4405 1264.59 32.5628 1264.74 32.4952C1265.06 32.3488 1262.15 30.7699 1258.51 29.1235C1257.07 28.4711 1255.99 27.8462 1256.11 27.7353C1256.76 27.1155 1248.49 27.3417 1246.41 28.0007C1245.09 28.4182 1243.98 28.7126 1243.95 28.6552C1243.92 28.5977 1243.63 26.7555 1243.3 24.5614C1242.88 21.8069 1242.07 19.4054 1240.67 16.8045C1238.6 12.9609 1233.73 7.60202 1230.92 6.07606C1230.06 5.60979 1229.48 5.03521 1229.64 4.80029C1229.8 4.56486 1229.72 4.43266 1229.47 4.50588C1228.58 4.76622 1225.44 3.25451 1225.79 2.73433C1225.98 2.44399 1225.9 2.34483 1225.6 2.51365C1225.3 2.68297 1223.14 2.26144 1220.79 1.57703C1216.07 0.199553 1207.69 -0.406046 1202.99 0.290572ZM1098.98 74.2908C1095.69 76.1137 1091 76.8556 1087.55 76.0969C1082.96 75.0866 1083.31 76.2561 1088.33 78.7039C1091.1 80.0595 1094.55 79.7132 1097.27 77.8049C1099.18 76.4686 1101.69 73.6659 1101.3 73.3069C1101.19 73.2047 1100.14 73.6476 1098.98 74.2908ZM1288.03 75.5315C1287.04 76.7991 1282.62 78.8051 1281.61 78.4491C1281.18 78.2951 1280.61 78.5203 1280.35 78.949C1279.97 79.5724 1278.66 79.7331 1273.8 79.7534C1270.46 79.7671 1266.93 79.6176 1265.95 79.4209C1263.2 78.8666 1263.85 79.848 1267.23 81.3699C1270.83 82.9848 1276.15 83.5878 1279.48 82.758C1282.08 82.1117 1287.42 78.7237 1287.43 77.7159C1287.43 77.3432 1287.72 77.21 1288.08 77.4129C1288.45 77.6239 1288.57 77.5537 1288.36 77.2466C1288.16 76.9552 1288.37 76.4345 1288.83 76.0888C1289.71 75.4161 1289.93 74.5679 1289.22 74.5679C1288.98 74.5679 1288.45 75.0016 1288.03 75.5315ZM1204.93 82.7056C1199.76 84.8179 1195.65 85.7545 1191.55 85.7545C1188.24 85.7545 1188.11 86.3784 1191.22 87.3257C1194.4 88.2938 1200.92 88.2033 1203.31 87.1579C1205.57 86.1725 1208.26 83.9972 1209.61 82.068C1210.83 80.3295 1210.69 80.3483 1204.93 82.7056Z" fill="white"/>
<path fill-rule="evenodd" clip-rule="evenodd" d="M898.991 59.2906C894.472 59.9607 887.768 61.7948 884.816 63.1682C883.3 63.874 881.757 64.2915 881.389 64.0972C881.019 63.9025 880.897 63.9264 881.118 64.1501C881.338 64.3744 880.466 65.1762 879.18 65.9329C877.893 66.689 875.622 68.43 874.133 69.8019C872.643 71.1738 871.148 72.2197 870.81 72.1267C870.472 72.0331 870.374 72.1206 870.592 72.3204C871.19 72.8701 869.954 74.664 869.252 74.2653C868.895 74.0635 868.796 74.1499 869.013 74.4728C869.218 74.7774 868.933 75.7857 868.378 76.7121C864.965 82.4193 865.505 91.2271 869.827 95.0863L875.192 99.8345L868.378 96.9856C865.093 95.7194 863.345 98.1777 863.624 98.5916C863.772 98.8112 863.659 98.9912 863.373 98.9912C863.088 98.9912 862.539 99.6904 862.154 100.545C861.662 101.635 861.278 101.938 860.868 101.562C859.871 100.646 855.399 100.942 853.412 102.055C852.403 102.62 851.282 102.925 850.92 102.735C850.557 102.543 850.439 102.569 850.657 102.79C850.874 103.012 850.79 103.643 850.468 104.195C849.898 105.173 849.851 105.168 848.412 103.966C845.956 101.915 844.226 101.137 840.722 100.503C833.07 99.1209 824.033 103.4 820.651 110.007C820.03 111.22 819.43 112.212 819.318 112.212C819.206 112.212 818.142 111.897 816.956 111.513C812.736 110.145 809.451 110.028 805.932 111.118C804.136 111.675 802.467 112.017 802.224 111.879C801.98 111.741 801.849 111.931 801.932 112.301C802.016 112.671 801.668 112.945 801.159 112.91C800.587 112.871 800.345 113.113 800.527 113.546C800.687 113.931 800.565 114.246 800.255 114.246C799.945 114.246 799.172 115.232 798.536 116.437C797.395 118.602 794.536 121.025 793.122 121.025C792.722 121.025 792.51 121.132 792.652 121.262C793.132 121.703 790.132 123.513 787.24 124.526C785.236 125.228 781.941 125.68 776.366 126.02C767.508 126.559 764.356 127.424 761.588 130.08L760 131.604L761.559 131.061C764.796 129.932 771.764 130.579 782.15 132.973C785.22 133.681 790.72 132.609 796.183 130.239L801.357 127.994L803.105 129.175C808.735 132.974 817.118 133.252 825.528 129.919C828.16 128.875 829.718 128.497 829.958 128.844C830.16 129.139 831.565 129.765 833.079 130.235C836.611 131.332 840.39 130.913 844.308 128.991C845.907 128.206 847.215 127.809 847.215 128.108C847.215 128.408 847.338 128.54 847.488 128.402C847.639 128.264 849.401 129.599 851.405 131.368C853.409 133.137 855.179 134.585 855.338 134.585C855.497 134.585 856.303 135.027 857.129 135.567C860.177 137.559 866.992 140.374 871.57 141.531C881.109 143.941 893.948 142.412 904.242 137.64L907.657 136.057L910.005 137.1C913.993 138.873 919.608 138.233 923.731 135.537C925.378 134.46 925.459 134.456 927.1 135.345C929.354 136.568 935.564 136.949 938.824 136.065C940.215 135.688 941.352 135.238 941.352 135.064C941.352 134.89 942.027 134.466 942.851 134.121C943.676 133.776 944.664 133.082 945.048 132.579C945.708 131.713 946 131.758 950.473 133.408C956.786 135.735 960.741 136.272 969.04 135.928C976.908 135.601 980.247 134.538 983.243 131.405C984.664 129.919 985.1 129.734 986.248 130.133C988.147 130.794 999.411 130.71 1002.32 130.014C1007.69 128.731 1011.21 127.235 1012.31 125.773C1012.5 125.514 1012.98 125.481 1013.36 125.7C1013.79 125.945 1013.93 125.892 1013.7 125.564C1013.51 125.27 1013.72 124.377 1014.17 123.578C1014.62 122.78 1015 121.441 1015 120.602C1015.02 115.236 1008.51 107.854 1002.15 106.038C999.317 105.231 993.404 104.714 993.404 105.274C993.404 105.542 992.837 104.777 992.145 103.574C990.461 100.649 987.876 99.3497 984.431 99.6945C982.998 99.8373 981.24 100.307 980.525 100.737C979.272 101.491 979.2 101.459 978.568 99.8745C977.063 96.0969 970.221 94.2334 965.738 96.3792L963.502 97.4495V96.3614C963.502 95.7634 962.819 94.451 961.984 93.4457C961.149 92.4405 960.588 91.5628 960.738 91.4952C961.063 91.3488 958.148 89.7699 954.515 88.1235C953.074 87.4711 951.991 86.8462 952.108 86.7353C952.759 86.1155 944.493 86.3417 942.41 87.0007C941.091 87.4182 939.985 87.7126 939.953 87.6552C939.921 87.5977 939.626 85.7555 939.297 83.5614C938.885 80.8069 938.072 78.4054 936.672 75.8045C934.603 71.9609 929.731 66.602 926.917 65.0761C926.057 64.6098 925.483 64.0352 925.642 63.8003C925.8 63.5649 925.724 63.4327 925.473 63.5059C924.583 63.7662 921.437 62.2545 921.787 61.7343C921.982 61.444 921.898 61.3448 921.601 61.5136C921.303 61.683 919.139 61.2614 916.793 60.577C912.068 59.1996 903.688 58.594 898.991 59.2906ZM794.984 133.291C791.695 135.114 786.996 135.856 783.55 135.097C778.964 134.087 779.312 135.256 784.326 137.704C787.102 139.06 790.548 138.713 793.273 136.805C795.181 135.469 797.688 132.666 797.297 132.307C797.185 132.205 796.145 132.648 794.984 133.291ZM984.032 134.531C983.038 135.799 978.624 137.805 977.614 137.449C977.178 137.295 976.608 137.52 976.346 137.949C975.966 138.572 974.658 138.733 969.798 138.753C966.459 138.767 962.928 138.618 961.953 138.421C959.204 137.867 959.85 138.848 963.235 140.37C966.826 141.985 972.148 142.588 975.481 141.758C978.076 141.112 983.416 137.724 983.429 136.716C983.433 136.343 983.718 136.21 984.077 136.413C984.448 136.624 984.566 136.554 984.359 136.247C984.163 135.955 984.374 135.435 984.827 135.089C985.71 134.416 985.929 133.568 985.221 133.568C984.983 133.568 984.449 134.002 984.032 134.531ZM900.929 141.706C895.763 143.818 891.652 144.754 887.546 144.754C884.243 144.754 884.115 145.378 887.223 146.326C890.402 147.294 896.921 147.203 899.314 146.158C901.572 145.172 904.264 142.997 905.614 141.068C906.832 139.33 906.694 139.348 900.929 141.706Z" fill="white"/>
<path fill-rule="evenodd" clip-rule="evenodd" d="M43.9905 410.291C39.4719 410.961 32.7677 412.795 29.8163 414.168C28.3001 414.874 26.7573 415.291 26.3885 415.097C26.0192 414.902 25.8974 414.926 26.1178 415.15C26.3382 415.374 25.466 416.176 24.1797 416.933C22.8933 417.689 20.6218 419.43 19.1328 420.802C17.6432 422.174 16.1481 423.22 15.8103 423.127C15.472 423.033 15.374 423.121 15.5916 423.32C16.1896 423.87 14.9542 425.664 14.2515 425.265C13.8955 425.063 13.7958 425.15 14.0134 425.473C14.2183 425.777 13.9326 426.786 13.3783 427.712C9.96498 433.419 10.5048 442.227 14.8267 446.086L20.1918 450.835L13.3783 447.986C10.0928 446.719 8.34526 449.178 8.62379 449.592C8.7722 449.811 8.65923 449.991 8.3735 449.991C8.08832 449.991 7.53901 450.69 7.1536 451.545C6.66187 452.635 6.27813 452.938 5.86835 452.562C4.87106 451.646 0.398994 451.942 -1.58841 453.055C-2.59678 453.62 -3.71812 453.925 -4.08028 453.735C-4.44298 453.543 -4.56092 453.569 -4.3433 453.79C-4.12568 454.012 -4.2104 454.643 -4.53156 455.195C-5.10193 456.173 -5.149 456.168 -6.58819 454.966C-9.04406 452.915 -10.774 452.137 -14.2775 451.503C-21.9303 450.121 -30.9669 454.4 -34.3492 461.007C-34.9699 462.22 -35.5696 463.212 -35.6821 463.212C-35.7945 463.212 -36.8577 462.897 -38.0438 462.513C-42.2645 461.145 -45.5493 461.028 -49.0678 462.118C-50.8636 462.675 -52.5326 463.017 -52.7762 462.879C-53.0199 462.741 -53.1511 462.931 -53.0675 463.301C-52.9839 463.671 -53.3316 463.945 -53.8405 463.91C-54.4131 463.871 -54.6545 464.113 -54.4735 464.546C-54.3129 464.931 -54.4347 465.246 -54.7448 465.246C-55.0549 465.246 -55.8279 466.232 -56.4636 467.437C-57.6049 469.602 -60.4645 472.025 -61.8776 472.025C-62.278 472.025 -62.4895 472.132 -62.3477 472.262C-61.8676 472.703 -64.8684 474.513 -67.7601 475.526C-69.7641 476.228 -73.0589 476.68 -78.634 477.02C-87.4917 477.559 -90.6437 478.424 -93.4119 481.08L-95 482.604L-93.4412 482.061C-90.204 480.932 -83.2356 481.579 -72.8501 483.973C-69.7796 484.681 -64.2798 483.609 -58.8171 481.239L-53.6434 478.994L-51.8952 480.175C-46.2647 483.974 -37.8815 484.252 -29.4723 480.919C-26.8398 479.875 -25.2816 479.497 -25.0424 479.844C-24.8397 480.139 -23.4354 480.765 -21.9209 481.235C-18.3885 482.332 -14.6098 481.913 -10.692 479.991C-9.09335 479.206 -7.78483 478.809 -7.78483 479.108C-7.78483 479.408 -7.6619 479.54 -7.51183 479.402C-7.36121 479.264 -5.59863 480.599 -3.59463 482.368C-1.59061 484.137 0.179153 485.585 0.338081 485.585C0.497009 485.585 1.30326 486.027 2.1289 486.567C5.17672 488.559 11.9922 491.374 16.5695 492.531C26.1089 494.941 38.9475 493.412 49.2417 488.64L52.6572 487.057L55.0051 488.1C58.9926 489.873 64.6076 489.233 68.7314 486.537C70.3782 485.46 70.4591 485.456 72.0998 486.345C74.3536 487.568 80.5638 487.949 83.8243 487.065C85.2148 486.688 86.3522 486.238 86.3522 486.064C86.3522 485.89 87.0266 485.466 87.8512 485.121C88.6757 484.776 89.6641 484.082 90.0479 483.579C90.708 482.713 90.9998 482.758 95.4729 484.408C101.786 486.735 105.741 487.272 114.04 486.928C121.908 486.601 125.247 485.538 128.243 482.405C129.664 480.919 130.1 480.734 131.248 481.133C133.147 481.794 144.411 481.71 147.322 481.014C152.688 479.731 156.212 478.235 157.308 476.773C157.503 476.514 157.977 476.481 158.363 476.7C158.794 476.945 158.926 476.892 158.705 476.564C158.507 476.27 158.716 475.377 159.169 474.578C159.623 473.78 159.997 472.441 160 471.602C160.022 466.236 153.506 458.854 147.145 457.038C144.317 456.231 138.404 455.714 138.404 456.274C138.404 456.542 137.837 455.777 137.145 454.574C135.461 451.649 132.876 450.35 129.431 450.694C127.998 450.837 126.24 451.307 125.525 451.737C124.272 452.491 124.2 452.459 123.568 450.874C122.063 447.097 115.221 445.233 110.738 447.379L108.502 448.45V447.361C108.502 446.763 107.819 445.451 106.984 444.446C106.149 443.44 105.588 442.563 105.738 442.495C106.063 442.349 103.148 440.77 99.5147 439.123C98.0739 438.471 96.9907 437.846 97.1076 437.735C97.7588 437.115 89.493 437.342 87.4098 438.001C86.0908 438.418 84.985 438.713 84.9528 438.655C84.9207 438.598 84.6256 436.755 84.2972 434.561C83.8847 431.807 83.0718 429.405 81.6719 426.805C79.6031 422.961 74.7307 417.602 71.9171 416.076C71.0571 415.61 70.4834 415.035 70.6418 414.8C70.8002 414.565 70.7243 414.433 70.4729 414.506C69.5831 414.766 66.4366 413.255 66.7866 412.734C66.9821 412.444 66.8985 412.345 66.6006 412.514C66.3026 412.683 64.1391 412.261 61.7929 411.577C57.0684 410.2 48.6879 409.594 43.9905 410.291ZM-60.0159 484.291C-63.3052 486.114 -68.0043 486.856 -71.4502 486.097C-76.0364 485.087 -75.6881 486.256 -70.6744 488.704C-67.898 490.06 -64.452 489.713 -61.727 487.805C-59.8193 486.469 -57.312 483.666 -57.7035 483.307C-57.8148 483.205 -58.8553 483.648 -60.0159 484.291ZM129.032 485.531C128.038 486.799 123.624 488.805 122.614 488.449C122.178 488.295 121.608 488.52 121.346 488.949C120.966 489.572 119.658 489.733 114.798 489.753C111.459 489.767 107.928 489.618 106.953 489.421C104.204 488.867 104.85 489.848 108.235 491.37C111.826 492.985 117.148 493.588 120.481 492.758C123.076 492.112 128.416 488.724 128.429 487.716C128.433 487.343 128.718 487.21 129.077 487.413C129.448 487.624 129.566 487.554 129.359 487.247C129.163 486.955 129.374 486.435 129.827 486.089C130.71 485.416 130.929 484.568 130.221 484.568C129.983 484.568 129.449 485.002 129.032 485.531ZM45.9286 492.706C40.7633 494.818 36.6523 495.754 32.5462 495.754C29.2426 495.754 29.1147 496.378 32.2234 497.326C35.4019 498.294 41.9206 498.203 44.3145 497.158C46.5715 496.172 49.2639 493.997 50.6144 492.068C51.8316 490.33 51.6942 490.348 45.9286 492.706Z" fill="white"/>
<path fill-rule="evenodd" clip-rule="evenodd" d="M293.991 469.291C289.472 469.961 282.768 471.795 279.816 473.168C278.3 473.874 276.757 474.291 276.389 474.097C276.019 473.902 275.897 473.926 276.118 474.15C276.338 474.374 275.466 475.176 274.18 475.933C272.893 476.689 270.622 478.43 269.133 479.802C267.643 481.174 266.148 482.22 265.81 482.127C265.472 482.033 265.374 482.121 265.592 482.32C266.19 482.87 264.954 484.664 264.252 484.265C263.895 484.063 263.796 484.15 264.013 484.473C264.218 484.777 263.933 485.786 263.378 486.712C259.965 492.419 260.505 501.227 264.827 505.086L270.192 509.835L263.378 506.986C260.093 505.719 258.345 508.178 258.624 508.592C258.772 508.811 258.659 508.991 258.373 508.991C258.088 508.991 257.539 509.69 257.154 510.545C256.662 511.635 256.278 511.938 255.868 511.562C254.871 510.646 250.399 510.942 248.412 512.055C247.403 512.62 246.282 512.925 245.92 512.735C245.557 512.543 245.439 512.569 245.657 512.79C245.874 513.012 245.79 513.643 245.468 514.195C244.898 515.173 244.851 515.168 243.412 513.966C240.956 511.915 239.226 511.137 235.722 510.503C228.07 509.121 219.033 513.4 215.651 520.007C215.03 521.22 214.43 522.212 214.318 522.212C214.206 522.212 213.142 521.897 211.956 521.513C207.736 520.145 204.451 520.028 200.932 521.118C199.136 521.675 197.467 522.017 197.224 521.879C196.98 521.741 196.849 521.931 196.932 522.301C197.016 522.671 196.668 522.945 196.159 522.91C195.587 522.871 195.345 523.113 195.527 523.546C195.687 523.931 195.565 524.246 195.255 524.246C194.945 524.246 194.172 525.232 193.536 526.437C192.395 528.602 189.536 531.025 188.122 531.025C187.722 531.025 187.51 531.132 187.652 531.262C188.132 531.703 185.132 533.513 182.24 534.526C180.236 535.228 176.941 535.68 171.366 536.02C162.508 536.559 159.356 537.424 156.588 540.08L155 541.604L156.559 541.061C159.796 539.932 166.764 540.579 177.15 542.973C180.22 543.681 185.72 542.609 191.183 540.239L196.357 537.994L198.105 539.175C203.735 542.974 212.118 543.252 220.528 539.919C223.16 538.875 224.718 538.497 224.958 538.844C225.16 539.139 226.565 539.765 228.079 540.235C231.611 541.332 235.39 540.913 239.308 538.991C240.907 538.206 242.215 537.809 242.215 538.108C242.215 538.408 242.338 538.54 242.488 538.402C242.639 538.264 244.401 539.599 246.405 541.368C248.409 543.137 250.179 544.585 250.338 544.585C250.497 544.585 251.303 545.027 252.129 545.567C255.177 547.559 261.992 550.374 266.57 551.531C276.109 553.941 288.948 552.412 299.242 547.64L302.657 546.057L305.005 547.1C308.993 548.873 314.608 548.233 318.731 545.537C320.378 544.46 320.459 544.456 322.1 545.345C324.354 546.568 330.564 546.949 333.824 546.065C335.215 545.688 336.352 545.238 336.352 545.064C336.352 544.89 337.027 544.466 337.851 544.121C338.676 543.776 339.664 543.082 340.048 542.579C340.708 541.713 341 541.758 345.473 543.408C351.786 545.735 355.741 546.272 364.04 545.928C371.908 545.601 375.247 544.538 378.243 541.405C379.664 539.919 380.1 539.734 381.248 540.133C383.147 540.794 394.411 540.71 397.322 540.014C402.688 538.731 406.212 537.235 407.308 535.773C407.503 535.514 407.977 535.481 408.363 535.7C408.794 535.945 408.926 535.892 408.705 535.564C408.507 535.27 408.716 534.377 409.169 533.578C409.623 532.78 409.997 531.441 410 530.602C410.022 525.236 403.506 517.854 397.145 516.038C394.317 515.231 388.404 514.714 388.404 515.274C388.404 515.542 387.837 514.777 387.145 513.574C385.461 510.649 382.876 509.35 379.431 509.694C377.998 509.837 376.24 510.307 375.525 510.737C374.272 511.491 374.2 511.459 373.568 509.874C372.063 506.097 365.221 504.233 360.738 506.379L358.502 507.45V506.361C358.502 505.763 357.819 504.451 356.984 503.446C356.149 502.44 355.588 501.563 355.738 501.495C356.063 501.349 353.148 499.77 349.515 498.123C348.074 497.471 346.991 496.846 347.108 496.735C347.759 496.115 339.493 496.342 337.41 497.001C336.091 497.418 334.985 497.713 334.953 497.655C334.921 497.598 334.626 495.755 334.297 493.561C333.885 490.807 333.072 488.405 331.672 485.805C329.603 481.961 324.731 476.602 321.917 475.076C321.057 474.61 320.483 474.035 320.642 473.8C320.8 473.565 320.724 473.433 320.473 473.506C319.583 473.766 316.437 472.255 316.787 471.734C316.982 471.444 316.898 471.345 316.601 471.514C316.303 471.683 314.139 471.261 311.793 470.577C307.068 469.2 298.688 468.594 293.991 469.291ZM189.984 543.291C186.695 545.114 181.996 545.856 178.55 545.097C173.964 544.087 174.312 545.256 179.326 547.704C182.102 549.06 185.548 548.713 188.273 546.805C190.181 545.469 192.688 542.666 192.297 542.307C192.185 542.205 191.145 542.648 189.984 543.291ZM379.032 544.531C378.038 545.799 373.624 547.805 372.614 547.449C372.178 547.295 371.608 547.52 371.346 547.949C370.966 548.572 369.658 548.733 364.798 548.753C361.459 548.767 357.928 548.618 356.953 548.421C354.204 547.867 354.85 548.848 358.235 550.37C361.826 551.985 367.148 552.588 370.481 551.758C373.076 551.112 378.416 547.724 378.429 546.716C378.433 546.343 378.718 546.21 379.077 546.413C379.448 546.624 379.566 546.554 379.359 546.247C379.163 545.955 379.374 545.435 379.827 545.089C380.71 544.416 380.929 543.568 380.221 543.568C379.983 543.568 379.449 544.002 379.032 544.531ZM295.929 551.706C290.763 553.818 286.652 554.754 282.546 554.754C279.243 554.754 279.115 555.378 282.223 556.326C285.402 557.294 291.921 557.203 294.314 556.158C296.572 555.172 299.264 552.997 300.614 551.068C301.832 549.33 301.694 549.348 295.929 551.706Z" fill="white"/>
<path fill-rule="evenodd" clip-rule="evenodd" d="M773.991 615.291C769.472 615.961 762.768 617.795 759.816 619.168C758.3 619.874 756.757 620.291 756.389 620.097C756.019 619.902 755.897 619.926 756.118 620.15C756.338 620.374 755.466 621.176 754.18 621.933C752.893 622.689 750.622 624.43 749.133 625.802C747.643 627.174 746.148 628.22 745.81 628.127C745.472 628.033 745.374 628.121 745.592 628.32C746.19 628.87 744.954 630.664 744.252 630.265C743.895 630.063 743.796 630.15 744.013 630.473C744.218 630.777 743.933 631.786 743.378 632.712C739.965 638.419 740.505 647.227 744.827 651.086L750.192 655.835L743.378 652.986C740.093 651.719 738.345 654.178 738.624 654.592C738.772 654.811 738.659 654.991 738.373 654.991C738.088 654.991 737.539 655.69 737.154 656.545C736.662 657.635 736.278 657.938 735.868 657.562C734.871 656.646 730.399 656.942 728.412 658.055C727.403 658.62 726.282 658.925 725.92 658.735C725.557 658.543 725.439 658.569 725.657 658.79C725.874 659.012 725.79 659.643 725.468 660.195C724.898 661.173 724.851 661.168 723.412 659.966C720.956 657.915 719.226 657.137 715.722 656.503C708.07 655.121 699.033 659.4 695.651 666.007C695.03 667.22 694.43 668.212 694.318 668.212C694.206 668.212 693.142 667.897 691.956 667.513C687.736 666.145 684.451 666.028 680.932 667.118C679.136 667.675 677.467 668.017 677.224 667.879C676.98 667.741 676.849 667.931 676.932 668.301C677.016 668.671 676.668 668.945 676.159 668.91C675.587 668.871 675.345 669.113 675.527 669.546C675.687 669.931 675.565 670.246 675.255 670.246C674.945 670.246 674.172 671.232 673.536 672.437C672.395 674.602 669.536 677.025 668.122 677.025C667.722 677.025 667.51 677.132 667.652 677.262C668.132 677.703 665.132 679.513 662.24 680.526C660.236 681.228 656.941 681.68 651.366 682.02C642.508 682.559 639.356 683.424 636.588 686.08L635 687.604L636.559 687.061C639.796 685.932 646.764 686.579 657.15 688.973C660.22 689.681 665.72 688.609 671.183 686.239L676.357 683.994L678.105 685.175C683.735 688.974 692.118 689.252 700.528 685.919C703.16 684.875 704.718 684.497 704.958 684.844C705.16 685.139 706.565 685.765 708.079 686.235C711.611 687.332 715.39 686.913 719.308 684.991C720.907 684.206 722.215 683.809 722.215 684.108C722.215 684.408 722.338 684.54 722.488 684.402C722.639 684.264 724.401 685.599 726.405 687.368C728.409 689.137 730.179 690.585 730.338 690.585C730.497 690.585 731.303 691.027 732.129 691.567C735.177 693.559 741.992 696.374 746.57 697.531C756.109 699.941 768.948 698.412 779.242 693.64L782.657 692.057L785.005 693.1C788.993 694.873 794.608 694.233 798.731 691.537C800.378 690.46 800.459 690.456 802.1 691.345C804.354 692.568 810.564 692.949 813.824 692.065C815.215 691.688 816.352 691.238 816.352 691.064C816.352 690.89 817.027 690.466 817.851 690.121C818.676 689.776 819.664 689.082 820.048 688.579C820.708 687.713 821 687.758 825.473 689.408C831.786 691.735 835.741 692.272 844.04 691.928C851.908 691.601 855.247 690.538 858.243 687.405C859.664 685.919 860.1 685.734 861.248 686.133C863.147 686.794 874.411 686.71 877.322 686.014C882.688 684.731 886.212 683.235 887.308 681.773C887.503 681.514 887.977 681.481 888.363 681.7C888.794 681.945 888.926 681.892 888.705 681.564C888.507 681.27 888.716 680.377 889.169 679.578C889.623 678.78 889.997 677.441 890 676.602C890.022 671.236 883.506 663.854 877.145 662.038C874.317 661.231 868.404 660.714 868.404 661.274C868.404 661.542 867.837 660.777 867.145 659.574C865.461 656.649 862.876 655.35 859.431 655.694C857.998 655.837 856.24 656.307 855.525 656.737C854.272 657.491 854.2 657.459 853.568 655.874C852.063 652.097 845.221 650.233 840.738 652.379L838.502 653.45V652.361C838.502 651.763 837.819 650.451 836.984 649.446C836.149 648.44 835.588 647.563 835.738 647.495C836.063 647.349 833.148 645.77 829.515 644.123C828.074 643.471 826.991 642.846 827.108 642.735C827.759 642.115 819.493 642.342 817.41 643.001C816.091 643.418 814.985 643.713 814.953 643.655C814.921 643.598 814.626 641.755 814.297 639.561C813.885 636.807 813.072 634.405 811.672 631.805C809.603 627.961 804.731 622.602 801.917 621.076C801.057 620.61 800.483 620.035 800.642 619.8C800.8 619.565 800.724 619.433 800.473 619.506C799.583 619.766 796.437 618.255 796.787 617.734C796.982 617.444 796.898 617.345 796.601 617.514C796.303 617.683 794.139 617.261 791.793 616.577C787.068 615.2 778.688 614.594 773.991 615.291ZM669.984 689.291C666.695 691.114 661.996 691.856 658.55 691.097C653.964 690.087 654.312 691.256 659.326 693.704C662.102 695.06 665.548 694.713 668.273 692.805C670.181 691.469 672.688 688.666 672.297 688.307C672.185 688.205 671.145 688.648 669.984 689.291ZM859.032 690.531C858.038 691.799 853.624 693.805 852.614 693.449C852.178 693.295 851.608 693.52 851.346 693.949C850.966 694.572 849.658 694.733 844.798 694.753C841.459 694.767 837.928 694.618 836.953 694.421C834.204 693.867 834.85 694.848 838.235 696.37C841.826 697.985 847.148 698.588 850.481 697.758C853.076 697.112 858.416 693.724 858.429 692.716C858.433 692.343 858.718 692.21 859.077 692.413C859.448 692.624 859.566 692.554 859.359 692.247C859.163 691.955 859.374 691.435 859.827 691.089C860.71 690.416 860.929 689.568 860.221 689.568C859.983 689.568 859.449 690.002 859.032 690.531ZM775.929 697.706C770.763 699.818 766.652 700.754 762.546 700.754C759.243 700.754 759.115 701.378 762.223 702.326C765.402 703.294 771.921 703.203 774.314 702.158C776.572 701.172 779.264 698.997 780.614 697.068C781.832 695.33 781.694 695.348 775.929 697.706Z" fill="white"/>
<path fill-rule="evenodd" clip-rule="evenodd" d="M1023.99 674.291C1019.47 674.961 1012.77 676.795 1009.82 678.168C1008.3 678.874 1006.76 679.291 1006.39 679.097C1006.02 678.902 1005.9 678.926 1006.12 679.15C1006.34 679.374 1005.47 680.176 1004.18 680.933C1002.89 681.689 1000.62 683.43 999.133 684.802C997.643 686.174 996.148 687.22 995.81 687.127C995.472 687.033 995.374 687.121 995.592 687.32C996.19 687.87 994.954 689.664 994.252 689.265C993.895 689.063 993.796 689.15 994.013 689.473C994.218 689.777 993.933 690.786 993.378 691.712C989.965 697.419 990.505 706.227 994.827 710.086L1000.19 714.835L993.378 711.986C990.093 710.719 988.345 713.178 988.624 713.592C988.772 713.811 988.659 713.991 988.373 713.991C988.088 713.991 987.539 714.69 987.154 715.545C986.662 716.635 986.278 716.938 985.868 716.562C984.871 715.646 980.399 715.942 978.412 717.055C977.403 717.62 976.282 717.925 975.92 717.735C975.557 717.543 975.439 717.569 975.657 717.79C975.874 718.012 975.79 718.643 975.468 719.195C974.898 720.173 974.851 720.168 973.412 718.966C970.956 716.915 969.226 716.137 965.722 715.503C958.07 714.121 949.033 718.4 945.651 725.007C945.03 726.22 944.43 727.212 944.318 727.212C944.206 727.212 943.142 726.897 941.956 726.513C937.736 725.145 934.451 725.028 930.932 726.118C929.136 726.675 927.467 727.017 927.224 726.879C926.98 726.741 926.849 726.931 926.932 727.301C927.016 727.671 926.668 727.945 926.159 727.91C925.587 727.871 925.345 728.113 925.527 728.546C925.687 728.931 925.565 729.246 925.255 729.246C924.945 729.246 924.172 730.232 923.536 731.437C922.395 733.602 919.536 736.025 918.122 736.025C917.722 736.025 917.51 736.132 917.652 736.262C918.132 736.703 915.132 738.513 912.24 739.526C910.236 740.228 906.941 740.68 901.366 741.02C892.508 741.559 889.356 742.424 886.588 745.08L885 746.604L886.559 746.061C889.796 744.932 896.764 745.579 907.15 747.973C910.22 748.681 915.72 747.609 921.183 745.239L926.357 742.994L928.105 744.175C933.735 747.974 942.118 748.252 950.528 744.919C953.16 743.875 954.718 743.497 954.958 743.844C955.16 744.139 956.565 744.765 958.079 745.235C961.611 746.332 965.39 745.913 969.308 743.991C970.907 743.206 972.215 742.809 972.215 743.108C972.215 743.408 972.338 743.54 972.488 743.402C972.639 743.264 974.401 744.599 976.405 746.368C978.409 748.137 980.179 749.585 980.338 749.585C980.497 749.585 981.303 750.027 982.129 750.567C985.177 752.559 991.992 755.374 996.57 756.531C1006.11 758.941 1018.95 757.412 1029.24 752.64L1032.66 751.057L1035.01 752.1C1038.99 753.873 1044.61 753.233 1048.73 750.537C1050.38 749.46 1050.46 749.456 1052.1 750.345C1054.35 751.568 1060.56 751.949 1063.82 751.065C1065.21 750.688 1066.35 750.238 1066.35 750.064C1066.35 749.89 1067.03 749.466 1067.85 749.121C1068.68 748.776 1069.66 748.082 1070.05 747.579C1070.71 746.713 1071 746.758 1075.47 748.408C1081.79 750.735 1085.74 751.272 1094.04 750.928C1101.91 750.601 1105.25 749.538 1108.24 746.405C1109.66 744.919 1110.1 744.734 1111.25 745.133C1113.15 745.794 1124.41 745.71 1127.32 745.014C1132.69 743.731 1136.21 742.235 1137.31 740.773C1137.5 740.514 1137.98 740.481 1138.36 740.7C1138.79 740.945 1138.93 740.892 1138.7 740.564C1138.51 740.27 1138.72 739.377 1139.17 738.578C1139.62 737.78 1140 736.441 1140 735.602C1140.02 730.236 1133.51 722.854 1127.15 721.038C1124.32 720.231 1118.4 719.714 1118.4 720.274C1118.4 720.542 1117.84 719.777 1117.14 718.574C1115.46 715.649 1112.88 714.35 1109.43 714.694C1108 714.837 1106.24 715.307 1105.52 715.737C1104.27 716.491 1104.2 716.459 1103.57 714.874C1102.06 711.097 1095.22 709.233 1090.74 711.379L1088.5 712.45V711.361C1088.5 710.763 1087.82 709.451 1086.98 708.446C1086.15 707.44 1085.59 706.563 1085.74 706.495C1086.06 706.349 1083.15 704.77 1079.51 703.123C1078.07 702.471 1076.99 701.846 1077.11 701.735C1077.76 701.115 1069.49 701.342 1067.41 702.001C1066.09 702.418 1064.98 702.713 1064.95 702.655C1064.92 702.598 1064.63 700.755 1064.3 698.561C1063.88 695.807 1063.07 693.405 1061.67 690.805C1059.6 686.961 1054.73 681.602 1051.92 680.076C1051.06 679.61 1050.48 679.035 1050.64 678.8C1050.8 678.565 1050.72 678.433 1050.47 678.506C1049.58 678.766 1046.44 677.255 1046.79 676.734C1046.98 676.444 1046.9 676.345 1046.6 676.514C1046.3 676.683 1044.14 676.261 1041.79 675.577C1037.07 674.2 1028.69 673.594 1023.99 674.291ZM919.984 748.291C916.695 750.114 911.996 750.856 908.55 750.097C903.964 749.087 904.312 750.256 909.326 752.704C912.102 754.06 915.548 753.713 918.273 751.805C920.181 750.469 922.688 747.666 922.297 747.307C922.185 747.205 921.145 747.648 919.984 748.291ZM1109.03 749.531C1108.04 750.799 1103.62 752.805 1102.61 752.449C1102.18 752.295 1101.61 752.52 1101.35 752.949C1100.97 753.572 1099.66 753.733 1094.8 753.753C1091.46 753.767 1087.93 753.618 1086.95 753.421C1084.2 752.867 1084.85 753.848 1088.23 755.37C1091.83 756.985 1097.15 757.588 1100.48 756.758C1103.08 756.112 1108.42 752.724 1108.43 751.716C1108.43 751.343 1108.72 751.21 1109.08 751.413C1109.45 751.624 1109.57 751.554 1109.36 751.247C1109.16 750.955 1109.37 750.435 1109.83 750.089C1110.71 749.416 1110.93 748.568 1110.22 748.568C1109.98 748.568 1109.45 749.002 1109.03 749.531ZM1025.93 756.706C1020.76 758.818 1016.65 759.754 1012.55 759.754C1009.24 759.754 1009.11 760.378 1012.22 761.326C1015.4 762.294 1021.92 762.203 1024.31 761.158C1026.57 760.172 1029.26 757.997 1030.61 756.068C1031.83 754.33 1031.69 754.348 1025.93 756.706Z" fill="white"/>
<path fill-rule="evenodd" clip-rule="evenodd" d="M113.991 44.2906C109.472 44.9607 102.768 46.7948 99.8163 48.1682C98.3001 48.874 96.7573 49.2915 96.3885 49.0972C96.0192 48.9025 95.8974 48.9264 96.1178 49.1501C96.3382 49.3744 95.466 50.1762 94.1797 50.9329C92.8933 51.689 90.6218 53.43 89.1328 54.8019C87.6432 56.1738 86.1481 57.2197 85.8103 57.1267C85.472 57.0331 85.374 57.1206 85.5916 57.3204C86.1896 57.8701 84.9542 59.664 84.2515 59.2653C83.8955 59.0635 83.7958 59.1499 84.0134 59.4728C84.2183 59.7774 83.9326 60.7857 83.3783 61.7121C79.965 67.4193 80.5048 76.2271 84.8267 80.0863L90.1918 84.8345L83.3783 81.9856C80.0928 80.7194 78.3453 83.1777 78.6238 83.5916C78.7722 83.8112 78.6592 83.9912 78.3735 83.9912C78.0883 83.9912 77.539 84.6904 77.1536 85.5451C76.6619 86.6353 76.2781 86.9384 75.8684 86.5621C74.8711 85.6463 70.399 85.9423 68.4116 87.0553C67.4032 87.6197 66.2819 87.9253 65.9197 87.7347C65.557 87.5435 65.4391 87.5689 65.6567 87.7901C65.8743 88.0118 65.7896 88.6433 65.4684 89.1945C64.8981 90.1733 64.851 90.1677 63.4118 88.9662C60.9559 86.9155 59.226 86.1365 55.7225 85.5034C48.0697 84.1209 39.0331 88.3998 35.6508 95.007C35.0301 96.2197 34.4304 97.2117 34.3179 97.2117C34.2055 97.2117 33.1423 96.897 31.9562 96.5126C27.7355 95.1453 24.4507 95.0278 20.9322 96.1185C19.1364 96.6753 17.4674 97.0175 17.2238 96.8792C16.9801 96.7409 16.8489 96.9305 16.9325 97.3012C17.0161 97.6714 16.6684 97.9455 16.1595 97.9104C15.5869 97.8712 15.3455 98.1133 15.5265 98.546C15.6871 98.9309 15.5653 99.2456 15.2552 99.2456C14.9451 99.2456 14.1721 100.232 13.5364 101.437C12.3951 103.602 9.53555 106.025 8.12238 106.025C7.72202 106.025 7.51049 106.132 7.65225 106.262C8.13235 106.703 5.13159 108.513 2.23993 109.526C0.235914 110.228 -3.05888 110.68 -8.634 111.02C-17.4917 111.559 -20.6437 112.424 -23.4119 115.08L-25 116.604L-23.4412 116.061C-20.204 114.932 -13.2356 115.579 -2.85012 117.973C0.220409 118.681 5.72023 117.609 11.1829 115.239L16.3566 112.994L18.1048 114.175C23.7353 117.974 32.1185 118.252 40.5277 114.919C43.1602 113.875 44.7184 113.497 44.9576 113.844C45.1603 114.139 46.5646 114.765 48.0791 115.235C51.6115 116.332 55.3902 115.913 59.308 113.991C60.9067 113.206 62.2152 112.809 62.2152 113.108C62.2152 113.408 62.3381 113.54 62.4882 113.402C62.6388 113.264 64.4014 114.599 66.4054 116.368C68.4094 118.137 70.1792 119.585 70.3381 119.585C70.497 119.585 71.3033 120.027 72.1289 120.567C75.1767 122.559 81.9922 125.374 86.5695 126.531C96.1089 128.941 108.948 127.412 119.242 122.64L122.657 121.057L125.005 122.1C128.993 123.873 134.608 123.233 138.731 120.537C140.378 119.46 140.459 119.456 142.1 120.345C144.354 121.568 150.564 121.949 153.824 121.065C155.215 120.688 156.352 120.238 156.352 120.064C156.352 119.89 157.027 119.466 157.851 119.121C158.676 118.776 159.664 118.082 160.048 117.579C160.708 116.713 161 116.758 165.473 118.408C171.786 120.735 175.741 121.272 184.04 120.928C191.908 120.601 195.247 119.538 198.243 116.405C199.664 114.919 200.1 114.734 201.248 115.133C203.147 115.794 214.411 115.71 217.322 115.014C222.688 113.731 226.212 112.235 227.308 110.773C227.503 110.514 227.977 110.481 228.363 110.7C228.794 110.945 228.926 110.892 228.705 110.564C228.507 110.27 228.716 109.377 229.169 108.578C229.623 107.78 229.997 106.441 230 105.602C230.022 100.236 223.506 92.854 217.145 91.0383C214.317 90.2308 208.404 89.7137 208.404 90.2735C208.404 90.542 207.837 89.7772 207.145 88.5742C205.461 85.6494 202.876 84.3497 199.431 84.6945C197.998 84.8373 196.24 85.3072 195.525 85.7373C194.272 86.4914 194.2 86.4594 193.568 84.8745C192.063 81.0969 185.221 79.2334 180.738 81.3792L178.502 82.4495V81.3614C178.502 80.7634 177.819 79.451 176.984 78.4457C176.149 77.4405 175.588 76.5628 175.738 76.4952C176.063 76.3488 173.148 74.7699 169.515 73.1235C168.074 72.4711 166.991 71.8462 167.108 71.7353C167.759 71.1155 159.493 71.3417 157.41 72.0007C156.091 72.4182 154.985 72.7126 154.953 72.6552C154.921 72.5977 154.626 70.7555 154.297 68.5614C153.885 65.8069 153.072 63.4054 151.672 60.8045C149.603 56.9609 144.731 51.602 141.917 50.0761C141.057 49.6098 140.483 49.0352 140.642 48.8003C140.8 48.5649 140.724 48.4327 140.473 48.5059C139.583 48.7662 136.437 47.2545 136.787 46.7343C136.982 46.444 136.898 46.3448 136.601 46.5136C136.303 46.683 134.139 46.2614 131.793 45.577C127.068 44.1996 118.688 43.594 113.991 44.2906ZM9.98408 118.291C6.69482 120.114 1.99572 120.856 -1.45024 120.097C-6.03638 119.087 -5.68807 120.256 -0.674444 122.704C2.10205 124.06 5.54801 123.713 8.273 121.805C10.1807 120.469 12.688 117.666 12.2965 117.307C12.1852 117.205 11.1447 117.648 9.98408 118.291ZM199.032 119.531C198.038 120.799 193.624 122.805 192.614 122.449C192.178 122.295 191.608 122.52 191.346 122.949C190.966 123.572 189.658 123.733 184.798 123.753C181.459 123.767 177.928 123.618 176.953 123.421C174.204 122.867 174.85 123.848 178.235 125.37C181.826 126.985 187.148 127.588 190.481 126.758C193.076 126.112 198.416 122.724 198.429 121.716C198.433 121.343 198.718 121.21 199.077 121.413C199.448 121.624 199.566 121.554 199.359 121.247C199.163 120.955 199.374 120.435 199.827 120.089C200.71 119.416 200.929 118.568 200.221 118.568C199.983 118.568 199.449 119.002 199.032 119.531ZM115.929 126.706C110.763 128.818 106.652 129.754 102.546 129.754C99.2426 129.754 99.1147 130.378 102.223 131.326C105.402 132.294 111.921 132.203 114.314 131.158C116.572 130.172 119.264 127.997 120.614 126.068C121.832 124.33 121.694 124.348 115.929 126.706Z" fill="white"/>
<path fill-rule="evenodd" clip-rule="evenodd" d="M363.991 103.291C359.472 103.961 352.768 105.795 349.816 107.168C348.3 107.874 346.757 108.291 346.389 108.097C346.019 107.902 345.897 107.926 346.118 108.15C346.338 108.374 345.466 109.176 344.18 109.933C342.893 110.689 340.622 112.43 339.133 113.802C337.643 115.174 336.148 116.22 335.81 116.127C335.472 116.033 335.374 116.121 335.592 116.32C336.19 116.87 334.954 118.664 334.252 118.265C333.895 118.063 333.796 118.15 334.013 118.473C334.218 118.777 333.933 119.786 333.378 120.712C329.965 126.419 330.505 135.227 334.827 139.086L340.192 143.835L333.378 140.986C330.093 139.719 328.345 142.178 328.624 142.592C328.772 142.811 328.659 142.991 328.373 142.991C328.088 142.991 327.539 143.69 327.154 144.545C326.662 145.635 326.278 145.938 325.868 145.562C324.871 144.646 320.399 144.942 318.412 146.055C317.403 146.62 316.282 146.925 315.92 146.735C315.557 146.543 315.439 146.569 315.657 146.79C315.874 147.012 315.79 147.643 315.468 148.195C314.898 149.173 314.851 149.168 313.412 147.966C310.956 145.915 309.226 145.137 305.722 144.503C298.07 143.121 289.033 147.4 285.651 154.007C285.03 155.22 284.43 156.212 284.318 156.212C284.206 156.212 283.142 155.897 281.956 155.513C277.736 154.145 274.451 154.028 270.932 155.118C269.136 155.675 267.467 156.017 267.224 155.879C266.98 155.741 266.849 155.931 266.932 156.301C267.016 156.671 266.668 156.945 266.159 156.91C265.587 156.871 265.345 157.113 265.527 157.546C265.687 157.931 265.565 158.246 265.255 158.246C264.945 158.246 264.172 159.232 263.536 160.437C262.395 162.602 259.536 165.025 258.122 165.025C257.722 165.025 257.51 165.132 257.652 165.262C258.132 165.703 255.132 167.513 252.24 168.526C250.236 169.228 246.941 169.68 241.366 170.02C232.508 170.559 229.356 171.424 226.588 174.08L225 175.604L226.559 175.061C229.796 173.932 236.764 174.579 247.15 176.973C250.22 177.681 255.72 176.609 261.183 174.239L266.357 171.994L268.105 173.175C273.735 176.974 282.118 177.252 290.528 173.919C293.16 172.875 294.718 172.497 294.958 172.844C295.16 173.139 296.565 173.765 298.079 174.235C301.611 175.332 305.39 174.913 309.308 172.991C310.907 172.206 312.215 171.809 312.215 172.108C312.215 172.408 312.338 172.54 312.488 172.402C312.639 172.264 314.401 173.599 316.405 175.368C318.409 177.137 320.179 178.585 320.338 178.585C320.497 178.585 321.303 179.027 322.129 179.567C325.177 181.559 331.992 184.374 336.57 185.531C346.109 187.941 358.948 186.412 369.242 181.64L372.657 180.057L375.005 181.1C378.993 182.873 384.608 182.233 388.731 179.537C390.378 178.46 390.459 178.456 392.1 179.345C394.354 180.568 400.564 180.949 403.824 180.065C405.215 179.688 406.352 179.238 406.352 179.064C406.352 178.89 407.027 178.466 407.851 178.121C408.676 177.776 409.664 177.082 410.048 176.579C410.708 175.713 411 175.758 415.473 177.408C421.786 179.735 425.741 180.272 434.04 179.928C441.908 179.601 445.247 178.538 448.243 175.405C449.664 173.919 450.1 173.734 451.248 174.133C453.147 174.794 464.411 174.71 467.322 174.014C472.688 172.731 476.212 171.235 477.308 169.773C477.503 169.514 477.977 169.481 478.363 169.7C478.794 169.945 478.926 169.892 478.705 169.564C478.507 169.27 478.716 168.377 479.169 167.578C479.623 166.78 479.997 165.441 480 164.602C480.022 159.236 473.506 151.854 467.145 150.038C464.317 149.231 458.404 148.714 458.404 149.274C458.404 149.542 457.837 148.777 457.145 147.574C455.461 144.649 452.876 143.35 449.431 143.694C447.998 143.837 446.24 144.307 445.525 144.737C444.272 145.491 444.2 145.459 443.568 143.874C442.063 140.097 435.221 138.233 430.738 140.379L428.502 141.45V140.361C428.502 139.763 427.819 138.451 426.984 137.446C426.149 136.44 425.588 135.563 425.738 135.495C426.063 135.349 423.148 133.77 419.515 132.123C418.074 131.471 416.991 130.846 417.108 130.735C417.759 130.115 409.493 130.342 407.41 131.001C406.091 131.418 404.985 131.713 404.953 131.655C404.921 131.598 404.626 129.755 404.297 127.561C403.885 124.807 403.072 122.405 401.672 119.805C399.603 115.961 394.731 110.602 391.917 109.076C391.057 108.61 390.483 108.035 390.642 107.8C390.8 107.565 390.724 107.433 390.473 107.506C389.583 107.766 386.437 106.255 386.787 105.734C386.982 105.444 386.898 105.345 386.601 105.514C386.303 105.683 384.139 105.261 381.793 104.577C377.068 103.2 368.688 102.594 363.991 103.291ZM259.984 177.291C256.695 179.114 251.996 179.856 248.55 179.097C243.964 178.087 244.312 179.256 249.326 181.704C252.102 183.06 255.548 182.713 258.273 180.805C260.181 179.469 262.688 176.666 262.297 176.307C262.185 176.205 261.145 176.648 259.984 177.291ZM449.032 178.531C448.038 179.799 443.624 181.805 442.614 181.449C442.178 181.295 441.608 181.52 441.346 181.949C440.966 182.572 439.658 182.733 434.798 182.753C431.459 182.767 427.928 182.618 426.953 182.421C424.204 181.867 424.85 182.848 428.235 184.37C431.826 185.985 437.148 186.588 440.481 185.758C443.076 185.112 448.416 181.724 448.429 180.716C448.433 180.343 448.718 180.21 449.077 180.413C449.448 180.624 449.566 180.554 449.359 180.247C449.163 179.955 449.374 179.435 449.827 179.089C450.71 178.416 450.929 177.568 450.221 177.568C449.983 177.568 449.449 178.002 449.032 178.531ZM365.929 185.706C360.763 187.818 356.652 188.754 352.546 188.754C349.243 188.754 349.115 189.378 352.223 190.326C355.402 191.294 361.921 191.203 364.314 190.158C366.572 189.172 369.264 186.997 370.614 185.068C371.832 183.33 371.694 183.348 365.929 185.706Z" fill="white"/>
</g>
</svg>
