<svg width="570" height="235" viewBox="0 0 570 235" fill="none" xmlns="http://www.w3.org/2000/svg">
<g filter="url(#filter0_d_38_90)">
<path fill-rule="evenodd" clip-rule="evenodd" d="M301.991 8.29057C297.472 8.96075 290.768 10.7948 287.816 12.1682C286.3 12.874 284.757 13.2915 284.389 13.0972C284.019 12.9025 283.897 12.9264 284.118 13.1501C284.338 13.3744 283.466 14.1762 282.18 14.9329C280.893 15.689 278.622 17.43 277.133 18.8019C275.643 20.1738 274.148 21.2197 273.81 21.1267C273.472 21.0331 273.374 21.1206 273.592 21.3204C274.19 21.8701 272.954 23.664 272.252 23.2653C271.895 23.0635 271.796 23.1499 272.013 23.4728C272.218 23.7774 271.933 24.7857 271.378 25.7121C267.965 31.4193 268.505 40.2271 272.827 44.0863L278.192 48.8345L271.378 45.9856C268.093 44.7194 266.345 47.1777 266.624 47.5916C266.772 47.8112 266.659 47.9912 266.373 47.9912C266.088 47.9912 265.539 48.6904 265.154 49.5451C264.662 50.6353 264.278 50.9384 263.868 50.5621C262.871 49.6463 258.399 49.9423 256.412 51.0553C255.403 51.6197 254.282 51.9253 253.92 51.7347C253.557 51.5435 253.439 51.5689 253.657 51.7901C253.874 52.0118 253.79 52.6433 253.468 53.1945C252.898 54.1733 252.851 54.1677 251.412 52.9662C248.956 50.9155 247.226 50.1365 243.722 49.5034C236.07 48.1209 227.033 52.3998 223.651 59.007C223.03 60.2197 222.43 61.2117 222.318 61.2117C222.206 61.2117 221.142 60.897 219.956 60.5126C215.736 59.1453 212.451 59.0278 208.932 60.1185C207.136 60.6753 205.467 61.0175 205.224 60.8792C204.98 60.7409 204.849 60.9305 204.932 61.3012C205.016 61.6714 204.668 61.9455 204.159 61.9104C203.587 61.8712 203.345 62.1133 203.527 62.546C203.687 62.9309 203.565 63.2456 203.255 63.2456C202.945 63.2456 202.172 64.2316 201.536 65.4372C200.395 67.6018 197.536 70.0252 196.122 70.0252C195.722 70.0252 195.51 70.132 195.652 70.2622C196.132 70.703 193.132 72.5127 190.24 73.5256C188.236 74.2278 184.941 74.6804 179.366 75.0195C170.508 75.5585 167.356 76.4245 164.588 79.0803L163 80.6037L164.559 80.0606C167.796 78.9318 174.764 79.5791 185.15 81.973C188.22 82.6808 193.72 81.6094 199.183 79.2394L204.357 76.9945L206.105 78.1746C211.735 81.974 220.118 82.2521 228.528 78.9185C231.16 77.8746 232.718 77.4968 232.958 77.8441C233.16 78.1391 234.565 78.765 236.079 79.2353C239.611 80.3321 243.39 79.9131 247.308 77.9906C248.907 77.206 250.215 76.8089 250.215 77.1084C250.215 77.4079 250.338 77.5395 250.488 77.4018C250.639 77.264 252.401 78.5987 254.405 80.3677C256.409 82.1372 258.179 83.5849 258.338 83.5849C258.497 83.5849 259.303 84.0268 260.129 84.5668C263.177 86.5595 269.992 89.3744 274.57 90.5307C284.109 92.9409 296.948 91.4119 307.242 86.6403L310.657 85.0569L313.005 86.1003C316.993 87.8729 322.608 87.2332 326.731 84.5368C328.378 83.4603 328.459 83.4557 330.1 84.3451C332.354 85.568 338.564 85.9493 341.824 85.0651C343.215 84.6883 344.352 84.2378 344.352 84.0639C344.352 83.8905 345.027 83.4659 345.851 83.1211C346.676 82.7759 347.664 82.0823 348.048 81.5794C348.708 80.7135 349 80.7582 353.473 82.4077C359.786 84.7351 363.741 85.272 372.04 84.9278C379.908 84.6013 383.247 83.5381 386.243 80.4048C387.664 78.9186 388.1 78.734 389.248 79.1331C391.147 79.7936 402.411 79.7103 405.322 79.0141C410.688 77.7312 414.212 76.2348 415.308 74.7729C415.503 74.5141 415.977 74.481 416.363 74.6997C416.794 74.9448 416.926 74.8924 416.705 74.5639C416.507 74.27 416.716 73.3766 417.169 72.5783C417.623 71.78 417.997 70.4406 418 69.6017C418.022 64.2362 411.506 56.854 405.145 55.0383C402.317 54.2308 396.404 53.7137 396.404 54.2735C396.404 54.542 395.837 53.7772 395.145 52.5742C393.461 49.6494 390.876 48.3497 387.431 48.6945C385.998 48.8373 384.24 49.3072 383.525 49.7373C382.272 50.4914 382.2 50.4594 381.568 48.8745C380.063 45.0969 373.221 43.2334 368.738 45.3792L366.502 46.4495V45.3614C366.502 44.7634 365.819 43.451 364.984 42.4457C364.149 41.4405 363.588 40.5628 363.738 40.4952C364.063 40.3488 361.148 38.7699 357.515 37.1235C356.074 36.4711 354.991 35.8462 355.108 35.7353C355.759 35.1155 347.493 35.3417 345.41 36.0007C344.091 36.4182 342.985 36.7126 342.953 36.6552C342.921 36.5977 342.626 34.7555 342.297 32.5614C341.885 29.8069 341.072 27.4054 339.672 24.8045C337.603 20.9609 332.731 15.602 329.917 14.0761C329.057 13.6098 328.483 13.0352 328.642 12.8003C328.8 12.5649 328.724 12.4327 328.473 12.5059C327.583 12.7662 324.437 11.2545 324.787 10.7343C324.982 10.444 324.898 10.3448 324.601 10.5136C324.303 10.683 322.139 10.2614 319.793 9.57703C315.068 8.19955 306.688 7.59395 301.991 8.29057ZM197.984 82.2908C194.695 84.1137 189.996 84.8556 186.55 84.0969C181.964 83.0866 182.312 84.2561 187.326 86.7039C190.102 88.0595 193.548 87.7132 196.273 85.8049C198.181 84.4686 200.688 81.6659 200.297 81.3069C200.185 81.2047 199.145 81.6476 197.984 82.2908ZM387.032 83.5315C386.038 84.7991 381.624 86.8051 380.614 86.4491C380.178 86.2951 379.608 86.5203 379.346 86.949C378.966 87.5724 377.658 87.7331 372.798 87.7534C369.459 87.7671 365.928 87.6176 364.953 87.4209C362.204 86.8666 362.85 87.848 366.235 89.3699C369.826 90.9848 375.148 91.5878 378.481 90.758C381.076 90.1117 386.416 86.7237 386.429 85.7159C386.433 85.3432 386.718 85.21 387.077 85.4129C387.448 85.6239 387.566 85.5537 387.359 85.2466C387.163 84.9552 387.374 84.4346 387.827 84.0888C388.71 83.4161 388.929 82.5679 388.221 82.5679C387.983 82.5679 387.449 83.0017 387.032 83.5315ZM303.929 90.7056C298.763 92.8179 294.652 93.7545 290.546 93.7545C287.243 93.7545 287.115 94.3784 290.223 95.3257C293.402 96.2938 299.921 96.2033 302.314 95.1579C304.572 94.1725 307.264 91.9972 308.614 90.068C309.832 88.3295 309.694 88.3483 303.929 90.7056Z" fill="white"/>
</g>
<g filter="url(#filter1_d_38_90)">
<path fill-rule="evenodd" clip-rule="evenodd" d="M467.278 68.2476C463.433 68.8188 457.728 70.382 455.216 71.5525C453.926 72.154 452.613 72.5098 452.299 72.3442C451.985 72.1783 451.881 72.1986 452.069 72.3893C452.256 72.5804 451.514 73.2638 450.42 73.9087C449.325 74.5531 447.392 76.0369 446.125 77.2062C444.857 78.3754 443.585 79.2668 443.297 79.1875C443.009 79.1078 442.926 79.1823 443.111 79.3526C443.62 79.8211 442.569 81.35 441.971 81.0102C441.668 80.8382 441.583 80.9118 441.768 81.187C441.943 81.4466 441.699 82.306 441.228 83.0956C438.323 87.9597 438.782 95.4662 442.46 98.7554L447.026 102.802L441.228 100.374C438.432 99.295 436.945 101.39 437.182 101.743C437.308 101.93 437.212 102.083 436.969 102.083C436.726 102.083 436.259 102.679 435.931 103.408C435.512 104.337 435.186 104.595 434.837 104.275C433.988 103.494 430.183 103.746 428.491 104.695C427.633 105.176 426.679 105.436 426.371 105.274C426.062 105.111 425.962 105.133 426.147 105.321C426.332 105.51 426.26 106.048 425.987 106.518C425.501 107.352 425.461 107.348 424.237 106.323C422.147 104.576 420.675 103.912 417.693 103.372C411.181 102.194 403.491 105.841 400.613 111.472C400.084 112.505 399.574 113.351 399.478 113.351C399.383 113.351 398.478 113.083 397.469 112.755C393.877 111.59 391.082 111.49 388.087 112.419C386.559 112.894 385.139 113.185 384.932 113.067C384.724 112.95 384.613 113.111 384.684 113.427C384.755 113.743 384.459 113.976 384.026 113.946C383.539 113.913 383.333 114.119 383.487 114.488C383.624 114.816 383.52 115.084 383.256 115.084C382.992 115.084 382.335 115.925 381.794 116.952C380.822 118.797 378.389 120.862 377.186 120.862C376.846 120.862 376.666 120.953 376.786 121.064C377.195 121.44 374.641 122.982 372.181 123.846C370.475 124.444 367.671 124.83 362.927 125.119C355.389 125.578 352.707 126.316 350.351 128.58L349 129.878L350.327 129.415C353.081 128.453 359.011 129.005 367.849 131.045C370.462 131.648 375.142 130.735 379.791 128.715L384.194 126.802L385.681 127.808C390.473 131.046 397.607 131.283 404.763 128.442C407.003 127.552 408.329 127.23 408.533 127.526C408.705 127.778 409.9 128.311 411.189 128.712C414.195 129.647 417.411 129.29 420.744 127.651C422.105 126.982 423.218 126.644 423.218 126.899C423.218 127.154 423.323 127.267 423.451 127.149C423.579 127.032 425.079 128.169 426.784 129.677C428.49 131.185 429.996 132.419 430.131 132.419C430.266 132.419 430.952 132.796 431.655 133.256C434.248 134.954 440.048 137.353 443.943 138.339C452.061 140.393 462.987 139.09 471.747 135.023L474.653 133.674L476.651 134.563C480.045 136.073 484.823 135.528 488.332 133.23C489.734 132.313 489.802 132.309 491.199 133.067C493.117 134.109 498.401 134.434 501.176 133.68C502.359 133.359 503.327 132.975 503.327 132.827C503.327 132.679 503.901 132.318 504.603 132.024C505.304 131.729 506.146 131.138 506.472 130.71C507.034 129.972 507.282 130.01 511.089 131.416C516.461 133.399 519.827 133.857 526.889 133.563C533.585 133.285 536.426 132.379 538.976 129.709C540.185 128.442 540.556 128.285 541.532 128.625C543.148 129.188 552.734 129.117 555.211 128.523C559.777 127.43 562.776 126.155 563.709 124.909C563.875 124.688 564.279 124.66 564.607 124.846C564.974 125.055 565.086 125.011 564.898 124.731C564.73 124.48 564.907 123.719 565.293 123.038C565.679 122.358 565.997 121.216 566 120.501C566.018 115.929 560.473 109.637 555.061 108.089C552.654 107.401 547.623 106.961 547.623 107.438C547.623 107.666 547.14 107.015 546.551 105.989C545.118 103.497 542.918 102.389 539.986 102.683C538.767 102.805 537.271 103.205 536.662 103.572C535.596 104.214 535.535 104.187 534.997 102.836C533.716 99.6167 527.894 98.0284 524.079 99.8572L522.176 100.769V99.8421C522.176 99.3324 521.595 98.2139 520.884 97.3572C520.174 96.5004 519.697 95.7524 519.824 95.6948C520.1 95.57 517.62 94.2244 514.528 92.8211C513.302 92.2651 512.38 91.7325 512.48 91.6381C513.034 91.1098 506 91.3026 504.227 91.8643C503.105 92.2201 502.164 92.471 502.136 92.422C502.109 92.373 501.858 90.803 501.578 88.933C501.227 86.5855 500.536 84.5387 499.344 82.322C497.584 79.0462 493.437 74.479 491.043 73.1785C490.311 72.7811 489.823 72.2914 489.958 72.0912C490.093 71.8905 490.028 71.7778 489.814 71.8402C489.057 72.0621 486.379 70.7737 486.677 70.3304C486.844 70.0829 486.772 69.9984 486.519 70.1423C486.265 70.2866 484.424 69.9274 482.428 69.3441C478.407 68.1701 471.276 67.6539 467.278 68.2476ZM378.771 131.316C375.972 132.87 371.973 133.502 369.04 132.855C365.138 131.994 365.434 132.991 369.701 135.077C372.063 136.233 374.996 135.937 377.315 134.311C378.938 133.172 381.072 130.783 380.739 130.477C380.644 130.39 379.758 130.768 378.771 131.316ZM539.647 132.373C538.801 133.454 535.045 135.163 534.185 134.86C533.814 134.729 533.329 134.921 533.106 135.286C532.783 135.817 531.67 135.954 527.534 135.972C524.692 135.983 521.688 135.856 520.858 135.688C518.519 135.216 519.069 136.052 521.949 137.349C525.005 138.726 529.534 139.24 532.37 138.532C534.578 137.982 539.123 135.094 539.133 134.235C539.137 133.918 539.38 133.804 539.685 133.977C540 134.157 540.101 134.097 539.926 133.835C539.759 133.587 539.938 133.143 540.324 132.848C541.075 132.275 541.261 131.552 540.658 131.552C540.456 131.552 540.001 131.922 539.647 132.373ZM468.927 138.488C464.532 140.288 461.033 141.086 457.539 141.086C454.728 141.086 454.619 141.618 457.265 142.425C459.969 143.25 465.517 143.173 467.554 142.282C469.475 141.442 471.766 139.589 472.915 137.944C473.951 136.463 473.834 136.479 468.927 138.488Z" fill="white"/>
</g>
<g filter="url(#filter2_d_38_90)">
<path fill-rule="evenodd" clip-rule="evenodd" d="M310.556 86.4953C302.866 87.6376 291.456 90.7639 286.432 93.105C283.852 94.308 281.226 95.0196 280.599 94.6885C279.97 94.3565 279.763 94.3973 280.138 94.7786C280.513 95.1608 279.028 96.5277 276.839 97.8174C274.65 99.1062 270.784 102.074 268.25 104.412C265.714 106.751 263.17 108.534 262.595 108.375C262.019 108.216 261.852 108.365 262.223 108.705C263.24 109.642 261.138 112.7 259.942 112.02C259.336 111.676 259.166 111.824 259.537 112.374C259.885 112.893 259.399 114.612 258.456 116.191C252.646 125.919 253.565 140.932 260.921 147.511L270.052 155.604L258.456 150.748C252.864 148.59 249.89 152.78 250.364 153.486C250.616 153.86 250.424 154.167 249.938 154.167C249.452 154.167 248.517 155.359 247.861 156.816C247.025 158.674 246.371 159.19 245.674 158.549C243.977 156.988 236.365 157.493 232.983 159.39C231.267 160.352 229.358 160.873 228.742 160.548C228.125 160.222 227.924 160.265 228.294 160.642C228.665 161.02 228.52 162.097 227.974 163.036C227.003 164.705 226.923 164.695 224.473 162.647C220.294 159.151 217.349 157.824 211.386 156.745C198.362 154.388 182.982 161.681 177.225 172.944C176.169 175.011 175.148 176.702 174.957 176.702C174.765 176.702 172.956 176.165 170.937 175.51C163.754 173.179 158.163 172.979 152.175 174.838C149.118 175.787 146.278 176.371 145.863 176.135C145.449 175.899 145.225 176.222 145.367 176.854C145.51 177.485 144.918 177.952 144.052 177.893C143.077 177.826 142.666 178.239 142.975 178.976C143.248 179.632 143.041 180.169 142.513 180.169C141.985 180.169 140.669 181.849 139.587 183.904C137.645 187.594 132.778 191.725 130.373 191.725C129.692 191.725 129.332 191.907 129.573 192.129C130.39 192.88 125.283 195.965 120.361 197.691C116.951 198.888 111.343 199.66 101.854 200.238C86.7788 201.157 81.4143 202.633 76.703 207.16L74 209.756L76.653 208.831C82.1626 206.906 94.0225 208.01 111.698 212.09C116.924 213.297 126.285 211.471 135.582 207.431L144.387 203.604L147.363 205.616C156.946 212.092 171.213 212.566 185.526 206.884C190.006 205.104 192.658 204.461 193.065 205.052C193.41 205.555 195.8 206.622 198.378 207.424C204.39 209.293 210.821 208.579 217.489 205.302C220.21 203.965 222.437 203.288 222.437 203.798C222.437 204.309 222.646 204.533 222.901 204.298C223.158 204.064 226.158 206.339 229.568 209.354C232.979 212.37 235.991 214.838 236.262 214.838C236.532 214.838 237.904 215.591 239.31 216.512C244.497 219.908 256.097 224.706 263.887 226.677C280.123 230.786 301.973 228.179 319.494 220.046L325.307 217.347L329.303 219.126C336.089 222.147 345.646 221.057 352.664 216.46C355.467 214.626 355.605 214.618 358.397 216.134C362.233 218.218 372.803 218.868 378.352 217.361C380.718 216.719 382.654 215.951 382.654 215.654C382.654 215.359 383.802 214.635 385.205 214.047C386.609 213.459 388.291 212.277 388.944 211.419C390.068 209.943 390.564 210.02 398.177 212.831C408.921 216.798 415.653 217.714 429.777 217.127C443.169 216.57 448.851 214.758 453.951 209.417C456.369 206.884 457.112 206.569 459.065 207.25C462.296 208.376 481.468 208.233 486.422 207.047C495.555 204.86 501.553 202.309 503.419 199.817C503.749 199.376 504.557 199.32 505.214 199.693C505.948 200.11 506.173 200.021 505.796 199.461C505.459 198.96 505.814 197.437 506.586 196.077C507.358 194.716 507.994 192.433 508 191.003C508.037 181.857 496.947 169.274 486.122 166.179C481.308 164.802 471.245 163.921 471.245 164.875C471.245 165.333 470.28 164.029 469.101 161.979C466.235 156.993 461.836 154.778 455.973 155.366C453.534 155.609 450.542 156.41 449.325 157.143C447.192 158.429 447.07 158.374 445.994 155.672C443.432 149.233 431.788 146.057 424.158 149.714L420.353 151.539V149.684C420.353 148.665 419.19 146.428 417.768 144.714C416.348 143.001 415.393 141.505 415.648 141.39C416.201 141.14 411.24 138.449 405.056 135.642C402.604 134.53 400.761 133.465 400.96 133.276C402.068 132.22 388 132.605 384.454 133.729C382.209 134.44 380.327 134.942 380.273 134.844C380.218 134.746 379.716 131.606 379.157 127.866C378.455 123.171 377.071 119.077 374.689 114.644C371.168 108.092 362.875 98.958 358.086 96.3569C356.623 95.5621 355.646 94.5827 355.916 94.1823C356.185 93.781 356.056 93.5557 355.628 93.6805C354.114 94.1242 348.759 91.5475 349.354 90.6608C349.687 90.1659 349.545 89.9969 349.038 90.2846C348.531 90.5732 344.849 89.8547 340.855 88.6881C332.814 86.3401 318.551 85.3079 310.556 86.4953ZM133.542 212.632C127.943 215.739 119.946 217.004 114.081 215.711C106.275 213.988 106.868 215.982 115.401 220.154C120.127 222.465 125.992 221.875 130.629 218.622C133.876 216.344 138.144 211.567 137.477 210.955C137.288 210.781 135.517 211.536 133.542 212.632ZM455.294 214.747C453.601 216.908 446.09 220.327 444.371 219.72C443.628 219.458 442.658 219.841 442.213 220.572C441.566 221.635 439.34 221.909 431.068 221.943C425.384 221.967 419.375 221.712 417.716 221.376C413.038 220.432 414.137 222.105 419.897 224.699C426.01 227.451 435.068 228.479 440.741 227.065C445.156 225.963 454.245 220.188 454.267 218.47C454.274 217.835 454.76 217.608 455.369 217.954C456.001 218.313 456.203 218.194 455.851 217.67C455.517 217.174 455.876 216.286 456.647 215.697C458.15 214.55 458.523 213.104 457.317 213.104C456.912 213.104 456.003 213.844 455.294 214.747ZM313.855 226.976C305.064 230.576 298.067 232.172 291.079 232.172C285.456 232.172 285.238 233.236 290.529 234.851C295.939 236.501 307.034 236.347 311.108 234.565C314.949 232.885 319.531 229.177 321.83 225.889C323.902 222.925 323.668 222.957 313.855 226.976Z" fill="white"/>
</g>
<g filter="url(#filter3_d_38_90)">
<path fill-rule="evenodd" clip-rule="evenodd" d="M122.278 68.2476C118.433 68.8188 112.728 70.382 110.216 71.5525C108.926 72.154 107.613 72.5098 107.299 72.3442C106.985 72.1783 106.881 72.1986 107.069 72.3893C107.256 72.5804 106.514 73.2638 105.42 73.9087C104.325 74.5531 102.392 76.0369 101.125 77.2062C99.8572 78.3754 98.5849 79.2668 98.2974 79.1875C98.0095 79.1078 97.9261 79.1823 98.1113 79.3526C98.6202 79.8211 97.5689 81.35 96.9709 81.0102C96.6679 80.8382 96.5831 80.9118 96.7683 81.187C96.9426 81.4466 96.6995 82.306 96.2278 83.0956C93.3231 87.9597 93.7825 95.4662 97.4604 98.7554L102.026 102.802L96.2278 100.374C93.4319 99.295 91.9448 101.39 92.1818 101.743C92.3081 101.93 92.212 102.083 91.9688 102.083C91.7261 102.083 91.2587 102.679 90.9307 103.408C90.5123 104.337 90.1857 104.595 89.837 104.275C88.9883 103.494 85.1827 103.746 83.4914 104.695C82.6333 105.176 81.6791 105.436 81.3709 105.274C81.0623 105.111 80.9619 105.133 81.1471 105.321C81.3323 105.51 81.2602 106.048 80.9869 106.518C80.5015 107.352 80.4614 107.348 79.2367 106.323C77.1468 104.576 75.6747 103.912 72.6932 103.372C66.1809 102.194 58.4909 105.841 55.6127 111.472C55.0844 112.505 54.5741 113.351 54.4784 113.351C54.3827 113.351 53.478 113.083 52.4686 112.755C48.8769 111.59 46.0816 111.49 43.0874 112.419C41.5592 112.894 40.1389 113.185 39.9316 113.067C39.7243 112.95 39.6126 113.111 39.6837 113.427C39.7549 113.743 39.459 113.976 39.0259 113.946C38.5386 113.913 38.3332 114.119 38.4873 114.488C38.6239 114.816 38.5203 115.084 38.2564 115.084C37.9925 115.084 37.3347 115.925 36.7937 116.952C35.8225 118.797 33.3891 120.862 32.1865 120.862C31.8458 120.862 31.6658 120.953 31.7864 121.064C32.195 121.44 29.6414 122.982 27.1806 123.846C25.4753 124.444 22.6715 124.83 17.9271 125.119C10.3894 125.578 7.70715 126.316 5.35148 128.58L4 129.878L5.32651 129.415C8.08131 128.453 14.0112 129.005 22.8491 131.045C25.4621 131.648 30.1423 130.735 34.791 128.715L39.1937 126.802L40.6813 127.808C45.4728 131.046 52.6067 131.283 59.7628 128.442C62.003 127.552 63.329 127.23 63.5326 127.526C63.705 127.778 64.9001 128.311 66.1889 128.712C69.1949 129.647 72.4105 129.29 75.7444 127.651C77.1049 126.982 78.2184 126.644 78.2184 126.899C78.2184 127.154 78.323 127.267 78.4507 127.149C78.5789 127.032 80.0788 128.169 81.7842 129.677C83.4896 131.185 84.9956 132.419 85.1308 132.419C85.2661 132.419 85.9522 132.796 86.6548 133.256C89.2484 134.954 95.0483 137.353 98.9435 138.339C107.061 140.393 117.987 139.09 126.747 135.023L129.653 133.674L131.651 134.563C135.045 136.073 139.823 135.528 143.332 133.23C144.734 132.313 144.802 132.309 146.199 133.067C148.117 134.109 153.401 134.434 156.176 133.68C157.359 133.359 158.327 132.975 158.327 132.827C158.327 132.679 158.901 132.318 159.603 132.024C160.304 131.729 161.146 131.138 161.472 130.71C162.034 129.972 162.282 130.01 166.089 131.416C171.461 133.399 174.827 133.857 181.889 133.563C188.585 133.285 191.426 132.379 193.976 129.709C195.185 128.442 195.556 128.285 196.532 128.625C198.148 129.188 207.734 129.117 210.211 128.523C214.777 127.43 217.776 126.155 218.709 124.909C218.875 124.688 219.279 124.66 219.607 124.846C219.974 125.055 220.086 125.011 219.898 124.731C219.73 124.48 219.907 123.719 220.293 123.038C220.679 122.358 220.997 121.216 221 120.501C221.018 115.929 215.473 109.637 210.061 108.089C207.654 107.401 202.623 106.961 202.623 107.438C202.623 107.666 202.14 107.015 201.551 105.989C200.118 103.497 197.918 102.389 194.986 102.683C193.767 102.805 192.271 103.205 191.662 103.572C190.596 104.214 190.535 104.187 189.997 102.836C188.716 99.6167 182.894 98.0284 179.079 99.8572L177.176 100.769V99.8421C177.176 99.3324 176.595 98.2139 175.884 97.3572C175.174 96.5004 174.697 95.7524 174.824 95.6948C175.1 95.57 172.62 94.2244 169.528 92.8211C168.302 92.2651 167.38 91.7325 167.48 91.6381C168.034 91.1098 161 91.3026 159.227 91.8643C158.105 92.2201 157.164 92.471 157.136 92.422C157.109 92.373 156.858 90.803 156.578 88.933C156.227 86.5855 155.536 84.5387 154.344 82.322C152.584 79.0462 148.437 74.479 146.043 73.1785C145.311 72.7811 144.823 72.2914 144.958 72.0912C145.093 71.8905 145.028 71.7778 144.814 71.8402C144.057 72.0621 141.379 70.7737 141.677 70.3304C141.844 70.0829 141.772 69.9984 141.519 70.1423C141.265 70.2866 139.424 69.9274 137.428 69.3441C133.407 68.1701 126.276 67.6539 122.278 68.2476ZM33.7708 131.316C30.9717 132.87 26.9728 133.502 24.0404 132.855C20.1377 131.994 20.4341 132.991 24.7006 135.077C27.0633 136.233 29.9958 135.937 32.3147 134.311C33.9381 133.172 36.0718 130.783 35.7386 130.477C35.6439 130.39 34.7585 130.768 33.7708 131.316ZM194.647 132.373C193.801 133.454 190.045 135.163 189.185 134.86C188.814 134.729 188.329 134.921 188.106 135.286C187.783 135.817 186.67 135.954 182.534 135.972C179.692 135.983 176.688 135.856 175.858 135.688C173.519 135.216 174.069 136.052 176.949 137.349C180.005 138.726 184.534 139.24 187.37 138.532C189.578 137.982 194.123 135.094 194.133 134.235C194.137 133.918 194.38 133.804 194.685 133.977C195 134.157 195.101 134.097 194.926 133.835C194.759 133.587 194.938 133.143 195.324 132.848C196.075 132.275 196.261 131.552 195.658 131.552C195.456 131.552 195.001 131.922 194.647 132.373ZM123.927 138.488C119.532 140.288 116.033 141.086 112.539 141.086C109.728 141.086 109.619 141.618 112.265 142.425C114.969 143.25 120.517 143.173 122.554 142.282C124.475 141.442 126.766 139.589 127.915 137.944C128.951 136.463 128.834 136.479 123.927 138.488Z" fill="white"/>
</g>
<defs>
<filter id="filter0_d_38_90" x="159" y="0" width="263" height="96" filterUnits="userSpaceOnUse" color-interpolation-filters="sRGB">
<feFlood flood-opacity="0" result="BackgroundImageFix"/>
<feColorMatrix in="SourceAlpha" type="matrix" values="0 0 0 0 0 0 0 0 0 0 0 0 0 0 0 0 0 0 127 0" result="hardAlpha"/>
<feOffset dy="-4"/>
<feGaussianBlur stdDeviation="2"/>
<feComposite in2="hardAlpha" operator="out"/>
<feColorMatrix type="matrix" values="0 0 0 0 0 0 0 0 0 0 0 0 0 0 0 0 0 0 0.25 0"/>
<feBlend mode="normal" in2="BackgroundImageFix" result="effect1_dropShadow_38_90"/>
<feBlend mode="normal" in="SourceGraphic" in2="effect1_dropShadow_38_90" result="shape"/>
</filter>
<filter id="filter1_d_38_90" x="345" y="60" width="225" height="83" filterUnits="userSpaceOnUse" color-interpolation-filters="sRGB">
<feFlood flood-opacity="0" result="BackgroundImageFix"/>
<feColorMatrix in="SourceAlpha" type="matrix" values="0 0 0 0 0 0 0 0 0 0 0 0 0 0 0 0 0 0 127 0" result="hardAlpha"/>
<feOffset dy="-4"/>
<feGaussianBlur stdDeviation="2"/>
<feComposite in2="hardAlpha" operator="out"/>
<feColorMatrix type="matrix" values="0 0 0 0 0 0 0 0 0 0 0 0 0 0 0 0 0 0 0.25 0"/>
<feBlend mode="normal" in2="BackgroundImageFix" result="effect1_dropShadow_38_90"/>
<feBlend mode="normal" in="SourceGraphic" in2="effect1_dropShadow_38_90" result="shape"/>
</filter>
<filter id="filter2_d_38_90" x="70" y="78" width="442" height="158" filterUnits="userSpaceOnUse" color-interpolation-filters="sRGB">
<feFlood flood-opacity="0" result="BackgroundImageFix"/>
<feColorMatrix in="SourceAlpha" type="matrix" values="0 0 0 0 0 0 0 0 0 0 0 0 0 0 0 0 0 0 127 0" result="hardAlpha"/>
<feOffset dy="-4"/>
<feGaussianBlur stdDeviation="2"/>
<feComposite in2="hardAlpha" operator="out"/>
<feColorMatrix type="matrix" values="0 0 0 0 0 0 0 0 0 0 0 0 0 0 0 0 0 0 0.25 0"/>
<feBlend mode="normal" in2="BackgroundImageFix" result="effect1_dropShadow_38_90"/>
<feBlend mode="normal" in="SourceGraphic" in2="effect1_dropShadow_38_90" result="shape"/>
</filter>
<filter id="filter3_d_38_90" x="0" y="60" width="225" height="83" filterUnits="userSpaceOnUse" color-interpolation-filters="sRGB">
<feFlood flood-opacity="0" result="BackgroundImageFix"/>
<feColorMatrix in="SourceAlpha" type="matrix" values="0 0 0 0 0 0 0 0 0 0 0 0 0 0 0 0 0 0 127 0" result="hardAlpha"/>
<feOffset dy="-4"/>
<feGaussianBlur stdDeviation="2"/>
<feComposite in2="hardAlpha" operator="out"/>
<feColorMatrix type="matrix" values="0 0 0 0 0 0 0 0 0 0 0 0 0 0 0 0 0 0 0.25 0"/>
<feBlend mode="normal" in2="BackgroundImageFix" result="effect1_dropShadow_38_90"/>
<feBlend mode="normal" in="SourceGraphic" in2="effect1_dropShadow_38_90" result="shape"/>
</filter>
</defs>
</svg>
