<svg width="118" height="123" viewBox="0 0 118 123" fill="none" xmlns="http://www.w3.org/2000/svg">
<path fill-rule="evenodd" clip-rule="evenodd" d="M105.171 0.828773C103.927 1.21613 100.954 1.57694 98.5638 1.63098C91.7106 1.78604 91.699 1.79723 92.1197 8.18741C92.4989 13.9361 91.9547 17.6414 90.6245 18.3702C90.2399 18.5807 88.8546 18.1056 87.5471 17.3147C85.3426 15.9821 84.5634 12.9754 83.8952 3.21415C83.8589 2.67217 83.223 2.3955 82.4841 2.59922C81.5093 2.86836 81.436 4.39414 82.2189 8.16777C83.6756 15.184 82.6098 18.6564 79.0421 18.5181C75.8411 18.3944 74.2463 15.2908 73.9621 8.63321C73.8649 6.34797 73.3526 4.17784 72.8231 3.81145C72.2774 3.43302 72.0193 6.21025 72.2265 10.2281C72.6299 18.0489 71.3112 21.1212 67.7615 20.633C65.028 20.2574 62.9616 16.0239 62.5362 9.92719C62.0208 2.53201 60.0763 2.77169 60.3812 10.1918C60.7089 18.1645 59.3102 21.8667 56.1426 21.4079C54.8753 21.2236 53.3974 20.4204 52.8589 19.6221C52.1271 18.5369 51.6675 18.4483 51.0415 19.2706C50.5808 19.8767 50.4362 19.502 50.722 18.4395C51.4771 15.6232 50.9434 5.48039 50.0259 5.21197C49.1803 4.96461 48.7403 9.47134 49.3151 12.4891C49.5097 13.5119 49.2793 15.6815 48.8026 17.3112C48.1534 19.5302 47.2616 20.3706 45.2493 20.6603C41.723 21.1676 40.7533 19.6815 39.5114 11.8634C38.2884 4.1695 36.909 4.56823 37.7575 12.3703C38.256 16.9526 38.0209 18.7322 36.6585 20.6967C33.1881 25.7037 29.4486 21.8966 28.2382 12.1226C27.888 9.29866 27.2175 6.87492 26.7472 6.73734C26.2779 6.60004 26.1411 8.31773 26.4439 10.5558C27.164 15.8656 26.1243 21.8524 24.2643 23.1067C23.4527 23.6549 21.6511 23.9936 20.2617 23.8602C16.9408 23.5409 14.747 18.6669 14.9942 12.1554C15.1269 8.66004 14.7865 7.47685 13.759 7.86186C12.9785 8.15447 9.67833 8.47998 6.4264 8.58725L0.512242 8.78049L1.01774 13.1856C1.29547 15.6091 1.67129 19.8627 1.85162 22.6369C2.03291 25.4114 2.56228 27.7939 3.02873 27.9304C3.49518 28.0668 5.66541 27.889 7.85281 27.5349C11.7747 26.9006 11.8444 26.9293 12.9927 29.6751C13.6325 31.2064 14.0677 32.7601 13.9599 33.1286C13.4318 34.934 9.91289 36.4489 6.83893 36.1935C4.94994 36.0369 3.07578 36.3815 2.67391 36.961C2.1459 37.7224 2.88288 38.088 5.33593 38.2826C13.3457 38.9181 15.6886 41.1986 13.0136 45.759C11.9896 47.5036 10.6042 48.0934 7.48199 48.1136C2.44824 48.1466 1.26138 49.9207 6.11166 50.1622C7.94763 50.2544 10.9731 50.729 12.8358 51.2177C16.0733 52.0679 16.1793 52.2541 15.2488 55.4348C14.3279 58.5829 14.0107 58.7589 9.33995 58.7157C6.40769 58.6883 4.24166 59.2258 4.00356 60.0397C3.67899 61.1492 4.75261 61.3257 9.63594 60.9664C15.4509 60.5388 15.6958 60.599 16.4372 62.6486C17.4901 65.5635 17.1855 66.1631 13.68 68.081C11.0312 69.5316 8.03175 69.6128 5.39464 68.3058C4.97232 68.0968 4.65089 68.5331 4.68138 69.2765C4.73849 70.7196 9.22118 71.858 12.3121 71.215C14.3824 70.7839 17.2223 75.401 16.4692 77.9751C15.84 80.126 11.4398 81.4446 8.1257 80.4751C6.35395 79.9568 5.39841 80.1388 5.43288 80.9897C5.49073 82.4268 10.0315 83.5269 13.1905 82.8684C14.5884 82.5772 15.478 83.1479 16.4802 84.979C17.2359 86.3597 17.7219 87.9397 17.5604 88.4915C17.1238 89.984 11.3871 92.8902 9.79577 92.4247C8.67572 92.097 6.70182 93.5554 6.27028 95.0306C6.21974 95.2034 8.17741 95.0113 10.6204 94.6028C15.5126 93.7855 18.2084 94.9847 18.9007 98.2848C19.5417 101.34 17.0806 103.491 11.8037 104.491C6.77971 105.441 5.91644 107.067 6.66631 114.156C7.01311 117.433 7.69974 118.879 9.08368 119.249C11.2072 119.815 24.4975 118.797 22.8441 118.195C21.3271 117.643 20.8809 112.757 21.9987 108.936C23.9765 102.175 30.218 105.187 29.9245 112.761C29.8675 114.242 30.1912 116.131 30.6444 116.957C32.1273 119.667 32.9127 117.766 32.0952 113.447C31.148 108.447 31.6395 106.108 33.5197 106.658C34.2683 106.877 35.6268 106.995 36.5385 106.92C38.1024 106.792 39.0536 110.051 39.1392 115.838C39.1561 116.949 39.8003 117.6 40.8013 117.519C42.2289 117.401 42.3063 116.997 41.4118 114.328C39.3142 108.074 41.2398 103.707 45.5387 104.965C48.418 105.807 49.8121 108.325 49.9708 112.968C50.0528 115.352 50.6009 116.563 51.5638 116.484C52.7478 116.386 52.8452 115.669 52.0679 112.78C50.8171 108.134 51.987 104.117 54.7609 103.536C58.0569 102.843 59.3472 104.516 59.9824 110.301C60.3271 113.443 61.1751 115.79 62.0581 116.049C64.0208 116.623 64.1076 116.03 62.4903 113.075C59.7125 108 61.8092 102.279 66.2252 102.883C67.8601 103.107 68.3428 104.192 68.6214 108.273C69.0067 113.915 69.6151 115.853 70.7996 115.205C71.2303 114.969 71.2103 112.558 70.7554 109.846C69.7326 103.748 71.7314 100.84 75.7729 102.546C77.7111 103.364 78.4479 104.746 79.105 108.793C79.5691 111.651 80.5825 114.174 81.357 114.401C82.4915 114.733 82.5721 114.101 81.7743 111.137C80.1335 105.042 82.2803 101.126 86.5734 102.382C87.0878 102.533 87.7739 105.078 88.0988 108.038C88.4237 110.998 89.2729 113.591 89.9869 113.8C90.9525 114.082 91.0319 113.241 90.2948 110.504C89.0218 105.773 90.1701 101.752 92.9628 101.166C96.2431 100.478 97.7086 102.267 98.5463 107.98C99.2854 113.025 99.4318 113.219 102.866 113.694C104.822 113.964 108.752 113.868 111.599 113.482C116.471 112.822 116.79 112.6 116.989 109.722C117.105 108.04 116.712 104.136 116.117 101.045L115.034 95.4264L111.642 96.3385C109.776 96.8408 106.844 96.8428 105.128 96.3439C102.463 95.5683 102.107 95.0965 102.689 93.1049C103.847 89.1478 110.196 87.2562 113.604 89.8537C114.662 90.659 114.935 90.3815 114.911 88.5252C114.896 87.2349 114.705 85.4237 114.489 84.5008C114.16 83.0959 114.01 83.098 113.568 84.5179C112.972 86.4327 108.928 87.0416 104.809 85.8368C99.3214 84.2313 101.573 79.9481 108.523 78.7711C111.556 78.2581 113.554 77.3142 113.855 76.254C114.13 75.2802 113.913 74.8864 113.344 75.3303C111.659 76.6432 106.456 76.9414 102.978 75.9238C100.442 75.182 99.781 74.5541 100.163 73.2488C101.01 70.3513 104.353 68.4378 108.833 68.2846C111.191 68.2042 113.225 67.7751 113.355 67.3317C113.673 66.2443 112.979 66.1163 107.078 66.1758C96.1301 66.2844 96.6547 58.6214 107.641 57.9552C111.044 57.7483 112.828 57.1503 112.754 56.242C112.665 55.1584 111.656 55.032 108.252 55.6771C98.893 57.4487 94.3842 51.7339 102.367 48.2177C104.467 47.2931 107.458 46.6471 109.016 46.7838C110.858 46.9445 111.805 46.5235 111.727 45.5777C111.632 44.4183 110.685 44.2975 107.03 44.9798C104.512 45.4497 101.993 46.2237 101.434 46.6986C100.718 47.3071 100.515 47.2061 100.751 46.3594C100.937 45.6978 100.253 44.9112 99.2326 44.6127C98.1865 44.3067 97.3563 43.1021 97.328 41.8488C97.2685 39.235 100.148 37.3663 105.811 36.3431C107.889 35.9675 109.99 34.8401 110.48 33.8374C111.302 32.1563 111.233 32.1123 109.606 33.2743C107.399 34.85 102.74 35.2197 98.9739 34.1179C96.3095 33.3385 96.1856 33.0532 97.3021 30.2697C98.355 27.6427 99.3263 27.1079 104.971 26.0386C108.524 25.3654 111.03 24.5343 110.537 24.1932C110.045 23.8513 107.639 23.9509 105.191 24.4153C102.743 24.8784 99.659 24.9412 98.3364 24.5542C95.7489 23.7973 94.3288 20.0717 95.861 18.061C96.9689 16.6066 107.707 14.5059 108.653 15.559C109.032 15.9804 109.14 12.7486 108.892 8.37725C108.644 4.00685 108.214 0.362499 107.937 0.278195C107.658 0.193611 106.413 0.442091 105.171 0.828773ZM104.892 5.18679C106.828 8.72579 104.809 11.2587 99.2066 12.3194C94.5839 13.1947 93.6889 12.3755 93.8797 7.44574C94.0849 2.13575 102.3 0.450387 104.892 5.18679ZM75.0408 4.19452C75.2127 4.81786 75.5432 5.3834 75.7764 5.45163C76.0096 5.51985 76.326 5.14355 76.4804 4.61568C76.6349 4.0878 76.3034 3.52197 75.7448 3.35856C75.1862 3.19515 74.8689 3.57118 75.0408 4.19452ZM93.1917 22.6158C94.5805 24.8777 95.0559 29.7241 98.7107 78.8431C98.9498 82.0648 99.5494 87.1383 100.042 90.1164C100.534 93.0955 100.727 96.2525 100.469 97.1326C100.007 98.7124 94.5682 99.6104 87.8795 99.2103C86.1897 99.1098 84.2881 99.1995 83.6532 99.4108C83.0184 99.622 78.2086 100.036 72.9647 100.332C67.721 100.626 61.9994 100.952 60.2502 101.055C58.5012 101.157 55.6458 101.301 53.9053 101.374C52.1647 101.448 49.3422 101.75 47.6333 102.046C45.9244 102.342 43.7689 102.363 42.8446 102.093C41.9194 101.822 40.8347 101.78 40.4337 102C39.672 102.417 22.5695 103.416 21.4398 103.111C21.0827 103.014 20.735 101.16 20.6683 98.9915C20.6014 96.8235 20.2309 92.6121 19.8455 89.6341C19.4602 86.6561 19.0133 81.8368 18.8516 78.9242C18.6908 76.0119 18.179 67.6572 17.7147 60.3582C17.2503 53.0592 17.1091 46.1017 17.3998 44.8979C17.6915 43.6944 17.4988 42.5794 16.972 42.4211C16.0536 42.1451 15.2923 26.5334 16.1753 26.0864C17.3298 25.502 30.196 24.4168 31.4879 24.7948C32.3027 25.0331 33.8464 25.0169 34.9168 24.7591C37.2193 24.2042 48.5801 23.4069 59.6339 23.0252C63.9757 22.8752 68.5049 22.6186 69.6988 22.4552C72.607 22.0556 91.0119 20.433 91.5395 20.5279C91.7689 20.57 92.512 21.5094 93.1917 22.6158ZM31.4203 7.1323C30.9074 7.59281 30.6335 8.23683 30.8114 8.56185C30.9893 8.88687 31.5857 8.56123 32.137 7.83791C33.2805 6.33659 32.8147 5.87734 31.4203 7.1323ZM85.2947 24.0096C81.3472 24.7959 61.2159 26.1334 46.0816 26.6124C40.0449 26.8042 22.3751 28.0688 20.8539 28.4178C20.3936 28.5238 21.0558 37.2372 22.0396 44.0213C22.5944 47.8481 23.0801 54.5042 23.1178 58.8131C23.1546 63.1217 23.4975 69.3755 23.8784 72.7107C24.2593 76.0458 24.4849 79.0677 24.3799 79.4266C24.2749 79.7856 24.494 82.1992 24.8673 84.7913C25.2395 87.383 25.4951 91.6525 25.4335 94.2778C25.3251 98.9399 25.9152 100.196 27.5301 98.7431C27.9698 98.3477 33.8706 97.9046 40.6428 97.7592C47.4151 97.6138 54.4207 97.2189 56.2097 96.8806C59.2437 96.3074 84.8818 94.7481 92.6796 94.6621C95.3765 94.6321 96.1116 94.2136 95.9422 92.8086C95.8219 91.8096 95.6506 88.8619 95.5633 86.2577C95.476 83.6534 95.1208 79.5642 94.7749 77.1708C94.4281 74.7771 94.1254 70.2344 94.1013 67.0756C94.0772 63.9168 93.7563 59.3687 93.3873 56.9686C93.0184 54.5684 92.2079 46.0096 91.5873 37.9481C90.9656 29.8872 90.191 23.2748 89.8646 23.2543C89.5395 23.2332 87.4823 23.5732 85.2947 24.0096ZM76.3829 31.8571C76.4507 34.8557 73.1215 36.1282 69.9703 34.3061C65.6792 31.8255 66.1231 27.3272 70.6813 27.1103C74.1785 26.9445 76.3116 28.7209 76.3829 31.8571ZM88.7259 35.0574C90.0482 37.7885 87.8855 43.0801 84.9968 44.1824C82.5727 45.107 79.54 44.4365 77.9422 42.6219C76.2984 40.7543 77.9482 34.1925 80.4477 32.6576C83.0957 31.0316 87.3781 32.274 88.7259 35.0574ZM13.1401 16.2495C13.9944 20.6306 13.4141 22.1654 10.3154 23.722C7.95108 24.9089 7.49126 24.8317 5.47097 22.9049C2.02449 19.617 2.23435 15.2596 5.95039 12.9782C9.19179 10.9872 12.3981 12.4462 13.1401 16.2495ZM65.2097 31.0193C66.0651 33.7972 64.8123 35.0561 61.3772 34.8743C59.4167 34.7696 58.5616 34.0527 57.7478 31.8339C57.1628 30.2364 57.1259 28.3502 57.6644 27.6419C59.0711 25.7966 64.3271 28.149 65.2097 31.0193ZM55.5741 31.3898C56.7471 35.2441 54.4815 36.9694 50.4008 35.3297C46.7861 33.8774 46.8727 30.9781 50.5824 29.2773C54.0623 27.6821 54.5027 27.8683 55.5741 31.3898ZM75.6122 40.2649C76.1308 41.6336 76.6752 44.88 76.8227 47.4779C76.9712 50.0761 77.3269 55.5523 77.6137 59.6475C77.9013 63.743 78.2844 69.596 78.4668 72.6553L78.7978 78.2159L76.4011 78.7192C72.6616 79.5028 56.5227 80.0755 51.0027 79.6193C48.264 79.3933 44.7842 79.5849 43.2701 80.0453C41.6514 80.5387 40.2755 80.4269 39.9304 79.7758C39.6068 79.1654 39.1 74.3764 38.8025 69.132C37.7732 50.9496 37.3984 42.0483 37.63 41.2565C37.8931 40.3571 46.5327 39.1389 51.2141 39.3415C52.912 39.4141 55.32 39.1964 56.5655 38.8565C57.8111 38.5165 61.3152 38.1705 64.3528 38.087C67.3904 38.0035 69.7698 37.5524 69.6408 37.0854C69.0563 34.966 74.7566 38.0006 75.6122 40.2649ZM45.6821 31.554C47.2381 33.2834 45.256 36.9067 42.8064 36.811C37.0533 36.5888 34.3024 31.7852 38.8421 29.8864C41.1782 28.9101 43.8993 29.5738 45.6821 31.554ZM72.7738 40.8463C72.3029 41.2702 68.2182 41.834 63.6966 42.1002C59.1753 42.3654 54.9552 42.7583 54.3193 42.9734C53.6836 43.1875 50.7116 43.4382 47.7152 43.5306L42.2671 43.6976L43.1138 47.2711C44.5386 53.2851 45.76 74.7963 44.7516 76.1204C44.2001 76.8447 44.3591 77.5299 45.1317 77.7559C45.8631 77.9699 46.7125 77.8193 47.0208 77.4209C47.6303 76.6302 64.0379 75.3922 71.0814 75.6054C76.1274 75.7583 76.6026 74.9388 75.5505 67.9002C75.1475 65.2036 74.55 57.8396 74.2237 51.5364C73.8973 45.2332 73.2447 40.4225 72.7738 40.8463ZM90.709 47.5893C92.1006 51.1346 91.4247 52.6685 87.5664 54.7239C82.7487 57.2915 79.2147 56.2046 78.5254 51.9436C77.922 48.2184 79.0132 46.9101 83.391 46.1101C87.863 45.2939 89.9763 45.7204 90.709 47.5893ZM34.5714 34.0852C35.5424 35.8592 35.5813 37.2115 34.6988 38.5506C33.0818 41.0043 33.3613 40.8787 29.5673 40.8587C26.7409 40.8435 26.1633 40.4495 25.1057 37.8177C23.5385 33.9146 23.7029 33.5272 27.5461 32.0967C31.621 30.5798 32.842 30.9256 34.5714 34.0852ZM72.0083 47.673C71.8155 49.0159 69.8827 50.7896 66.5527 52.6775C61.0644 55.7887 59.4256 55.5281 62.4501 52.0244C63.5153 50.7908 63.8113 50.021 63.1529 50.2024C60.9621 50.8066 63.0115 47.1562 65.7756 45.5288C69.1033 43.5704 72.4338 44.7155 72.0083 47.673ZM59.6831 49.8792L58.4575 54.3749L56.0331 50.2357C53.1618 45.3344 54.242 42.5715 58.3515 44.3051C60.7193 45.3041 60.8174 45.7131 59.6831 49.8792ZM4.18708 30.029C3.19303 30.0008 2.25759 30.3919 2.10878 30.9005C1.94622 31.4563 2.72131 31.6382 4.05894 31.3575C5.28006 31.101 6.33787 30.6905 6.40947 30.4458C6.48135 30.2001 6.41793 30.0179 6.26752 30.0406C6.1171 30.0633 5.18086 30.0582 4.18708 30.029ZM53.4593 48.1533C54.0637 49.0469 54.967 51.2481 55.4664 53.0456L56.3752 56.3143L52.8687 54.5529C47.1275 51.6689 44.4721 47.3934 47.4209 45.7794C48.7784 45.0356 52.2807 46.4124 53.4593 48.1533ZM91.0387 59.9323C92.1019 62.1282 91.9768 62.7126 89.7625 65.9261C86.6486 70.4446 83.2134 71.164 80.4156 67.8846C77.3753 64.3195 79.1868 59.3951 84.0285 58.0598C88.7615 56.7541 89.6091 56.9802 91.0387 59.9323ZM72.3631 57.1415C72.0476 59.3383 68.1091 60.5138 64.5512 59.4729C61.9416 58.7095 63.1001 55.4226 66.3729 54.3035C69.7974 53.1329 72.7386 54.5257 72.3631 57.1415ZM32.0551 45.4259C33.0588 49.8017 28.2862 52.1939 24.9957 48.9641C23.0212 47.0268 23.4186 45.0593 26.0774 43.6032C28.6115 42.217 31.5213 43.1047 32.0551 45.4259ZM59.9379 57.6024C59.7062 58.3942 59.0848 58.9157 58.5569 58.7613C58.029 58.6069 57.7867 57.8327 58.0183 57.0408C58.2499 56.249 58.8714 55.7275 59.3992 55.882C59.9271 56.0364 60.1695 56.8106 59.9379 57.6024ZM54.8002 57.9978C55.6334 60.8765 49.3703 63.958 46.7477 61.9603C44.909 60.5597 45.2108 56.2407 47.2421 54.8709C49.0467 53.6526 54.1549 55.7658 54.8002 57.9978ZM72.1383 66.6499C76.1574 73.5759 71.8696 74.8201 66.2517 68.3588C59.9321 61.0911 59.639 57.9401 65.8043 63.5487L68.4376 65.9444L66.6387 63.1895L64.8398 60.4347L67.5366 61.9008C69.0198 62.7077 71.09 64.8449 72.1383 66.6499ZM54.5273 70.8335C53.004 73.8397 50.0253 76.0618 48.2247 75.535C47.0903 75.2032 49.3427 69.6867 52.9592 63.942L55.1503 60.4622L55.5786 64.1873C55.8317 66.3889 55.4011 69.1074 54.5273 70.8335ZM62.0076 68.4207C62.6378 73.0123 61.7299 75.3182 59.5435 74.6786C57.7477 74.1532 56.6304 69.9307 57.0985 65.4384C57.4619 61.9595 57.6158 61.793 59.449 62.8919C60.6295 63.6009 61.6486 65.8015 62.0076 68.4207ZM33.877 57.9711C34.2962 59.9681 34.0205 60.5116 32.2647 61.1461C28.1858 62.6201 24.5064 60.3956 24.4352 56.4113C24.4032 54.5901 24.8601 54.1788 26.7191 54.3559C31.881 54.8501 33.3816 55.6079 33.877 57.9711ZM93.1067 76.3556C93.6045 78.732 91.9658 80.3375 88.2481 81.118C85.2708 81.7432 80.9563 79.111 80.8998 76.6366C80.77 70.9473 91.9183 70.6911 93.1067 76.3556ZM59.2509 65.521C59.3349 66.5729 59.7156 67.2626 60.0977 67.0534C60.4795 66.8453 60.4114 65.9845 59.9456 65.1408C59.2725 63.9228 59.1308 64.0012 59.2509 65.521ZM94.0585 81.6498C94.2304 82.2732 93.9131 82.6492 93.3545 82.4858C92.7959 82.3224 92.4644 81.7565 92.6189 81.2287C92.7733 80.7008 93.0897 80.3245 93.3229 80.3927C93.5561 80.4609 93.8866 81.0265 94.0585 81.6498ZM36.3427 66.3463C36.4646 66.5351 36.3389 68.1008 36.0625 69.8256C34.8504 77.3989 24.8814 76.5653 24.2721 68.8395C23.9135 64.2992 29.4285 62.1866 34.3355 64.9839C35.3179 65.5432 36.2211 66.1565 36.3427 66.3463ZM83.8575 83.6147C85.2177 86.4517 82.9406 90.8055 79.9727 91.0427C77.2199 91.2637 74.9558 88.1831 75.7854 85.347C76.3854 83.2959 79.99 80.8256 81.7735 81.2432C82.3603 81.3815 83.2987 82.4479 83.8575 83.6147ZM79.1196 84.6345C78.9562 85.193 79.3322 85.5104 79.9556 85.3385C80.5789 85.1666 81.1445 84.8361 81.2127 84.6029C81.2809 84.3696 80.9046 84.0533 80.3767 83.8988C79.8488 83.7444 79.283 84.0759 79.1196 84.6345ZM4.48268 63.7692C3.98785 64.2142 4.32555 64.488 5.27549 64.4106C7.12453 64.2587 7.63009 63.6595 6.24994 63.2558C5.75277 63.1103 4.95791 63.3414 4.48268 63.7692ZM73.5086 89.5685C72.7699 92.0937 68.8314 93.3546 66.5258 91.8049C64.1036 90.1763 63.0933 84.3305 65.0104 83.0378C69.0655 80.3023 74.9062 84.7908 73.5086 89.5685ZM62.3141 87.0439C63.1136 91.1422 62.0451 92.8145 58.4456 93.0982C54.9304 93.3754 53.7923 92.3934 52.7985 88.2257C51.8925 84.4275 52.5516 83.3534 55.9973 83.0111C60.1263 82.6019 61.6355 83.5654 62.3141 87.0439ZM34.6354 79.1135C36.795 84.364 32.5102 89.5694 28.1384 87.0047C24.1105 84.6428 25.7356 78.1009 30.4665 77.6324C33.6458 77.3174 33.9396 77.421 34.6354 79.1135ZM114.853 102.915C116.885 106.627 115.035 109.283 109.805 110.161C105.772 110.838 104.657 110.668 102.842 109.1C100.231 106.847 100.008 104.034 102.257 101.741C105.3 98.6416 112.901 99.3492 114.853 102.915ZM50.9973 88.474C52.0976 92.4665 52.0646 92.6256 49.9678 93.3823C47.028 94.4457 43.3158 93.2201 41.7505 90.6711C40.1495 88.0627 40.6811 86.0458 43.413 84.3684C46.836 82.2659 49.7151 83.8249 50.9973 88.474ZM39.655 91.1917C40.4516 94.9901 38.9111 96.4629 34.1071 96.4943C26.4272 96.544 25.2998 92.8009 31.9817 89.4346C36.6123 87.1008 38.907 87.6263 39.655 91.1917ZM73.6978 110.598C73.3592 111.645 73.3124 113.272 73.5924 114.213C74.0454 115.735 74.1424 115.763 74.4696 114.47C74.6724 113.67 74.7202 112.043 74.5751 110.854L74.3121 108.693L73.6978 110.598ZM65.0805 114.817C64.9312 115.327 65.5293 115.687 66.4099 115.615C67.2907 115.543 68.0609 115.314 68.1216 115.106C68.1822 114.899 67.5841 114.54 66.7923 114.308C66.0005 114.076 65.2302 114.305 65.0805 114.817ZM43.7936 111.831C43.7538 113.228 44.0611 113.791 44.5113 113.142C44.9444 112.517 44.9766 111.416 44.5814 110.694C44.0776 109.774 43.843 110.113 43.7936 111.831ZM36.4257 113.325C36.1446 114.457 36.3055 114.751 36.8355 114.076C37.3156 113.464 37.5233 112.625 37.2979 112.213C37.0725 111.802 36.6803 112.302 36.4257 113.325ZM19.4926 111.818C19.471 114.905 19.1293 115.486 16.7421 116.484C13.3693 117.895 10.4644 117.122 8.77145 114.365C5.88036 109.655 10.9894 105.084 16.7299 107.244C19.022 108.106 19.5127 108.918 19.4926 111.818ZM1.70663 121.316C1.5522 121.843 1.88367 122.409 2.44225 122.573C3.00084 122.736 3.31819 122.36 3.14629 121.737C2.97439 121.113 2.64389 120.548 2.41066 120.48C2.17744 120.411 1.86105 120.788 1.70663 121.316Z" fill="#FFFFFF"/>
</svg>
