<svg width="1728" height="3436" viewBox="0 0 1728 3436" fill="none" xmlns="http://www.w3.org/2000/svg">
<g clip-path="url(#clip0_115_3)">
<path d="M16.7143 1790.74C0.511362 1771.3 -17.0418 1782.64 -23.793 1790.74L-15.6915 1973.02C11.8534 2031.35 60.5971 2006.78 81.5259 1987.2C107.451 2056.87 159.84 2025.68 182.794 2001.38C236.263 2037.03 272.585 1997.33 284.062 1973.02C309.987 2016.77 340.772 1991.25 352.924 1973.02C388.571 1998.95 405.584 1973.02 409.634 1956.82C412.875 1994.09 452.842 1983.15 472.421 1973.02C499.966 2023.25 548.709 1993.95 569.638 1973.02C632.829 2008.67 664.83 1958.17 672.931 1928.47C676.172 1889.58 636.475 1893.36 616.221 1900.11C593.537 1869.33 564.912 1887.28 553.435 1900.11C514.953 1841.38 516.979 1926.44 510.903 1900.11C506.042 1879.05 483.223 1880.53 472.421 1883.91C461.079 1851.5 433.939 1863.66 421.787 1873.78C399.103 1841.38 377.229 1860.28 369.127 1873.78C369.127 1841.38 342.122 1844.08 328.62 1849.48C312.417 1798.84 280.011 1831.25 284.062 1813.02C287.303 1798.44 263.808 1792.09 251.656 1790.74C248.416 1753.48 212.499 1752.26 194.946 1756.31C146.337 1668.82 99.079 1719.85 81.5259 1756.31C23.1955 1728.77 14.0138 1767.79 16.7143 1790.74Z" fill="url(#paint0_linear_115_3)"/>
<path d="M1697.32 973.93C1713.52 954.487 1731.07 965.829 1737.82 973.93L1729.72 1156.21C1702.18 1214.54 1653.43 1189.97 1632.5 1170.39C1606.58 1240.06 1554.19 1208.87 1531.24 1184.57C1477.77 1220.21 1441.44 1180.52 1429.97 1156.21C1404.04 1199.96 1373.26 1174.44 1361.1 1156.21C1325.46 1182.14 1308.45 1156.21 1304.39 1140.01C1301.15 1177.28 1261.19 1166.34 1241.61 1156.21C1214.06 1206.44 1165.32 1177.14 1144.39 1156.21C1081.2 1191.86 1049.2 1141.36 1041.1 1111.65C1037.86 1072.77 1077.55 1076.55 1097.81 1083.3C1120.49 1052.51 1149.12 1070.47 1160.59 1083.3C1199.08 1024.56 1197.05 1109.63 1203.13 1083.3C1207.99 1062.24 1230.81 1063.72 1241.61 1067.1C1252.95 1034.69 1280.09 1046.84 1292.24 1056.97C1314.93 1024.56 1336.8 1043.47 1344.9 1056.97C1344.9 1024.56 1371.91 1027.26 1385.41 1032.67C1401.61 982.032 1434.02 1014.44 1429.97 996.209C1426.73 981.627 1450.22 975.281 1462.37 973.93C1465.61 936.664 1501.53 935.449 1519.08 939.499C1567.69 852.004 1614.95 903.043 1632.5 939.499C1690.83 911.954 1700.02 950.976 1697.32 973.93Z" fill="url(#paint1_linear_115_3)"/>
<path d="M1690.97 3126.74C1707.18 3107.3 1724.73 3118.64 1731.48 3126.74L1723.38 3309.02C1695.83 3367.35 1647.09 3342.78 1626.16 3323.2C1600.24 3392.87 1547.85 3361.68 1524.89 3337.38C1471.42 3373.03 1435.1 3333.33 1423.63 3309.02C1397.7 3352.77 1366.92 3327.25 1354.76 3309.02C1319.12 3334.95 1302.1 3309.02 1298.05 3292.82C1294.81 3330.09 1254.85 3319.15 1235.27 3309.02C1207.72 3359.25 1158.98 3329.95 1138.05 3309.02C1074.86 3344.67 1042.86 3294.17 1034.76 3264.47C1031.52 3225.58 1071.21 3229.36 1091.47 3236.11C1114.15 3205.33 1142.78 3223.28 1154.25 3236.11C1192.73 3177.38 1190.71 3262.44 1196.78 3236.11C1201.65 3215.05 1224.46 3216.53 1235.27 3219.91C1246.61 3187.5 1273.75 3199.66 1285.9 3209.78C1308.58 3177.38 1330.46 3196.28 1338.56 3209.78C1338.56 3177.38 1365.57 3180.08 1379.07 3185.48C1395.27 3134.84 1427.68 3167.25 1423.63 3149.02C1420.38 3134.44 1443.88 3128.09 1456.03 3126.74C1459.27 3089.48 1495.19 3088.26 1512.74 3092.31C1561.35 3004.82 1608.61 3055.85 1626.16 3092.31C1684.49 3064.77 1693.67 3103.79 1690.97 3126.74Z" fill="url(#paint2_linear_115_3)"/>
<path d="M0 640.093C4.05703 636.289 15.9746 630.965 31.1886 640.093C45.1347 601.044 90.523 540.593 160.507 611.186C184.342 597.747 236.577 586.844 254.834 650.742C267.005 638.571 294.39 625.031 306.561 668.239C320.761 656.828 353.42 644.809 370.46 688.017C381.617 686.749 405.148 690.299 410.016 714.641C412.452 730.422 400.263 762.786 332.016 766C322.843 783.498 291.288 811.995 238.452 786C218.272 796.453 179.837 807.087 187.543 766C165.36 790.384 112.014 826.702 76.0918 776.897C62.9729 791.574 29.388 812.121 0 776.897V714.641V640.093Z" fill="url(#paint3_linear_115_3)" fill-opacity="0.8"/>
<path d="M0 2882.31C4.05703 2878.51 15.9746 2873.18 31.1886 2882.31C45.1347 2843.26 90.523 2782.81 160.507 2853.41C184.342 2839.97 236.577 2829.06 254.834 2892.96C267.005 2880.79 294.39 2867.25 306.561 2910.46C320.761 2899.05 353.42 2887.03 370.46 2930.24C381.617 2928.97 405.148 2932.52 410.016 2956.86C412.452 2972.64 400.263 3005.01 332.016 3008.22C322.843 3025.72 291.288 3054.21 238.452 3028.22C218.272 3038.67 179.837 3049.31 187.543 3008.22C165.36 3032.6 112.014 3068.92 76.0918 3019.12C62.9729 3033.79 29.388 3054.34 0 3019.12V2956.86V2882.31Z" fill="url(#paint4_linear_115_3)"/>
<path d="M1701.7 193.465C1716.92 184.336 1728.83 189.661 1732.89 193.465V268.013H1322.87C1327.74 243.671 1351.27 240.121 1362.43 241.389C1379.47 198.181 1412.13 210.2 1426.33 221.61C1438.5 178.403 1465.89 191.943 1478.06 204.114C1496.31 140.216 1548.55 151.119 1572.38 164.558C1642.37 93.9653 1687.76 154.416 1701.7 193.465Z" fill="url(#paint5_linear_115_3)"/>
<path d="M1711.96 2301.46C1727.17 2292.34 1739.09 2297.66 1743.14 2301.46V2376.01H1333.13C1338 2351.67 1361.53 2348.12 1372.68 2349.39C1389.72 2306.18 1422.38 2318.2 1436.58 2329.61C1448.75 2286.4 1476.14 2299.94 1488.31 2312.11C1506.57 2248.22 1558.8 2259.12 1582.64 2272.56C1652.62 2201.97 1698.01 2262.42 1711.96 2301.46Z" fill="url(#paint6_linear_115_3)"/>
<g filter="url(#filter0_f_115_3)">
<path d="M1159.35 849.516C1402.99 994.206 1651.85 955.76 1745.82 918.45V997.919C1629.01 1029.62 1524.15 1039.27 1486.32 1040.13C1377.01 1054.6 1251.59 996.77 1202.54 966.046C1132.48 947.44 977.159 752.7 908.258 657.657C852.905 562.556 724.622 457.232 667.399 416.458C464.902 315.155 348.297 324.286 315.307 341.514C181.477 357.365 49.3398 523.849 0.00012207 605.11V568.069C47.88 500.591 177.973 358.054 315.307 327.732C452.64 297.41 613.096 366.783 676.158 405.26C735.716 419.043 863.882 571.227 920.52 645.597C973.071 728.983 1101.63 816.287 1159.35 849.516Z" fill="url(#paint7_linear_115_3)"/>
</g>
<g filter="url(#filter1_f_115_3)">
<path d="M1743.14 554.577C1720.61 548.233 1653 546.364 1562.86 589.631C1522.3 607.159 1430.36 658.539 1387.09 723.841L1314.98 827.002C1303.12 847.534 1265.7 892.404 1210.81 907.627C1182.27 920.648 1115.16 947.289 1075.1 949.693C1026.19 955.869 926.77 969.324 920.36 973.731C842.093 986.951 834.039 1032.07 770.546 1044.8C743.316 1050.25 713.711 1052.08 684.43 1050.99C664.217 1054.76 642.831 1056.08 622.732 1052.93C578.082 1045.96 532.568 1020.98 512.543 998.542C509.297 995.073 506.717 991.496 504.88 987.832C506.677 991.274 509.269 994.874 512.543 998.542C539.205 1027.04 610.797 1048.25 684.43 1050.99C723.305 1043.75 757.842 1027.44 770.546 1016.31C800.908 983.92 883.073 963.41 920.36 957.205L967.434 946.688L999.985 942.682C1029.86 940.345 1098.04 931.665 1131.69 915.64C1161.24 904.623 1227.64 870.169 1256.89 820.492L1334.51 684.78C1352.2 656.402 1404.42 589.631 1471.72 549.569C1502.77 532.208 1582.69 496.686 1654.01 493.481C1675.54 493.147 1723.51 495.885 1743.14 509.506V554.577Z" fill="url(#paint8_linear_115_3)"/>
</g>
<g filter="url(#filter2_f_115_3)">
<path d="M1320.64 395.631C1471.68 405.38 1668.94 321.674 1732.13 299.535C1732.2 329.486 1787.21 425.489 1734.98 442.093C1718.47 447.342 1520.92 482.574 1446.82 492.667C1287.16 504.255 1253.9 451.305 1257.23 423.382C1270.94 377.469 1250.81 357.414 1239.03 353.125L1157.29 341.614L1066.34 337.603L938.799 330.517C761.425 314.239 629.854 267.682 586.241 246.439C462.636 186.232 423.611 153.34 338.959 136.409C215.249 111.666 45.2551 187.778 -58.11 226.381L-55.9144 210.79C43.3243 160.077 194.394 128.163 257.524 118.546C392.253 99.4136 494.059 169.508 558.323 208.533C695.786 285.737 841.749 298.658 941.515 311.23C1017.22 314.801 1090.12 310.001 1117.1 307.155L1204.57 299.535C1283.48 292.924 1300.31 338.123 1298.85 361.548C1291.46 388.864 1310.3 395.651 1320.64 395.631Z" fill="url(#paint9_linear_115_3)"/>
</g>
<g filter="url(#filter3_f_115_3)">
<path d="M1557.72 631.438C1624.78 626.369 1706.37 577.322 1732.8 563.667C1734.69 576.84 1764.84 615.668 1742.89 626.209C1735.95 629.541 1651.22 657.281 1619.25 666.312C1549.72 681.301 1531.81 660.066 1531.54 647.575C1534.73 626.526 1524.63 618.95 1519.18 617.793H1482.51L1442.24 621.663L1385.69 626.446C1306.65 630.274 1245.88 617.942 1225.38 611.298C1169.88 582.594 1125.18 577.279 1109.77 578.209C1077.87 573.425 983.732 619.005 940.647 642.393V635.397C981.166 606.937 1045.65 583.538 1072.83 575.395C1130.92 558.631 1188.98 582.38 1210.74 596.35C1243.49 615.064 1341.02 618.442 1385.69 617.793C1419.22 614.674 1451 608.046 1462.69 605.122L1500.7 596.35C1535.01 588.553 1545.21 607.396 1546.02 617.793C1544.46 630.268 1553.17 632.087 1557.72 631.438Z" fill="url(#paint10_linear_115_3)"/>
</g>
<g filter="url(#filter4_f_115_3)">
<path d="M1343.6 207.831C1535.77 115.591 1679.9 119.576 1727.94 133.099V37.0147C1686.09 7.97589 1583.81 2.13965 1537.91 2.85138C1385.88 9.68408 1215.49 85.4128 1149.3 122.423C1005.81 207.831 894.498 350.179 856.776 410.676L691.297 699.997C628.949 805.903 487.385 879.355 424.396 902.842C352.653 937.005 207.317 955.51 143.616 960.493L74.2219 969.033L-26.1329 991.453V1026.68C-12.4677 1017.29 199.487 988.606 303.757 975.439C389.165 970.315 532.224 913.518 593.078 885.76C710.087 853.305 789.873 757.648 815.139 713.876L968.874 493.949C1061.12 354.734 1257.13 245.198 1343.6 207.831Z" fill="url(#paint11_linear_115_3)"/>
</g>
<g filter="url(#filter5_f_115_3)">
<path d="M1142.65 413.303C1387.86 265.247 1638.32 304.587 1732.89 342.765V261.447C1615.33 229.009 1509.8 219.136 1471.72 218.255C1361.72 203.446 1235.49 262.622 1186.13 294.061C1115.61 313.101 959.298 512.372 889.955 609.627C834.247 706.941 705.141 814.715 647.551 856.438C443.756 960.099 326.403 950.756 293.201 933.126C158.513 916.907 25.5283 746.549 -24.1278 663.397V701.3C24.0592 770.348 154.987 916.202 293.201 947.23C431.415 978.257 592.9 907.27 656.366 867.897C716.306 853.794 845.294 698.068 902.296 621.968C955.184 536.641 1084.57 447.305 1142.65 413.303Z" fill="#D4B58E"/>
</g>
<g filter="url(#filter6_f_115_3)">
<path d="M1365.08 843.756C1516.01 832.349 1672.71 768.029 1732.2 737.294C1736.44 766.943 1742.38 829.744 1732.2 843.756C1722.01 857.768 1575.53 901.923 1503.56 922.249C1347.08 955.987 1306.76 908.192 1306.17 880.078C1313.34 832.702 1290.61 815.649 1278.35 813.044H1195.8L1105.18 821.755L977.898 832.522C799.986 841.136 663.209 813.38 617.06 798.426C492.16 733.822 391.546 721.859 356.851 723.952C285.069 713.185 73.1794 815.773 -23.7927 868.413V852.668C67.4049 788.612 212.549 735.945 273.721 717.619C404.465 679.887 535.136 733.34 584.129 764.783C657.837 806.902 877.353 814.507 977.898 813.044C1053.36 806.024 1124.88 791.107 1151.2 784.526L1236.75 764.783C1313.97 747.233 1336.93 789.645 1338.76 813.044C1335.25 841.124 1354.85 845.218 1365.08 843.756Z" fill="url(#paint12_linear_115_3)"/>
</g>
<g filter="url(#filter7_f_115_3)">
<path d="M1755.23 700.512C1708.96 719.19 1586.43 738.437 1466.46 666.002C1438.05 649.366 1374.75 605.66 1348.87 563.915C1320.98 526.683 1257.88 450.496 1228.55 443.596C1197.5 424.333 1118.5 389.603 1050.88 404.783C983.258 419.963 895.628 525.102 895.628 525.102C895.628 525.102 852.065 567.56 816.815 581.069C791.451 590.79 769.574 604.216 748.458 593.928C758.384 599.794 785.953 608.006 816.815 593.928C829.426 587.93 862.843 569.476 895.628 543.646C965.713 470.75 978.064 440.759 1050.88 411.683C1067.12 403.058 1124.54 398.487 1224.24 449.202C1252.42 469.615 1315.58 522.342 1342.83 569.952C1376.76 617.533 1453.23 715.025 1487.73 724.34C1511.88 739.721 1573.64 768.672 1627.46 761.427C1646.09 760.996 1697.72 756.166 1755.23 740.296V700.512Z" fill="url(#paint13_linear_115_3)"/>
</g>
</g>
<defs>
<filter id="filter0_f_115_3" x="-3" y="317.269" width="1751.82" height="728.144" filterUnits="userSpaceOnUse" color-interpolation-filters="sRGB">
<feFlood flood-opacity="0" result="BackgroundImageFix"/>
<feBlend mode="normal" in="SourceGraphic" in2="BackgroundImageFix" result="shape"/>
<feGaussianBlur stdDeviation="1.5" result="effect1_foregroundBlur_115_3"/>
</filter>
<filter id="filter1_f_115_3" x="501.881" y="490.455" width="1244.26" height="567.24" filterUnits="userSpaceOnUse" color-interpolation-filters="sRGB">
<feFlood flood-opacity="0" result="BackgroundImageFix"/>
<feBlend mode="normal" in="SourceGraphic" in2="BackgroundImageFix" result="shape"/>
<feGaussianBlur stdDeviation="1.5" result="effect1_foregroundBlur_115_3"/>
</filter>
<filter id="filter2_f_115_3" x="-61.1104" y="112.302" width="1821.6" height="384.997" filterUnits="userSpaceOnUse" color-interpolation-filters="sRGB">
<feFlood flood-opacity="0" result="BackgroundImageFix"/>
<feBlend mode="normal" in="SourceGraphic" in2="BackgroundImageFix" result="shape"/>
<feGaussianBlur stdDeviation="1.5" result="effect1_foregroundBlur_115_3"/>
</filter>
<filter id="filter3_f_115_3" x="937.646" y="560.667" width="816.215" height="113.801" filterUnits="userSpaceOnUse" color-interpolation-filters="sRGB">
<feFlood flood-opacity="0" result="BackgroundImageFix"/>
<feBlend mode="normal" in="SourceGraphic" in2="BackgroundImageFix" result="shape"/>
<feGaussianBlur stdDeviation="1.5" result="effect1_foregroundBlur_115_3"/>
</filter>
<filter id="filter4_f_115_3" x="-29.1328" y="-0.204216" width="1760.07" height="1029.89" filterUnits="userSpaceOnUse" color-interpolation-filters="sRGB">
<feFlood flood-opacity="0" result="BackgroundImageFix"/>
<feBlend mode="normal" in="SourceGraphic" in2="BackgroundImageFix" result="shape"/>
<feGaussianBlur stdDeviation="1.5" result="effect1_foregroundBlur_115_3"/>
</filter>
<filter id="filter5_f_115_3" x="-27.1279" y="212.918" width="1763.02" height="744.948" filterUnits="userSpaceOnUse" color-interpolation-filters="sRGB">
<feFlood flood-opacity="0" result="BackgroundImageFix"/>
<feBlend mode="normal" in="SourceGraphic" in2="BackgroundImageFix" result="shape"/>
<feGaussianBlur stdDeviation="1.5" result="effect1_foregroundBlur_115_3"/>
</filter>
<filter id="filter6_f_115_3" x="-26.793" y="701.641" width="1767.62" height="235.212" filterUnits="userSpaceOnUse" color-interpolation-filters="sRGB">
<feFlood flood-opacity="0" result="BackgroundImageFix"/>
<feBlend mode="normal" in="SourceGraphic" in2="BackgroundImageFix" result="shape"/>
<feGaussianBlur stdDeviation="1.5" result="effect1_foregroundBlur_115_3"/>
</filter>
<filter id="filter7_f_115_3" x="745.458" y="398.047" width="1012.77" height="367.523" filterUnits="userSpaceOnUse" color-interpolation-filters="sRGB">
<feFlood flood-opacity="0" result="BackgroundImageFix"/>
<feBlend mode="normal" in="SourceGraphic" in2="BackgroundImageFix" result="shape"/>
<feGaussianBlur stdDeviation="1.5" result="effect1_foregroundBlur_115_3"/>
</filter>
<linearGradient id="paint0_linear_115_3" x1="324.663" y1="1636.96" x2="324.663" y2="2029.81" gradientUnits="userSpaceOnUse">
<stop stop-color="white"/>
<stop offset="1" stop-color="#93DEFF"/>
</linearGradient>
<linearGradient id="paint1_linear_115_3" x1="1389.37" y1="820.147" x2="1389.37" y2="1213" gradientUnits="userSpaceOnUse">
<stop stop-color="white"/>
<stop offset="1" stop-color="#93DEFF"/>
</linearGradient>
<linearGradient id="paint2_linear_115_3" x1="1383.02" y1="2972.96" x2="1383.02" y2="3365.81" gradientUnits="userSpaceOnUse">
<stop stop-color="white"/>
<stop offset="1" stop-color="#93DEFF"/>
</linearGradient>
<linearGradient id="paint3_linear_115_3" x1="205.15" y1="490.702" x2="205.15" y2="882.844" gradientUnits="userSpaceOnUse">
<stop stop-color="#F3FBFE"/>
<stop offset="1" stop-color="#9BE1FF"/>
</linearGradient>
<linearGradient id="paint4_linear_115_3" x1="205.15" y1="2732.92" x2="205.15" y2="3125.06" gradientUnits="userSpaceOnUse">
<stop stop-color="#F3FBFE"/>
<stop offset="1" stop-color="#9BE1FF"/>
</linearGradient>
<linearGradient id="paint5_linear_115_3" x1="1527.88" y1="88.4088" x2="1527.88" y2="268.013" gradientUnits="userSpaceOnUse">
<stop stop-color="#F3FBFE"/>
<stop offset="1" stop-color="#9BE1FF"/>
</linearGradient>
<linearGradient id="paint6_linear_115_3" x1="1538.14" y1="2196.41" x2="1538.14" y2="2376.01" gradientUnits="userSpaceOnUse">
<stop stop-color="#F3FBFE"/>
<stop offset="1" stop-color="#9BE1FF"/>
</linearGradient>
<linearGradient id="paint7_linear_115_3" x1="1706.34" y1="964.375" x2="-281.775" y2="419.936" gradientUnits="userSpaceOnUse">
<stop stop-color="#FE805D"/>
<stop offset="1" stop-color="#DEE1E9"/>
</linearGradient>
<linearGradient id="paint8_linear_115_3" x1="-270.977" y1="1487.81" x2="1731.33" y2="513.319" gradientUnits="userSpaceOnUse">
<stop offset="0.316667" stop-color="#DEE1E9"/>
<stop offset="1" stop-color="#F64483"/>
</linearGradient>
<linearGradient id="paint9_linear_115_3" x1="1898.84" y1="361.4" x2="-447.522" y2="226.938" gradientUnits="userSpaceOnUse">
<stop stop-color="#0069EE"/>
<stop offset="1" stop-color="white"/>
</linearGradient>
<linearGradient id="paint10_linear_115_3" x1="1737.42" y1="589.339" x2="964.442" y2="628.091" gradientUnits="userSpaceOnUse">
<stop stop-color="#639ED3"/>
<stop offset="1" stop-color="#DEE1E9"/>
</linearGradient>
<linearGradient id="paint11_linear_115_3" x1="35.0699" y1="1027.16" x2="1702.75" y2="45.1433" gradientUnits="userSpaceOnUse">
<stop stop-color="#DEE1E9"/>
<stop offset="1" stop-color="#DC2834"/>
</linearGradient>
<linearGradient id="paint12_linear_115_3" x1="1737.41" y1="819.644" x2="-243.144" y2="819.644" gradientUnits="userSpaceOnUse">
<stop stop-color="#07BFDB"/>
<stop offset="1" stop-color="#DEE1E9"/>
</linearGradient>
<linearGradient id="paint13_linear_115_3" x1="1755.72" y1="714.214" x2="529.954" y2="581.974" gradientUnits="userSpaceOnUse">
<stop stop-color="#E0A68A"/>
<stop offset="1" stop-color="#DEE1E9"/>
</linearGradient>
<clipPath id="clip0_115_3">
<rect width="1728" height="3436" fill="white"/>
</clipPath>
</defs>
</svg>
