<svg width="1280" height="1610" viewBox="0 0 1280 1610" fill="none" xmlns="http://www.w3.org/2000/svg">
<path fill-rule="evenodd" clip-rule="evenodd" d="M1252.66 49.7023C1210.7 49.7501 1197.78 53.3748 1165.28 74.2173C1142.09 89.0895 1132.54 92.0119 1121.15 87.7185C1101.5 80.3134 1082.67 51.2042 1072.8 12.9651L1069.48 0.139743L1020.59 0.139741C993.692 0.13974 971.689 0.463469 971.689 0.859729C971.689 1.25599 976.428 9.45715 982.222 19.0877C1044.21 122.119 1066.55 212.99 1053.22 307.949C1038.34 413.971 992.339 480.226 899.372 529.53C851.121 555.119 840.886 566.759 843.066 593.567C848.359 658.639 952.798 685.071 1010.98 636.062C1064.75 590.763 1103.18 475.28 1124.01 296.402C1134.2 208.854 1139.68 191.121 1163.09 169.73C1184.06 150.565 1222.34 136.483 1270.59 130.177L1280 128.945L1280 89.3088L1280 49.6722L1252.66 49.7023ZM1277.65 242.495C1276.36 242.495 1265.27 245.755 1253 249.741C1169.45 276.89 1163.41 289.029 1144.68 467.603C1128.99 617.24 1109.66 666.373 1050.99 705.687C996.42 742.262 948.472 746.688 827.392 726.335C717.356 707.837 660.628 707.055 588.093 723.033C509.278 740.395 490.996 766.053 517.344 822.331C542.147 875.31 595.913 932.608 735.974 1055.33C849.065 1154.41 863.748 1170.92 897.397 1236.78C916.81 1274.78 923.798 1284.64 964.383 1331.32C1052.52 1432.7 1099.62 1508.66 1125.09 1590.49L1130.87 1609.06L1152.56 1609.56C1164.48 1609.83 1174.24 1609.41 1174.24 1608.61C1174.24 1588.71 1147.14 1462.31 1134.02 1421.01C1098.07 1307.85 1010.03 1196.11 863.135 1077.19C782.495 1011.91 756.972 983.692 731.414 931.541C700.823 869.121 700.415 844.515 729.496 815.881C762.563 783.322 804.556 779.892 883.856 803.268C955.94 824.518 1014.53 830.002 1083.17 821.928C1201.72 807.981 1228.04 771.38 1221.03 630.2C1214.24 493.565 1224.88 448.828 1267.36 435.346L1280 431.336L1280 336.916C1280 260.263 1279.56 242.495 1277.65 242.495ZM1277.18 820.079C1245.98 860.901 1198.21 897.902 1158.84 911.746C1131.04 921.516 1111.04 921.925 1054.14 913.876C989.426 904.721 942.672 904.007 927.134 911.935C883.266 934.324 944.916 1030.37 1082.82 1154.48C1173.78 1236.34 1228.33 1302.72 1267.87 1379.71L1280 1403.32L1280 1314.57L1280 1225.82L1274.29 1217.54C1253.27 1187.05 1210.79 1142.29 1159.05 1096.1C1088.4 1033.05 1076.37 1012.03 1092.42 979.666C1104.16 955.971 1112.35 954.574 1202.92 960.801C1229.09 962.6 1263.41 961.211 1275.97 957.847L1280 956.766L1279.94 886.653C1279.89 823.764 1279.61 816.906 1277.18 820.079ZM1018.21 1594.91C992.5 1526.08 935.296 1445.53 863.058 1376.43C781.57 1298.49 765.891 1302.73 689.219 1423.49C617.784 1535.99 575.753 1579.27 513.834 1604.08L501.416 1609.06L594.497 1609.53L687.577 1610L692.357 1604.25C701.619 1593.1 709.863 1575.07 722.507 1538.3C742.96 1478.82 753.2 1462.66 775.788 1454.25C821.075 1437.38 858.852 1472.37 921.432 1589.16L932.571 1609.95L978.122 1609.95C1003.17 1609.95 1023.63 1609.75 1023.58 1609.5C1023.54 1609.26 1021.12 1602.69 1018.21 1594.91ZM990.456 251.213C978.667 176.583 927.434 80.2178 860.554 6.87969L854.28 -1.86088e-05L795.688 0.512994L737.096 1.02424L748.789 17.8299C789.574 76.4498 845.059 184.882 856.329 227.987C867.921 272.328 854.925 321.996 823.617 353.009C809.702 366.793 795.321 374.236 759.182 386.35C743.46 391.62 717.076 401.229 700.551 407.702C649.785 427.591 650.775 427.444 571.064 426.846C421.235 425.723 303.713 453.875 266.773 499.738C226.917 549.223 231.3 608.816 288.122 790.006C334.921 939.235 324.732 965.446 209.408 992.496C126.906 1011.85 74.4947 1005.15 8.11641 966.755L0.150593 962.149L0.150591 1003.84L0.150589 1045.54L5.08003 1048.05C46.0817 1068.92 94.6712 1081.41 135.485 1081.58C173.077 1081.74 190.418 1076.31 257.66 1043.37C325.949 1009.91 337.445 1010.39 389.216 1048.92C492.416 1125.72 568.707 1226.4 564.344 1280.04C561.684 1312.76 514.978 1372.11 477.42 1390.5C423.695 1416.81 378.09 1412.28 280.255 1370.95C153.634 1317.45 82.1811 1300.14 14.0425 1306.46L0.150578 1307.75L0.150575 1362.17L0.150573 1416.59L25.6938 1428.6C227.815 1523.68 403.936 1534.31 550.45 1460.26C694.915 1387.25 744.145 1306.56 699.273 1216.34C681.079 1179.76 649.491 1146.95 558.516 1070.12C372.325 912.903 325.573 833.817 356.044 727.632C384.459 628.622 441.311 596.84 708.191 530.779C829.658 500.713 868.914 487.53 903.798 465.09C971.506 421.534 1004.5 340.108 990.456 251.213ZM767.549 177.77C753.191 128.282 700.809 64.5496 627.47 7.33785L618.243 0.139723L579.417 0.199868L540.591 0.258244L547.761 5.91025C604.937 50.9813 633.379 109.562 596.25 105.78C576.061 103.725 552.533 89.6679 508.473 53.3376C492.618 40.2646 471.212 22.9459 460.905 14.8544L442.167 0.139716L379.346 0.279465C344.796 0.355532 317.335 0.684567 318.32 1.0083C319.306 1.33203 330.599 4.93728 343.416 9.02018C458.023 45.5309 532.224 104.775 550.529 174.388C553.395 185.287 554.576 197.284 555.668 226.574C556.93 260.466 557.532 265.627 561.187 273.962C577.976 312.244 677.666 334.53 723.054 310.149C756.57 292.148 780.273 221.628 767.549 177.77ZM463.734 277.875C454.983 237.959 380.302 177.312 283.004 131.109C228.139 105.055 197.111 98.0619 122.041 94.8246C80.3796 93.0272 24.6362 83.8708 3.28747 75.3176C0.381833 74.1536 0.150631 76.0288 0.15063 100.705L0.150629 127.348L5.97631 128.231C9.18127 128.717 19.8682 130.01 29.727 131.104C153.405 144.835 263.995 181.556 272.425 211.689C279.169 235.79 247.604 262.816 173.447 296.434C101.099 329.232 86.4132 343.812 67.4681 401.645C46.1212 466.812 50.2243 503.582 88.7937 592.76C121.968 669.467 126.526 704.092 108.547 742.846C93.4093 775.479 54.4223 775.565 10.6028 743.063L1.04684 735.977L0.523526 776.259L8.63782e-05 816.541L7.69345 823.281C75.9467 883.077 135.198 889.32 196.851 843.214C241.918 809.511 240.545 792.597 177.413 603.997C111.304 406.495 145.686 357.272 361.341 340.679C435.558 334.969 459.186 325.418 463.628 299.337C464.23 295.803 464.98 291.718 465.295 290.258C465.609 288.799 464.906 283.227 463.734 277.875ZM372.881 1213.69C368.878 1184.01 356.327 1158.38 336.973 1140.36C312.687 1117.75 295.663 1115.15 242.091 1125.91C191.734 1136.01 177.953 1137.68 129.439 1139.55C104.173 1140.52 76.6458 1141.93 68.2658 1142.69C47.7559 1144.54 30.1948 1142.43 13.7844 1136.14L0.150585 1130.92L0.150584 1164.02L0.150582 1197.13L22.1088 1199.33C85.7966 1205.73 130.814 1219.11 211.666 1255.69C271.369 1282.7 281.318 1284.53 320.92 1275.8C365.537 1265.96 377.934 1251.15 372.881 1213.69ZM162.27 1608.18C142.908 1608.18 59.8249 1580.91 2.39117 1555.71C0.65252 1554.95 0.150567 1560.9 0.150566 1582.34L0.150564 1609.95L82.6059 1609.95C127.956 1609.95 165.061 1609.55 165.061 1609.06C165.061 1608.57 163.805 1608.18 162.27 1608.18ZM78.967 224.341C71.392 212.179 38.0962 207.543 12.2501 215.054L0.150625 218.569L0.18822 289.353L0.224105 360.135L8.3065 351.29C61.7734 292.769 90 242.058 78.967 224.341Z" fill="#89D4F8" fill-opacity="0.5"/>
</svg>
