<svg width="377" height="84" viewBox="0 0 377 84" fill="none" xmlns="http://www.w3.org/2000/svg">
<g clip-path="url(#clip0_1098_7196)">
<path d="M24.2578 44.7564C24.2739 44.406 23.2079 44.8938 23.0832 44.9575C22.6303 45.1889 21.9427 45.6393 21.6561 46.0332C21.1865 46.6787 20.3811 47.3362 20.235 48.1103C20.0864 48.8978 19.8263 49.6343 19.6779 50.4204C19.6193 50.7305 19.4104 50.8571 19.3085 51.1301C19.1263 51.6183 18.9987 52.0945 18.9025 52.6037C18.7731 53.2895 18.2037 54.0259 17.6907 54.5338C16.9468 55.2707 16.0414 55.1067 15.0528 55.2906C13.7747 55.5284 11.0263 55.8499 10.7576 57.2728" stroke="#3B2276" stroke-width="2" stroke-linecap="round"/>
<path d="M38.3989 28.3027C39.7695 28.3027 41.1278 28.5314 42.5555 28.5314C43.3632 28.5314 43.9191 28.5287 44.6482 28.1757C45.2789 27.8704 45.9046 27.1948 46.5102 26.9816C47.6256 26.5889 48.9873 25.3856 49.8298 24.6442C50.8836 23.7167 51.9011 23.9895 53.207 23.5517C54.154 23.2342 55.8807 23.5009 56.9017 23.5009C58.5471 23.5009 60.1925 23.5009 61.8379 23.5009C62.7222 23.5009 64.8307 23.8215 65.5326 23.2722C65.8943 22.9893 66.7646 22.9333 67.2356 22.8149C67.8568 22.6587 67.8947 22.1289 68.5348 22.1289" stroke="#3B2276" stroke-width="2" stroke-linecap="round"/>
<path d="M89.0577 23.2722C91.114 23.2722 93.3162 23.5257 95.0904 22.4846C95.7058 22.1236 96.3672 21.3298 97.1112 21.2143C97.6061 21.1374 97.6858 20.6814 97.9337 20.4267C98.2793 20.0719 99.7096 20.2996 100.229 20.2996" stroke="#3B2276" stroke-width="2" stroke-linecap="round"/>
<path d="M37.6191 34.934C39.7444 34.934 41.4786 35.0343 43.3921 34.3751C45.4999 33.6492 47.7972 32.7466 49.6704 31.6185C50.1146 31.3511 50.3594 30.996 50.8108 30.7166C51.1403 30.5124 51.9461 30.0189 52.1675 29.7511C52.7975 28.9885 53.7392 28.5726 54.3611 27.7948C54.9338 27.0786 55.9569 26.2496 56.7138 25.686C58.2479 24.5434 59.7432 22.8808 61.8373 22.815C62.894 22.7818 63.9063 22.5864 64.9982 22.5864C65.6946 22.5864 65.3908 22.3284 65.8354 22.1544C66.1968 22.013 66.9038 22.129 67.293 22.129C71.0225 22.129 74.3308 22.9185 77.7569 23.9583C79.9192 24.6147 82.2543 24.4156 84.5113 24.4156C86.2735 24.4156 88.2537 23.4082 89.9526 22.9929C93.2166 22.1949 95.5388 22.56 98.8721 22.9929C100.518 23.2066 103.262 23.8057 104.4 24.9746C104.833 25.4192 105.806 25.1468 106.262 25.5081C106.803 25.9373 107.861 25.9556 108.528 26.029C109.943 26.1848 111.525 26.4736 112.958 26.4736C115.703 26.4736 118.659 26.7786 121.258 26.0163C122.282 25.7157 123.2 25.0675 124.259 24.8603C125.448 24.6277 126.772 23.7297 128.026 23.7297" stroke="#3B2276" stroke-width="2" stroke-linecap="round"/>
<path d="M37.9838 66.7359V82.75H19.4255V37.4001C19.5654 28.1034 23.2626 26.6295 29.7378 26.6295H52.7606C60.3149 26.7072 61.3941 33.5674 61.3941 37.4001V82.75H42.9569V66.7359V61.9582C41.2993 61.9229 37.9838 61.8738 37.9838 61.9582V66.7359Z" fill="#3B2276"/>
<path d="M344.234 66.2857V82.3001H325.677V36.9501C325.816 27.6534 329.514 26.1796 335.989 26.1796H359.012C366.567 26.2572 367.646 33.1175 367.646 36.9501V82.3001H349.208V66.2857V61.5083C347.551 61.473 344.234 61.4238 344.234 61.5083V66.2857Z" fill="#3B2276"/>
<path d="M116.314 67.552C120.572 47.2719 115.41 32.686 113.076 26.6017H128.928C133.855 40.6766 134.363 51.1664 128.928 67.552C130.005 67.552 131.826 67.6343 131.958 67.552C135.236 65.502 136.619 36.8762 130.847 26.6017H143.068C139.661 44.4201 139.577 53.8316 143.068 67.552H147.131C139.337 47.7101 142.448 43.6526 145.896 26.6017H162.36C155.133 43.6638 156.364 51.5096 159.842 66.3911C163.319 81.2725 159.842 82.0113 158.017 82.7501H131.958H117.274C114.433 81.4591 114.275 77.2619 116.314 67.552Z" fill="#3B2276"/>
<path d="M170.274 26.6016C170.576 26.3121 192.717 26.6016 206.487 26.6016C214.162 35.0451 211.044 44.1217 206.487 47.288C203.65 48.781 201.765 49.6158 198.933 49.821C191.016 50.3947 183.121 46.617 182.865 41.1841V47.7102C185.175 51.0402 188.848 52.4347 193.177 53.0928C197.031 53.6788 201.355 53.8785 206.487 51.2986V62.1695C202.57 60.4924 192.362 57.9265 182.865 64.034V66.9189C191.151 62.5657 203.49 63.6471 209.114 66.9189C213.436 69.4325 212.603 80.0061 209.114 82.75H169.795C162.559 67.8966 156.39 39.9076 170.274 26.6016Z" fill="#3B2276"/>
<path d="M235.384 44.4228C236.156 52.3003 252.231 51.4296 259.21 56.3647C264.126 59.6365 271.007 69.4942 259.21 82.7504H254.042H223.632C217.861 78.965 210.468 69.4408 220.757 58.0534C221.329 57.4202 223.515 56.1401 225.194 57.8423C232.988 65.7456 248.797 67.282 247.137 66.4968C245.317 65.636 217.704 51.0129 215.96 46.8659C213.052 39.9467 212.953 30.4013 223.632 26.1796H255.771C270.081 34.2852 265.961 46.2326 259.21 49.7155C253.421 52.7028 247.878 51.0426 241.813 44.4228C236.367 36.2175 235.258 41.0041 235.384 44.4228Z" fill="#3B2276"/>
<path d="M353.977 51.5097H339.588V50.7823H340.969V39.1991H339.648V38.6604H340.969C341.209 34.4796 344.996 33.524 346.857 33.569C351.231 33.5044 352.526 36.9362 352.625 38.6604H353.857V39.1991H352.625V50.7823H353.977V51.5097Z" fill="#3B2276"/>
<path d="M346.882 51.5097H342.683V48.098V44.3069V39.8391H346.882H351.081V44.3069V48.098V51.5097H346.882Z" fill="#F8F1FD"/>
<path d="M344.907 39.2974H342.5C342.281 38.1493 343.111 37.3569 343.552 37.1042L345.178 38.4852C344.792 38.7017 344.838 39.117 344.907 39.2974Z" fill="#D9CBF0"/>
<path d="M148.299 42.5858C149.155 39.1669 152.344 38.6683 153.832 38.8465C154.758 39.1563 155.49 39.4924 156.063 39.8409C157.848 36.9733 159.781 37.6779 160.525 38.3886C160.739 37.717 160.138 37.3457 159.811 37.2439C168.664 29.3072 173.852 34.3966 175.34 37.9333C177.847 37.1778 180.37 38.3667 181.497 39.2281C185.281 42.0974 183.788 46.5796 182.568 48.462C176.643 53.1629 172.424 50.2172 171.056 48.1568C166.272 52.9797 161.15 50.5081 159.186 48.6693C157.133 50.0329 154.068 49.3948 152.671 48.8435C148.245 47.3173 147.912 44.0358 148.299 42.5858Z" fill="#D9CBF0"/>
<path d="M348.373 39.2973H345.301C345.301 38.2792 346.306 38.0247 346.807 38.0247C348.011 38.0679 348.352 38.8912 348.373 39.2973Z" fill="#D9CBF0"/>
<path d="M346.689 37.7269C346.039 37.7052 345.633 38.0068 345.514 38.1603L343.888 36.7521C344.612 35.7341 346.056 35.6239 346.689 35.6961V37.7269Z" fill="#D9CBF0"/>
<path d="M348.252 38.2413C348.084 37.8299 347.42 37.7269 347.108 37.7269V35.696C348.482 35.6158 349.447 36.4209 349.758 36.8333L348.252 38.2413Z" fill="#D9CBF0"/>
<path d="M348.945 39.2974C349.04 38.9943 348.743 38.6296 348.582 38.4852L350.12 37.1042C351.057 37.7107 351.153 38.8191 351.081 39.2974H348.945Z" fill="#D9CBF0"/>
<path d="M346.879 51.5098H342.679V48.098M346.879 51.5098H351.078V48.098M346.879 51.5098V39.8391M346.879 39.8391H351.078V44.3069M346.879 39.8391H342.679V44.3069M342.679 44.3069H351.078M342.679 44.3069V48.098M351.078 44.3069V48.098M342.679 48.098H351.078M342.5 39.2974H344.907C344.838 39.1169 344.792 38.7017 345.178 38.4852L343.552 37.1042C343.111 37.3569 342.281 38.1493 342.5 39.2974ZM345.298 39.2974H348.37C348.349 38.8913 348.008 38.068 346.804 38.0248C346.303 38.0248 345.298 38.2793 345.298 39.2974ZM345.509 38.1603C345.629 38.0068 346.035 37.7052 346.684 37.7269V35.6961C346.051 35.6239 344.608 35.7341 343.883 36.7521L345.509 38.1603ZM347.104 37.7269C347.416 37.7269 348.08 37.8299 348.248 38.2413L349.754 36.8334C349.442 36.4209 348.478 35.6159 347.104 35.6961V37.7269ZM348.579 38.4852C348.74 38.6295 349.037 38.9943 348.941 39.2974H351.078C351.15 38.8191 351.054 37.7107 350.116 37.1042L348.579 38.4852Z" stroke="#3B2276"/>
<mask id="mask0_1098_7196" style="mask-type:alpha" maskUnits="userSpaceOnUse" x="246" y="7" width="18" height="17">
<path fill-rule="evenodd" clip-rule="evenodd" d="M259.694 9.00853C259.44 9.3058 258.862 9.61617 257.699 10.0823C256.344 10.6252 255.845 10.8577 255.622 11.05C255.145 11.4622 254.951 12.1624 255.095 12.9642C255.119 13.0913 255.131 13.2016 255.121 13.2094C255.092 13.2332 254.766 12.7879 254.596 12.4949C254.356 12.0855 254.274 11.8754 254.142 11.3311C253.958 10.5799 253.759 10.2777 253.313 10.0716C252.852 9.85995 252.202 9.81038 251.819 9.95758C251.56 10.0568 251.26 10.2775 251.063 10.5152C250.91 10.6991 250.845 10.7466 250.586 10.86L250.286 10.9915L250.31 10.8572C250.329 10.7498 250.325 10.7229 250.279 10.7229C250.245 10.7229 250.221 10.7442 250.221 10.7703C250.221 10.8577 250.149 10.8575 249.946 10.7695C249.835 10.7214 249.739 10.6779 249.732 10.6728C249.725 10.6677 249.756 10.5643 249.799 10.443C249.89 10.1867 249.9 9.93475 249.823 9.80844C249.763 9.70968 249.581 9.55459 249.392 9.44301C249.324 9.40271 249.269 9.34853 249.269 9.32264C249.269 9.24379 249.121 9.26728 249.099 9.34955C249.018 9.65633 249.003 9.75686 249.003 10.0423C249.003 10.3876 248.953 10.4449 248.91 10.1492C248.878 9.93692 248.718 9.64867 248.583 9.56492C248.531 9.53225 248.363 9.48301 248.212 9.45551C248.058 9.42801 247.9 9.38774 247.859 9.36603C247.715 9.2884 247.701 9.37567 247.804 9.68317C247.979 10.2064 248.125 10.4004 248.404 10.4763C248.514 10.5062 248.627 10.5372 248.655 10.5451C248.689 10.5543 248.651 10.5955 248.55 10.6587C248.272 10.8322 248.238 10.9126 248.252 11.3479C248.264 11.6477 248.279 11.7282 248.322 11.7356C248.387 11.7465 248.857 11.4684 249.039 11.3104C249.245 11.1339 249.308 11.0208 249.308 10.8271C249.308 10.7306 249.32 10.6567 249.336 10.6629C249.677 10.7984 250.147 11.0305 250.121 11.0521C250.032 11.1272 249.116 11.5124 249.025 11.5124C248.821 11.5124 248.6 11.6658 248.399 11.95C248.351 12.0169 248.286 12.0716 248.257 12.0716C248.202 12.0716 248.181 12.1875 248.233 12.2149C248.248 12.2235 248.435 12.2479 248.643 12.269C249.183 12.3232 249.42 12.2825 249.639 12.0984C249.727 12.0228 249.826 11.9119 249.859 11.8519C249.893 11.7918 249.938 11.7427 249.96 11.7427C250.032 11.7427 249.962 11.9293 249.857 12.02C249.742 12.1199 249.591 12.3964 249.552 12.5733C249.507 12.7867 249.56 12.9113 249.785 13.1201C249.898 13.2267 249.991 13.3363 249.991 13.3636C249.991 13.4418 250.116 13.4655 250.173 13.3982C250.274 13.2794 250.449 12.7313 250.449 12.5362C250.449 12.3342 250.416 12.277 250.173 12.0517C250.087 11.9715 250.07 11.9309 250.09 11.8625C250.104 11.8147 250.128 11.7756 250.142 11.7756C250.159 11.7756 250.255 11.8492 250.358 11.9393C250.512 12.0738 250.691 12.3058 250.974 12.7271C250.994 12.7564 251.032 12.7655 251.075 12.7513C251.138 12.7306 251.142 12.6922 251.126 12.3425C251.109 11.93 251.068 11.8161 250.874 11.6312L250.773 11.5363L250.907 11.554C251.104 11.5801 251.483 11.7847 251.677 11.9708C251.963 12.2451 251.967 12.2971 251.816 13.3006C251.699 14.0775 251.687 14.2381 251.687 14.9663C251.687 15.8543 251.723 16.1046 251.936 16.6584C252.042 16.9287 252.046 16.965 252.006 17.1074C251.941 17.3219 251.996 17.4126 252.308 17.6144C252.5 17.7397 252.584 17.8193 252.653 17.9485C252.756 18.143 252.85 18.1922 253.066 18.1672C253.2 18.1517 253.289 18.1788 253.766 18.3822C254.598 18.7369 255.733 19.0649 256.922 19.2943C257.183 19.3445 257.416 19.4015 257.44 19.4211C257.464 19.4406 257.735 19.982 258.042 20.6243C258.807 22.222 258.867 22.3474 258.898 22.3778C258.913 22.3925 258.98 22.3333 259.047 22.2463C259.251 21.9752 259.299 21.9401 259.45 21.9401C259.524 21.9401 259.639 21.9165 259.704 21.8876C259.817 21.8373 259.915 21.8382 260.162 21.8921C260.244 21.9096 260.294 21.8948 260.39 21.8253C260.515 21.7335 260.531 21.7325 260.87 21.7944C260.992 21.8166 260.994 21.8142 260.97 21.7309C260.946 21.6445 260.946 21.6445 261.073 21.6892C261.143 21.7138 261.248 21.7437 261.306 21.7555C261.412 21.7769 261.412 21.7757 261.388 21.6468L261.364 21.5165L261.606 21.5785C261.956 21.6683 262.071 21.6735 262.088 21.6004C262.095 21.5674 262.071 21.5185 262.033 21.4918C261.966 21.4455 261.966 21.4441 262.042 21.4621C262.172 21.4927 262.258 21.4481 262.236 21.3598C262.222 21.2879 262.232 21.2822 262.385 21.2822C262.57 21.2822 262.867 21.1927 262.836 21.1471C262.824 21.1309 262.783 21.1177 262.747 21.1177C262.306 21.1177 261.491 20.5857 260.145 19.4169L259.431 18.7973L259.335 18.4908C259.191 18.0223 258.934 17.4854 258.51 16.7682C258.299 16.4096 258.133 16.1121 258.14 16.1071C258.15 16.1021 258.284 16.0441 258.443 15.978C258.622 15.9026 258.821 15.7833 258.975 15.6567C259.124 15.5356 259.318 15.4175 259.462 15.36C259.769 15.2387 260.148 15.0163 260.44 14.7882C260.663 14.6135 260.666 14.6088 260.599 14.5438C260.529 14.4782 260.527 14.4781 260.409 14.5409C260.316 14.59 260.217 14.6043 259.973 14.6044C259.651 14.6045 259.136 14.5171 259.191 14.4725C259.208 14.4591 259.315 14.4224 259.431 14.3909C259.714 14.3135 260.169 14.1163 260.464 13.9437C260.706 13.8014 261.373 13.2704 261.373 13.2194C261.373 13.2045 261.337 13.1757 261.292 13.1554C261.224 13.1244 261.196 13.1317 261.112 13.1999C260.956 13.3251 260.34 13.5576 260.284 13.5109C260.275 13.5027 260.366 13.4433 260.488 13.3789C261.061 13.0729 261.671 12.5381 262.033 12.0216C262.109 11.9127 262.172 11.8133 262.172 11.8007C262.172 11.7881 262.136 11.7616 262.093 11.7417C262.028 11.7111 261.994 11.7224 261.874 11.8152C261.738 11.9216 261.04 12.2553 261.009 12.2287C261.001 12.2214 261.112 12.1239 261.256 12.0119C261.742 11.6366 262.215 11.0643 262.472 10.5412C262.572 10.3353 262.757 9.8012 262.733 9.78386C262.728 9.78018 262.687 9.76732 262.642 9.75534C262.57 9.73656 262.546 9.75765 262.467 9.90748C262.15 10.4971 261.205 11.0284 259.666 11.4822C259.363 11.5712 259.102 11.644 259.085 11.644C259.068 11.644 259.104 11.5515 259.162 11.4384C259.258 11.2553 259.337 11.018 259.411 10.7008C259.433 10.6094 259.426 10.5951 259.349 10.5857C259.284 10.5778 259.208 10.6201 259.066 10.7394C258.961 10.8298 258.814 10.9327 258.742 10.968L258.613 11.0322L258.68 10.9516C258.973 10.5934 259.339 10.0541 259.625 9.56179C259.812 9.23978 259.965 8.95656 259.965 8.93241C259.965 8.90823 259.932 8.88133 259.893 8.87254C259.843 8.86113 259.788 8.89935 259.694 9.00853ZM249.953 11.5435L250.049 11.5681L249.948 11.6099C249.862 11.6454 249.814 11.6416 249.624 11.5846L249.401 11.5176L249.631 11.5183C249.756 11.5186 249.902 11.53 249.953 11.5435Z" fill="black" stroke="black" stroke-width="2"/>
</mask>
<g mask="url(#mask0_1098_7196)">
<path fill-rule="evenodd" clip-rule="evenodd" d="M259.694 9.00853C259.44 9.3058 258.862 9.61617 257.699 10.0823C256.344 10.6252 255.845 10.8577 255.622 11.05C255.145 11.4622 254.951 12.1624 255.095 12.9642C255.119 13.0913 255.131 13.2016 255.121 13.2094C255.092 13.2332 254.766 12.7879 254.596 12.4949C254.356 12.0855 254.274 11.8754 254.142 11.3311C253.958 10.5799 253.759 10.2777 253.313 10.0716C252.852 9.85995 252.202 9.81038 251.819 9.95758C251.56 10.0568 251.26 10.2775 251.063 10.5152C250.91 10.6991 250.845 10.7466 250.586 10.86L250.286 10.9915L250.31 10.8572C250.329 10.7498 250.325 10.7229 250.279 10.7229C250.245 10.7229 250.221 10.7442 250.221 10.7703C250.221 10.8577 250.149 10.8575 249.946 10.7695C249.835 10.7214 249.739 10.6779 249.732 10.6728C249.725 10.6677 249.756 10.5643 249.799 10.443C249.89 10.1867 249.9 9.93475 249.823 9.80844C249.763 9.70968 249.581 9.55459 249.392 9.44301C249.324 9.40271 249.269 9.34853 249.269 9.32264C249.269 9.24379 249.121 9.26728 249.099 9.34955C249.018 9.65633 249.003 9.75686 249.003 10.0423C249.003 10.3876 248.953 10.4449 248.91 10.1492C248.878 9.93692 248.718 9.64867 248.583 9.56492C248.531 9.53225 248.363 9.48301 248.212 9.45551C248.058 9.42801 247.9 9.38774 247.859 9.36603C247.715 9.2884 247.701 9.37567 247.804 9.68317C247.979 10.2064 248.125 10.4004 248.404 10.4763C248.514 10.5062 248.627 10.5372 248.655 10.5451C248.689 10.5543 248.651 10.5955 248.55 10.6587C248.272 10.8322 248.238 10.9126 248.252 11.3479C248.264 11.6477 248.279 11.7282 248.322 11.7356C248.387 11.7465 248.857 11.4684 249.039 11.3104C249.245 11.1339 249.308 11.0208 249.308 10.8271C249.308 10.7306 249.32 10.6567 249.336 10.6629C249.677 10.7984 250.147 11.0305 250.121 11.0521C250.032 11.1272 249.116 11.5124 249.025 11.5124C248.821 11.5124 248.6 11.6658 248.399 11.95C248.351 12.0169 248.286 12.0716 248.257 12.0716C248.202 12.0716 248.181 12.1875 248.233 12.2149C248.248 12.2235 248.435 12.2479 248.643 12.269C249.183 12.3232 249.42 12.2825 249.639 12.0984C249.727 12.0228 249.826 11.9119 249.859 11.8519C249.893 11.7918 249.938 11.7427 249.96 11.7427C250.032 11.7427 249.962 11.9293 249.857 12.02C249.742 12.1199 249.591 12.3964 249.552 12.5733C249.507 12.7867 249.56 12.9113 249.785 13.1201C249.898 13.2267 249.991 13.3363 249.991 13.3636C249.991 13.4418 250.116 13.4655 250.173 13.3982C250.274 13.2794 250.449 12.7313 250.449 12.5362C250.449 12.3342 250.416 12.277 250.173 12.0517C250.087 11.9715 250.07 11.9309 250.09 11.8625C250.104 11.8147 250.128 11.7756 250.142 11.7756C250.159 11.7756 250.255 11.8492 250.358 11.9393C250.512 12.0738 250.691 12.3058 250.974 12.7271C250.994 12.7564 251.032 12.7655 251.075 12.7513C251.138 12.7306 251.142 12.6922 251.126 12.3425C251.109 11.93 251.068 11.8161 250.874 11.6312L250.773 11.5363L250.907 11.554C251.104 11.5801 251.483 11.7847 251.677 11.9708C251.963 12.2451 251.967 12.2971 251.816 13.3006C251.699 14.0775 251.687 14.2381 251.687 14.9663C251.687 15.8543 251.723 16.1046 251.936 16.6584C252.042 16.9287 252.046 16.965 252.006 17.1074C251.941 17.3219 251.996 17.4126 252.308 17.6144C252.5 17.7397 252.584 17.8193 252.653 17.9485C252.756 18.143 252.85 18.1922 253.066 18.1672C253.2 18.1517 253.289 18.1788 253.766 18.3822C254.598 18.7369 255.733 19.0649 256.922 19.2943C257.183 19.3445 257.416 19.4015 257.44 19.4211C257.464 19.4406 257.735 19.982 258.042 20.6243C258.807 22.222 258.867 22.3474 258.898 22.3778C258.913 22.3925 258.98 22.3333 259.047 22.2463C259.251 21.9752 259.299 21.9401 259.45 21.9401C259.524 21.9401 259.639 21.9165 259.704 21.8876C259.817 21.8373 259.915 21.8382 260.162 21.8921C260.244 21.9096 260.294 21.8948 260.39 21.8253C260.515 21.7335 260.531 21.7325 260.87 21.7944C260.992 21.8166 260.994 21.8142 260.97 21.7309C260.946 21.6445 260.946 21.6445 261.073 21.6892C261.143 21.7138 261.248 21.7437 261.306 21.7555C261.412 21.7769 261.412 21.7757 261.388 21.6468L261.364 21.5165L261.606 21.5785C261.956 21.6683 262.071 21.6735 262.088 21.6004C262.095 21.5674 262.071 21.5185 262.033 21.4918C261.966 21.4455 261.966 21.4441 262.042 21.4621C262.172 21.4927 262.258 21.4481 262.236 21.3598C262.222 21.2879 262.232 21.2822 262.385 21.2822C262.57 21.2822 262.867 21.1927 262.836 21.1471C262.824 21.1309 262.783 21.1177 262.747 21.1177C262.306 21.1177 261.491 20.5857 260.145 19.4169L259.431 18.7973L259.335 18.4908C259.191 18.0223 258.934 17.4854 258.51 16.7682C258.299 16.4096 258.133 16.1121 258.14 16.1071C258.15 16.1021 258.284 16.0441 258.443 15.978C258.622 15.9026 258.821 15.7833 258.975 15.6567C259.124 15.5356 259.318 15.4175 259.462 15.36C259.769 15.2387 260.148 15.0163 260.44 14.7882C260.663 14.6135 260.666 14.6088 260.599 14.5438C260.529 14.4782 260.527 14.4781 260.409 14.5409C260.316 14.59 260.217 14.6043 259.973 14.6044C259.651 14.6045 259.136 14.5171 259.191 14.4725C259.208 14.4591 259.315 14.4224 259.431 14.3909C259.714 14.3135 260.169 14.1163 260.464 13.9437C260.706 13.8014 261.373 13.2704 261.373 13.2194C261.373 13.2045 261.337 13.1757 261.292 13.1554C261.224 13.1244 261.196 13.1317 261.112 13.1999C260.956 13.3251 260.34 13.5576 260.284 13.5109C260.275 13.5027 260.366 13.4433 260.488 13.3789C261.061 13.0729 261.671 12.5381 262.033 12.0216C262.109 11.9127 262.172 11.8133 262.172 11.8007C262.172 11.7881 262.136 11.7616 262.093 11.7417C262.028 11.7111 261.994 11.7224 261.874 11.8152C261.738 11.9216 261.04 12.2553 261.009 12.2287C261.001 12.2214 261.112 12.1239 261.256 12.0119C261.742 11.6366 262.215 11.0643 262.472 10.5412C262.572 10.3353 262.757 9.8012 262.733 9.78386C262.728 9.78018 262.687 9.76732 262.642 9.75534C262.57 9.73656 262.546 9.75765 262.467 9.90748C262.15 10.4971 261.205 11.0284 259.666 11.4822C259.363 11.5712 259.102 11.644 259.085 11.644C259.068 11.644 259.104 11.5515 259.162 11.4384C259.258 11.2553 259.337 11.018 259.411 10.7008C259.433 10.6094 259.426 10.5951 259.349 10.5857C259.284 10.5778 259.208 10.6201 259.066 10.7394C258.961 10.8298 258.814 10.9327 258.742 10.968L258.613 11.0322L258.68 10.9516C258.973 10.5934 259.339 10.0541 259.625 9.56179C259.812 9.23978 259.965 8.95656 259.965 8.93241C259.965 8.90823 259.932 8.88133 259.893 8.87254C259.843 8.86113 259.788 8.89935 259.694 9.00853ZM249.953 11.5435L250.049 11.5681L249.948 11.6099C249.862 11.6454 249.814 11.6416 249.624 11.5846L249.401 11.5176L249.631 11.5183C249.756 11.5186 249.902 11.53 249.953 11.5435Z" fill="#3B2276"/>
</g>
<path d="M78.2847 46.0436C82.3245 59.8553 79.9677 76.2694 78.2847 82.7501H65.7115L65.7981 35.5728C65.7693 33.2508 67.1025 28.2059 72.6664 26.6017H93.7431C88.8788 41.6575 91.7163 57.968 93.7431 64.2414H96.5257C91.0844 49.4342 94.2584 32.9788 96.5257 26.6017H108.893C116.974 44.5533 112.884 68.568 108.893 82.7501H80.9639C85.8285 67.5698 82.9909 51.954 80.9639 46.0436H78.2847Z" fill="#3B2276"/>
<path d="M305.054 48.7657C303.677 52.9015 302.095 56.0374 300.425 58.3823M300.425 58.3823C300.162 59.1836 299.795 60.9326 300.425 61.518C301.056 62.1035 300.687 64.1242 300.425 64.6817M300.425 58.3823C298.531 61.0401 296.526 62.6815 294.579 63.6098M305.054 60.4729C302.279 64.6553 299.392 66.7168 296.672 67.4566M294.579 63.6098C290.809 65.4059 287.254 64.5329 285.149 63.1906C286.247 64.4938 287.909 65.9094 289.921 66.8202M294.579 63.6098C293.878 63.9927 292.459 64.9884 292.365 65.9083M292.365 65.9083C292.212 66.3769 291.504 67.2154 289.921 66.8202M292.365 65.9083C292.715 66.431 293.204 67.6643 292.365 68.4169C292.017 68.8002 291.528 69.7549 292.365 70.5074M289.921 66.8202C291.9 67.7163 294.219 68.1241 296.672 67.4566M296.672 67.4566C298.924 66.4875 303.447 63.0232 303.541 56.9189" stroke="#3B2276"/>
<path d="M248.082 68.2118C236.474 69.2276 227.217 64.1495 223.875 60.2698C222.311 60.446 219.353 61.3374 220.757 64.8081C219.333 65.443 216.761 67.2071 219.078 70.0852C218.863 74.8135 220.301 76.9019 222.316 78.3175C225.349 80.8315 229.968 80.1566 234.634 80.3228C239.551 80.4978 248.387 80.739 251.454 80.3228C261.647 79.6456 261.63 73.2616 260.568 69.2409C257.5 65.5374 251.071 67.7886 248.082 68.2118Z" fill="#F8F1FD"/>
<path d="M220.757 64.8081C219.353 61.3374 222.311 60.446 223.875 60.2698C227.217 64.1495 236.474 69.2276 248.082 68.2118C251.071 67.7886 257.5 65.5374 260.568 69.2409C261.63 73.2616 261.647 79.6456 251.454 80.3228C248.387 80.739 239.551 80.4978 234.634 80.3228C229.968 80.1566 225.349 80.8315 222.316 78.3175C220.301 76.9019 218.863 74.8135 219.078 70.0852M220.757 64.8081C219.333 65.443 216.761 67.2071 219.078 70.0852M220.757 64.8081C222.695 66.6749 226.753 68.578 231.069 70.6129M219.078 70.0852C221.679 72.9908 227.516 75.3739 234.634 76.3654" stroke="#3B2276" stroke-width="2"/>
<path d="M153.896 44.3732C154.55 45.1616 156.252 46.1894 157.822 43.9916C158.547 43.1859 159.048 41.4543 156.573 39.9493M159.696 48.7777C157.643 50.1413 154.578 49.5032 153.182 48.9519C148.755 47.4257 148.422 44.1442 148.809 42.6942C149.665 39.2753 152.854 38.7767 154.342 38.9549C155.268 39.2647 156 39.6008 156.573 39.9493M159.696 48.7777C161.66 50.6165 166.782 53.0881 171.566 48.2652M171.566 48.2652L173.529 45.3651C174.392 44.3732 176.51 42.8775 178.081 44.8311C178.587 45.874 178.723 47.8684 175.225 47.5019M171.566 48.2652C172.934 50.3256 177.153 53.2713 183.078 48.5704C184.298 46.688 185.791 42.2058 182.008 39.3365C180.88 38.4751 178.357 37.2862 175.85 38.0417M175.85 38.0417C174.362 34.505 169.174 29.4156 160.321 37.3523C160.648 37.4541 161.249 37.8254 161.035 38.497C160.291 37.7863 158.358 37.0817 156.573 39.9493M159.696 48.7777C159.917 48.631 160.127 48.4609 160.321 48.2652L159.696 48.7777ZM175.85 38.0417C175.247 38.2232 174.646 38.5173 174.065 38.9549L175.85 38.0417Z" stroke="#3B2276" stroke-width="1.5"/>
<path d="M117.633 73.146C116.913 75.3624 116.151 79.3116 119.192 81.0617" stroke="#F8F1FD" stroke-width="1.5"/>
<path d="M159.002 73.3242C159.601 75.7517 160.424 80.6075 156.124 81.3651" stroke="#F8F1FD" stroke-width="1.5"/>
<path d="M202.17 66.7083C204.894 66.4145 209.912 68.3398 209.724 72.1963" stroke="#F8F1FD" stroke-width="1.5"/>
<path d="M169.315 75.939C170.754 78.5773 169.675 80.266 176.51 80.2662" stroke="#D9CBF0" stroke-width="1.5"/>
<path d="M290.265 53.4097C290.026 54.0077 289.69 55.3094 290.265 55.7316C290.841 56.1538 290.505 57.1739 290.265 57.6313C290.105 58.1238 290.05 59.13 291.105 59.2145C291.383 59.6366 291.776 60.6709 291.105 61.4308" stroke="#3B2276" stroke-width="3"/>
<path d="M68.4694 34.8342C68.5094 33.0047 69.5486 29.2826 73.3857 29.0293" stroke="#D9CBF0" stroke-width="1.5"/>
<path d="M44.4893 52.1484H36.6951V44.5439V40.1166C36.5992 37.2459 39.4531 36.669 40.892 36.7393C43.578 36.7393 44.4094 38.9909 44.4893 40.1166V52.1484Z" fill="#D9CBF0"/>
<path d="M1.12336 75.0134C-0.609169 70.7021 3.64998 69.774 5.99611 69.8489C5.34636 67.1544 7.98416 67.2293 9.38428 67.6036C10.0849 64.4411 13.2508 63.7202 14.9296 63.7863C18.6112 63.4273 20.6144 66.0318 21.1558 67.379C23.5381 65.9421 25.0359 67.1546 25.4873 68.0528L25.7578 68.6468C26.9591 68.1925 28.2745 68.0526 29.0064 68.0528C34.4206 68.0528 35.0523 71.7951 34.6912 73.6662C32.309 79.4143 25.9384 77.8575 23.0508 76.3607C18.7195 80.4921 12.042 77.7828 9.24468 75.9115C4.69678 77.7079 1.93551 76.0612 1.12336 75.0134Z" fill="#F8F1FD"/>
<path d="M9.24468 75.9115C4.69678 77.7079 1.93551 76.0612 1.12336 75.0134C-0.609169 70.7021 3.64998 69.774 5.99611 69.8489C5.34636 67.1544 7.98416 67.2293 9.38428 67.6036M9.24468 75.9115C8.97397 75.6871 8.37842 75.0583 8.16184 74.3398M9.24468 75.9115C12.042 77.7828 18.7195 80.4921 23.0508 76.3607C25.9384 77.8575 32.309 79.4143 34.6912 73.6662C35.0523 71.7951 34.4206 68.0528 29.0064 68.0528C28.2745 68.0526 26.9591 68.1925 25.7578 68.6468M23.8629 69.8489C24.3515 69.3085 25.034 68.9206 25.7578 68.6468M21.1558 67.379C23.5381 65.9421 25.0359 67.1546 25.4873 68.0528L25.7578 68.6468M21.1558 67.379C20.6144 66.0318 18.6112 63.4273 14.9296 63.7863C13.2508 63.7202 10.085 64.4411 9.38428 67.6036M21.1558 67.379C21.4266 68.0528 21.6973 68.5018 21.6973 68.951M9.24468 68.951C9.24468 68.4589 9.29404 68.011 9.38428 67.6036" stroke="#3B2276" stroke-width="1.5"/>
<path d="M268.599 34.2569V26.1796H271.124V30.213H273.999V26.1796H276.733V30.213H279.539V26.1796H282.424V30.213H285.096V26.1796H288.024V34.2569H285.571V36.5365C288.024 38.1059 288.024 39.5208 288.024 41.1993V82.7504H268.599V41.1993C268.599 38.4639 268.599 37.6837 270.676 36.5365V34.2569H268.599Z" fill="#3B2276"/>
<path d="M302.417 34.2569V26.1796H304.942V30.213H307.818V26.1796H310.552V30.213H313.358V26.1796H316.243V30.213H318.914V26.1796H321.842V34.2569H319.389V36.5365C321.842 38.1059 321.842 39.5208 321.842 41.1993V82.7504H302.417V41.1993C302.417 38.4639 302.417 37.6837 304.494 36.5365V34.2569H302.417Z" fill="#3B2276"/>
<path fill-rule="evenodd" clip-rule="evenodd" d="M373.426 30.3165C373.306 30.5021 373.126 30.7178 373.033 30.7959C372.86 30.9363 372.86 30.9394 373.035 31.1341C373.208 31.3266 373.205 31.3386 372.865 31.7487C372.673 31.9786 372.407 32.1973 372.272 32.2344C372.141 32.2716 371.987 32.4143 371.934 32.5517C371.838 32.7993 371.855 32.8016 373.661 32.8016H375.486L375.354 32.5255C375.28 32.3738 375.126 32.2218 375.011 32.188C374.743 32.1093 374.227 31.5748 374.227 31.3734C374.227 31.2882 374.297 31.1573 374.383 31.0826C374.515 30.9667 374.517 30.9356 374.404 30.8725C374.33 30.832 374.138 30.6142 373.975 30.3887C373.815 30.1635 373.673 29.979 373.666 29.979C373.656 29.979 373.548 30.131 373.426 30.3165ZM371.325 33.3386C371.167 33.5666 370.881 33.8566 370.69 33.9831C370.32 34.2298 370.229 34.5199 370.522 34.5199C370.742 34.5199 371.138 34.8646 371.138 35.0567C371.138 35.1339 371.208 35.2582 371.294 35.3334C371.385 35.4111 371.462 35.6462 371.474 35.8807C371.486 36.107 371.555 36.6803 371.63 37.1548C371.702 37.6291 371.843 38.6212 371.939 39.3594C372.097 40.5601 372.102 40.7125 371.98 40.8075C371.905 40.8659 371.843 40.9936 371.843 41.0916C371.843 41.2412 372.131 41.2695 373.649 41.2695C374.668 41.2695 375.474 41.2199 375.503 41.1553C375.532 41.0924 375.479 40.9672 375.385 40.8769C375.222 40.7173 375.227 40.646 375.575 38.0766C375.855 36.0257 375.971 35.4043 376.098 35.2785C376.186 35.1894 376.239 35.0695 376.215 35.0119C376.165 34.9007 376.649 34.5199 376.841 34.5199C377.112 34.5199 377.023 34.2714 376.661 34.0194C376.443 33.8689 376.138 33.5609 375.98 33.335L375.695 32.9243H373.654H371.613L371.325 33.3386ZM372.191 36.5754C372.328 37.9312 372.539 39.7706 372.599 40.1444C372.635 40.3671 372.613 40.4214 372.493 40.3895C372.371 40.357 372.308 40.0744 372.184 38.9989C372.1 38.2567 371.973 37.166 371.906 36.5754C371.788 35.5787 371.79 35.5016 371.929 35.5016C372.052 35.5016 372.102 35.706 372.191 36.5754ZM374.757 35.5605C374.757 35.7942 374.39 40.136 374.359 40.2572C374.333 40.3612 374.112 40.4106 373.663 40.4106H373.006L372.956 39.9502C372.927 39.6974 372.843 38.7722 372.771 37.8947C372.697 37.0172 372.62 36.1197 372.599 35.9004L372.56 35.5016H373.659C374.263 35.5016 374.757 35.528 374.757 35.5605ZM375.515 35.8391C375.488 36.0247 375.407 36.7012 375.337 37.3425C375.038 40.095 374.99 40.4106 374.875 40.4106C374.81 40.4106 374.757 40.365 374.757 40.3095C374.757 40.0687 375.134 36.6687 375.253 35.8391C375.28 35.6506 375.359 35.5016 375.433 35.5016C375.532 35.5016 375.553 35.5896 375.515 35.8391ZM366.596 39.9118C366.373 40.2553 366.498 40.4106 366.994 40.4106C367.469 40.4106 367.558 40.2403 367.27 39.8772C367.054 39.6068 366.785 39.6205 366.596 39.9118ZM366.43 40.6141C366.399 40.6584 366.421 40.7779 366.481 40.8794C366.543 40.9808 366.591 41.1792 366.591 41.3202C366.591 41.534 366.653 41.5828 366.968 41.614C367.33 41.6507 367.342 41.6404 367.342 41.2868C367.342 41.0861 367.39 40.9001 367.445 40.8737C367.502 40.8474 367.519 40.7598 367.486 40.6793C367.416 40.5263 366.533 40.4716 366.43 40.6141ZM372.344 41.4743C372.234 41.6282 372.284 41.7605 372.457 41.7605C372.584 41.7605 372.635 41.8599 372.656 42.1565C372.673 42.414 372.75 42.5983 372.872 42.6829C373.203 42.9107 373.344 43.1323 373.344 43.4209C373.344 43.6394 373.306 43.6871 373.169 43.6379C372.884 43.5334 372.105 43.9978 371.687 44.5217C371.455 44.8149 371.112 45.4826 370.834 46.1785C370.28 47.5727 369.908 48.009 369.275 48.0154C368.949 48.0185 368.819 47.9537 368.634 47.696C368.505 47.5181 368.402 47.2971 368.402 47.205C368.402 47.0915 368.287 47.0376 368.049 47.0376C367.577 47.0376 367.594 46.8164 368.071 46.7685C368.407 46.7347 368.447 46.6952 368.474 46.3934C368.49 46.1802 368.459 46.0517 368.385 46.0445C368.32 46.0384 368.15 46.0246 368.004 46.0139C367.821 46.0006 367.711 45.9081 367.651 45.7137C367.57 45.4543 367.517 45.4357 366.944 45.4682L366.327 45.5037L366.301 46.7615C366.267 48.4093 366.291 48.4597 367.016 48.4084L367.589 48.3677L367.649 47.8051L367.711 47.2424L367.867 47.7281C368.195 48.7464 369.023 49.2916 369.79 48.9931C370.447 48.7377 370.913 48.0477 371.414 46.5872C371.872 45.2535 372.229 44.7056 372.812 44.4449C372.985 44.3685 373.174 44.2509 373.234 44.184C373.313 44.0972 373.344 44.1175 373.344 44.2541C373.344 44.5192 373.491 44.6201 373.747 44.531C373.942 44.4628 373.963 44.3932 373.963 43.7981C373.963 43.1228 374.03 42.9614 374.436 42.6829C374.558 42.5983 374.635 42.414 374.651 42.1565C374.673 41.8599 374.723 41.7605 374.851 41.7605C374.944 41.7605 375.023 41.6778 375.023 41.5764C375.023 41.4211 374.817 41.3924 373.714 41.3924C372.992 41.3924 372.376 41.4291 372.344 41.4743ZM366.37 42.006C366.131 42.3408 366.123 43.3512 366.361 43.6489C366.769 44.1631 367.632 43.9374 367.749 43.2858C367.831 42.8313 367.723 42.0917 367.548 41.9142C367.301 41.6632 366.577 41.7196 366.37 42.006ZM374.109 43.6841C373.978 43.868 374.066 44.2142 374.309 44.4542C374.951 45.0906 374.774 46.5306 374.052 46.5426C373.85 46.546 373.858 46.5268 374.138 46.3318C374.395 46.1551 374.452 46.0405 374.474 45.6814C374.527 44.829 373.783 44.4624 373.366 45.1349C372.86 45.9531 373.433 47.1786 374.22 46.96C374.8 46.7985 375.193 45.8376 375.028 44.984C374.922 44.4328 374.251 43.4857 374.109 43.6841ZM366.586 44.317C366.617 44.4502 366.567 44.6566 366.462 44.8238C366.366 44.9787 366.308 45.1539 366.334 45.2126C366.361 45.2715 366.656 45.3194 366.994 45.3194C367.629 45.3194 367.773 45.1725 367.474 44.8286C367.402 44.7446 367.342 44.5445 367.342 44.3841C367.342 44.1194 367.303 44.0921 366.939 44.0921C366.589 44.0921 366.543 44.1215 366.586 44.317ZM368.502 44.3005C368.15 44.5413 367.737 45.3479 367.819 45.6381C367.86 45.788 367.941 45.8216 368.133 45.7682C368.344 45.7099 368.445 45.7667 368.656 46.0601C368.975 46.5042 369.411 46.5475 369.757 46.1696C369.951 45.9575 369.989 45.8167 369.989 45.3215C369.989 44.809 369.953 44.6842 369.718 44.41C369.397 44.0352 368.948 43.9946 368.502 44.3005ZM366.368 48.8715C366.418 49.0028 366.495 49.1409 366.538 49.1785C366.584 49.216 366.598 49.3572 366.572 49.4921C366.531 49.7112 366.569 49.7376 366.934 49.7376C367.303 49.7376 367.342 49.7108 367.342 49.4457C367.342 49.2853 367.402 49.0854 367.474 49.0011C367.723 48.7139 367.606 48.633 366.941 48.633C366.31 48.633 366.282 48.6453 366.368 48.8715ZM366.675 50.0137C366.653 50.0982 366.644 53.3702 366.656 57.285L366.68 64.403H366.989H367.299L367.32 57.2316C367.339 51.5757 367.32 50.0393 367.231 49.962C367.061 49.8111 366.723 49.8425 366.675 50.0137ZM366.579 64.86C366.613 65.0423 366.567 65.2253 366.44 65.4122L366.251 65.6916H366.989H367.725L367.534 65.4077C367.428 65.2515 367.342 65.0029 367.342 64.8553C367.342 64.6183 367.294 64.587 366.934 64.587C366.557 64.587 366.531 64.6071 366.579 64.86ZM366.334 66.084C366.289 66.3937 366.104 73.6814 366.104 75.1107L366.107 76.0004H367.001H367.898L367.831 73.7608C367.795 72.5289 367.737 70.3049 367.704 68.8184C367.67 67.332 367.615 66.0568 367.584 65.9846C367.55 65.9124 367.267 65.8417 366.951 65.8276C366.416 65.8035 366.373 65.8208 366.334 66.084ZM365.903 76.2014C365.869 76.2484 365.84 76.3603 365.84 76.4504C365.84 76.5786 366.092 76.614 366.994 76.614C368.047 76.614 368.147 76.595 368.119 76.3993C368.095 76.2113 367.958 76.1802 367.028 76.1503C366.442 76.1315 365.936 76.1545 365.903 76.2014ZM365.665 76.8595C365.665 76.9359 366.167 76.9822 366.994 76.9822C367.857 76.9822 368.303 76.9393 368.27 76.8595C368.236 76.7869 367.694 76.7369 366.939 76.7369C366.147 76.7369 365.665 76.7833 365.665 76.8595ZM365.548 77.184C365.514 77.2306 365.488 77.3423 365.488 77.4322C365.488 77.5622 365.797 77.5958 366.994 77.5958C368.383 77.5958 368.5 77.5789 368.474 77.3811C368.447 77.1888 368.294 77.1628 367.028 77.1327C366.248 77.1143 365.581 77.1373 365.548 77.184ZM365.632 78.4857C365.605 78.9075 365.562 80.0397 365.538 81.0014L365.49 82.7503H366.958H368.423L368.385 80.3825C368.363 79.0805 368.315 77.9483 368.279 77.8668C368.234 77.7621 367.841 77.7186 366.946 77.7186H365.677L365.632 78.4857Z" fill="#3B2276"/>
<path d="M23.2626 32.9341C23.6224 31.7379 25.0613 29.3457 27.9391 29.3457" stroke="#F8F1FD" stroke-width="1.5"/>
<path d="M329.516 32.9341C329.876 31.7379 331.315 29.3457 334.193 29.3457" stroke="#F8F1FD" stroke-width="1.5"/>
<path d="M57.917 32.9341C57.5572 31.7379 56.1183 29.3457 53.2405 29.3457" stroke="#D9CBF0" stroke-width="1.5"/>
<path d="M362.969 32.7232C362.609 31.527 361.17 29.1348 358.293 29.1348" stroke="#F8F1FD" stroke-width="1.5"/>
<path d="M110.118 44.3152C111.355 48.1734 111.556 49.5813 110.798 52.3541" stroke="#F8F1FD" stroke-width="1.5"/>
<path d="M206.596 36.0144C205.718 31.2306 200.599 27.9793 195.164 28.7525C189.73 29.5257 186.036 34.0305 186.914 38.8143C187.793 43.5981 192.911 46.8493 198.346 46.0761C203.781 45.3029 207.474 40.7981 206.596 36.0144Z" fill="#D9CBF0"/>
<path d="M191.669 28.0462C197.104 27.273 200.717 28.0534 201.595 32.8371C202.474 37.6209 198.78 42.1256 193.345 42.8988C187.91 43.672 187.157 41.2811 186.279 36.4973C185.4 31.7138 186.234 28.8193 191.669 28.0462Z" fill="#3B2276"/>
<path d="M18.8637 45.2501C18.693 45.5205 18.4555 45.6423 18.2271 45.8553C18.08 45.9923 18.2181 46.2519 18.0615 46.4155C17.6876 46.8065 17.5581 47.3152 18.1761 47.3905C18.7502 47.4606 19.1651 47.6709 19.7549 47.6709C20.3077 47.6709 20.8241 47.7715 21.3847 47.7715C21.8431 47.7715 22.3014 47.7715 22.7598 47.7715C23.291 47.7715 24.169 47.7557 24.6443 47.57C25.1707 47.3639 25.8832 47.4349 26.4523 47.3458C27.1406 47.2381 27.7788 46.9648 28.464 46.9648C28.9011 46.9648 29.4182 46.6735 29.8645 46.5838C30.3933 46.4774 31.0451 46.5612 31.5833 46.5612C33.1198 46.5612 34.6561 46.5612 36.1927 46.5612C36.8001 46.5612 37.0826 46.0928 37.6314 46.0569C37.904 46.0392 38.6504 45.7637 38.7772 45.5526C39.224 44.8098 38.2695 44.5441 37.6568 44.5441" stroke="#F8F1FD" stroke-width="3" stroke-linecap="round"/>
<path d="M18.8637 45.4611C18.693 45.7315 18.4555 45.8533 18.2271 46.0663C18.08 46.2033 18.2181 46.4629 18.0615 46.6265C17.6876 47.0174 17.5581 47.5261 18.1761 47.6015C18.7502 47.6716 19.1651 47.8818 19.7549 47.8818C20.3077 47.8818 20.8241 47.9825 21.3847 47.9825C21.8431 47.9825 22.3014 47.9825 22.7598 47.9825C23.291 47.9825 24.169 47.9666 24.6443 47.7809C25.1707 47.5749 25.8832 47.6458 26.4523 47.5567C27.1406 47.4491 27.7788 47.1757 28.464 47.1757C28.9011 47.1757 29.4182 46.8844 29.8645 46.7947C30.3933 46.6883 31.0451 46.7721 31.5833 46.7721C33.1198 46.7721 34.6561 46.7721 36.1927 46.7721C36.8001 46.7721 37.0826 46.3037 37.6314 46.2678C37.904 46.2501 38.6504 45.9746 38.7772 45.7636C39.224 45.0208 38.2695 44.755 37.6568 44.755" stroke="#3B2276" stroke-width="2" stroke-linecap="round"/>
<path d="M18.8261 46.1269V44.3327L37.2925 43.5939V45.3881H29.2584L18.8261 46.1269Z" fill="#3B2276"/>
<path d="M18.8782 39.8054C18.6554 40.0446 18.3969 40.1271 18.1289 40.3006C17.9564 40.4123 18.0395 40.6896 17.8522 40.826C17.405 41.1515 17.1742 41.6319 17.767 41.8033C18.3176 41.9625 18.6832 42.2346 19.2635 42.3272C19.8074 42.4142 20.295 42.5947 20.8465 42.6829C21.2975 42.7551 21.7485 42.8271 22.1995 42.8993C22.7221 42.9829 23.5892 43.1055 24.0945 42.9972C24.6545 42.8775 25.3411 43.0593 25.9188 43.0612C26.6182 43.0635 27.3017 42.895 27.9758 43.0029C28.4058 43.0717 28.9737 42.8666 29.431 42.8484C29.973 42.8269 30.5973 43.012 31.1268 43.0966C32.6384 43.3385 34.1503 43.5802 35.6619 43.8219C36.2598 43.9175 36.6327 43.5009 37.1797 43.5521C37.4517 43.5775 38.2419 43.4238 38.4098 43.2362C39.0002 42.5757 38.115 42.1641 37.5121 42.0676" stroke="#F8F1FD" stroke-width="3" stroke-linecap="round"/>
<path d="M18.8782 40.0165C18.6554 40.2556 18.3969 40.3382 18.1289 40.5117C17.9564 40.6233 18.0395 40.9007 17.8522 41.0371C17.405 41.3626 17.1742 41.843 17.767 42.0144C18.3176 42.1735 18.6832 42.4456 19.2635 42.5383C19.8074 42.6253 20.295 42.8057 20.8465 42.894C21.2975 42.9662 21.7485 43.0381 22.1995 43.1103C22.7221 43.1939 23.5892 43.3166 24.0945 43.2083C24.6545 43.0886 25.3411 43.2703 25.9188 43.2722C26.6182 43.2746 27.3017 43.1061 27.9758 43.214C28.4058 43.2828 28.9737 43.0776 29.431 43.0595C29.973 43.0379 30.5973 43.223 31.1268 43.3077C32.6384 43.5496 34.1503 43.7913 35.6619 44.033C36.2598 44.1286 36.6327 43.7119 37.1797 43.7632C37.4517 43.7885 38.2419 43.6349 38.4098 43.4472C39.0002 42.7867 38.115 42.3751 37.5121 42.2787" stroke="#3B2276" stroke-width="2" stroke-linecap="round"/>
<path d="M108.53 20.3374L108.531 20.3355C108.528 20.3449 108.527 20.3465 108.53 20.3374ZM108.575 20.0706C108.574 20.0522 108.571 20.032 108.567 20.0112C108.561 19.9844 108.544 19.9262 108.493 19.8684C108.431 19.7977 108.328 19.7415 108.2 19.7415C108.129 19.7415 108.075 19.7608 108.063 19.7651L108.062 19.7654C108.041 19.7727 108.025 19.7801 108.016 19.7845C107.998 19.7936 107.981 19.8031 107.97 19.8097C107.947 19.8236 107.921 19.841 107.894 19.8589C107.839 19.8957 107.767 19.9468 107.683 20.0073C107.515 20.1283 107.292 20.2937 107.053 20.4736C106.807 20.6525 106.574 20.8383 106.397 20.9926C106.309 21.0696 106.231 21.1419 106.171 21.2036C106.146 21.2291 106.122 21.2554 106.1 21.2813C106.005 21.2787 105.906 21.3017 105.818 21.3601C105.701 21.4374 105.648 21.5467 105.633 21.6462C105.632 21.6479 105.631 21.6497 105.63 21.6516C105.616 21.6749 105.593 21.7082 105.56 21.7496C105.495 21.8318 105.405 21.931 105.304 22.0256C105.123 22.1923 104.984 22.3547 104.887 22.5801C104.795 22.7943 104.749 23.0474 104.714 23.3809V23.3826L104.713 23.3844C104.691 23.6165 104.68 23.8621 104.682 24.0743C104.684 24.2708 104.696 24.477 104.739 24.6109C104.758 24.6779 104.779 24.746 104.801 24.7996C104.812 24.8267 104.83 24.865 104.856 24.903C104.88 24.9363 104.937 25.0089 105.047 25.0496C105.178 25.0984 105.301 25.0725 105.381 25.036C105.447 25.0053 105.492 24.9638 105.515 24.9418C105.528 24.9284 105.542 24.9139 105.555 24.8987C105.578 24.9196 105.605 24.9433 105.634 24.97C105.571 25.0057 105.511 25.0572 105.469 25.1317C105.388 25.2733 105.412 25.4164 105.465 25.5198C105.517 25.6191 105.601 25.6959 105.689 25.7476L105.7 25.7537L105.711 25.7591C105.824 25.8163 105.968 25.8407 106.074 25.8527C106.194 25.8661 106.327 25.8699 106.45 25.8621L106.463 25.8613L106.476 25.8598C106.509 25.8555 106.578 25.8585 106.667 25.879C106.748 25.8977 106.817 25.9243 106.858 25.9458C106.976 26.0209 107.123 26.0966 107.299 26.1101C107.472 26.1233 107.617 26.0736 107.736 26.0089C107.753 26.0215 107.775 26.039 107.804 26.063C107.865 26.1153 107.941 26.1877 108.041 26.2873C108.11 26.3584 108.163 26.4171 108.203 26.4647C108.094 26.5818 108.051 26.7397 108.068 26.8726L108.07 26.8896L108.074 26.9063C108.105 27.0289 108.196 27.1151 108.251 27.1607C108.315 27.2149 108.393 27.2639 108.472 27.3071C108.632 27.394 108.835 27.4772 109.049 27.5449C109.428 27.6684 109.892 27.8458 110.072 27.941L110.077 27.9433L110.081 27.9455C110.206 28.0074 110.341 28.0639 110.464 28.1003C110.524 28.1178 110.591 28.1338 110.66 28.1409C110.746 28.3091 110.923 28.4049 111.081 28.4648C111.27 28.5367 111.532 28.5944 111.865 28.6508C112.378 28.741 113.176 28.8182 113.64 28.8182C113.944 28.8182 114.19 28.8065 114.374 28.7675C114.491 28.7426 114.619 28.6985 114.72 28.617C114.823 28.6666 114.945 28.7002 115.092 28.6899C115.269 28.6774 115.435 28.601 115.58 28.528L115.582 28.527L115.584 28.526C115.725 28.4531 116.051 28.3958 116.653 28.4205L116.656 28.4206L116.659 28.4207C116.917 28.4272 117.164 28.421 117.358 28.4018C117.453 28.3923 117.549 28.3785 117.631 28.3574C117.671 28.3469 117.721 28.3315 117.77 28.3076C117.801 28.2922 117.858 28.2608 117.907 28.2056C117.913 28.2041 117.921 28.2026 117.929 28.2013C117.945 28.1987 117.963 28.1973 117.98 28.1973C118.131 28.1973 118.273 28.1559 118.386 28.0949C118.447 28.0623 118.51 28.0182 118.563 27.9625C118.566 27.964 118.569 27.9654 118.572 27.967L118.574 27.9681L118.577 27.9693C118.69 28.0267 118.813 28.0765 118.924 28.1044C118.976 28.1175 119.05 28.1321 119.129 28.1296C119.191 28.1276 119.387 28.1085 119.485 27.9352L119.492 27.9235L119.498 27.9112C119.536 27.8277 119.548 27.7234 119.551 27.6442C119.553 27.6118 119.553 27.5774 119.553 27.5416L119.611 27.67L119.944 27.5544C120.886 27.2273 121.388 26.9782 121.682 26.7771L121.686 26.7744L121.69 26.7716C121.923 26.6021 122.267 26.3718 122.441 26.266L122.443 26.2646L122.445 26.2633C122.612 26.1583 122.749 25.9816 122.857 25.8095C122.972 25.6269 123.078 25.4076 123.168 25.1771L123.17 25.1717L123.172 25.1662C123.239 24.9706 123.32 24.7728 123.396 24.6129C123.434 24.5329 123.469 24.4655 123.499 24.4142C123.527 24.3677 123.543 24.3468 123.547 24.342C123.548 24.3408 123.548 24.3406 123.548 24.341L123.552 24.3362L123.557 24.3312C123.641 24.2412 123.719 24.1274 123.742 23.9996C123.75 23.9495 123.752 23.8896 123.735 23.8268C123.795 23.8013 123.855 23.7711 123.914 23.7371C124.072 23.6461 124.242 23.5278 124.313 23.3147C124.371 23.1383 124.345 22.9335 124.312 22.7235C124.265 22.3944 124.115 21.9218 123.978 21.627L123.977 21.6246L123.976 21.6222C123.895 21.4571 123.766 21.2836 123.633 21.1357C123.501 20.989 123.346 20.8466 123.201 20.7502C122.873 20.5267 122.293 20.368 121.764 20.3032L121.761 20.3029L121.758 20.3025C121.279 20.2514 120.28 20.1887 119.537 20.1761C119.177 20.17 118.829 20.1547 118.561 20.1352C118.427 20.1254 118.317 20.1148 118.238 20.1044C118.198 20.0992 118.171 20.0946 118.154 20.0912C118.154 20.0911 118.154 20.0912 118.154 20.0912C117.892 19.9857 117.553 20.0894 117.447 20.3531C117.4 20.4503 117.393 20.5523 117.402 20.6328C117.411 20.7138 117.445 20.8416 117.556 20.9399C117.624 20.9998 117.705 21.0307 117.751 21.0463C117.806 21.0649 117.865 21.0784 117.92 21.0885C118.033 21.1087 118.163 21.1197 118.29 21.1197C118.427 21.1197 118.516 21.1676 118.573 21.2515L118.578 21.2579L118.583 21.2642C118.611 21.3022 118.656 21.3873 118.7 21.5078C118.743 21.6227 118.777 21.7461 118.794 21.8458L118.796 21.8537L118.798 21.8616C118.818 21.9462 118.828 22.0774 118.824 22.2217C118.819 22.3657 118.8 22.4982 118.774 22.5851L118.77 22.5965L118.768 22.608C118.754 22.6738 118.741 22.7204 118.728 22.7531C118.513 22.7278 118.106 22.7076 117.773 22.697C117.561 22.6844 117.365 22.6835 117.216 22.6967C117.15 22.7026 117.067 22.7134 116.991 22.7386C116.94 22.6112 116.817 22.555 116.774 22.5378C116.712 22.5139 116.651 22.5039 116.61 22.4985C116.564 22.4924 116.513 22.4884 116.46 22.4854C116.354 22.4795 116.214 22.4763 116.043 22.4732L116.039 22.4732H116.035C115.853 22.4732 115.683 22.4615 115.561 22.4434C115.526 22.4381 115.498 22.4329 115.478 22.4283C115.437 22.3891 115.385 22.357 115.326 22.3348C115.229 22.2984 115.133 22.2973 115.057 22.3078C114.914 22.3274 114.788 22.3939 114.686 22.4657C114.683 22.4677 114.664 22.4784 114.621 22.4954C114.577 22.5133 114.519 22.5331 114.451 22.5531C114.315 22.5928 114.155 22.6288 114.007 22.6508C113.915 22.6626 113.846 22.6711 113.791 22.6765C113.79 22.6651 113.788 22.6528 113.787 22.6396C113.777 22.5079 113.747 22.38 113.702 22.2752C113.679 22.2227 113.649 22.1649 113.607 22.1128C113.577 22.0754 113.489 21.9735 113.33 21.9454L113.324 21.9444L113.318 21.9435C113.12 21.9143 112.984 22.0159 112.926 22.0751C112.867 22.1354 112.832 22.2045 112.81 22.2565C112.763 22.3658 112.734 22.5005 112.718 22.6325V22.6341C112.698 22.8122 112.672 22.8458 112.658 22.8622C112.631 22.8915 112.568 22.9355 112.335 23.0356C111.998 23.162 111.876 23.1528 111.831 23.14C111.706 23.0763 111.564 23.0503 111.45 23.041C111.32 23.0304 111.177 23.0376 111.051 23.0679C111.043 23.0699 111.033 23.0712 111.022 23.0713C111.014 23.0715 111.008 23.071 111.002 23.0702C110.928 23.0025 110.839 22.9685 110.795 22.9528C110.722 22.9265 110.639 22.907 110.556 22.8923C110.39 22.8626 110.186 22.8457 109.976 22.8457H109.972L109.968 22.8458C109.807 22.8489 109.705 22.849 109.631 22.8432C109.574 22.8388 109.554 22.8321 109.549 22.8304C109.546 22.8275 109.535 22.818 109.517 22.7935C109.485 22.7489 109.447 22.6824 109.385 22.5678L109.382 22.5619L109.379 22.5561C109.255 22.348 109.152 21.9406 109.152 21.6723C109.152 21.4539 109.171 21.3524 109.196 21.2943C109.214 21.2552 109.239 21.2206 109.334 21.1636L109.348 21.1552L109.361 21.1456C109.388 21.126 109.474 21.0849 109.619 21.0488C109.755 21.0149 109.902 20.9956 110.018 20.9956C110.289 20.9956 110.765 21.0645 111.043 21.16L111.05 21.1625L111.057 21.1647C111.309 21.2406 111.528 21.3029 111.715 21.3029C111.825 21.3029 111.93 21.2822 112.029 21.2359C112.121 21.1935 112.191 21.1366 112.245 21.0889C112.321 21.0224 112.392 20.9438 112.446 20.8656C112.489 20.8031 112.562 20.6856 112.562 20.5547C112.562 20.4881 112.551 20.4037 112.505 20.3233C112.462 20.2473 112.354 20.1265 112.162 20.1149C112.151 20.1131 112.135 20.1102 112.112 20.1058C112.063 20.0968 111.997 20.0834 111.915 20.0664C111.751 20.0327 111.534 19.9865 111.302 19.9369C111.035 19.8781 110.786 19.8403 110.582 19.8262C110.48 19.8192 110.382 19.8175 110.294 19.8241C110.219 19.8297 110.1 19.8443 109.996 19.9014L109.995 19.9022C109.987 19.9047 109.974 19.9084 109.955 19.9129C109.902 19.9259 109.826 19.9406 109.729 19.9561C109.536 19.9867 109.286 20.0166 109.025 20.0409C108.835 20.0556 108.688 20.0657 108.575 20.0706ZM107.856 20.0853C107.856 20.0856 107.856 20.0859 107.856 20.0862C107.856 20.0826 107.856 20.082 107.856 20.0853ZM118.623 26.6937C118.623 26.6935 118.623 26.6937 118.623 26.6937V26.6937ZM113.811 22.7895C113.811 22.7895 113.811 22.7899 113.811 22.7895V22.7895ZM108.349 20.0702C108.342 20.0694 108.34 20.0687 108.34 20.0686C108.34 20.0685 108.343 20.0689 108.349 20.0702Z" fill="#3B2276"/>
<path d="M118.154 20.0912C118.171 20.0946 118.198 20.0992 118.238 20.1044C118.317 20.1148 118.427 20.1254 118.561 20.1352C118.829 20.1547 119.177 20.17 119.537 20.1761C120.28 20.1887 121.279 20.2514 121.758 20.3025L121.761 20.3029L121.764 20.3032C122.293 20.368 122.873 20.5267 123.201 20.7502C123.346 20.8466 123.501 20.989 123.633 21.1357C123.766 21.2836 123.895 21.4571 123.976 21.6222L123.977 21.6246L123.978 21.627C124.115 21.9218 124.265 22.3944 124.312 22.7235C124.345 22.9335 124.371 23.1383 124.313 23.3147C124.242 23.5278 124.072 23.6461 123.914 23.7371C123.855 23.7711 123.795 23.8013 123.735 23.8268C123.752 23.8896 123.75 23.9495 123.742 23.9996C123.719 24.1274 123.641 24.2412 123.557 24.3312L123.552 24.3362L123.548 24.341C123.548 24.3406 123.548 24.3408 123.547 24.342C123.543 24.3468 123.527 24.3677 123.499 24.4142C123.469 24.4655 123.434 24.5329 123.396 24.6129C123.32 24.7728 123.239 24.9706 123.172 25.1662L123.17 25.1717L123.168 25.1771C123.078 25.4076 122.972 25.6269 122.857 25.8095C122.749 25.9816 122.612 26.1583 122.445 26.2633L122.443 26.2646L122.441 26.266C122.267 26.3718 121.923 26.6021 121.69 26.7716L121.686 26.7744L121.682 26.7771C121.388 26.9782 120.886 27.2273 119.944 27.5544L119.611 27.67L119.553 27.5416C119.553 27.5774 119.553 27.6118 119.551 27.6442C119.548 27.7234 119.536 27.8277 119.498 27.9112L119.492 27.9235L119.485 27.9352C119.387 28.1085 119.191 28.1276 119.129 28.1296C119.05 28.1321 118.976 28.1175 118.924 28.1044C118.813 28.0765 118.69 28.0267 118.577 27.9693L118.574 27.9681L118.572 27.967C118.569 27.9654 118.566 27.964 118.563 27.9625C118.51 28.0182 118.447 28.0623 118.386 28.0949C118.273 28.1559 118.131 28.1973 117.98 28.1973C117.963 28.1973 117.945 28.1987 117.929 28.2013C117.921 28.2026 117.913 28.2041 117.907 28.2056C117.858 28.2608 117.801 28.2922 117.77 28.3076C117.721 28.3315 117.671 28.3469 117.631 28.3574C117.549 28.3785 117.453 28.3923 117.358 28.4018C117.164 28.421 116.917 28.4272 116.659 28.4207L116.656 28.4206L116.653 28.4205C116.051 28.3958 115.725 28.4531 115.584 28.526L115.582 28.527L115.58 28.528C115.435 28.601 115.269 28.6774 115.092 28.6899C114.945 28.7002 114.823 28.6666 114.72 28.617C114.619 28.6985 114.491 28.7426 114.374 28.7675C114.19 28.8065 113.944 28.8182 113.64 28.8182C113.176 28.8182 112.378 28.741 111.865 28.6508C111.532 28.5944 111.27 28.5367 111.081 28.4648C110.923 28.4049 110.746 28.3091 110.66 28.1409C110.591 28.1338 110.524 28.1178 110.464 28.1003C110.341 28.0639 110.206 28.0074 110.081 27.9455L110.077 27.9433L110.072 27.941C109.892 27.8458 109.428 27.6684 109.049 27.5449C108.835 27.4772 108.632 27.394 108.472 27.3071C108.393 27.2639 108.315 27.2149 108.251 27.1607C108.196 27.1151 108.105 27.0289 108.074 26.9063L108.07 26.8896L108.068 26.8726C108.051 26.7397 108.094 26.5818 108.203 26.4647C108.163 26.4171 108.11 26.3584 108.041 26.2873C107.941 26.1877 107.865 26.1153 107.804 26.063C107.775 26.039 107.753 26.0215 107.736 26.0089C107.617 26.0736 107.472 26.1233 107.299 26.1101C107.123 26.0966 106.976 26.0209 106.858 25.9458C106.817 25.9243 106.748 25.8977 106.667 25.879C106.578 25.8585 106.509 25.8555 106.476 25.8598L106.463 25.8613L106.45 25.8621C106.327 25.8699 106.194 25.8661 106.074 25.8527C105.968 25.8407 105.824 25.8163 105.711 25.7591L105.7 25.7537L105.689 25.7476C105.601 25.6959 105.517 25.6191 105.465 25.5198C105.412 25.4164 105.388 25.2733 105.469 25.1317C105.511 25.0572 105.571 25.0057 105.634 24.97C105.605 24.9433 105.578 24.9196 105.555 24.8987C105.542 24.9139 105.528 24.9284 105.515 24.9418C105.492 24.9638 105.447 25.0053 105.381 25.036C105.301 25.0725 105.178 25.0984 105.047 25.0496C104.937 25.0089 104.88 24.9363 104.856 24.903C104.83 24.865 104.812 24.8267 104.801 24.7996C104.779 24.746 104.758 24.6779 104.739 24.6109C104.696 24.477 104.684 24.2708 104.682 24.0743C104.68 23.8621 104.691 23.6165 104.713 23.3844L104.714 23.3826V23.3809C104.749 23.0474 104.795 22.7943 104.887 22.5801C104.984 22.3547 105.123 22.1923 105.304 22.0256C105.405 21.931 105.495 21.8318 105.56 21.7496C105.593 21.7082 105.616 21.6749 105.63 21.6516C105.631 21.6497 105.632 21.6479 105.633 21.6462C105.648 21.5467 105.701 21.4374 105.818 21.3601C105.906 21.3017 106.005 21.2787 106.1 21.2813C106.122 21.2554 106.146 21.2291 106.171 21.2036C106.231 21.1419 106.309 21.0696 106.397 20.9926C106.574 20.8383 106.807 20.6525 107.053 20.4736C107.292 20.2937 107.515 20.1283 107.683 20.0073C107.767 19.9468 107.839 19.8957 107.894 19.8589C107.921 19.841 107.947 19.8236 107.97 19.8097C107.981 19.8031 107.998 19.7936 108.016 19.7845C108.025 19.7801 108.041 19.7727 108.062 19.7654L108.063 19.7651C108.075 19.7608 108.129 19.7415 108.2 19.7415C108.328 19.7415 108.431 19.7977 108.493 19.8684C108.544 19.9262 108.561 19.9844 108.567 20.0112C108.571 20.032 108.574 20.0522 108.575 20.0706C108.688 20.0657 108.835 20.0556 109.025 20.0409C109.286 20.0166 109.536 19.9867 109.729 19.9561C109.826 19.9406 109.902 19.9259 109.955 19.9129C109.974 19.9084 109.987 19.9047 109.995 19.9022L109.996 19.9014C110.1 19.8443 110.219 19.8297 110.294 19.8241C110.382 19.8175 110.48 19.8192 110.582 19.8262C110.786 19.8403 111.035 19.8781 111.302 19.9369C111.534 19.9865 111.751 20.0327 111.915 20.0664C111.997 20.0834 112.063 20.0968 112.112 20.1058C112.135 20.1102 112.151 20.1131 112.162 20.1149C112.354 20.1265 112.462 20.2473 112.505 20.3233C112.551 20.4037 112.562 20.4881 112.562 20.5547C112.562 20.6856 112.489 20.8031 112.446 20.8656C112.392 20.9438 112.321 21.0224 112.245 21.0889C112.191 21.1366 112.121 21.1935 112.029 21.2359C111.93 21.2822 111.825 21.3029 111.715 21.3029C111.528 21.3029 111.309 21.2406 111.057 21.1647L111.05 21.1625L111.043 21.16C110.765 21.0645 110.289 20.9956 110.018 20.9956C109.902 20.9956 109.755 21.0149 109.619 21.0488C109.474 21.0849 109.388 21.126 109.361 21.1456L109.348 21.1552L109.334 21.1636C109.239 21.2206 109.214 21.2552 109.196 21.2943C109.171 21.3524 109.152 21.4539 109.152 21.6723C109.152 21.9406 109.255 22.348 109.379 22.5561L109.382 22.5619L109.385 22.5678C109.447 22.6824 109.485 22.7489 109.517 22.7935C109.535 22.818 109.546 22.8275 109.549 22.8304M118.154 20.0912C118.154 20.0911 118.154 20.0912 118.154 20.0912ZM118.154 20.0912C117.892 19.9857 117.553 20.0894 117.447 20.3531C117.4 20.4503 117.393 20.5523 117.402 20.6328C117.411 20.7138 117.445 20.8416 117.556 20.9399C117.624 20.9998 117.705 21.0307 117.751 21.0463C117.806 21.0649 117.865 21.0784 117.92 21.0885C118.033 21.1087 118.163 21.1197 118.29 21.1197C118.427 21.1197 118.516 21.1676 118.573 21.2515L118.578 21.2579L118.583 21.2642C118.611 21.3022 118.656 21.3873 118.7 21.5078C118.743 21.6227 118.777 21.7461 118.794 21.8458L118.796 21.8537L118.798 21.8616C118.818 21.9462 118.828 22.0774 118.824 22.2217C118.819 22.3657 118.8 22.4982 118.774 22.5851L118.77 22.5965L118.768 22.608C118.754 22.6738 118.741 22.7204 118.728 22.7531C118.513 22.7278 118.106 22.7076 117.773 22.697C117.561 22.6844 117.365 22.6835 117.216 22.6967C117.15 22.7026 117.067 22.7134 116.991 22.7386C116.94 22.6112 116.817 22.555 116.774 22.5378C116.712 22.5139 116.651 22.5039 116.61 22.4985C116.564 22.4924 116.513 22.4884 116.46 22.4854C116.354 22.4795 116.214 22.4763 116.043 22.4732L116.039 22.4732H116.035C115.853 22.4732 115.683 22.4615 115.561 22.4434C115.526 22.4381 115.498 22.4329 115.478 22.4283C115.437 22.3891 115.385 22.357 115.326 22.3348C115.229 22.2984 115.133 22.2973 115.057 22.3078C114.914 22.3274 114.788 22.3939 114.686 22.4657C114.683 22.4677 114.664 22.4784 114.621 22.4954C114.577 22.5133 114.519 22.5331 114.451 22.5531C114.315 22.5928 114.155 22.6288 114.007 22.6508C113.915 22.6626 113.846 22.6711 113.791 22.6765C113.79 22.6651 113.788 22.6528 113.787 22.6396C113.777 22.5079 113.747 22.38 113.702 22.2752C113.679 22.2227 113.649 22.1649 113.607 22.1128C113.577 22.0754 113.489 21.9735 113.33 21.9454L113.324 21.9444L113.318 21.9435C113.12 21.9143 112.984 22.0159 112.926 22.0751C112.867 22.1354 112.832 22.2045 112.81 22.2565C112.763 22.3658 112.734 22.5005 112.718 22.6325V22.6341C112.698 22.8122 112.672 22.8458 112.658 22.8622C112.631 22.8915 112.568 22.9355 112.335 23.0356C111.998 23.162 111.876 23.1528 111.831 23.14C111.706 23.0763 111.564 23.0503 111.45 23.041C111.32 23.0304 111.177 23.0376 111.051 23.0679C111.043 23.0699 111.033 23.0712 111.022 23.0713C111.014 23.0715 111.008 23.071 111.002 23.0702C110.928 23.0025 110.839 22.9685 110.795 22.9528C110.722 22.9265 110.639 22.907 110.556 22.8923C110.39 22.8626 110.186 22.8457 109.976 22.8457H109.972L109.968 22.8458C109.807 22.8489 109.705 22.849 109.631 22.8432C109.574 22.8388 109.554 22.8321 109.549 22.8304M109.549 22.8304C109.55 22.8311 109.551 22.8316 109.551 22.8315M105.641 21.6319C105.641 21.6319 105.64 21.6322 105.64 21.6329M105.67 24.7542C105.67 24.7542 105.67 24.7545 105.669 24.7549M105.48 24.5891C105.48 24.5891 105.48 24.5888 105.479 24.5881M105.977 25.5207C105.977 25.5207 105.977 25.5206 105.978 25.5205M113.489 22.466C113.489 22.466 113.489 22.4663 113.489 22.467M110.007 19.8981C110.007 19.8981 110.006 19.8986 110.003 19.8995M112.174 20.1165C112.174 20.1166 112.172 20.1164 112.169 20.116M115.441 22.4182C115.441 22.4182 115.441 22.4183 115.442 22.4185M118.142 20.0884C118.142 20.0884 118.143 20.0887 118.146 20.0894M110.62 28.0318C110.62 28.0318 110.621 28.0324 110.621 28.0339M108.53 20.3374L108.531 20.3355C108.528 20.3449 108.527 20.3465 108.53 20.3374ZM107.856 20.0853C107.856 20.0856 107.856 20.0859 107.856 20.0862C107.856 20.0826 107.856 20.082 107.856 20.0853ZM118.623 26.6937C118.623 26.6937 118.623 26.6935 118.623 26.6937ZM113.811 22.7895C113.811 22.7895 113.811 22.7899 113.811 22.7895ZM108.349 20.0702C108.342 20.0694 108.34 20.0687 108.34 20.0686C108.34 20.0685 108.343 20.0689 108.349 20.0702Z" stroke="#D9CBF0"/>
<path d="M295.897 48.1088C295.72 47.8895 295.504 47.7101 295.415 47.7101C295.31 47.7101 295.096 47.8895 294.935 48.089C294.703 48.3881 294.24 48.5276 292.832 48.6872C291.3 48.8468 290.998 48.8468 290.767 48.5876C290.623 48.428 290.338 48.3284 290.144 48.3881C289.947 48.448 289.75 48.6674 289.698 48.8668C289.645 49.106 289.376 49.3055 288.985 49.4051C288.647 49.4849 287.81 49.7641 287.115 50.0234C286.438 50.2826 285.635 50.482 285.35 50.4422C284.959 50.4221 284.762 50.5219 284.637 50.8409C284.532 51.0803 284.069 51.559 283.606 51.8779C282.963 52.3565 282.75 52.6159 282.75 52.9948C282.75 53.2739 282.875 53.5331 283.016 53.593C283.16 53.6527 283.534 53.5531 283.82 53.3935C284.122 53.234 284.388 53.0944 284.443 53.0944C284.496 53.0944 284.532 53.3737 284.532 53.6926C284.532 54.1513 284.371 54.4306 283.889 54.8494L283.266 55.3879L283.374 58.7779L285.067 58.8777C285.067 57.3421 285.155 56.6839 285.28 56.4448C285.386 56.1856 285.599 55.8862 285.76 55.7467C285.92 55.6072 286.259 55.5073 286.544 55.4875C286.846 55.4875 287.22 55.7068 287.561 56.0857C288.024 56.6041 288.093 56.8237 288.093 57.7807V58.8777L290.321 58.7779C290.499 54.5701 290.518 54.4306 290.998 53.9719C291.3 53.6728 291.693 53.4934 292.103 53.4934C292.513 53.4934 292.904 53.6728 293.225 53.9719C293.688 54.4306 293.705 54.5701 293.794 56.6242L293.885 58.7779L296.377 58.8976C296.593 54.6499 296.609 54.5701 297.161 54.0517C297.535 53.6728 297.909 53.4934 298.338 53.4934C298.746 53.4934 299.139 53.6728 299.461 53.9719C299.924 54.4306 299.941 54.5701 300.029 56.6242L300.118 58.7779L302.346 58.8777C302.346 57.3421 302.451 56.6641 302.576 56.3848C302.684 56.1058 302.969 55.8067 303.2 55.687C303.416 55.5871 303.754 55.4875 303.948 55.4875C304.145 55.4875 304.555 55.7668 304.84 56.0857C305.303 56.6041 305.375 56.8237 305.375 57.7807V58.8777L307.066 58.7779C307.154 55.4674 307.121 55.2682 306.799 55.0487C306.55 54.8692 306.442 54.5701 306.442 54.0517C306.442 53.3536 306.478 53.3137 306.799 53.4934C307.049 53.6329 307.245 53.6129 307.423 53.4535C307.584 53.3137 307.708 53.0347 307.689 52.8551C307.689 52.6558 307.423 52.2967 307.085 52.0574C306.727 51.7982 306.425 51.3794 306.389 51.1003C306.337 50.821 306.176 50.5418 306.015 50.462C305.855 50.3624 305.569 50.4023 305.375 50.5019C305.106 50.6615 304.591 50.5418 303.2 50.0035C302.185 49.6246 301.224 49.126 301.063 48.9065C300.885 48.6872 300.706 48.5078 300.653 48.5078C300.6 48.5078 300.387 48.6074 300.173 48.7271C299.869 48.8867 299.3 48.8867 297.981 48.7271C296.609 48.5477 296.127 48.4081 295.897 48.1088Z" fill="#3B2276"/>
<path d="M19.4688 40.9497L19.4273 37.5685L28.4524 38.9886L28.9294 40.95L19.4688 40.9497Z" fill="#3B2276"/>
</g>
<path d="M24.6753 4.90909V18H21.9076V4.90909H24.6753ZM29.7202 4.90909V18H26.9525V4.90909H29.7202ZM31.4988 7.19105V4.90909H42.2502V7.19105H38.2424V18H35.5066V7.19105H31.4988ZM48.1868 18V4.90909H53.3516C54.3445 4.90909 55.1904 5.09872 55.8893 5.47798C56.5881 5.85298 57.1208 6.375 57.4873 7.04403C57.858 7.70881 58.0434 8.47585 58.0434 9.34517C58.0434 10.2145 57.8559 10.9815 57.4809 11.6463C57.1059 12.3111 56.5626 12.8288 55.8509 13.1996C55.1435 13.5703 54.287 13.7557 53.2813 13.7557H49.9894V11.5376H52.8339C53.3665 11.5376 53.8055 11.446 54.1506 11.2628C54.5001 11.0753 54.76 10.8175 54.9305 10.4893C55.1052 10.157 55.1925 9.77557 55.1925 9.34517C55.1925 8.91051 55.1052 8.53125 54.9305 8.20739C54.76 7.87926 54.5001 7.62571 54.1506 7.44673C53.8012 7.26349 53.358 7.17188 52.8211 7.17188H50.9546V18H48.1868ZM60.5858 18H57.6199L62.1391 4.90909H65.7058L70.2186 18H67.2527L63.9736 7.90057H63.8713L60.5858 18ZM60.4004 12.8544H67.4061V15.0149H60.4004V12.8544ZM69.6961 7.19105V4.90909H80.4475V7.19105H76.4397V18H73.7039V7.19105H69.6961ZM93.1677 4.90909V18H90.777L85.0817 9.76065H84.9859V18H82.2181V4.90909H84.6471L90.2976 13.142H90.4127V4.90909H93.1677ZM97.7108 18H94.7449L99.2641 4.90909H102.831L107.344 18H104.378L101.099 7.90057H100.996L97.7108 18ZM97.5254 12.8544H104.531V15.0149H97.5254V12.8544ZM109.304 4.90909V6.28977C109.304 6.68182 109.228 7.08239 109.074 7.49148C108.925 7.89631 108.725 8.27983 108.473 8.64205C108.222 9 107.947 9.30469 107.649 9.55611L106.447 8.84659C106.66 8.50994 106.848 8.13707 107.01 7.72798C107.176 7.31889 107.259 6.84375 107.259 6.30256V4.90909H109.304ZM118.057 10.9815L115.564 11.1349C115.521 10.9219 115.43 10.7301 115.289 10.5597C115.148 10.3849 114.963 10.2464 114.733 10.1442C114.507 10.0376 114.236 9.98438 113.921 9.98438C113.499 9.98438 113.143 10.0739 112.854 10.2528C112.564 10.4276 112.419 10.6619 112.419 10.956C112.419 11.1903 112.513 11.3885 112.7 11.5504C112.888 11.7124 113.209 11.8423 113.665 11.9403L115.442 12.2983C116.397 12.4943 117.109 12.8097 117.577 13.2443C118.046 13.679 118.28 14.25 118.28 14.9574C118.28 15.6009 118.091 16.1655 117.712 16.6513C117.337 17.1371 116.821 17.5163 116.165 17.7891C115.513 18.0575 114.761 18.1918 113.908 18.1918C112.609 18.1918 111.573 17.9212 110.802 17.38C110.035 16.8345 109.585 16.093 109.453 15.1555L112.131 15.0149C112.212 15.4112 112.408 15.7138 112.719 15.9226C113.03 16.1271 113.429 16.2294 113.915 16.2294C114.392 16.2294 114.775 16.1378 115.065 15.9545C115.359 15.767 115.508 15.5263 115.513 15.2322C115.508 14.9851 115.404 14.7827 115.199 14.625C114.995 14.4631 114.68 14.3395 114.253 14.2543L112.553 13.9155C111.594 13.7237 110.881 13.3913 110.412 12.9183C109.947 12.4453 109.715 11.8423 109.715 11.1094C109.715 10.4787 109.886 9.93537 110.226 9.4794C110.572 9.02344 111.055 8.67188 111.677 8.42472C112.304 8.17756 113.037 8.05398 113.876 8.05398C115.116 8.05398 116.092 8.31605 116.804 8.8402C117.52 9.36435 117.937 10.0781 118.057 10.9815Z" fill="#432F72"/>
<defs>
<clipPath id="clip0_1098_7196">
<rect width="377" height="74.5129" fill="white" transform="translate(0 8.87061)"/>
</clipPath>
</defs>
</svg>
