<svg width="165" height="273" viewBox="0 0 165 273" fill="none" xmlns="http://www.w3.org/2000/svg">
<rect width="165" height="273" fill="#E3E3E3"/>
<path d="M-397 -4664C-397 -4665.1 -396.105 -4666 -395 -4666H3931C3932.1 -4666 3933 -4665.1 3933 -4664V2220C3933 2221.1 3932.1 2222 3931 2222H-395C-396.105 2222 -397 2221.1 -397 2220V-4664Z" fill="white"/>
<g clip-path="url(#clip0_325_71)">
<rect width="1499.26" height="6338" transform="translate(-18 -4392)" fill="#1C1D47"/>
<g opacity="0.7">
<path d="M125.01 7.03687C123.465 12.7604 121.177 18.0509 118.758 23.1493C116.344 28.2711 113.543 33.035 110.679 37.7044C107.835 42.406 104.666 46.7446 101.459 51.0078C99.7854 53.0836 98.1859 55.1241 96.5275 57.3309C94.86 59.4845 93.2407 61.6988 91.744 64.052C85.6743 73.3877 80.6478 83.7448 76.1088 94.3782C71.5396 104.999 67.4037 115.942 63.7421 127.215C60.0489 138.467 57.0952 150.186 54.9002 162.207C52.6666 173.869 49.2206 185.182 45.7681 196.426C38.8005 218.928 31.0126 241.033 23.3058 263.22L23.5843 263.428C33.0775 242.504 41.5586 220.77 48.8812 198.238C52.4476 186.919 55.6925 175.364 57.799 163.175C59.7777 151.313 62.2577 139.569 65.3553 128.105C68.4775 116.66 72.293 105.521 76.9977 95.089C81.7155 84.6676 87.4549 75.131 93.7145 66.4298C96.7917 62.0064 100.174 58.0566 103.452 53.6309C106.639 49.1704 109.779 44.64 112.591 39.7417C115.435 34.8794 117.951 29.6831 120.194 24.2938C122.386 18.8772 124.312 13.2052 125.318 7.13956L125.01 7.03687Z" fill="#5F97BA"/>
<path d="M140.577 56.5642C136.466 60.3818 132.814 64.9483 129.4 69.7715C126.001 74.6193 122.811 79.7354 120.019 85.2216C117.255 90.7431 114.879 96.573 112.294 102.19C109.709 107.804 106.928 113.26 103.94 118.475C100.926 123.624 97.8326 128.784 94.1703 132.609C92.3481 134.513 90.2931 135.879 88.17 136.16C85.4871 136.581 82.9143 137.852 80.5784 139.214C71.3954 145.274 63.5473 153.55 56.3771 162.728L56.5808 163.052C64.9604 155.986 73.236 148.582 82.0367 143.245C84.2626 141.963 86.4051 140.957 88.7066 140.437C91.5952 139.869 94.0716 137.934 96.0544 135.68C100.069 131.129 102.813 125.445 105.373 119.784C107.929 114.102 110.367 108.375 113.154 102.942C115.93 97.5029 119.055 92.3915 122.143 87.3087C128.186 76.9997 134.196 66.7266 140.784 56.8885L140.577 56.5642Z" fill="#5F97BA"/>
<path d="M133.817 148.63C127.132 155.592 120.05 161.771 112.168 164.922C110.211 165.711 108.192 166.404 106.114 166.561C104.083 166.868 101.767 166.711 99.6326 166.989C95.2874 167.352 90.9735 167.983 86.6787 169.013C78.0806 171.075 69.9065 175.81 62.7132 182.272C55.6448 188.984 49.5745 197.479 45.1679 207.255L45.4205 207.514C51.3989 199.415 57.7365 192.122 64.6674 185.953C68.1747 182.979 71.6723 179.93 75.4709 177.567C79.2495 175.193 83.1086 172.945 87.1473 171.221C91.183 169.522 95.4106 168.377 99.6971 168.335C101.875 168.199 103.892 168.744 106.18 168.877C108.426 169.11 110.684 168.806 112.89 168.277C117.301 167.068 121.269 164.227 124.817 160.913C128.368 157.563 131.517 153.545 134.053 148.912L133.817 148.63Z" fill="#5F97BA"/>
<path d="M82.0812 24.2395C79.8803 26.9985 78.0275 30.1121 76.2783 33.3196C74.5571 36.5513 72.9389 39.8904 71.6521 43.4794C70.4015 47.1006 69.4193 50.8925 68.2542 54.5298L66.39 59.921C65.7662 61.7193 65.0134 63.4477 64.4303 65.2902C63.772 67.0884 63.1262 68.9111 62.6439 70.8378C62.0712 72.7114 61.7211 74.713 61.3926 76.729C60.9615 78.6969 60.9745 80.8751 60.758 82.9586C60.8394 85.0869 60.9343 87.4723 61.2891 89.3367C61.9568 93.2649 62.6993 97.1827 63.6695 101.04C64.6876 104.874 65.6668 108.756 67.4077 112.284L67.6812 112.084C66.9795 108.24 66.5752 104.263 66.1002 100.347L64.6122 88.5845C63.2232 81.3271 64.7845 73.7548 66.0673 66.129C66.7877 62.3245 67.8072 58.606 69.1855 55.1411C70.5541 51.6657 72.3443 48.498 73.97 45.2442C77.0499 38.5905 79.8797 31.7754 82.3405 24.4842L82.0812 24.2395Z" fill="#5F97BA"/>
<path d="M49.5873 45.9677C47.9136 49.4619 46.7731 53.2924 45.8099 57.1928C44.8722 61.1035 44.1441 65.1299 43.8616 69.2509C43.6217 73.3891 43.7804 77.5582 43.7756 81.6639C43.7827 85.7735 43.6183 89.8668 43.6436 94.0248C43.5991 102.33 45.0014 110.854 47.8741 118.568C50.8438 126.226 55.4962 132.757 61.0094 136.933L61.205 136.605C56.9779 130.379 53.4563 123.862 50.9281 116.659C49.6612 113.076 48.4625 109.426 47.5834 105.598C46.7568 101.764 46 97.8657 45.3909 93.877C44.8168 89.8839 44.5805 85.7962 44.8165 81.7608C45.0562 77.7213 45.8197 73.7803 46.5007 69.8831C47.6816 62.0276 48.7957 54.2159 49.8914 46.1375L49.5873 45.9677Z" fill="#5F97BA"/>
<path d="M23.5241 41.818C24.7628 48.3671 25.7646 54.9418 26.2776 61.4642C26.4976 64.7228 26.6081 67.9734 26.4373 71.1401C26.2124 74.3409 25.73 77.2123 24.8044 80.1527C23.8805 83.2199 22.9087 86.336 22.202 89.6397C21.5025 92.9397 21.175 96.4511 21.4076 99.8932C21.8917 106.812 24.0992 113.184 26.4173 119.287C27.6169 122.331 28.8977 125.357 30.0699 128.234C31.2245 131.176 32.2912 134.195 33.2679 137.266C35.2391 143.401 36.9037 149.72 38.5055 156.069C41.7924 168.745 44.6715 181.64 47.6639 194.598L47.9796 194.533C46.9763 181.077 44.7886 167.787 41.7559 154.771C40.2094 148.27 38.2487 141.913 36.013 135.706C34.9348 132.58 33.6449 129.559 32.2689 126.616C30.8767 123.618 29.3238 120.973 27.9333 118.166C25.1936 112.593 22.6656 106.438 22.4492 99.8498C22.1997 93.1996 24.9446 87.5545 27.2383 81.7127C28.4427 78.6488 29.1557 74.9778 29.2789 71.5032C29.4094 67.9905 29.1802 64.519 28.7484 61.1167C27.8478 54.3187 26.1618 47.7874 23.8303 41.673L23.5241 41.818Z" fill="#5F97BA"/>
<path d="M150.035 152.684C148.193 152.667 146.496 152.93 144.821 153.245C143.147 153.569 141.516 153.892 139.914 154.657C138.31 155.394 136.607 156.01 134.904 155.695C133.2 155.445 131.602 154.401 130.202 153.37L130.929 154.29C130.666 152.773 130.404 151.032 130.304 149.397C130.21 147.736 130.169 146.114 130.16 144.483C130.164 142.853 130.24 141.217 130.462 139.566C130.634 137.884 131.001 136.239 131.369 134.409L131.109 134.153C129.982 135.283 128.924 136.704 128.255 138.443C127.548 140.152 127.054 142.066 126.888 144.036C126.678 146 126.756 148.017 127.086 149.944C127.423 151.892 127.846 153.703 128.615 155.573L128.944 156.371L129.342 156.492C131.242 157.065 133.094 156.895 134.86 157.022C136.629 157.004 138.401 157.415 140.24 157.661C142.078 157.9 143.84 157.343 145.517 156.581C147.186 155.784 148.796 154.74 150.162 153.082L150.035 152.684Z" fill="#5F97BA"/>
<path d="M142.954 164.065C140.192 162.685 137.649 161.959 135.056 161.546C133.749 161.457 132.34 161.588 131.073 160.98C129.806 160.417 128.704 159.231 128.033 157.786C126.695 154.932 126.31 151.888 126.109 148.607C125.817 145.322 125.752 141.869 125.461 138.067L125.151 137.93C123.42 141.039 122.658 144.828 122.677 148.775C122.72 150.755 123.141 152.774 123.79 154.667C124.387 156.585 125.485 158.326 126.814 159.424C128.115 160.558 129.404 161.36 130.672 162.233C131.927 163.115 133.165 164.34 134.545 165.011C135.92 165.688 137.374 165.818 138.794 165.744C140.215 165.638 141.632 165.361 142.98 164.493L142.954 164.065Z" fill="#5F97BA"/>
<path d="M134.36 170.438C133.292 169.112 132.157 168.165 131.017 167.267C129.867 166.401 128.736 165.558 127.492 165.05C126.243 164.556 124.871 164.315 123.724 163.473C122.605 162.654 121.579 161.329 121.258 159.88C120.782 157.018 120.948 153.649 120.945 150.334C120.839 146.977 120.697 143.543 120.06 139.895L119.742 139.815C118.323 143.027 117.709 146.533 117.507 150.139C117.435 151.949 117.617 153.797 117.896 155.649C118.152 157.489 118.68 159.437 119.773 161.081C120.891 162.64 122.09 163.464 123.166 164.614C124.252 165.709 125.211 167.194 126.363 168.234C127.513 169.271 128.818 169.867 130.135 170.324C131.46 170.751 132.816 171.049 134.267 170.846L134.36 170.438Z" fill="#5F97BA"/>
<path d="M128.067 175.436C127.601 173.711 126.755 172.354 125.842 171.126C124.891 169.963 123.864 168.869 122.687 168.157C121.503 167.458 120.178 167.23 118.927 166.948C117.681 166.639 116.512 166.149 115.348 165.487L115.83 166.228C115.924 164.327 116.273 162.412 116.326 160.526C116.381 158.639 116.491 156.758 116.479 154.889C116.387 151.121 115.992 147.498 115.42 143.543L115.104 143.445C114.261 145.167 113.788 147.099 113.48 149.017C113.171 150.945 113 152.888 113.026 154.828C113.055 156.769 113.277 158.699 113.49 160.618C113.702 162.542 114.243 164.43 114.596 166.336L114.722 167.021L115.078 167.076C116.27 167.26 117.448 167.691 118.475 168.586C119.519 169.437 120.401 170.638 121.388 171.454C123.403 173.024 125.421 174.399 127.83 175.715L128.067 175.436Z" fill="#5F97BA"/>
<path d="M122.356 179.004C121.378 177.481 120.285 176.339 119.18 175.253C118.063 174.193 116.948 173.179 115.697 172.482C114.457 171.786 113.044 171.376 111.946 170.351C111.421 169.856 110.887 169.202 110.68 168.544C110.588 168.37 110.599 168.238 110.607 168.152C110.589 168.094 110.609 167.921 110.665 167.696C110.731 167.305 110.87 166.872 110.975 166.459C111.478 164.785 111.929 163.044 112.177 161.23C112.462 159.427 112.697 157.567 112.664 155.655C112.58 151.945 111.758 147.582 109.366 144.975L109.095 145.192C109.552 148.913 109.388 152.045 109.229 155.468C109.163 157.154 109.199 158.883 109.156 160.642C109.09 162.393 109.113 164.191 109.229 166.064L109.302 167.502C109.288 167.84 109.475 168.924 109.733 169.229C110.22 170.162 110.785 170.695 111.295 171.389C112.334 172.681 113.242 174.264 114.346 175.488C115.452 176.689 116.74 177.465 118.046 178.14C119.366 178.782 120.723 179.309 122.223 179.383L122.356 179.004Z" fill="#5F97BA"/>
<path d="M116.36 182.306C115.14 180.786 113.886 179.604 112.626 178.479C111.365 177.352 110.138 176.263 108.706 175.544C107.293 174.8 105.809 173.974 104.781 172.466C103.717 171.012 103.078 169.099 102.653 167.303L102.455 169.186C103.738 167.773 104.347 166.18 104.947 164.451C105.505 162.73 105.818 160.888 105.846 159.047C105.9 157.203 105.652 155.387 105.327 153.638C104.96 151.894 104.389 150.237 103.643 148.704L103.33 148.791C103.001 152.323 102.89 155.516 102.501 158.535C102.301 160.033 102.155 161.51 101.887 162.945C101.646 164.342 101.142 165.814 100.743 166.874L100.227 168.248L100.545 168.757C101.661 170.548 102.972 171.882 104.096 173.376C105.298 174.754 106.253 176.516 107.395 178.132C108.533 179.743 109.999 180.739 111.498 181.509C113.003 182.263 114.58 182.806 116.268 182.709L116.36 182.306Z" fill="#5F97BA"/>
<path d="M108.527 186.696C107.706 184.702 106.714 183.052 105.678 181.481C104.642 179.906 103.572 178.423 102.228 177.273C100.888 176.125 99.5117 174.92 98.6531 173.166C97.7199 171.499 97.1969 169.451 96.8017 167.589L96.6261 169.385C97.7795 167.875 98.3362 166.358 98.9236 164.696C99.4817 163.057 99.8202 161.317 99.9483 159.56C100.097 157.801 100.022 156.033 99.8678 154.295C99.6876 152.557 99.3241 150.849 98.795 149.199L98.4747 149.213C97.6969 152.56 97.2555 155.694 96.6626 158.694L95.8473 163.135C95.5757 164.548 95.1041 166.074 94.7304 167.152L94.2841 168.44L94.5564 168.951C95.5706 170.86 96.866 172.291 97.8691 173.959C98.9462 175.549 99.7211 177.46 100.566 179.371C101.413 181.276 102.645 182.712 103.954 183.986C105.269 185.253 106.674 186.379 108.334 187.024L108.527 186.696Z" fill="#5F97BA"/>
<path d="M91.6512 152.215C90.808 155.206 90.3989 157.95 89.9887 160.712C89.822 162.094 89.8805 163.566 89.7814 165.049C89.7045 166.542 89.2688 167.898 88.6493 169.076L88.4506 169.455L88.7266 169.922C89.631 171.46 90.1942 173.396 90.9196 175.08L93.1099 180.065C93.8346 181.699 94.6859 183.218 95.4919 184.8L98.009 189.712L98.3234 189.639C98.5797 187.549 98.3774 185.395 97.944 183.379C97.4929 181.371 96.8576 179.446 96.0055 177.717C95.1243 176.012 94.1171 174.442 93.0492 172.96C91.9486 171.502 90.6142 170.361 89.4922 168.974L89.5695 169.82C90.0359 168.412 90.6162 167.123 91.2595 165.799C91.9107 164.487 92.5774 163.085 92.816 161.538C93.0632 159.995 93.0932 158.404 92.9898 156.827C92.862 155.251 92.5931 153.672 91.9687 152.181L91.6512 152.215Z" fill="#5F97BA"/>
<path d="M66.6863 163.002C66.15 166.134 66.0181 168.945 65.8868 171.776C65.8599 173.188 66.065 174.645 66.1139 176.141C66.187 177.644 65.8911 179.077 65.3936 180.358L65.2343 180.771L65.5542 181.193C66.6038 182.57 67.3551 184.405 68.241 185.959L70.9094 190.551C71.7927 192.056 72.7851 193.423 73.7404 194.861L76.7257 199.323L77.0285 199.195C77.074 197.066 76.6583 194.95 76.0298 193.013C75.3831 191.088 74.5621 189.278 73.5428 187.7C72.4991 186.153 71.3436 184.759 70.1388 183.467C68.9028 182.201 67.4684 181.297 66.2177 180.107L66.3767 180.939C66.6983 179.452 67.1456 178.067 67.6517 176.63C68.1658 175.206 68.6867 173.692 68.767 172.105C68.8575 170.524 68.7302 168.926 68.4692 167.371C68.1852 165.821 67.76 164.293 66.9941 162.912L66.6863 163.002Z" fill="#5F97BA"/>
<path d="M84.0356 153.259C83.4095 154.738 83.063 156.231 82.7442 157.722C82.4789 159.223 82.2074 160.709 82.1409 162.234C82.0812 163.76 82.3236 165.364 82.3568 166.942C82.3937 168.516 82.1197 170.018 81.673 171.432L81.5867 171.703L81.8188 172.196C82.5481 173.742 83.0294 175.557 83.6655 177.12C84.3131 178.696 84.8254 180.327 85.3544 181.875C85.8906 183.42 86.4766 184.914 86.8678 186.469C87.264 188.027 87.5924 189.617 87.5889 191.578L87.8816 191.76C88.9738 190.348 89.4775 188.152 89.474 186.066C89.4964 183.951 89.1081 181.9 88.4709 180.073C87.8254 178.238 86.9331 176.619 86.0023 175.099C85.0671 173.563 83.8551 172.379 82.7243 171.11L82.8702 171.874C82.9766 170.288 83.1994 168.77 83.6494 167.296C84.0906 165.824 84.703 164.372 84.9429 162.826C85.1828 161.281 85.1729 159.69 85.1264 158.101C85.0211 156.504 84.8587 154.902 84.351 153.283L84.0356 153.259Z" fill="#5F97BA"/>
<path d="M76.9468 155.706C76.3207 157.185 75.9742 158.677 75.6554 160.169C75.3901 161.669 75.1171 163.153 75.0521 164.681C74.9925 166.207 75.2348 167.811 75.2681 169.389C75.305 170.963 75.0309 172.465 74.5842 173.879L74.498 174.15L74.7301 174.643C75.4594 176.189 75.9406 178.004 76.5767 179.567C77.2225 181.145 77.7366 182.774 78.2656 184.322C78.8018 185.867 79.3878 187.361 79.779 188.916C80.1752 190.474 80.5054 192.062 80.5001 194.025L80.791 194.209C81.8832 192.797 82.3869 190.601 82.3849 188.517C82.4074 186.402 82.0191 184.351 81.3818 182.524C80.7363 180.689 79.844 179.071 78.9132 177.551C77.9781 176.014 76.7661 174.831 75.6353 173.562L75.783 174.324C75.8895 172.737 76.1122 171.219 76.5622 169.745C77.0016 168.275 77.6158 166.821 77.8557 165.276C78.0938 163.732 78.0857 162.139 78.0392 160.55C77.9339 158.954 77.7715 157.351 77.2657 155.73L76.9468 155.706Z" fill="#5F97BA"/>
<path d="M145.351 145.085C144.072 145.013 142.954 145.311 141.865 145.676C140.786 146.064 139.735 146.493 138.807 147.302C137.887 148.118 137.037 149.248 136.003 149.761C135.011 150.252 133.749 150.395 132.937 149.888L133.767 151.112C134.091 149.813 134.387 148.447 134.63 147.139C134.898 145.821 135.254 144.568 135.483 143.277C135.935 140.657 136.427 138.194 137.031 135.164L136.791 134.88C134.564 136.191 133.066 138.957 132.243 141.837C131.834 143.298 131.7 144.864 131.629 146.403C131.537 147.952 131.619 149.475 131.929 151.078L132.188 152.422L132.76 152.305C134.219 152.004 135.162 151.332 136.317 151.032C137.425 150.684 138.677 150.791 139.838 150.53C140.986 150.24 141.989 149.499 142.944 148.673C143.89 147.819 144.791 146.854 145.505 145.46L145.351 145.085Z" fill="#5F97BA"/>
<path d="M157.625 52.9852C155.722 52.8948 153.965 53.2515 152.25 53.7577C150.526 54.2354 148.883 54.9729 147.348 56.2094C145.809 57.4364 144.15 58.2518 142.39 58.471C140.64 58.7097 138.806 58.478 137.186 58.4327L138.609 59.6119C138.357 58.3693 138.153 56.818 138.064 55.4008C137.953 53.9556 137.842 52.5196 137.782 51.0607C137.618 48.1279 137.77 45.1991 137.964 41.8759L137.675 41.6883C135.911 44.0752 134.894 47.3806 134.592 50.7897C134.432 52.4999 134.471 54.2505 134.733 55.9538C135.012 57.6821 135.379 59.2578 136.004 61.0032L136.486 62.3454L137.429 62.185C139.345 61.8567 140.985 60.7052 142.675 59.9534C144.356 59.1615 146.105 58.7923 147.949 58.7353C149.8 58.6929 151.521 58.0687 153.142 57.1087C154.771 56.1774 156.347 55.0492 157.749 53.3812L157.625 52.9852Z" fill="#5F97BA"/>
<path d="M150.987 64.3016C149.291 63.9143 147.735 64.0228 146.208 64.252C145.451 64.3881 144.693 64.5196 143.967 64.8089C143.238 65.0931 142.537 65.56 141.821 65.9836C140.403 66.8831 138.85 67.244 137.324 66.8705C135.86 66.5306 134.222 65.6011 133.778 64.9979L134.05 65.3853C133.726 64.5255 133.378 63.3624 133.099 62.3207L132.191 59.106C131.584 56.9175 131.156 54.6502 130.626 52.0183L130.31 51.9436C129.25 54.2689 128.925 57.1153 129.152 59.869C129.254 61.2558 129.514 62.6272 129.935 63.9149C130.376 65.226 130.885 66.356 131.63 67.6187L131.819 67.9398L131.902 68.0061C134.107 69.8098 135.8 68.9223 137.388 68.6165C138.973 68.1981 140.503 68.0128 142.15 68.3293C143.802 68.6716 145.395 68.4536 146.878 67.7508C148.368 67.088 149.813 66.2013 151.089 64.7051L150.987 64.3016Z" fill="#5F97BA"/>
<path d="M143.527 77.4133C141.924 76.8567 140.406 76.7389 138.902 76.7289C137.399 76.7142 135.927 76.8233 134.488 77.4447C133.051 78.064 131.563 78.6789 130.079 78.4026C129.347 78.3198 128.595 78.1056 127.947 77.7078C127.263 77.4086 126.712 76.7412 126.578 76.4428L126.74 76.6968C126.358 75.4388 125.907 73.9877 125.615 72.5878L124.771 68.3534C124.166 65.5164 123.883 62.6332 123.516 59.2677L123.205 59.1522C121.731 61.929 121.228 65.5309 121.505 68.9876C121.632 70.7283 122.008 72.4336 122.581 74.0116C123.153 75.6124 123.758 77.0821 124.701 78.5333L124.867 78.7877C125.952 79.718 126.876 79.76 127.689 79.7572C128.523 79.7872 129.293 79.6958 130.066 79.7244C131.603 79.6632 133.133 80.1112 134.704 80.5004C136.274 80.8917 137.798 80.6011 139.284 80.1377C140.77 79.6698 142.232 79.0192 143.596 77.8293L143.527 77.4133Z" fill="#5F97BA"/>
<path d="M136.488 85.056C135.059 84.5275 133.729 84.442 132.421 84.4697C131.109 84.4833 129.837 84.6423 128.608 85.3193C127.381 85.976 126.101 86.6277 124.804 86.395C123.581 86.3285 122.082 85.3841 121.732 84.6523L122.099 85.2325L121.244 81.4484C120.991 80.1691 120.686 78.9335 120.327 77.7157L118.068 70.1285L117.75 70.0948C116.732 72.8081 116.762 75.9271 117.145 78.7721C117.353 80.2038 117.707 81.5909 118.201 82.8912C118.685 84.2063 119.173 85.4621 119.848 86.7087L120.138 87.2441L120.216 87.2914C122.163 88.4641 123.443 87.6285 124.818 87.7246C126.158 87.5886 127.503 87.9657 128.895 88.3259C130.283 88.6857 131.613 88.3691 132.895 87.8693C134.177 87.3694 135.431 86.6866 136.57 85.4668L136.488 85.056Z" fill="#5F97BA"/>
<path d="M131.247 92.9526C129.623 92.5021 128.079 92.5567 126.56 92.7634C125.045 92.9822 123.542 93.3238 122.171 94.2715C120.795 95.207 119.474 96.3035 118.007 96.785C116.546 97.4184 115.053 97.4547 113.343 98.2948L115.175 99.4533C115.266 97.7696 115.174 96.0957 115.15 94.424C115.111 92.7525 115.039 91.0859 114.827 89.4345C114.382 86.1244 113.83 82.8595 112.78 79.5341L112.461 79.5368C111.599 82.9174 111.467 86.3487 111.503 89.7316C111.535 91.4249 111.728 93.1012 111.969 94.7724C112.228 96.4414 112.429 98.1095 112.84 99.7626L113.511 102.469L114.673 100.921C115.545 99.7618 116.94 98.6091 118.32 98.022C119.716 97.3294 121.295 97.3985 122.825 97.342C124.363 97.3117 125.781 96.7344 127.196 96.0718C128.606 95.3972 129.996 94.6123 131.319 93.372L131.247 92.9526Z" fill="#5F97BA"/>
<path d="M123.754 106.203C122.523 105.641 121.351 105.494 120.187 105.403C119.028 105.366 117.877 105.367 116.765 105.691C115.654 106.022 114.579 106.797 113.463 107.15C112.388 107.527 111.108 107.508 110.203 107.075L110.772 107.845C110.782 106.118 110.917 104.356 110.751 102.661C110.611 100.958 110.522 99.2412 110.246 97.5682C109.646 94.2341 108.751 90.9708 107.205 87.9091L106.892 87.9934C106.354 91.6109 106.468 95.0242 106.878 98.3717C107.109 100.039 107.523 101.661 107.89 103.298C108.228 104.94 108.868 106.52 109.384 108.133L109.634 108.917L109.954 108.903C111.348 108.847 112.373 108.535 113.584 108.733C114.758 108.868 115.969 109.345 117.14 109.356C118.308 109.362 119.438 109.006 120.554 108.6C121.666 108.136 122.767 107.601 123.809 106.626L123.754 106.203Z" fill="#5F97BA"/>
<path d="M117.411 118.048C116.409 117.231 115.402 116.858 114.394 116.554C113.386 116.298 112.377 116.101 111.375 116.263C110.372 116.448 109.384 117.063 108.387 117.248C107.392 117.455 106.387 117.284 105.369 116.919L106.153 117.792C106.265 116.303 106.399 114.815 106.261 113.366C106.156 111.915 106.06 110.444 105.767 109.02C105.463 107.595 105 106.208 104.411 104.871C103.807 103.567 103.041 102.176 101.886 101.382L101.647 101.658C101.851 103.146 101.843 104.508 101.974 105.892C102.076 107.278 102.196 108.653 102.428 110.006C102.656 111.361 103.035 112.691 103.367 114.041C103.664 115.397 104.195 116.721 104.657 118.053L105.009 119.06L105.442 118.926C106.427 118.619 107.423 118.502 108.428 118.767C109.434 119.009 110.444 119.679 111.443 119.92C112.441 120.14 113.433 119.998 114.427 119.798C115.419 119.552 116.414 119.231 117.412 118.472L117.411 118.048Z" fill="#5F97BA"/>
<path d="M112.345 125.531C111.24 124.673 110.099 124.358 108.966 124.193C107.835 124.061 106.689 124.069 105.614 124.585C104.54 125.117 103.571 126.085 102.534 126.542C101.492 127.016 100.407 127.278 99.2292 127.488L100.556 128.56C100.795 127.115 100.891 125.695 100.866 124.272C100.865 122.849 100.871 121.413 100.654 120.005C100.2 117.212 99.4728 114.344 97.899 111.924L97.5939 112.034C97.1906 115.034 97.152 117.725 97.2832 120.49C97.359 121.861 97.6096 123.215 97.8283 124.577C98.0227 125.942 98.3142 127.31 98.7076 128.659L99.2761 130.616L100.036 129.734C100.831 128.808 101.778 128.103 102.822 127.836C103.873 127.569 105.022 127.926 106.09 128.039C107.159 128.123 108.167 127.819 109.202 127.497C110.234 127.148 111.27 126.744 112.34 125.964L112.345 125.531Z" fill="#5F97BA"/>
<path d="M106.808 136.852C105.927 135.829 104.985 135.247 104.032 134.743C103.073 134.288 102.103 133.896 101.096 133.869C100.086 133.857 99.0381 134.292 98.0299 134.347C97.0167 134.429 96.049 134.13 95.0281 133.748L95.7558 134.725C95.9956 133.226 96.2243 131.739 96.1458 130.243C96.0913 128.755 96.0298 127.236 95.7104 125.765C95.0396 122.897 93.7089 119.885 91.4722 118.377L91.2235 118.639L91.8107 122.867C91.9927 124.197 92.132 125.51 92.3737 126.804C92.6066 128.1 92.9534 129.39 93.2299 130.719C93.4682 132.043 93.9393 133.393 94.2746 134.735L94.5498 135.833L95.0022 135.712C95.9567 135.458 96.9614 135.467 97.914 135.881C98.8733 136.272 99.7893 137.096 100.737 137.499C101.688 137.886 102.677 137.934 103.673 137.939C104.673 137.897 105.686 137.794 106.756 137.274L106.808 136.852Z" fill="#5F97BA"/>
<path d="M98.1943 144.451C97.3272 143.011 96.2725 142.062 95.1724 141.271C94.0677 140.502 92.9063 139.843 91.6336 139.809C90.3579 139.766 89.0781 139.989 87.886 139.665C86.6795 139.412 85.5041 138.786 84.212 138.344L85.2603 140.455C85.9809 139.131 86.3331 137.775 86.6658 136.33C86.9788 134.893 87.1701 133.384 87.0916 131.86C86.9475 128.832 86.0862 125.732 84.3749 123.579L84.0802 123.733C83.9476 126.745 83.9383 129.199 83.7155 131.692L83.5395 135.431C83.483 136.679 83.2857 137.979 83.2227 139.187L83.0902 141.722L84.2692 141.301C85.3716 140.908 86.582 140.645 87.7448 140.929C88.9185 141.175 89.9806 142.15 91.0236 142.962C92.0649 143.805 93.1987 144.142 94.3651 144.457C95.5323 144.757 96.7264 144.981 98.0695 144.846L98.1943 144.451Z" fill="#5F97BA"/>
<path d="M88.1659 149.307C87.5898 148.026 86.8303 147.123 86.0382 146.303C85.2218 145.545 84.3728 144.84 83.4327 144.425C82.4949 143.999 81.4246 144.075 80.4306 143.973C79.4304 143.887 78.5092 143.541 77.5894 143.043L78.0536 144.04C78.5395 142.579 79.1729 141.165 79.4408 139.601C79.7028 138.048 79.9059 136.452 79.8908 134.822C79.7742 131.606 78.8624 128.166 76.8976 125.856L76.6054 126.019C76.4858 129.337 76.4165 131.994 76.4369 134.83L76.6397 139.117C76.6708 140.553 76.9547 142.127 76.8986 143.591L76.8617 144.547L77.3628 144.587C78.297 144.665 79.2216 144.981 80.035 145.7C80.8544 146.403 81.5817 147.35 82.4091 147.907C83.2366 148.464 84.136 148.795 85.0447 149.146C85.9742 149.436 86.921 149.697 88.0128 149.674L88.1659 149.307Z" fill="#5F97BA"/>
<path d="M80.9749 154.609C80.5154 153.266 79.8331 152.32 79.1038 151.465C78.3581 150.654 77.5618 149.903 76.617 149.565C75.6662 149.238 74.6097 149.342 73.6716 149.135C72.724 148.942 71.8691 148.462 70.8882 147.954L71.5953 149.371C72.1928 148.174 72.6788 146.966 72.8917 145.608C73.1311 144.277 73.3061 142.875 73.2062 141.45C72.9636 138.647 71.8296 135.644 69.8113 134.255L69.5516 134.495C69.7501 137.338 69.7634 139.384 69.7675 141.629L69.9264 145.033C69.9125 146.175 70.0402 147.445 70.0791 148.645L70.1337 150.258L70.7881 150.061C71.6272 149.809 72.5565 149.953 73.3507 150.517C74.1599 151.065 74.7946 152.145 75.5173 152.835C76.2471 153.522 77.0787 153.916 77.9426 154.296C78.8186 154.645 79.7215 154.951 80.8019 154.954L80.9749 154.609Z" fill="#5F97BA"/>
<path d="M97.1003 94.6295C93.7345 94.2162 90.6343 94.5466 87.5774 95.2921C86.0647 95.7589 84.5426 96.5531 82.9672 96.6092C81.42 96.6898 79.7748 96.1458 78.6124 95.0257C77.3308 93.7287 77.563 92.9579 77.0573 90.4395C76.6762 88.3149 76.1768 86.2525 75.7506 84.3792C75.2704 82.5055 74.9818 80.7886 74.9156 78.8904C74.846 76.9917 75.0445 74.9338 75.24 72.7423L74.9511 72.5516C73.8082 74.144 72.8703 76.0629 72.4144 78.3664C71.9032 80.6624 72.0484 83.2446 72.4606 85.4677C72.9069 87.7046 73.5718 89.64 74.1824 91.5796C74.5365 92.5812 74.6223 93.3652 75.3327 94.8517C76.0183 96.1257 77.0261 96.7651 77.9035 97.1158C79.6985 97.7857 81.3239 97.7088 82.9596 97.9803C84.5867 98.1886 86.2617 98.7597 87.9241 98.8004C89.5801 98.831 91.1844 98.3789 92.7397 97.7707C94.2899 97.1297 95.8082 96.3396 97.1946 95.0352L97.1003 94.6295Z" fill="#5F97BA"/>
<path d="M97.468 86.3819C95.8206 86.2168 94.3224 86.3156 92.8534 86.4552C91.3791 86.5618 89.9716 86.7534 88.5471 87.2852C87.1298 87.8133 85.5663 88.1171 84.1541 87.4136C82.7295 86.7752 81.6127 85.3253 80.7334 83.9903L81.167 84.8789L80.7613 80.35C80.6655 78.8311 80.4879 77.3427 80.277 75.8566L78.9682 66.7224L78.6549 66.6226C77.2732 69.4777 76.9592 72.9368 76.9933 76.1786C77.0286 77.8157 77.2024 79.437 77.5319 81.015C77.8467 82.6048 78.1803 84.1397 78.6722 85.7098L78.9005 86.435L79.1093 86.5988C80.6705 87.8236 82.3699 88.2141 83.9086 88.7094C85.4767 89.0821 86.9941 89.7423 88.6315 90.2785C90.2687 90.8192 91.9006 90.4741 93.4136 89.8531C94.9306 89.2234 96.3874 88.3258 97.5871 86.7819L97.468 86.3819Z" fill="#5F97BA"/>
<path d="M100.737 77.9657C97.8372 77.5372 95.2411 77.8189 92.7026 78.4788C91.4492 78.9327 90.1714 79.6409 88.8509 79.6029C87.5591 79.6147 86.1919 78.8435 85.5802 77.6109C85.082 76.5317 84.9471 74.8668 84.7617 73.2963C84.6251 71.6933 84.643 70.0398 84.5929 68.3542C84.4375 64.9708 84.3683 61.4796 83.9048 57.7119L83.5935 57.6054C82.0248 60.8134 81.3187 64.4622 81.171 68.253C81.1205 70.1528 81.372 72.1048 81.8011 74.0279C82.2346 75.9034 82.8612 77.9728 84.4516 79.3421C85.9543 80.4696 87.3879 80.6356 88.7726 80.963C90.1567 81.2695 91.6001 81.9222 93.0334 81.9985C94.4673 82.0956 95.8375 81.6413 97.1489 81.0503C98.4569 80.4289 99.7263 79.6529 100.841 78.3706L100.737 77.9657Z" fill="#5F97BA"/>
<path d="M104.525 69.8878C101.395 69.3522 98.5384 69.519 95.7328 69.9988C94.3488 70.3253 92.903 70.9819 91.4845 70.6982C90.0665 70.4698 88.7726 69.2843 88.6514 67.6194C88.3044 64.2547 88.7119 60.4647 88.9558 56.7309C89.0841 52.94 89.225 49.0795 88.869 44.9607L88.5575 44.8495C86.8902 48.3266 85.9951 52.1658 85.5451 56.1573C85.3375 58.1554 85.3876 60.2251 85.5466 62.3119C85.6721 64.3757 86.0675 66.575 87.063 68.5538C87.5336 69.5751 88.2925 70.3684 89.019 70.927C89.7813 71.403 90.5296 71.7227 91.2888 72.0348C92.7908 72.6084 94.3358 73.319 95.9061 73.538C97.4708 73.7332 98.9916 73.3631 100.451 72.8327C101.909 72.2698 103.331 71.5501 104.616 70.2985L104.525 69.8878Z" fill="#5F97BA"/>
<path d="M107.988 59.16C106.579 59.0729 105.281 59.2903 103.999 59.5374C102.731 59.8345 101.478 60.143 100.275 60.6073C99.0724 61.0626 97.9453 61.9437 96.7412 62.4561C95.6072 62.9896 94.0826 63.034 93.4253 62.1759L93.6127 62.6582C93.607 60.5494 94.017 58.4094 94.1333 56.3285L94.574 50.1212C94.7636 45.9812 94.8082 42.01 94.9838 37.5558L94.6909 37.3784C92.391 40.7626 91.4165 45.3201 91.1419 49.6783C91.0688 51.8913 91.1837 54.1022 91.3692 56.295C91.556 58.4949 92.1322 60.6372 92.4742 62.7983L92.5336 63.1737L92.6617 63.2806C93.4405 63.9232 94.184 64.0994 94.8708 64.1371C95.5727 64.2479 96.2481 64.2726 96.9379 64.3497C98.3179 64.4994 99.7281 64.637 101.039 64.2767C102.35 63.928 103.577 63.2579 104.774 62.5264C105.955 61.7398 107.102 60.8453 108.111 59.56L107.988 59.16Z" fill="#5F97BA"/>
<path d="M122.037 47.7564C119.782 47.4335 117.589 47.6526 115.421 48.0148C113.26 48.4124 111.113 48.9608 109.072 49.9608C107.029 50.9791 105.12 52.4734 103.094 53.448C101.084 54.4937 98.9885 55.2207 96.8634 56.0056L98.1278 57.4316C98.9346 54.7507 99.522 52.0219 99.9248 49.2108C100.372 46.4194 100.675 43.5604 100.739 40.6578C100.775 37.7605 100.621 34.8009 100.078 31.8896C99.5527 29.0195 98.6726 26.0328 97.0215 23.9109L96.7558 24.1362C97.4692 26.8415 97.553 29.5419 97.5995 32.2282C97.606 34.9159 97.5357 37.6115 97.3484 40.3212C97.208 43.0303 97.0991 45.7643 96.9183 48.5137C96.7004 51.2444 96.5298 54.0296 96.3641 56.788L96.2101 59.3326L97.6284 58.214C99.453 56.7746 101.375 55.4926 103.441 54.7341C105.499 53.9379 107.707 53.7873 109.823 53.3333C111.939 52.8656 113.976 52.0594 116.022 51.2249C118.063 50.3622 120.098 49.4506 122.094 48.1718L122.037 47.7564Z" fill="#5F97BA"/>
<path d="M128.341 37.3582C126.001 37.1471 123.749 37.4936 121.53 38.0134C119.319 38.5618 117.125 39.2655 115.094 40.5985C113.061 41.9128 111.111 43.4417 109.003 44.4217C106.919 45.5193 104.718 46.2104 102.577 47.8436L104.492 49.5635C105.196 47.2271 105.654 44.8574 106.115 42.4493C106.553 40.0451 106.91 37.5909 107.003 35.0784C107.166 32.5822 107.081 30.0204 106.821 27.4717C106.53 24.9505 106.009 22.3071 104.816 20.1778L104.525 20.3372C104.806 22.7815 104.618 25.1306 104.451 27.4733C104.285 29.814 103.993 32.1376 103.731 34.4789C103.415 36.8083 103.22 39.1725 102.966 41.5399L102.177 48.6435L101.617 53.6934L104.092 50.3633C105.496 48.4754 107.38 46.7345 109.395 45.6277C111.405 44.4243 113.648 44.0013 115.861 43.5787C118.075 43.1632 120.159 42.2438 122.25 41.2912C124.337 40.3174 126.405 39.2497 128.417 37.768L128.341 37.3582Z" fill="#5F97BA"/>
<path d="M130.152 29.6232C128.493 28.9775 126.856 28.8892 125.236 28.9523C123.624 29.0623 122.006 29.2906 120.494 30.0673C118.982 30.8577 117.584 32.0439 116.083 32.7189C114.604 33.4907 113.027 33.8989 111.421 34.4726L112.836 35.8027C113.306 33.8174 113.52 31.8339 113.655 29.808C113.81 27.7914 113.889 25.751 113.736 23.6976C113.573 21.6518 113.308 19.5946 112.783 17.5894C112.273 15.5932 111.554 13.6099 110.473 11.9925L110.181 12.157C110.404 16.2482 110.337 19.9451 110.366 23.8106C110.387 25.7272 110.484 27.6539 110.577 29.5984C110.642 31.5346 110.714 33.5061 110.902 35.4612L111.14 37.9456L112.318 36.7892C113.546 35.5823 114.906 34.4986 116.415 33.9806C117.92 33.4207 119.564 33.5306 121.128 33.405C122.697 33.2915 124.182 32.7494 125.688 32.2218C127.189 31.6569 128.689 31.0344 130.183 30.0376L130.152 29.6232Z" fill="#5F97BA"/>
<path d="M130.943 19.2195C129.392 19.1566 127.958 19.5123 126.542 19.9369C125.15 20.4379 123.76 20.9783 122.469 21.8158C121.187 22.6819 120.039 23.9417 118.862 25.0671C117.672 26.1815 116.408 26.9929 115.07 27.9339L116.05 28.8997C116.807 26.8086 117.586 24.7275 117.995 22.4522C118.38 20.1919 118.735 17.8612 118.67 15.4531C118.617 13.0535 118.259 10.6104 117.514 8.32576C116.753 6.05034 115.563 3.98478 114.051 2.61987L113.806 2.88205C114.415 5.11178 114.764 7.15526 114.998 9.2061C115.189 11.2741 115.22 13.3273 115.264 15.405C115.291 17.483 115.316 19.62 115.198 21.7653C115.075 23.8939 115.135 26.1753 114.857 28.3103L114.51 30.9512L115.835 29.2782C116.81 28.0477 118.088 27.1351 119.453 26.6167C120.838 26.1193 122.287 25.8457 123.628 25.2484C124.959 24.627 126.207 23.7516 127.465 22.8822C128.702 21.9388 129.928 20.9552 131.056 19.6104L130.943 19.2195Z" fill="#5F97BA"/>
<path d="M53.9534 81.5806C53.9568 83.4012 54.4081 85.1524 55.0182 86.7493C55.6829 88.2943 56.4559 89.7879 57.4479 90.9757C58.4416 92.1614 59.7011 92.9132 60.8533 93.7326C62.0215 94.5427 63.0189 95.5374 64.0567 96.6447L64.3946 97.0028L64.8149 96.4917C65.95 95.1099 67.1764 93.8273 68.1153 92.2115C69.0453 90.6013 69.9326 88.9191 70.621 87.0825C71.3095 85.2458 71.722 83.2122 71.9818 81.1602C72.2419 79.1037 72.2054 76.9411 71.8638 74.8603L71.5477 74.7971C70.0686 78.443 68.8165 81.6678 67.5327 85.0299C66.9316 86.7232 66.386 88.4743 65.7393 90.1798C65.0952 91.8696 64.6294 93.8047 63.8944 95.4504L64.6492 95.2969C63.5368 94.6334 62.4872 93.6454 61.6748 92.3655C60.8503 91.0863 60.2206 89.5962 59.4277 88.4011C58.6351 87.2014 57.7701 86.1243 56.9334 84.9734C56.0661 83.8435 55.267 82.6681 54.2482 81.4333L53.9534 81.5806Z" fill="#5F97BA"/>
<path d="M53.4508 66.0283C53.273 68.0278 53.5395 69.904 53.9449 71.7164C54.3648 73.517 54.9189 75.3059 55.9444 76.7323C56.9606 78.169 58.1115 79.3969 59.0091 80.845C59.9488 82.2507 60.7472 83.8939 61.9819 85.3028L62.3592 85.7318L63.1311 85.2678C64.4809 84.4602 65.3372 83.3132 66.2299 82.0748C67.0833 80.8243 67.8112 79.4262 68.2988 77.8834C68.7811 76.3421 69.0808 74.7121 69.2335 73.0736C69.376 71.4291 69.3158 69.7481 69.058 68.0931L68.7432 68.0093C67.3929 70.7831 66.401 73.383 65.2849 75.8126C64.7241 77.0132 64.2493 78.2599 63.6895 79.4424C63.1615 80.6154 62.4321 81.7589 61.8843 82.723L63.0317 82.6901C61.8569 82.2747 60.6079 81.3772 59.7329 80.0238C58.7998 78.7176 58.4391 76.8516 58.0378 75.1544C57.6497 73.4382 56.9717 71.9442 56.2662 70.412C55.5552 68.886 54.7916 67.3713 53.7543 65.9066L53.4508 66.0283Z" fill="#5F97BA"/>
<path d="M55.5835 51.2015C55.1206 53.3599 55.1627 55.4995 55.3952 57.5913C55.6152 59.6883 56.1116 61.7537 57.1365 63.5304C58.1456 65.3118 58.993 67.0621 59.6919 68.9852C60.4285 70.8537 61.0607 73.0729 62.4749 74.6934L63.3528 75.7L64.3414 74.411C65.8901 72.3877 67.4141 70.3703 68.5138 67.8849C69.6223 65.4282 70.5861 62.789 71.0062 59.7667L70.7341 59.5326C68.856 61.2567 67.3511 63.2101 65.9089 65.2569C64.4527 67.272 63.3486 69.6811 62.1821 71.9923L64.0486 71.7099C62.9357 70.8689 61.5679 69.8261 60.6236 68.2255C59.6224 66.6792 59.1904 64.6453 59.0541 62.6055C58.9342 60.5519 58.5157 58.6828 57.9602 56.8066C57.426 54.9242 56.8114 53.0492 55.8988 51.1569L55.5835 51.2015Z" fill="#5F97BA"/>
<path d="M58.8075 39.1508C58.4239 41.3469 58.4985 43.4694 58.7549 45.5407C58.9796 47.6215 59.5407 49.6261 60.5132 51.4244C61.4926 53.2237 62.1465 55.0916 62.6307 57.134C63.1655 59.1419 63.4526 61.4791 65.2165 63.3407L65.9398 64.1043L66.8755 63.2847C67.8679 62.4153 68.6168 61.5751 69.382 60.597C70.116 59.6192 70.7369 58.5137 71.2692 57.3434C72.3072 54.9809 73.0971 52.4172 73.2919 49.5733L73.0077 49.365C71.3562 51.1166 70.0407 52.9594 68.7226 54.7537C68.0646 55.6476 67.4375 56.5503 66.8417 57.4824C66.2709 58.4041 65.6295 59.4081 65.0807 60.1514L66.7381 60.0929C65.9248 59.51 64.6097 58.0902 63.7242 56.4482C62.8395 54.7627 62.361 52.7739 62.3096 50.6729C62.2816 48.5589 61.9472 46.608 61.3559 44.7096C60.8002 42.7976 60.1436 40.9156 59.1227 39.0808L58.8075 39.1508Z" fill="#5F97BA"/>
<path d="M63.9186 29.5979C63.3879 30.6478 63.2232 31.6757 63.1303 32.6972C63.0657 33.7132 63.0658 34.7265 63.3903 35.6777C63.7272 36.6283 64.372 37.5007 64.6201 38.4462C64.8714 39.3967 64.8774 40.3993 64.7684 41.4601C64.6418 42.5231 64.6168 43.5814 64.7615 44.5981C64.8761 45.6223 64.9983 46.6682 65.3427 47.6405C66.0346 49.4957 67.1746 51.5173 69.0323 52.1667L69.2593 51.8772C69.057 49.593 68.9184 47.9254 68.5348 46.1118C68.3296 45.2435 67.9883 44.4052 67.6658 43.5418C67.3737 42.6663 66.9578 41.8202 66.4777 40.9678C66.0083 40.1122 65.6854 39.1934 65.6382 38.2106C65.5823 37.2289 65.955 36.1647 66.0323 35.1733C66.1095 34.182 65.8726 33.2541 65.5958 32.3232C65.2944 31.3936 64.9263 30.4733 64.2414 29.5679L63.9186 29.5979Z" fill="#5F97BA"/>
<path d="M70.6223 21.6032C69.8589 22.3782 69.4587 23.3076 69.1426 24.2553C68.852 25.2133 68.6272 26.2055 68.7517 27.2563C68.8727 28.3066 69.3343 29.3869 69.3884 30.3915C69.456 31.4025 69.2787 32.3849 68.9938 33.3964C68.6983 34.4111 68.4946 35.4612 68.4938 36.518C68.446 37.5753 68.4468 38.6644 68.6578 39.7222C69.1394 41.7933 70.0788 43.9103 71.7447 45.0363L72.0184 44.828C72.1728 42.4645 72.1524 40.7515 71.999 38.9333C71.6932 37.168 71.4231 35.3547 70.7426 33.4264C70.4259 32.4597 70.2793 31.4632 70.4175 30.4984C70.5541 29.531 71.1156 28.6371 71.4019 27.7266C71.6728 26.8118 71.6492 25.8503 71.5891 24.8609C71.5032 23.8658 71.3661 22.8546 70.9341 21.7118L70.6223 21.6032Z" fill="#5F97BA"/>
<path d="M76.5138 15.1741C75.7755 15.8065 75.3812 16.5792 75.0672 17.3741C74.7769 18.1768 74.5458 19.008 74.6484 19.9141C74.7508 20.8248 75.176 21.7882 75.1941 22.6554C75.2207 23.5261 74.9987 24.3472 74.6501 25.1718C74.2912 25.9949 74.0172 26.8478 73.9147 27.7331C73.7747 28.6087 73.6523 29.5119 73.7271 30.4189C73.9333 32.2129 74.4573 34.1208 75.7764 35.5299L76.0832 35.434C76.7732 33.507 77.0331 31.9956 77.1272 30.3817C77.1571 29.585 77.0213 28.7797 76.9247 27.9522C76.8502 27.1345 76.6541 26.289 76.3887 25.4135C76.1351 24.5419 76.0377 23.6685 76.2144 22.8505C76.3861 22.0294 76.9749 21.3106 77.2753 20.5436C77.5657 19.7706 77.5513 18.929 77.4949 18.0657C77.413 17.1922 77.2731 16.3017 76.8231 15.2846L76.5138 15.1741Z" fill="#5F97BA"/>
<path d="M60.9267 108.723C60.0344 110.332 59.4883 111.998 58.9848 113.673C58.4965 115.352 58.0435 117.017 57.9661 118.86C57.8653 120.692 57.8537 122.623 57.2733 124.256C56.7663 125.9 55.8537 127.408 54.9727 128.593L55.4365 128.047C54.6198 128.093 53.5124 128.169 52.5471 127.913C51.5491 127.69 50.5791 127.27 49.5688 126.895C48.5525 126.535 47.528 126.011 46.4589 125.485C45.391 124.936 44.2912 124.342 43.0772 123.79L42.8725 124.101C43.1752 124.855 43.5437 125.541 43.9109 126.249C44.3176 126.897 44.7528 127.526 45.2137 128.127C46.1836 129.237 47.2434 130.307 48.4773 130.999C49.6936 131.726 51.0488 132.089 52.4121 132.087C53.7957 132.028 55.0983 131.877 56.4596 130.784L56.8666 130.458L56.9218 130.236C57.4181 128.285 57.6246 126.473 58.1629 124.76C58.6179 123.029 59.5166 121.523 60.2501 119.891C60.997 118.266 61.2796 116.416 61.4457 114.555C61.6033 112.691 61.6104 110.781 61.2354 108.806L60.9267 108.723Z" fill="#5F97BA"/>
<path d="M57.1463 103.207C56.2486 104.692 55.6793 106.259 55.1762 107.847C54.6884 109.439 54.2437 111.03 54.1666 112.775C54.0811 114.518 54.116 116.36 53.6043 117.915C53.358 118.692 53.0475 119.443 52.6331 120.045C52.2744 120.671 51.664 121.167 51.4708 121.104L52.2008 121.037C51.2069 120.258 50.1375 119.66 49.1165 118.996C48.0864 118.342 47.0839 117.658 46.045 117.133L42.9594 115.523C41.9385 114.952 40.9173 114.45 39.9467 113.467L39.6672 113.657C39.853 115.422 40.7226 116.954 41.627 118.137C42.5587 119.324 43.5934 120.334 44.6769 121.116C45.7609 121.918 46.9225 122.439 48.0888 122.875C49.2646 123.295 50.4137 123.699 51.6661 123.793L52.2864 123.838L52.3979 123.723C53.3318 122.772 53.4833 121.807 53.7583 120.946C53.9964 120.068 54.2398 119.251 54.4799 118.429C54.978 116.809 55.8318 115.369 56.5143 113.812C57.2103 112.262 57.448 110.513 57.6117 108.761C57.7588 106.998 57.7939 105.201 57.4481 103.303L57.1463 103.207Z" fill="#5F97BA"/>
<path d="M36.8461 100.82C36.8305 102.515 37.6366 103.923 38.3681 105.026C39.1655 106.091 40.028 107.042 41.0084 107.666C41.9967 108.274 43.1338 108.436 44.1703 108.795C45.2099 109.159 46.1259 109.795 47.0313 110.592L47.1662 110.711L47.5192 110.601C48.9167 110.17 50.1724 109.148 51.0255 107.853C51.8757 106.548 52.6551 105.181 53.1777 103.682C54.1731 100.649 54.6213 97.3673 54.2239 93.8935L53.9179 93.777C52.2536 96.3593 51.105 99.009 50.0915 101.65C49.6142 102.984 49.2248 104.353 48.7129 105.594C48.2007 106.81 47.8277 108.225 47.0141 109.022L47.5036 109.034C46.5004 108.727 45.5327 108.186 44.7076 107.309C43.8831 106.423 43.1834 105.276 42.3687 104.494C41.5561 103.705 40.6594 103.158 39.792 102.548C38.8999 101.949 38.0643 101.483 37.1376 100.668L36.8461 100.82Z" fill="#5F97BA"/>
<path d="M51.6927 84.8739C50.7746 85.9564 50.147 87.126 49.567 88.3112C49.007 89.5083 48.4564 90.661 48.1982 92.0265C47.9534 93.3984 47.8024 94.9175 47.1908 96.0483C46.6032 97.1526 45.6228 97.9849 44.7249 97.9777L45.4366 97.978C44.6828 97.1098 43.8444 96.3352 43.0675 95.5734L40.8244 93.2336C39.3013 91.7483 37.9697 90.4554 36.64 88.0292L36.3247 88.0756C35.993 89.552 36.1517 91.2521 36.6226 92.739C37.091 94.2414 37.8469 95.5113 38.6821 96.5958C39.5236 97.6902 40.5445 98.4119 41.5581 99.0483C42.5799 99.6927 43.6009 100.193 44.7779 100.373L45.3929 100.467L45.4896 100.373C46.6213 99.2716 47.1956 97.9693 47.9569 96.8816C48.688 95.7761 49.7035 94.8709 50.4669 93.7128C51.2287 92.5521 51.6017 91.1109 51.8699 89.6578C52.1165 88.1904 52.252 86.6714 51.9943 85.0127L51.6927 84.8739Z" fill="#5F97BA"/>
<path d="M51.5021 76.8602C50.4974 77.7954 49.7676 78.9003 49.0698 80.0211C48.4071 81.1672 47.7687 82.3121 47.33 83.6074C46.8998 84.9062 46.725 86.4431 46.2288 87.7124C45.9991 88.3587 45.67 88.9229 45.2827 89.3465C44.9888 89.8377 44.2405 89.9563 44.5362 89.7789L44.6663 89.904C43.9876 88.5675 43.4315 87.0531 42.7277 85.7956L40.8002 81.897C40.157 80.6408 39.4333 79.4607 38.8111 78.2028C38.1856 76.9399 37.5493 75.6847 37.0103 74.0788L36.6909 74.0562C36.1308 75.699 36.1399 77.6429 36.426 79.4046C36.709 81.191 37.2521 82.8478 37.968 84.3266C38.6817 85.8119 39.6151 87.0547 40.5424 88.2485C41.4575 89.4774 42.5923 90.3652 43.7206 91.2773L43.8507 91.4024C44.512 91.7938 45.0067 91.371 45.2615 91.1491C45.557 90.8824 45.7589 90.5824 45.9747 90.3141C46.3755 89.739 46.7457 89.1849 47.1737 88.6821C47.9934 87.6442 49.0032 86.7417 49.7021 85.5685C50.3944 84.3898 50.8273 83.0113 51.2059 81.6117C51.5479 80.1843 51.826 78.7208 51.786 77.0541L51.5021 76.8602Z" fill="#5F97BA"/>
<path d="M50.7588 69.5207C48.8529 70.423 47.4869 71.9448 46.2732 73.641C45.6795 74.5024 45.3079 75.628 44.9214 76.7402C44.7274 77.2927 44.5087 77.8212 44.2516 78.2894C44.1347 78.517 43.9718 78.7568 43.8607 78.8796C43.8607 78.8796 43.7985 78.9355 43.8764 78.8795C43.9196 78.8532 43.9724 78.8419 44.0208 78.8484C43.9915 78.8422 44.3125 78.8258 44.4442 79.1514C44.5592 79.4953 44.4875 79.566 44.5083 79.5045L44.5257 79.2841L44.5622 78.8412L44.5793 78.6253L44.4617 78.3913C43.7711 77.0303 43.5023 75.2762 43.083 73.7268L41.6912 69.2397C41.2271 67.7785 40.5857 66.4402 40.027 65.0534C39.4529 63.6622 38.8203 62.3229 38.2054 60.6942L37.8843 60.6807C37.2887 62.3663 37.2381 64.2977 37.4188 66.0721C37.6107 67.864 37.9925 69.5875 38.6314 71.1298C39.2901 72.6587 40.0211 74.1078 40.8807 75.4319C41.7724 76.7419 42.8744 77.8025 43.6645 79.1562L43.5656 78.7088L43.5567 79.1555L43.5514 79.3798C43.5658 79.3381 43.5018 79.4259 43.6265 79.7849C43.7699 80.1189 44.0923 80.1395 44.0777 80.1215C44.1512 80.113 44.2292 80.0868 44.2992 80.0481C44.4275 79.962 44.3956 79.9715 44.452 79.9263C44.6895 79.6897 44.8403 79.5103 45.0399 79.3283C45.4095 78.9671 45.7998 78.6386 46.2131 78.3362C47.0363 77.7309 47.8546 77.118 48.4461 76.2333C49.6011 74.435 50.5826 72.4388 51.0078 69.8024L50.7588 69.5207Z" fill="#5F97BA"/>
<path d="M51.9505 61.1112C51.0032 61.2217 50.2131 61.5987 49.4756 62.0631C48.7474 62.547 48.0557 63.0932 47.4535 63.7799C46.8529 64.4691 46.4614 65.4914 46.0322 66.4445C45.6061 67.4025 45.0475 68.1479 44.3654 68.7091L45.2258 69.1051C45.0965 67.7005 45.3183 66.1944 45.2567 64.7578C45.1596 63.3347 45.0136 61.9188 44.7795 60.5231C44.5174 59.1327 44.0501 57.8109 43.4803 56.5211C42.8984 55.2618 42.1826 53.9409 41.0786 53.0489L40.8207 53.2869C40.8467 54.8013 40.8019 56.1845 40.9235 57.572C41.0352 58.9489 41.1626 60.3257 41.4847 61.637C41.8295 62.9445 42.2249 64.2474 42.6572 65.5439C43.1231 66.8288 43.8494 68.0525 44.2035 69.3797L44.5158 70.5521L45.0639 69.7756C45.6062 69.0098 46.2721 68.428 47.0669 68.0585C47.8604 67.6819 48.6934 67.3771 49.3153 66.7413C49.9357 66.1029 50.4668 65.3195 50.963 64.4763C51.4463 63.6131 51.8807 62.663 52.1578 61.4464L51.9505 61.1112Z" fill="#5F97BA"/>
<path d="M53.25 51.6238C51.636 50.7417 50.0194 51.2678 48.6758 52.1778C47.9941 52.6395 47.4448 53.3834 47.0641 54.2924C46.6718 55.1885 46.3799 56.1279 45.9673 56.8879L46.8465 57.2021C46.469 55.7425 46.5217 54.1847 46.5627 52.5841C46.5826 50.9897 46.298 49.4875 46.0302 47.9623C45.7466 46.4418 45.1893 45.0223 44.4755 43.6942C43.7591 42.3819 42.853 41.1334 41.6557 40.3352L41.3971 40.5737C41.5126 42.2714 41.6533 43.7312 41.8894 45.1671C42.1331 46.5902 42.3827 48.0026 42.8634 49.3268C43.3598 50.6508 43.754 52.0277 44.4117 53.3321C45.082 54.6268 45.7262 55.9845 45.8644 57.46L45.9794 58.6912L46.7436 57.7742C47.2376 57.1814 47.8871 56.798 48.5376 56.5251C49.1741 56.2205 49.754 55.9311 50.2245 55.4156C51.2177 54.4514 52.1702 53.4977 53.2909 52.0498L53.25 51.6238Z" fill="#5F97BA"/>
<path d="M33.3751 172.687C34.271 173.999 35.2586 174.9 36.27 175.714C37.2901 176.498 38.3081 177.254 39.4767 177.537C40.6434 177.823 41.8939 177.905 42.9612 178.551C44.0335 179.171 44.9606 180.198 45.8102 181.314L46.6261 182.383L47.2948 180.346C47.7286 179.029 47.9855 177.66 48.2448 176.309C48.5078 174.955 48.7871 173.616 48.8978 172.235C49.0184 170.859 49.0877 169.476 49.113 168.073C49.1491 166.663 49.0993 165.275 49.1409 163.765L48.866 163.546C47.8983 164.513 47.2453 165.856 46.7408 167.171C46.2421 168.505 45.8617 169.887 45.5891 171.29C45.3097 172.692 45.2368 174.143 45.1849 175.588C45.1313 177.035 45.1021 178.475 45.2876 179.972L46.7723 179.005C45.5682 178.582 44.4071 178.162 43.3668 177.401C42.3156 176.682 41.4311 175.446 40.4458 174.471C39.4606 173.495 38.3139 173.035 37.1545 172.648C35.9865 172.291 34.7843 172.053 33.4747 172.292L33.3751 172.687Z" fill="#5F97BA"/>
<path d="M30.0044 160.144C30.8489 161.696 31.8629 162.779 32.9338 163.71C34.0008 164.65 35.1356 165.396 36.4648 165.568C37.7818 165.772 39.0399 166.134 40.1224 167.043C41.235 167.877 42.176 169.187 43.3743 170.037L44.5276 170.855L45.1284 168.845C45.7924 166.627 46.5023 164.428 46.7236 162.043C46.9583 159.665 47.0576 157.232 46.6527 154.614L46.3457 154.497C45.0454 156.475 44.2474 158.64 43.585 160.86C42.9124 163.074 42.725 165.472 42.4918 167.853L44.2456 166.665C43.0862 166.335 41.7224 166.29 40.5325 165.759C39.3145 165.297 38.2826 164.255 37.3176 163.036C36.363 161.784 35.2218 161.093 34.015 160.585C32.8125 160.063 31.557 159.686 30.1361 159.763L30.0044 160.144Z" fill="#5F97BA"/>
<path d="M25.6675 148.293C26.5932 149.982 27.7329 151.061 28.9246 151.979C29.5258 152.419 30.1388 152.834 30.8139 153.035C31.4908 153.233 32.2105 153.283 32.9159 153.373C34.3326 153.54 35.5551 154.309 36.7233 155.402C37.8793 156.56 39.108 157.467 40.5138 158.085L41.7826 158.641L42.3918 156.607C42.6001 155.908 42.9079 155.069 43.115 154.264C43.3351 153.445 43.5286 152.604 43.7112 151.741C44.0818 150.014 44.4467 148.263 44.6837 146.193L44.4258 145.936C43.0009 146.862 41.8995 148.301 41.0325 149.92C40.5878 150.727 40.2196 151.594 39.9247 152.513C39.6204 153.446 39.462 154.372 39.3039 155.481L41.182 154.003L39.2765 153.617C38.6176 153.501 37.9234 153.492 37.2355 153.399C35.8556 153.256 34.5571 152.703 33.461 151.496C32.9095 150.907 32.3809 150.25 31.8089 149.751C31.2373 149.244 30.6022 148.948 29.9612 148.662C28.6668 148.131 27.3282 147.742 25.7906 147.914L25.6675 148.293Z" fill="#5F97BA"/>
<path d="M19.8733 131.047C21.0921 133.088 22.5231 134.47 23.9942 135.757C25.412 137.158 27.2802 137.465 28.9591 138.299C30.6267 139.15 31.9191 140.865 33.1141 142.641C34.3269 144.38 35.6568 145.827 36.8509 147.398L39.049 150.291L39.6569 146.082C39.9015 144.393 39.999 142.557 40.1311 140.79C40.2868 139.006 40.272 137.217 40.6307 135.385L40.3907 135.093C39.6682 135.556 39.1054 136.349 38.6466 137.152C38.187 137.968 37.8098 138.84 37.5009 139.734C36.8895 141.537 36.4326 143.349 36.2605 145.336L39.0647 144.022C37.5705 142.521 36.0457 141.165 34.3446 140.227C32.6237 139.332 30.9107 138.549 29.5503 136.96C28.1955 135.365 26.9821 133.353 25.2977 132.49C23.6628 131.522 21.9616 130.713 20.0075 130.667L19.8733 131.047Z" fill="#5F97BA"/>
<path d="M13.2448 105.866C13.199 109.207 14.2219 112.254 15.518 114.943C16.7909 117.735 19.1791 119.257 20.8991 121.328C22.694 123.307 24.0449 126.112 25.9782 128.085C27.8759 130.071 29.9588 131.805 32.2274 132.896L32.5374 133.044L32.6541 133.053C33.3871 133.108 33.5392 132.949 33.8862 132.806C34.1864 132.656 34.4283 132.453 34.6379 132.234C35.0725 131.802 35.3423 131.315 35.5922 130.841C36.0627 129.883 36.2546 128.905 36.4232 127.971C36.698 126.089 36.6104 124.25 36.3332 122.457L36.0152 122.392C35.6697 123.173 35.4287 123.964 35.1034 124.697C34.8176 125.443 34.5215 126.152 34.2149 126.801C33.9125 127.436 33.5728 128.017 33.2583 128.394C33.1022 128.562 32.945 128.719 32.8388 128.741C32.7871 128.76 32.7434 128.761 32.7407 128.747C32.7895 128.749 32.6201 128.682 33.0279 128.705L33.4546 128.862C31.504 127.424 29.4149 126.441 27.4424 125.019C25.4209 123.758 23.1864 122.587 21.567 120.405C19.8967 118.258 19.2706 115.053 17.8669 112.827C16.5101 110.48 15.1992 108.155 13.552 105.746L13.2448 105.866Z" fill="#5F97BA"/>
<path d="M33.0734 106.364C31.6124 108.687 30.7927 111.187 30.0893 113.716C29.7508 114.979 29.6909 116.382 29.5271 117.751C29.3792 119.081 28.9651 120.487 28.2672 121.087L28.8112 121.076C27.6556 119.994 26.7773 118.324 25.8506 116.899C24.8875 115.506 23.9406 114.134 23.0263 112.739C22.0895 111.372 21.0567 110.142 20.0311 108.844C18.9762 107.574 17.9389 106.267 16.685 104.986L16.4069 105.183C16.6296 107.223 17.1277 109.21 17.883 110.974C18.6253 112.752 19.5022 114.449 20.6128 115.841C21.7333 117.214 22.9275 118.475 24.2176 119.541C25.5407 120.574 26.9993 121.228 28.3077 122.213L28.641 122.465L28.8535 122.2C29.7832 121.044 30.2942 119.865 31.0574 118.739C31.7745 117.601 32.4408 116.408 32.8064 115.064C33.4707 112.36 33.8225 109.531 33.3832 106.475L33.0734 106.364Z" fill="#5F97BA"/>
<path d="M29.6922 85.9467C28.6436 86.2128 27.7707 86.7247 26.954 87.3152C26.1502 87.9258 25.3868 88.59 24.7162 89.3949C24.0473 90.2024 23.5912 91.334 23.0896 92.4092C22.5931 93.4873 21.9569 94.3609 21.2063 95.0451L22.0691 95.6335C22.2153 93.9859 22.6485 92.3541 22.7536 90.6665C22.8197 88.9921 22.7777 87.2962 22.5984 85.6069C22.3893 83.9204 21.886 82.2858 21.2561 80.744C20.6048 79.2131 19.7131 77.794 18.5855 76.7553L18.3137 76.966C18.4205 78.744 18.5505 80.2916 18.709 81.8246C18.8569 83.3608 18.9827 84.8573 19.2408 86.3443L20.0831 90.867C20.3933 92.3862 20.9338 93.9754 21.0212 95.5401L21.1169 97.2364L21.8856 96.1309C22.5092 95.2326 23.2505 94.5288 24.1283 94.0244C25.0027 93.5196 25.9241 93.0737 26.6295 92.2987C27.3348 91.5236 27.9473 90.6078 28.5193 89.6384C29.0786 88.6489 29.5815 87.5808 29.907 86.2689L29.6922 85.9467Z" fill="#5F97BA"/>
<path d="M32.8797 77.6794C31.7732 77.5941 30.7646 77.8452 29.804 78.2312C28.8432 78.6218 27.9172 79.1362 27.0679 79.8352C26.2093 80.5146 25.5209 81.57 24.9203 82.7038C24.3125 83.8411 23.7119 84.8809 23.053 85.938L23.9571 86.3237C23.9186 84.4687 24.2813 82.6106 24.3802 80.7191C24.4436 78.8412 24.3263 76.9663 24.1586 75.0916C23.9682 73.2206 23.4654 71.4083 22.8744 69.6551C22.2692 67.9046 21.4426 66.2366 20.3723 64.7992L20.0775 64.9496C20.0221 66.934 20.1013 68.7442 20.2285 70.5355C20.3611 72.3207 20.5059 74.0755 20.8133 75.8087C21.156 77.5329 21.4594 79.2747 21.8528 81.0241C22.2763 82.7615 22.8884 84.5427 22.9688 86.33L23.0649 88.4977L23.873 86.7158C24.3336 85.6984 25.1795 85.0287 26.0641 84.5729C26.9592 84.1138 27.8668 83.7436 28.6428 83.0828C30.1828 81.7276 31.7069 80.2831 33.0215 78.0699L32.8797 77.6794Z" fill="#5F97BA"/>
<path d="M34.4184 64.381C32.3034 65.0734 30.6056 66.5593 29.0638 68.3097C27.4765 70.0332 26.6378 72.7879 26.0072 75.5868L27.0179 75.806C26.7539 73.5545 26.8453 71.3258 26.9005 68.9957C26.9519 66.6697 26.5678 64.3882 26.0953 62.1017C25.6209 59.8172 24.7297 57.6164 23.4529 55.7516C22.2067 53.9001 20.473 52.3732 18.6238 52.1555L18.4949 52.5377C19.71 54.2908 20.442 56.0337 21.1182 57.8426C21.8003 59.6408 22.3014 61.5661 22.9477 63.4766C23.6076 65.3935 24.0835 67.428 24.7629 69.4646C25.4531 71.4936 26.017 73.6708 25.9761 75.8352L25.9174 78.957L26.9868 76.0544C27.3672 75.0219 28.1657 74.2297 28.943 73.508C29.7292 72.7807 30.4393 71.9834 31.0757 71.0407C32.3529 69.1673 33.6363 67.2443 34.6104 64.7168L34.4184 64.381Z" fill="#5F97BA"/>
<path d="M33.9524 51.8297C33.2538 51.4259 32.7202 51.4465 32.2285 51.5472C31.7504 51.6791 31.2955 51.8864 31.0384 52.4524C30.7828 53.0208 30.7314 53.924 30.436 54.3764C30.1514 54.8506 29.7023 55.0474 29.1627 55.1462C28.6073 55.2202 28.1093 55.433 27.708 55.7876C27.292 56.1288 26.8599 56.4837 26.5824 57.0469C26.079 58.1668 25.758 59.7382 26.4034 61.3881L26.7018 61.5346C27.9493 60.9872 28.6142 60.6028 29.2112 59.9269C29.4835 59.5842 29.6541 59.0968 29.8487 58.6082C30.0754 58.1601 30.1994 57.5558 30.3185 56.8854C30.4342 56.2145 30.6734 55.6935 31.074 55.445C31.4796 55.1994 32.1276 55.4021 32.5915 55.3111C33.0508 55.2083 33.3265 54.7736 33.5865 54.2803C33.8325 53.7602 34.0467 53.1659 34.1122 52.1924L33.9524 51.8297Z" fill="#5F97BA"/>
</g>
<g style="mix-blend-mode:multiply">
<rect width="165" height="273" fill="white"/>
</g>
</g>
<path d="M-395 -4665H3931V-4667H-395V-4665ZM3932 -4664V2220H3934V-4664H3932ZM3931 2221H-395V2223H3931V2221ZM-396 2220V-4664H-398V2220H-396ZM-395 2221C-395.552 2221 -396 2220.55 -396 2220H-398C-398 2221.66 -396.657 2223 -395 2223V2221ZM3932 2220C3932 2220.55 3931.55 2221 3931 2221V2223C3932.66 2223 3934 2221.66 3934 2220H3932ZM3931 -4665C3931.55 -4665 3932 -4664.55 3932 -4664H3934C3934 -4665.66 3932.66 -4667 3931 -4667V-4665ZM-395 -4667C-396.657 -4667 -398 -4665.66 -398 -4664H-396C-396 -4664.55 -395.552 -4665 -395 -4665V-4667Z" fill="black" fill-opacity="0.1"/>
<defs>
<clipPath id="clip0_325_71">
<rect width="1499.26" height="6338" fill="white" transform="translate(-18 -4392)"/>
</clipPath>
</defs>
</svg>
