<svg width="212" height="324" viewBox="0 0 212 324" fill="none" xmlns="http://www.w3.org/2000/svg">
<g opacity="0.7">
<path d="M143.01 48.0369C141.465 53.7604 139.177 59.0509 136.758 64.1493C134.344 69.2711 131.543 74.035 128.679 78.7044C125.835 83.406 122.666 87.7446 119.459 92.0078C117.785 94.0836 116.186 96.1241 114.528 98.3309C112.86 100.484 111.241 102.699 109.744 105.052C103.674 114.388 98.6478 124.745 94.1088 135.378C89.5396 145.999 85.4037 156.942 81.7421 168.215C78.0489 179.467 75.0952 191.186 72.9002 203.207C70.6666 214.869 67.2206 226.182 63.7681 237.426C56.8005 259.928 49.0126 282.033 41.3058 304.22L41.5843 304.428C51.0775 283.504 59.5586 261.77 66.8812 239.238C70.4476 227.919 73.6925 216.364 75.799 204.175C77.7777 192.313 80.2577 180.569 83.3553 169.105C86.4775 157.66 90.293 146.521 94.9977 136.089C99.7155 125.668 105.455 116.131 111.714 107.43C114.792 103.006 118.174 99.0566 121.452 94.6309C124.639 90.1704 127.779 85.64 130.591 80.7417C133.435 75.8794 135.951 70.6831 138.194 65.2938C140.386 59.8772 142.312 54.2052 143.318 48.1396L143.01 48.0369Z" fill="#5F97BA"/>
<path d="M158.577 97.5642C154.466 101.382 150.814 105.948 147.4 110.772C144.001 115.619 140.811 120.735 138.019 126.222C135.255 131.743 132.879 137.573 130.294 143.19C127.709 148.804 124.928 154.26 121.94 159.475C118.926 164.624 115.833 169.784 112.17 173.609C110.348 175.513 108.293 176.879 106.17 177.16C103.487 177.581 100.914 178.852 98.5784 180.214C89.3954 186.274 81.5473 194.55 74.3771 203.728L74.5808 204.052C82.9604 196.986 91.236 189.582 100.037 184.245C102.263 182.963 104.405 181.957 106.707 181.437C109.595 180.869 112.072 178.934 114.054 176.68C118.069 172.129 120.813 166.445 123.373 160.784C125.929 155.102 128.367 149.375 131.154 143.942C133.93 138.503 137.055 133.391 140.143 128.309C146.186 118 152.196 107.727 158.784 97.8885L158.577 97.5642Z" fill="#5F97BA"/>
<path d="M151.817 189.63C145.132 196.592 138.05 202.771 130.168 205.922C128.211 206.711 126.192 207.404 124.114 207.561C122.083 207.868 119.767 207.711 117.633 207.989C113.287 208.352 108.974 208.983 104.679 210.013C96.0806 212.075 87.9065 216.81 80.7132 223.272C73.6448 229.984 67.5745 238.479 63.1679 248.255L63.4205 248.514C69.3989 240.415 75.7365 233.122 82.6674 226.953C86.1747 223.979 89.6723 220.93 93.4709 218.567C97.2495 216.193 101.109 213.945 105.147 212.221C109.183 210.522 113.411 209.377 117.697 209.335C119.875 209.199 121.892 209.744 124.18 209.877C126.426 210.11 128.684 209.806 130.89 209.277C135.301 208.068 139.269 205.227 142.817 201.913C146.368 198.563 149.517 194.545 152.053 189.912L151.817 189.63Z" fill="#5F97BA"/>
<path d="M100.081 65.2395C97.8803 67.9985 96.0275 71.1121 94.2783 74.3196C92.5571 77.5513 90.9389 80.8904 89.6521 84.4794C88.4015 88.1006 87.4193 91.8925 86.2542 95.5298L84.39 100.921C83.7662 102.719 83.0134 104.448 82.4303 106.29C81.772 108.088 81.1262 109.911 80.6439 111.838C80.0712 113.711 79.7211 115.713 79.3926 117.729C78.9615 119.697 78.9745 121.875 78.758 123.959C78.8394 126.087 78.9343 128.472 79.2891 130.337C79.9568 134.265 80.6993 138.183 81.6695 142.04C82.6876 145.874 83.6668 149.756 85.4077 153.284L85.6812 153.084C84.9795 149.24 84.5752 145.263 84.1002 141.347L82.6122 129.585C81.2232 122.327 82.7845 114.755 84.0673 107.129C84.7877 103.325 85.8072 99.606 87.1855 96.1411C88.5541 92.6657 90.3443 89.498 91.97 86.2442C95.0499 79.5905 97.8797 72.7754 100.34 65.4842L100.081 65.2395Z" fill="#5F97BA"/>
<path d="M67.5873 86.9677C65.9136 90.4619 64.7731 94.2924 63.8099 98.1928C62.8722 102.104 62.1441 106.13 61.8616 110.251C61.6217 114.389 61.7804 118.558 61.7756 122.664C61.7827 126.773 61.6183 130.867 61.6436 135.025C61.5991 143.33 63.0014 151.854 65.8741 159.568C68.8438 167.226 73.4962 173.757 79.0094 177.933L79.205 177.605C74.9779 171.379 71.4563 164.862 68.9281 157.659C67.6612 154.076 66.4625 150.426 65.5834 146.598C64.7568 142.764 64 138.866 63.3909 134.877C62.8168 130.884 62.5805 126.796 62.8165 122.761C63.0562 118.721 63.8197 114.78 64.5007 110.883C65.6816 103.028 66.7957 95.2159 67.8914 87.1375L67.5873 86.9677Z" fill="#5F97BA"/>
<path d="M41.5241 82.818C42.7628 89.3671 43.7646 95.9418 44.2776 102.464C44.4976 105.723 44.6081 108.973 44.4373 112.14C44.2124 115.341 43.73 118.212 42.8044 121.153C41.8805 124.22 40.9087 127.336 40.202 130.64C39.5025 133.94 39.175 137.451 39.4076 140.893C39.8917 147.812 42.0992 154.184 44.4173 160.287C45.6169 163.331 46.8977 166.357 48.0699 169.234C49.2245 172.176 50.2912 175.195 51.2679 178.266C53.2391 184.401 54.9037 190.72 56.5055 197.069C59.7924 209.745 62.6715 222.64 65.6639 235.598L65.9796 235.533C64.9763 222.077 62.7886 208.787 59.7559 195.771C58.2094 189.27 56.2487 182.913 54.013 176.706C52.9348 173.58 51.6449 170.559 50.2689 167.616C48.8767 164.618 47.3238 161.973 45.9333 159.166C43.1936 153.593 40.6656 147.438 40.4492 140.85C40.1997 134.2 42.9446 128.554 45.2383 122.713C46.4427 119.649 47.1557 115.978 47.2789 112.503C47.4094 108.991 47.1802 105.519 46.7484 102.117C45.8478 95.3187 44.1618 88.7874 41.8303 82.673L41.5241 82.818Z" fill="#5F97BA"/>
<path d="M168.035 193.684C166.193 193.667 164.496 193.93 162.821 194.245C161.147 194.569 159.516 194.892 157.914 195.657C156.31 196.394 154.607 197.01 152.904 196.695C151.2 196.445 149.602 195.401 148.202 194.37L148.929 195.29C148.666 193.773 148.404 192.032 148.304 190.397C148.21 188.736 148.169 187.114 148.16 185.483C148.164 183.853 148.24 182.217 148.462 180.566C148.634 178.884 149.001 177.239 149.369 175.409L149.109 175.153C147.982 176.283 146.924 177.704 146.255 179.443C145.548 181.152 145.054 183.066 144.888 185.036C144.678 187 144.756 189.017 145.086 190.944C145.423 192.892 145.846 194.703 146.615 196.573L146.944 197.371L147.342 197.492C149.242 198.065 151.094 197.895 152.86 198.022C154.629 198.004 156.401 198.415 158.24 198.661C160.078 198.9 161.84 198.343 163.517 197.581C165.186 196.784 166.796 195.74 168.162 194.082L168.035 193.684Z" fill="#5F97BA"/>
<path d="M160.954 205.065C158.192 203.685 155.649 202.959 153.056 202.546C151.749 202.457 150.34 202.588 149.073 201.98C147.806 201.417 146.704 200.231 146.033 198.786C144.695 195.932 144.31 192.888 144.109 189.607C143.817 186.322 143.752 182.869 143.461 179.067L143.151 178.93C141.42 182.039 140.658 185.828 140.677 189.775C140.72 191.755 141.141 193.774 141.79 195.667C142.387 197.585 143.485 199.326 144.814 200.424C146.115 201.558 147.404 202.36 148.672 203.233C149.927 204.115 151.165 205.34 152.545 206.011C153.92 206.688 155.374 206.818 156.794 206.744C158.215 206.638 159.632 206.361 160.98 205.493L160.954 205.065Z" fill="#5F97BA"/>
<path d="M152.36 211.438C151.292 210.112 150.157 209.165 149.017 208.267C147.867 207.401 146.736 206.558 145.492 206.05C144.243 205.556 142.871 205.315 141.724 204.473C140.605 203.654 139.579 202.329 139.258 200.88C138.782 198.018 138.948 194.649 138.945 191.334C138.839 187.977 138.697 184.543 138.06 180.895L137.742 180.815C136.323 184.027 135.709 187.533 135.507 191.139C135.435 192.949 135.617 194.797 135.896 196.649C136.152 198.489 136.68 200.437 137.773 202.081C138.891 203.64 140.09 204.464 141.166 205.614C142.252 206.709 143.211 208.194 144.363 209.234C145.513 210.271 146.818 210.867 148.135 211.324C149.46 211.751 150.816 212.049 152.267 211.846L152.36 211.438Z" fill="#5F97BA"/>
<path d="M146.067 216.436C145.601 214.711 144.755 213.354 143.842 212.126C142.891 210.963 141.864 209.869 140.687 209.157C139.503 208.458 138.178 208.23 136.927 207.948C135.681 207.639 134.512 207.149 133.348 206.487L133.83 207.228C133.924 205.327 134.273 203.412 134.326 201.526C134.381 199.639 134.491 197.758 134.479 195.889C134.387 192.121 133.992 188.498 133.42 184.543L133.104 184.445C132.261 186.167 131.788 188.099 131.48 190.017C131.171 191.945 131 193.888 131.026 195.828C131.055 197.769 131.277 199.699 131.49 201.618C131.702 203.542 132.243 205.43 132.596 207.336L132.722 208.021L133.078 208.076C134.27 208.26 135.448 208.691 136.475 209.586C137.519 210.437 138.401 211.638 139.388 212.454C141.403 214.024 143.421 215.399 145.83 216.715L146.067 216.436Z" fill="#5F97BA"/>
<path d="M140.356 220.004C139.378 218.481 138.285 217.339 137.18 216.253C136.063 215.193 134.948 214.179 133.697 213.482C132.457 212.786 131.044 212.376 129.946 211.351C129.421 210.856 128.887 210.202 128.68 209.544C128.588 209.37 128.599 209.238 128.607 209.152C128.589 209.094 128.609 208.921 128.665 208.696C128.731 208.305 128.87 207.872 128.975 207.459C129.478 205.785 129.929 204.044 130.177 202.23C130.462 200.427 130.697 198.567 130.664 196.655C130.58 192.945 129.758 188.582 127.366 185.975L127.095 186.192C127.552 189.913 127.388 193.045 127.229 196.468C127.163 198.154 127.199 199.883 127.156 201.642C127.09 203.393 127.113 205.191 127.229 207.064L127.302 208.502C127.288 208.84 127.475 209.924 127.733 210.229C128.22 211.162 128.785 211.695 129.295 212.389C130.334 213.681 131.242 215.264 132.346 216.488C133.452 217.689 134.74 218.465 136.046 219.14C137.366 219.782 138.723 220.309 140.223 220.383L140.356 220.004Z" fill="#5F97BA"/>
<path d="M134.36 223.306C133.14 221.786 131.886 220.604 130.626 219.479C129.365 218.352 128.138 217.263 126.706 216.544C125.293 215.8 123.809 214.974 122.781 213.466C121.717 212.012 121.078 210.099 120.653 208.303L120.455 210.186C121.738 208.773 122.347 207.18 122.947 205.451C123.505 203.73 123.818 201.888 123.846 200.047C123.9 198.203 123.652 196.387 123.327 194.638C122.96 192.894 122.389 191.237 121.643 189.704L121.33 189.791C121.001 193.323 120.89 196.516 120.501 199.535C120.301 201.033 120.155 202.51 119.887 203.945C119.646 205.342 119.142 206.814 118.743 207.874L118.227 209.248L118.545 209.757C119.661 211.548 120.972 212.882 122.096 214.376C123.298 215.754 124.253 217.516 125.395 219.132C126.533 220.743 127.999 221.739 129.498 222.509C131.003 223.263 132.58 223.806 134.268 223.709L134.36 223.306Z" fill="#5F97BA"/>
<path d="M126.527 227.696C125.706 225.702 124.714 224.052 123.678 222.481C122.642 220.906 121.572 219.423 120.228 218.273C118.888 217.125 117.512 215.92 116.653 214.166C115.72 212.499 115.197 210.451 114.802 208.589L114.626 210.385C115.78 208.875 116.336 207.358 116.924 205.696C117.482 204.057 117.82 202.317 117.948 200.56C118.097 198.801 118.022 197.033 117.868 195.295C117.688 193.557 117.324 191.849 116.795 190.199L116.475 190.213C115.697 193.56 115.256 196.694 114.663 199.694L113.847 204.135C113.576 205.548 113.104 207.074 112.73 208.152L112.284 209.44L112.556 209.951C113.571 211.86 114.866 213.291 115.869 214.959C116.946 216.549 117.721 218.46 118.566 220.371C119.413 222.276 120.645 223.712 121.954 224.986C123.269 226.253 124.674 227.379 126.334 228.024L126.527 227.696Z" fill="#5F97BA"/>
<path d="M109.651 193.215C108.808 196.206 108.399 198.95 107.989 201.712C107.822 203.094 107.88 204.566 107.781 206.049C107.704 207.542 107.269 208.898 106.649 210.076L106.451 210.455L106.727 210.922C107.631 212.46 108.194 214.396 108.92 216.08L111.11 221.065C111.835 222.699 112.686 224.218 113.492 225.8L116.009 230.712L116.323 230.639C116.58 228.549 116.377 226.395 115.944 224.379C115.493 222.371 114.858 220.446 114.006 218.717C113.124 217.012 112.117 215.442 111.049 213.96C109.949 212.502 108.614 211.361 107.492 209.974L107.569 210.82C108.036 209.412 108.616 208.123 109.259 206.799C109.911 205.487 110.577 204.085 110.816 202.538C111.063 200.995 111.093 199.404 110.99 197.827C110.862 196.251 110.593 194.672 109.969 193.181L109.651 193.215Z" fill="#5F97BA"/>
<path d="M84.6863 204.002C84.15 207.134 84.0181 209.945 83.8868 212.776C83.8599 214.188 84.065 215.645 84.1139 217.141C84.187 218.644 83.8911 220.077 83.3936 221.358L83.2343 221.771L83.5542 222.193C84.6038 223.57 85.3551 225.405 86.241 226.959L88.9094 231.551C89.7927 233.056 90.7851 234.423 91.7404 235.861L94.7257 240.323L95.0285 240.195C95.074 238.066 94.6583 235.95 94.0298 234.013C93.3831 232.088 92.5621 230.278 91.5428 228.7C90.4991 227.153 89.3436 225.759 88.1388 224.467C86.9028 223.201 85.4684 222.297 84.2177 221.107L84.3767 221.939C84.6983 220.452 85.1456 219.067 85.6517 217.63C86.1658 216.206 86.6867 214.692 86.767 213.105C86.8575 211.524 86.7302 209.926 86.4692 208.371C86.1852 206.821 85.76 205.293 84.9941 203.912L84.6863 204.002Z" fill="#5F97BA"/>
<path d="M102.036 194.259C101.41 195.738 101.063 197.231 100.744 198.722C100.479 200.223 100.207 201.709 100.141 203.234C100.081 204.76 100.324 206.364 100.357 207.942C100.394 209.516 100.12 211.018 99.673 212.432L99.5867 212.703L99.8188 213.196C100.548 214.742 101.029 216.557 101.666 218.12C102.313 219.696 102.825 221.327 103.354 222.875C103.891 224.42 104.477 225.914 104.868 227.469C105.264 229.027 105.592 230.617 105.589 232.578L105.882 232.76C106.974 231.348 107.477 229.152 107.474 227.066C107.496 224.951 107.108 222.9 106.471 221.073C105.825 219.238 104.933 217.619 104.002 216.099C103.067 214.563 101.855 213.379 100.724 212.11L100.87 212.874C100.977 211.288 101.199 209.77 101.649 208.296C102.091 206.824 102.703 205.372 102.943 203.826C103.183 202.281 103.173 200.69 103.126 199.101C103.021 197.504 102.859 195.902 102.351 194.283L102.036 194.259Z" fill="#5F97BA"/>
<path d="M94.9468 196.706C94.3207 198.185 93.9742 199.677 93.6554 201.169C93.3901 202.669 93.1171 204.153 93.0521 205.681C92.9925 207.207 93.2348 208.811 93.2681 210.389C93.305 211.963 93.0309 213.465 92.5842 214.879L92.498 215.15L92.7301 215.643C93.4594 217.189 93.9406 219.004 94.5767 220.567C95.2225 222.145 95.7366 223.774 96.2656 225.322C96.8018 226.867 97.3878 228.361 97.779 229.916C98.1752 231.474 98.5054 233.062 98.5001 235.025L98.791 235.209C99.8832 233.797 100.387 231.601 100.385 229.517C100.407 227.402 100.019 225.351 99.3818 223.524C98.7363 221.689 97.844 220.071 96.9132 218.551C95.9781 217.014 94.7661 215.831 93.6353 214.562L93.783 215.324C93.8895 213.737 94.1122 212.219 94.5622 210.745C95.0016 209.275 95.6158 207.821 95.8557 206.276C96.0938 204.732 96.0857 203.139 96.0392 201.55C95.9339 199.954 95.7715 198.351 95.2657 196.73L94.9468 196.706Z" fill="#5F97BA"/>
<path d="M163.351 186.085C162.072 186.013 160.954 186.311 159.865 186.676C158.786 187.064 157.735 187.493 156.807 188.302C155.887 189.118 155.037 190.248 154.003 190.761C153.011 191.252 151.749 191.395 150.937 190.888L151.767 192.112C152.091 190.813 152.387 189.447 152.63 188.139C152.898 186.821 153.254 185.568 153.483 184.277C153.935 181.657 154.427 179.194 155.031 176.164L154.791 175.88C152.564 177.191 151.066 179.957 150.243 182.837C149.834 184.298 149.7 185.864 149.629 187.403C149.537 188.952 149.619 190.475 149.929 192.078L150.188 193.422L150.76 193.305C152.219 193.004 153.162 192.332 154.317 192.032C155.425 191.684 156.677 191.791 157.838 191.53C158.986 191.24 159.989 190.499 160.944 189.673C161.89 188.819 162.791 187.854 163.505 186.46L163.351 186.085Z" fill="#5F97BA"/>
<path d="M175.625 93.9852C173.722 93.8948 171.965 94.2515 170.25 94.7577C168.526 95.2354 166.883 95.9729 165.348 97.2094C163.809 98.4364 162.15 99.2518 160.39 99.471C158.64 99.7097 156.806 99.478 155.186 99.4327L156.609 100.612C156.357 99.3693 156.153 97.818 156.064 96.4008C155.953 94.9556 155.842 93.5196 155.782 92.0607C155.618 89.1279 155.77 86.1991 155.964 82.8759L155.675 82.6883C153.911 85.0752 152.894 88.3806 152.592 91.7897C152.432 93.4999 152.471 95.2505 152.733 96.9538C153.012 98.6821 153.379 100.258 154.004 102.003L154.486 103.345L155.429 103.185C157.345 102.857 158.985 101.705 160.675 100.953C162.356 100.161 164.105 99.7923 165.949 99.7353C167.8 99.6929 169.521 99.0687 171.142 98.1087C172.771 97.1774 174.347 96.0492 175.749 94.3812L175.625 93.9852Z" fill="#5F97BA"/>
<path d="M168.987 105.302C167.291 104.914 165.735 105.023 164.208 105.252C163.451 105.388 162.693 105.52 161.967 105.809C161.238 106.093 160.537 106.56 159.821 106.984C158.403 107.883 156.85 108.244 155.324 107.871C153.86 107.531 152.222 106.601 151.778 105.998L152.05 106.385C151.726 105.526 151.378 104.362 151.099 103.321L150.191 100.106C149.584 97.9175 149.156 95.6502 148.626 93.0183L148.31 92.9436C147.25 95.2689 146.925 98.1153 147.152 100.869C147.254 102.256 147.514 103.627 147.935 104.915C148.376 106.226 148.885 107.356 149.63 108.619L149.819 108.94L149.902 109.006C152.107 110.81 153.8 109.922 155.388 109.617C156.973 109.198 158.503 109.013 160.15 109.329C161.802 109.672 163.395 109.454 164.878 108.751C166.368 108.088 167.813 107.201 169.089 105.705L168.987 105.302Z" fill="#5F97BA"/>
<path d="M161.527 118.413C159.924 117.857 158.406 117.739 156.902 117.729C155.399 117.714 153.927 117.823 152.488 118.445C151.051 119.064 149.563 119.679 148.079 119.403C147.347 119.32 146.595 119.106 145.947 118.708C145.263 118.409 144.712 117.741 144.578 117.443L144.74 117.697C144.358 116.439 143.907 114.988 143.615 113.588L142.771 109.353C142.166 106.516 141.883 103.633 141.516 100.268L141.205 100.152C139.731 102.929 139.228 106.531 139.505 109.988C139.632 111.728 140.008 113.434 140.581 115.012C141.153 116.612 141.758 118.082 142.701 119.533L142.867 119.788C143.952 120.718 144.876 120.76 145.689 120.757C146.523 120.787 147.293 120.696 148.066 120.724C149.603 120.663 151.133 121.111 152.704 121.5C154.274 121.892 155.798 121.601 157.284 121.138C158.77 120.67 160.232 120.019 161.596 118.829L161.527 118.413Z" fill="#5F97BA"/>
<path d="M154.488 126.056C153.059 125.528 151.729 125.442 150.421 125.47C149.109 125.483 147.837 125.642 146.608 126.319C145.381 126.976 144.101 127.628 142.804 127.395C141.581 127.329 140.082 126.384 139.732 125.652L140.099 126.232L139.244 122.448C138.991 121.169 138.686 119.934 138.327 118.716L136.068 111.129L135.75 111.095C134.732 113.808 134.762 116.927 135.145 119.772C135.353 121.204 135.707 122.591 136.201 123.891C136.685 125.206 137.173 126.462 137.848 127.709L138.138 128.244L138.216 128.291C140.163 129.464 141.443 128.628 142.818 128.725C144.158 128.589 145.503 128.966 146.895 129.326C148.283 129.686 149.613 129.369 150.895 128.869C152.177 128.369 153.431 127.687 154.57 126.467L154.488 126.056Z" fill="#5F97BA"/>
<path d="M149.247 133.953C147.623 133.502 146.079 133.557 144.56 133.763C143.045 133.982 141.542 134.324 140.171 135.271C138.795 136.207 137.474 137.303 136.007 137.785C134.546 138.418 133.053 138.455 131.343 139.295L133.175 140.453C133.266 138.77 133.174 137.096 133.15 135.424C133.111 133.752 133.039 132.086 132.827 130.434C132.382 127.124 131.83 123.859 130.78 120.534L130.461 120.537C129.599 123.917 129.467 127.349 129.503 130.732C129.535 132.425 129.728 134.101 129.969 135.772C130.228 137.441 130.429 139.11 130.84 140.763L131.511 143.469L132.673 141.921C133.545 140.762 134.94 139.609 136.32 139.022C137.716 138.329 139.295 138.398 140.825 138.342C142.363 138.312 143.781 137.734 145.196 137.072C146.606 136.397 147.996 135.612 149.319 134.372L149.247 133.953Z" fill="#5F97BA"/>
<path d="M141.754 147.203C140.523 146.641 139.351 146.494 138.187 146.403C137.028 146.366 135.877 146.367 134.765 146.691C133.654 147.022 132.579 147.797 131.463 148.15C130.388 148.527 129.108 148.508 128.203 148.075L128.772 148.845C128.782 147.118 128.917 145.356 128.751 143.661C128.611 141.958 128.522 140.241 128.246 138.568C127.646 135.234 126.751 131.971 125.205 128.909L124.892 128.993C124.354 132.611 124.468 136.024 124.878 139.372C125.109 141.039 125.523 142.661 125.89 144.298C126.228 145.94 126.868 147.52 127.384 149.133L127.634 149.917L127.954 149.903C129.348 149.847 130.373 149.535 131.584 149.733C132.758 149.868 133.969 150.345 135.14 150.356C136.308 150.362 137.438 150.006 138.554 149.6C139.666 149.136 140.767 148.601 141.809 147.626L141.754 147.203Z" fill="#5F97BA"/>
<path d="M135.411 159.048C134.409 158.231 133.402 157.858 132.394 157.554C131.386 157.298 130.377 157.101 129.375 157.263C128.372 157.448 127.384 158.063 126.387 158.248C125.392 158.455 124.387 158.284 123.369 157.919L124.153 158.792C124.265 157.303 124.399 155.815 124.261 154.366C124.156 152.915 124.06 151.444 123.767 150.02C123.463 148.595 123 147.208 122.411 145.871C121.807 144.567 121.041 143.176 119.886 142.382L119.647 142.658C119.851 144.146 119.843 145.508 119.974 146.892C120.076 148.278 120.196 149.653 120.428 151.006C120.656 152.361 121.035 153.691 121.367 155.041C121.664 156.397 122.195 157.721 122.657 159.053L123.009 160.06L123.442 159.926C124.427 159.619 125.423 159.502 126.428 159.767C127.434 160.009 128.444 160.679 129.443 160.92C130.441 161.14 131.433 160.998 132.427 160.798C133.419 160.552 134.414 160.231 135.412 159.472L135.411 159.048Z" fill="#5F97BA"/>
<path d="M130.345 166.531C129.24 165.673 128.099 165.358 126.966 165.193C125.835 165.061 124.689 165.069 123.614 165.585C122.54 166.117 121.571 167.085 120.534 167.542C119.492 168.016 118.407 168.278 117.229 168.488L118.556 169.56C118.795 168.115 118.891 166.695 118.866 165.272C118.865 163.849 118.871 162.413 118.654 161.005C118.2 158.212 117.473 155.344 115.899 152.924L115.594 153.034C115.191 156.034 115.152 158.725 115.283 161.49C115.359 162.861 115.61 164.215 115.828 165.577C116.023 166.942 116.314 168.31 116.708 169.659L117.276 171.616L118.036 170.734C118.831 169.808 119.778 169.103 120.822 168.836C121.873 168.569 123.022 168.926 124.09 169.039C125.159 169.123 126.167 168.819 127.202 168.497C128.234 168.148 129.27 167.744 130.34 166.964L130.345 166.531Z" fill="#5F97BA"/>
<path d="M124.808 177.852C123.927 176.829 122.985 176.247 122.032 175.743C121.073 175.288 120.103 174.896 119.096 174.869C118.086 174.857 117.038 175.292 116.03 175.347C115.017 175.429 114.049 175.13 113.028 174.748L113.756 175.725C113.996 174.226 114.224 172.739 114.146 171.243C114.091 169.755 114.03 168.236 113.71 166.765C113.04 163.897 111.709 160.885 109.472 159.377L109.224 159.639L109.811 163.867C109.993 165.197 110.132 166.51 110.374 167.804C110.607 169.1 110.953 170.39 111.23 171.719C111.468 173.043 111.939 174.393 112.275 175.735L112.55 176.833L113.002 176.712C113.957 176.458 114.961 176.467 115.914 176.881C116.873 177.272 117.789 178.096 118.737 178.499C119.688 178.886 120.677 178.934 121.673 178.939C122.673 178.897 123.686 178.794 124.756 178.274L124.808 177.852Z" fill="#5F97BA"/>
<path d="M116.194 185.451C115.327 184.011 114.272 183.062 113.172 182.271C112.068 181.502 110.906 180.843 109.634 180.809C108.358 180.766 107.078 180.989 105.886 180.665C104.68 180.412 103.504 179.786 102.212 179.344L103.26 181.455C103.981 180.131 104.333 178.775 104.666 177.33C104.979 175.893 105.17 174.384 105.092 172.86C104.947 169.832 104.086 166.732 102.375 164.579L102.08 164.733C101.948 167.745 101.938 170.199 101.716 172.692L101.539 176.431C101.483 177.679 101.286 178.979 101.223 180.187L101.09 182.722L102.269 182.301C103.372 181.908 104.582 181.645 105.745 181.929C106.919 182.175 107.981 183.15 109.024 183.962C110.065 184.805 111.199 185.142 112.365 185.457C113.532 185.757 114.726 185.981 116.069 185.846L116.194 185.451Z" fill="#5F97BA"/>
<path d="M106.166 190.307C105.59 189.026 104.83 188.123 104.038 187.303C103.222 186.545 102.373 185.84 101.433 185.425C100.495 184.999 99.4246 185.075 98.4306 184.973C97.4304 184.887 96.5092 184.541 95.5894 184.043L96.0536 185.04C96.5395 183.579 97.1729 182.165 97.4408 180.601C97.7028 179.048 97.9059 177.452 97.8908 175.822C97.7742 172.606 96.8624 169.166 94.8976 166.856L94.6054 167.019C94.4858 170.337 94.4165 172.994 94.4369 175.83L94.6397 180.117C94.6708 181.553 94.9547 183.127 94.8986 184.591L94.8617 185.547L95.3628 185.587C96.297 185.665 97.2216 185.981 98.035 186.7C98.8544 187.403 99.5817 188.35 100.409 188.907C101.237 189.464 102.136 189.795 103.045 190.146C103.974 190.436 104.921 190.697 106.013 190.674L106.166 190.307Z" fill="#5F97BA"/>
<path d="M98.9749 195.609C98.5154 194.266 97.8331 193.32 97.1038 192.465C96.3581 191.654 95.5618 190.903 94.617 190.565C93.6662 190.238 92.6097 190.342 91.6716 190.135C90.724 189.942 89.8691 189.462 88.8882 188.954L89.5953 190.371C90.1928 189.174 90.6788 187.966 90.8917 186.608C91.1311 185.277 91.3061 183.875 91.2062 182.45C90.9636 179.647 89.8296 176.644 87.8113 175.255L87.5516 175.495C87.7501 178.338 87.7634 180.384 87.7675 182.629L87.9264 186.033C87.9125 187.175 88.0402 188.445 88.0791 189.645L88.1337 191.258L88.7881 191.061C89.6272 190.809 90.5565 190.953 91.3507 191.517C92.1599 192.065 92.7946 193.145 93.5173 193.835C94.2471 194.522 95.0787 194.916 95.9426 195.296C96.8186 195.645 97.7215 195.951 98.8019 195.954L98.9749 195.609Z" fill="#5F97BA"/>
<path d="M115.1 135.629C111.735 135.216 108.634 135.547 105.577 136.292C104.065 136.759 102.543 137.553 100.967 137.609C99.42 137.69 97.7748 137.146 96.6124 136.026C95.3308 134.729 95.563 133.958 95.0573 131.44C94.6762 129.315 94.1768 127.252 93.7506 125.379C93.2704 123.505 92.9818 121.789 92.9156 119.89C92.846 117.992 93.0445 115.934 93.24 113.742L92.9511 113.552C91.8082 115.144 90.8703 117.063 90.4144 119.366C89.9032 121.662 90.0484 124.245 90.4606 126.468C90.9069 128.705 91.5718 130.64 92.1824 132.58C92.5365 133.581 92.6223 134.365 93.3327 135.852C94.0183 137.126 95.0261 137.765 95.9035 138.116C97.6985 138.786 99.3239 138.709 100.96 138.98C102.587 139.189 104.262 139.76 105.924 139.8C107.58 139.831 109.184 139.379 110.74 138.771C112.29 138.13 113.808 137.34 115.195 136.035L115.1 135.629Z" fill="#5F97BA"/>
<path d="M115.468 127.382C113.821 127.217 112.322 127.316 110.853 127.455C109.379 127.562 107.972 127.753 106.547 128.285C105.13 128.813 103.566 129.117 102.154 128.414C100.73 127.775 99.6127 126.325 98.7334 124.99L99.167 125.879L98.7613 121.35C98.6655 119.831 98.4879 118.343 98.277 116.857L96.9682 107.722L96.6549 107.623C95.2732 110.478 94.9592 113.937 94.9933 117.179C95.0286 118.816 95.2024 120.437 95.5319 122.015C95.8467 123.605 96.1803 125.14 96.6722 126.71L96.9005 127.435L97.1093 127.599C98.6705 128.824 100.37 129.214 101.909 129.709C103.477 130.082 104.994 130.742 106.631 131.278C108.269 131.819 109.901 131.474 111.414 130.853C112.931 130.223 114.387 129.326 115.587 127.782L115.468 127.382Z" fill="#5F97BA"/>
<path d="M118.737 118.966C115.837 118.537 113.241 118.819 110.703 119.479C109.449 119.933 108.171 120.641 106.851 120.603C105.559 120.615 104.192 119.843 103.58 118.611C103.082 117.532 102.947 115.867 102.762 114.296C102.625 112.693 102.643 111.04 102.593 109.354C102.438 105.971 102.368 102.48 101.905 98.7119L101.594 98.6054C100.025 101.813 99.3187 105.462 99.171 109.253C99.1205 111.153 99.372 113.105 99.8011 115.028C100.235 116.903 100.861 118.973 102.452 120.342C103.954 121.47 105.388 121.636 106.773 121.963C108.157 122.27 109.6 122.922 111.033 122.998C112.467 123.096 113.837 122.641 115.149 122.05C116.457 121.429 117.726 120.653 118.841 119.371L118.737 118.966Z" fill="#5F97BA"/>
<path d="M122.525 110.888C119.395 110.352 116.538 110.519 113.733 110.999C112.349 111.325 110.903 111.982 109.484 111.698C108.066 111.47 106.773 110.284 106.651 108.619C106.304 105.255 106.712 101.465 106.956 97.7309C107.084 93.94 107.225 90.0795 106.869 85.9607L106.558 85.8495C104.89 89.3266 103.995 93.1658 103.545 97.1573C103.337 99.1554 103.388 101.225 103.547 103.312C103.672 105.376 104.067 107.575 105.063 109.554C105.534 110.575 106.293 111.368 107.019 111.927C107.781 112.403 108.53 112.723 109.289 113.035C110.791 113.608 112.336 114.319 113.906 114.538C115.471 114.733 116.992 114.363 118.451 113.833C119.909 113.27 121.331 112.55 122.616 111.298L122.525 110.888Z" fill="#5F97BA"/>
<path d="M125.988 100.16C124.579 100.073 123.281 100.29 121.999 100.537C120.731 100.834 119.478 101.143 118.275 101.607C117.072 102.063 115.945 102.944 114.741 103.456C113.607 103.99 112.083 104.034 111.425 103.176L111.613 103.658C111.607 101.549 112.017 99.4094 112.133 97.3285L112.574 91.1212C112.764 86.9812 112.808 83.01 112.984 78.5558L112.691 78.3784C110.391 81.7626 109.417 86.3201 109.142 90.6783C109.069 92.8913 109.184 95.1022 109.369 97.295C109.556 99.4949 110.132 101.637 110.474 103.798L110.534 104.174L110.662 104.281C111.44 104.923 112.184 105.099 112.871 105.137C113.573 105.248 114.248 105.273 114.938 105.35C116.318 105.499 117.728 105.637 119.039 105.277C120.35 104.928 121.577 104.258 122.774 103.526C123.955 102.74 125.102 101.845 126.111 100.56L125.988 100.16Z" fill="#5F97BA"/>
<path d="M140.037 88.7564C137.782 88.4335 135.589 88.6526 133.421 89.0148C131.26 89.4124 129.113 89.9608 127.072 90.9608C125.029 91.9791 123.12 93.4734 121.094 94.448C119.084 95.4937 116.989 96.2207 114.863 97.0056L116.128 98.4316C116.935 95.7507 117.522 93.0219 117.925 90.2108C118.372 87.4194 118.675 84.5604 118.739 81.6578C118.775 78.7605 118.621 75.8009 118.078 72.8896C117.553 70.0195 116.673 67.0328 115.021 64.9109L114.756 65.1362C115.469 67.8415 115.553 70.5419 115.6 73.2282C115.606 75.9159 115.536 78.6115 115.348 81.3212C115.208 84.0303 115.099 86.7643 114.918 89.5137C114.7 92.2444 114.53 95.0296 114.364 97.788L114.21 100.333L115.628 99.214C117.453 97.7746 119.375 96.4926 121.441 95.7341C123.499 94.9379 125.707 94.7873 127.823 94.3333C129.939 93.8656 131.976 93.0594 134.022 92.2249C136.063 91.3622 138.098 90.4506 140.094 89.1718L140.037 88.7564Z" fill="#5F97BA"/>
<path d="M146.341 78.3582C144.001 78.1471 141.749 78.4936 139.53 79.0134C137.319 79.5618 135.125 80.2655 133.094 81.5985C131.061 82.9128 129.111 84.4417 127.003 85.4217C124.919 86.5193 122.718 87.2104 120.577 88.8436L122.492 90.5635C123.196 88.2271 123.654 85.8574 124.115 83.4493C124.553 81.0451 124.91 78.5909 125.003 76.0784C125.166 73.5822 125.081 71.0204 124.821 68.4717C124.53 65.9505 124.009 63.3071 122.816 61.1778L122.525 61.3372C122.806 63.7815 122.618 66.1306 122.451 68.4733C122.285 70.814 121.993 73.1376 121.731 75.4789C121.415 77.8083 121.22 80.1725 120.966 82.5399L120.177 89.6435L119.617 94.6934L122.092 91.3633C123.496 89.4754 125.38 87.7345 127.395 86.6277C129.405 85.4243 131.648 85.0013 133.861 84.5787C136.075 84.1632 138.159 83.2438 140.25 82.2912C142.337 81.3174 144.405 80.2497 146.417 78.768L146.341 78.3582Z" fill="#5F97BA"/>
<path d="M148.152 70.6232C146.493 69.9775 144.856 69.8892 143.236 69.9523C141.624 70.0623 140.006 70.2906 138.494 71.0673C136.982 71.8577 135.584 73.0439 134.083 73.7189C132.604 74.4907 131.027 74.8989 129.421 75.4726L130.836 76.8027C131.306 74.8174 131.52 72.8339 131.655 70.808C131.81 68.7914 131.889 66.751 131.736 64.6976C131.573 62.6518 131.308 60.5946 130.783 58.5894C130.273 56.5932 129.554 54.6099 128.473 52.9925L128.181 53.157C128.404 57.2482 128.337 60.9451 128.366 64.8106C128.387 66.7272 128.484 68.6539 128.577 70.5984C128.642 72.5346 128.714 74.5061 128.902 76.4612L129.14 78.9456L130.318 77.7892C131.546 76.5823 132.906 75.4986 134.415 74.9806C135.92 74.4207 137.564 74.5306 139.128 74.405C140.697 74.2915 142.182 73.7494 143.688 73.2218C145.189 72.6569 146.689 72.0344 148.183 71.0376L148.152 70.6232Z" fill="#5F97BA"/>
<path d="M148.943 60.2195C147.392 60.1566 145.958 60.5123 144.542 60.9369C143.15 61.4379 141.76 61.9783 140.469 62.8158C139.187 63.6819 138.039 64.9417 136.862 66.0671C135.672 67.1815 134.408 67.9929 133.07 68.9339L134.05 69.8997C134.807 67.8086 135.586 65.7275 135.995 63.4522C136.38 61.1919 136.735 58.8612 136.67 56.4531C136.617 54.0535 136.259 51.6104 135.514 49.3258C134.753 47.0503 133.563 44.9848 132.051 43.6199L131.806 43.8821C132.415 46.1118 132.764 48.1553 132.998 50.2061C133.189 52.2741 133.22 54.3273 133.264 56.405C133.291 58.483 133.316 60.62 133.198 62.7653C133.075 64.8939 133.135 67.1753 132.857 69.3103L132.51 71.9512L133.835 70.2782C134.81 69.0477 136.088 68.1351 137.453 67.6167C138.838 67.1193 140.287 66.8457 141.628 66.2484C142.959 65.627 144.207 64.7516 145.465 63.8822C146.702 62.9388 147.928 61.9552 149.056 60.6104L148.943 60.2195Z" fill="#5F97BA"/>
<path d="M71.9534 122.581C71.9568 124.401 72.4081 126.152 73.0182 127.749C73.6829 129.294 74.4559 130.788 75.4479 131.976C76.4416 133.161 77.7011 133.913 78.8533 134.733C80.0215 135.543 81.0189 136.537 82.0567 137.645L82.3946 138.003L82.8149 137.492C83.95 136.11 85.1764 134.827 86.1153 133.211C87.0453 131.601 87.9326 129.919 88.621 128.082C89.3095 126.246 89.722 124.212 89.9818 122.16C90.2419 120.104 90.2054 117.941 89.8638 115.86L89.5477 115.797C88.0686 119.443 86.8165 122.668 85.5327 126.03C84.9316 127.723 84.386 129.474 83.7393 131.18C83.0952 132.87 82.6294 134.805 81.8944 136.45L82.6492 136.297C81.5368 135.633 80.4872 134.645 79.6748 133.366C78.8503 132.086 78.2206 130.596 77.4277 129.401C76.6351 128.201 75.7701 127.124 74.9334 125.973C74.0661 124.844 73.267 123.668 72.2482 122.433L71.9534 122.581Z" fill="#5F97BA"/>
<path d="M71.4508 107.028C71.273 109.028 71.5395 110.904 71.9449 112.716C72.3648 114.517 72.9189 116.306 73.9444 117.732C74.9606 119.169 76.1115 120.397 77.0091 121.845C77.9488 123.251 78.7472 124.894 79.9819 126.303L80.3592 126.732L81.1311 126.268C82.4809 125.46 83.3372 124.313 84.2299 123.075C85.0833 121.824 85.8112 120.426 86.2988 118.883C86.7811 117.342 87.0808 115.712 87.2335 114.074C87.376 112.429 87.3158 110.748 87.058 109.093L86.7432 109.009C85.3929 111.783 84.401 114.383 83.2849 116.813C82.7241 118.013 82.2493 119.26 81.6895 120.442C81.1615 121.615 80.4321 122.759 79.8843 123.723L81.0317 123.69C79.8569 123.275 78.6079 122.377 77.7329 121.024C76.7998 119.718 76.4391 117.852 76.0378 116.154C75.6497 114.438 74.9717 112.944 74.2662 111.412C73.5552 109.886 72.7916 108.371 71.7543 106.907L71.4508 107.028Z" fill="#5F97BA"/>
<path d="M73.5835 92.2015C73.1206 94.3599 73.1627 96.4995 73.3952 98.5913C73.6152 100.688 74.1116 102.754 75.1365 104.53C76.1456 106.312 76.993 108.062 77.6919 109.985C78.4285 111.854 79.0607 114.073 80.4749 115.693L81.3528 116.7L82.3414 115.411C83.8901 113.388 85.4141 111.37 86.5138 108.885C87.6223 106.428 88.5861 103.789 89.0062 100.767L88.7341 100.533C86.856 102.257 85.3511 104.21 83.9089 106.257C82.4527 108.272 81.3486 110.681 80.1821 112.992L82.0486 112.71C80.9357 111.869 79.5679 110.826 78.6236 109.225C77.6224 107.679 77.1904 105.645 77.0541 103.606C76.9342 101.552 76.5157 99.6828 75.9602 97.8066C75.426 95.9242 74.8114 94.0492 73.8988 92.1569L73.5835 92.2015Z" fill="#5F97BA"/>
<path d="M76.8075 80.1508C76.4239 82.3469 76.4985 84.4694 76.7549 86.5407C76.9796 88.6215 77.5407 90.6261 78.5132 92.4244C79.4926 94.2237 80.1465 96.0916 80.6307 98.134C81.1655 100.142 81.4526 102.479 83.2165 104.341L83.9398 105.104L84.8755 104.285C85.8679 103.415 86.6168 102.575 87.382 101.597C88.116 100.619 88.7369 99.5137 89.2692 98.3434C90.3072 95.9809 91.0971 93.4172 91.2919 90.5733L91.0077 90.365C89.3562 92.1166 88.0407 93.9594 86.7226 95.7537C86.0646 96.6476 85.4375 97.5503 84.8417 98.4824C84.2709 99.4041 83.6295 100.408 83.0807 101.151L84.7381 101.093C83.9248 100.51 82.6097 99.0902 81.7242 97.4482C80.8395 95.7627 80.361 93.7739 80.3096 91.6729C80.2816 89.5589 79.9472 87.608 79.3559 85.7096C78.8002 83.7976 78.1436 81.9156 77.1227 80.0808L76.8075 80.1508Z" fill="#5F97BA"/>
<path d="M81.9186 70.5979C81.3879 71.6478 81.2232 72.6757 81.1303 73.6972C81.0657 74.7132 81.0658 75.7265 81.3903 76.6777C81.7272 77.6283 82.372 78.5007 82.6201 79.4462C82.8714 80.3967 82.8774 81.3993 82.7684 82.4601C82.6418 83.5231 82.6168 84.5814 82.7615 85.5981C82.8761 86.6223 82.9983 87.6682 83.3427 88.6405C84.0346 90.4957 85.1746 92.5173 87.0323 93.1667L87.2593 92.8772C87.057 90.593 86.9184 88.9254 86.5348 87.1118C86.3296 86.2435 85.9883 85.4052 85.6658 84.5418C85.3737 83.6663 84.9578 82.8202 84.4777 81.9678C84.0083 81.1122 83.6854 80.1934 83.6382 79.2106C83.5823 78.2289 83.955 77.1647 84.0323 76.1733C84.1095 75.182 83.8726 74.2541 83.5958 73.3232C83.2944 72.3936 82.9263 71.4733 82.2414 70.5679L81.9186 70.5979Z" fill="#5F97BA"/>
<path d="M88.6223 62.6032C87.8589 63.3782 87.4587 64.3076 87.1426 65.2553C86.852 66.2133 86.6272 67.2055 86.7517 68.2563C86.8727 69.3066 87.3343 70.3869 87.3884 71.3915C87.456 72.4025 87.2787 73.3849 86.9938 74.3964C86.6983 75.4111 86.4946 76.4612 86.4938 77.518C86.446 78.5753 86.4468 79.6644 86.6578 80.7222C87.1394 82.7933 88.0788 84.9103 89.7447 86.0363L90.0184 85.828C90.1728 83.4645 90.1524 81.7515 89.999 79.9333C89.6932 78.168 89.4231 76.3547 88.7426 74.4264C88.4259 73.4597 88.2793 72.4632 88.4175 71.4984C88.5541 70.531 89.1156 69.6371 89.4019 68.7266C89.6728 67.8118 89.6492 66.8503 89.5891 65.8609C89.5032 64.8658 89.3661 63.8546 88.9341 62.7118L88.6223 62.6032Z" fill="#5F97BA"/>
<path d="M94.5138 56.1741C93.7755 56.8065 93.3812 57.5792 93.0672 58.3741C92.7769 59.1768 92.5458 60.008 92.6484 60.9141C92.7508 61.8248 93.176 62.7882 93.1941 63.6554C93.2207 64.5261 92.9987 65.3472 92.6501 66.1718C92.2912 66.9949 92.0172 67.8478 91.9147 68.7331C91.7747 69.6087 91.6523 70.5119 91.7271 71.4189C91.9333 73.2129 92.4573 75.1208 93.7764 76.5299L94.0832 76.434C94.7732 74.507 95.0331 72.9956 95.1272 71.3817C95.1571 70.585 95.0213 69.7797 94.9247 68.9522C94.8502 68.1345 94.6541 67.289 94.3887 66.4135C94.1351 65.5419 94.0377 64.6685 94.2144 63.8505C94.3861 63.0294 94.9749 62.3106 95.2753 61.5436C95.5657 60.7706 95.5513 59.929 95.4949 59.0657C95.413 58.1922 95.2731 57.3017 94.8231 56.2846L94.5138 56.1741Z" fill="#5F97BA"/>
<path d="M78.9267 149.723C78.0344 151.332 77.4883 152.998 76.9848 154.673C76.4965 156.352 76.0435 158.017 75.9661 159.86C75.8653 161.692 75.8537 163.623 75.2733 165.256C74.7663 166.9 73.8537 168.408 72.9727 169.593L73.4365 169.047C72.6198 169.093 71.5124 169.169 70.5471 168.913C69.5491 168.69 68.5791 168.27 67.5688 167.895C66.5525 167.535 65.528 167.011 64.4589 166.485C63.391 165.936 62.2912 165.342 61.0772 164.79L60.8725 165.101C61.1752 165.855 61.5437 166.541 61.9109 167.249C62.3176 167.897 62.7528 168.526 63.2137 169.127C64.1836 170.237 65.2434 171.307 66.4773 171.999C67.6936 172.726 69.0488 173.089 70.4121 173.087C71.7957 173.028 73.0983 172.877 74.4596 171.784L74.8666 171.458L74.9218 171.236C75.4181 169.285 75.6246 167.473 76.1629 165.76C76.6179 164.029 77.5166 162.523 78.2501 160.891C78.997 159.266 79.2796 157.416 79.4457 155.555C79.6033 153.691 79.6104 151.781 79.2354 149.806L78.9267 149.723Z" fill="#5F97BA"/>
<path d="M75.1463 144.207C74.2486 145.692 73.6793 147.259 73.1762 148.847C72.6884 150.439 72.2437 152.03 72.1666 153.775C72.0811 155.518 72.116 157.36 71.6043 158.915C71.358 159.692 71.0475 160.443 70.6331 161.045C70.2744 161.671 69.664 162.167 69.4708 162.104L70.2008 162.037C69.2069 161.258 68.1375 160.66 67.1165 159.996C66.0864 159.342 65.0839 158.658 64.045 158.133L60.9594 156.523C59.9385 155.952 58.9173 155.45 57.9467 154.467L57.6672 154.657C57.853 156.422 58.7226 157.954 59.627 159.137C60.5587 160.324 61.5934 161.334 62.6769 162.116C63.7609 162.918 64.9225 163.439 66.0888 163.875C67.2646 164.295 68.4137 164.699 69.6661 164.793L70.2864 164.838L70.3979 164.723C71.3318 163.772 71.4833 162.807 71.7583 161.946C71.9964 161.068 72.2398 160.251 72.4799 159.429C72.978 157.809 73.8318 156.369 74.5143 154.812C75.2103 153.262 75.448 151.513 75.6117 149.761C75.7588 147.998 75.7939 146.201 75.4481 144.303L75.1463 144.207Z" fill="#5F97BA"/>
<path d="M54.8461 141.82C54.8305 143.515 55.6366 144.923 56.3681 146.026C57.1655 147.091 58.028 148.042 59.0084 148.666C59.9967 149.274 61.1338 149.436 62.1703 149.795C63.2099 150.159 64.1259 150.795 65.0313 151.592L65.1662 151.711L65.5192 151.601C66.9167 151.17 68.1724 150.148 69.0255 148.853C69.8757 147.548 70.6551 146.181 71.1777 144.682C72.1731 141.649 72.6213 138.367 72.2239 134.893L71.9179 134.777C70.2536 137.359 69.105 140.009 68.0915 142.65C67.6142 143.984 67.2248 145.353 66.7129 146.594C66.2007 147.81 65.8277 149.225 65.0141 150.022L65.5036 150.034C64.5004 149.727 63.5327 149.186 62.7076 148.309C61.8831 147.423 61.1834 146.276 60.3687 145.494C59.5561 144.705 58.6594 144.158 57.792 143.548C56.8999 142.949 56.0643 142.483 55.1376 141.668L54.8461 141.82Z" fill="#5F97BA"/>
<path d="M69.6927 125.874C68.7746 126.956 68.147 128.126 67.567 129.311C67.007 130.508 66.4564 131.661 66.1982 133.026C65.9534 134.398 65.8024 135.918 65.1908 137.048C64.6032 138.153 63.6228 138.985 62.7249 138.978L63.4366 138.978C62.6828 138.11 61.8444 137.335 61.0675 136.573L58.8244 134.234C57.3013 132.748 55.9697 131.455 54.64 129.029L54.3247 129.076C53.993 130.552 54.1517 132.252 54.6226 133.739C55.091 135.241 55.8469 136.511 56.6821 137.596C57.5236 138.69 58.5445 139.412 59.5581 140.048C60.5799 140.693 61.6009 141.193 62.7779 141.373L63.3929 141.467L63.4896 141.373C64.6213 140.272 65.1956 138.969 65.9569 137.882C66.688 136.776 67.7035 135.871 68.4669 134.713C69.2287 133.552 69.6017 132.111 69.8699 130.658C70.1165 129.19 70.252 127.671 69.9943 126.013L69.6927 125.874Z" fill="#5F97BA"/>
<path d="M69.5021 117.86C68.4974 118.795 67.7676 119.9 67.0698 121.021C66.4071 122.167 65.7687 123.312 65.33 124.607C64.8998 125.906 64.725 127.443 64.2288 128.712C63.9991 129.359 63.67 129.923 63.2827 130.347C62.9888 130.838 62.2405 130.956 62.5362 130.779L62.6663 130.904C61.9876 129.567 61.4315 128.053 60.7277 126.796L58.8002 122.897C58.157 121.641 57.4333 120.461 56.8111 119.203C56.1856 117.94 55.5493 116.685 55.0103 115.079L54.6909 115.056C54.1308 116.699 54.1399 118.643 54.426 120.405C54.709 122.191 55.2521 123.848 55.968 125.327C56.6817 126.812 57.6151 128.055 58.5424 129.249C59.4575 130.477 60.5923 131.365 61.7206 132.277L61.8507 132.402C62.512 132.794 63.0067 132.371 63.2615 132.149C63.557 131.882 63.7589 131.582 63.9747 131.314C64.3755 130.739 64.7457 130.185 65.1737 129.682C65.9934 128.644 67.0032 127.742 67.7021 126.568C68.3944 125.39 68.8273 124.011 69.2059 122.612C69.5479 121.184 69.826 119.721 69.786 118.054L69.5021 117.86Z" fill="#5F97BA"/>
<path d="M68.7588 110.521C66.8529 111.423 65.4869 112.945 64.2732 114.641C63.6795 115.502 63.3079 116.628 62.9214 117.74C62.7274 118.293 62.5087 118.821 62.2516 119.289C62.1347 119.517 61.9718 119.757 61.8607 119.88C61.8607 119.88 61.7985 119.936 61.8764 119.879C61.9196 119.853 61.9724 119.842 62.0208 119.848C61.9915 119.842 62.3125 119.826 62.4442 120.151C62.5592 120.495 62.4875 120.566 62.5083 120.504L62.5257 120.284L62.5622 119.841L62.5793 119.625L62.4617 119.391C61.7711 118.03 61.5023 116.276 61.083 114.727L59.6912 110.24C59.2271 108.778 58.5857 107.44 58.027 106.053C57.4529 104.662 56.8203 103.323 56.2054 101.694L55.8843 101.681C55.2887 103.366 55.2381 105.298 55.4188 107.072C55.6107 108.864 55.9925 110.587 56.6314 112.13C57.2901 113.659 58.0211 115.108 58.8807 116.432C59.7724 117.742 60.8744 118.802 61.6645 120.156L61.5656 119.709L61.5567 120.155L61.5514 120.38C61.5658 120.338 61.5018 120.426 61.6265 120.785C61.7699 121.119 62.0923 121.14 62.0777 121.121C62.1512 121.113 62.2292 121.087 62.2992 121.048C62.4275 120.962 62.3956 120.971 62.452 120.926C62.6895 120.69 62.8403 120.51 63.0399 120.328C63.4095 119.967 63.7998 119.639 64.2131 119.336C65.0363 118.731 65.8546 118.118 66.4461 117.233C67.6011 115.435 68.5826 113.439 69.0078 110.802L68.7588 110.521Z" fill="#5F97BA"/>
<path d="M69.9505 102.111C69.0032 102.222 68.2131 102.599 67.4756 103.063C66.7474 103.547 66.0557 104.093 65.4535 104.78C64.8529 105.469 64.4614 106.491 64.0322 107.444C63.6061 108.403 63.0475 109.148 62.3654 109.709L63.2258 110.105C63.0965 108.701 63.3183 107.194 63.2567 105.758C63.1596 104.335 63.0136 102.919 62.7795 101.523C62.5174 100.133 62.0501 98.8109 61.4803 97.5211C60.8984 96.2618 60.1826 94.9409 59.0786 94.0489L58.8207 94.2869C58.8467 95.8013 58.8019 97.1845 58.9235 98.572C59.0352 99.9489 59.1626 101.326 59.4847 102.637C59.8295 103.945 60.2249 105.247 60.6572 106.544C61.1231 107.829 61.8494 109.053 62.2035 110.38L62.5158 111.552L63.0639 110.776C63.6062 110.01 64.2721 109.428 65.0669 109.058C65.8604 108.682 66.6934 108.377 67.3153 107.741C67.9357 107.103 68.4668 106.319 68.963 105.476C69.4463 104.613 69.8807 103.663 70.1578 102.446L69.9505 102.111Z" fill="#5F97BA"/>
<path d="M71.25 92.6238C69.636 91.7417 68.0194 92.2678 66.6758 93.1778C65.9941 93.6395 65.4448 94.3834 65.0641 95.2924C64.6718 96.1885 64.3799 97.1279 63.9673 97.8879L64.8465 98.2021C64.469 96.7425 64.5217 95.1847 64.5627 93.5841C64.5826 91.9897 64.298 90.4875 64.0302 88.9623C63.7466 87.4418 63.1893 86.0223 62.4755 84.6942C61.7591 83.3819 60.853 82.1334 59.6557 81.3352L59.3971 81.5737C59.5126 83.2714 59.6533 84.7312 59.8894 86.1671C60.1331 87.5902 60.3827 89.0026 60.8634 90.3268C61.3598 91.6508 61.754 93.0277 62.4117 94.3321C63.082 95.6268 63.7262 96.9845 63.8644 98.46L63.9794 99.6912L64.7436 98.7742C65.2376 98.1814 65.8871 97.798 66.5376 97.5251C67.1741 97.2205 67.754 96.9311 68.2245 96.4156C69.2177 95.4514 70.1702 94.4977 71.2909 93.0498L71.25 92.6238Z" fill="#5F97BA"/>
<path d="M51.3751 213.687C52.271 214.999 53.2586 215.9 54.27 216.714C55.2901 217.498 56.3081 218.254 57.4767 218.537C58.6434 218.823 59.8939 218.905 60.9612 219.551C62.0335 220.171 62.9606 221.198 63.8102 222.314L64.6261 223.383L65.2948 221.346C65.7286 220.029 65.9855 218.66 66.2448 217.309C66.5078 215.955 66.7871 214.616 66.8978 213.235C67.0184 211.859 67.0877 210.476 67.113 209.073C67.1491 207.663 67.0993 206.275 67.1409 204.765L66.866 204.546C65.8983 205.513 65.2453 206.856 64.7408 208.171C64.2421 209.505 63.8617 210.887 63.5891 212.29C63.3097 213.692 63.2368 215.143 63.1849 216.588C63.1313 218.035 63.1021 219.475 63.2876 220.972L64.7723 220.005C63.5682 219.582 62.4071 219.162 61.3668 218.401C60.3156 217.682 59.4311 216.446 58.4458 215.471C57.4606 214.495 56.3139 214.035 55.1545 213.648C53.9865 213.291 52.7843 213.053 51.4747 213.292L51.3751 213.687Z" fill="#5F97BA"/>
<path d="M48.0044 201.144C48.8489 202.696 49.8629 203.779 50.9338 204.71C52.0008 205.65 53.1356 206.396 54.4648 206.568C55.7818 206.772 57.0399 207.134 58.1224 208.043C59.235 208.877 60.176 210.187 61.3743 211.037L62.5276 211.855L63.1284 209.845C63.7924 207.627 64.5023 205.428 64.7236 203.043C64.9583 200.665 65.0576 198.232 64.6527 195.614L64.3457 195.497C63.0454 197.475 62.2474 199.64 61.585 201.86C60.9124 204.074 60.725 206.472 60.4918 208.853L62.2456 207.665C61.0862 207.335 59.7224 207.29 58.5325 206.759C57.3145 206.297 56.2826 205.255 55.3176 204.036C54.363 202.784 53.2218 202.093 52.015 201.585C50.8125 201.063 49.557 200.686 48.1361 200.763L48.0044 201.144Z" fill="#5F97BA"/>
<path d="M43.6675 189.293C44.5932 190.982 45.7329 192.061 46.9246 192.979C47.5258 193.419 48.1388 193.834 48.8139 194.035C49.4908 194.233 50.2105 194.283 50.9159 194.373C52.3326 194.54 53.5551 195.309 54.7233 196.402C55.8793 197.56 57.108 198.467 58.5138 199.085L59.7826 199.641L60.3918 197.607C60.6001 196.908 60.9079 196.069 61.115 195.264C61.3351 194.445 61.5286 193.604 61.7112 192.741C62.0818 191.014 62.4467 189.263 62.6837 187.193L62.4258 186.936C61.0009 187.862 59.8995 189.301 59.0325 190.92C58.5878 191.727 58.2196 192.594 57.9247 193.513C57.6204 194.446 57.462 195.372 57.3039 196.481L59.182 195.003L57.2765 194.617C56.6176 194.501 55.9234 194.492 55.2355 194.399C53.8556 194.256 52.5571 193.703 51.461 192.496C50.9095 191.907 50.3809 191.25 49.8089 190.751C49.2373 190.244 48.6022 189.948 47.9612 189.662C46.6668 189.131 45.3282 188.742 43.7906 188.914L43.6675 189.293Z" fill="#5F97BA"/>
<path d="M37.8733 172.047C39.0921 174.088 40.5231 175.47 41.9942 176.757C43.412 178.158 45.2802 178.465 46.9591 179.299C48.6267 180.15 49.9191 181.865 51.1141 183.641C52.3269 185.38 53.6568 186.827 54.8509 188.398L57.049 191.291L57.6569 187.082C57.9015 185.393 57.999 183.557 58.1311 181.79C58.2868 180.006 58.272 178.217 58.6307 176.385L58.3907 176.093C57.6682 176.556 57.1054 177.349 56.6466 178.152C56.187 178.968 55.8098 179.84 55.5009 180.734C54.8895 182.537 54.4326 184.349 54.2605 186.336L57.0647 185.022C55.5705 183.521 54.0457 182.165 52.3446 181.227C50.6237 180.332 48.9107 179.549 47.5503 177.96C46.1955 176.365 44.9821 174.353 43.2977 173.49C41.6628 172.522 39.9616 171.713 38.0075 171.667L37.8733 172.047Z" fill="#5F97BA"/>
<path d="M31.2448 146.866C31.199 150.207 32.2219 153.254 33.518 155.943C34.7909 158.735 37.1791 160.257 38.8991 162.328C40.694 164.307 42.0449 167.112 43.9782 169.085C45.8759 171.071 47.9588 172.805 50.2274 173.896L50.5374 174.044L50.6541 174.053C51.3871 174.108 51.5392 173.949 51.8862 173.806C52.1864 173.656 52.4283 173.453 52.6379 173.234C53.0725 172.802 53.3423 172.315 53.5922 171.841C54.0627 170.883 54.2546 169.905 54.4232 168.971C54.698 167.089 54.6104 165.25 54.3332 163.457L54.0152 163.392C53.6697 164.173 53.4287 164.964 53.1034 165.697C52.8176 166.443 52.5215 167.152 52.2149 167.801C51.9125 168.436 51.5728 169.017 51.2583 169.394C51.1022 169.562 50.945 169.719 50.8388 169.741C50.7871 169.76 50.7434 169.761 50.7407 169.747C50.7895 169.749 50.6201 169.682 51.0279 169.705L51.4546 169.862C49.504 168.424 47.4149 167.441 45.4424 166.019C43.4209 164.758 41.1864 163.587 39.567 161.405C37.8967 159.258 37.2706 156.053 35.8669 153.827C34.5101 151.48 33.1992 149.155 31.552 146.746L31.2448 146.866Z" fill="#5F97BA"/>
<path d="M51.0734 147.364C49.6124 149.687 48.7927 152.187 48.0893 154.716C47.7508 155.979 47.6909 157.382 47.5271 158.751C47.3792 160.081 46.9651 161.487 46.2672 162.087L46.8112 162.076C45.6556 160.994 44.7773 159.324 43.8506 157.899C42.8875 156.506 41.9406 155.134 41.0263 153.739C40.0895 152.372 39.0567 151.142 38.0311 149.844C36.9762 148.574 35.9389 147.267 34.685 145.986L34.4069 146.183C34.6296 148.223 35.1277 150.21 35.883 151.974C36.6253 153.752 37.5022 155.449 38.6128 156.841C39.7333 158.214 40.9275 159.475 42.2176 160.541C43.5407 161.574 44.9993 162.228 46.3077 163.213L46.641 163.465L46.8535 163.2C47.7832 162.044 48.2942 160.865 49.0574 159.739C49.7745 158.601 50.4408 157.408 50.8064 156.064C51.4707 153.36 51.8225 150.531 51.3832 147.475L51.0734 147.364Z" fill="#5F97BA"/>
<path d="M47.6922 126.947C46.6436 127.213 45.7707 127.725 44.954 128.315C44.1502 128.926 43.3868 129.59 42.7162 130.395C42.0473 131.202 41.5912 132.334 41.0896 133.409C40.5931 134.487 39.9569 135.361 39.2063 136.045L40.0691 136.634C40.2153 134.986 40.6485 133.354 40.7536 131.667C40.8197 129.992 40.7777 128.296 40.5984 126.607C40.3893 124.92 39.886 123.286 39.2561 121.744C38.6048 120.213 37.7131 118.794 36.5855 117.755L36.3137 117.966C36.4205 119.744 36.5505 121.292 36.709 122.825C36.8569 124.361 36.9827 125.857 37.2408 127.344L38.0831 131.867C38.3933 133.386 38.9338 134.975 39.0212 136.54L39.1169 138.236L39.8856 137.131C40.5092 136.233 41.2505 135.529 42.1283 135.024C43.0027 134.52 43.9241 134.074 44.6295 133.299C45.3348 132.524 45.9473 131.608 46.5193 130.638C47.0786 129.649 47.5815 128.581 47.907 127.269L47.6922 126.947Z" fill="#5F97BA"/>
<path d="M50.8797 118.679C49.7732 118.594 48.7646 118.845 47.804 119.231C46.8432 119.622 45.9172 120.136 45.0679 120.835C44.2093 121.515 43.5209 122.57 42.9203 123.704C42.3125 124.841 41.7119 125.881 41.053 126.938L41.9571 127.324C41.9186 125.469 42.2813 123.611 42.3802 121.719C42.4436 119.841 42.3263 117.966 42.1586 116.092C41.9682 114.221 41.4654 112.408 40.8744 110.655C40.2692 108.905 39.4426 107.237 38.3723 105.799L38.0775 105.95C38.0221 107.934 38.1013 109.744 38.2285 111.536C38.3611 113.321 38.5059 115.076 38.8133 116.809C39.156 118.533 39.4594 120.275 39.8528 122.024C40.2763 123.761 40.8884 125.543 40.9688 127.33L41.0649 129.498L41.873 127.716C42.3336 126.698 43.1795 126.029 44.0641 125.573C44.9592 125.114 45.8668 124.744 46.6428 124.083C48.1828 122.728 49.7069 121.283 51.0215 119.07L50.8797 118.679Z" fill="#5F97BA"/>
<path d="M52.4184 105.381C50.3034 106.073 48.6056 107.559 47.0638 109.31C45.4765 111.033 44.6378 113.788 44.0072 116.587L45.0179 116.806C44.7539 114.555 44.8453 112.326 44.9005 109.996C44.9519 107.67 44.5678 105.388 44.0953 103.102C43.6209 100.817 42.7297 98.6164 41.4529 96.7516C40.2067 94.9001 38.473 93.3732 36.6238 93.1555L36.4949 93.5377C37.71 95.2908 38.442 97.0337 39.1182 98.8426C39.8003 100.641 40.3014 102.566 40.9477 104.477C41.6076 106.394 42.0835 108.428 42.7629 110.465C43.4531 112.494 44.017 114.671 43.9761 116.835L43.9174 119.957L44.9868 117.054C45.3672 116.022 46.1657 115.23 46.943 114.508C47.7292 113.781 48.4393 112.983 49.0757 112.041C50.3529 110.167 51.6363 108.244 52.6104 105.717L52.4184 105.381Z" fill="#5F97BA"/>
<path d="M51.9524 92.8297C51.2538 92.4259 50.7202 92.4465 50.2285 92.5472C49.7504 92.6791 49.2955 92.8864 49.0384 93.4524C48.7828 94.0208 48.7314 94.924 48.436 95.3764C48.1514 95.8506 47.7023 96.0474 47.1627 96.1462C46.6073 96.2202 46.1093 96.433 45.708 96.7876C45.292 97.1288 44.8599 97.4837 44.5824 98.0469C44.079 99.1668 43.758 100.738 44.4034 102.388L44.7018 102.535C45.9493 101.987 46.6142 101.603 47.2112 100.927C47.4835 100.584 47.6541 100.097 47.8487 99.6082C48.0754 99.1601 48.1994 98.5558 48.3185 97.8854C48.4342 97.2145 48.6734 96.6935 49.074 96.445C49.4796 96.1994 50.1276 96.4021 50.5915 96.3111C51.0508 96.2083 51.3265 95.7736 51.5865 95.2803C51.8325 94.7602 52.0467 94.1659 52.1122 93.1924L51.9524 92.8297Z" fill="#5F97BA"/>
</g>
</svg>
