<svg width="993" height="915" viewBox="0 0 993 915" fill="none" xmlns="http://www.w3.org/2000/svg">
<g filter="url(#filter0_d_605_2024)">
<g filter="url(#filter1_d_605_2024)">
<path fill-rule="evenodd" clip-rule="evenodd" d="M589.571 58.1075C591.494 164.188 590.163 194.327 581.259 246.168C566.055 334.704 538.927 401.16 492.226 464.278C481.047 479.386 452.13 513.903 447.265 517.946C439.576 524.334 386.69 532.38 340.029 534.261C293.831 536.123 232.986 526.449 186.712 509.887C145.042 494.972 110.382 474.392 80.0538 446.559C64.4858 432.271 41.7712 406.214 32.6009 392.125C30.4605 388.836 26.3569 383.54 23.4811 380.356C20.6053 377.172 17.7451 372.877 17.1244 370.809C15.7623 366.275 6.33325 356.545 6.33325 359.674C6.33325 366.232 16.8169 385.513 33.4628 409.564C63.0752 452.349 116.149 499.179 163.875 524.626C190.555 538.852 231.579 552.757 260.253 557.293C297.02 563.107 342.368 564.961 373.436 561.919C396.473 559.664 403.266 560.129 403.266 563.958C403.266 566.934 339.735 630.057 301.984 664.592C222.537 737.265 200.908 758.531 200.908 763.965C200.908 765.978 203.924 768.75 208.205 770.67C214.233 773.375 223.619 773.919 262.199 773.806C344.82 773.564 377.133 777.746 412.804 793.299C461.179 814.39 487.003 848.07 487.684 890.964C487.807 898.622 488.562 904.889 489.365 904.889C490.169 904.891 490.825 902.764 490.825 900.164C490.825 897.564 491.8 894.407 492.992 893.147C496.041 889.927 498.061 860.482 495.993 849.398C492.949 833.089 472.992 805.182 450.937 786.397C418.569 758.827 359.897 736.291 307.451 731.282C299.165 730.491 291.963 729.124 291.45 728.246C290.936 727.369 300.778 717.503 313.318 706.327C346.291 676.936 387.245 635.318 441.819 575.751L461.856 553.879L480.718 550.453C512.298 544.716 558.667 532.8 582.094 524.4C609.642 514.52 612.222 514.421 615.294 523.119C622.805 544.385 628.36 557.021 634.775 567.423C654.357 599.176 696.276 626.871 738.538 635.974C761.712 640.968 795.295 640.432 814.792 634.759C850.062 624.497 878.807 598.508 896.332 561.033C906.96 538.304 910.03 524.385 908.542 505.651C906.429 479.008 893.186 458.316 867.531 441.563C823.999 413.14 774.447 415.968 669.991 452.838C650.467 459.73 633.362 464.909 631.981 464.35C627.296 462.451 619.03 417.688 613.325 363.32C609.766 329.395 607.698 293.791 603.713 197.868C600.72 125.789 595.889 57.5752 590.031 4.66972C588.97 -4.91209 588.797 15.3059 589.571 58.1075ZM583.466 386.076C584.654 390.515 587.567 404.785 589.935 417.785C592.303 430.785 596.014 449.145 598.181 458.585C600.534 468.837 601.409 476.497 600.357 477.609C595.459 482.782 514.79 508.218 503.279 508.218C499.505 508.218 502.373 502.33 512.284 489.721C526.658 471.439 556.235 422.473 566.619 399.766C572.445 387.03 578.132 376.922 579.257 377.306C580.382 377.688 582.275 381.634 583.466 386.076ZM788.933 479.273C831.51 483.994 854.894 517.607 835.24 545.834C829.202 554.508 813.471 567.892 802.185 573.955C791.423 579.739 769.372 585.95 754.474 587.397C720.174 590.726 682.79 574.656 663.378 548.237C654.419 536.049 641.768 509.343 643.15 505.54C643.689 504.056 653.635 499.917 665.251 496.343C717.841 480.163 753.088 475.299 788.933 479.273Z" fill="#B71010"/>
<path fill-rule="evenodd" clip-rule="evenodd" d="M589.571 58.1075C591.494 164.188 590.163 194.327 581.259 246.168C566.055 334.704 538.927 401.16 492.226 464.278C481.047 479.386 452.13 513.903 447.265 517.946C439.576 524.334 386.69 532.38 340.029 534.261C293.831 536.123 232.986 526.449 186.712 509.887C145.042 494.972 110.382 474.392 80.0538 446.559C64.4858 432.271 41.7712 406.214 32.6009 392.125C30.4605 388.836 26.3569 383.54 23.4811 380.356C20.6053 377.172 17.7451 372.877 17.1244 370.809C15.7623 366.275 6.33325 356.545 6.33325 359.674C6.33325 366.232 16.8169 385.513 33.4628 409.564C63.0752 452.349 116.149 499.179 163.875 524.626C190.555 538.852 231.579 552.757 260.253 557.293C297.02 563.107 342.368 564.961 373.436 561.919C396.473 559.664 403.266 560.129 403.266 563.958C403.266 566.934 339.735 630.057 301.984 664.592C222.537 737.265 200.908 758.531 200.908 763.965C200.908 765.978 203.924 768.75 208.205 770.67C214.233 773.375 223.619 773.919 262.199 773.806C344.82 773.564 377.133 777.746 412.804 793.299C461.179 814.39 487.003 848.07 487.684 890.964C487.807 898.622 488.562 904.889 489.365 904.889C490.169 904.891 490.825 902.764 490.825 900.164C490.825 897.564 491.8 894.407 492.992 893.147C496.041 889.927 498.061 860.482 495.993 849.398C492.949 833.089 472.992 805.182 450.937 786.397C418.569 758.827 359.897 736.291 307.451 731.282C299.165 730.491 291.963 729.124 291.45 728.246C290.936 727.369 300.778 717.503 313.318 706.327C346.291 676.936 387.245 635.318 441.819 575.751L461.856 553.879L480.718 550.453C512.298 544.716 558.667 532.8 582.094 524.4C609.642 514.52 612.222 514.421 615.294 523.119C622.805 544.385 628.36 557.021 634.775 567.423C654.357 599.176 696.276 626.871 738.538 635.974C761.712 640.968 795.295 640.432 814.792 634.759C850.062 624.497 878.807 598.508 896.332 561.033C906.96 538.304 910.03 524.385 908.542 505.651C906.429 479.008 893.186 458.316 867.531 441.563C823.999 413.14 774.447 415.968 669.991 452.838C650.467 459.73 633.362 464.909 631.981 464.35C627.296 462.451 619.03 417.688 613.325 363.32C609.766 329.395 607.698 293.791 603.713 197.868C600.72 125.789 595.889 57.5752 590.031 4.66972C588.97 -4.91209 588.797 15.3059 589.571 58.1075ZM583.466 386.076C584.654 390.515 587.567 404.785 589.935 417.785C592.303 430.785 596.014 449.145 598.181 458.585C600.534 468.837 601.409 476.497 600.357 477.609C595.459 482.782 514.79 508.218 503.279 508.218C499.505 508.218 502.373 502.33 512.284 489.721C526.658 471.439 556.235 422.473 566.619 399.766C572.445 387.03 578.132 376.922 579.257 377.306C580.382 377.688 582.275 381.634 583.466 386.076ZM788.933 479.273C831.51 483.994 854.894 517.607 835.24 545.834C829.202 554.508 813.471 567.892 802.185 573.955C791.423 579.739 769.372 585.95 754.474 587.397C720.174 590.726 682.79 574.656 663.378 548.237C654.419 536.049 641.768 509.343 643.15 505.54C643.689 504.056 653.635 499.917 665.251 496.343C717.841 480.163 753.088 475.299 788.933 479.273Z" stroke="#830707" stroke-width="3"/>
</g>
<path d="M419.659 588.988L383.66 595.654L394.326 584.988L430.326 578.321L419.659 588.988Z" fill="#5D0A79"/>
<path d="M410.326 568.988L400.993 578.321L435.659 571.655L444.992 560.988L410.326 568.988Z" fill="#5D0A79"/>
<path d="M419.659 588.988L383.66 595.654L394.326 584.988L430.326 578.321L419.659 588.988Z" stroke="#39023C"/>
<path d="M410.326 568.988L400.993 578.321L435.659 571.655L444.992 560.988L410.326 568.988Z" stroke="#39023C"/>
<path d="M636.989 511.65L635.655 506.317L630.322 508.983L619.656 514.317L620.989 518.316L636.989 511.65Z" fill="#5D0A79"/>
<path d="M874.318 455.651L862.318 448.984L832.936 459.845L802.319 471.651L814.319 474.317L874.318 455.651Z" fill="#5D0A79"/>
<path d="M878.318 459.651L819.652 479.65L831.652 486.317L890.317 471.651L884.984 464.984L878.318 459.651Z" fill="#5D0A79"/>
<path d="M636.989 511.65L635.655 506.317L630.322 508.983L619.656 514.317L620.989 518.316L636.989 511.65Z" stroke="#39023C" stroke-width="0.6"/>
<path d="M874.318 455.651L862.318 448.984L832.936 459.845L802.319 471.651L814.319 474.317L874.318 455.651Z" stroke="#39023C" stroke-width="0.6"/>
<path d="M878.318 459.651L819.652 479.65L831.652 486.317L890.317 471.651L884.984 464.984L878.318 459.651Z" stroke="#39023C" stroke-width="0.6"/>
<path d="M623.656 526.319L622.323 522.319L639.656 515.652L640.989 520.986L623.656 526.319Z" fill="#5D0A79" stroke="#39023C" stroke-width="0.5"/>
<path d="M579.656 384.992C557.778 432.691 541.4 458.031 508.991 502.323C551.03 493.585 569.927 486.911 598.323 472.991L579.656 384.992Z" stroke="#FFB800" stroke-width="2"/>
<path d="M218.33 752.98L376.993 602.316L415.659 594.316L395.66 614.316L366.327 643.649C354.872 655.104 348.583 661.662 336.994 672.982C325.665 684.047 319.474 690.434 307.661 700.981C300.499 707.375 295.158 710.953 288.995 718.314C286.12 721.749 283.45 723.311 282.328 727.647C281.546 730.672 280.484 731.793 282.328 734.314C283.984 736.577 288.995 736.981 288.995 736.981C288.995 736.981 306.938 738.04 318.328 739.647C331.473 741.502 338.831 742.903 351.661 746.314C364.391 749.698 371.407 752.144 383.66 756.98C394.282 761.173 400.138 763.822 410.326 768.98C421.562 774.668 428.143 777.569 438.326 784.98C450.535 793.865 456.754 799.967 466.325 811.646C470.814 817.124 473.278 820.282 476.992 826.312C481.266 833.252 483.64 837.284 486.325 844.979C488.614 851.538 490.325 862.312 490.325 862.312C490.325 862.312 488.271 854.852 486.325 850.312C484.949 847.101 484.071 845.337 482.325 842.312C480.448 839.06 479.146 837.387 476.992 834.312C474.003 830.048 472.37 827.608 468.992 823.646C464.692 818.602 461.959 816.033 456.992 811.646C449.732 805.235 445.137 802.221 436.992 796.979C429.932 792.435 418.326 786.313 418.326 786.313C418.326 786.313 404.605 781.159 395.66 778.313C379.774 773.259 370.796 770.231 354.327 767.647C341.426 765.622 334.032 765.718 320.994 764.98C289.283 763.184 271.425 764.98 239.663 764.98H219.663C219.663 764.98 216.098 763.829 214.33 762.313C213.771 761.834 213.413 761.587 212.996 760.98C210.869 757.886 218.33 752.98 218.33 752.98Z" fill="#5D0A79" stroke="#370234"/>
<path d="M646.322 570.315C635.819 555.781 626.322 528.982 626.322 528.982L640.988 524.982L656.988 552.982C656.988 552.982 669.238 566.061 678.321 572.981C691.114 582.728 698.794 588.787 714.32 592.981C725.425 595.98 732.151 595.609 743.653 595.648C760.445 595.703 770.232 595.126 786.319 590.314C803.051 585.31 812.646 581.181 826.318 570.315C835.835 562.752 842.504 558.66 847.651 547.648C852.547 537.175 853.711 529.692 851.651 518.316C849.534 506.621 836.985 491.65 836.985 491.65L892.984 478.316C892.984 478.316 901.107 504.181 899.651 520.982C898.071 539.198 892.429 548.943 883.651 564.982C872.992 584.456 865.725 596.088 847.651 608.981C828.347 622.752 813.85 626.049 790.319 628.98C770.657 631.429 759.099 630.115 739.653 626.314C719.613 622.396 690.321 608.981 690.321 608.981C690.321 608.981 659.719 588.855 646.322 570.315Z" fill="#5D0A79" stroke="#370234"/>
<path d="M676.988 587.653C659.922 574.733 640.989 544.987 640.989 544.987H644.989C644.989 544.987 650.093 552.759 651.655 554.321L662.322 564.987C666.487 569.153 668.608 571.714 672.988 575.654C679.338 581.364 683.011 583.238 690.321 587.653C703.994 595.911 713.143 598.969 728.987 600.986C738.801 602.236 744.431 603.922 754.32 603.653C769.45 603.241 778.402 602.37 792.986 598.32C799.974 596.379 803.757 594.742 810.319 591.653C825.873 584.332 836.587 579.476 847.652 566.32C857.096 555.092 860.308 547.274 863.651 532.988C866.737 519.806 859.652 500.988 859.652 500.988L880.985 496.988C880.985 496.988 882.438 514.676 880.985 524.988C878.985 539.174 877.189 548.416 870.318 560.987C860.945 578.138 852.106 586.438 835.652 596.987C819.57 607.296 811.821 611.128 792.986 614.32C769.884 618.234 751.847 616.796 728.987 611.653C707.167 606.743 694.82 601.153 676.988 587.653Z" fill="#AB0EE2"/>
<path d="M398.326 603.652L378.327 607.652C378.327 607.652 365.454 620.785 356.994 628.985C343.765 641.808 335.632 648.24 322.328 660.985C306.907 675.757 297.042 684.174 282.328 699.651C275.474 706.86 269.363 711.283 262.329 718.317L246.329 734.317C246.329 734.317 236.173 743.167 232.996 748.983C231.652 751.444 231.085 751.572 231.663 754.316C232.049 756.153 232.699 757.385 234.329 758.316C236.138 759.35 239.663 759.65 239.663 759.65C239.663 759.65 248.604 758.477 254.329 758.316C262.154 758.096 266.501 758.279 274.329 758.316C281.637 758.351 285.691 758.056 292.995 758.316C300.28 758.576 304.373 758.154 311.661 758.316C321.566 758.537 327.134 758.689 336.994 759.65C344.836 760.414 349.232 760.961 356.994 762.316C364.338 763.599 368.443 764.447 375.66 766.316C384.11 768.504 388.662 769.338 396.993 772.983L418.326 782.316C426.657 785.961 432.613 788.828 440.992 794.316C451.812 801.401 466.325 815.649 466.325 815.649C466.325 815.649 457.074 804.585 450.325 798.316C446.808 795.048 444.859 793.161 440.992 790.316C436.101 786.717 432.866 785.44 427.659 782.316C422.452 779.192 419.651 777.234 414.326 774.316C409.221 771.519 406.338 769.957 400.993 767.649C395.398 765.234 392.059 764.384 386.327 762.316C379.045 759.689 375.056 757.934 367.66 755.65C361.988 753.898 358.765 753.043 352.994 751.65C345.251 749.781 340.86 748.901 332.994 747.65C323.681 746.169 308.995 744.983 308.995 744.983C308.995 744.983 296.052 745.299 287.662 744.983C284.019 744.846 281.404 744.273 278.329 742.317C275.767 740.687 274.987 738.614 274.329 735.65C273.257 730.828 276.208 728.112 278.329 723.65C281.995 715.937 287.389 712.76 292.995 706.317C301.94 696.036 316.995 682.318 316.995 682.318C316.995 682.318 339.766 660.396 354.327 646.318C371.535 629.682 398.326 603.652 398.326 603.652Z" fill="#AB0EE2"/>
<path d="M410.326 572.987L411.659 571.654L435.659 566.32L432.992 568.987L410.326 572.987Z" fill="#AB0EE2"/>
<path d="M391.66 591.648L395.66 587.648L420.992 583.648L418.326 586.315L391.66 591.648Z" fill="#AB0EE2"/>
<path d="M622.41 515.818L622.389 514.478L634.836 508.843L634.881 510.214L622.41 515.818Z" fill="#AB0EE2"/>
<path d="M818.319 470.32L814.319 470.32L859.651 452.987L863.651 455.654L818.319 470.32Z" fill="#AB0EE2"/>
<path d="M835.653 480.983L831.652 478.316L876.996 465.019L880.996 469.019L835.653 480.983Z" fill="#AB0EE2"/>
<path d="M636.997 518.342L638.331 519.676L624.989 523.655L625.055 523.091L636.997 518.342Z" fill="#AB0EE2"/>
<path d="M567.657 338.321C563.363 351.161 559.639 357.87 554.323 370.321C546.99 387.5 542.761 397.084 535.017 414.081L531.657 419.653H548.99L559.657 396.987L567.657 379.654L574.323 364.988L579.656 359.654L584.99 360.988L590.323 376.987L600.989 430.32H614.322C614.322 430.32 607.364 391.109 606.323 379.654L603.656 350.321C603.656 350.321 602.124 327.561 600.989 312.989C600.016 300.487 598.323 280.989 598.323 280.989L596.989 255.656V219.657L595.656 182.324C595.656 182.324 595.302 195.368 594.323 203.657C593.891 207.314 593.447 209.337 592.989 212.99C592.34 218.183 592.331 221.134 591.656 226.323C590.839 232.605 589.993 236.069 588.99 242.323C587.904 249.085 587.613 252.93 586.323 259.656C585.015 266.479 582.323 276.989 582.323 276.989C582.323 276.989 580.166 290.049 578.323 298.322C576.922 304.609 575.95 308.09 574.323 314.322C571.866 323.734 570.742 329.096 567.657 338.321Z" fill="url(#paint0_linear_605_2024)"/>
<path d="M514.324 447.656L527.658 427.656L540.991 428.99L530.324 447.656H514.324Z" fill="#CB4C05" fill-opacity="0.56"/>
<path d="M498.325 468.989L507.658 455.656H524.991L515.658 468.989H498.325Z" fill="#CB4C05" fill-opacity="0.56"/>
<path d="M614.323 434.323H602.323L604.989 447.656H618.323L614.323 434.323Z" fill="#CB4C05" fill-opacity="0.56"/>
<path d="M608.989 466.322L606.323 454.322H620.989L623.656 464.989L608.989 466.322Z" fill="#CB4C05" fill-opacity="0.56"/>
</g>
<circle cx="873.664" cy="512.334" r="3.73327" transform="rotate(0.221477 873.664 512.334)" fill="#FFB800" stroke="#FE5D2A" stroke-width="0.8"/>
<circle cx="873.664" cy="512.334" r="3.73327" transform="rotate(0.221477 873.664 512.334)" fill="#FFB800" stroke="#FE5D2A" stroke-width="0.8"/>
<circle cx="872.986" cy="527.656" r="2.95727" transform="rotate(0.221477 872.986 527.656)" fill="#FFB800" stroke="#FE5D2A" stroke-width="0.6"/>
<circle cx="352.201" cy="756.19" r="1.86663" transform="rotate(0.221477 352.201 756.19)" fill="#FFB800" fill-opacity="0.63"/>
<circle cx="870.319" cy="540.988" r="2.95727" transform="rotate(0.221477 870.319 540.988)" fill="#FFB800" fill-opacity="0.84" stroke="#FE5D2A" stroke-width="0.6"/>
<circle cx="864.986" cy="554.32" r="2.65727" transform="rotate(0.221477 864.986 554.32)" fill="#FFB800" fill-opacity="0.78"/>
<circle cx="856.986" cy="564.988" r="2.65727" transform="rotate(0.221477 856.986 564.988)" fill="#FFB800" fill-opacity="0.72"/>
<circle cx="848.986" cy="575.656" r="2.65727" transform="rotate(0.221477 848.986 575.656)" fill="#FFB800" fill-opacity="0.69"/>
<circle cx="838.195" cy="583.527" r="2.53329" transform="rotate(0.221477 838.195 583.527)" fill="#FFB800" fill-opacity="0.66"/>
<circle cx="827.397" cy="591.398" r="2.39996" transform="rotate(0.221477 827.397 591.398)" fill="#FFB800" fill-opacity="0.63"/>
<circle cx="816.461" cy="596.462" r="2.1333" transform="rotate(0.221477 816.461 596.462)" fill="#FFB800" fill-opacity="0.6"/>
<circle cx="805.66" cy="601.664" r="1.99996" transform="rotate(0.221477 805.66 601.664)" fill="#FFB800" fill-opacity="0.59"/>
<circle cx="794.993" cy="604.328" r="1.99996" transform="rotate(0.221477 794.993 604.328)" fill="#FFB800" fill-opacity="0.52"/>
<circle cx="786.322" cy="606.324" r="1.3308" transform="rotate(0.221477 786.322 606.324)" fill="#FFB800" fill-opacity="0.52"/>
<path d="M5 359.66C90.3162 509.648 185.828 570.414 392.993 562.323" stroke="#FFB800" stroke-width="3" stroke-linecap="square"/>
<circle cx="253.68" cy="748.333" r="5.06658" transform="rotate(0.221477 253.68 748.333)" fill="#FFB800" stroke="#FE5D2A" stroke-width="0.8"/>
<circle cx="296.975" cy="750.32" r="2.95727" transform="rotate(0.221477 296.975 750.32)" fill="#FFB800" stroke="#FE5D2A" stroke-width="0.6"/>
<circle cx="315.672" cy="751.662" r="2.66754" transform="rotate(0.221477 315.672 751.662)" fill="#FFB800" fill-opacity="0.86"/>
<circle cx="331.337" cy="753.19" r="2.33329" transform="rotate(0.221477 331.337 753.19)" fill="#FFB800" fill-opacity="0.82"/>
<circle cx="341.802" cy="753.794" r="2.1333" transform="rotate(0.221477 341.802 753.794)" fill="#FFB800" fill-opacity="0.81"/>
<circle cx="276.341" cy="749.666" r="3.63327" transform="rotate(0.221477 276.341 749.666)" fill="#FFB800" fill-opacity="0.84" stroke="#FE5D2A" stroke-width="0.6"/>
<path d="M682.321 647.654C663.069 634.048 638.322 606.322 638.322 606.322V631.655L676.988 671.654C676.988 671.654 700.739 688.934 716.988 696.987C736.019 706.418 766.32 711.653 766.32 711.653C790.272 710.091 787.701 713.215 811.653 711.653C835.604 710.091 859.652 702.32 859.652 702.32C859.652 702.32 875.904 695.756 886.318 688.987C896.732 682.218 903.652 675.85 912.984 667.654C922.702 659.12 926.339 652.501 934.317 642.321C934.317 642.321 942.003 632.833 946.317 626.321C956.22 611.372 965.686 602.909 966.316 584.989C966.997 565.651 946.317 539.656 946.317 539.656C946.317 539.656 941.015 564.786 934.317 579.656C927.788 594.149 922.113 606.642 912.984 619.655C903.411 633.302 898.468 636.241 886.318 647.654C876.83 656.567 871.17 661.59 859.652 667.654C843.892 675.95 833.302 677.263 815.652 679.654C797.593 682.1 787.109 681.578 768.987 679.654C748.262 677.454 736.212 675.7 716.988 667.654C702.57 661.62 695.085 656.675 682.321 647.654Z" fill="#FF5C00"/>
<path d="M698.321 710.32C679.068 696.714 654.322 668.987 654.322 668.987V694.32L692.988 734.319C692.988 734.319 716.738 751.599 732.987 759.652C752.018 769.084 782.319 774.319 782.319 774.319C806.271 772.757 803.7 775.881 827.652 774.319C851.604 772.757 875.651 764.985 875.651 764.985C875.651 764.985 886.57 762.42 896.984 755.651C907.398 748.882 919.651 745.181 928.984 736.985C938.702 728.451 945.005 725.833 952.983 715.653C952.983 715.653 970.003 700.831 974.316 694.32C984.219 679.371 992.352 668.241 992.982 650.321C993.663 630.983 974.316 622.32 974.316 622.32C974.316 622.32 973.014 630.118 966.316 644.988C959.788 659.481 952.779 666.64 943.65 679.654C934.076 693.301 914.467 704.239 902.317 715.653C892.83 724.566 887.17 724.256 875.651 730.319C859.891 738.616 849.301 739.928 831.652 742.319C813.593 744.766 803.108 744.243 784.986 742.319C764.262 740.119 752.212 738.365 732.987 730.319C718.569 724.285 711.085 719.34 698.321 710.32Z" fill="#FFBD13"/>
<defs>
<filter id="filter0_d_605_2024" x="4.83325" y="0.828125" width="909.561" height="912.162" filterUnits="userSpaceOnUse" color-interpolation-filters="sRGB">
<feFlood flood-opacity="0" result="BackgroundImageFix"/>
<feColorMatrix in="SourceAlpha" type="matrix" values="0 0 0 0 0 0 0 0 0 0 0 0 0 0 0 0 0 0 127 0" result="hardAlpha"/>
<feOffset dx="4" dy="6.6"/>
<feComposite in2="hardAlpha" operator="out"/>
<feColorMatrix type="matrix" values="0 0 0 0 0.304133 0 0 0 0 0.0266008 0 0 0 0 0.0266008 0 0 0 1 0"/>
<feBlend mode="normal" in2="BackgroundImageFix" result="effect1_dropShadow_605_2024"/>
<feBlend mode="normal" in="SourceGraphic" in2="effect1_dropShadow_605_2024" result="shape"/>
</filter>
<filter id="filter1_d_605_2024" x="0.833252" y="0.828125" width="913.561" height="913.562" filterUnits="userSpaceOnUse" color-interpolation-filters="sRGB">
<feFlood flood-opacity="0" result="BackgroundImageFix"/>
<feColorMatrix in="SourceAlpha" type="matrix" values="0 0 0 0 0 0 0 0 0 0 0 0 0 0 0 0 0 0 127 0" result="hardAlpha"/>
<feOffset dy="4"/>
<feGaussianBlur stdDeviation="2"/>
<feComposite in2="hardAlpha" operator="out"/>
<feColorMatrix type="matrix" values="0 0 0 0 0 0 0 0 0 0 0 0 0 0 0 0 0 0 0.25 0"/>
<feBlend mode="normal" in2="BackgroundImageFix" result="effect1_dropShadow_605_2024"/>
<feBlend mode="normal" in="SourceGraphic" in2="effect1_dropShadow_605_2024" result="shape"/>
</filter>
<linearGradient id="paint0_linear_605_2024" x1="572.99" y1="182.324" x2="572.99" y2="430.32" gradientUnits="userSpaceOnUse">
<stop stop-color="#E74500"/>
<stop offset="1" stop-color="#FF8A00" stop-opacity="0.5"/>
</linearGradient>
</defs>
</svg>
