<svg width="1280" height="832" viewBox="0 0 1280 832" fill="none" xmlns="http://www.w3.org/2000/svg">
<g clip-path="url(#clip0_29_2342)">
<rect width="1280" height="832" fill="#63262D"/>
<g style="mix-blend-mode:color-dodge" opacity="0.15">
<path d="M563.136 1084.59C559.935 1084.59 556.755 1084.54 553.544 1084.46C502.807 1076.7 444.452 1082.2 406.802 1026.76C384.251 993.588 376.602 941.409 350.056 915.198C326.307 891.645 294.97 896.165 266.234 894.147C247.266 892.825 228.584 888.774 210.088 882.989C180.213 842.521 153.922 797.249 131.665 748.367C134.463 745.879 137.172 743.151 139.754 740.18C144.751 734.395 149.582 727.174 150.446 718.006C151.349 708.724 147.814 699.499 142.906 693.387C138.007 687.346 131.812 683.906 125.725 680.808C118.921 677.339 109.85 672.464 99.6987 667.773C91.3833 643.41 83.981 618.45 77.5211 592.908C107.965 597.726 137.526 611.201 155.551 645.528C178.181 688.682 175.589 753.257 201.507 792.374C222.939 824.754 256.828 829.43 287.636 833.723C334.2 840.233 386.401 855.413 411.505 912.568C423.511 939.859 427.919 974.428 443.97 996.957C467.277 1029.61 501.992 1037.55 535.755 1037.55C553.26 1037.55 570.509 1035.42 585.785 1033.47C649.472 1025.39 705.775 994.669 765.092 963.128C794.044 947.72 835.71 923.03 820.719 866.401C811.618 832.06 778.229 816.879 775.411 780.292C774.037 762.809 780.771 745.666 790 734.181C824.822 690.985 883.336 679.315 924.638 652.934C936.164 645.571 950.026 640.155 963.515 640.155C977.79 640.155 991.642 646.21 1001.84 662.429C1008.15 672.421 1011.72 685.214 1015.82 697.523C1008.75 716.144 1001.17 734.196 993.125 751.665C987.617 741.885 978.958 735.219 966.667 734.054C963.986 733.798 961.287 733.67 958.597 733.67C941.75 733.67 924.864 738.758 910.039 750.215C892.849 763.519 878.682 785.793 872.723 812.657C869.532 827.042 868.991 843.985 875.216 856.124C882.903 871.077 897.561 873.266 910.431 873.679C913.229 873.764 916.057 873.821 918.894 873.821C920.17 873.821 921.456 873.806 922.743 873.792C827.031 1007.72 697.891 1084.59 563.136 1084.59ZM500.402 823.673C477.989 823.673 452.158 801.101 433.917 785.366C399.693 755.872 366.442 719.654 327.093 711.083C317.913 709.079 308.44 708.567 298.897 708.567C293.929 708.567 288.942 708.71 283.965 708.852C278.987 708.98 274.01 709.122 269.081 709.122C246.452 709.122 224.716 706.208 206.936 686.991C181.794 659.771 175.01 609.794 156.209 573.406C134.689 531.588 98.1968 510.309 62.3039 505.747C61.3614 505.633 60.4094 505.519 59.4669 505.42C54.7545 476.224 51.2497 446.559 48.9917 416.525C127.336 426.219 204.295 460.034 272.821 515.924C299.162 537.43 324.295 562.034 351.676 580.641C377.732 598.323 405.564 610.348 433.996 616.816C444.962 619.332 456.38 620.696 467.837 620.696C511.368 620.696 555.341 600.825 576.773 548.147C583.547 531.545 587.533 512.783 594.238 496.152C611.645 453.027 644.847 429.275 677.088 411.451C755.334 368.254 839.068 346.364 922.802 346.364C972.852 346.364 1022.91 354.196 1071.76 369.945C1074.36 370.798 1076.98 371.651 1079.6 372.532C1078.75 397.251 1077.05 422.054 1074.45 446.872C1040.15 439.225 1005.54 435.657 970.859 435.657C879.497 435.657 787.761 460.489 700.572 501.269C682.841 509.57 664.738 518.994 650.944 537.117C637.151 555.254 628.59 584.379 634.834 609.836C640.704 633.858 657.728 648.783 665.277 671.782C675.959 704.133 664.414 744.671 644.966 766.817C625.488 788.977 600.129 796.666 575.585 801.599C552.249 806.247 527.754 819.949 505.075 823.332C503.534 823.56 501.973 823.673 500.402 823.673ZM730.575 633.986C723.212 633.986 715.641 633.005 709.545 627.192C702.407 620.397 692.472 598.536 693.081 585.559C693.817 570.194 706.08 560.201 714.376 552.269C732.96 534.488 756.572 524.069 778.681 522.505C781.096 522.335 783.51 522.249 785.915 522.249C802.546 522.249 819.138 526.087 835.494 530.65C843.004 532.739 850.702 535.113 857.083 541.197C863.474 547.294 868.344 558.012 867.352 568.985C866.046 583.469 855.836 592.225 846.598 598.081C810.882 620.71 772.063 632.977 733.088 633.958C732.253 633.972 731.419 633.986 730.575 633.986ZM430.393 488.889C367.884 488.889 305.386 457.192 257.015 399.724C248.042 389.063 238.755 374.537 240.65 357.949C243.173 335.86 262.366 328.824 277.76 326.649C343.586 317.311 409.413 307.986 475.24 298.662C480.345 297.937 486.618 297.311 493.186 297.311C517.023 297.311 544.689 305.428 534.086 345.781C528.843 365.752 516.817 380.805 511.85 401.728C506.872 422.594 508.452 447.483 497.957 465.18C489.701 479.124 476.222 483.544 463.626 485.861C452.601 487.894 441.496 488.889 430.393 488.889ZM1078.66 277.753C1067.91 274.654 1057.47 269.907 1048.1 261.805C1032.99 248.728 1021.1 225.118 1021.97 199.661C1022.15 194.657 1022.81 189.583 1024.39 185.106C1026.82 178.254 1031.21 173.208 1035.98 169.811C1042.33 165.32 1049.3 163.543 1056.38 163.543C1059.73 163.543 1063.1 163.941 1066.44 164.637C1072.48 201.665 1076.58 239.46 1078.66 277.753ZM393.125 250.661C360.551 250.661 327.525 243.227 294.371 235.793C261.217 228.359 227.926 220.939 194.811 220.939C191.502 220.939 188.204 221.01 184.905 221.167C154.952 222.545 124.999 230.69 95.1735 230.69C87.2213 230.69 79.2784 230.107 71.3458 228.672C64.7975 227.478 58.3085 225.701 51.8583 223.654C56.4137 180.486 63.649 137.289 73.712 94.5189C78.3851 74.6618 83.5691 55.3166 89.2436 36.4261C110.459 22.1125 131.753 7.62831 154.128 -0.544789C205.316 -19.1652 264.722 -6.18791 306.319 -53.265C308.832 -56.0651 311.404 -59.5759 311.64 -64.1528C311.846 -67.948 310.345 -71.4445 308.95 -74.6853C294.342 -107.491 278.78 -141.62 255.189 -160.468C239.373 -173.132 222.281 -177.411 204.894 -177.411C198.493 -177.411 192.062 -176.828 185.632 -175.876C203.421 -203.366 222.536 -228.709 242.799 -251.807C245.028 -251.978 247.286 -252.248 249.583 -252.674C272.782 -256.967 294.489 -273.853 313.427 -292.857C341.26 -320.674 366.766 -355.058 398.594 -371.604C423.158 -384.411 449.763 -385.59 475.838 -385.903C481.493 -385.974 487.139 -386.017 492.784 -386.017C533.841 -386.017 574.897 -384.155 615.866 -380.459C632.781 -378.91 649.786 -377.076 666.731 -377.076C679.15 -377.076 691.54 -378.057 703.831 -380.871C705.589 -381.269 707.336 -381.71 709.093 -382.193C715.995 -379.251 722.917 -376.067 729.799 -372.67C743.504 -365.918 756.905 -358.399 769.952 -350.169C767.675 -340.304 766.811 -329.914 767.861 -319.523C769.157 -306.659 774.145 -293.454 782.666 -289.375C784.659 -288.437 786.72 -288.01 788.821 -288.01C799.542 -288.01 811.255 -299.027 818.755 -308.081C819.855 -309.403 820.925 -310.796 821.956 -312.231C831.282 -304.442 840.364 -296.297 849.259 -287.755C824.116 -251.196 783.599 -242.241 747.196 -235.262C612.636 -209.463 468.937 -156.644 383.828 -3.57222C353.944 50.1144 328.055 42.2679 283.277 45.5372C238.715 48.7922 193.888 56.6668 151.702 78.5992C133.009 88.2789 114.278 101.47 101.947 123.999C95.8307 135.129 91.4622 150.736 95.9587 163.415C100.102 175.042 109.094 178.524 118.588 178.524C123.369 178.524 128.277 177.643 132.764 176.463C178.357 164.367 224.303 151.162 270.838 150.466C271.32 150.451 271.791 150.451 272.272 150.451C292.751 150.451 312.366 156.777 331.805 163.102C351.234 169.427 370.496 175.753 390.249 175.753C392.458 175.753 394.676 175.667 396.895 175.511C440.132 172.256 484.419 147.666 521.117 115.03C551.914 87.6964 585.481 59.6945 614.688 28.6083C621.021 21.814 627.215 14.6073 634.352 9.6466C643.826 3.09391 654.174 1.03313 664.728 1.03313C673.407 1.03313 682.223 2.42611 690.784 3.87594C697.853 5.08414 705.363 6.51968 710.674 13.3851C715.19 19.1986 717.301 27.9117 720.688 35.2035C728.827 52.701 744.171 60.7604 758.75 60.7604C758.996 60.7604 759.241 60.7604 759.477 60.7604C774.262 60.4903 788.537 53.2556 802.488 46.0775C843.496 24.9411 884.307 2.15575 925.688 -17.3886C950.84 -29.3142 981.865 -31.8299 1006.49 -49.0858C1021.96 -11.6885 1035.16 27.6132 1045.94 68.3224C1040.65 67.6401 1035.39 67.3133 1030.13 67.3133C963.23 67.3133 899.613 119.252 832.5 132.684C817.43 135.683 802.232 136.735 786.966 136.735C769.108 136.735 751.162 135.299 733.235 133.864C715.318 132.414 697.43 130.978 679.68 130.978C654.135 130.978 628.875 133.963 604.262 144.226C552.494 165.76 508.678 217.698 456.782 238.891C435.812 247.448 414.567 250.661 393.125 250.661ZM485.028 -313.795C435.106 -313.795 383.514 -292.914 348.318 -253.527C335.467 -239.142 323.196 -222.341 316.805 -200.693C310.423 -179.06 311.159 -151.655 322.233 -134.441C330.46 -121.649 342.506 -116.802 354.837 -116.802C360.885 -116.802 367.002 -117.967 372.765 -119.929C388.551 -125.288 403.356 -135.394 418.013 -145.429C468.093 -179.685 518.182 -213.955 568.261 -248.211C575.85 -253.399 584.803 -262.411 582.849 -274.209C581.622 -281.586 576.478 -285.964 571.716 -289.091C546.348 -305.75 516.012 -313.795 485.028 -313.795ZM961.945 -140.539C946.404 -144.192 931.186 -150.688 916.784 -159.885C914.025 -161.662 911.207 -163.595 909.273 -166.921C903.147 -177.226 908.537 -193.274 915.184 -202.911C916.332 -204.574 917.5 -206.166 918.698 -207.715C934.101 -186.565 948.554 -164.092 961.945 -140.539Z" fill="#461202"/>
<path d="M790.413 1408.54C960.218 1408.48 1118.66 1330.22 1248.44 1196.34C1248.44 1196.35 1248.45 1196.35 1248.45 1196.35C1118.67 1330.22 960.218 1408.51 790.413 1408.54ZM998.633 1273.01C987.549 1273.01 976.417 1271.29 965.411 1267.69C959.157 1265.64 952.472 1262.55 948.8 1254.93C941.761 1240.3 949.987 1220.61 958.646 1207.93C993.528 1156.85 1041.18 1124.43 1090.62 1118.16C1093.74 1117.77 1096.9 1117.48 1100.04 1117.48C1106.01 1117.48 1111.94 1118.51 1117.43 1121.78C1159.57 1146.96 1109.73 1213.99 1090.92 1231.93C1063.48 1258.1 1031.24 1273.01 998.633 1273.01ZM411.093 1269.18C362.231 1230.59 316.549 1184.79 274.727 1132.87C255.101 1108.49 236.321 1082.75 218.472 1055.79H218.463C204.63 1034.88 191.356 1013.24 178.672 990.885L180.959 991.383C186.948 992.548 193.044 992.961 199.18 992.961C206.131 992.961 213.142 992.435 220.132 991.909C227.112 991.397 234.072 990.871 240.925 990.871C256.044 990.871 270.653 993.401 283.828 1004.06C312.77 1027.49 322.293 1079.85 340.76 1119.67C368.082 1178.55 406.93 1198.64 448.468 1198.65C491.126 1198.65 536.62 1177.47 575.419 1155.37C582.369 1151.38 589.408 1146.96 594.651 1139.2C599.864 1131.49 602.907 1119.76 600.266 1109.66C596.84 1096.45 585.983 1091.38 576.469 1088.59C568.822 1086.35 560.869 1084.76 552.711 1083.52C555.921 1083.6 559.102 1083.65 562.302 1083.65C697.058 1083.65 826.198 1006.78 921.909 872.852C939.797 872.468 957.792 869.241 972.921 855.994C997.769 834.246 1008.4 779.252 992.291 750.724C1000.33 733.255 1007.92 715.203 1014.99 696.583C1017.44 703.932 1020.08 711.11 1023.58 717.421C1035.89 739.524 1054.98 746.304 1075.23 746.304C1097.15 746.304 1120.45 738.358 1138.01 733.298C1151.51 729.417 1165.34 724.684 1179.17 718.942C1176.92 723.902 1174.72 728.891 1172.58 733.951C1155.01 775.528 1145.21 818.341 1141.88 860.954C1110.31 863.996 1074.52 894.983 1049.44 916.475C994.795 963.31 948.269 1028.21 907.762 1098.47C883.895 1139.88 861.453 1183.73 832.432 1217.5C807.486 1246.57 776.374 1267.75 744.762 1267.75C739.598 1267.75 734.424 1267.18 729.26 1266C699.974 1259.25 674.419 1233.63 645.811 1222.23C632.989 1217.13 620.03 1215 606.982 1215C566.927 1215 526.184 1235.1 486.855 1250.97C462.605 1260.78 436.481 1268.51 411.093 1269.18ZM853.559 1006.58C846.137 1006.58 838.637 1008.94 831.402 1011.68C783.885 1029.72 740.079 1063.58 696.774 1097.15C683.422 1107.51 668.479 1121.07 666.673 1142.85C665.397 1158.36 671.787 1173.69 680.682 1182.56C689.557 1191.43 700.534 1194.77 711.294 1196.04C714.701 1196.44 718.126 1196.63 721.543 1196.63C747.883 1196.63 774.145 1184.92 796.166 1164.06C820.611 1140.9 835.741 1105.72 861.266 1084.61C873.411 1074.61 886.075 1058.46 884.445 1038.37C883.198 1023.04 873.381 1011.44 862.985 1008.01C859.872 1007 856.72 1006.58 853.559 1006.58ZM1162.98 1047.73C1158.55 1047.73 1154.25 1045.88 1150.3 1041.27C1139.37 1028.52 1144.22 1010.33 1152.17 996.756C1153.78 1003.89 1155.55 1010.96 1157.46 1017.98C1160.18 1027.9 1163.19 1037.71 1166.49 1047.37C1165.32 1047.6 1164.15 1047.73 1162.98 1047.73ZM209.254 882.048C174.991 871.316 141.365 854.572 107.691 838.027C106.67 837.53 105.61 836.99 104.579 836.492C95.3703 813.536 86.6715 790.026 78.5818 766.061C80.4962 766.246 82.4208 766.331 84.3352 766.331C100.632 766.346 116.94 759.793 130.831 747.426C153.088 796.309 179.379 841.581 209.254 882.048ZM98.865 666.833C82.4697 659.242 63.2764 652.107 46.3411 652.107C45.9386 652.107 45.5359 652.121 45.1235 652.121C40.0086 631.553 35.2572 610.744 30.9178 589.664C33.9416 589.579 36.9553 589.551 39.9693 589.551C41.7659 589.551 43.5731 589.565 45.3795 589.579C55.629 589.679 66.212 590.304 76.6873 591.967C83.1473 617.51 90.5496 642.47 98.865 666.833ZM1150.06 552.225C1145.06 552.225 1140.05 550.32 1138.54 543.852C1136.84 536.674 1140.94 529.78 1143.28 523.015C1149.18 505.744 1143.09 483.897 1132.77 471.773C1122.46 459.634 1108.96 455.1 1095.9 451.475C1088.49 449.442 1081.06 447.58 1073.62 445.932C1076.21 421.114 1077.92 396.31 1078.76 371.592C1100.37 378.784 1122.42 386.488 1144.17 386.488C1152.96 386.488 1161.7 385.223 1170.34 382.167C1204.79 370.042 1231.32 330.3 1263.56 310.429C1303.53 285.881 1308.73 237.098 1329.19 188.301C1354.09 129.014 1390.03 96.1655 1434.91 77.7156C1477.99 59.9623 1522.18 39.2665 1560.99 5.84915C1554.24 -36.921 1545.79 -78.7673 1535.84 -119.59C1523.86 -109.768 1514.02 -94.6869 1503.57 -81.411C1465.83 -33.1968 1419.2 -11.904 1376.37 23.2048C1353.07 42.3086 1329.06 59.8487 1304.12 73.9917C1268.02 94.4884 1229.69 107.75 1191.05 107.75C1177.97 107.75 1164.86 106.229 1151.79 102.96C1115.87 93.9481 1081.64 72.1722 1045.33 67.4104C1045.26 67.3962 1045.18 67.382 1045.11 67.382C1034.33 26.6728 1021.13 -12.6289 1005.65 -50.0262C1009.77 -52.8974 1013.7 -56.1809 1017.4 -60.0045C1033.03 -76.1659 1039.68 -122.817 1016.87 -136.391C1013.79 -138.239 1010.47 -138.722 1007.11 -138.722C1004.85 -138.722 1002.57 -138.509 1000.32 -138.338C997.18 -138.097 994.029 -137.983 990.877 -137.983C980.922 -137.983 970.958 -139.163 961.111 -141.48C947.72 -165.032 933.268 -187.505 917.864 -208.655C953.718 -254.951 1010.39 -248.114 1054.8 -277.21C1072.4 -288.752 1087.89 -305.937 1104.77 -319.511C1147.31 -353.753 1197.16 -364.058 1245.81 -364.655C1247.04 -364.669 1248.26 -364.684 1249.5 -364.684C1277.03 -364.684 1305.51 -360.732 1329.05 -340.32C1353.65 -318.985 1370.98 -275.078 1362.34 -235.478C1351.18 -184.165 1312.78 -174.002 1282.33 -159.631C1242.28 -140.769 1202.96 -99.9888 1167.18 -67.5522C1163.16 -63.885 1158.95 -59.9193 1156.78 -53.7646C1151.14 -37.6743 1162.65 -20.0346 1173.89 -12.2027C1191.99 0.319938 1213.03 5.29495 1235.08 5.29495C1280.41 5.29495 1329.97 -15.7277 1366.85 -35.2721C1424.01 -65.5055 1475.73 -118.012 1513.6 -187.178C1514.44 -188.741 1515.32 -190.348 1516.14 -191.954C1478.1 -319.113 1424.53 -434.688 1358.67 -533.319C1310.8 -544.321 1260.74 -549.794 1211.41 -549.794C1180.5 -549.794 1149.87 -547.647 1120.26 -543.355C1068.9 -535.921 1018.06 -519.248 970.526 -489.824C935.487 -468.077 900.802 -437.076 883.159 -388.165C873.136 -360.462 869.12 -328.295 856.622 -302.767C854.119 -297.664 851.38 -292.988 848.425 -288.695C839.53 -297.238 830.449 -305.382 821.122 -313.172C828.927 -324.074 834.691 -338.089 837.449 -353.27C839.904 -366.73 843.369 -375.614 847.296 -388.279C851.36 -401.356 852.764 -414.106 847.198 -426.87C846.304 -428.931 845.127 -430.95 843.507 -431.632C843.085 -431.803 842.662 -431.874 842.23 -431.874C840.904 -431.874 839.55 -431.149 838.274 -430.438C820.759 -420.488 802.911 -410.097 788.695 -392.244C779.948 -381.285 772.741 -366.858 769.119 -351.109C756.071 -359.339 742.671 -366.858 728.965 -373.61C722.083 -377.007 715.161 -380.191 708.259 -383.133C735.454 -390.695 762.031 -408.633 779.114 -440.032C796.373 -471.744 803.245 -515.381 825.472 -539.744C839.756 -555.436 858.096 -560.412 875.777 -564.846C961.563 -586.452 1050.09 -615.477 1136.7 -622.2C1168.92 -624.687 1201.42 -627.146 1233.8 -627.146C1252.81 -627.146 1271.77 -626.294 1290.6 -624.119C1260.81 -659.569 1229.15 -691.849 1195.88 -720.647C1189.27 -721.059 1182.64 -721.244 1176.02 -721.244C1132.39 -721.244 1088.4 -713.099 1045.02 -704.884C994.078 -695.261 943.096 -685.666 892.152 -676C795.41 -657.764 693.406 -636.357 617.006 -548.5C605.48 -535.267 594.612 -520.512 581.839 -509.866C554.429 -486.996 521.422 -485.148 490.016 -479.519C402.09 -463.926 317.924 -414.859 242.702 -347.115C220.141 -326.803 198.062 -304.629 173.126 -291.495C146.54 -277.423 118.432 -274.438 90.0196 -273.287C81.0562 -248.853 72.682 -223.836 64.936 -198.322C107.083 -199.544 142.19 -235.534 182.374 -250.772C190.002 -253.671 197.207 -254.553 204.246 -254.553C209.597 -254.553 214.849 -254.041 220.121 -253.544C225.393 -253.032 230.685 -252.535 236.114 -252.535C238.048 -252.535 239.992 -252.591 241.965 -252.748C221.702 -229.65 202.588 -204.306 184.798 -176.816C171.407 -174.84 158.055 -171.23 145.184 -167.833C114.151 -159.617 83.0685 -159.717 52.1924 -153.747C32.5475 -80.8852 17.8899 -4.20002 8.82834 75.342C36.4451 70.3671 62.3541 53.0543 88.4099 35.4857C82.7354 54.3762 77.5514 73.7214 72.8782 93.5784C62.8153 136.349 55.58 179.545 51.0246 222.714C33.7261 217.198 16.663 209.651 -0.773005 205.785C-1.43078 225.016 -1.7646 244.148 -1.77441 263.195C-1.7646 244.774 -1.45047 226.253 -0.831968 207.661C-0.812333 207.035 -0.79264 206.41 -0.773005 205.785L-0.724109 204.591C0.817245 160.754 4.02756 117.629 8.82834 75.342C17.8899 -4.20002 32.5475 -80.8852 52.1924 -153.747C56.2176 -168.743 60.4887 -183.624 64.936 -198.322C72.682 -223.836 81.0562 -248.853 90.0196 -273.287C98.3155 -295.958 107.142 -318.218 116.439 -339.908C117.43 -342.254 118.402 -344.528 119.423 -346.802L119.491 -347.001C133.619 -379.466 148.817 -410.808 165.036 -440.942C165.34 -441.511 165.654 -442.093 165.969 -442.662C212.356 -528.529 266.981 -604.404 328.007 -667.955C331.541 -671.637 335.095 -675.261 338.668 -678.858C340.082 -680.307 341.466 -681.672 342.88 -683.079C344.235 -684.444 345.58 -685.751 346.955 -687.059C349.605 -689.632 352.246 -692.148 354.897 -694.72C357.577 -697.293 360.307 -699.795 362.987 -702.325C365.755 -704.884 368.504 -707.399 371.253 -709.901C374.944 -713.227 378.626 -716.511 382.347 -719.737C385.429 -722.481 388.551 -725.124 391.673 -727.711C394.432 -730.071 397.21 -732.374 399.988 -734.619C403.376 -737.448 406.783 -740.163 410.19 -742.835C412.379 -744.612 414.568 -746.317 416.757 -747.995C419.565 -750.184 422.422 -752.33 425.229 -754.462C427.713 -756.367 430.197 -758.215 432.71 -760.02C438.856 -764.582 445.071 -768.975 451.335 -773.253L451.453 -773.31C457.736 -777.588 464.078 -781.768 470.459 -785.847C473.63 -787.908 476.831 -789.912 480.031 -791.874C483.202 -793.821 486.442 -795.782 489.643 -797.687C492.853 -799.592 496.093 -801.482 499.323 -803.344C505.763 -807.097 512.272 -810.679 518.84 -814.062C522.109 -815.81 525.378 -817.487 528.677 -819.136C531.946 -820.828 535.245 -822.448 538.554 -824.04C541.853 -825.618 545.151 -827.21 548.489 -828.731C551.346 -830.095 554.242 -831.389 557.099 -832.697C560.859 -834.345 564.668 -835.994 568.438 -837.6C575.104 -840.443 581.79 -843.144 588.545 -845.674C602.181 -850.876 615.887 -855.496 629.69 -859.604C632.94 -860.613 636.209 -861.523 639.488 -862.432C642.914 -863.427 646.331 -864.323 649.757 -865.218C655.5 -866.739 661.283 -868.132 667.055 -869.383C669.304 -869.895 671.562 -870.406 673.81 -870.861L675.666 -871.245C678.179 -871.799 680.722 -872.34 683.245 -872.78C686.887 -873.505 690.549 -874.173 694.172 -874.784C696.538 -875.239 698.924 -875.637 701.28 -875.993C703.636 -876.391 706.032 -876.732 708.388 -877.087C710.774 -877.428 713.13 -877.783 715.515 -878.068C717.911 -878.423 720.266 -878.722 722.652 -878.949C725.146 -879.248 727.649 -879.532 730.143 -879.859C732.283 -880.072 734.414 -880.342 736.544 -880.484C739.038 -880.726 741.571 -880.953 744.074 -881.138C746.892 -881.394 749.71 -881.607 752.528 -881.82C758.556 -882.204 764.593 -882.503 770.621 -882.687C773.066 -882.758 775.559 -882.844 778.014 -882.872C780.92 -882.929 783.835 -882.972 786.741 -882.986C787.743 -883 788.734 -883 789.735 -883C798.984 -883 808.222 -882.758 817.451 -882.261C821.555 -882.062 825.697 -881.806 829.791 -881.508C926.396 -874.401 1018.06 -842.504 1101.99 -790.225C1108.16 -786.387 1114.26 -782.45 1120.34 -778.399C1146.33 -761.086 1171.54 -741.797 1195.88 -720.647C1212.76 -706.02 1229.25 -690.499 1245.28 -674.124C1260.82 -658.247 1275.94 -641.574 1290.6 -624.119C1314.51 -595.805 1337.25 -565.472 1358.67 -533.319C1424.53 -434.688 1478.1 -319.113 1516.14 -191.954C1523.23 -168.216 1529.81 -144.081 1535.84 -119.59C1545.79 -78.7673 1554.24 -36.921 1560.99 5.84915C1562.29 13.9227 1563.52 22.0534 1564.68 30.2265C1567.94 53.097 1570.75 76.1949 1573.05 99.5202C1573.64 105.504 1574.2 111.517 1574.73 117.544C1577.55 150.051 1579.47 182.928 1580.35 216.175C1570.7 232.365 1560.49 247.901 1549.09 261.518C1519.6 296.613 1477.48 296.072 1456.02 344.642C1443.6 372.786 1442.43 407.525 1438.33 440.744C1424.71 443.942 1411.23 448.902 1398.02 455.384C1403.55 449.698 1408.48 443.217 1412.02 434.759C1423.7 406.828 1415.03 370.952 1417.02 338.374C1419.32 301.019 1436.22 268.142 1457.07 245.982C1477.03 224.689 1502.65 216.872 1521.14 193.29C1537.17 172.822 1552.21 148.345 1567.78 126.697C1569.79 123.855 1572.13 120.799 1574.73 117.544C1572.15 88.0777 1568.78 58.9674 1564.68 30.2265C1564.55 29.3168 1564.12 28.9044 1563.45 28.9044C1556.61 28.9044 1524.63 70.9499 1521.49 75.0578C1508.38 92.1858 1491.19 103.031 1475.38 113.72C1444.54 134.601 1408.49 152.88 1391.37 199.047C1380.37 228.712 1379.85 264.219 1371.27 295.518C1356.7 348.65 1311.17 339.894 1291.65 384.413C1283.99 401.911 1283.99 423.9 1281.04 444.169C1270.14 518.85 1198.2 543.014 1154.55 551.77C1153.12 552.054 1151.59 552.225 1150.06 552.225ZM1238.9 -296.954C1207.44 -296.954 1175.6 -291.168 1146.44 -274.211C1130.16 -264.744 1121.16 -253.316 1109.25 -236.288C1098.17 -220.439 1078.76 -209.153 1070.34 -190.945C1067.97 -185.856 1067.23 -179.559 1066.88 -173.433C1065.54 -148.786 1071.78 -120.613 1087.37 -110.55C1092.67 -107.153 1098.55 -106.129 1104.33 -106.129C1104.43 -106.129 1104.53 -106.129 1104.62 -106.129C1120.85 -106.243 1137.01 -114.018 1150.04 -128.019C1159.88 -138.594 1167.9 -152.482 1178.11 -162.261C1212.12 -194.797 1277 -179.133 1295.57 -242.698C1298.17 -251.554 1299.48 -261.731 1297.26 -270.799C1292.57 -289.932 1275.73 -294.892 1261.73 -296.001C1254.17 -296.612 1246.55 -296.954 1238.9 -296.954ZM121.318 -340.662C123.056 -340.662 124.842 -340.648 126.688 -340.633C128.553 -340.619 130.477 -340.605 132.421 -340.605C146.097 -340.605 161.216 -341.386 172.251 -348.493C191.022 -360.575 206.858 -390.667 223.999 -407.667C262.307 -445.661 306.31 -471.801 352.158 -483.002C367.493 -486.711 383.466 -489.028 397.014 -500.101C410.563 -511.103 421.096 -533.959 416.953 -555.664C413.154 -575.62 398.634 -588.271 394.795 -608.185C389.12 -637.765 409.04 -663.862 427.389 -679.312C489.22 -731.421 563.166 -759.906 635.276 -759.906C643.13 -759.906 650.955 -759.565 658.74 -758.883C714.622 -753.979 768.609 -726.901 824.362 -719.766C833.601 -718.87 842.799 -718.458 851.949 -718.458C928.438 -718.458 1002.24 -747.213 1077.34 -768.25C1091.72 -772.301 1106.05 -775.698 1120.34 -778.399C1031.48 -837.7 933.484 -873.875 829.791 -881.508C825.697 -881.806 821.555 -882.062 817.451 -882.261C808.222 -882.758 798.984 -883 789.735 -883C785.828 -883 781.921 -882.958 778.014 -882.872C775.559 -882.844 773.066 -882.758 770.621 -882.687C764.593 -882.503 758.556 -882.204 752.528 -881.82C749.71 -881.607 746.892 -881.394 744.074 -881.138C741.571 -880.953 739.038 -880.726 736.544 -880.484C734.414 -880.342 732.283 -880.072 730.143 -879.859C727.649 -879.532 725.146 -879.248 722.652 -878.949C720.266 -878.722 717.911 -878.423 715.515 -878.068C713.13 -877.783 710.774 -877.428 708.388 -877.087C706.032 -876.732 703.636 -876.391 701.28 -875.993C698.924 -875.637 696.538 -875.239 694.172 -874.784C690.549 -874.173 686.887 -873.505 683.245 -872.78C680.722 -872.34 678.179 -871.799 675.666 -871.245L673.81 -870.861C671.562 -870.406 669.304 -869.895 667.055 -869.383C661.283 -868.132 655.5 -866.739 649.757 -865.218C646.331 -864.323 642.914 -863.427 639.488 -862.432C636.209 -861.523 632.94 -860.613 629.69 -859.604C615.887 -855.496 602.181 -850.876 588.545 -845.674C581.82 -843.087 575.104 -840.4 568.438 -837.6C564.668 -835.994 560.859 -834.345 557.099 -832.697C554.242 -831.389 551.346 -830.095 548.489 -828.731C545.151 -827.21 541.853 -825.618 538.554 -824.04C535.245 -822.448 531.946 -820.828 528.677 -819.136C525.378 -817.487 522.109 -815.81 518.84 -814.062C512.302 -810.622 505.803 -807.04 499.323 -803.344C496.093 -801.482 492.853 -799.592 489.643 -797.687C486.442 -795.782 483.202 -793.821 480.031 -791.874C476.831 -789.912 473.63 -787.908 470.459 -785.847C464.078 -781.768 457.736 -777.588 451.453 -773.31L451.335 -773.253C445.101 -768.918 438.886 -764.526 432.71 -760.02C430.197 -758.215 427.713 -756.367 425.229 -754.462C422.422 -752.33 419.565 -750.184 416.757 -747.995C414.568 -746.317 412.379 -744.612 410.19 -742.835C406.783 -740.163 403.376 -737.448 399.988 -734.619C397.21 -732.374 394.432 -730.071 391.673 -727.711C388.551 -725.124 385.429 -722.481 382.347 -719.737C378.626 -716.511 374.944 -713.227 371.253 -709.901C368.504 -707.399 365.755 -704.884 362.987 -702.325C360.307 -699.795 357.577 -697.293 354.897 -694.72C352.246 -692.148 349.605 -689.632 346.955 -687.059C345.58 -685.751 344.235 -684.444 342.88 -683.079C341.466 -681.672 340.082 -680.307 338.668 -678.858C251.272 -590.986 176.512 -478.126 119.491 -347.001L119.423 -346.802C118.746 -344.755 118.049 -342.666 117.372 -340.633C118.648 -340.662 119.963 -340.662 121.318 -340.662ZM574.564 -668.694C555.234 -668.694 535.962 -662.128 519.262 -648.041C505.302 -636.258 452.405 -579.757 470.989 -562.202C475.27 -558.166 480.513 -557.014 485.579 -556.19C494.493 -554.754 503.447 -554.044 512.41 -554.044C551.994 -554.044 591.588 -567.945 626.676 -594.511C634.687 -600.566 643.425 -609.436 643.817 -622.513C644.23 -636.258 635.169 -646.392 626.618 -652.405C610.585 -663.009 592.56 -668.694 574.564 -668.694ZM16.0932 505.844C14.7384 496.775 13.4524 487.678 12.2448 478.524C9.36829 456.791 6.93384 434.844 4.9507 412.713C19.3629 412.841 33.7851 413.808 48.158 415.584C50.416 445.619 53.9208 475.284 58.6332 504.479C53.9502 503.996 49.2862 503.783 44.6327 503.783C35.0802 503.783 25.5672 504.664 16.0932 505.844ZM1522.62 445.491C1517.92 443.771 1513.17 442.264 1508.34 441.014C1497 438.071 1485.59 436.65 1474.21 436.579C1482.12 413.722 1492.84 392.913 1505.96 375.828C1531.92 342.041 1556.55 307.899 1580.97 271.383C1580.86 287.814 1580.54 304.331 1579.95 320.947C1579.47 334.522 1578.82 348.039 1578.03 361.5C1571.96 372.175 1565.47 382.338 1558.9 391.875C1546.86 409.387 1534.1 426.87 1522.62 445.491ZM1126.53 283.507C1117.03 283.507 1107.42 282.598 1097.75 281.062C1091.1 279.996 1084.41 278.717 1077.82 276.812C1075.75 238.52 1071.65 200.724 1065.61 163.697C1069.04 164.393 1072.45 165.417 1075.78 166.639C1089.19 171.586 1102.06 179.588 1115.68 183.141C1122.08 184.819 1128.51 185.487 1134.97 185.487C1147.45 185.487 1159.99 182.999 1172.57 180.498C1185.15 178.01 1197.73 175.523 1210.29 175.523C1213.98 175.523 1217.66 175.736 1221.33 176.234C1260.32 181.45 1217.22 244.418 1203.24 256.145C1179.15 276.358 1153.26 283.507 1126.53 283.507ZM957.027 -333.512C948.466 -333.512 939.718 -336.298 936.577 -347.101C933.573 -357.42 937.872 -369.061 942.693 -377.832C970.918 -429.173 1018.75 -447.651 1063.7 -456.009C1068.91 -456.961 1074.28 -457.786 1079.56 -457.786C1087.26 -457.786 1094.78 -456.051 1101.34 -450.48C1102.86 -449.2 1104.38 -447.566 1104.93 -445.164C1107.42 -434.247 1082.97 -397.603 1077.21 -389.331C1064.47 -370.995 1048.15 -358.5 1031.18 -350.541C1009.42 -340.363 986.46 -337.137 963.703 -333.995C961.562 -333.697 959.304 -333.512 957.027 -333.512Z" fill="#461202"/>
</g>
<g style="mix-blend-mode:lighten" opacity="0.8">
<ellipse cx="18.3874" cy="14.144" rx="18.3874" ry="14.144" transform="matrix(-1 0 0 1 268.173 773.694)" fill="#F9C17C"/>
<ellipse cx="20.0843" cy="18.3872" rx="20.0843" ry="18.3872" transform="matrix(-1 0 0 1 289.954 783.595)" fill="#F9C17C"/>
<ellipse cx="38.7976" cy="16.4069" rx="38.7976" ry="16.4069" transform="matrix(-1 0 0 1 268.173 787.838)" fill="#F9C17C"/>
<ellipse cx="22.7417" cy="18.5285" rx="22.7417" ry="18.5285" transform="matrix(-1 0 0 1 236.062 777.371)" fill="#F9C17C"/>
<ellipse cx="17.273" cy="13.5782" rx="17.273" ry="13.5782" transform="matrix(-1 0 0 1 211.032 795.9)" fill="#F9C17C"/>
</g>
<g style="mix-blend-mode:lighten" opacity="0.8">
<path d="M189.388 107.222C204.854 107.232 220.325 107.483 235.874 108.193C239.113 108.34 242.352 108.496 245.59 108.648C263.914 109.032 282.237 109.31 300.566 109.464C306.599 100.675 302.638 88.4899 291.898 83.601C280.85 78.5722 264.731 82.2205 258.281 91.2131C259.93 80.1141 256.224 67.568 244.431 61.78C232.638 55.9921 212.816 61.9556 212.53 73.0997C209.791 50.541 196.405 26.3219 169.397 19.3835C149.53 14.2811 125.499 20.8637 113.311 34.7476C103.431 46.0032 102.019 61.2748 108.822 73.4722C104.56 69.302 99.0717 65.9763 92.672 64.2186C82.5664 61.4456 70.2451 63.0729 62.4887 69.1858C52.8974 76.7456 47.6653 92.1453 50.765 102.957C96.9783 104.238 143.18 105.877 189.388 107.222Z" fill="#F9C17C"/>
<path d="M163.877 90.4649C148.412 90.4554 132.941 90.204 117.392 89.4947C114.153 89.3477 110.914 89.1911 107.675 89.0393C89.3518 88.6551 71.0283 88.3775 52.6993 88.2233C46.6665 97.0119 50.628 109.197 61.3675 114.086C72.4155 119.115 88.5345 115.467 94.9843 106.474C93.3357 117.573 97.0415 130.119 108.835 135.907C120.628 141.695 140.45 135.732 140.736 124.588C143.474 147.146 156.861 171.365 183.869 178.304C203.735 183.406 227.766 176.824 239.954 162.94C249.835 151.684 251.247 136.413 244.444 124.215C248.706 128.385 254.194 131.711 260.594 133.469C270.699 136.242 283.021 134.614 290.777 128.502C300.368 120.942 305.6 105.542 302.501 94.73C256.287 93.449 210.085 91.8099 163.877 90.4649Z" fill="#F9C17C"/>
</g>
<g style="mix-blend-mode:lighten" opacity="0.8">
<path d="M815.712 76.7208H815.554C815.554 76.7208 815.544 76.7208 815.533 76.7208H605.746L632.464 63.4596C632.464 63.4596 632.464 63.4498 632.454 63.4384C617.631 44.0558 625.547 18.992 650.276 24.0931C675.015 29.1942 673.037 40.415 673.037 40.415C684.377 36.5183 692.255 39.1699 695.342 40.6497C696.292 41.0978 696.787 41.4352 696.787 41.4352C696.787 41.4352 700.597 33.5798 707.87 26.8979C707.87 26.8979 707.879 26.8979 707.89 26.8881C715.441 19.9519 726.711 14.3 741.318 20.0122C770.015 31.233 761.109 50.6156 761.109 50.6156C786.838 50.6156 783.87 65.9172 783.87 65.9172L815.418 76.6181L815.712 76.7208Z" fill="#F9C17C"/>
<path d="M695.341 40.6468C682.121 37.6367 671.057 47.1348 671.057 47.1348C671.057 47.1348 662.152 30.813 643.35 32.8534C624.815 34.8629 632.247 62.6516 632.454 63.4356C617.631 44.053 625.547 18.9892 650.276 24.0903C675.014 29.1914 673.037 40.4122 673.037 40.4122C684.375 36.5154 692.253 39.1687 695.341 40.6468Z" fill="#F9C17C"/>
<path d="M775.95 71.6197C775.95 71.6197 777.929 63.4595 769.024 59.3787C760.117 55.2978 751.211 61.4191 751.211 61.4191C755.17 49.1781 749.232 39.9961 737.357 28.7753C725.711 17.768 708.551 26.5409 707.889 26.8881C715.439 19.9519 726.71 14.2999 741.316 20.0122C770.013 31.233 761.108 50.6155 761.108 50.6155C786.836 50.6155 783.869 65.9172 783.869 65.9172L815.416 76.6181C815.437 76.6588 815.465 76.6898 815.486 76.6996C813.643 76.3622 775.95 71.6197 775.95 71.6197Z" fill="#F9C17C"/>
</g>
<g style="mix-blend-mode:lighten" opacity="0.8">
<path d="M992.35 158.83C998.641 144.303 1010.06 142.637 1018.79 143.935C1020.21 131.243 1030.34 121.184 1043.08 119.903C1044.13 102.245 1058.78 88.251 1076.71 88.251C1085.62 88.251 1093.72 91.7153 1099.74 97.363C1107.11 91.6556 1116.34 88.251 1126.38 88.251C1140.51 88.251 1153.06 94.9848 1161.02 105.411C1162.14 105.252 1163.29 105.166 1164.46 105.166C1173.56 105.166 1181.49 110.158 1185.68 117.549C1192.56 113.248 1200.69 110.755 1209.41 110.755C1226.81 110.755 1241.89 120.663 1249.34 135.136C1250.92 134.679 1252.58 134.429 1254.31 134.429C1260.29 134.429 1265.57 137.393 1268.79 141.923C1268.98 143.607 1269.71 145.187 1271.07 146.345C1271.72 148.183 1272.08 150.149 1272.08 152.205C1272.08 152.368 1272.07 152.53 1272.07 152.694C1272.07 152.694 1272.08 152.694 1272.08 152.694C1272.15 152.694 1272.22 152.694 1272.28 152.694C1277.08 152.73 1281.6 154.794 1285.13 158.041C1297.09 169.057 1304.65 203.202 1272.08 207.122C1258.18 208.796 1246.55 196.547 1245.04 182.95C1236.83 193.644 1223.93 200.544 1209.41 200.544C1184.62 200.544 1164.52 180.445 1164.52 155.65C1164.52 155.066 1164.54 154.486 1164.56 153.906C1164.53 153.906 1164.49 153.909 1164.46 153.909C1164.27 153.909 1164.09 153.899 1163.91 153.895C1156.34 166.734 1142.37 175.352 1126.38 175.352C1115.57 175.352 1105.69 171.405 1098.08 164.885C1094.97 170.056 1089.31 173.518 1082.83 173.518C1075.99 173.518 1070.05 169.646 1067.08 163.975C1062.09 170.201 1054.43 174.194 1045.83 174.194C1040.51 174.194 1035.54 172.659 1031.35 170.017C1010.73 171.154 972.938 172.285 972.938 165.287C972.939 155.666 992.35 158.83 992.35 158.83Z" fill="#F9C17C"/>
<path d="M992.351 158.83C998.642 144.303 1010.06 142.637 1018.79 143.935C1020.21 131.243 1030.34 121.184 1043.08 119.903C1044.14 102.245 1058.79 88.251 1076.71 88.251C1085.62 88.251 1093.72 91.7154 1099.74 97.363C1107.11 91.6556 1116.35 88.251 1126.38 88.251C1140.51 88.251 1153.07 94.9848 1161.02 105.411C1162.15 105.252 1163.29 105.166 1164.46 105.166C1173.56 105.166 1181.49 110.158 1185.68 117.549C1192.56 113.248 1200.7 110.755 1209.41 110.755C1226.81 110.755 1241.89 120.663 1249.34 135.136C1250.92 134.679 1252.58 134.429 1254.31 134.429C1260.29 134.429 1265.57 137.393 1268.79 141.923C1269.45 143.635 1270.32 144.597 1271.07 146.345C1271.72 148.183 1272.08 150.149 1272.08 152.205C1272.08 152.368 1272.07 152.53 1272.07 152.694C1272.07 152.694 1272.08 152.694 1272.08 152.694C1272.72 152.694 1273.36 152.716 1273.99 152.761C1278.04 153.047 1281.78 154.931 1284.76 157.7C1285.13 158.048 1285.51 158.39 1285.89 158.73C1283.39 157.732 1261.77 149.77 1246.26 165.288C1246.26 165.288 1253.22 150.36 1263.81 150.36C1263.81 150.36 1250.81 128.211 1223.37 145.301C1223.37 145.301 1229.15 132.544 1240.7 132.544C1240.7 132.544 1218.56 102.214 1182.45 125.804C1182.45 125.804 1173.18 98.6912 1137.62 116.821C1137.62 116.821 1142.01 108.121 1155.49 105.167C1155.49 105.167 1123.94 84.3277 1096.42 111.843C1096.42 111.843 1062.58 83.3987 1046.69 119.767C1046.69 119.767 1022.55 129.734 1026.95 149.875C1026.95 149.875 999.508 146.986 999.508 160.948C999.508 160.948 978.987 160.184 973.022 165.846C972.978 165.825 972.997 165.835 972.953 165.814C972.241 155.553 992.351 158.83 992.351 158.83Z" fill="#F9C17C"/>
</g>
<g style="mix-blend-mode:lighten" opacity="0.8">
<path d="M1272.55 626.336L1205.2 628.788C1205.2 628.788 1156.23 630.013 1126.83 631.239C1097.91 632.442 1053.56 641.955 1052.17 642.247L1090.72 628.788C1090.72 628.788 1027.04 636.134 1001.94 637.97C976.836 639.804 916.835 661.237 903.977 661.852C896.139 662.225 882.624 667.372 873.262 671.334C873.253 671.334 873.247 671.343 873.238 671.343C867.481 673.779 863.305 675.764 862.981 675.921C863.796 675.414 886.31 661.742 891.118 655.724C896.013 649.602 907.038 650.22 907.038 650.22C907.038 650.22 907.038 629.398 920.506 624.502C933.975 619.607 940.712 637.361 940.712 637.361C940.712 637.361 943.773 631.848 946.834 628.788C949.895 625.727 953.571 628.788 953.571 628.788C953.571 628.788 949.895 623.893 956.632 618.38C963.363 612.868 975.611 626.336 975.611 626.336C975.611 620.823 982.958 621.441 982.958 621.441C970.708 615.319 951.12 575.517 973.777 557.154C996.426 538.782 1015.41 588.992 1015.41 588.992C1015.41 588.992 1018.47 584.706 1024.59 583.479C1030.49 582.301 1026.73 599.873 1026.45 601.162C1026.75 600.126 1030.29 588.137 1034.39 582.863C1038.67 577.359 1049.08 585.931 1049.08 585.931C1049.08 585.931 1042.35 566.334 1057.04 543.068C1071.74 519.801 1097.45 524.087 1113.37 536.337C1126.51 546.443 1120.04 576.155 1117.38 586.223C1116.85 588.232 1116.47 589.457 1116.43 589.592C1116.51 589.506 1117.04 588.888 1118.14 587.962C1119.81 586.554 1122.79 584.403 1127.45 582.253C1135.41 578.583 1139.08 590.208 1139.08 590.208C1139.08 590.208 1140.92 581.644 1146.43 577.358C1151.94 573.072 1159.9 577.358 1159.9 577.358C1159.9 577.358 1180.71 519.192 1210.1 518.574C1239.49 517.965 1233.37 537.555 1231.53 559.602C1230.9 567.179 1227.8 574.47 1224.06 580.844C1216.94 593.015 1207.46 601.865 1208.26 603.066C1209.49 604.908 1220.51 599.396 1235.21 600.005C1249.9 600.624 1272.55 626.336 1272.55 626.336Z" fill="#F9C17C"/>
<path d="M1272.55 626.336L1205.2 628.787C1205.2 628.787 1156.23 630.012 1126.83 631.239C1097.9 632.442 1053.55 641.954 1052.17 642.247L1090.71 628.787C1090.71 628.787 1027.04 636.134 1001.94 637.97C976.835 639.804 916.834 661.236 903.977 661.852C896.139 662.224 882.624 667.372 873.261 671.334C882.032 666.353 891.68 661.148 896.63 659.4C907.037 655.724 923.566 650.218 923.566 650.218C923.566 650.218 914.993 639.195 926.627 641.029C938.26 642.871 943.772 647.766 943.772 647.766C943.772 647.766 946.833 640.42 957.24 636.743C967.648 633.073 978.671 633.073 980.507 633.682C982.341 634.3 1006.83 627.56 1006.83 627.56C1006.83 627.56 971.326 612.258 984.795 600.624C998.263 588.992 1013.57 588.374 1026.43 601.233C1039.28 614.092 1041.73 621.439 1041.73 621.439C1041.73 621.439 1044.19 605.519 1053.98 608.58C1063.77 611.641 1069.29 617.76 1069.29 617.76C1069.29 617.76 1074.8 562.662 1096.84 568.168C1107.89 570.937 1114.02 578.939 1117.38 586.223C1117.65 586.808 1117.91 587.393 1118.14 587.964C1120.82 594.489 1121.33 600.008 1121.33 600.008C1121.33 600.008 1136.63 591.435 1143.98 595.722C1151.33 600.008 1161.13 611.033 1161.13 611.033C1161.13 611.033 1159.29 591.436 1181.94 583.481C1204.6 575.516 1218.68 574.3 1221.73 579.195C1222.06 579.717 1222.87 580.271 1224.07 580.847C1216.94 593.018 1207.46 601.868 1208.27 603.069C1209.49 604.912 1220.52 599.399 1235.21 600.008C1249.9 600.624 1272.55 626.336 1272.55 626.336Z" fill="#F9C17C"/>
</g>
<g style="mix-blend-mode:lighten" opacity="0.8">
<path d="M-18.0001 639.7C97.9459 620.21 402.557 633.611 412.04 634.036L412.222 634.039C410.919 633.407 385.023 620.964 379.63 616.682C374.132 612.316 356.067 610.154 356.067 610.154C356.067 610.154 341.144 580.009 314.201 574.48C287.274 568.918 296.863 602.126 296.863 602.126C296.863 602.126 290.045 590.644 281.184 587.243C272.329 583.871 267.167 594.387 267.167 594.387C267.167 594.387 259.398 571.174 241.68 564.398C223.94 557.631 217.866 595.469 217.866 595.469C217.866 595.469 201.756 487.625 151.761 478.385C101.767 469.144 115.971 573.044 115.971 573.044C115.971 573.044 86.6949 535.16 54.5254 546.186C22.3558 557.212 29.6415 616.614 29.6415 616.614C14.7165 610.003 3.78357 613.412 -3.80013 619.408C-13.779 627.28 -18.0001 639.7 -18.0001 639.7Z" fill="#F9C17C"/>
<path d="M412.04 634.035L330.761 623.256C330.761 623.256 328.296 604.842 316.752 609.393C305.201 613.916 303.664 620.014 303.664 620.014C303.664 620.014 300.35 616.486 296.169 617.721C291.966 618.965 284.166 624.647 284.166 624.647C284.166 624.647 267.022 583.93 242.458 589.713C217.868 595.474 221.827 617.197 221.827 617.197C221.827 617.197 206.537 605.953 201.876 609.572C197.241 613.21 193.449 616.574 193.449 616.574C193.449 616.574 168.349 508.016 140.425 519.651C112.499 531.286 117.855 599.518 117.855 599.518C117.855 599.518 102.803 584.828 99.985 593.545C97.1451 602.269 95.804 609.441 95.804 609.441C95.804 609.441 72.7238 555.44 54.0915 574.479C35.4547 593.491 33.5644 626.718 33.5644 626.718C33.5644 626.718 13.1329 617.838 -3.79365 619.413C-13.7748 627.282 -17.9958 639.702 -17.9958 639.702C97.9457 620.209 402.557 633.61 412.04 634.035Z" fill="#F9C17C"/>
</g>
</g>
<defs>
<clipPath id="clip0_29_2342">
<rect width="1280" height="832" fill="white"/>
</clipPath>
</defs>
</svg>
