<svg width="42" height="42" viewBox="0 0 42 42" fill="none" xmlns="http://www.w3.org/2000/svg">
<path d="M16.2746 11.7249C16.5954 11.4041 17.0038 11.2437 17.4996 11.2437C17.9954 11.2437 18.4038 11.4041 18.7246 11.7249L26.7746 19.7749C26.9496 19.9499 27.0733 20.1395 27.1456 20.3437C27.2179 20.5478 27.2547 20.7666 27.2559 20.9999C27.2559 21.2332 27.2121 21.4596 27.1246 21.6789C27.0371 21.8982 26.9204 22.0802 26.7746 22.2249L18.7246 30.2749C18.4038 30.5957 17.9954 30.7562 17.4996 30.7562C17.0038 30.7562 16.5954 30.5957 16.2746 30.2749C15.9538 29.9541 15.7934 29.5457 15.7934 29.0499C15.7934 28.5541 15.9538 28.1457 16.2746 27.8249L23.0996 20.9999L16.2746 14.1749C15.9538 13.8541 15.7934 13.4457 15.7934 12.9499C15.7934 12.4541 15.9538 12.0457 16.2746 11.7249Z" fill="black"/>
</svg>
