<svg width="171" height="273" viewBox="0 0 171 273" fill="none" xmlns="http://www.w3.org/2000/svg">
<rect width="171" height="273" fill="#E3E3E3"/>
<path d="M-1695 -4344C-1695 -4345.1 -1694.1 -4346 -1693 -4346H2633C2634.1 -4346 2635 -4345.1 2635 -4344V2540C2635 2541.1 2634.1 2542 2633 2542H-1693C-1694.1 2542 -1695 2541.1 -1695 2540V-4344Z" fill="white"/>
<g clip-path="url(#clip0_325_71)">
<rect width="1499.26" height="6338" transform="translate(-1316 -4072)" fill="#1C1D47"/>
<g opacity="0.7">
<path d="M40.3708 10.4734C41.9156 16.1969 44.2034 21.4874 46.623 26.5858C49.0371 31.7076 51.838 36.4716 54.7023 41.141C57.546 45.8426 60.7146 50.1811 63.922 54.4443C65.5955 56.5201 67.195 58.5606 68.8534 60.7675C70.5208 62.921 72.1402 65.1354 73.6368 67.4885C79.7066 76.8243 84.733 87.1814 89.2721 97.8148C93.8413 108.435 97.9772 119.379 101.639 130.651C105.332 141.904 108.286 153.622 110.481 165.643C112.714 177.305 116.16 188.618 119.613 199.862C126.58 222.365 134.368 244.469 142.075 266.657L141.797 266.864C132.303 245.941 123.822 224.206 116.5 201.675C112.933 190.356 109.688 178.8 107.582 166.612C105.603 154.75 103.123 143.005 100.026 131.541C96.9034 120.096 93.0879 108.958 88.3832 98.5256C83.6654 88.1042 77.926 78.5676 71.6664 69.8663C68.5892 65.4429 65.207 61.4931 61.929 57.0674C58.7417 52.6069 55.602 48.0765 52.7903 43.1782C49.9462 38.316 47.4303 33.1196 45.1869 27.7304C42.995 22.3138 41.0687 16.6417 40.0625 10.5761L40.3708 10.4734Z" fill="#5F97BA"/>
<path d="M24.8035 60.0007C28.9153 63.8183 32.5673 68.3848 35.9813 73.208C39.3796 78.0558 42.5694 83.1719 45.3622 88.6581C48.1262 94.1796 50.5017 100.01 53.087 105.627C55.6721 111.24 58.453 116.696 61.4404 121.912C64.4548 127.06 67.5483 132.221 71.2106 136.045C73.0328 137.95 75.0878 139.315 77.2109 139.597C79.8937 140.018 82.4666 141.289 84.8024 142.65C93.9854 148.71 101.834 156.987 109.004 166.165L108.8 166.489C100.42 159.422 92.1449 152.019 83.3441 146.681C81.1183 145.399 78.9757 144.393 76.6743 143.874C73.7857 143.305 71.3092 141.37 69.3264 139.117C65.3123 134.566 62.5683 128.882 60.0079 123.221C57.4514 117.539 55.0134 111.812 52.227 106.378C49.4505 100.939 46.3256 95.828 43.2381 90.7452C37.195 80.4362 31.1845 70.1632 24.5964 60.325L24.8035 60.0007Z" fill="#5F97BA"/>
<path d="M31.5636 152.066C38.2491 159.028 45.331 165.208 53.2127 168.359C55.1699 169.148 57.1885 169.84 59.2666 169.997C61.2983 170.305 63.6139 170.148 65.7482 170.426C70.0935 170.788 74.4073 171.419 78.7021 172.449C87.3003 174.511 95.4743 179.247 102.668 185.709C109.736 192.421 115.806 200.916 120.213 210.691L119.96 210.951C113.982 202.851 107.644 195.558 100.713 189.39C97.2062 186.415 93.7086 183.367 89.91 181.004C86.1313 178.63 82.2723 176.381 78.2336 174.658C74.1979 172.959 69.9703 171.813 65.6838 171.772C63.5059 171.635 61.4887 172.18 59.2008 172.314C56.9544 172.547 54.6971 172.243 52.4908 171.713C48.0801 170.504 44.1116 167.664 40.5634 164.35C37.0132 160.999 33.8642 156.981 31.3278 152.349L31.5636 152.066Z" fill="#5F97BA"/>
<path d="M83.2997 27.6761C85.5006 30.435 87.3534 33.5487 89.1026 36.7561C90.8237 39.9878 92.442 43.3269 93.7288 46.9159C94.9794 50.5371 95.9615 54.329 97.1267 57.9663L98.9909 63.3575C99.6146 65.1558 100.367 66.8842 100.951 68.7268C101.609 70.5249 102.255 72.3476 102.737 74.2744C103.31 76.1479 103.66 78.1496 103.988 80.1655C104.419 82.1334 104.406 84.3117 104.623 86.3952C104.541 88.5234 104.447 90.9088 104.092 92.7732C103.424 96.7014 102.682 100.619 101.711 104.477C100.693 108.311 99.7141 112.192 97.9731 115.721L97.6997 115.521C98.4013 111.677 98.8057 107.7 99.2807 103.784L100.769 92.021C102.158 84.7636 100.596 77.1914 99.3135 69.5656C98.5932 65.7611 97.5737 62.0425 96.1953 58.5776C94.8267 55.1023 93.0366 51.9345 91.4109 48.6807C88.331 42.027 85.5011 35.2119 83.0404 27.9207L83.2997 27.6761Z" fill="#5F97BA"/>
<path d="M115.794 49.4043C117.467 52.8984 118.608 56.7289 119.571 60.6293C120.509 64.54 121.237 68.5664 121.519 72.6874C121.759 76.8256 121.6 80.9948 121.605 85.1004C121.598 89.21 121.763 93.3033 121.737 97.4613C121.782 105.767 120.379 114.291 117.507 122.004C114.537 129.662 109.885 136.194 104.371 140.369L104.176 140.042C108.403 133.816 111.925 127.299 114.453 120.096C115.72 116.512 116.918 112.862 117.797 109.035C118.624 105.201 119.381 101.302 119.99 97.3136C120.564 93.3204 120.8 89.2327 120.564 85.1973C120.325 81.1579 119.561 77.2168 118.88 73.3197C117.699 65.4642 116.585 57.6525 115.49 49.5741L115.794 49.4043Z" fill="#5F97BA"/>
<path d="M141.857 45.2546C140.618 51.8036 139.616 58.3783 139.103 64.9007C138.883 68.1593 138.773 71.41 138.944 74.5766C139.168 77.7774 139.651 80.6488 140.576 83.5892C141.5 86.6565 142.472 89.7725 143.179 93.0762C143.878 96.3762 144.206 99.8877 143.973 103.33C143.489 110.249 141.282 116.62 138.964 122.724C137.764 125.767 136.483 128.794 135.311 131.67C134.156 134.613 133.09 137.632 132.113 140.702C130.142 146.837 128.477 153.156 126.875 159.506C123.588 172.182 120.709 185.076 117.717 198.035L117.401 197.969C118.405 184.513 120.592 171.224 123.625 158.207C125.171 151.706 127.132 145.35 129.368 139.142C130.446 136.016 131.736 132.995 133.112 130.052C134.504 127.054 136.057 124.41 137.448 121.603C140.187 116.029 142.715 109.875 142.932 103.286C143.181 96.6361 140.436 90.991 138.143 85.1492C136.938 82.0853 136.225 78.4143 136.102 74.9398C135.971 71.4271 136.201 67.9555 136.632 64.5532C137.533 57.7552 139.219 51.224 141.551 45.1095L141.857 45.2546Z" fill="#5F97BA"/>
<path d="M15.3463 156.12C17.188 156.103 18.8853 156.367 20.5595 156.682C22.2341 157.006 23.8653 157.329 25.467 158.094C27.0706 158.831 28.7734 159.447 30.4771 159.132C32.1809 158.881 33.7786 157.838 35.1789 156.807L34.4514 157.726C34.7153 156.209 34.9772 154.468 35.0766 152.834C35.171 151.172 35.212 149.55 35.2212 147.919C35.2166 146.29 35.1404 144.654 34.9193 143.003C34.7468 141.32 34.3802 139.676 34.012 137.845L34.2723 137.59C35.3991 138.719 36.4568 140.14 37.1256 141.879C37.8327 143.588 38.3271 145.503 38.4928 147.473C38.7034 149.437 38.6251 151.453 38.2952 153.38C37.9579 155.329 37.5348 157.14 36.7659 159.009L36.4364 159.808L36.0384 159.928C34.1387 160.501 32.2868 160.332 30.5206 160.458C28.7517 160.44 26.9803 160.852 25.1408 161.098C23.3026 161.337 21.5405 160.779 19.8643 160.018C18.1949 159.22 16.5849 158.177 15.2189 156.518L15.3463 156.12Z" fill="#5F97BA"/>
<path d="M22.4266 167.501C25.1889 166.122 27.7316 165.395 30.3249 164.983C31.6323 164.894 33.0411 165.024 34.3078 164.417C35.5751 163.853 36.677 162.668 37.3482 161.222C38.6855 158.369 39.0709 155.325 39.2718 152.043C39.5635 148.758 39.629 145.305 39.9202 141.503L40.2295 141.367C41.9613 144.475 42.7227 148.264 42.7037 152.212C42.6604 154.191 42.2396 156.21 41.5913 158.103C40.9935 160.021 39.8959 161.762 38.5669 162.861C37.2662 163.994 35.977 164.796 34.7092 165.669C33.4541 166.552 32.2161 167.776 30.8357 168.448C29.4609 169.125 28.007 169.254 26.5873 169.181C25.1659 169.075 23.7491 168.798 22.4012 167.929L22.4266 167.501Z" fill="#5F97BA"/>
<path d="M31.0213 173.875C32.0893 172.548 33.2236 171.601 34.3641 170.704C35.5134 169.837 36.6447 168.994 37.889 168.487C39.1375 167.993 40.5102 167.752 41.6573 166.909C42.7759 166.091 43.8019 164.766 44.1229 163.317C44.5989 160.454 44.4328 157.086 44.4359 153.77C44.5416 150.413 44.6834 146.98 45.3209 143.332L45.6385 143.252C47.0576 146.463 47.6723 149.97 47.8742 153.576C47.9458 155.385 47.764 157.234 47.4845 159.086C47.2287 160.926 46.7007 162.874 45.6082 164.517C44.4901 166.076 43.2912 166.901 42.2153 168.05C41.1293 169.146 40.1698 170.631 39.0178 171.67C37.8675 172.707 36.5634 173.304 35.2463 173.761C33.9206 174.187 32.5651 174.486 31.1137 174.282L31.0213 173.875Z" fill="#5F97BA"/>
<path d="M37.3138 178.873C37.7798 177.147 38.626 175.79 39.5387 174.563C40.4899 173.399 41.5166 172.306 42.6936 171.594C43.8782 170.894 45.2025 170.667 46.4538 170.385C47.7002 170.076 48.8684 169.586 50.0324 168.924L49.5507 169.664C49.4566 167.764 49.1083 165.849 49.0552 163.963C49.0003 162.075 48.8898 160.195 48.9023 158.326C48.9937 154.557 49.3885 150.935 49.9607 146.98L50.2768 146.882C51.1194 148.603 51.5927 150.536 51.9009 152.454C52.2097 154.381 52.3813 156.325 52.3552 158.265C52.3257 160.206 52.1034 162.135 51.891 164.055C51.6788 165.979 51.138 167.866 50.785 169.772L50.6585 170.458L50.3033 170.513C49.1113 170.697 47.9328 171.128 46.9057 172.023C45.8622 172.874 44.9794 174.075 43.9933 174.89C41.9776 176.461 39.9599 177.835 37.5511 179.152L37.3138 178.873Z" fill="#5F97BA"/>
<path d="M43.025 182.44C44.0026 180.917 45.0956 179.775 46.2005 178.689C47.3174 177.629 48.4332 176.616 49.6837 175.919C50.9237 175.223 52.3368 174.813 53.4346 173.788C53.9599 173.292 54.494 172.639 54.7009 171.981C54.7928 171.807 54.782 171.675 54.7738 171.588C54.7916 171.53 54.7716 171.358 54.7155 171.132C54.6503 170.742 54.5109 170.308 54.4061 169.896C53.903 168.222 53.4522 166.481 53.2038 164.666C52.9192 162.864 52.6839 161.004 52.7168 159.091C52.8012 155.382 53.6226 151.019 56.0148 148.411L56.2856 148.629C55.8293 152.349 55.9929 155.481 56.1515 158.904C56.2181 160.591 56.182 162.319 56.2246 164.079C56.2913 165.83 56.2678 167.628 56.1523 169.501L56.0793 170.939C56.0926 171.276 55.9057 172.36 55.6479 172.665C55.1607 173.598 54.5954 174.132 54.0863 174.826C53.0469 176.117 52.139 177.7 51.0347 178.924C49.9292 180.126 48.6411 180.902 47.3352 181.577C46.0153 182.219 44.6576 182.746 43.1577 182.819L43.025 182.44Z" fill="#5F97BA"/>
<path d="M49.0205 185.743C50.2407 184.222 51.4953 183.04 52.7548 181.915C54.0159 180.788 55.2424 179.7 56.6746 178.981C58.0878 178.236 59.5718 177.411 60.6004 175.902C61.6635 174.449 62.3027 172.536 62.7283 170.74L62.9262 172.622C61.6425 171.209 61.034 169.617 60.4337 167.888C59.8758 166.167 59.563 164.325 59.5351 162.484C59.4808 160.639 59.7286 158.823 60.0537 157.075C60.4209 155.33 60.9921 153.673 61.738 152.141L62.0504 152.227C62.3794 155.76 62.4904 158.953 62.8803 161.972C63.0798 163.469 63.2258 164.946 63.4935 166.381C63.7347 167.779 64.2386 169.251 64.6378 170.311L65.1539 171.685L64.8358 172.194C63.7196 173.984 62.4087 175.319 61.2849 176.813C60.083 178.19 59.1278 179.952 57.9862 181.569C56.8479 183.18 55.3821 184.176 53.8829 184.945C52.3776 185.7 50.8012 186.243 49.1126 186.146L49.0205 185.743Z" fill="#5F97BA"/>
<path d="M56.8542 190.132C57.6752 188.139 58.667 186.489 59.7033 184.918C60.7393 183.342 61.8084 181.859 63.1525 180.71C64.4932 179.561 65.8692 178.357 66.7278 176.603C67.661 174.935 68.184 172.887 68.5791 171.025L68.7548 172.822C67.6013 171.312 67.0447 169.795 66.4573 168.132C65.8991 166.493 65.5607 164.753 65.4326 162.996C65.2834 161.238 65.3589 159.469 65.513 157.732C65.6932 155.993 66.0567 154.285 66.5858 152.635L66.9061 152.65C67.684 155.996 68.1253 159.13 68.7182 162.131L69.5336 166.571C69.8051 167.984 70.2768 169.51 70.6504 170.589L71.0967 171.876L70.8245 172.388C69.8103 174.297 68.5148 175.728 67.5118 177.395C66.4346 178.986 65.6598 180.897 64.8151 182.808C63.9683 184.713 62.736 186.149 61.4266 187.422C60.1117 188.69 58.7068 189.815 57.0469 190.461L56.8542 190.132Z" fill="#5F97BA"/>
<path d="M73.7297 155.651C74.5728 158.643 74.982 161.386 75.3921 164.149C75.5589 165.53 75.5004 167.002 75.5994 168.485C75.6764 169.978 76.1121 171.335 76.7316 172.513L76.9303 172.891L76.6543 173.359C75.7499 174.897 75.1867 176.833 74.4613 178.517L72.2709 183.502C71.5463 185.135 70.6949 186.654 69.8889 188.237L67.3719 193.148L67.0574 193.076C66.8011 190.986 67.0035 188.831 67.4368 186.816C67.8879 184.807 68.5233 182.882 69.3753 181.154C70.2565 179.448 71.2637 177.878 72.3317 176.397C73.4323 174.938 74.7667 173.798 75.8886 172.41L75.8114 173.256C75.3449 171.848 74.7646 170.559 74.1214 169.235C73.4701 167.923 72.8035 166.522 72.5648 164.975C72.3177 163.431 72.2877 161.84 72.391 160.263C72.5189 158.687 72.7878 157.109 73.4122 155.618L73.7297 155.651Z" fill="#5F97BA"/>
<path d="M98.6945 166.439C99.2309 169.571 99.3628 172.381 99.4941 175.213C99.521 176.624 99.3159 178.081 99.2669 179.577C99.1939 181.081 99.4898 182.514 99.9873 183.795L100.147 184.207L99.8267 184.629C98.7771 186.006 98.0257 187.842 97.1398 189.395L94.4715 193.987C93.5882 195.492 92.5957 196.859 91.6405 198.297L88.6551 202.759L88.3523 202.632C88.3069 200.502 88.7226 198.386 89.3511 196.45C89.9978 194.525 90.8188 192.715 91.8381 191.136C92.8818 189.589 94.0372 188.196 95.2421 186.904C96.4781 185.638 97.9124 184.733 99.1631 183.544L99.0041 184.376C98.6825 182.888 98.2353 181.503 97.7292 180.066C97.215 178.642 96.6942 177.129 96.6139 175.542C96.5234 173.961 96.6506 172.362 96.9116 170.808C97.1956 169.257 97.6208 167.729 98.3867 166.349L98.6945 166.439Z" fill="#5F97BA"/>
<path d="M81.3452 156.695C81.9713 158.175 82.3179 159.667 82.6366 161.158C82.9019 162.659 83.1734 164.145 83.24 165.671C83.2996 167.197 83.0573 168.801 83.0241 170.379C82.9871 171.953 83.2612 173.454 83.7079 174.869L83.7941 175.14L83.562 175.633C82.8327 177.178 82.3514 178.994 81.7153 180.556C81.0677 182.132 80.5555 183.763 80.0264 185.312C79.4903 186.857 78.9043 188.351 78.5131 189.906C78.1168 191.464 77.7885 193.054 77.792 195.015L77.4993 195.197C76.4071 193.785 75.9034 191.588 75.9069 189.502C75.8845 187.387 76.2727 185.336 76.91 183.509C77.5555 181.674 78.4478 180.056 79.3786 178.536C80.3137 176.999 81.5257 175.816 82.6565 174.547L82.5107 175.311C82.4042 173.724 82.1815 172.206 81.7315 170.733C81.2903 169.26 80.6779 167.808 80.438 166.263C80.198 164.717 80.2079 163.126 80.2545 161.538C80.3597 159.941 80.5221 158.338 81.0299 156.719L81.3452 156.695Z" fill="#5F97BA"/>
<path d="M88.4341 159.142C89.0601 160.622 89.4067 162.114 89.7254 163.605C89.9907 165.106 90.2638 166.59 90.3287 168.118C90.3884 169.644 90.146 171.248 90.1128 172.826C90.0759 174.399 90.3499 175.901 90.7967 177.316L90.8829 177.586L90.6508 178.079C89.9215 179.625 89.4402 181.44 88.8041 183.003C88.1584 184.581 87.6442 186.21 87.1152 187.759C86.579 189.303 85.9931 190.797 85.6019 192.352C85.2056 193.91 84.8754 195.499 84.8808 197.462L84.5899 197.646C83.4977 196.234 82.994 194.037 82.9959 191.953C82.9735 189.839 83.3618 187.788 83.999 185.961C84.6445 184.126 85.5369 182.507 86.4677 180.987C87.4028 179.451 88.6148 178.267 89.7456 176.998L89.5978 177.76C89.4914 176.173 89.2686 174.655 88.8187 173.182C88.3793 171.711 87.7651 170.258 87.5251 168.712C87.2871 167.169 87.2951 165.576 87.3417 163.987C87.4469 162.39 87.6093 160.788 88.1152 159.167L88.4341 159.142Z" fill="#5F97BA"/>
<path d="M20.0295 148.522C21.3087 148.449 22.4267 148.748 23.5155 149.112C24.5953 149.501 25.6461 149.93 26.5743 150.738C27.4943 151.554 28.3434 152.684 29.3781 153.197C30.3701 153.689 31.6317 153.831 32.4443 153.324L31.6142 154.548C31.2902 153.25 30.9936 151.883 30.7505 150.576C30.4825 149.258 30.1264 148.005 29.898 146.713C29.446 144.094 28.9542 141.631 28.3498 138.6L28.5902 138.316C30.8172 139.628 32.3148 142.393 33.1374 145.273C33.5464 146.734 33.681 148.301 33.7519 149.839C33.8441 151.388 33.7618 152.911 33.4523 154.515L33.1925 155.858L32.6206 155.741C31.1617 155.441 30.2186 154.769 29.0641 154.468C27.9554 154.12 26.7041 154.228 25.5432 153.967C24.3945 153.677 23.3922 152.935 22.4371 152.11C21.4909 151.256 20.5903 150.291 19.8754 148.896L20.0295 148.522Z" fill="#5F97BA"/>
<path d="M7.75543 56.4217C9.65908 56.3314 11.416 56.688 13.131 57.1943C14.8549 57.6719 16.4978 58.4095 18.0332 59.6459C19.5716 60.8729 21.2309 61.6883 22.9907 61.9075C24.7411 62.1463 26.5747 61.9145 28.1953 61.8692L26.7721 63.0484C27.0238 61.8059 27.2274 60.2545 27.3173 58.8373C27.4281 57.3921 27.5393 55.9561 27.5992 54.4973C27.7631 51.5645 27.6106 48.6356 27.4173 45.3124L27.7064 45.1248C29.4695 47.5117 30.4872 50.8172 30.789 54.2262C30.9489 55.9364 30.9103 57.6871 30.6476 59.3903C30.3689 61.1186 30.0023 62.6943 29.3767 64.4398L28.8952 65.782L27.9519 65.6215C26.0356 65.2932 24.3958 64.1417 22.7054 63.3899C21.0249 62.598 19.2759 62.2288 17.4316 62.1718C15.5812 62.1294 13.8597 61.5052 12.2392 60.5452C10.6098 59.6139 9.03358 58.4857 7.63187 56.8177L7.75543 56.4217Z" fill="#5F97BA"/>
<path d="M14.3942 67.7381C16.09 67.3509 17.6463 67.4593 19.1728 67.6886C19.9303 67.8246 20.6876 67.9561 21.4136 68.2454C22.1428 68.5297 22.8439 68.9965 23.5599 69.4201C24.9775 70.3196 26.5304 70.6805 28.0568 70.307C29.5208 69.9672 31.1588 69.0377 31.6031 68.4344L31.331 68.8218C31.6552 67.962 32.0026 66.7989 32.2821 65.7572L33.1903 62.5425C33.7973 60.3541 34.2246 58.0867 34.7552 55.4548L35.0705 55.3801C36.1308 57.7055 36.4559 60.5518 36.2289 63.3055C36.1264 64.6923 35.8668 66.0637 35.4464 67.3514C35.0046 68.6625 34.4956 69.7925 33.7509 71.0552L33.5619 71.3764L33.4787 71.4427C31.2741 73.2464 29.5812 72.3588 27.9931 72.0531C26.4075 71.6346 24.8782 71.4493 23.2307 71.7658C21.5793 72.1081 19.9857 71.8901 18.5026 71.1874C17.0129 70.5245 15.5683 69.6378 14.2915 68.1417L14.3942 67.7381Z" fill="#5F97BA"/>
<path d="M21.8542 80.8498C23.4565 80.2932 24.9751 80.1755 26.4787 80.1654C27.982 80.1507 29.4539 80.2598 30.893 80.8812C32.3303 81.5005 33.8178 82.1154 35.3015 81.8391C36.0334 81.7564 36.7859 81.5421 37.4342 81.1443C38.1176 80.8452 38.6693 80.1777 38.8026 79.8794L38.6407 80.1334C39.0224 78.8754 39.4735 77.4242 39.7655 76.0243L40.6102 71.7899C41.2148 68.9529 41.4983 66.0697 41.865 62.7042L42.1755 62.5887C43.6496 65.3655 44.1525 68.9674 43.8762 72.4242C43.7492 74.1648 43.3729 75.8702 42.8 77.4482C42.2283 79.0489 41.6233 80.5187 40.6795 81.9698L40.5141 82.2242C39.4285 83.1545 38.5047 83.1965 37.6915 83.1938C36.8575 83.2237 36.0882 83.1323 35.3151 83.1609C33.778 83.0997 32.2479 83.5477 30.6764 83.9369C29.1068 84.3282 27.5832 84.0376 26.0971 83.5742C24.6107 83.1063 23.149 82.4558 21.7848 81.2659L21.8542 80.8498Z" fill="#5F97BA"/>
<path d="M28.8925 88.4925C30.3217 87.9641 31.6518 87.8786 32.9603 87.9063C34.2714 87.9198 35.5436 88.0788 36.7729 88.7558C37.9994 89.4125 39.2795 90.0642 40.5771 89.8315C41.8004 89.765 43.2989 88.8206 43.6485 88.0888L43.2819 88.669L44.1369 84.8849C44.3902 83.6057 44.6946 82.37 45.0539 81.1522L47.3129 73.5651L47.6312 73.5313C48.6489 76.2446 48.6187 79.3636 48.2358 82.2087C48.0275 83.6404 47.674 85.0274 47.18 86.3277C46.6955 87.6428 46.2077 88.8986 45.5332 90.1452L45.2425 90.6806L45.165 90.7279C43.2178 91.9006 41.938 91.065 40.5633 91.1611C39.2228 91.0252 37.8774 91.4022 36.4859 91.7625C35.0979 92.1222 33.7683 91.8056 32.4861 91.3058C31.2039 90.8059 29.9498 90.1231 28.8107 88.9033L28.8925 88.4925Z" fill="#5F97BA"/>
<path d="M34.134 96.3891C35.7577 95.9386 37.3018 95.9932 38.8212 96.1999C40.3362 96.4187 41.8389 96.7603 43.2102 97.708C44.5861 98.6436 45.9066 99.74 47.3737 100.222C48.8352 100.855 50.328 100.891 52.0383 101.731L50.2057 102.89C50.1148 101.206 50.2064 99.5322 50.2305 97.8605C50.2703 96.189 50.3414 94.5224 50.5539 92.871C50.9993 89.5609 51.5511 86.296 52.6006 82.9707L52.9197 82.9733C53.7818 86.354 53.9135 89.7852 53.8778 93.1681C53.8462 94.8614 53.6524 96.5377 53.4115 98.2089C53.1532 99.8779 52.9521 101.546 52.5404 103.199L51.8694 105.906L50.7077 104.358C49.8361 103.198 48.4413 102.046 47.0604 101.459C45.6649 100.766 44.0861 100.835 42.5558 100.779C41.0183 100.748 39.5997 100.171 38.1851 99.5083C36.7751 98.8337 35.385 98.0488 34.0617 96.8086L34.134 96.3891Z" fill="#5F97BA"/>
<path d="M41.6266 109.639C42.8576 109.077 44.0296 108.93 45.1943 108.84C46.3531 108.803 47.5036 108.804 48.6161 109.128C49.7272 109.458 50.8017 110.233 51.9176 110.586C52.9929 110.963 54.273 110.945 55.1783 110.512L54.6088 111.281C54.5992 109.555 54.4638 107.792 54.6303 106.097C54.7701 104.394 54.8587 102.678 55.1344 101.005C55.7353 97.6706 56.6294 94.4073 58.1761 91.3456L58.4893 91.4299C59.0265 95.0474 58.9129 98.4607 58.5027 101.808C58.2719 103.475 57.8575 105.098 57.4909 106.735C57.1525 108.377 56.5125 109.957 55.9965 111.57L55.7468 112.354L55.427 112.339C54.0329 112.284 53.0083 111.971 51.7973 112.169C50.6229 112.305 49.4116 112.781 48.2408 112.792C47.0733 112.798 45.9433 112.442 44.8264 112.037C43.7149 111.573 42.6135 111.038 41.5715 110.063L41.6266 109.639Z" fill="#5F97BA"/>
<path d="M47.9696 121.485C48.9717 120.668 49.9791 120.294 50.9867 119.99C51.9953 119.734 53.0037 119.538 54.0056 119.7C55.0088 119.884 55.9972 120.499 56.9934 120.685C57.9891 120.891 58.9936 120.721 60.0119 120.355L59.2275 121.228C59.1159 119.74 58.9816 118.252 59.12 116.803C59.2251 115.351 59.3205 113.881 59.6138 112.457C59.9176 111.032 60.3805 109.645 60.9701 108.308C61.5737 107.003 62.34 105.613 63.4953 104.819L63.7339 105.095C63.5295 106.583 63.5382 107.945 63.4066 109.328C63.3049 110.715 63.1852 112.09 62.9525 113.443C62.7251 114.798 62.3463 116.127 62.014 117.478C61.7169 118.833 61.186 120.158 60.7235 121.489L60.3723 122.497L59.939 122.362C58.9536 122.055 57.9577 121.939 56.9531 122.203C55.9472 122.445 54.937 123.116 53.9381 123.357C52.9398 123.577 51.9477 123.435 50.9542 123.235C49.9616 122.989 48.9666 122.667 47.9685 121.909L47.9696 121.485Z" fill="#5F97BA"/>
<path d="M53.036 128.967C54.1412 128.109 55.2817 127.794 56.4147 127.63C57.546 127.498 58.692 127.506 59.7669 128.021C60.8409 128.553 61.8103 129.522 62.8472 129.978C63.8885 130.453 64.9737 130.714 66.1517 130.925L64.8253 131.997C64.5858 130.551 64.4903 129.132 64.5145 127.708C64.5161 126.285 64.5101 124.849 64.7264 123.441C65.1811 120.649 65.9081 117.781 67.4819 115.361L67.787 115.471C68.1902 118.471 68.2289 121.162 68.0977 123.927C68.0219 125.298 67.7713 126.651 67.5525 128.014C67.3581 129.378 67.0666 130.746 66.6733 132.096L66.1048 134.052L65.3453 133.17C64.5503 132.245 63.6024 131.54 62.5586 131.272C61.5078 131.006 60.3593 131.363 59.2912 131.475C58.2216 131.56 57.214 131.255 56.1794 130.934C55.1467 130.585 54.111 130.181 53.0407 129.401L53.036 128.967Z" fill="#5F97BA"/>
<path d="M58.5733 140.288C59.454 139.265 60.3957 138.684 61.3486 138.179C62.3078 137.724 63.2775 137.333 64.2846 137.305C65.2944 137.293 66.3428 137.728 67.351 137.783C68.3642 137.866 69.3319 137.567 70.3527 137.184L69.6251 138.161C69.3853 136.662 69.1566 135.175 69.2351 133.68C69.2896 132.191 69.3511 130.672 69.6705 129.201C70.3413 126.334 71.6719 123.322 73.9087 121.813L74.1573 122.075L73.5702 126.304C73.3881 127.634 73.2488 128.947 73.0071 130.241C72.7743 131.536 72.4274 132.826 72.1509 134.155C71.9126 135.479 71.4415 136.83 71.1063 138.171L70.831 139.269L70.3786 139.148C69.4242 138.894 68.4195 138.903 67.4668 139.318C66.5076 139.708 65.5915 140.533 64.6435 140.935C63.6928 141.322 62.7043 141.37 61.7081 141.376C60.7076 141.333 59.695 141.23 58.6245 140.71L58.5733 140.288Z" fill="#5F97BA"/>
<path d="M67.1866 147.887C68.0537 146.448 69.1084 145.499 70.2084 144.708C71.3132 143.939 72.4746 143.279 73.7473 143.246C75.0229 143.203 76.3028 143.426 77.4949 143.101C78.7014 142.848 79.8768 142.222 81.1689 141.78L80.1206 143.892C79.4 142.567 79.0478 141.212 78.715 139.766C78.402 138.329 78.2108 136.821 78.2892 135.297C78.4334 132.268 79.2946 129.168 81.0059 127.016L81.3007 127.169C81.4332 130.181 81.4426 132.636 81.6653 135.129L81.8414 138.867C81.8979 140.115 82.0951 141.416 82.1581 142.623L82.2906 145.158L81.1116 144.737C80.0093 144.345 78.7989 144.082 77.636 144.366C76.4623 144.612 75.4003 145.587 74.3572 146.398C73.3159 147.241 72.1822 147.579 71.0157 147.893C69.8485 148.194 68.6544 148.417 67.3114 148.283L67.1866 147.887Z" fill="#5F97BA"/>
<path d="M77.215 152.744C77.7911 151.462 78.5506 150.559 79.3426 149.74C80.159 148.982 81.0081 148.277 81.9482 147.861C82.8859 147.435 83.9562 147.512 84.9503 147.41C85.9504 147.323 86.8717 146.977 87.7915 146.48L87.3273 147.476C86.8414 146.015 86.2079 144.602 85.9401 143.038C85.6781 141.484 85.4749 139.888 85.4901 138.258C85.6067 135.042 86.5185 131.603 88.4833 129.292L88.7754 129.456C88.8951 132.774 88.9643 135.43 88.9439 138.267L88.7412 142.553C88.7101 143.99 88.4262 145.564 88.4822 147.027L88.5192 147.984L88.0181 148.024C87.0838 148.102 86.1592 148.418 85.3459 149.137C84.5265 149.84 83.7992 150.787 82.9717 151.344C82.1442 151.9 81.2449 152.232 80.3362 152.583C79.4066 152.872 78.4598 153.134 77.368 153.11L77.215 152.744Z" fill="#5F97BA"/>
<path d="M84.406 158.045C84.8654 156.703 85.5478 155.757 86.2771 154.902C87.0228 154.09 87.819 153.339 88.7639 153.002C89.7146 152.675 90.7712 152.779 91.7092 152.572C92.6568 152.379 93.5117 151.899 94.4927 151.39L93.7855 152.808C93.1881 151.611 92.702 150.403 92.4892 149.045C92.2498 147.714 92.0747 146.312 92.1746 144.887C92.4173 142.083 93.5513 139.081 95.5696 137.692L95.8293 137.931C95.6308 140.775 95.6175 142.821 95.6134 145.066L95.4545 148.469C95.4684 149.612 95.3407 150.881 95.3018 152.082L95.2472 153.695L94.5928 153.497C93.7537 153.246 92.8244 153.39 92.0301 153.954C91.221 154.501 90.5862 155.582 89.8636 156.272C89.1338 156.959 88.3021 157.353 87.4383 157.732C86.5622 158.081 85.6594 158.388 84.5789 158.391L84.406 158.045Z" fill="#5F97BA"/>
<path d="M68.2806 98.066C71.6463 97.6527 74.7466 97.9831 77.8035 98.7286C79.3162 99.1954 80.8382 99.9897 82.4137 100.046C83.9609 100.126 85.606 99.5823 86.7685 98.4623C88.0501 97.1652 87.8179 96.3944 88.3235 93.876C88.7046 91.7514 89.204 89.689 89.6303 87.8157C90.1105 85.942 90.3991 84.2251 90.4652 82.3269C90.5349 80.4282 90.3363 78.3704 90.1408 76.1788L90.4298 75.9881C91.5726 77.5805 92.5106 79.4994 92.9665 81.8029C93.4776 84.0989 93.3325 86.6812 92.9203 88.9042C92.474 91.1411 91.8091 93.0765 91.1984 95.0161C90.8444 96.0178 90.7586 96.8017 90.0481 98.2882C89.3625 99.5622 88.3548 100.202 87.4773 100.552C85.6824 101.222 84.057 101.145 82.4212 101.417C80.7941 101.625 79.1191 102.196 77.4567 102.237C75.8007 102.268 74.1965 101.815 72.6412 101.207C71.091 100.566 69.5727 99.7761 68.1863 98.4717L68.2806 98.066Z" fill="#5F97BA"/>
<path d="M67.9128 89.8184C69.5602 89.6534 71.0584 89.7522 72.5275 89.8917C74.0017 89.9983 75.4092 90.1899 76.8337 90.7217C78.251 91.2499 79.8146 91.5536 81.2268 90.8501C82.6513 90.2117 83.7682 88.7619 84.6475 87.4269L84.2139 88.3154L84.6196 83.7865C84.7154 82.2676 84.893 80.7792 85.1038 79.2931L86.4127 70.1589L86.726 70.0592C88.1076 72.9142 88.4217 76.3733 88.3876 79.6151C88.3523 81.2522 88.1785 82.8735 87.849 84.4515C87.5341 86.0414 87.2005 87.5763 86.7087 89.1463L86.4803 89.8715L86.2716 90.0353C84.7104 91.2601 83.0109 91.6506 81.4722 92.1459C79.9042 92.5186 78.3868 93.1789 76.7494 93.715C75.1122 94.2557 73.4803 93.9106 71.9672 93.2896C70.4503 92.6599 68.9935 91.7623 67.7938 90.2184L67.9128 89.8184Z" fill="#5F97BA"/>
<path d="M64.6434 81.4023C67.5437 80.9737 70.1398 81.2554 72.6783 81.9153C73.9317 82.3692 75.2095 83.0775 76.5299 83.0394C77.8217 83.0512 79.1889 82.28 79.8007 81.0475C80.2989 79.9683 80.4338 78.3033 80.6192 76.7328C80.7557 75.1298 80.7379 73.4763 80.788 71.7907C80.9433 68.4074 81.0125 64.9161 81.476 61.1484L81.7873 61.042C83.3561 64.2499 84.0622 67.8987 84.2098 71.6896C84.2604 73.5893 84.0088 75.5413 83.5797 77.4645C83.1463 79.3399 82.5196 81.4093 80.9292 82.7786C79.4265 83.9061 77.9929 84.0722 76.6083 84.3995C75.2242 84.706 73.7808 85.3587 72.3475 85.435C70.9135 85.5321 69.5434 85.0778 68.2319 84.4868C66.924 83.8655 65.6545 83.0894 64.5402 81.8072L64.6434 81.4023Z" fill="#5F97BA"/>
<path d="M60.8559 73.3244C63.986 72.7887 66.8424 72.9555 69.6481 73.4353C71.0321 73.7618 72.4779 74.4185 73.8964 74.1348C75.3144 73.9064 76.6083 72.7208 76.7295 71.0559C77.0765 67.6912 76.669 63.9013 76.4251 60.1674C76.2967 56.3766 76.1558 52.516 76.5119 48.3972L76.8233 48.286C78.4906 51.7631 79.3858 55.6024 79.8357 59.5939C80.0434 61.592 79.9933 63.6617 79.8342 65.7484C79.7088 67.8122 79.3134 70.0116 78.3179 71.9903C77.8472 73.0117 77.0883 73.8049 76.3619 74.3635C75.5995 74.8395 74.8513 75.1593 74.0921 75.4713C72.5901 76.0449 71.0451 76.7555 69.4747 76.9745C67.9101 77.1698 66.3893 76.7996 64.9295 76.2692C63.4714 75.7064 62.05 74.9866 60.7651 73.735L60.8559 73.3244Z" fill="#5F97BA"/>
<path d="M57.3927 62.5965C58.8022 62.5094 60.0997 62.7268 61.3815 62.9739C62.6504 63.271 63.9024 63.5795 65.1057 64.0439C66.3085 64.4991 67.4355 65.3802 68.6397 65.8927C69.7737 66.4261 71.2983 66.4705 71.9556 65.6124L71.7681 66.0947C71.7738 63.9859 71.3639 61.8459 71.2476 59.765L70.8068 53.5577C70.6172 49.4177 70.5726 45.4465 70.3971 40.9923L70.69 40.8149C72.9899 44.1991 73.9644 48.7567 74.239 53.1148C74.3121 55.3278 74.1972 57.5387 74.0117 59.7315C73.8249 61.9314 73.2487 64.0737 72.9066 66.2348L72.8472 66.6103L72.7192 66.7172C71.9404 67.3597 71.1969 67.5359 70.5101 67.5736C69.8082 67.6845 69.1328 67.7091 68.4429 67.7862C67.063 67.9359 65.6528 68.0735 64.3422 67.7132C63.0305 67.3645 61.8037 66.6945 60.6066 65.9629C59.4256 65.1763 58.2787 64.2818 57.2703 62.9965L57.3927 62.5965Z" fill="#5F97BA"/>
<path d="M43.3439 51.1929C45.5989 50.87 47.7918 51.0891 49.9596 51.4514C52.1207 51.8489 54.2675 52.3973 56.309 53.3973C58.3516 54.4156 60.2608 55.9099 62.287 56.8846C64.2964 57.9302 66.3923 58.6572 68.5175 59.4421L67.2531 60.8682C66.4463 58.1873 65.8589 55.4584 65.456 52.6473C65.0092 49.8559 64.7062 46.9969 64.6418 44.0943C64.6055 41.1971 64.7601 38.2374 65.3026 35.3261C65.8282 32.456 66.7082 29.4694 68.3594 27.3474L68.6251 27.5727C67.9117 30.278 67.8278 32.9785 67.7813 35.6647C67.7749 38.3524 67.8452 41.0481 68.0325 43.7577C68.1729 46.4668 68.2817 49.2008 68.4625 51.9502C68.6805 54.6809 68.8511 57.4661 69.0168 60.2245L69.1708 62.7691L67.7525 61.6505C65.9279 60.2111 64.0061 58.9291 61.9397 58.1706C59.8816 57.3744 57.6734 57.2238 55.5578 56.7698C53.4414 56.3021 51.4053 55.4959 49.359 54.6614C47.3181 53.7987 45.2831 52.8871 43.2869 51.6083L43.3439 51.1929Z" fill="#5F97BA"/>
<path d="M37.0401 40.7947C39.3803 40.5836 41.6318 40.9302 43.8513 41.45C46.0621 41.9983 48.2555 42.702 50.2864 44.035C52.3197 45.3494 54.2696 46.8782 56.3779 47.8583C58.4615 48.9558 60.6629 49.647 62.8037 51.2802L60.8889 53C60.1845 50.6637 59.7272 48.2939 59.2662 45.8858C58.8277 43.4816 58.4713 41.0274 58.378 38.5149C58.2147 36.0187 58.3002 33.4569 58.5594 30.9082C58.8512 28.387 59.3715 25.7436 60.5651 23.6144L60.8557 23.7737C60.5752 26.218 60.7633 28.5671 60.9303 30.9098C61.0954 33.2506 61.3876 35.5741 61.6496 37.9154C61.9663 40.2448 62.1604 42.609 62.4152 44.9764L63.2039 52.08L63.7637 57.13L61.2891 53.7999C59.8848 51.9119 58.001 50.171 55.986 49.0642C53.9761 47.8608 51.7325 47.4378 49.52 47.0153C47.3062 46.5997 45.222 45.6804 43.1308 44.7277C41.0436 43.7539 38.9755 42.6862 36.9641 41.2045L37.0401 40.7947Z" fill="#5F97BA"/>
<path d="M35.2293 33.0597C36.888 32.414 38.5253 32.3257 40.145 32.3888C41.7567 32.4988 43.375 32.7271 44.8864 33.5038C46.3985 34.2942 47.7969 35.4804 49.2975 36.1554C50.7773 36.9273 52.3534 37.3354 53.9595 37.9091L52.545 39.2392C52.0747 37.2539 51.8613 35.2705 51.7255 33.2445C51.5712 31.228 51.4918 29.1875 51.6444 27.1341C51.8078 25.0884 52.0731 23.0312 52.598 21.026C53.1079 19.0297 53.8268 17.0464 54.9078 15.429L55.1998 15.5936C54.9771 19.6847 55.0434 23.3816 55.0149 27.2472C54.9936 29.1637 54.8966 31.0904 54.8039 33.0349C54.7387 34.9711 54.6667 36.9427 54.4791 38.8977L54.2409 41.3821L53.0628 40.2257C51.835 39.0188 50.4752 37.9352 48.9659 37.4171C47.4613 36.8572 45.8165 36.9672 44.2524 36.8416C42.6839 36.728 41.1993 36.1859 39.693 35.6583C38.1916 35.0934 36.6923 34.4709 35.1983 33.4741L35.2293 33.0597Z" fill="#5F97BA"/>
<path d="M34.4383 22.6561C35.9886 22.5932 37.4231 22.9488 38.8389 23.3734C40.2312 23.8744 41.6204 24.4148 42.9115 25.2523C44.1938 26.1185 45.3417 27.3783 46.5186 28.5036C47.7088 29.618 48.9725 30.4295 50.3109 31.3705L49.3306 32.3362C48.574 30.2452 47.7953 28.164 47.3857 25.8888C47.0012 23.6284 46.6457 21.2978 46.7109 18.8897C46.7643 16.49 47.1223 14.047 47.8671 11.7623C48.6279 9.48687 49.8183 7.4213 51.3298 6.05639L51.5748 6.31858C50.9658 8.5483 50.617 10.5918 50.3831 12.6426C50.1917 14.7106 50.1608 16.7638 50.1173 18.8416C50.0895 20.9195 50.065 23.0565 50.183 25.2018C50.3054 27.3304 50.2454 29.6119 50.5241 31.7468L50.8707 34.3878L49.5457 32.7147C48.571 31.4842 47.2931 30.5716 45.9277 30.0532C44.5425 29.5558 43.0934 29.2823 41.7531 28.6849C40.4218 28.0635 39.1737 27.1881 37.9155 26.3187C36.6792 25.3754 35.4529 24.3917 34.3246 23.0469L34.4383 22.6561Z" fill="#5F97BA"/>
<path d="M111.427 85.0171C111.424 86.8377 110.973 88.5889 110.363 90.1858C109.698 91.7309 108.925 93.2244 107.933 94.4122C106.939 95.5979 105.68 96.3497 104.528 97.1691C103.359 97.9792 102.362 98.9739 101.324 100.081L100.986 100.439L100.566 99.9282C99.4309 98.5465 98.2045 97.2638 97.2656 95.648C96.3356 94.0378 95.4483 92.3557 94.7598 90.519C94.0714 88.6823 93.6588 86.6487 93.399 84.5968C93.139 82.5403 93.1755 80.3776 93.517 78.2968L93.8331 78.2336C95.3122 81.8795 96.5644 85.1044 97.8482 88.4664C98.4493 90.1597 98.9948 91.9109 99.6415 93.6163C100.286 95.3062 100.751 97.2413 101.486 98.8869L100.732 98.7334C101.844 98.0699 102.894 97.0819 103.706 95.802C104.531 94.5228 105.16 93.0327 105.953 91.8376C106.746 90.6379 107.611 89.5608 108.447 88.4099C109.315 87.28 110.114 86.1046 111.133 84.8699L111.427 85.0171Z" fill="#5F97BA"/>
<path d="M111.93 69.4648C112.108 71.4643 111.841 73.3405 111.436 75.1529C111.016 76.9535 110.462 78.7425 109.436 80.1689C108.42 81.6055 107.269 82.8335 106.372 84.2815C105.432 85.6872 104.634 87.3304 103.399 88.7393L103.022 89.1684L102.25 88.7043C100.9 87.8967 100.044 86.7497 99.151 85.5113C98.2976 84.2608 97.5697 82.8628 97.0821 81.3199C96.5998 79.7787 96.3001 78.1486 96.1474 76.5101C96.0048 74.8657 96.065 73.1846 96.3228 71.5296L96.6376 71.4459C97.988 74.2196 98.9798 76.8195 100.096 79.2491C100.657 80.4498 101.132 81.6964 101.691 82.8789C102.219 84.0519 102.949 85.1954 103.497 86.1595L102.349 86.1266C103.524 85.7112 104.773 84.8137 105.648 83.4604C106.581 82.1541 106.942 80.2882 107.343 78.5909C107.731 76.8748 108.409 75.3807 109.115 73.8486C109.826 72.3226 110.589 70.8078 111.627 69.3432L111.93 69.4648Z" fill="#5F97BA"/>
<path d="M109.797 54.638C110.26 56.7965 110.218 58.936 109.986 61.0278C109.766 63.1248 109.269 65.1902 108.244 66.9669C107.235 68.7483 106.388 70.4987 105.689 72.4217C104.952 74.2902 104.32 76.5095 102.906 78.1299L102.028 79.1365L101.039 77.8475C99.4907 75.8243 97.9667 73.8068 96.8671 71.3214C95.7586 68.8647 94.7947 66.2255 94.3746 63.2032L94.6468 62.9691C96.5249 64.6932 98.0298 66.6466 99.472 68.6934C100.928 70.7085 102.032 73.1176 103.199 75.4288L101.332 75.1464C102.445 74.3055 103.813 73.2626 104.757 71.662C105.758 70.1157 106.19 68.0819 106.327 66.0421C106.447 63.9884 106.865 62.1193 107.421 60.2432C107.955 58.3607 108.569 56.4857 109.482 54.5934L109.797 54.638Z" fill="#5F97BA"/>
<path d="M106.573 42.5873C106.957 44.7834 106.882 46.9059 106.626 48.9772C106.401 51.058 105.84 53.0626 104.868 54.861C103.888 56.6603 103.234 58.5281 102.75 60.5705C102.215 62.5784 101.928 64.9156 100.164 66.7772L99.441 67.5408L98.5053 66.7212C97.513 65.8519 96.7641 65.0116 95.9988 64.0335C95.2649 63.0557 94.6439 61.9503 94.1116 60.78C93.0736 58.4174 92.2837 55.8537 92.0889 53.0098L92.3732 52.8015C94.0246 54.5531 95.3402 56.3959 96.6582 58.1903C97.3162 59.0841 97.9434 59.9868 98.5391 60.9189C99.1099 61.8406 99.7514 62.8446 100.3 63.5879L98.6428 63.5294C99.456 62.9465 100.771 61.5267 101.657 59.8847C102.541 58.1993 103.02 56.2104 103.071 54.1094C103.099 51.9955 103.434 50.0445 104.025 48.1461C104.581 46.2341 105.237 44.3521 106.258 42.5174L106.573 42.5873Z" fill="#5F97BA"/>
<path d="M101.462 33.0345C101.993 34.0843 102.158 35.1122 102.251 36.1337C102.315 37.1498 102.315 38.1631 101.991 39.1143C101.654 40.0648 101.009 40.9372 100.761 41.8827C100.509 42.8332 100.503 43.8359 100.612 44.8966C100.739 45.9596 100.764 47.0179 100.619 48.0346C100.505 49.0588 100.383 50.1047 100.038 51.077C99.3462 52.9322 98.2063 54.9538 96.3486 55.6032L96.1215 55.3138C96.3239 53.0295 96.4624 51.3619 96.846 49.5484C97.0513 48.6801 97.3926 47.8417 97.715 46.9783C98.0072 46.1029 98.423 45.2568 98.9031 44.4043C99.3726 43.5487 99.6955 42.63 99.7426 41.6471C99.7985 40.6654 99.4258 39.6012 99.3486 38.6098C99.2713 37.6185 99.5082 36.6907 99.7851 35.7597C100.086 34.8301 100.455 33.9099 101.139 33.0044L101.462 33.0345Z" fill="#5F97BA"/>
<path d="M94.7586 25.0397C95.5219 25.8147 95.9222 26.7441 96.2383 27.6918C96.5289 28.6498 96.7537 29.642 96.6292 30.6928C96.5081 31.7431 96.0466 32.8234 95.9925 33.828C95.9248 34.839 96.1022 35.8214 96.3871 36.833C96.6826 37.8477 96.8862 38.8977 96.8871 39.9545C96.9349 41.0118 96.934 42.1009 96.7231 43.1588C96.2414 45.2299 95.3021 47.3468 93.6362 48.4728L93.3625 48.2645C93.2081 45.901 93.2284 44.188 93.3819 42.3698C93.6876 40.6045 93.9577 38.7912 94.6383 36.8629C94.955 35.8962 95.1016 34.8997 94.9634 33.9349C94.8268 32.9675 94.2653 32.0736 93.979 31.1632C93.7081 30.2483 93.7316 29.2868 93.7918 28.2975C93.8777 27.3023 94.0148 26.2911 94.4468 25.1483L94.7586 25.0397Z" fill="#5F97BA"/>
<path d="M88.8671 18.6106C89.6054 19.243 89.9996 20.0157 90.3137 20.8106C90.6039 21.6133 90.8351 22.4446 90.7325 23.3507C90.6301 24.2613 90.2049 25.2247 90.1868 26.092C90.1602 26.9626 90.3821 27.7837 90.7307 28.6083C91.0897 29.4315 91.3637 30.2844 91.4661 31.1696C91.6061 32.0452 91.7286 32.9485 91.6538 33.8554C91.4475 35.6494 90.9235 37.5574 89.6044 38.9664L89.2977 38.8705C88.6077 36.9436 88.3477 35.4321 88.2537 33.8182C88.2237 33.0215 88.3596 32.2162 88.4561 31.3887C88.5307 30.571 88.7267 29.7255 88.9922 28.85C89.2457 27.9784 89.3432 27.105 89.1665 26.287C88.9948 25.466 88.4059 24.7471 88.1055 23.9801C87.8152 23.2071 87.8296 22.3655 87.886 21.5023C87.9679 20.6287 88.1077 19.7382 88.5577 18.7211L88.8671 18.6106Z" fill="#5F97BA"/>
<path d="M104.454 112.16C105.346 113.768 105.893 115.435 106.396 117.109C106.884 118.788 107.337 120.454 107.415 122.297C107.516 124.128 107.527 126.06 108.108 127.692C108.615 129.337 109.527 130.845 110.408 132.03L109.944 131.484C110.761 131.53 111.868 131.605 112.834 131.35C113.832 131.127 114.802 130.707 115.812 130.332C116.828 129.972 117.853 129.447 118.922 128.921C119.99 128.373 121.09 127.779 122.304 127.226L122.508 127.537C122.206 128.291 121.837 128.977 121.47 129.686C121.063 130.334 120.628 130.963 120.167 131.563C119.197 132.674 118.137 133.744 116.904 134.435C115.687 135.163 114.332 135.525 112.969 135.523C111.585 135.465 110.283 135.314 108.921 134.221L108.514 133.894L108.459 133.672C107.963 131.722 107.756 129.909 107.218 128.196C106.763 126.465 105.864 124.96 105.131 123.328C104.384 121.702 104.101 119.852 103.935 117.991C103.778 116.127 103.771 114.217 104.145 112.243L104.454 112.16Z" fill="#5F97BA"/>
<path d="M108.235 106.644C109.132 108.128 109.702 109.696 110.205 111.283C110.692 112.875 111.137 114.466 111.214 116.212C111.3 117.954 111.265 119.797 111.777 121.351C112.023 122.129 112.333 122.879 112.748 123.482C113.106 124.107 113.717 124.603 113.91 124.541L113.18 124.473C114.174 123.694 115.243 123.097 116.264 122.433C117.294 121.779 118.297 121.094 119.336 120.569L122.421 118.959C123.442 118.388 124.464 117.886 125.434 116.903L125.714 117.093C125.528 118.858 124.658 120.39 123.754 121.574C122.822 122.761 121.787 123.77 120.704 124.552C119.62 125.355 118.458 125.876 117.292 126.311C116.116 126.732 114.967 127.135 113.715 127.229L113.094 127.275L112.983 127.16C112.049 126.209 111.898 125.243 111.623 124.383C111.384 123.504 111.141 122.687 110.901 121.866C110.403 120.246 109.549 118.805 108.867 117.249C108.171 115.698 107.933 113.95 107.769 112.198C107.622 110.434 107.587 108.638 107.933 106.739L108.235 106.644Z" fill="#5F97BA"/>
<path d="M128.535 104.256C128.55 105.952 127.744 107.359 127.013 108.463C126.215 109.528 125.353 110.478 124.372 111.103C123.384 111.71 122.247 111.873 121.211 112.232C120.171 112.595 119.255 113.232 118.35 114.029L118.215 114.147L117.862 114.038C116.464 113.607 115.208 112.585 114.355 111.289C113.505 109.985 112.726 108.618 112.203 107.119C111.208 104.086 110.76 100.804 111.157 97.33L111.463 97.2135C113.127 99.7958 114.276 102.446 115.289 105.086C115.767 106.421 116.156 107.79 116.668 109.031C117.18 110.247 117.553 111.662 118.367 112.459L117.877 112.47C118.88 112.164 119.848 111.623 120.673 110.746C121.498 109.86 122.197 108.712 123.012 107.93C123.825 107.141 124.721 106.594 125.589 105.985C126.481 105.386 127.317 104.92 128.243 104.104L128.535 104.256Z" fill="#5F97BA"/>
<path d="M113.688 88.3104C114.606 89.3929 115.234 90.5625 115.814 91.7477C116.374 92.9448 116.924 94.0975 117.183 95.463C117.428 96.8349 117.578 98.354 118.19 99.4848C118.778 100.589 119.758 101.421 120.656 101.414L119.944 101.415C120.698 100.546 121.536 99.7717 122.313 99.0099L124.556 96.6701C126.08 95.1848 127.411 93.8919 128.741 91.4657L129.056 91.5121C129.388 92.9885 129.229 94.6887 128.758 96.1755C128.29 97.6779 127.534 98.9478 126.699 100.032C125.857 101.127 124.836 101.848 123.823 102.485C122.801 103.129 121.78 103.63 120.603 103.809L119.988 103.904L119.891 103.81C118.76 102.708 118.185 101.406 117.424 100.318C116.693 99.2126 115.677 98.3074 114.914 97.1493C114.152 95.9886 113.779 94.5475 113.511 93.0943C113.264 91.6269 113.129 90.1079 113.387 88.4492L113.688 88.3104Z" fill="#5F97BA"/>
<path d="M113.879 80.2967C114.883 81.2319 115.613 82.3369 116.311 83.4577C116.974 84.6038 117.612 85.7486 118.051 87.044C118.481 88.3428 118.656 89.8797 119.152 91.1489C119.382 91.7952 119.711 92.3594 120.098 92.7831C120.392 93.2742 121.14 93.3928 120.845 93.2154L120.715 93.3405C121.393 92.004 121.949 90.4896 122.653 89.2322L124.581 85.3335C125.224 84.0774 125.948 82.8973 126.57 81.6393C127.195 80.3764 127.832 79.1212 128.371 77.5153L128.69 77.4927C129.25 79.1355 129.241 81.0794 128.955 82.8411C128.672 84.6275 128.129 86.2843 127.413 87.7631C126.699 89.2485 125.766 90.4912 124.838 91.6851C123.923 92.9139 122.789 93.8017 121.66 94.7138L121.53 94.839C120.869 95.2303 120.374 94.8075 120.119 94.5856C119.824 94.3189 119.622 94.019 119.406 93.7506C119.005 93.1755 118.635 92.6215 118.207 92.1187C117.387 91.0807 116.378 90.1783 115.679 89.005C114.986 87.8263 114.554 86.4478 114.175 85.0482C113.833 83.6208 113.555 82.1573 113.595 80.4907L113.879 80.2967Z" fill="#5F97BA"/>
<path d="M114.622 72.9573C116.528 73.8595 117.894 75.3813 119.108 77.0776C119.701 77.9389 120.073 79.0646 120.459 80.1767C120.653 80.7292 120.872 81.2577 121.129 81.7259C121.246 81.9535 121.409 82.1933 121.52 82.3161C121.52 82.3161 121.582 82.3721 121.504 82.316C121.461 82.2897 121.408 82.2784 121.36 82.285C121.389 82.2787 121.068 82.2624 120.937 82.5879C120.822 82.9318 120.893 83.0025 120.873 82.941L120.855 82.7206L120.819 82.2777L120.802 82.0618L120.919 81.8278C121.61 80.4668 121.879 78.7127 122.298 77.1633L123.69 72.6763C124.154 71.215 124.795 69.8767 125.354 68.4899C125.928 67.0987 126.561 65.7594 127.176 64.1308L127.497 64.1172C128.092 65.8028 128.143 67.7342 127.962 69.5086C127.77 71.3006 127.388 73.024 126.749 74.5663C126.091 76.0952 125.36 77.5443 124.5 78.8684C123.608 80.1785 122.506 81.239 121.716 82.5928L121.815 82.1453L121.824 82.592L121.83 82.8163C121.815 82.7746 121.879 82.8624 121.754 83.2214C121.611 83.5554 121.289 83.576 121.303 83.558C121.23 83.5495 121.152 83.5233 121.082 83.4846C120.953 83.3986 120.985 83.408 120.929 83.3628C120.691 83.1262 120.541 82.9468 120.341 82.7648C119.971 82.4037 119.581 82.0751 119.168 81.7727C118.345 81.1674 117.526 80.5545 116.935 79.6698C115.78 77.8715 114.798 75.8753 114.373 73.2389L114.622 72.9573Z" fill="#5F97BA"/>
<path d="M113.43 64.5477C114.378 64.6582 115.168 65.0352 115.905 65.4996C116.633 65.9835 117.325 66.5297 117.927 67.2164C118.528 67.9056 118.919 68.9279 119.349 69.881C119.775 70.8391 120.333 71.5844 121.015 72.1456L120.155 72.5416C120.284 71.1371 120.063 69.6309 120.124 68.1943C120.221 66.7712 120.367 65.3553 120.601 63.9596C120.863 62.5692 121.331 61.2474 121.901 59.9577C122.483 58.6984 123.198 57.3774 124.302 56.4854L124.56 56.7234C124.534 58.2378 124.579 59.6211 124.457 61.0085C124.346 62.3854 124.218 63.7622 123.896 65.0735C123.551 66.381 123.156 67.684 122.724 68.9804C122.258 70.2653 121.531 71.489 121.177 72.8162L120.865 73.9886L120.317 73.2121C119.775 72.4463 119.109 71.8645 118.314 71.495C117.52 71.1184 116.688 70.8137 116.066 70.1778C115.445 69.5394 114.914 68.756 114.418 67.9128C113.935 67.0496 113.5 66.0996 113.223 64.8829L113.43 64.5477Z" fill="#5F97BA"/>
<path d="M112.131 55.0603C113.745 54.1782 115.361 54.7043 116.705 55.6143C117.387 56.076 117.936 56.8199 118.317 57.729C118.709 58.625 119.001 59.5644 119.414 60.3245L118.534 60.6386C118.912 59.179 118.859 57.6213 118.818 56.0206C118.798 54.4262 119.083 52.924 119.351 51.3988C119.634 49.8783 120.192 48.4588 120.905 47.1307C121.622 45.8184 122.528 44.5699 123.725 43.7717L123.984 44.0103C123.868 45.7079 123.728 47.1677 123.491 48.6036C123.248 50.0268 122.998 51.4391 122.517 52.7633C122.021 54.0873 121.627 55.4642 120.969 56.7686C120.299 58.0633 119.655 59.421 119.516 60.8965L119.401 62.1277L118.637 61.2107C118.143 60.6179 117.494 60.2345 116.843 59.9616C116.207 59.657 115.627 59.3677 115.156 58.8521C114.163 57.8879 113.211 56.9343 112.09 55.4863L112.131 55.0603Z" fill="#5F97BA"/>
<path d="M132.006 176.123C131.11 177.436 130.122 178.336 129.111 179.151C128.091 179.934 127.073 180.69 125.904 180.974C124.737 181.259 123.487 181.342 122.42 181.988C121.347 182.607 120.42 183.634 119.571 184.751L118.755 185.82L118.086 183.783C117.652 182.465 117.395 181.096 117.136 179.746C116.873 178.391 116.594 177.053 116.483 175.671C116.362 174.295 116.293 172.912 116.268 171.51C116.232 170.099 116.282 168.712 116.24 167.202L116.515 166.982C117.483 167.949 118.136 169.292 118.64 170.607C119.139 171.941 119.519 173.323 119.792 174.726C120.071 176.129 120.144 177.58 120.196 179.024C120.25 180.471 120.279 181.912 120.093 183.409L118.609 182.441C119.813 182.018 120.974 181.599 122.014 180.837C123.065 180.118 123.95 178.882 124.935 177.907C125.92 176.932 127.067 176.471 128.226 176.084C129.394 175.728 130.597 175.49 131.906 175.728L132.006 176.123Z" fill="#5F97BA"/>
<path d="M135.376 163.58C134.532 165.132 133.518 166.216 132.447 167.147C131.38 168.087 130.245 168.832 128.916 169.005C127.599 169.208 126.341 169.57 125.258 170.48C124.146 171.314 123.205 172.623 122.007 173.473L120.853 174.292L120.252 172.281C119.588 170.064 118.879 167.864 118.657 165.48C118.423 163.102 118.323 160.668 118.728 158.051L119.035 157.934C120.335 159.912 121.133 162.077 121.796 164.297C122.468 166.51 122.656 168.909 122.889 171.289L121.135 170.102C122.295 169.771 123.658 169.727 124.848 169.196C126.066 168.734 127.098 167.691 128.063 166.472C129.018 165.221 130.159 164.529 131.366 164.021C132.568 163.5 133.824 163.122 135.245 163.2L135.376 163.58Z" fill="#5F97BA"/>
<path d="M139.713 151.729C138.788 153.419 137.648 154.497 136.456 155.415C135.855 155.856 135.242 156.27 134.567 156.471C133.89 156.67 133.17 156.719 132.465 156.81C131.048 156.976 129.826 157.745 128.658 158.839C127.502 159.997 126.273 160.904 124.867 161.521L123.598 162.077L122.989 160.044C122.781 159.344 122.473 158.505 122.266 157.7C122.046 156.882 121.852 156.041 121.67 155.178C121.299 153.45 120.934 151.699 120.697 149.629L120.955 149.373C122.38 150.299 123.481 151.737 124.348 153.356C124.793 154.163 125.161 155.031 125.456 155.95C125.76 156.883 125.919 157.809 126.077 158.917L124.199 157.439L126.104 157.054C126.763 156.937 127.457 156.928 128.145 156.835C129.525 156.692 130.824 156.139 131.92 154.932C132.471 154.343 133 153.686 133.572 153.188C134.144 152.681 134.779 152.384 135.42 152.099C136.714 151.567 138.053 151.178 139.59 151.35L139.713 151.729Z" fill="#5F97BA"/>
<path d="M145.508 134.484C144.289 136.525 142.858 137.907 141.387 139.193C139.969 140.594 138.101 140.902 136.422 141.736C134.754 142.587 133.462 144.302 132.267 146.078C131.054 147.817 129.724 149.263 128.53 150.834L126.332 153.728L125.724 149.519C125.479 147.829 125.382 145.994 125.25 144.227C125.094 142.443 125.109 140.654 124.75 138.821L124.99 138.529C125.713 138.993 126.275 139.786 126.734 140.588C127.194 141.405 127.571 142.276 127.88 143.17C128.491 144.973 128.948 146.786 129.12 148.772L126.316 147.459C127.81 145.958 129.335 144.602 131.036 143.664C132.757 142.769 134.47 141.986 135.831 140.397C137.185 138.802 138.399 136.789 140.083 135.927C141.718 134.959 143.419 134.149 145.373 134.104L145.508 134.484Z" fill="#5F97BA"/>
<path d="M152.136 109.303C152.182 112.643 151.159 115.69 149.863 118.379C148.59 121.172 146.202 122.694 144.482 124.764C142.687 126.744 141.336 129.549 139.403 131.521C137.505 133.507 135.422 135.242 133.153 136.333L132.843 136.481L132.727 136.489C131.994 136.545 131.842 136.385 131.495 136.243C131.194 136.092 130.953 135.889 130.743 135.671C130.308 135.238 130.039 134.751 129.789 134.277C129.318 133.319 129.126 132.342 128.958 131.407C128.683 129.525 128.77 127.687 129.048 125.894L129.366 125.828C129.711 126.609 129.952 127.4 130.277 128.134C130.563 128.879 130.859 129.589 131.166 130.237C131.468 130.872 131.808 131.454 132.123 131.831C132.279 131.999 132.436 132.155 132.542 132.178C132.594 132.196 132.637 132.197 132.64 132.183C132.591 132.185 132.761 132.118 132.353 132.141L131.926 132.298C133.877 130.861 135.966 129.877 137.938 128.455C139.96 127.195 142.194 126.023 143.814 123.842C145.484 121.695 146.11 118.49 147.514 116.263C148.871 113.916 150.182 111.592 151.829 109.183L152.136 109.303Z" fill="#5F97BA"/>
<path d="M132.307 109.8C133.768 112.124 134.588 114.623 135.292 117.152C135.63 118.415 135.69 119.819 135.854 121.188C136.002 122.517 136.416 123.924 137.114 124.524L136.57 124.512C137.725 123.43 138.604 121.76 139.53 120.336C140.493 118.943 141.44 117.571 142.355 116.175C143.291 114.809 144.324 113.579 145.35 112.28C146.405 111.01 147.442 109.704 148.696 108.423L148.974 108.619C148.751 110.659 148.253 112.647 147.498 114.41C146.756 116.188 145.879 117.885 144.768 119.278C143.648 120.65 142.453 121.912 141.163 122.977C139.84 124.011 138.382 124.664 137.073 125.65L136.74 125.901L136.527 125.636C135.598 124.481 135.087 123.301 134.323 122.176C133.606 121.037 132.94 119.844 132.574 118.5C131.91 115.796 131.558 112.968 131.998 109.911L132.307 109.8Z" fill="#5F97BA"/>
<path d="M135.689 89.3833C136.737 89.6493 137.61 90.1612 138.427 90.7517C139.231 91.3623 139.994 92.0265 140.665 92.8314C141.334 93.6389 141.79 94.7705 142.291 95.8457C142.788 96.9238 143.424 97.7974 144.175 98.4816L143.312 99.0701C143.166 97.4224 142.732 95.7906 142.627 94.1031C142.561 92.4286 142.603 90.7327 142.783 89.0434C142.992 87.3569 143.495 85.7223 144.125 84.1805C144.776 82.6496 145.668 81.2306 146.795 80.1919L147.067 80.4025C146.96 82.1805 146.83 83.7281 146.672 85.2611C146.524 86.7973 146.398 88.2938 146.14 89.7808L145.298 94.3035C144.988 95.8227 144.447 97.4119 144.36 98.9766L144.264 100.673L143.495 99.5675C142.872 98.6691 142.13 97.9653 141.253 97.4609C140.378 96.9561 139.457 96.5103 138.751 95.7352C138.046 94.9602 137.434 94.0443 136.862 93.0749C136.302 92.0854 135.799 91.0174 135.474 89.7055L135.689 89.3833Z" fill="#5F97BA"/>
<path d="M132.501 81.1159C133.608 81.0306 134.616 81.2817 135.577 81.6677C136.538 82.0583 137.464 82.5727 138.313 83.2717C139.172 83.9512 139.86 85.0065 140.461 86.1403C141.068 87.2776 141.669 88.3174 142.328 89.3745L141.424 89.7602C141.462 87.9052 141.1 86.0471 141.001 84.1556C140.937 82.2777 141.055 80.4028 141.222 78.5281C141.413 76.6571 141.915 74.8448 142.507 73.0916C143.112 71.3412 143.938 69.6731 145.009 68.2357L145.303 68.3861C145.359 70.3706 145.28 72.1807 145.152 73.972C145.02 75.7573 144.875 77.512 144.568 79.2452C144.225 80.9694 143.921 82.7112 143.528 84.4606C143.105 86.198 142.492 87.9792 142.412 89.7665L142.316 91.9342L141.508 90.1523C141.047 89.1349 140.201 88.4652 139.317 88.0094C138.422 87.5504 137.514 87.1801 136.738 86.5194C135.198 85.1641 133.674 83.7196 132.359 81.5064L132.501 81.1159Z" fill="#5F97BA"/>
<path d="M130.962 67.8175C133.077 68.51 134.775 69.9958 136.317 71.7462C137.904 73.4698 138.743 76.2245 139.374 79.0233L138.363 79.2425C138.627 76.991 138.536 74.7623 138.48 72.4322C138.429 70.1062 138.813 67.8247 139.286 65.5382C139.76 63.2537 140.651 61.0529 141.928 59.1881C143.174 57.3367 144.908 55.8097 146.757 55.5921L146.886 55.9742C145.671 57.7273 144.939 59.4702 144.263 61.2791C143.581 63.0774 143.079 65.0027 142.433 66.9131C141.773 68.8301 141.297 70.8645 140.618 72.9012C139.928 74.9301 139.364 77.1073 139.405 79.2717L139.463 82.3935L138.394 79.4909C138.014 78.4584 137.215 77.6662 136.438 76.9446C135.652 76.2173 134.942 75.42 134.305 74.4772C133.028 72.6038 131.745 70.6808 130.77 68.1534L130.962 67.8175Z" fill="#5F97BA"/>
<path d="M131.428 55.2662C132.127 54.8625 132.661 54.8831 133.152 54.9838C133.63 55.1157 134.085 55.3229 134.342 55.8889C134.598 56.4574 134.649 57.3605 134.945 57.8129C135.229 58.2871 135.679 58.4839 136.218 58.5827C136.774 58.6567 137.272 58.8695 137.673 59.2241C138.089 59.5654 138.521 59.9202 138.798 60.4835C139.302 61.6034 139.623 63.1747 138.977 64.8247L138.679 64.9711C137.432 64.4237 136.767 64.0393 136.17 63.3634C135.897 63.0208 135.727 62.5334 135.532 62.0448C135.305 61.5966 135.181 60.9924 135.062 60.3219C134.947 59.651 134.707 59.13 134.307 58.8815C133.901 58.6359 133.253 58.8386 132.789 58.7477C132.33 58.6448 132.054 58.2101 131.794 57.7168C131.548 57.1967 131.334 56.6024 131.269 55.6289L131.428 55.2662Z" fill="#5F97BA"/>
</g>
<g style="mix-blend-mode:multiply">
<rect width="171" height="273" fill="white"/>
</g>
</g>
<path d="M-1693 -4345H2633V-4347H-1693V-4345ZM2634 -4344V2540H2636V-4344H2634ZM2633 2541H-1693V2543H2633V2541ZM-1694 2540V-4344H-1696V2540H-1694ZM-1693 2541C-1693.55 2541 -1694 2540.55 -1694 2540H-1696C-1696 2541.66 -1694.66 2543 -1693 2543V2541ZM2634 2540C2634 2540.55 2633.55 2541 2633 2541V2543C2634.66 2543 2636 2541.66 2636 2540H2634ZM2633 -4345C2633.55 -4345 2634 -4344.55 2634 -4344H2636C2636 -4345.66 2634.66 -4347 2633 -4347V-4345ZM-1693 -4347C-1694.66 -4347 -1696 -4345.66 -1696 -4344H-1694C-1694 -4344.55 -1693.55 -4345 -1693 -4345V-4347Z" fill="black" fill-opacity="0.1"/>
<defs>
<clipPath id="clip0_325_71">
<rect width="1499.26" height="6338" fill="white" transform="translate(-1316 -4072)"/>
</clipPath>
</defs>
</svg>
