<svg width="213" height="325" viewBox="0 0 213 325" fill="none" xmlns="http://www.w3.org/2000/svg">
<g opacity="0.7">
<path d="M69.3708 48.4734C70.9156 54.1969 73.2034 59.4874 75.623 64.5858C78.0371 69.7076 80.838 74.4716 83.7023 79.141C86.546 83.8426 89.7146 88.1811 92.922 92.4443C94.5955 94.5201 96.195 96.5606 97.8534 98.7675C99.5208 100.921 101.14 103.135 102.637 105.489C108.707 114.824 113.733 125.181 118.272 135.815C122.841 146.435 126.977 157.379 130.639 168.651C134.332 179.904 137.286 191.622 139.481 203.643C141.714 215.305 145.16 226.618 148.613 237.862C155.58 260.365 163.368 282.469 171.075 304.657L170.797 304.864C161.303 283.941 152.822 262.206 145.5 239.675C141.933 228.356 138.688 216.8 136.582 204.612C134.603 192.75 132.123 181.005 129.026 169.541C125.903 158.096 122.088 146.958 117.383 136.526C112.665 126.104 106.926 116.568 100.666 107.866C97.5892 103.443 94.207 99.4931 90.929 95.0674C87.7417 90.6069 84.602 86.0765 81.7903 81.1782C78.9462 76.316 76.4303 71.1196 74.1869 65.7304C71.995 60.3138 70.0687 54.6417 69.0625 48.5761L69.3708 48.4734Z" fill="#5F97BA"/>
<path d="M53.8035 98.0007C57.9153 101.818 61.5673 106.385 64.9813 111.208C68.3796 116.056 71.5694 121.172 74.3622 126.658C77.1262 132.18 79.5017 138.01 82.087 143.627C84.6721 149.24 87.453 154.696 90.4404 159.912C93.4548 165.06 96.5483 170.221 100.211 174.045C102.033 175.95 104.088 177.315 106.211 177.597C108.894 178.018 111.467 179.289 113.802 180.65C122.985 186.71 130.834 194.987 138.004 204.165L137.8 204.489C129.42 197.422 121.145 190.019 112.344 184.681C110.118 183.399 107.976 182.393 105.674 181.874C102.786 181.305 100.309 179.37 98.3264 177.117C94.3123 172.566 91.5683 166.882 89.0079 161.221C86.4514 155.539 84.0134 149.812 81.227 144.378C78.4505 138.939 75.3256 133.828 72.2381 128.745C66.195 118.436 60.1845 108.163 53.5964 98.325L53.8035 98.0007Z" fill="#5F97BA"/>
<path d="M60.5636 190.066C67.2491 197.028 74.331 203.208 82.2127 206.359C84.1699 207.148 86.1885 207.84 88.2666 207.997C90.2983 208.305 92.6139 208.148 94.7482 208.426C99.0935 208.788 103.407 209.419 107.702 210.449C116.3 212.511 124.474 217.247 131.668 223.709C138.736 230.421 144.806 238.916 149.213 248.691L148.96 248.951C142.982 240.851 136.644 233.558 129.713 227.39C126.206 224.415 122.709 221.367 118.91 219.004C115.131 216.63 111.272 214.381 107.234 212.658C103.198 210.959 98.9703 209.813 94.6838 209.772C92.5059 209.635 90.4887 210.18 88.2008 210.314C85.9544 210.547 83.6971 210.243 81.4908 209.713C77.0801 208.504 73.1116 205.664 69.5634 202.35C66.0132 198.999 62.8642 194.981 60.3278 190.349L60.5636 190.066Z" fill="#5F97BA"/>
<path d="M112.3 65.6761C114.501 68.435 116.353 71.5487 118.103 74.7561C119.824 77.9878 121.442 81.3269 122.729 84.9159C123.979 88.5371 124.962 92.329 126.127 95.9663L127.991 101.358C128.615 103.156 129.367 104.884 129.951 106.727C130.609 108.525 131.255 110.348 131.737 112.274C132.31 114.148 132.66 116.15 132.988 118.165C133.419 120.133 133.406 122.312 133.623 124.395C133.541 126.523 133.447 128.909 133.092 130.773C132.424 134.701 131.682 138.619 130.711 142.477C129.693 146.311 128.714 150.192 126.973 153.721L126.7 153.521C127.401 149.677 127.806 145.7 128.281 141.784L129.769 130.021C131.158 122.764 129.596 115.191 128.314 107.566C127.593 103.761 126.574 100.043 125.195 96.5776C123.827 93.1023 122.037 89.9345 120.411 86.6807C117.331 80.027 114.501 73.2119 112.04 65.9207L112.3 65.6761Z" fill="#5F97BA"/>
<path d="M144.794 87.4043C146.467 90.8984 147.608 94.7289 148.571 98.6293C149.509 102.54 150.237 106.566 150.519 110.687C150.759 114.826 150.6 118.995 150.605 123.1C150.598 127.21 150.763 131.303 150.737 135.461C150.782 143.767 149.379 152.291 146.507 160.004C143.537 167.662 138.885 174.194 133.371 178.369L133.176 178.042C137.403 171.816 140.925 165.299 143.453 158.096C144.72 154.512 145.918 150.862 146.797 147.035C147.624 143.201 148.381 139.302 148.99 135.314C149.564 131.32 149.8 127.233 149.564 123.197C149.325 119.158 148.561 115.217 147.88 111.32C146.699 103.464 145.585 95.6525 144.49 87.5741L144.794 87.4043Z" fill="#5F97BA"/>
<path d="M170.857 83.2546C169.618 89.8036 168.616 96.3783 168.103 102.901C167.883 106.159 167.773 109.41 167.944 112.577C168.168 115.777 168.651 118.649 169.576 121.589C170.5 124.656 171.472 127.772 172.179 131.076C172.878 134.376 173.206 137.888 172.973 141.33C172.489 148.249 170.282 154.62 167.964 160.724C166.764 163.767 165.483 166.794 164.311 169.67C163.156 172.613 162.09 175.632 161.113 178.702C159.142 184.837 157.477 191.156 155.875 197.506C152.588 210.182 149.709 223.076 146.717 236.035L146.401 235.969C147.405 222.513 149.592 209.224 152.625 196.207C154.171 189.706 156.132 183.35 158.368 177.142C159.446 174.016 160.736 170.995 162.112 168.052C163.504 165.054 165.057 162.41 166.448 159.603C169.187 154.029 171.715 147.875 171.932 141.286C172.181 134.636 169.436 128.991 167.143 123.149C165.938 120.085 165.225 116.414 165.102 112.94C164.971 109.427 165.201 105.955 165.632 102.553C166.533 95.7552 168.219 89.224 170.551 83.1095L170.857 83.2546Z" fill="#5F97BA"/>
<path d="M44.3463 194.12C46.188 194.103 47.8853 194.367 49.5595 194.682C51.2341 195.006 52.8653 195.329 54.467 196.094C56.0706 196.831 57.7734 197.447 59.4771 197.132C61.1809 196.881 62.7786 195.838 64.1789 194.807L63.4514 195.726C63.7153 194.209 63.9772 192.468 64.0766 190.834C64.171 189.172 64.212 187.55 64.2212 185.919C64.2166 184.29 64.1404 182.654 63.9193 181.003C63.7468 179.32 63.3802 177.676 63.012 175.845L63.2723 175.59C64.3991 176.719 65.4568 178.14 66.1256 179.879C66.8327 181.588 67.3271 183.503 67.4928 185.473C67.7034 187.437 67.6251 189.453 67.2952 191.38C66.9579 193.329 66.5348 195.14 65.7659 197.009L65.4364 197.808L65.0384 197.928C63.1387 198.501 61.2868 198.332 59.5206 198.458C57.7517 198.44 55.9803 198.852 54.1408 199.098C52.3026 199.337 50.5405 198.779 48.8643 198.018C47.1949 197.22 45.5849 196.177 44.2189 194.518L44.3463 194.12Z" fill="#5F97BA"/>
<path d="M51.4266 205.501C54.1889 204.122 56.7316 203.395 59.3249 202.983C60.6323 202.894 62.0411 203.024 63.3078 202.417C64.5751 201.853 65.677 200.668 66.3482 199.222C67.6855 196.369 68.0709 193.325 68.2718 190.043C68.5635 186.758 68.629 183.305 68.9202 179.503L69.2295 179.367C70.9613 182.475 71.7227 186.264 71.7037 190.212C71.6604 192.191 71.2396 194.21 70.5913 196.103C69.9935 198.021 68.8959 199.762 67.5669 200.861C66.2662 201.994 64.977 202.796 63.7092 203.669C62.4541 204.552 61.2161 205.776 59.8357 206.448C58.4609 207.125 57.007 207.254 55.5873 207.181C54.1659 207.075 52.7491 206.798 51.4012 205.929L51.4266 205.501Z" fill="#5F97BA"/>
<path d="M60.0213 211.875C61.0893 210.548 62.2236 209.601 63.3641 208.704C64.5134 207.837 65.6447 206.994 66.889 206.487C68.1375 205.993 69.5102 205.752 70.6573 204.909C71.7759 204.091 72.8019 202.766 73.1229 201.317C73.5989 198.454 73.4328 195.086 73.4359 191.77C73.5416 188.413 73.6834 184.98 74.3209 181.332L74.6385 181.252C76.0576 184.463 76.6723 187.97 76.8742 191.576C76.9458 193.385 76.764 195.234 76.4845 197.086C76.2287 198.926 75.7007 200.874 74.6082 202.517C73.4901 204.076 72.2912 204.901 71.2153 206.05C70.1293 207.146 69.1698 208.631 68.0178 209.67C66.8675 210.707 65.5634 211.304 64.2463 211.761C62.9206 212.187 61.5651 212.486 60.1137 212.282L60.0213 211.875Z" fill="#5F97BA"/>
<path d="M66.3138 216.873C66.7798 215.147 67.626 213.79 68.5387 212.563C69.4899 211.399 70.5166 210.306 71.6936 209.594C72.8782 208.894 74.2025 208.667 75.4538 208.385C76.7002 208.076 77.8684 207.586 79.0324 206.924L78.5507 207.664C78.4566 205.764 78.1083 203.849 78.0552 201.963C78.0003 200.075 77.8898 198.195 77.9023 196.326C77.9937 192.557 78.3885 188.935 78.9607 184.98L79.2768 184.882C80.1194 186.603 80.5927 188.536 80.9009 190.454C81.2097 192.381 81.3813 194.325 81.3552 196.265C81.3257 198.206 81.1034 200.135 80.891 202.055C80.6788 203.979 80.138 205.866 79.785 207.772L79.6585 208.458L79.3033 208.513C78.1113 208.697 76.9328 209.128 75.9057 210.023C74.8622 210.874 73.9794 212.075 72.9933 212.89C70.9776 214.461 68.9599 215.835 66.5511 217.152L66.3138 216.873Z" fill="#5F97BA"/>
<path d="M72.025 220.44C73.0026 218.917 74.0956 217.775 75.2005 216.689C76.3174 215.629 77.4332 214.616 78.6837 213.919C79.9237 213.223 81.3368 212.813 82.4346 211.788C82.9599 211.292 83.494 210.639 83.7009 209.981C83.7928 209.807 83.782 209.675 83.7738 209.588C83.7916 209.53 83.7716 209.358 83.7155 209.132C83.6503 208.742 83.5109 208.308 83.4061 207.896C82.903 206.222 82.4522 204.481 82.2038 202.666C81.9192 200.864 81.6839 199.004 81.7168 197.091C81.8012 193.382 82.6226 189.019 85.0148 186.411L85.2856 186.629C84.8293 190.349 84.9929 193.481 85.1515 196.904C85.2181 198.591 85.182 200.319 85.2246 202.079C85.2913 203.83 85.2678 205.628 85.1523 207.501L85.0793 208.939C85.0926 209.276 84.9057 210.36 84.6479 210.665C84.1607 211.598 83.5954 212.132 83.0863 212.826C82.0469 214.117 81.139 215.7 80.0347 216.924C78.9292 218.126 77.6411 218.902 76.3352 219.577C75.0153 220.219 73.6576 220.746 72.1577 220.819L72.025 220.44Z" fill="#5F97BA"/>
<path d="M78.0205 223.743C79.2407 222.222 80.4953 221.04 81.7548 219.915C83.0159 218.788 84.2424 217.7 85.6746 216.981C87.0878 216.236 88.5718 215.411 89.6004 213.902C90.6635 212.449 91.3027 210.536 91.7283 208.74L91.9262 210.622C90.6425 209.209 90.034 207.617 89.4337 205.888C88.8758 204.167 88.563 202.325 88.5351 200.484C88.4808 198.639 88.7286 196.823 89.0537 195.075C89.4209 193.33 89.9921 191.673 90.738 190.141L91.0504 190.227C91.3794 193.76 91.4904 196.953 91.8803 199.972C92.0798 201.469 92.2258 202.946 92.4935 204.381C92.7347 205.779 93.2386 207.251 93.6378 208.311L94.1539 209.685L93.8358 210.194C92.7196 211.984 91.4087 213.319 90.2849 214.813C89.083 216.19 88.1278 217.952 86.9862 219.569C85.8479 221.18 84.3821 222.176 82.8829 222.945C81.3776 223.7 79.8012 224.243 78.1126 224.146L78.0205 223.743Z" fill="#5F97BA"/>
<path d="M85.8542 228.132C86.6752 226.139 87.667 224.489 88.7033 222.918C89.7393 221.342 90.8084 219.859 92.1525 218.71C93.4932 217.561 94.8692 216.357 95.7278 214.603C96.661 212.935 97.184 210.887 97.5791 209.025L97.7548 210.822C96.6013 209.312 96.0447 207.795 95.4573 206.132C94.8991 204.493 94.5607 202.753 94.4326 200.996C94.2834 199.238 94.3589 197.469 94.513 195.732C94.6932 193.993 95.0567 192.285 95.5858 190.635L95.9061 190.65C96.684 193.996 97.1253 197.13 97.7182 200.131L98.5336 204.571C98.8051 205.984 99.2768 207.51 99.6504 208.589L100.097 209.876L99.8245 210.388C98.8103 212.297 97.5148 213.728 96.5118 215.395C95.4346 216.986 94.6598 218.897 93.8151 220.808C92.9683 222.713 91.736 224.149 90.4266 225.422C89.1117 226.69 87.7068 227.815 86.0469 228.461L85.8542 228.132Z" fill="#5F97BA"/>
<path d="M102.73 193.651C103.573 196.643 103.982 199.386 104.392 202.149C104.559 203.53 104.5 205.002 104.599 206.485C104.676 207.978 105.112 209.335 105.732 210.513L105.93 210.891L105.654 211.359C104.75 212.897 104.187 214.833 103.461 216.517L101.271 221.502C100.546 223.135 99.6949 224.654 98.8889 226.237L96.3719 231.148L96.0574 231.076C95.8011 228.986 96.0035 226.831 96.4368 224.816C96.8879 222.807 97.5233 220.882 98.3753 219.154C99.2565 217.448 100.264 215.878 101.332 214.397C102.432 212.938 103.767 211.798 104.889 210.41L104.811 211.256C104.345 209.848 103.765 208.559 103.121 207.235C102.47 205.923 101.803 204.522 101.565 202.975C101.318 201.431 101.288 199.84 101.391 198.263C101.519 196.687 101.788 195.109 102.412 193.618L102.73 193.651Z" fill="#5F97BA"/>
<path d="M127.695 204.439C128.231 207.571 128.363 210.381 128.494 213.213C128.521 214.624 128.316 216.081 128.267 217.577C128.194 219.081 128.49 220.514 128.987 221.795L129.147 222.207L128.827 222.629C127.777 224.006 127.026 225.842 126.14 227.395L123.471 231.987C122.588 233.492 121.596 234.859 120.64 236.297L117.655 240.759L117.352 240.632C117.307 238.502 117.723 236.386 118.351 234.45C118.998 232.525 119.819 230.715 120.838 229.136C121.882 227.589 123.037 226.196 124.242 224.904C125.478 223.638 126.912 222.733 128.163 221.544L128.004 222.376C127.683 220.888 127.235 219.503 126.729 218.066C126.215 216.642 125.694 215.129 125.614 213.542C125.523 211.961 125.651 210.362 125.912 208.808C126.196 207.257 126.621 205.729 127.387 204.349L127.695 204.439Z" fill="#5F97BA"/>
<path d="M110.345 194.695C110.971 196.175 111.318 197.667 111.637 199.158C111.902 200.659 112.173 202.145 112.24 203.671C112.3 205.197 112.057 206.801 112.024 208.379C111.987 209.953 112.261 211.454 112.708 212.869L112.794 213.14L112.562 213.633C111.833 215.178 111.351 216.994 110.715 218.556C110.068 220.132 109.555 221.763 109.026 223.312C108.49 224.857 107.904 226.351 107.513 227.906C107.117 229.464 106.788 231.054 106.792 233.015L106.499 233.197C105.407 231.785 104.903 229.588 104.907 227.502C104.884 225.387 105.273 223.336 105.91 221.509C106.555 219.674 107.448 218.056 108.379 216.536C109.314 214.999 110.526 213.816 111.657 212.547L111.511 213.311C111.404 211.724 111.181 210.206 110.731 208.733C110.29 207.26 109.678 205.808 109.438 204.263C109.198 202.717 109.208 201.126 109.254 199.538C109.36 197.941 109.522 196.338 110.03 194.719L110.345 194.695Z" fill="#5F97BA"/>
<path d="M117.434 197.142C118.06 198.622 118.407 200.114 118.725 201.605C118.991 203.106 119.264 204.59 119.329 206.118C119.388 207.644 119.146 209.248 119.113 210.826C119.076 212.399 119.35 213.901 119.797 215.316L119.883 215.586L119.651 216.079C118.921 217.625 118.44 219.44 117.804 221.003C117.158 222.581 116.644 224.21 116.115 225.759C115.579 227.303 114.993 228.797 114.602 230.352C114.206 231.91 113.875 233.499 113.881 235.462L113.59 235.646C112.498 234.234 111.994 232.037 111.996 229.953C111.973 227.839 112.362 225.788 112.999 223.961C113.645 222.126 114.537 220.507 115.468 218.987C116.403 217.451 117.615 216.267 118.746 214.998L118.598 215.76C118.491 214.173 118.269 212.655 117.819 211.182C117.379 209.711 116.765 208.258 116.525 206.712C116.287 205.169 116.295 203.576 116.342 201.987C116.447 200.39 116.609 198.788 117.115 197.167L117.434 197.142Z" fill="#5F97BA"/>
<path d="M49.0295 186.522C50.3087 186.449 51.4267 186.748 52.5155 187.112C53.5953 187.501 54.6461 187.93 55.5743 188.738C56.4943 189.554 57.3434 190.684 58.3781 191.197C59.3701 191.689 60.6317 191.831 61.4443 191.324L60.6142 192.548C60.2902 191.25 59.9936 189.883 59.7505 188.576C59.4825 187.258 59.1264 186.005 58.898 184.713C58.446 182.094 57.9542 179.631 57.3498 176.6L57.5902 176.316C59.8172 177.628 61.3148 180.393 62.1374 183.273C62.5464 184.734 62.681 186.301 62.7519 187.839C62.8441 189.388 62.7618 190.911 62.4523 192.515L62.1925 193.858L61.6206 193.741C60.1617 193.441 59.2186 192.769 58.0641 192.468C56.9554 192.12 55.7041 192.228 54.5432 191.967C53.3945 191.677 52.3922 190.935 51.4371 190.11C50.4909 189.256 49.5903 188.291 48.8754 186.896L49.0295 186.522Z" fill="#5F97BA"/>
<path d="M36.7554 94.4217C38.6591 94.3314 40.416 94.688 42.131 95.1943C43.8549 95.6719 45.4978 96.4095 47.0332 97.6459C48.5716 98.8729 50.2309 99.6883 51.9907 99.9075C53.7411 100.146 55.5747 99.9145 57.1953 99.8692L55.7721 101.048C56.0238 99.8059 56.2274 98.2545 56.3173 96.8373C56.4281 95.3921 56.5393 93.9561 56.5992 92.4973C56.7631 89.5645 56.6106 86.6356 56.4173 83.3124L56.7064 83.1248C58.4695 85.5117 59.4872 88.8172 59.789 92.2262C59.9489 93.9364 59.9103 95.6871 59.6476 97.3903C59.3689 99.1186 59.0023 100.694 58.3767 102.44L57.8952 103.782L56.9519 103.622C55.0356 103.293 53.3958 102.142 51.7054 101.39C50.0249 100.598 48.2759 100.229 46.4316 100.172C44.5812 100.129 42.8597 99.5052 41.2392 98.5452C39.6098 97.6139 38.0336 96.4857 36.6319 94.8177L36.7554 94.4217Z" fill="#5F97BA"/>
<path d="M43.3942 105.738C45.09 105.351 46.6463 105.459 48.1728 105.689C48.9303 105.825 49.6876 105.956 50.4136 106.245C51.1428 106.53 51.8439 106.997 52.5599 107.42C53.9775 108.32 55.5304 108.681 57.0568 108.307C58.5208 107.967 60.1588 107.038 60.6031 106.434L60.331 106.822C60.6552 105.962 61.0026 104.799 61.2821 103.757L62.1903 100.542C62.7973 98.3541 63.2246 96.0867 63.7552 93.4548L64.0705 93.3801C65.1308 95.7055 65.4559 98.5518 65.2289 101.306C65.1264 102.692 64.8668 104.064 64.4464 105.351C64.0046 106.663 63.4956 107.793 62.7509 109.055L62.5619 109.376L62.4787 109.443C60.2741 111.246 58.5812 110.359 56.9931 110.053C55.4075 109.635 53.8782 109.449 52.2307 109.766C50.5793 110.108 48.9857 109.89 47.5026 109.187C46.0129 108.524 44.5683 107.638 43.2915 106.142L43.3942 105.738Z" fill="#5F97BA"/>
<path d="M50.8542 118.85C52.4565 118.293 53.9751 118.175 55.4787 118.165C56.982 118.151 58.4539 118.26 59.893 118.881C61.3303 119.501 62.8178 120.115 64.3015 119.839C65.0334 119.756 65.7859 119.542 66.4342 119.144C67.1176 118.845 67.6693 118.178 67.8026 117.879L67.6407 118.133C68.0224 116.875 68.4735 115.424 68.7655 114.024L69.6102 109.79C70.2148 106.953 70.4983 104.07 70.865 100.704L71.1755 100.589C72.6496 103.365 73.1525 106.967 72.8762 110.424C72.7492 112.165 72.3729 113.87 71.8 115.448C71.2283 117.049 70.6233 118.519 69.6795 119.97L69.5141 120.224C68.4285 121.155 67.5047 121.197 66.6915 121.194C65.8575 121.224 65.0882 121.132 64.3151 121.161C62.778 121.1 61.2479 121.548 59.6764 121.937C58.1068 122.328 56.5832 122.038 55.0971 121.574C53.6107 121.106 52.149 120.456 50.7848 119.266L50.8542 118.85Z" fill="#5F97BA"/>
<path d="M57.8925 126.493C59.3217 125.964 60.6518 125.879 61.9603 125.906C63.2714 125.92 64.5436 126.079 65.7729 126.756C66.9994 127.412 68.2795 128.064 69.5771 127.831C70.8004 127.765 72.2989 126.821 72.6485 126.089L72.2819 126.669L73.1369 122.885C73.3902 121.606 73.6946 120.37 74.0539 119.152L76.3129 111.565L76.6312 111.531C77.6489 114.245 77.6187 117.364 77.2358 120.209C77.0275 121.64 76.674 123.027 76.18 124.328C75.6955 125.643 75.2077 126.899 74.5332 128.145L74.2425 128.681L74.165 128.728C72.2178 129.901 70.938 129.065 69.5633 129.161C68.2228 129.025 66.8774 129.402 65.4859 129.762C64.0979 130.122 62.7683 129.806 61.4861 129.306C60.2039 128.806 58.9498 128.123 57.8107 126.903L57.8925 126.493Z" fill="#5F97BA"/>
<path d="M63.134 134.389C64.7577 133.939 66.3018 133.993 67.8212 134.2C69.3362 134.419 70.8389 134.76 72.2102 135.708C73.5861 136.644 74.9066 137.74 76.3737 138.222C77.8352 138.855 79.328 138.891 81.0383 139.731L79.2057 140.89C79.1148 139.206 79.2064 137.532 79.2305 135.861C79.2703 134.189 79.3414 132.522 79.5539 130.871C79.9993 127.561 80.5511 124.296 81.6006 120.971L81.9197 120.973C82.7818 124.354 82.9135 127.785 82.8778 131.168C82.8462 132.861 82.6524 134.538 82.4115 136.209C82.1532 137.878 81.9521 139.546 81.5404 141.199L80.8694 143.906L79.7077 142.358C78.8361 141.198 77.4413 140.046 76.0604 139.459C74.6649 138.766 73.0861 138.835 71.5558 138.779C70.0183 138.748 68.5997 138.171 67.1851 137.508C65.7751 136.834 64.385 136.049 63.0617 134.809L63.134 134.389Z" fill="#5F97BA"/>
<path d="M70.6266 147.639C71.8576 147.077 73.0296 146.93 74.1943 146.84C75.3531 146.803 76.5036 146.804 77.6161 147.128C78.7272 147.458 79.8017 148.233 80.9176 148.586C81.9929 148.963 83.273 148.945 84.1783 148.512L83.6088 149.281C83.5992 147.555 83.4638 145.792 83.6303 144.097C83.7701 142.394 83.8587 140.678 84.1344 139.005C84.7353 135.671 85.6294 132.407 87.1761 129.346L87.4893 129.43C88.0265 133.047 87.9129 136.461 87.5027 139.808C87.2719 141.475 86.8575 143.098 86.4909 144.735C86.1525 146.377 85.5125 147.957 84.9965 149.57L84.7468 150.354L84.427 150.339C83.0329 150.284 82.0083 149.971 80.7973 150.169C79.6229 150.305 78.4116 150.781 77.2408 150.792C76.0733 150.798 74.9433 150.442 73.8264 150.037C72.7149 149.573 71.6135 149.038 70.5715 148.063L70.6266 147.639Z" fill="#5F97BA"/>
<path d="M76.9696 159.485C77.9717 158.668 78.9791 158.294 79.9867 157.99C80.9953 157.734 82.0037 157.538 83.0056 157.7C84.0088 157.884 84.9972 158.499 85.9934 158.685C86.9891 158.891 87.9936 158.721 89.0119 158.355L88.2275 159.228C88.1159 157.74 87.9816 156.252 88.12 154.803C88.2251 153.351 88.3205 151.881 88.6138 150.457C88.9176 149.032 89.3805 147.645 89.9701 146.308C90.5737 145.003 91.34 143.613 92.4953 142.819L92.7339 143.095C92.5295 144.583 92.5382 145.945 92.4066 147.328C92.3049 148.715 92.1852 150.09 91.9525 151.443C91.7251 152.798 91.3463 154.127 91.014 155.478C90.7169 156.833 90.186 158.158 89.7235 159.489L89.3723 160.497L88.939 160.362C87.9536 160.055 86.9577 159.939 85.9531 160.203C84.9472 160.445 83.937 161.116 82.9381 161.357C81.9398 161.577 80.9477 161.435 79.9542 161.235C78.9616 160.989 77.9666 160.667 76.9685 159.909L76.9696 159.485Z" fill="#5F97BA"/>
<path d="M82.036 166.967C83.1412 166.109 84.2817 165.794 85.4147 165.63C86.546 165.498 87.692 165.506 88.7669 166.021C89.8409 166.553 90.8103 167.522 91.8472 167.978C92.8885 168.453 93.9737 168.714 95.1517 168.925L93.8253 169.997C93.5858 168.551 93.4903 167.132 93.5145 165.708C93.5161 164.285 93.5101 162.849 93.7264 161.441C94.1811 158.649 94.9081 155.781 96.4819 153.361L96.787 153.471C97.1902 156.471 97.2289 159.162 97.0977 161.927C97.0219 163.298 96.7713 164.651 96.5525 166.014C96.3581 167.378 96.0666 168.746 95.6733 170.096L95.1048 172.052L94.3453 171.17C93.5503 170.245 92.6024 169.54 91.5586 169.272C90.5078 169.006 89.3593 169.363 88.2912 169.475C87.2216 169.56 86.214 169.255 85.1794 168.934C84.1467 168.585 83.111 168.181 82.0407 167.401L82.036 166.967Z" fill="#5F97BA"/>
<path d="M87.5733 178.288C88.454 177.265 89.3957 176.684 90.3486 176.179C91.3078 175.724 92.2775 175.333 93.2846 175.305C94.2944 175.293 95.3428 175.728 96.351 175.783C97.3642 175.866 98.3319 175.567 99.3527 175.184L98.6251 176.161C98.3853 174.662 98.1566 173.175 98.2351 171.68C98.2896 170.191 98.3511 168.672 98.6705 167.201C99.3413 164.334 100.672 161.322 102.909 159.813L103.157 160.075L102.57 164.304C102.388 165.634 102.249 166.947 102.007 168.241C101.774 169.536 101.427 170.826 101.151 172.155C100.913 173.479 100.442 174.83 100.106 176.171L99.831 177.269L99.3786 177.148C98.4242 176.894 97.4195 176.903 96.4668 177.318C95.5076 177.708 94.5915 178.533 93.6435 178.935C92.6928 179.322 91.7043 179.37 90.7081 179.376C89.7076 179.333 88.695 179.23 87.6245 178.71L87.5733 178.288Z" fill="#5F97BA"/>
<path d="M96.1866 185.887C97.0537 184.448 98.1084 183.499 99.2084 182.708C100.313 181.939 101.475 181.279 102.747 181.246C104.023 181.203 105.303 181.426 106.495 181.101C107.701 180.848 108.877 180.222 110.169 179.78L109.121 181.892C108.4 180.567 108.048 179.212 107.715 177.766C107.402 176.329 107.211 174.821 107.289 173.297C107.433 170.268 108.295 167.168 110.006 165.016L110.301 165.169C110.433 168.181 110.443 170.636 110.665 173.129L110.841 176.867C110.898 178.115 111.095 179.416 111.158 180.623L111.291 183.158L110.112 182.737C109.009 182.345 107.799 182.082 106.636 182.366C105.462 182.612 104.4 183.587 103.357 184.398C102.316 185.241 101.182 185.579 100.016 185.893C98.8485 186.194 97.6544 186.417 96.3114 186.283L96.1866 185.887Z" fill="#5F97BA"/>
<path d="M106.215 190.744C106.791 189.462 107.551 188.559 108.343 187.74C109.159 186.982 110.008 186.277 110.948 185.861C111.886 185.435 112.956 185.512 113.95 185.41C114.95 185.323 115.872 184.977 116.791 184.48L116.327 185.476C115.841 184.015 115.208 182.602 114.94 181.038C114.678 179.484 114.475 177.888 114.49 176.258C114.607 173.042 115.518 169.603 117.483 167.292L117.775 167.456C117.895 170.774 117.964 173.43 117.944 176.267L117.741 180.553C117.71 181.99 117.426 183.564 117.482 185.027L117.519 185.984L117.018 186.024C116.084 186.102 115.159 186.418 114.346 187.137C113.527 187.84 112.799 188.787 111.972 189.344C111.144 189.9 110.245 190.232 109.336 190.583C108.407 190.872 107.46 191.134 106.368 191.11L106.215 190.744Z" fill="#5F97BA"/>
<path d="M113.406 196.045C113.865 194.703 114.548 193.757 115.277 192.902C116.023 192.09 116.819 191.339 117.764 191.002C118.715 190.675 119.771 190.779 120.709 190.572C121.657 190.379 122.512 189.899 123.493 189.39L122.786 190.808C122.188 189.611 121.702 188.403 121.489 187.045C121.25 185.714 121.075 184.312 121.175 182.887C121.417 180.083 122.551 177.081 124.57 175.692L124.829 175.931C124.631 178.775 124.617 180.821 124.613 183.066L124.454 186.469C124.468 187.612 124.341 188.881 124.302 190.082L124.247 191.695L123.593 191.497C122.754 191.246 121.824 191.39 121.03 191.954C120.221 192.501 119.586 193.582 118.864 194.272C118.134 194.959 117.302 195.353 116.438 195.732C115.562 196.081 114.659 196.388 113.579 196.391L113.406 196.045Z" fill="#5F97BA"/>
<path d="M97.2806 136.066C100.646 135.653 103.747 135.983 106.803 136.729C108.316 137.195 109.838 137.99 111.414 138.046C112.961 138.126 114.606 137.582 115.768 136.462C117.05 135.165 116.818 134.394 117.324 131.876C117.705 129.751 118.204 127.689 118.63 125.816C119.11 123.942 119.399 122.225 119.465 120.327C119.535 118.428 119.336 116.37 119.141 114.179L119.43 113.988C120.573 115.581 121.511 117.499 121.966 119.803C122.478 122.099 122.332 124.681 121.92 126.904C121.474 129.141 120.809 131.077 120.198 133.016C119.844 134.018 119.759 134.802 119.048 136.288C118.363 137.562 117.355 138.202 116.477 138.552C114.682 139.222 113.057 139.145 111.421 139.417C109.794 139.625 108.119 140.196 106.457 140.237C104.801 140.268 103.196 139.815 101.641 139.207C100.091 138.566 98.5727 137.776 97.1863 136.472L97.2806 136.066Z" fill="#5F97BA"/>
<path d="M96.9128 127.818C98.5602 127.653 100.058 127.752 101.528 127.892C103.002 127.998 104.409 128.19 105.834 128.722C107.251 129.25 108.815 129.554 110.227 128.85C111.651 128.212 112.768 126.762 113.647 125.427L113.214 126.315L113.62 121.786C113.715 120.268 113.893 118.779 114.104 117.293L115.413 108.159L115.726 108.059C117.108 110.914 117.422 114.373 117.388 117.615C117.352 119.252 117.178 120.874 116.849 122.452C116.534 124.041 116.201 125.576 115.709 127.146L115.48 127.871L115.272 128.035C113.71 129.26 112.011 129.651 110.472 130.146C108.904 130.519 107.387 131.179 105.749 131.715C104.112 132.256 102.48 131.911 100.967 131.29C99.4503 130.66 97.9935 129.762 96.7938 128.218L96.9128 127.818Z" fill="#5F97BA"/>
<path d="M93.6434 119.402C96.5437 118.974 99.1398 119.255 101.678 119.915C102.932 120.369 104.209 121.077 105.53 121.039C106.822 121.051 108.189 120.28 108.801 119.047C109.299 117.968 109.434 116.303 109.619 114.733C109.756 113.13 109.738 111.476 109.788 109.791C109.943 106.407 110.013 102.916 110.476 99.1484L110.787 99.042C112.356 102.25 113.062 105.899 113.21 109.69C113.26 111.589 113.009 113.541 112.58 115.464C112.146 117.34 111.52 119.409 109.929 120.779C108.427 121.906 106.993 122.072 105.608 122.399C104.224 122.706 102.781 123.359 101.347 123.435C99.9135 123.532 98.5434 123.078 97.2319 122.487C95.924 121.865 94.6545 121.089 93.5402 119.807L93.6434 119.402Z" fill="#5F97BA"/>
<path d="M89.8559 111.324C92.986 110.789 95.8424 110.956 98.6481 111.435C100.032 111.762 101.478 112.418 102.896 112.135C104.314 111.906 105.608 110.721 105.73 109.056C106.076 105.691 105.669 101.901 105.425 98.1674C105.297 94.3766 105.156 90.516 105.512 86.3972L105.823 86.286C107.491 89.7631 108.386 93.6024 108.836 97.5939C109.043 99.592 108.993 101.662 108.834 103.748C108.709 105.812 108.313 108.012 107.318 109.99C106.847 111.012 106.088 111.805 105.362 112.364C104.6 112.839 103.851 113.159 103.092 113.471C101.59 114.045 100.045 114.756 98.4747 114.975C96.9101 115.17 95.3893 114.8 93.9295 114.269C92.4714 113.706 91.05 112.987 89.7651 111.735L89.8559 111.324Z" fill="#5F97BA"/>
<path d="M86.3927 100.597C87.8022 100.509 89.0997 100.727 90.3815 100.974C91.6504 101.271 92.9024 101.579 94.1057 102.044C95.3085 102.499 96.4355 103.38 97.6397 103.893C98.7737 104.426 100.298 104.47 100.956 103.612L100.768 104.095C100.774 101.986 100.364 99.8459 100.248 97.765L99.8068 91.5577C99.6172 87.4177 99.5726 83.4465 99.3971 78.9923L99.69 78.8149C101.99 82.1991 102.964 86.7567 103.239 91.1148C103.312 93.3278 103.197 95.5387 103.012 97.7315C102.825 99.9314 102.249 102.074 101.907 104.235L101.847 104.61L101.719 104.717C100.94 105.36 100.197 105.536 99.5101 105.574C98.8082 105.684 98.1328 105.709 97.4429 105.786C96.063 105.936 94.6528 106.074 93.3422 105.713C92.0305 105.365 90.8037 104.694 89.6066 103.963C88.4256 103.176 87.2787 102.282 86.2703 100.997L86.3927 100.597Z" fill="#5F97BA"/>
<path d="M72.3439 89.1929C74.5989 88.87 76.7918 89.0891 78.9596 89.4514C81.1207 89.8489 83.2675 90.3973 85.309 91.3973C87.3516 92.4156 89.2608 93.9099 91.287 94.8846C93.2964 95.9302 95.3923 96.6572 97.5175 97.4421L96.2531 98.8682C95.4463 96.1873 94.8589 93.4584 94.456 90.6473C94.0092 87.8559 93.7062 84.9969 93.6418 82.0943C93.6055 79.1971 93.7601 76.2374 94.3026 73.3261C94.8282 70.456 95.7082 67.4694 97.3594 65.3474L97.6251 65.5727C96.9117 68.278 96.8278 70.9785 96.7813 73.6647C96.7749 76.3524 96.8452 79.0481 97.0325 81.7577C97.1729 84.4668 97.2817 87.2008 97.4625 89.9502C97.6805 92.6809 97.8511 95.4661 98.0168 98.2245L98.1708 100.769L96.7525 99.6505C94.9279 98.2111 93.0061 96.9291 90.9397 96.1706C88.8816 95.3744 86.6734 95.2238 84.5578 94.7698C82.4414 94.3021 80.4053 93.4959 78.359 92.6614C76.3181 91.7987 74.2831 90.8871 72.2869 89.6083L72.3439 89.1929Z" fill="#5F97BA"/>
<path d="M66.0401 78.7947C68.3803 78.5836 70.6318 78.9302 72.8513 79.45C75.0621 79.9983 77.2555 80.702 79.2864 82.035C81.3197 83.3494 83.2696 84.8782 85.3779 85.8583C87.4615 86.9558 89.6629 87.647 91.8037 89.2802L89.8889 91C89.1845 88.6637 88.7272 86.2939 88.2662 83.8858C87.8277 81.4816 87.4713 79.0274 87.378 76.5149C87.2147 74.0187 87.3002 71.4569 87.5594 68.9082C87.8512 66.387 88.3715 63.7436 89.5651 61.6144L89.8557 61.7737C89.5752 64.218 89.7633 66.5671 89.9303 68.9098C90.0954 71.2506 90.3876 73.5741 90.6496 75.9154C90.9663 78.2448 91.1604 80.609 91.4152 82.9764L92.2039 90.08L92.7637 95.13L90.2891 91.7999C88.8848 89.9119 87.001 88.171 84.986 87.0642C82.9761 85.8608 80.7325 85.4378 78.52 85.0153C76.3062 84.5997 74.222 83.6804 72.1308 82.7277C70.0436 81.7539 67.9755 80.6862 65.9641 79.2045L66.0401 78.7947Z" fill="#5F97BA"/>
<path d="M64.2293 71.0597C65.888 70.414 67.5253 70.3257 69.145 70.3888C70.7567 70.4988 72.375 70.7271 73.8864 71.5038C75.3985 72.2942 76.7969 73.4804 78.2975 74.1554C79.7773 74.9273 81.3534 75.3354 82.9595 75.9091L81.545 77.2392C81.0747 75.2539 80.8613 73.2705 80.7255 71.2445C80.5712 69.228 80.4918 67.1875 80.6444 65.1341C80.8078 63.0884 81.0731 61.0312 81.598 59.026C82.1079 57.0297 82.8268 55.0464 83.9078 53.429L84.1998 53.5936C83.9771 57.6847 84.0434 61.3816 84.0149 65.2472C83.9936 67.1637 83.8966 69.0904 83.8039 71.0349C83.7387 72.9711 83.6667 74.9427 83.4791 76.8977L83.2409 79.3821L82.0628 78.2257C80.835 77.0188 79.4752 75.9352 77.9659 75.4171C76.4613 74.8572 74.8165 74.9672 73.2524 74.8416C71.6839 74.728 70.1993 74.1859 68.693 73.6583C67.1916 73.0934 65.6923 72.4709 64.1983 71.4741L64.2293 71.0597Z" fill="#5F97BA"/>
<path d="M63.4383 60.6561C64.9886 60.5932 66.4231 60.9488 67.8389 61.3734C69.2312 61.8744 70.6204 62.4148 71.9115 63.2523C73.1938 64.1185 74.3417 65.3783 75.5186 66.5036C76.7088 67.618 77.9725 68.4295 79.3109 69.3705L78.3306 70.3362C77.574 68.2452 76.7953 66.164 76.3857 63.8888C76.0012 61.6284 75.6457 59.2978 75.7109 56.8897C75.7643 54.49 76.1223 52.047 76.8671 49.7623C77.6279 47.4869 78.8183 45.4213 80.3298 44.0564L80.5748 44.3186C79.9658 46.5483 79.617 48.5918 79.3831 50.6426C79.1917 52.7106 79.1608 54.7638 79.1173 56.8416C79.0895 58.9195 79.065 61.0565 79.183 63.2018C79.3054 65.3304 79.2454 67.6119 79.5241 69.7468L79.8707 72.3878L78.5457 70.7147C77.571 69.4842 76.2931 68.5716 74.9277 68.0532C73.5425 67.5558 72.0934 67.2823 70.7531 66.6849C69.4218 66.0635 68.1737 65.1881 66.9155 64.3187C65.6792 63.3754 64.4529 62.3917 63.3246 61.0469L63.4383 60.6561Z" fill="#5F97BA"/>
<path d="M140.427 123.017C140.424 124.838 139.973 126.589 139.363 128.186C138.698 129.731 137.925 131.224 136.933 132.412C135.939 133.598 134.68 134.35 133.528 135.169C132.359 135.979 131.362 136.974 130.324 138.081L129.986 138.439L129.566 137.928C128.431 136.546 127.204 135.264 126.266 133.648C125.336 132.038 124.448 130.356 123.76 128.519C123.071 126.682 122.659 124.649 122.399 122.597C122.139 120.54 122.175 118.378 122.517 116.297L122.833 116.234C124.312 119.879 125.564 123.104 126.848 126.466C127.449 128.16 127.995 129.911 128.642 131.616C129.286 133.306 129.751 135.241 130.486 136.887L129.732 136.733C130.844 136.07 131.894 135.082 132.706 133.802C133.531 132.523 134.16 131.033 134.953 129.838C135.746 128.638 136.611 127.561 137.447 126.41C138.315 125.28 139.114 124.105 140.133 122.87L140.427 123.017Z" fill="#5F97BA"/>
<path d="M140.93 107.465C141.108 109.464 140.841 111.34 140.436 113.153C140.016 114.954 139.462 116.742 138.436 118.169C137.42 119.605 136.269 120.833 135.372 122.282C134.432 123.687 133.634 125.33 132.399 126.739L132.022 127.168L131.25 126.704C129.9 125.897 129.044 124.75 128.151 123.511C127.298 122.261 126.57 120.863 126.082 119.32C125.6 117.779 125.3 116.149 125.147 114.51C125.005 112.866 125.065 111.185 125.323 109.53L125.638 109.446C126.988 112.22 127.98 114.82 129.096 117.249C129.657 118.45 130.132 119.696 130.691 120.879C131.219 122.052 131.949 123.195 132.497 124.16L131.349 124.127C132.524 123.711 133.773 122.814 134.648 121.46C135.581 120.154 135.942 118.288 136.343 116.591C136.731 114.875 137.409 113.381 138.115 111.849C138.826 110.323 139.589 108.808 140.627 107.343L140.93 107.465Z" fill="#5F97BA"/>
<path d="M138.797 92.638C139.26 94.7965 139.218 96.936 138.986 99.0278C138.766 101.125 138.269 103.19 137.244 104.967C136.235 106.748 135.388 108.499 134.689 110.422C133.952 112.29 133.32 114.509 131.906 116.13L131.028 117.136L130.039 115.848C128.491 113.824 126.967 111.807 125.867 109.321C124.759 106.865 123.795 104.226 123.375 101.203L123.647 100.969C125.525 102.693 127.03 104.647 128.472 106.693C129.928 108.709 131.032 111.118 132.199 113.429L130.332 113.146C131.445 112.305 132.813 111.263 133.757 109.662C134.758 108.116 135.19 106.082 135.327 104.042C135.447 101.988 135.865 100.119 136.421 98.2432C136.955 96.3607 137.569 94.4857 138.482 92.5934L138.797 92.638Z" fill="#5F97BA"/>
<path d="M135.573 80.5873C135.957 82.7834 135.882 84.9059 135.626 86.9772C135.401 89.058 134.84 91.0626 133.868 92.861C132.888 94.6603 132.234 96.5281 131.75 98.5705C131.215 100.578 130.928 102.916 129.164 104.777L128.441 105.541L127.505 104.721C126.513 103.852 125.764 103.012 124.999 102.033C124.265 101.056 123.644 99.9503 123.112 98.78C122.074 96.4174 121.284 93.8537 121.089 91.0098L121.373 90.8015C123.025 92.5531 124.34 94.3959 125.658 96.1903C126.316 97.0841 126.943 97.9868 127.539 98.9189C128.11 99.8406 128.751 100.845 129.3 101.588L127.643 101.529C128.456 100.947 129.771 99.5267 130.657 97.8847C131.541 96.1993 132.02 94.2104 132.071 92.1094C132.099 89.9955 132.434 88.0445 133.025 86.1461C133.581 84.2341 134.237 82.3521 135.258 80.5174L135.573 80.5873Z" fill="#5F97BA"/>
<path d="M130.462 71.0345C130.993 72.0843 131.158 73.1122 131.251 74.1337C131.315 75.1498 131.315 76.1631 130.991 77.1143C130.654 78.0648 130.009 78.9372 129.761 79.8827C129.509 80.8332 129.503 81.8359 129.612 82.8966C129.739 83.9596 129.764 85.0179 129.619 86.0346C129.505 87.0588 129.383 88.1047 129.038 89.077C128.346 90.9322 127.206 92.9538 125.349 93.6032L125.122 93.3138C125.324 91.0295 125.462 89.3619 125.846 87.5484C126.051 86.6801 126.393 85.8417 126.715 84.9783C127.007 84.1029 127.423 83.2568 127.903 82.4043C128.373 81.5487 128.696 80.63 128.743 79.6471C128.799 78.6654 128.426 77.6012 128.349 76.6098C128.271 75.6185 128.508 74.6907 128.785 73.7597C129.086 72.8301 129.455 71.9099 130.139 71.0044L130.462 71.0345Z" fill="#5F97BA"/>
<path d="M123.759 63.0397C124.522 63.8147 124.922 64.7441 125.238 65.6918C125.529 66.6498 125.754 67.642 125.629 68.6928C125.508 69.7431 125.047 70.8234 124.992 71.828C124.925 72.839 125.102 73.8214 125.387 74.833C125.683 75.8477 125.886 76.8977 125.887 77.9545C125.935 79.0118 125.934 80.1009 125.723 81.1588C125.241 83.2299 124.302 85.3468 122.636 86.4728L122.362 86.2645C122.208 83.901 122.228 82.188 122.382 80.3698C122.688 78.6045 122.958 76.7912 123.638 74.8629C123.955 73.8962 124.102 72.8997 123.963 71.9349C123.827 70.9675 123.265 70.0736 122.979 69.1632C122.708 68.2483 122.732 67.2868 122.792 66.2975C122.878 65.3023 123.015 64.2911 123.447 63.1483L123.759 63.0397Z" fill="#5F97BA"/>
<path d="M117.867 56.6106C118.605 57.243 119 58.0157 119.314 58.8106C119.604 59.6133 119.835 60.4446 119.732 61.3507C119.63 62.2613 119.205 63.2247 119.187 64.092C119.16 64.9626 119.382 65.7837 119.731 66.6083C120.09 67.4315 120.364 68.2844 120.466 69.1696C120.606 70.0452 120.729 70.9485 120.654 71.8554C120.448 73.6494 119.924 75.5574 118.604 76.9664L118.298 76.8705C117.608 74.9436 117.348 73.4321 117.254 71.8182C117.224 71.0215 117.36 70.2162 117.456 69.3887C117.531 68.571 117.727 67.7255 117.992 66.85C118.246 65.9784 118.343 65.105 118.166 64.287C117.995 63.466 117.406 62.7471 117.106 61.9801C116.815 61.2071 116.83 60.3655 116.886 59.5023C116.968 58.6287 117.108 57.7382 117.558 56.7211L117.867 56.6106Z" fill="#5F97BA"/>
<path d="M133.454 150.16C134.346 151.768 134.893 153.435 135.396 155.109C135.884 156.788 136.337 158.454 136.415 160.297C136.516 162.128 136.527 164.06 137.108 165.692C137.615 167.337 138.527 168.845 139.408 170.03L138.944 169.484C139.761 169.53 140.868 169.605 141.834 169.35C142.832 169.127 143.802 168.707 144.812 168.332C145.828 167.972 146.853 167.447 147.922 166.921C148.99 166.373 150.09 165.779 151.304 165.226L151.508 165.537C151.206 166.291 150.837 166.977 150.47 167.686C150.063 168.334 149.628 168.963 149.167 169.563C148.197 170.674 147.137 171.744 145.904 172.435C144.687 173.163 143.332 173.525 141.969 173.523C140.585 173.465 139.283 173.314 137.921 172.221L137.514 171.894L137.459 171.672C136.963 169.722 136.756 167.909 136.218 166.196C135.763 164.465 134.864 162.96 134.131 161.328C133.384 159.702 133.101 157.852 132.935 155.991C132.778 154.127 132.771 152.217 133.145 150.243L133.454 150.16Z" fill="#5F97BA"/>
<path d="M137.235 144.644C138.132 146.128 138.702 147.696 139.205 149.283C139.692 150.875 140.137 152.466 140.214 154.212C140.3 155.954 140.265 157.797 140.777 159.351C141.023 160.129 141.333 160.879 141.748 161.482C142.106 162.107 142.717 162.603 142.91 162.541L142.18 162.473C143.174 161.694 144.243 161.097 145.264 160.433C146.294 159.779 147.297 159.094 148.336 158.569L151.421 156.959C152.442 156.388 153.464 155.886 154.434 154.903L154.714 155.093C154.528 156.858 153.658 158.39 152.754 159.574C151.822 160.761 150.787 161.77 149.704 162.552C148.62 163.355 147.458 163.876 146.292 164.311C145.116 164.732 143.967 165.135 142.715 165.229L142.094 165.275L141.983 165.16C141.049 164.209 140.898 163.243 140.623 162.383C140.384 161.504 140.141 160.687 139.901 159.866C139.403 158.246 138.549 156.805 137.867 155.249C137.171 153.698 136.933 151.95 136.769 150.198C136.622 148.434 136.587 146.638 136.933 144.739L137.235 144.644Z" fill="#5F97BA"/>
<path d="M157.535 142.256C157.55 143.952 156.744 145.359 156.013 146.463C155.215 147.528 154.353 148.478 153.372 149.103C152.384 149.71 151.247 149.873 150.211 150.232C149.171 150.595 148.255 151.232 147.35 152.029L147.215 152.147L146.862 152.038C145.464 151.607 144.208 150.585 143.355 149.289C142.505 147.985 141.726 146.618 141.203 145.119C140.208 142.086 139.76 138.804 140.157 135.33L140.463 135.213C142.127 137.796 143.276 140.446 144.289 143.086C144.767 144.421 145.156 145.79 145.668 147.031C146.18 148.247 146.553 149.662 147.367 150.459L146.877 150.47C147.88 150.164 148.848 149.623 149.673 148.746C150.498 147.86 151.197 146.712 152.012 145.93C152.825 145.141 153.721 144.594 154.589 143.985C155.481 143.386 156.317 142.92 157.243 142.104L157.535 142.256Z" fill="#5F97BA"/>
<path d="M142.688 126.31C143.606 127.393 144.234 128.563 144.814 129.748C145.374 130.945 145.924 132.097 146.183 133.463C146.428 134.835 146.578 136.354 147.19 137.485C147.778 138.589 148.758 139.421 149.656 139.414L148.944 139.415C149.698 138.546 150.536 137.772 151.313 137.01L153.556 134.67C155.08 133.185 156.411 131.892 157.741 129.466L158.056 129.512C158.388 130.989 158.229 132.689 157.758 134.175C157.29 135.678 156.534 136.948 155.699 138.032C154.857 139.127 153.836 139.848 152.823 140.485C151.801 141.129 150.78 141.63 149.603 141.809L148.988 141.904L148.891 141.81C147.76 140.708 147.185 139.406 146.424 138.318C145.693 137.213 144.677 136.307 143.914 135.149C143.152 133.989 142.779 132.547 142.511 131.094C142.264 129.627 142.129 128.108 142.387 126.449L142.688 126.31Z" fill="#5F97BA"/>
<path d="M142.879 118.297C143.883 119.232 144.613 120.337 145.311 121.458C145.974 122.604 146.612 123.749 147.051 125.044C147.481 126.343 147.656 127.88 148.152 129.149C148.382 129.795 148.711 130.359 149.098 130.783C149.392 131.274 150.14 131.393 149.845 131.215L149.715 131.34C150.393 130.004 150.949 128.49 151.653 127.232L153.581 123.334C154.224 122.077 154.948 120.897 155.57 119.639C156.195 118.376 156.832 117.121 157.371 115.515L157.69 115.493C158.25 117.136 158.241 119.079 157.955 120.841C157.672 122.628 157.129 124.284 156.413 125.763C155.699 127.248 154.766 128.491 153.838 129.685C152.923 130.914 151.789 131.802 150.66 132.714L150.53 132.839C149.869 133.23 149.374 132.807 149.119 132.586C148.824 132.319 148.622 132.019 148.406 131.751C148.005 131.176 147.635 130.621 147.207 130.119C146.387 129.081 145.378 128.178 144.679 127.005C143.986 125.826 143.554 124.448 143.175 123.048C142.833 121.621 142.555 120.157 142.595 118.491L142.879 118.297Z" fill="#5F97BA"/>
<path d="M143.622 110.957C145.528 111.86 146.894 113.381 148.108 115.078C148.701 115.939 149.073 117.065 149.459 118.177C149.653 118.729 149.872 119.258 150.129 119.726C150.246 119.954 150.409 120.193 150.52 120.316C150.52 120.316 150.582 120.372 150.504 120.316C150.461 120.29 150.408 120.278 150.36 120.285C150.389 120.279 150.068 120.262 149.937 120.588C149.822 120.932 149.893 121.002 149.873 120.941L149.855 120.721L149.819 120.278L149.802 120.062L149.919 119.828C150.61 118.467 150.879 116.713 151.298 115.163L152.69 110.676C153.154 109.215 153.795 107.877 154.354 106.49C154.928 105.099 155.561 103.759 156.176 102.131L156.497 102.117C157.092 103.803 157.143 105.734 156.962 107.509C156.77 109.301 156.388 111.024 155.749 112.566C155.091 114.095 154.36 115.544 153.5 116.868C152.608 118.178 151.506 119.239 150.716 120.593L150.815 120.145L150.824 120.592L150.83 120.816C150.815 120.775 150.879 120.862 150.754 121.221C150.611 121.555 150.289 121.576 150.303 121.558C150.23 121.55 150.152 121.523 150.082 121.485C149.953 121.399 149.985 121.408 149.929 121.363C149.691 121.126 149.541 120.947 149.341 120.765C148.971 120.404 148.581 120.075 148.168 119.773C147.345 119.167 146.526 118.554 145.935 117.67C144.78 115.872 143.798 113.875 143.373 111.239L143.622 110.957Z" fill="#5F97BA"/>
<path d="M142.43 102.548C143.378 102.658 144.168 103.035 144.905 103.5C145.633 103.984 146.325 104.53 146.927 105.216C147.528 105.906 147.919 106.928 148.349 107.881C148.775 108.839 149.333 109.584 150.015 110.146L149.155 110.542C149.284 109.137 149.063 107.631 149.124 106.194C149.221 104.771 149.367 103.355 149.601 101.96C149.863 100.569 150.331 99.2474 150.901 97.9577C151.483 96.6984 152.198 95.3774 153.302 94.4854L153.56 94.7234C153.534 96.2378 153.579 97.6211 153.457 99.0085C153.346 100.385 153.218 101.762 152.896 103.074C152.551 104.381 152.156 105.684 151.724 106.98C151.258 108.265 150.531 109.489 150.177 110.816L149.865 111.989L149.317 111.212C148.775 110.446 148.109 109.864 147.314 109.495C146.52 109.118 145.688 108.814 145.066 108.178C144.445 107.539 143.914 106.756 143.418 105.913C142.935 105.05 142.5 104.1 142.223 102.883L142.43 102.548Z" fill="#5F97BA"/>
<path d="M141.131 93.0603C142.745 92.1782 144.361 92.7043 145.705 93.6143C146.387 94.076 146.936 94.8199 147.317 95.729C147.709 96.625 148.001 97.5644 148.414 98.3245L147.534 98.6386C147.912 97.179 147.859 95.6213 147.818 94.0206C147.798 92.4262 148.083 90.924 148.351 89.3988C148.634 87.8783 149.192 86.4588 149.905 85.1307C150.622 83.8184 151.528 82.5699 152.725 81.7717L152.984 82.0103C152.868 83.7079 152.728 85.1677 152.491 86.6036C152.248 88.0268 151.998 89.4391 151.517 90.7633C151.021 92.0873 150.627 93.4642 149.969 94.7686C149.299 96.0633 148.655 97.421 148.516 98.8965L148.401 100.128L147.637 99.2107C147.143 98.6179 146.494 98.2345 145.843 97.9616C145.207 97.657 144.627 97.3677 144.156 96.8521C143.163 95.8879 142.211 94.9343 141.09 93.4863L141.131 93.0603Z" fill="#5F97BA"/>
<path d="M161.006 214.123C160.11 215.436 159.122 216.336 158.111 217.151C157.091 217.934 156.073 218.69 154.904 218.974C153.737 219.259 152.487 219.342 151.42 219.988C150.347 220.607 149.42 221.634 148.571 222.751L147.755 223.82L147.086 221.783C146.652 220.465 146.395 219.096 146.136 217.746C145.873 216.391 145.594 215.053 145.483 213.671C145.362 212.295 145.293 210.912 145.268 209.51C145.232 208.099 145.282 206.712 145.24 205.202L145.515 204.982C146.483 205.949 147.136 207.292 147.64 208.607C148.139 209.941 148.519 211.323 148.792 212.726C149.071 214.129 149.144 215.58 149.196 217.024C149.25 218.471 149.279 219.912 149.093 221.409L147.609 220.441C148.813 220.018 149.974 219.599 151.014 218.837C152.065 218.118 152.95 216.882 153.935 215.907C154.92 214.932 156.067 214.471 157.226 214.084C158.394 213.728 159.597 213.49 160.906 213.728L161.006 214.123Z" fill="#5F97BA"/>
<path d="M164.376 201.58C163.532 203.132 162.518 204.216 161.447 205.147C160.38 206.087 159.245 206.832 157.916 207.005C156.599 207.208 155.341 207.57 154.258 208.48C153.146 209.314 152.205 210.623 151.007 211.473L149.853 212.292L149.252 210.281C148.588 208.064 147.879 205.864 147.657 203.48C147.423 201.102 147.323 198.668 147.728 196.051L148.035 195.934C149.335 197.912 150.133 200.077 150.796 202.297C151.468 204.51 151.656 206.909 151.889 209.289L150.135 208.102C151.295 207.771 152.658 207.727 153.848 207.196C155.066 206.734 156.098 205.691 157.063 204.472C158.018 203.221 159.159 202.529 160.366 202.021C161.568 201.5 162.824 201.122 164.245 201.2L164.376 201.58Z" fill="#5F97BA"/>
<path d="M168.713 189.729C167.788 191.419 166.648 192.497 165.456 193.415C164.855 193.856 164.242 194.27 163.567 194.471C162.89 194.67 162.17 194.719 161.465 194.81C160.048 194.976 158.826 195.745 157.658 196.839C156.502 197.997 155.273 198.904 153.867 199.521L152.598 200.077L151.989 198.044C151.781 197.344 151.473 196.505 151.266 195.7C151.046 194.882 150.852 194.041 150.67 193.178C150.299 191.45 149.934 189.699 149.697 187.629L149.955 187.373C151.38 188.299 152.481 189.737 153.348 191.356C153.793 192.163 154.161 193.031 154.456 193.95C154.76 194.883 154.919 195.809 155.077 196.917L153.199 195.439L155.104 195.054C155.763 194.937 156.457 194.928 157.145 194.835C158.525 194.692 159.824 194.139 160.92 192.932C161.471 192.343 162 191.686 162.572 191.188C163.144 190.681 163.779 190.384 164.42 190.099C165.714 189.567 167.053 189.178 168.59 189.35L168.713 189.729Z" fill="#5F97BA"/>
<path d="M174.508 172.484C173.289 174.525 171.858 175.907 170.387 177.193C168.969 178.594 167.101 178.902 165.422 179.736C163.754 180.587 162.462 182.302 161.267 184.078C160.054 185.817 158.724 187.263 157.53 188.834L155.332 191.728L154.724 187.519C154.479 185.829 154.382 183.994 154.25 182.227C154.094 180.443 154.109 178.654 153.75 176.821L153.99 176.529C154.713 176.993 155.275 177.786 155.734 178.588C156.194 179.405 156.571 180.276 156.88 181.17C157.491 182.973 157.948 184.786 158.12 186.772L155.316 185.459C156.81 183.958 158.335 182.602 160.036 181.664C161.757 180.769 163.47 179.986 164.831 178.397C166.185 176.802 167.399 174.789 169.083 173.927C170.718 172.959 172.419 172.149 174.373 172.104L174.508 172.484Z" fill="#5F97BA"/>
<path d="M181.136 147.303C181.182 150.643 180.159 153.69 178.863 156.379C177.59 159.172 175.202 160.694 173.482 162.764C171.687 164.744 170.336 167.549 168.403 169.521C166.505 171.507 164.422 173.242 162.153 174.333L161.843 174.481L161.727 174.489C160.994 174.545 160.842 174.385 160.495 174.243C160.194 174.092 159.953 173.889 159.743 173.671C159.308 173.238 159.039 172.751 158.789 172.277C158.318 171.319 158.126 170.342 157.958 169.407C157.683 167.525 157.77 165.687 158.048 163.894L158.366 163.828C158.711 164.609 158.952 165.4 159.277 166.134C159.563 166.879 159.859 167.589 160.166 168.237C160.468 168.872 160.808 169.454 161.123 169.831C161.279 169.999 161.436 170.155 161.542 170.178C161.594 170.196 161.637 170.197 161.64 170.183C161.591 170.185 161.761 170.118 161.353 170.141L160.926 170.298C162.877 168.861 164.966 167.877 166.938 166.455C168.96 165.195 171.194 164.023 172.814 161.842C174.484 159.695 175.11 156.49 176.514 154.263C177.871 151.916 179.182 149.592 180.829 147.183L181.136 147.303Z" fill="#5F97BA"/>
<path d="M161.307 147.8C162.768 150.124 163.588 152.623 164.292 155.152C164.63 156.415 164.69 157.819 164.854 159.188C165.002 160.517 165.416 161.924 166.114 162.524L165.57 162.512C166.725 161.43 167.604 159.76 168.53 158.336C169.493 156.943 170.44 155.571 171.355 154.175C172.291 152.809 173.324 151.579 174.35 150.28C175.405 149.01 176.442 147.704 177.696 146.423L177.974 146.619C177.751 148.659 177.253 150.647 176.498 152.41C175.756 154.188 174.879 155.885 173.768 157.278C172.648 158.65 171.453 159.912 170.163 160.977C168.84 162.011 167.382 162.664 166.073 163.65L165.74 163.901L165.527 163.636C164.598 162.481 164.087 161.301 163.323 160.176C162.606 159.037 161.94 157.844 161.574 156.5C160.91 153.796 160.558 150.968 160.998 147.911L161.307 147.8Z" fill="#5F97BA"/>
<path d="M164.689 127.383C165.737 127.649 166.61 128.161 167.427 128.752C168.231 129.362 168.994 130.026 169.665 130.831C170.334 131.639 170.79 132.771 171.291 133.846C171.788 134.924 172.424 135.797 173.175 136.482L172.312 137.07C172.166 135.422 171.732 133.791 171.627 132.103C171.561 130.429 171.603 128.733 171.783 127.043C171.992 125.357 172.495 123.722 173.125 122.181C173.776 120.65 174.668 119.231 175.795 118.192L176.067 118.403C175.96 120.181 175.83 121.728 175.672 123.261C175.524 124.797 175.398 126.294 175.14 127.781L174.298 132.304C173.988 133.823 173.447 135.412 173.36 136.977L173.264 138.673L172.495 137.567C171.872 136.669 171.13 135.965 170.253 135.461C169.378 134.956 168.457 134.51 167.751 133.735C167.046 132.96 166.434 132.044 165.862 131.075C165.302 130.085 164.799 129.017 164.474 127.705L164.689 127.383Z" fill="#5F97BA"/>
<path d="M161.501 119.116C162.608 119.031 163.616 119.282 164.577 119.668C165.538 120.058 166.464 120.573 167.313 121.272C168.172 121.951 168.86 123.007 169.461 124.14C170.068 125.278 170.669 126.317 171.328 127.375L170.424 127.76C170.462 125.905 170.1 124.047 170.001 122.156C169.937 120.278 170.055 118.403 170.222 116.528C170.413 114.657 170.915 112.845 171.507 111.092C172.112 109.341 172.938 107.673 174.009 106.236L174.303 106.386C174.359 108.371 174.28 110.181 174.152 111.972C174.02 113.757 173.875 115.512 173.568 117.245C173.225 118.969 172.921 120.711 172.528 122.461C172.105 124.198 171.492 125.979 171.412 127.767L171.316 129.934L170.508 128.152C170.047 127.135 169.201 126.465 168.317 126.009C167.422 125.55 166.514 125.18 165.738 124.519C164.198 123.164 162.674 121.72 161.359 119.506L161.501 119.116Z" fill="#5F97BA"/>
<path d="M159.962 105.817C162.077 106.51 163.775 107.996 165.317 109.746C166.904 111.47 167.743 114.224 168.374 117.023L167.363 117.243C167.627 114.991 167.536 112.762 167.48 110.432C167.429 108.106 167.813 105.825 168.286 103.538C168.76 101.254 169.651 99.0529 170.928 97.1881C172.174 95.3367 173.908 93.8097 175.757 93.5921L175.886 93.9742C174.671 95.7273 173.939 97.4702 173.263 99.2791C172.581 101.077 172.079 103.003 171.433 104.913C170.773 106.83 170.297 108.865 169.618 110.901C168.928 112.93 168.364 115.107 168.405 117.272L168.463 120.393L167.394 117.491C167.014 116.458 166.215 115.666 165.438 114.945C164.652 114.217 163.942 113.42 163.305 112.477C162.028 110.604 160.745 108.681 159.77 106.153L159.962 105.817Z" fill="#5F97BA"/>
<path d="M160.428 93.2662C161.127 92.8625 161.661 92.8831 162.152 92.9838C162.63 93.1157 163.085 93.3229 163.342 93.8889C163.598 94.4574 163.649 95.3605 163.945 95.8129C164.229 96.2871 164.679 96.4839 165.218 96.5827C165.774 96.6567 166.272 96.8695 166.673 97.2241C167.089 97.5654 167.521 97.9202 167.798 98.4835C168.302 99.6034 168.623 101.175 167.977 102.825L167.679 102.971C166.432 102.424 165.767 102.039 165.17 101.363C164.897 101.021 164.727 100.533 164.532 100.045C164.305 99.5966 164.181 98.9924 164.062 98.3219C163.947 97.651 163.707 97.13 163.307 96.8815C162.901 96.6359 162.253 96.8386 161.789 96.7477C161.33 96.6448 161.054 96.2101 160.794 95.7168C160.548 95.1967 160.334 94.6024 160.269 93.6289L160.428 93.2662Z" fill="#5F97BA"/>
</g>
</svg>
