<svg width="388" height="287" viewBox="0 0 388 287" fill="none" xmlns="http://www.w3.org/2000/svg">
<path d="M370.236 77.1381C370.324 77.2925 370.212 77.4843 370.034 77.4843L36.509 77.4843C36.4459 77.4843 36.3855 77.4586 36.3418 77.413L21.5327 61.9652C21.4459 61.8747 21.4469 61.7315 21.5349 61.6422L45.7328 37.0916C45.7794 37.0443 45.844 37.0193 45.9102 37.0229L105 40.1889L157.617 37.0173L198.938 33.2602C198.952 33.259 198.965 33.259 198.979 33.2601L243.119 37.0173L267.056 40.6553C267.071 40.6576 267.086 40.6584 267.101 40.6577L347.271 37.0237C347.358 37.0198 347.44 37.0649 347.483 37.1406L370.236 77.1381Z" fill="#90B05B"/>
<path d="M213.056 39.2493L167.016 46.7671L119.567 50.0562L93.2585 43.0082L53.3262 46.7671L28.897 61.8028L32.1855 78.7179L81.5137 67.4412H281.645L347.416 58.9836L322.987 46.7671L254.397 58.9836L213.056 39.2493Z" fill="#9ED35D"/>
<path d="M109.937 45.2412H97.7692L95.8186 51H87.5056L99.3018 18.3979H108.497L120.293 51H111.887L109.937 45.2412ZM107.894 39.1109L103.853 27.1754L99.8591 39.1109H107.894ZM131.825 28.7544C132.568 27.5469 133.636 26.5716 135.03 25.8285C136.423 25.0855 138.017 24.7139 139.813 24.7139C141.949 24.7139 143.885 25.2558 145.618 26.3394C147.352 27.423 148.715 28.9711 149.705 30.9836C150.727 32.9961 151.238 35.3336 151.238 37.9963C151.238 40.659 150.727 43.012 149.705 45.0554C148.715 47.0679 147.352 48.6315 145.618 49.7461C143.885 50.8297 141.949 51.3715 139.813 51.3715C137.986 51.3715 136.392 51.0155 135.03 50.3034C133.667 49.5603 132.599 48.585 131.825 47.3775V51H123.884V16.6331H131.825V28.7544ZM143.157 37.9963C143.157 36.0148 142.6 34.4667 141.485 33.3521C140.401 32.2065 139.055 31.6338 137.445 31.6338C135.866 31.6338 134.519 32.2065 133.404 33.3521C132.321 34.4977 131.779 36.0612 131.779 38.0427C131.779 40.0243 132.321 41.5878 133.404 42.7334C134.519 43.8789 135.866 44.4517 137.445 44.4517C139.024 44.4517 140.37 43.8789 141.485 42.7334C142.6 41.5568 143.157 39.9778 143.157 37.9963ZM167.2 51.3715C164.662 51.3715 162.37 50.8297 160.327 49.7461C158.315 48.6624 156.72 47.1144 155.544 45.1019C154.398 43.0894 153.825 40.7364 153.825 38.0427C153.825 35.3801 154.413 33.0425 155.59 31.03C156.766 28.9866 158.376 27.423 160.42 26.3394C162.463 25.2558 164.754 24.7139 167.293 24.7139C169.832 24.7139 172.123 25.2558 174.167 26.3394C176.21 27.423 177.82 28.9866 178.997 31.03C180.173 33.0425 180.761 35.3801 180.761 38.0427C180.761 40.7054 180.158 43.0585 178.95 45.1019C177.774 47.1144 176.148 48.6624 174.074 49.7461C172.03 50.8297 169.739 51.3715 167.2 51.3715ZM167.2 44.4981C168.718 44.4981 170.002 43.9408 171.055 42.8262C172.139 41.7116 172.681 40.1171 172.681 38.0427C172.681 35.9683 172.154 34.3738 171.102 33.2592C170.08 32.1446 168.81 31.5873 167.293 31.5873C165.745 31.5873 164.46 32.1446 163.439 33.2592C162.417 34.3429 161.906 35.9374 161.906 38.0427C161.906 40.1171 162.401 41.7116 163.392 42.8262C164.414 43.9408 165.683 44.4981 167.2 44.4981ZM210.564 25.0855V51H202.622V47.4704C201.817 48.616 200.718 49.5448 199.325 50.2569C197.963 50.9381 196.446 51.2787 194.774 51.2787C192.792 51.2787 191.043 50.8452 189.526 49.9783C188.009 49.0804 186.832 47.7955 185.996 46.1236C185.16 44.4517 184.742 42.4857 184.742 40.2255V25.0855H192.637V39.1573C192.637 40.8912 193.086 42.238 193.984 43.1978C194.882 44.1576 196.09 44.6375 197.607 44.6375C199.155 44.6375 200.378 44.1576 201.276 43.1978C202.174 42.238 202.622 40.8912 202.622 39.1573V25.0855H210.564ZM230.712 44.2659V51H226.671C223.792 51 221.547 50.3034 219.937 48.9101C218.327 47.4859 217.522 45.1793 217.522 41.9903V31.6802H214.364V25.0855H217.522V18.7694H225.464V25.0855H230.665V31.6802H225.464V42.0832C225.464 42.8572 225.65 43.4145 226.021 43.7551C226.393 44.0957 227.012 44.2659 227.879 44.2659H230.712ZM252.779 18.3979V37.9034C252.779 39.854 253.259 41.3556 254.219 42.4083C255.179 43.4609 256.587 43.9873 258.445 43.9873C260.303 43.9873 261.727 43.4609 262.718 42.4083C263.709 41.3556 264.204 39.854 264.204 37.9034V18.3979H272.145V37.857C272.145 40.7673 271.526 43.2287 270.288 45.2412C269.049 47.2537 267.377 48.7708 265.272 49.7925C263.198 50.8142 260.876 51.3251 258.306 51.3251C255.736 51.3251 253.429 50.8297 251.386 49.839C249.374 48.8172 247.779 47.3001 246.602 45.2877C245.426 43.2442 244.838 40.7673 244.838 37.857V18.3979H252.779ZM288.264 51.3715C286.004 51.3715 283.992 50.9845 282.227 50.2105C280.462 49.4365 279.069 48.3838 278.047 47.0524C277.025 45.6902 276.453 44.1731 276.329 42.5011H284.178C284.27 43.399 284.688 44.1266 285.431 44.6839C286.175 45.2412 287.088 45.5199 288.172 45.5199C289.162 45.5199 289.921 45.3341 290.447 44.9626C291.004 44.5601 291.283 44.0492 291.283 43.43C291.283 42.6869 290.896 42.1451 290.122 41.8045C289.348 41.433 288.094 41.0305 286.36 40.597C284.503 40.1636 282.955 39.7146 281.716 39.2502C280.478 38.7548 279.41 37.9963 278.512 36.9746C277.614 35.9219 277.165 34.5132 277.165 32.7484C277.165 31.2622 277.567 29.9154 278.372 28.7079C279.208 27.4695 280.416 26.4942 281.995 25.7821C283.605 25.07 285.509 24.7139 287.707 24.7139C290.958 24.7139 293.512 25.5189 295.37 27.1289C297.259 28.7389 298.342 30.8752 298.621 33.5379H291.283C291.159 32.64 290.757 31.9279 290.076 31.4016C289.425 30.8752 288.559 30.612 287.475 30.612C286.546 30.612 285.834 30.7978 285.339 31.1693C284.843 31.5099 284.596 31.9898 284.596 32.609C284.596 33.3521 284.983 33.9094 285.757 34.2809C286.562 34.6525 287.8 35.024 289.472 35.3956C291.391 35.8909 292.955 36.3863 294.163 36.8817C295.37 37.3461 296.423 38.1201 297.321 39.2038C298.249 40.2565 298.729 41.6807 298.76 43.4764C298.76 44.9935 298.327 46.3558 297.46 47.5633C296.624 48.7398 295.401 49.6687 293.791 50.3498C292.212 51.031 290.37 51.3715 288.264 51.3715Z" fill="white"/>
<g filter="url(#filter0_d_374_1725)">
<path d="M384.861 102.504C384.926 102.657 384.814 102.828 384.648 102.828L3.39322 102.828C3.21671 102.828 3.10501 102.638 3.19055 102.484L16.8824 77.7655C16.8994 77.7348 16.9231 77.7084 16.9518 77.6882L44.8467 58.0604C44.8623 58.0494 44.8793 58.0404 44.8972 58.0335L76.7426 45.8555C76.7903 45.8372 76.8427 45.8353 76.8917 45.8499L117.635 58.0281C117.67 58.0384 117.707 58.0405 117.742 58.0342L146.786 52.8805C146.805 52.8771 146.825 52.8761 146.845 52.8777L211.146 58.0413C211.166 58.043 211.187 58.0419 211.207 58.0381L275.949 45.8385C275.988 45.8312 276.028 45.8339 276.065 45.8464L312.604 58.0279C312.636 58.0384 312.669 58.042 312.702 58.0385L363.179 52.6284C363.28 52.6176 363.377 52.6738 363.417 52.767L384.861 102.504Z" fill="#B9EE79"/>
</g>
<rect x="156.917" y="180.568" width="15.3919" height="67.6639" rx="0.0534691" fill="#AE0D94"/>
<rect x="140.124" y="146.733" width="15.3919" height="67.6639" rx="0.0534691" fill="#AE0D94"/>
<rect x="144.322" y="148.564" width="15.3919" height="67.6639" rx="0.0534691" fill="#AE0D94"/>
<rect x="302.44" y="162.28" width="15.3919" height="67.6639" rx="0.0534691" fill="#AE0D94"/>
<rect x="239.471" y="154.051" width="15.3919" height="67.6639" rx="0.0534691" fill="#AE0D94"/>
<rect x="289.845" y="133.934" width="15.3919" height="67.6639" rx="0.0534691" fill="#AE0D94"/>
<rect x="278.651" y="142.163" width="15.3919" height="67.6639" rx="0.0534691" fill="#AE0D94"/>
<rect x="254.862" y="179.653" width="15.3919" height="67.6639" rx="0.0534691" fill="#AE0D94"/>
<rect x="280.052" y="122.048" width="15.3919" height="67.6639" rx="0.0534691" fill="#AE0D94"/>
<rect x="102.344" y="162.28" width="15.3919" height="67.6639" rx="0.0534691" fill="#AE0D94"/>
<rect x="116.336" y="187.883" width="15.3919" height="67.6639" rx="0.0534691" fill="#AE0D94"/>
<rect x="116.336" y="158.622" width="15.3919" height="67.6639" rx="0.0534691" fill="#AE0D94"/>
<rect x="86.9526" y="143.078" width="15.3919" height="67.6639" rx="0.0534691" fill="#660050"/>
<rect x="85.5542" y="128.447" width="15.3919" height="67.6639" rx="0.0534691" fill="#660050"/>
<rect x="154.119" y="133.934" width="15.3919" height="67.6639" rx="0.0534691" fill="#660050"/>
<rect x="131.73" y="160.451" width="15.3919" height="67.6639" rx="0.0534691" fill="#660050"/>
<rect x="263.262" y="146.733" width="15.3919" height="67.6639" rx="0.0534691" fill="#660050"/>
<rect x="123.333" y="136.676" width="15.3919" height="67.6639" rx="0.0534691" fill="#660050"/>
<rect x="268.856" y="124.791" width="15.3919" height="67.6639" rx="0.0534691" fill="#660050"/>
<path d="M268.856 124.844C268.856 124.814 268.88 124.791 268.91 124.791H284.195C284.224 124.791 284.248 124.814 284.248 124.844V192.401C284.248 192.43 284.224 192.454 284.195 192.454H268.91C268.88 192.454 268.856 192.43 268.856 192.401V124.844Z" fill="#660050"/>
<path d="M294.743 165.991C294.743 165.961 294.767 165.937 294.796 165.937H310.081C310.111 165.937 310.135 165.961 310.135 165.991V233.548C310.135 233.577 310.111 233.601 310.081 233.601H294.796C294.767 233.601 294.743 233.577 294.743 233.548V165.991Z" fill="#660050"/>
<path d="M268.856 82.7832C268.856 82.7537 268.88 82.7297 268.91 82.7297H284.195C284.224 82.7297 284.248 82.7537 284.248 82.7832V146.684C284.248 146.713 284.224 146.737 284.195 146.737H268.91C268.88 146.737 268.856 146.713 268.856 146.684V82.7832Z" fill="#660050"/>
<path d="M294.743 120.274C294.743 120.244 294.767 120.22 294.796 120.22H310.081C310.111 120.22 310.135 120.244 310.135 120.274V187.831C310.135 187.86 310.111 187.884 310.081 187.884H294.796C294.767 187.884 294.743 187.86 294.743 187.831V120.274Z" fill="#660050"/>
<path d="M49.1704 116.561H96.7455L91.1484 188.797L89.7492 200.226L84.8517 188.797L74.3572 208.456L63.8627 199.312L58.9653 177.367L49.1704 189.711V116.561Z" fill="#344C4C"/>
<path d="M226.881 122.048H274.456L268.859 194.284L267.46 205.713L262.562 194.284L252.068 213.943L241.573 204.799L236.676 182.854L226.881 195.198V122.048Z" fill="#336262"/>
<path d="M298.242 108.331H345.817L340.22 180.566L338.821 191.996L333.924 180.566L323.429 200.225L312.934 191.082L308.037 169.137L298.242 181.481V108.331Z" fill="#2A5A5A"/>
<path d="M239.471 146.733H166.709L170.207 256.704L177.409 274.104L184.899 256.704L200.95 286.633L217 272.712L224.49 239.304L239.471 258.096V146.733Z" fill="#273535"/>
<rect x="303.84" y="91.8723" width="61.5678" height="22.8594" rx="0.106938" fill="#745B5F"/>
<rect x="212.887" y="160.451" width="89.5531" height="36.5751" rx="0.106938" transform="rotate(-180 212.887 160.451)" fill="#665754"/>
<rect x="334.622" y="139.418" width="95.1502" height="38.4038" rx="0.124761" transform="rotate(-180 334.622 139.418)" fill="#665754"/>
<rect x="33.7788" y="102.845" width="61.5678" height="22.8594" rx="0.106938" fill="#745B5F"/>
<path d="M35.2322 95.5843C53.539 96.2041 90.2856 95.3134 94.5016 95.5843C107.589 96.4254 100.266 111.076 100.266 111.076H28.2003C28.2003 111.076 22.0988 95.1397 35.2322 95.5843Z" fill="#7DA55A"/>
<path d="M305.134 86.4314C323.11 86.9418 359.194 86.2083 363.334 86.4314C376.185 87.1241 368.995 99.1892 368.995 99.1892H298.228C298.228 99.1892 292.237 86.0653 305.134 86.4314Z" fill="#97D263"/>
<path d="M73.0115 101.069C91.3183 101.689 128.065 100.798 132.281 101.069C145.368 101.91 138.046 116.561 138.046 116.561H65.9796C65.9796 116.561 59.8781 100.624 73.0115 101.069Z" fill="#96CC5B"/>
<rect x="71.562" y="113.818" width="61.5678" height="22.8594" rx="0.106938" fill="#7C655D"/>
<path d="M256.265 99.2927C256.265 99.2337 256.313 99.1858 256.372 99.1858H317.725C317.785 99.1858 317.832 99.2337 317.832 99.2927V118.281C317.832 118.34 317.785 118.388 317.725 118.388H256.372C256.313 118.388 256.265 118.34 256.265 118.281V99.2927Z" fill="#7C655D"/>
<path d="M257.717 91.0111C276.023 91.6308 312.77 90.7401 316.986 91.0111C330.073 91.8521 322.751 106.503 322.751 106.503H250.685C250.685 106.503 244.583 90.5665 257.717 91.0111Z" fill="#7DA55A"/>
<path d="M250.559 88.2156C250.618 88.2156 250.666 88.2635 250.666 88.3225L250.666 146.629C250.666 146.688 250.618 146.736 250.559 146.736L194.802 146.736C194.743 146.736 194.695 146.688 194.695 146.629L194.695 88.3225C194.695 88.2635 194.743 88.2156 194.802 88.2156L250.559 88.2156Z" fill="#705E5B"/>
<path d="M194.697 88.3225C194.697 88.2635 194.745 88.2156 194.804 88.2156L284.143 88.2156C284.203 88.2156 284.25 88.2635 284.25 88.3225V124.684C284.25 124.743 284.203 124.791 284.143 124.791H194.804C194.745 124.791 194.697 124.743 194.697 124.684V88.3225Z" fill="#705E5B"/>
<rect x="133.13" y="101.016" width="69.9634" height="22.8594" rx="0.106938" fill="#7D6463"/>
<path d="M141.425 98.3179C159.401 98.8283 195.485 98.0948 199.625 98.3179C212.476 99.0106 205.286 111.076 205.286 111.076H134.519C134.519 111.076 128.528 97.9518 141.425 98.3179Z" fill="#97D263"/>
<path d="M200.21 81.8611C224.292 82.4079 272.631 81.622 278.177 81.8611C295.393 82.6032 285.76 95.5301 285.76 95.5301H190.96C190.96 95.5301 182.934 81.4688 200.21 81.8611Z" fill="#A4D965"/>
<rect x="151.319" y="113.818" width="58.5201" height="55.9707" rx="0.106938" transform="rotate(90 151.319 113.818)" fill="#705E5B"/>
<path d="M94.0013 106.556C112.308 107.176 149.055 106.285 153.271 106.556C166.358 107.397 159.036 122.048 159.036 122.048H86.9693C86.9693 122.048 80.8679 106.111 94.0013 106.556Z" fill="#A3D768"/>
<path d="M150.988 268.103L156.585 264.651L162.655 272.852L156.549 276.617L150.988 268.103Z" fill="#344C4C"/>
<path d="M89.1141 229.739L94.7114 226.287L100.781 234.488L94.6752 238.253L89.1141 229.739Z" fill="#477474"/>
<path d="M282.591 248.512L285.948 243.987L290.412 248.45L286.749 253.387L282.591 248.512Z" fill="#336262"/>
<path d="M205.227 228.068L208.585 223.543L213.049 228.006L209.386 232.943L205.227 228.068Z" fill="#336262"/>
<path d="M119.873 213.437L123.23 208.912L127.694 213.375L124.031 218.312L119.873 213.437Z" fill="#336262"/>
<path d="M59.7048 200.637L63.0625 196.112L67.5263 200.575L63.8634 205.511L59.7048 200.637Z" fill="#336262"/>
<path d="M250.923 268.992L247.526 273.505L243.101 269.025L246.807 264.103L250.923 268.992Z" fill="#273535"/>
<defs>
<filter id="filter0_d_374_1725" x="0.25852" y="45.8345" width="387.524" height="62.7984" filterUnits="userSpaceOnUse" color-interpolation-filters="sRGB">
<feFlood flood-opacity="0" result="BackgroundImageFix"/>
<feColorMatrix in="SourceAlpha" type="matrix" values="0 0 0 0 0 0 0 0 0 0 0 0 0 0 0 0 0 0 127 0" result="hardAlpha"/>
<feOffset dy="2.90261"/>
<feGaussianBlur stdDeviation="1.45131"/>
<feComposite in2="hardAlpha" operator="out"/>
<feColorMatrix type="matrix" values="0 0 0 0 0 0 0 0 0 0 0 0 0 0 0 0 0 0 0.25 0"/>
<feBlend mode="normal" in2="BackgroundImageFix" result="effect1_dropShadow_374_1725"/>
<feBlend mode="normal" in="SourceGraphic" in2="effect1_dropShadow_374_1725" result="shape"/>
</filter>
</defs>
</svg>
