<svg width="1728" height="1898" viewBox="0 0 1728 1898" fill="none" xmlns="http://www.w3.org/2000/svg">
<path d="M1701.7 61.4648C1716.92 52.3365 1728.83 57.6613 1732.89 61.4648V136.013H1322.87C1327.74 111.671 1351.27 108.121 1362.43 109.389C1379.47 66.181 1412.13 78.2 1426.33 89.6105C1438.5 46.4028 1465.89 59.9432 1478.06 72.1144C1496.31 8.2158 1548.55 19.1191 1572.38 32.5581C1642.37 -38.0347 1687.76 22.4156 1701.7 61.4648Z" fill="url(#paint0_linear_4603_2)"/>
<path d="M16.7143 1658.74C0.511362 1639.3 -17.0418 1650.64 -23.793 1658.74L-15.6915 1841.02C11.8534 1899.35 60.5971 1874.78 81.5259 1855.2C107.451 1924.87 159.84 1893.68 182.794 1869.38C236.263 1905.03 272.585 1865.33 284.062 1841.02C309.987 1884.77 340.772 1859.25 352.924 1841.02C388.571 1866.95 405.584 1841.02 409.634 1824.82C412.875 1862.09 452.842 1851.15 472.421 1841.02C499.966 1891.25 548.709 1861.95 569.638 1841.02C632.829 1876.67 664.83 1826.17 672.931 1796.47C676.172 1757.58 636.475 1761.36 616.221 1768.11C593.537 1737.33 564.912 1755.28 553.435 1768.11C514.953 1709.38 516.979 1794.44 510.903 1768.11C506.042 1747.05 483.223 1748.53 472.421 1751.91C461.079 1719.5 433.939 1731.66 421.787 1741.78C399.103 1709.38 377.229 1728.28 369.127 1741.78C369.127 1709.38 342.122 1712.08 328.62 1717.48C312.417 1666.84 280.011 1699.25 284.062 1681.02C287.303 1666.44 263.808 1660.09 251.656 1658.74C248.416 1621.48 212.499 1620.26 194.946 1624.31C146.337 1536.82 99.079 1587.85 81.5259 1624.31C23.1955 1596.77 14.0138 1635.79 16.7143 1658.74Z" fill="url(#paint1_linear_4603_2)"/>
<path d="M1697.32 841.93C1713.52 822.487 1731.07 833.829 1737.82 841.93L1729.72 1024.21C1702.18 1082.54 1653.43 1057.97 1632.5 1038.39C1606.58 1108.06 1554.19 1076.87 1531.24 1052.57C1477.77 1088.21 1441.44 1048.52 1429.97 1024.21C1404.04 1067.96 1373.26 1042.44 1361.1 1024.21C1325.46 1050.14 1308.45 1024.21 1304.39 1008.01C1301.15 1045.28 1261.19 1034.34 1241.61 1024.21C1214.06 1074.44 1165.32 1045.14 1144.39 1024.21C1081.2 1059.86 1049.2 1009.36 1041.1 979.655C1037.86 940.768 1077.55 944.549 1097.81 951.3C1120.49 920.514 1149.12 938.473 1160.59 951.3C1199.08 892.564 1197.05 977.63 1203.13 951.3C1207.99 930.236 1230.81 931.721 1241.61 935.097C1252.95 902.691 1280.09 914.843 1292.24 924.97C1314.93 892.564 1336.8 911.468 1344.9 924.97C1344.9 892.564 1371.91 895.265 1385.41 900.666C1401.61 850.032 1434.02 882.438 1429.97 864.209C1426.73 849.627 1450.22 843.281 1462.37 841.93C1465.61 804.664 1501.53 803.449 1519.08 807.499C1567.69 720.004 1614.95 771.043 1632.5 807.499C1690.83 779.954 1700.02 818.976 1697.32 841.93Z" fill="url(#paint2_linear_4603_2)"/>
<path d="M0 508.093C4.05703 504.289 15.9746 498.965 31.1886 508.093C45.1347 469.044 90.523 408.593 160.507 479.186C184.342 465.747 236.577 454.844 254.834 518.742C267.005 506.571 294.39 493.031 306.561 536.239C320.761 524.828 353.42 512.809 370.46 556.017C381.617 554.749 405.148 558.299 410.016 582.641C412.452 598.422 400.263 630.786 332.016 634C322.843 651.498 291.288 679.995 238.452 654C218.272 664.453 179.837 675.087 187.543 634C165.36 658.384 112.014 694.702 76.0918 644.897C62.9729 659.574 29.388 680.121 0 644.897V582.641V508.093Z" fill="url(#paint3_linear_4603_2)" fill-opacity="0.8"/>
<defs>
<linearGradient id="paint0_linear_4603_2" x1="1527.88" y1="-43.5912" x2="1527.88" y2="136.013" gradientUnits="userSpaceOnUse">
<stop stop-color="#F3FBFE"/>
<stop offset="1" stop-color="#9BE1FF"/>
</linearGradient>
<linearGradient id="paint1_linear_4603_2" x1="324.663" y1="1504.96" x2="324.663" y2="1897.81" gradientUnits="userSpaceOnUse">
<stop stop-color="white"/>
<stop offset="1" stop-color="#93DEFF"/>
</linearGradient>
<linearGradient id="paint2_linear_4603_2" x1="1389.37" y1="688.147" x2="1389.37" y2="1081" gradientUnits="userSpaceOnUse">
<stop stop-color="white"/>
<stop offset="1" stop-color="#93DEFF"/>
</linearGradient>
<linearGradient id="paint3_linear_4603_2" x1="205.15" y1="358.702" x2="205.15" y2="750.844" gradientUnits="userSpaceOnUse">
<stop stop-color="#F3FBFE"/>
<stop offset="1" stop-color="#9BE1FF"/>
</linearGradient>
</defs>
</svg>
