<svg width="277" height="488" viewBox="0 0 277 488" fill="none" xmlns="http://www.w3.org/2000/svg">
<path d="M6 33C6 18.6406 17.6406 7 32 7H251C265.359 7 277 18.6406 277 33V87.0063C266.462 87.2715 258 95.8976 258 106.5C258 117.102 266.462 125.728 277 125.994V462C277 476.359 265.359 488 251 488H32C17.6406 488 6 476.359 6 462V125.994C16.5385 125.728 25 117.102 25 106.5C25 95.8976 16.5385 87.2715 6 87.0063V33Z" fill="black"/>
<path d="M1 27C1 12.6406 12.6406 1 27 1H246C260.359 1 272 12.6406 272 27V81.0063C261.462 81.2715 253 89.8976 253 100.5C253 111.102 261.462 119.728 272 119.994V456C272 470.359 260.359 482 246 482H27C12.6406 482 1 470.359 1 456V119.994C11.5385 119.728 20 111.102 20 100.5C20 89.8976 11.5385 81.2715 1 81.0063V27Z" fill="#6560D3"/>
<line x1="26.4888" y1="97.4888" x2="244.489" y2="96.5112" stroke="black" stroke-width="5" stroke-linecap="round" stroke-dasharray="10 10"/>
<path d="M154.23 341.82L153.059 344.41H150.375C150.508 344.566 150.637 344.77 150.762 345.02C150.887 345.262 150.969 345.508 151.008 345.758H154.23L153.059 348.348H151.008C150.914 348.91 150.719 349.422 150.422 349.883C150.133 350.336 149.77 350.73 149.332 351.066C148.895 351.402 148.398 351.676 147.844 351.887C147.289 352.09 146.703 352.219 146.086 352.273L152.461 359H148.312L142.43 352.461V349.871H144.164C144.383 349.871 144.66 349.855 144.996 349.824C145.332 349.793 145.664 349.727 145.992 349.625C146.328 349.516 146.633 349.363 146.906 349.168C147.18 348.965 147.367 348.691 147.469 348.348H141.844L143.016 345.758H147.457C147.363 345.445 147.191 345.199 146.941 345.02C146.691 344.84 146.391 344.707 146.039 344.621C145.695 344.527 145.309 344.469 144.879 344.445C144.449 344.422 144.004 344.41 143.543 344.41H141.844L143.016 341.82H154.23ZM165.281 353.864C165.521 355.128 166.257 355.76 167.489 355.76C168.337 355.76 168.937 355.384 169.289 354.632C169.641 353.88 169.817 352.656 169.817 350.96C169.465 351.456 168.985 351.84 168.377 352.112C167.769 352.384 167.089 352.52 166.337 352.52C165.313 352.52 164.401 352.312 163.601 351.896C162.801 351.464 162.169 350.832 161.705 350C161.257 349.152 161.033 348.128 161.033 346.928C161.033 345.744 161.273 344.712 161.753 343.832C162.249 342.952 162.945 342.272 163.841 341.792C164.753 341.312 165.825 341.072 167.057 341.072C169.425 341.072 171.081 341.808 172.025 343.28C172.969 344.752 173.441 346.92 173.441 349.784C173.441 351.864 173.249 353.584 172.865 354.944C172.497 356.288 171.865 357.312 170.969 358.016C170.089 358.72 168.881 359.072 167.345 359.072C166.129 359.072 165.089 358.832 164.225 358.352C163.377 357.872 162.721 357.24 162.257 356.456C161.809 355.672 161.553 354.808 161.489 353.864H165.281ZM167.273 349.28C167.945 349.28 168.481 349.08 168.881 348.68C169.281 348.264 169.481 347.704 169.481 347C169.481 346.232 169.273 345.64 168.857 345.224C168.441 344.808 167.881 344.6 167.177 344.6C166.473 344.6 165.913 344.816 165.497 345.248C165.097 345.664 164.897 346.24 164.897 346.976C164.897 347.664 165.097 348.224 165.497 348.656C165.913 349.072 166.505 349.28 167.273 349.28ZM175.631 350C175.631 347.248 176.159 345.08 177.215 343.496C178.287 341.912 180.007 341.12 182.375 341.12C184.743 341.12 186.455 341.912 187.511 343.496C188.583 345.08 189.119 347.248 189.119 350C189.119 352.784 188.583 354.968 187.511 356.552C186.455 358.136 184.743 358.928 182.375 358.928C180.007 358.928 178.287 358.136 177.215 356.552C176.159 354.968 175.631 352.784 175.631 350ZM185.087 350C185.087 348.384 184.911 347.144 184.559 346.28C184.207 345.4 183.479 344.96 182.375 344.96C181.271 344.96 180.543 345.4 180.191 346.28C179.839 347.144 179.663 348.384 179.663 350C179.663 351.088 179.727 351.992 179.855 352.712C179.983 353.416 180.239 353.992 180.623 354.44C181.023 354.872 181.607 355.088 182.375 355.088C183.143 355.088 183.719 354.872 184.103 354.44C184.503 353.992 184.767 353.416 184.895 352.712C185.023 351.992 185.087 351.088 185.087 350ZM191.287 350C191.287 347.248 191.815 345.08 192.871 343.496C193.943 341.912 195.663 341.12 198.031 341.12C200.399 341.12 202.111 341.912 203.167 343.496C204.239 345.08 204.775 347.248 204.775 350C204.775 352.784 204.239 354.968 203.167 356.552C202.111 358.136 200.399 358.928 198.031 358.928C195.663 358.928 193.943 358.136 192.871 356.552C191.815 354.968 191.287 352.784 191.287 350ZM200.743 350C200.743 348.384 200.567 347.144 200.215 346.28C199.863 345.4 199.135 344.96 198.031 344.96C196.927 344.96 196.199 345.4 195.847 346.28C195.495 347.144 195.319 348.384 195.319 350C195.319 351.088 195.383 351.992 195.511 352.712C195.639 353.416 195.895 353.992 196.279 354.44C196.679 354.872 197.263 355.088 198.031 355.088C198.799 355.088 199.375 354.872 199.759 354.44C200.159 353.992 200.423 353.416 200.551 352.712C200.679 351.992 200.743 351.088 200.743 350ZM216.495 336.2L210.063 363.488H206.103L212.535 336.2H216.495ZM228.546 348.872V352.28H217.986V348.872H228.546Z" fill="white"/>
<path d="M57.3594 343.684L56.3828 345.129H54.3516C54.5599 345.363 54.7324 345.63 54.8691 345.93C55.0059 346.229 55.1035 346.574 55.1621 346.965H57.3594L56.3828 348.41H55.1621C55.084 348.885 54.9277 349.325 54.6934 349.729C54.4655 350.126 54.1628 350.471 53.7852 350.764C53.4076 351.05 52.9583 351.275 52.4375 351.438C51.9232 351.6 51.3438 351.682 50.6992 351.682L56.6367 358H54.0391L48.3066 351.838V350.393H49.7422C50.1914 350.393 50.6081 350.35 50.9922 350.266C51.3763 350.181 51.7181 350.054 52.0176 349.885C52.3171 349.715 52.5645 349.51 52.7598 349.27C52.9616 349.022 53.1016 348.736 53.1797 348.41H47.8184L48.7949 346.965H53.1699C53.0202 346.405 52.6979 345.959 52.2031 345.627C51.7148 345.295 51.0475 345.129 50.2012 345.129H47.8184L48.7949 343.684H57.3594ZM63.1682 345.2V343.54H66.9282V358H65.0882V345.2H63.1682ZM69.8345 356.54C71.5278 355.18 72.8545 354.067 73.8145 353.2C74.7745 352.32 75.5811 351.407 76.2345 350.46C76.9011 349.5 77.2345 348.56 77.2345 347.64C77.2345 346.773 77.0211 346.093 76.5945 345.6C76.1811 345.093 75.5078 344.84 74.5745 344.84C73.6678 344.84 72.9611 345.127 72.4545 345.7C71.9611 346.26 71.6945 347.013 71.6545 347.96H69.8945C69.9478 346.467 70.4011 345.313 71.2545 344.5C72.1078 343.687 73.2078 343.28 74.5545 343.28C75.9278 343.28 77.0145 343.66 77.8145 344.42C78.6278 345.18 79.0345 346.227 79.0345 347.56C79.0345 348.667 78.7011 349.747 78.0345 350.8C77.3811 351.84 76.6345 352.76 75.7945 353.56C74.9545 354.347 73.8811 355.267 72.5745 356.32H79.4545V357.84H69.8345V356.54ZM90.7784 345.12H83.7584V349.68C84.065 349.253 84.5184 348.907 85.1184 348.64C85.7184 348.36 86.365 348.22 87.0584 348.22C88.165 348.22 89.065 348.453 89.7584 348.92C90.4517 349.373 90.945 349.967 91.2384 350.7C91.545 351.42 91.6984 352.187 91.6984 353C91.6984 353.96 91.5184 354.82 91.1584 355.58C90.7984 356.34 90.245 356.94 89.4984 357.38C88.765 357.82 87.8517 358.04 86.7584 358.04C85.3584 358.04 84.225 357.68 83.3584 356.96C82.4917 356.24 81.965 355.28 81.7784 354.08H83.5584C83.7317 354.84 84.0984 355.433 84.6584 355.86C85.2184 356.287 85.925 356.5 86.7784 356.5C87.8317 356.5 88.625 356.187 89.1584 355.56C89.6917 354.92 89.9584 354.08 89.9584 353.04C89.9584 352 89.6917 351.2 89.1584 350.64C88.625 350.067 87.8384 349.78 86.7984 349.78C86.0917 349.78 85.4717 349.953 84.9384 350.3C84.4184 350.633 84.0384 351.093 83.7984 351.68H82.0784V343.52H90.7784V345.12ZM94.117 350.62C94.117 348.327 94.4903 346.54 95.237 345.26C95.9836 343.967 97.2903 343.32 99.157 343.32C101.01 343.32 102.31 343.967 103.057 345.26C103.804 346.54 104.177 348.327 104.177 350.62C104.177 352.953 103.804 354.767 103.057 356.06C102.31 357.353 101.01 358 99.157 358C97.2903 358 95.9836 357.353 95.237 356.06C94.4903 354.767 94.117 352.953 94.117 350.62ZM102.377 350.62C102.377 349.46 102.297 348.48 102.137 347.68C101.99 346.867 101.677 346.213 101.197 345.72C100.73 345.227 100.05 344.98 99.157 344.98C98.2503 344.98 97.557 345.227 97.077 345.72C96.6103 346.213 96.297 346.867 96.137 347.68C95.9903 348.48 95.917 349.46 95.917 350.62C95.917 351.82 95.9903 352.827 96.137 353.64C96.297 354.453 96.6103 355.107 97.077 355.6C97.557 356.093 98.2503 356.34 99.157 356.34C100.05 356.34 100.73 356.093 101.197 355.6C101.677 355.107 101.99 354.453 102.137 353.64C102.297 352.827 102.377 351.82 102.377 350.62ZM113.776 339.16L108.296 361.4H106.496L111.956 339.16H113.776ZM124.087 349.9V351.44H116.107V349.9H124.087Z" fill="white"/>
<path d="M119 336L47 366" stroke="#393590" stroke-width="2" stroke-linecap="round"/>
<path d="M57.1168 1H27C12.6406 1 1 12.6406 1 27V49.373L3.38298 41.1129L9.97872 38.5V60.7097L17.234 48.2984L26.4681 79L33.7234 46.3387L43.617 54.8306L46.9149 34.5806L52.1915 43.7258L57.4681 18.25L70 11.7177L57.1168 1Z" fill="#FF8577" stroke="black"/>
<path d="M250.1 93.892C249.763 94.0837 249.468 94.3387 249.229 94.6409L248.964 93.0557L248.913 92.7484L248.615 92.659L244.897 91.5436L242.932 78.0171L242.833 77.34L242.218 77.6395L240.273 78.586L240.918 74.7143L240.959 74.4739L240.794 74.2943L236.818 69.9567L243.41 66.6838H252.646H253.146V66.1838V57.4142V56.977L252.713 56.9187C252.659 56.9114 252.605 56.9031 252.551 56.8936C251.379 56.6882 250.459 56.0056 249.808 55.3455C248.718 54.2393 247.919 52.7244 247.513 51.5311L247.431 51.2889L247.186 51.214C245.829 50.7989 244.715 50.1811 243.949 49.4535C243.185 48.7276 242.788 47.9146 242.788 47.0836C242.788 45.5914 244.1 44.1276 246.406 43.2243L246.904 43.0291L246.676 42.5453C246.351 41.8581 246.173 41.1056 246.173 40.3163C246.173 37.1578 249.073 34.5 252.778 34.5C255.292 34.5 257.455 35.7336 258.57 37.5176L258.756 37.8156L259.1 37.7412C259.35 37.6869 259.613 37.658 259.883 37.658C261.77 37.658 263.218 39.042 263.218 40.6545C263.218 41.3998 262.915 42.087 262.402 42.6182L262.048 42.9839L262.42 43.3311C262.93 43.8074 263.218 44.4112 263.218 45.0533C263.218 45.4873 263.087 45.9003 262.847 46.2691L262.747 46.4229L262.771 46.6049C262.802 46.8461 262.789 47.0974 262.725 47.349C262.45 48.4346 261.805 50.1416 260.607 51.2797C259.967 51.8882 259.051 52.4403 257.881 52.4663C257.808 52.468 257.736 52.4675 257.664 52.465L257.146 52.4473V52.9647V66.1838V66.6838H257.646H270.315L271.5 67.5751V80.5246C263.351 80.9259 256.486 86.204 253.759 93.5H253.673L252.18 86.1986L251.195 86.2281L250.1 93.892Z" fill="#0FA958" stroke="black"/>
<rect x="25" y="136" width="223" height="175" rx="19" fill="#504BB6"/>
<path d="M222.262 19H198.546L191 27.25H195.043L194.234 30.7097L198.546 27.25L198.816 33.371L200.163 42.1532L201.78 36.5645L204.475 35.5V44.5484L207.44 39.4919L211.213 52L214.177 38.6936L218.22 42.1532L219.567 33.9032L221.723 37.629L223.879 27.25L229 24.5887L222.262 19Z" fill="#FFC700" stroke="black"/>
<path d="M116.146 43.848V46.608H121.546V50.184H116.146V53.232H122.266V57H111.442V40.08H122.266V43.848H116.146ZM129.294 39.24V57H124.59V39.24H129.294ZM134.349 42.288C133.517 42.288 132.845 42.064 132.333 41.616C131.837 41.152 131.589 40.576 131.589 39.888C131.589 39.184 131.837 38.6 132.333 38.136C132.845 37.672 133.517 37.44 134.349 37.44C135.165 37.44 135.821 37.672 136.317 38.136C136.829 38.6 137.085 39.184 137.085 39.888C137.085 40.576 136.829 41.152 136.317 41.616C135.821 42.064 135.165 42.288 134.349 42.288ZM136.677 43.536V57H131.973V43.536H136.677ZM147.3 52.992V57H145.26C141.82 57 140.1 55.296 140.1 51.888V47.448H138.444V43.536H140.1V40.272H144.828V43.536H147.276V47.448H144.828V51.96C144.828 52.328 144.908 52.592 145.068 52.752C145.244 52.912 145.532 52.992 145.932 52.992H147.3ZM162.321 50.112C162.321 50.48 162.297 50.848 162.249 51.216H153.345C153.393 51.952 153.593 52.504 153.945 52.872C154.313 53.224 154.777 53.4 155.337 53.4C156.121 53.4 156.681 53.048 157.017 52.344H162.033C161.825 53.272 161.417 54.104 160.809 54.84C160.217 55.56 159.465 56.128 158.553 56.544C157.641 56.96 156.633 57.168 155.529 57.168C154.201 57.168 153.017 56.888 151.977 56.328C150.953 55.768 150.145 54.968 149.553 53.928C148.977 52.888 148.689 51.664 148.689 50.256C148.689 48.848 148.977 47.632 149.553 46.608C150.129 45.568 150.929 44.768 151.953 44.208C152.993 43.648 154.185 43.368 155.529 43.368C156.857 43.368 158.033 43.64 159.057 44.184C160.081 44.728 160.881 45.512 161.457 46.536C162.033 47.544 162.321 48.736 162.321 50.112ZM157.521 48.936C157.521 48.36 157.329 47.912 156.945 47.592C156.561 47.256 156.081 47.088 155.505 47.088C154.929 47.088 154.457 47.248 154.089 47.568C153.721 47.872 153.481 48.328 153.369 48.936H157.521Z" fill="white"/>
<path d="M57.52 162.672C58.704 162.672 59.7387 162.912 60.624 163.392C61.52 163.872 62.208 164.539 62.688 165.392C63.168 166.245 63.408 167.216 63.408 168.304C63.408 169.381 63.168 170.352 62.688 171.216C62.208 172.08 61.52 172.763 60.624 173.264C59.7387 173.755 58.704 174 57.52 174H52.8V162.672H57.52ZM57.2 170.832C58 170.832 58.6347 170.613 59.104 170.176C59.5733 169.739 59.808 169.115 59.808 168.304C59.808 167.493 59.5733 166.869 59.104 166.432C58.6347 165.995 58 165.776 57.2 165.776H56.352V170.832H57.2ZM64.2106 169.488C64.2106 168.539 64.3706 167.717 64.6906 167.024C65.0213 166.32 65.4693 165.787 66.0346 165.424C66.6 165.051 67.2346 164.864 67.9386 164.864C68.5253 164.864 69.032 164.987 69.4586 165.232C69.8853 165.467 70.2106 165.792 70.4346 166.208V164.976H73.9706V174H70.4346V172.768C70.2106 173.184 69.8853 173.515 69.4586 173.76C69.032 173.995 68.5253 174.112 67.9386 174.112C67.2346 174.112 66.6 173.931 66.0346 173.568C65.4693 173.195 65.0213 172.661 64.6906 171.968C64.3706 171.264 64.2106 170.437 64.2106 169.488ZM70.4346 169.488C70.4346 169.008 70.312 168.635 70.0666 168.368C69.8213 168.101 69.5066 167.968 69.1226 167.968C68.7386 167.968 68.424 168.101 68.1786 168.368C67.9333 168.635 67.8106 169.008 67.8106 169.488C67.8106 169.968 67.9333 170.341 68.1786 170.608C68.424 170.875 68.7386 171.008 69.1226 171.008C69.5066 171.008 69.8213 170.875 70.0666 170.608C70.312 170.341 70.4346 169.968 70.4346 169.488ZM85.7576 164.976L79.9816 178.32H76.0936L78.3656 173.552L74.6056 164.976H78.5576L80.2536 169.552L81.8376 164.976H85.7576ZM88.4725 165.632V162.304H93.8965V174H90.1685V165.632H88.4725ZM99.0756 168.4C99.0756 167.301 99.321 166.32 99.8116 165.456C100.313 164.581 100.99 163.904 101.844 163.424C102.708 162.933 103.673 162.688 104.74 162.688C105.988 162.688 107.081 163.008 108.02 163.648C108.958 164.288 109.614 165.173 109.988 166.304H107.412C107.156 165.771 106.793 165.371 106.324 165.104C105.865 164.837 105.332 164.704 104.724 164.704C104.073 164.704 103.492 164.859 102.98 165.168C102.478 165.467 102.084 165.893 101.796 166.448C101.518 167.003 101.38 167.653 101.38 168.4C101.38 169.136 101.518 169.787 101.796 170.352C102.084 170.907 102.478 171.339 102.98 171.648C103.492 171.947 104.073 172.096 104.724 172.096C105.332 172.096 105.865 171.963 106.324 171.696C106.793 171.419 107.156 171.013 107.412 170.48H109.988C109.614 171.621 108.958 172.512 108.02 173.152C107.092 173.781 105.998 174.096 104.74 174.096C103.673 174.096 102.708 173.856 101.844 173.376C100.99 172.885 100.313 172.208 99.8116 171.344C99.321 170.48 99.0756 169.499 99.0756 168.4ZM114.141 162.16V174H111.901V162.16H114.141ZM115.778 169.536C115.778 168.64 115.954 167.845 116.306 167.152C116.669 166.459 117.154 165.925 117.762 165.552C118.381 165.179 119.069 164.992 119.826 164.992C120.487 164.992 121.063 165.125 121.554 165.392C122.055 165.659 122.455 165.995 122.754 166.4V165.136H125.01V174H122.754V172.704C122.466 173.12 122.066 173.467 121.554 173.744C121.053 174.011 120.471 174.144 119.81 174.144C119.063 174.144 118.381 173.952 117.762 173.568C117.154 173.184 116.669 172.645 116.306 171.952C115.954 171.248 115.778 170.443 115.778 169.536ZM122.754 169.568C122.754 169.024 122.647 168.56 122.434 168.176C122.221 167.781 121.933 167.483 121.57 167.28C121.207 167.067 120.818 166.96 120.402 166.96C119.986 166.96 119.602 167.061 119.25 167.264C118.898 167.467 118.61 167.765 118.386 168.16C118.173 168.544 118.066 169.003 118.066 169.536C118.066 170.069 118.173 170.539 118.386 170.944C118.61 171.339 118.898 171.643 119.25 171.856C119.613 172.069 119.997 172.176 120.402 172.176C120.818 172.176 121.207 172.075 121.57 171.872C121.933 171.659 122.221 171.36 122.434 170.976C122.647 170.581 122.754 170.112 122.754 169.568ZM130.59 174.144C129.864 174.144 129.214 174.016 128.638 173.76C128.062 173.493 127.603 173.136 127.262 172.688C126.931 172.24 126.75 171.744 126.718 171.2H128.974C129.016 171.541 129.182 171.824 129.47 172.048C129.768 172.272 130.136 172.384 130.574 172.384C131 172.384 131.331 172.299 131.566 172.128C131.811 171.957 131.934 171.739 131.934 171.472C131.934 171.184 131.784 170.971 131.486 170.832C131.198 170.683 130.734 170.523 130.094 170.352C129.432 170.192 128.888 170.027 128.462 169.856C128.046 169.685 127.683 169.424 127.374 169.072C127.075 168.72 126.926 168.245 126.926 167.648C126.926 167.157 127.064 166.709 127.342 166.304C127.63 165.899 128.035 165.579 128.558 165.344C129.091 165.109 129.715 164.992 130.43 164.992C131.486 164.992 132.328 165.259 132.958 165.792C133.587 166.315 133.934 167.024 133.998 167.92H131.854C131.822 167.568 131.672 167.291 131.406 167.088C131.15 166.875 130.803 166.768 130.366 166.768C129.96 166.768 129.646 166.843 129.422 166.992C129.208 167.141 129.102 167.349 129.102 167.616C129.102 167.915 129.251 168.144 129.55 168.304C129.848 168.453 130.312 168.608 130.942 168.768C131.582 168.928 132.11 169.093 132.526 169.264C132.942 169.435 133.299 169.701 133.598 170.064C133.907 170.416 134.067 170.885 134.078 171.472C134.078 171.984 133.934 172.443 133.646 172.848C133.368 173.253 132.963 173.573 132.43 173.808C131.907 174.032 131.294 174.144 130.59 174.144ZM139.309 174.144C138.583 174.144 137.933 174.016 137.357 173.76C136.781 173.493 136.322 173.136 135.981 172.688C135.65 172.24 135.469 171.744 135.437 171.2H137.693C137.735 171.541 137.901 171.824 138.189 172.048C138.487 172.272 138.855 172.384 139.293 172.384C139.719 172.384 140.05 172.299 140.285 172.128C140.53 171.957 140.653 171.739 140.653 171.472C140.653 171.184 140.503 170.971 140.205 170.832C139.917 170.683 139.453 170.523 138.812 170.352C138.151 170.192 137.607 170.027 137.181 169.856C136.765 169.685 136.402 169.424 136.093 169.072C135.794 168.72 135.645 168.245 135.645 167.648C135.645 167.157 135.783 166.709 136.061 166.304C136.349 165.899 136.754 165.579 137.277 165.344C137.81 165.109 138.434 164.992 139.149 164.992C140.205 164.992 141.047 165.259 141.677 165.792C142.306 166.315 142.653 167.024 142.717 167.92H140.573C140.541 167.568 140.391 167.291 140.125 167.088C139.869 166.875 139.522 166.768 139.085 166.768C138.679 166.768 138.365 166.843 138.141 166.992C137.927 167.141 137.821 167.349 137.821 167.616C137.821 167.915 137.97 168.144 138.269 168.304C138.567 168.453 139.031 168.608 139.661 168.768C140.301 168.928 140.829 169.093 141.245 169.264C141.661 169.435 142.018 169.701 142.317 170.064C142.626 170.416 142.786 170.885 142.797 171.472C142.797 171.984 142.653 172.443 142.365 172.848C142.087 173.253 141.682 173.573 141.149 173.808C140.626 174.032 140.013 174.144 139.309 174.144ZM145.771 164.08C145.377 164.08 145.046 163.957 144.779 163.712C144.523 163.456 144.395 163.141 144.395 162.768C144.395 162.395 144.523 162.085 144.779 161.84C145.046 161.584 145.377 161.456 145.771 161.456C146.166 161.456 146.491 161.584 146.747 161.84C147.014 162.085 147.147 162.395 147.147 162.768C147.147 163.141 147.014 163.456 146.747 163.712C146.491 163.957 146.166 164.08 145.771 164.08ZM146.875 165.136V174H144.635V165.136H146.875ZM148.512 169.568C148.512 168.651 148.699 167.851 149.072 167.168C149.446 166.475 149.963 165.941 150.624 165.568C151.286 165.184 152.043 164.992 152.896 164.992C153.995 164.992 154.902 165.269 155.616 165.824C156.342 166.368 156.827 167.136 157.072 168.128H154.656C154.528 167.744 154.31 167.445 154 167.232C153.702 167.008 153.328 166.896 152.88 166.896C152.24 166.896 151.734 167.131 151.36 167.6C150.987 168.059 150.8 168.715 150.8 169.568C150.8 170.411 150.987 171.067 151.36 171.536C151.734 171.995 152.24 172.224 152.88 172.224C153.787 172.224 154.379 171.819 154.656 171.008H157.072C156.827 171.968 156.342 172.731 155.616 173.296C154.891 173.861 153.984 174.144 152.896 174.144C152.043 174.144 151.286 173.957 150.624 173.584C149.963 173.2 149.446 172.667 149.072 171.984C148.699 171.291 148.512 170.485 148.512 169.568ZM158.137 169.536C158.137 168.64 158.313 167.845 158.665 167.152C159.028 166.459 159.513 165.925 160.121 165.552C160.74 165.179 161.428 164.992 162.185 164.992C162.847 164.992 163.423 165.125 163.913 165.392C164.415 165.659 164.815 165.995 165.113 166.4V165.136H167.369V174H165.113V172.704C164.825 173.12 164.425 173.467 163.913 173.744C163.412 174.011 162.831 174.144 162.169 174.144C161.423 174.144 160.74 173.952 160.121 173.568C159.513 173.184 159.028 172.645 158.665 171.952C158.313 171.248 158.137 170.443 158.137 169.536ZM165.113 169.568C165.113 169.024 165.007 168.56 164.793 168.176C164.58 167.781 164.292 167.483 163.929 167.28C163.567 167.067 163.177 166.96 162.761 166.96C162.345 166.96 161.961 167.061 161.609 167.264C161.257 167.467 160.969 167.765 160.745 168.16C160.532 168.544 160.425 169.003 160.425 169.536C160.425 170.069 160.532 170.539 160.745 170.944C160.969 171.339 161.257 171.643 161.609 171.856C161.972 172.069 162.356 172.176 162.761 172.176C163.177 172.176 163.567 172.075 163.929 171.872C164.292 171.659 164.58 171.36 164.793 170.976C165.007 170.581 165.113 170.112 165.113 169.568ZM171.797 162.16V174H169.557V162.16H171.797ZM187.375 174H185.135L180.063 166.336V174H177.823V162.816H180.063L185.135 170.496V162.816H187.375V174ZM190.724 164.08C190.33 164.08 189.999 163.957 189.732 163.712C189.476 163.456 189.348 163.141 189.348 162.768C189.348 162.395 189.476 162.085 189.732 161.84C189.999 161.584 190.33 161.456 190.724 161.456C191.119 161.456 191.444 161.584 191.7 161.84C191.967 162.085 192.1 162.395 192.1 162.768C192.1 163.141 191.967 163.456 191.7 163.712C191.444 163.957 191.119 164.08 190.724 164.08ZM191.828 165.136V174H189.588V165.136H191.828ZM197.514 164.992C198.175 164.992 198.756 165.125 199.258 165.392C199.759 165.648 200.154 165.984 200.442 166.4V165.136H202.698V174.064C202.698 174.885 202.532 175.616 202.202 176.256C201.871 176.907 201.375 177.419 200.714 177.792C200.052 178.176 199.252 178.368 198.314 178.368C197.055 178.368 196.02 178.075 195.21 177.488C194.41 176.901 193.956 176.101 193.85 175.088H196.074C196.191 175.493 196.442 175.813 196.826 176.048C197.22 176.293 197.695 176.416 198.25 176.416C198.9 176.416 199.428 176.219 199.834 175.824C200.239 175.44 200.442 174.853 200.442 174.064V172.688C200.154 173.104 199.754 173.451 199.242 173.728C198.74 174.005 198.164 174.144 197.514 174.144C196.767 174.144 196.084 173.952 195.466 173.568C194.847 173.184 194.356 172.645 193.993 171.952C193.641 171.248 193.465 170.443 193.465 169.536C193.465 168.64 193.641 167.845 193.993 167.152C194.356 166.459 194.842 165.925 195.45 165.552C196.068 165.179 196.756 164.992 197.514 164.992ZM200.442 169.568C200.442 169.024 200.335 168.56 200.122 168.176C199.908 167.781 199.62 167.483 199.258 167.28C198.895 167.067 198.506 166.96 198.09 166.96C197.674 166.96 197.29 167.061 196.938 167.264C196.586 167.467 196.298 167.765 196.074 168.16C195.86 168.544 195.754 169.003 195.754 169.536C195.754 170.069 195.86 170.539 196.074 170.944C196.298 171.339 196.586 171.643 196.938 171.856C197.3 172.069 197.684 172.176 198.09 172.176C198.506 172.176 198.895 172.075 199.258 171.872C199.62 171.659 199.908 171.36 200.122 170.976C200.335 170.581 200.442 170.112 200.442 169.568ZM209.877 165.008C210.549 165.008 211.147 165.157 211.669 165.456C212.192 165.744 212.597 166.176 212.885 166.752C213.184 167.317 213.333 168 213.333 168.8V174H211.093V169.104C211.093 168.4 210.917 167.861 210.565 167.488C210.213 167.104 209.733 166.912 209.125 166.912C208.507 166.912 208.016 167.104 207.653 167.488C207.301 167.861 207.125 168.4 207.125 169.104V174H204.885V162.16H207.125V166.24C207.413 165.856 207.797 165.557 208.277 165.344C208.757 165.12 209.291 165.008 209.877 165.008ZM218.071 166.976V171.264C218.071 171.563 218.141 171.781 218.279 171.92C218.429 172.048 218.674 172.112 219.015 172.112H220.055V174H218.647C216.759 174 215.815 173.083 215.815 171.248V166.976H214.759V165.136H215.815V162.944H218.071V165.136H220.055V166.976H218.071Z" fill="white"/>
<path d="M131.424 195.24H136.488V200.304H139.512V195.24H144.576V192.216H139.512V187.152H136.488V192.216H131.424V195.24Z" fill="white"/>
<path d="M131.424 251.24H136.488V256.304H139.512V251.24H144.576V248.216H139.512V243.152H136.488V248.216H131.424V251.24Z" fill="white"/>
<path d="M77.52 215.672C78.704 215.672 79.7387 215.912 80.624 216.392C81.52 216.872 82.208 217.539 82.688 218.392C83.168 219.245 83.408 220.216 83.408 221.304C83.408 222.381 83.168 223.352 82.688 224.216C82.208 225.08 81.52 225.763 80.624 226.264C79.7387 226.755 78.704 227 77.52 227H72.8V215.672H77.52ZM77.2 223.832C78 223.832 78.6347 223.613 79.104 223.176C79.5733 222.739 79.808 222.115 79.808 221.304C79.808 220.493 79.5733 219.869 79.104 219.432C78.6347 218.995 78 218.776 77.2 218.776H76.352V223.832H77.2ZM84.2106 222.488C84.2106 221.539 84.3706 220.717 84.6906 220.024C85.0213 219.32 85.4693 218.787 86.0346 218.424C86.6 218.051 87.2346 217.864 87.9386 217.864C88.5253 217.864 89.032 217.987 89.4586 218.232C89.8853 218.467 90.2106 218.792 90.4346 219.208V217.976H93.9706V227H90.4346V225.768C90.2106 226.184 89.8853 226.515 89.4586 226.76C89.032 226.995 88.5253 227.112 87.9386 227.112C87.2346 227.112 86.6 226.931 86.0346 226.568C85.4693 226.195 85.0213 225.661 84.6906 224.968C84.3706 224.264 84.2106 223.437 84.2106 222.488ZM90.4346 222.488C90.4346 222.008 90.312 221.635 90.0666 221.368C89.8213 221.101 89.5066 220.968 89.1226 220.968C88.7386 220.968 88.424 221.101 88.1786 221.368C87.9333 221.635 87.8106 222.008 87.8106 222.488C87.8106 222.968 87.9333 223.341 88.1786 223.608C88.424 223.875 88.7386 224.008 89.1226 224.008C89.5066 224.008 89.8213 223.875 90.0666 223.608C90.312 223.341 90.4346 222.968 90.4346 222.488ZM105.758 217.976L99.9816 231.32H96.0936L98.3656 226.552L94.6056 217.976H98.5576L100.254 222.552L101.838 217.976H105.758ZM108.761 224.168C110.19 223.101 111.321 222.136 112.153 221.272C112.985 220.397 113.401 219.581 113.401 218.824C113.401 218.568 113.342 218.371 113.225 218.232C113.118 218.093 112.974 218.024 112.793 218.024C112.579 218.024 112.409 218.136 112.281 218.36C112.163 218.573 112.121 218.904 112.153 219.352H108.713C108.745 218.36 108.958 217.544 109.353 216.904C109.758 216.264 110.281 215.795 110.921 215.496C111.561 215.197 112.265 215.048 113.033 215.048C114.398 215.048 115.395 215.379 116.025 216.04C116.665 216.691 116.985 217.528 116.985 218.552C116.985 219.629 116.638 220.643 115.945 221.592C115.262 222.531 114.403 223.325 113.369 223.976H117.033V226.84H108.761V224.168ZM124.532 217.64V220.44H128.292V222.216H124.532V225.176H128.772V227H122.292V215.816H128.772V217.64H124.532ZM134.711 215.832C135.884 215.832 136.914 216.061 137.799 216.52C138.695 216.979 139.383 217.635 139.863 218.488C140.354 219.331 140.599 220.312 140.599 221.432C140.599 222.552 140.354 223.533 139.863 224.376C139.383 225.208 138.695 225.853 137.799 226.312C136.914 226.771 135.884 227 134.711 227H130.807V215.832H134.711ZM134.631 225.096C135.804 225.096 136.711 224.776 137.351 224.136C137.991 223.496 138.311 222.595 138.311 221.432C138.311 220.269 137.991 219.363 137.351 218.712C136.711 218.051 135.804 217.72 134.631 217.72H133.047V225.096H134.631ZM154.452 215.832V227H152.212V219.736L149.22 227H147.524L144.516 219.736V227H142.276V215.832H144.82L148.372 224.136L151.924 215.832H154.452ZM170.031 227H167.791L162.719 219.336V227H160.479V215.816H162.719L167.791 223.496V215.816H170.031V227ZM173.381 217.08C172.986 217.08 172.655 216.957 172.389 216.712C172.133 216.456 172.005 216.141 172.005 215.768C172.005 215.395 172.133 215.085 172.389 214.84C172.655 214.584 172.986 214.456 173.381 214.456C173.775 214.456 174.101 214.584 174.357 214.84C174.623 215.085 174.757 215.395 174.757 215.768C174.757 216.141 174.623 216.456 174.357 216.712C174.101 216.957 173.775 217.08 173.381 217.08ZM174.485 218.136V227H172.245V218.136H174.485ZM180.17 217.992C180.831 217.992 181.412 218.125 181.914 218.392C182.415 218.648 182.81 218.984 183.098 219.4V218.136H185.354V227.064C185.354 227.885 185.188 228.616 184.858 229.256C184.527 229.907 184.031 230.419 183.37 230.792C182.708 231.176 181.908 231.368 180.97 231.368C179.711 231.368 178.676 231.075 177.866 230.488C177.066 229.901 176.612 229.101 176.506 228.088H178.73C178.847 228.493 179.098 228.813 179.482 229.048C179.876 229.293 180.351 229.416 180.906 229.416C181.556 229.416 182.084 229.219 182.49 228.824C182.895 228.44 183.098 227.853 183.098 227.064V225.688C182.81 226.104 182.41 226.451 181.898 226.728C181.396 227.005 180.82 227.144 180.17 227.144C179.423 227.144 178.74 226.952 178.122 226.568C177.503 226.184 177.012 225.645 176.65 224.952C176.298 224.248 176.122 223.443 176.122 222.536C176.122 221.64 176.298 220.845 176.65 220.152C177.012 219.459 177.498 218.925 178.106 218.552C178.724 218.179 179.412 217.992 180.17 217.992ZM183.098 222.568C183.098 222.024 182.991 221.56 182.778 221.176C182.564 220.781 182.276 220.483 181.914 220.28C181.551 220.067 181.162 219.96 180.746 219.96C180.33 219.96 179.946 220.061 179.594 220.264C179.242 220.467 178.954 220.765 178.73 221.16C178.516 221.544 178.41 222.003 178.41 222.536C178.41 223.069 178.516 223.539 178.73 223.944C178.954 224.339 179.242 224.643 179.594 224.856C179.956 225.069 180.34 225.176 180.746 225.176C181.162 225.176 181.551 225.075 181.914 224.872C182.276 224.659 182.564 224.36 182.778 223.976C182.991 223.581 183.098 223.112 183.098 222.568ZM192.534 218.008C193.206 218.008 193.803 218.157 194.326 218.456C194.848 218.744 195.254 219.176 195.542 219.752C195.84 220.317 195.99 221 195.99 221.8V227H193.75V222.104C193.75 221.4 193.574 220.861 193.222 220.488C192.87 220.104 192.39 219.912 191.782 219.912C191.163 219.912 190.672 220.104 190.31 220.488C189.958 220.861 189.782 221.4 189.782 222.104V227H187.542V215.16H189.782V219.24C190.07 218.856 190.454 218.557 190.934 218.344C191.414 218.12 191.947 218.008 192.534 218.008ZM200.728 219.976V224.264C200.728 224.563 200.797 224.781 200.936 224.92C201.085 225.048 201.33 225.112 201.672 225.112H202.712V227H201.304C199.416 227 198.472 226.083 198.472 224.248V219.976H197.416V218.136H198.472V215.944H200.728V218.136H202.712V219.976H200.728Z" fill="white"/>
<path d="M52.52 268.672C53.704 268.672 54.7387 268.912 55.624 269.392C56.52 269.872 57.208 270.539 57.688 271.392C58.168 272.245 58.408 273.216 58.408 274.304C58.408 275.381 58.168 276.352 57.688 277.216C57.208 278.08 56.52 278.763 55.624 279.264C54.7387 279.755 53.704 280 52.52 280H47.8V268.672H52.52ZM52.2 276.832C53 276.832 53.6347 276.613 54.104 276.176C54.5733 275.739 54.808 275.115 54.808 274.304C54.808 273.493 54.5733 272.869 54.104 272.432C53.6347 271.995 53 271.776 52.2 271.776H51.352V276.832H52.2ZM59.2106 275.488C59.2106 274.539 59.3706 273.717 59.6906 273.024C60.0213 272.32 60.4693 271.787 61.0346 271.424C61.6 271.051 62.2346 270.864 62.9386 270.864C63.5253 270.864 64.032 270.987 64.4586 271.232C64.8853 271.467 65.2106 271.792 65.4346 272.208V270.976H68.9706V280H65.4346V278.768C65.2106 279.184 64.8853 279.515 64.4586 279.76C64.032 279.995 63.5253 280.112 62.9386 280.112C62.2346 280.112 61.6 279.931 61.0346 279.568C60.4693 279.195 60.0213 278.661 59.6906 277.968C59.3706 277.264 59.2106 276.437 59.2106 275.488ZM65.4346 275.488C65.4346 275.008 65.312 274.635 65.0666 274.368C64.8213 274.101 64.5066 273.968 64.1226 273.968C63.7386 273.968 63.424 274.101 63.1786 274.368C62.9333 274.635 62.8106 275.008 62.8106 275.488C62.8106 275.968 62.9333 276.341 63.1786 276.608C63.424 276.875 63.7386 277.008 64.1226 277.008C64.5066 277.008 64.8213 276.875 65.0666 276.608C65.312 276.341 65.4346 275.968 65.4346 275.488ZM80.7576 270.976L74.9816 284.32H71.0936L73.3656 279.552L69.6056 270.976H73.5576L75.2536 275.552L76.8376 270.976H80.7576ZM84.0325 271.968C84.0645 270.699 84.4325 269.728 85.1365 269.056C85.8512 268.384 86.8592 268.048 88.1605 268.048C89.0032 268.048 89.7232 268.192 90.3205 268.48C90.9178 268.768 91.3658 269.157 91.6645 269.648C91.9738 270.139 92.1285 270.693 92.1285 271.312C92.1285 272.059 91.9525 272.645 91.6005 273.072C91.2485 273.488 90.8538 273.771 90.4165 273.92V273.984C91.6965 274.464 92.3365 275.355 92.3365 276.656C92.3365 277.339 92.1765 277.941 91.8565 278.464C91.5365 278.987 91.0778 279.392 90.4805 279.68C89.8938 279.968 89.1952 280.112 88.3845 280.112C86.9978 280.112 85.9098 279.781 85.1205 279.12C84.3312 278.459 83.9258 277.424 83.9045 276.016H87.3605C87.3392 276.4 87.3925 276.693 87.5205 276.896C87.6592 277.088 87.8938 277.184 88.2245 277.184C88.4165 277.184 88.5765 277.115 88.7045 276.976C88.8325 276.827 88.8965 276.635 88.8965 276.4C88.8965 276.101 88.7952 275.877 88.5925 275.728C88.4005 275.568 88.0698 275.488 87.6005 275.488H87.0085V272.624H87.5845C88.3098 272.667 88.6725 272.379 88.6725 271.76C88.6725 271.493 88.6138 271.296 88.4965 271.168C88.3898 271.04 88.2512 270.976 88.0805 270.976C87.6858 270.976 87.4885 271.307 87.4885 271.968H84.0325ZM104.409 274.272C105.038 274.389 105.555 274.704 105.961 275.216C106.366 275.728 106.569 276.315 106.569 276.976C106.569 277.573 106.419 278.101 106.121 278.56C105.833 279.008 105.411 279.36 104.857 279.616C104.302 279.872 103.646 280 102.889 280H98.0728V268.832H102.681C103.438 268.832 104.089 268.955 104.633 269.2C105.187 269.445 105.603 269.787 105.881 270.224C106.169 270.661 106.313 271.157 106.313 271.712C106.313 272.363 106.137 272.907 105.785 273.344C105.443 273.781 104.985 274.091 104.409 274.272ZM100.313 273.44H102.361C102.894 273.44 103.305 273.323 103.593 273.088C103.881 272.843 104.025 272.496 104.025 272.048C104.025 271.6 103.881 271.253 103.593 271.008C103.305 270.763 102.894 270.64 102.361 270.64H100.313V273.44ZM102.569 278.176C103.113 278.176 103.534 278.048 103.833 277.792C104.142 277.536 104.297 277.173 104.297 276.704C104.297 276.224 104.137 275.851 103.817 275.584C103.497 275.307 103.065 275.168 102.521 275.168H100.313V278.176H102.569ZM112.29 280.144C111.437 280.144 110.669 279.957 109.986 279.584C109.303 279.2 108.765 278.661 108.37 277.968C107.986 277.275 107.794 276.475 107.794 275.568C107.794 274.661 107.991 273.861 108.386 273.168C108.791 272.475 109.341 271.941 110.034 271.568C110.727 271.184 111.501 270.992 112.354 270.992C113.207 270.992 113.981 271.184 114.674 271.568C115.367 271.941 115.911 272.475 116.306 273.168C116.711 273.861 116.914 274.661 116.914 275.568C116.914 276.475 116.706 277.275 116.29 277.968C115.885 278.661 115.33 279.2 114.626 279.584C113.933 279.957 113.154 280.144 112.29 280.144ZM112.29 278.192C112.695 278.192 113.074 278.096 113.426 277.904C113.789 277.701 114.077 277.403 114.29 277.008C114.503 276.613 114.61 276.133 114.61 275.568C114.61 274.725 114.386 274.08 113.938 273.632C113.501 273.173 112.962 272.944 112.322 272.944C111.682 272.944 111.143 273.173 110.706 273.632C110.279 274.08 110.066 274.725 110.066 275.568C110.066 276.411 110.274 277.061 110.69 277.52C111.117 277.968 111.65 278.192 112.29 278.192ZM120.797 268.16V280H118.557V268.16H120.797ZM125.25 268.16V280H123.01V268.16H125.25ZM135.943 271.136L130.455 284.192H128.071L129.991 279.776L126.439 271.136H128.951L131.239 277.328L133.559 271.136H135.943ZM149.439 271.136L146.847 280H144.431L142.815 273.808L141.199 280H138.767L136.159 271.136H138.431L139.999 277.888L141.695 271.136H144.063L145.727 277.872L147.295 271.136H149.439ZM154.587 280.144C153.734 280.144 152.966 279.957 152.283 279.584C151.6 279.2 151.062 278.661 150.667 277.968C150.283 277.275 150.091 276.475 150.091 275.568C150.091 274.661 150.288 273.861 150.683 273.168C151.088 272.475 151.638 271.941 152.331 271.568C153.024 271.184 153.798 270.992 154.651 270.992C155.504 270.992 156.278 271.184 156.971 271.568C157.664 271.941 158.208 272.475 158.603 273.168C159.008 273.861 159.211 274.661 159.211 275.568C159.211 276.475 159.003 277.275 158.587 277.968C158.182 278.661 157.627 279.2 156.923 279.584C156.23 279.957 155.451 280.144 154.587 280.144ZM154.587 278.192C154.992 278.192 155.371 278.096 155.723 277.904C156.086 277.701 156.374 277.403 156.587 277.008C156.8 276.613 156.907 276.133 156.907 275.568C156.907 274.725 156.683 274.08 156.235 273.632C155.798 273.173 155.259 272.944 154.619 272.944C153.979 272.944 153.44 273.173 153.003 273.632C152.576 274.08 152.363 274.725 152.363 275.568C152.363 276.411 152.571 277.061 152.987 277.52C153.414 277.968 153.947 278.192 154.587 278.192ZM164.79 280.144C163.937 280.144 163.169 279.957 162.486 279.584C161.803 279.2 161.265 278.661 160.87 277.968C160.486 277.275 160.294 276.475 160.294 275.568C160.294 274.661 160.491 273.861 160.886 273.168C161.291 272.475 161.841 271.941 162.534 271.568C163.227 271.184 164.001 270.992 164.854 270.992C165.707 270.992 166.481 271.184 167.174 271.568C167.867 271.941 168.411 272.475 168.806 273.168C169.211 273.861 169.414 274.661 169.414 275.568C169.414 276.475 169.206 277.275 168.79 277.968C168.385 278.661 167.83 279.2 167.126 279.584C166.433 279.957 165.654 280.144 164.79 280.144ZM164.79 278.192C165.195 278.192 165.574 278.096 165.926 277.904C166.289 277.701 166.577 277.403 166.79 277.008C167.003 276.613 167.11 276.133 167.11 275.568C167.11 274.725 166.886 274.08 166.438 273.632C166.001 273.173 165.462 272.944 164.822 272.944C164.182 272.944 163.643 273.173 163.206 273.632C162.779 274.08 162.566 274.725 162.566 275.568C162.566 276.411 162.774 277.061 163.19 277.52C163.617 277.968 164.15 278.192 164.79 278.192ZM170.481 275.536C170.481 274.64 170.657 273.845 171.009 273.152C171.372 272.459 171.862 271.925 172.481 271.552C173.1 271.179 173.788 270.992 174.545 270.992C175.121 270.992 175.67 271.12 176.193 271.376C176.716 271.621 177.132 271.952 177.441 272.368V268.16H179.713V280H177.441V278.688C177.164 279.125 176.774 279.477 176.273 279.744C175.772 280.011 175.19 280.144 174.529 280.144C173.782 280.144 173.1 279.952 172.481 279.568C171.862 279.184 171.372 278.645 171.009 277.952C170.657 277.248 170.481 276.443 170.481 275.536ZM177.457 275.568C177.457 275.024 177.35 274.56 177.137 274.176C176.924 273.781 176.636 273.483 176.273 273.28C175.91 273.067 175.521 272.96 175.105 272.96C174.689 272.96 174.305 273.061 173.953 273.264C173.601 273.467 173.313 273.765 173.089 274.16C172.876 274.544 172.769 275.003 172.769 275.536C172.769 276.069 172.876 276.539 173.089 276.944C173.313 277.339 173.601 277.643 173.953 277.856C174.316 278.069 174.7 278.176 175.105 278.176C175.521 278.176 175.91 278.075 176.273 277.872C176.636 277.659 176.924 277.36 177.137 276.976C177.35 276.581 177.457 276.112 177.457 275.568ZM195.265 280H193.025L187.953 272.336V280H185.713V268.816H187.953L193.025 276.496V268.816H195.265V280ZM198.615 270.08C198.22 270.08 197.89 269.957 197.623 269.712C197.367 269.456 197.239 269.141 197.239 268.768C197.239 268.395 197.367 268.085 197.623 267.84C197.89 267.584 198.22 267.456 198.615 267.456C199.01 267.456 199.335 267.584 199.591 267.84C199.858 268.085 199.991 268.395 199.991 268.768C199.991 269.141 199.858 269.456 199.591 269.712C199.335 269.957 199.01 270.08 198.615 270.08ZM199.719 271.136V280H197.479V271.136H199.719ZM205.404 270.992C206.065 270.992 206.647 271.125 207.148 271.392C207.649 271.648 208.044 271.984 208.332 272.4V271.136H210.588V280.064C210.588 280.885 210.423 281.616 210.092 282.256C209.761 282.907 209.265 283.419 208.604 283.792C207.943 284.176 207.143 284.368 206.204 284.368C204.945 284.368 203.911 284.075 203.1 283.488C202.3 282.901 201.847 282.101 201.74 281.088H203.964C204.081 281.493 204.332 281.813 204.716 282.048C205.111 282.293 205.585 282.416 206.14 282.416C206.791 282.416 207.319 282.219 207.724 281.824C208.129 281.44 208.332 280.853 208.332 280.064V278.688C208.044 279.104 207.644 279.451 207.132 279.728C206.631 280.005 206.055 280.144 205.404 280.144C204.657 280.144 203.975 279.952 203.356 279.568C202.737 279.184 202.247 278.645 201.884 277.952C201.532 277.248 201.356 276.443 201.356 275.536C201.356 274.64 201.532 273.845 201.884 273.152C202.247 272.459 202.732 271.925 203.34 271.552C203.959 271.179 204.647 270.992 205.404 270.992ZM208.332 275.568C208.332 275.024 208.225 274.56 208.012 274.176C207.799 273.781 207.511 273.483 207.148 273.28C206.785 273.067 206.396 272.96 205.98 272.96C205.564 272.96 205.18 273.061 204.828 273.264C204.476 273.467 204.188 273.765 203.964 274.16C203.751 274.544 203.644 275.003 203.644 275.536C203.644 276.069 203.751 276.539 203.964 276.944C204.188 277.339 204.476 277.643 204.828 277.856C205.191 278.069 205.575 278.176 205.98 278.176C206.396 278.176 206.785 278.075 207.148 277.872C207.511 277.659 207.799 277.36 208.012 276.976C208.225 276.581 208.332 276.112 208.332 275.568ZM217.768 271.008C218.44 271.008 219.037 271.157 219.56 271.456C220.083 271.744 220.488 272.176 220.776 272.752C221.075 273.317 221.224 274 221.224 274.8V280H218.984V275.104C218.984 274.4 218.808 273.861 218.456 273.488C218.104 273.104 217.624 272.912 217.016 272.912C216.397 272.912 215.907 273.104 215.544 273.488C215.192 273.861 215.016 274.4 215.016 275.104V280H212.776V268.16H215.016V272.24C215.304 271.856 215.688 271.557 216.168 271.344C216.648 271.12 217.181 271.008 217.768 271.008ZM225.962 272.976V277.264C225.962 277.563 226.031 277.781 226.17 277.92C226.319 278.048 226.565 278.112 226.906 278.112H227.946V280H226.538C224.65 280 223.706 279.083 223.706 277.248V272.976H222.65V271.136H223.706V268.944H225.962V271.136H227.946V272.976H225.962Z" fill="white"/>
<rect x="26" y="391" width="221" height="64" rx="23" fill="white"/>
<path d="M99.5895 419.288C99.2055 418.584 98.6775 418.048 98.0055 417.68C97.3335 417.312 96.5495 417.128 95.6535 417.128C94.6615 417.128 93.7815 417.352 93.0135 417.8C92.2455 418.248 91.6455 418.888 91.2135 419.72C90.7815 420.552 90.5655 421.512 90.5655 422.6C90.5655 423.72 90.7815 424.696 91.2135 425.528C91.6615 426.36 92.2775 427 93.0615 427.448C93.8455 427.896 94.7575 428.12 95.7975 428.12C97.0775 428.12 98.1255 427.784 98.9415 427.112C99.7575 426.424 100.294 425.472 100.55 424.256H94.7895V421.688H103.862V424.616C103.638 425.784 103.158 426.864 102.422 427.856C101.686 428.848 100.734 429.648 99.5655 430.256C98.4135 430.848 97.1175 431.144 95.6775 431.144C94.0615 431.144 92.5975 430.784 91.2855 430.064C89.9895 429.328 88.9655 428.312 88.2135 427.016C87.4775 425.72 87.1095 424.248 87.1095 422.6C87.1095 420.952 87.4775 419.48 88.2135 418.184C88.9655 416.872 89.9895 415.856 91.2855 415.136C92.5975 414.4 94.0535 414.032 95.6535 414.032C97.5415 414.032 99.1815 414.496 100.574 415.424C101.966 416.336 102.926 417.624 103.454 419.288H99.5895ZM118.707 424.064C118.707 424.544 118.675 424.976 118.611 425.36H108.891C108.971 426.32 109.307 427.072 109.899 427.616C110.491 428.16 111.219 428.432 112.083 428.432C113.331 428.432 114.219 427.896 114.747 426.824H118.371C117.987 428.104 117.251 429.16 116.163 429.992C115.075 430.808 113.739 431.216 112.155 431.216C110.875 431.216 109.723 430.936 108.699 430.376C107.691 429.8 106.899 428.992 106.323 427.952C105.763 426.912 105.483 425.712 105.483 424.352C105.483 422.976 105.763 421.768 106.323 420.728C106.883 419.688 107.667 418.888 108.675 418.328C109.683 417.768 110.843 417.488 112.155 417.488C113.419 417.488 114.547 417.76 115.539 418.304C116.547 418.848 117.323 419.624 117.867 420.632C118.427 421.624 118.707 422.768 118.707 424.064ZM115.227 423.104C115.211 422.24 114.899 421.552 114.291 421.04C113.683 420.512 112.939 420.248 112.059 420.248C111.227 420.248 110.523 420.504 109.947 421.016C109.387 421.512 109.043 422.208 108.915 423.104H115.227ZM125.072 420.464V426.896C125.072 427.344 125.176 427.672 125.384 427.88C125.608 428.072 125.976 428.168 126.488 428.168H128.048V431H125.936C123.104 431 121.688 429.624 121.688 426.872V420.464H120.104V417.704H121.688V414.416H125.072V417.704H128.048V420.464H125.072ZM150.511 431H147.151L139.543 419.504V431H136.183V414.224H139.543L147.151 425.744V414.224H150.511V431ZM159.736 431.216C158.456 431.216 157.304 430.936 156.28 430.376C155.256 429.8 154.448 428.992 153.856 427.952C153.28 426.912 152.992 425.712 152.992 424.352C152.992 422.992 153.288 421.792 153.88 420.752C154.488 419.712 155.312 418.912 156.352 418.352C157.392 417.776 158.552 417.488 159.832 417.488C161.112 417.488 162.272 417.776 163.312 418.352C164.352 418.912 165.168 419.712 165.76 420.752C166.368 421.792 166.672 422.992 166.672 424.352C166.672 425.712 166.36 426.912 165.736 427.952C165.128 428.992 164.296 429.8 163.24 430.376C162.2 430.936 161.032 431.216 159.736 431.216ZM159.736 428.288C160.344 428.288 160.912 428.144 161.44 427.856C161.984 427.552 162.416 427.104 162.736 426.512C163.056 425.92 163.216 425.2 163.216 424.352C163.216 423.088 162.88 422.12 162.208 421.448C161.552 420.76 160.744 420.416 159.784 420.416C158.824 420.416 158.016 420.76 157.36 421.448C156.72 422.12 156.4 423.088 156.4 424.352C156.4 425.616 156.712 426.592 157.336 427.28C157.976 427.952 158.776 428.288 159.736 428.288ZM187.568 417.704L183.68 431H180.056L177.632 421.712L175.208 431H171.56L167.648 417.704H171.056L173.408 427.832L175.952 417.704H179.504L182 427.808L184.352 417.704H187.568Z" fill="black"/>
<rect x="26" y="391" width="221" height="64" rx="23" stroke="black" stroke-width="2"/>
</svg>
