<svg width="537" height="185" viewBox="0 0 537 185" fill="none" xmlns="http://www.w3.org/2000/svg">
<rect width="537" height="185" fill="#6560D3"/>
<circle cx="223.702" cy="112.519" r="38.7017" stroke="black" stroke-width="6"/>
<path d="M191.131 113.117C190.768 112.755 190.439 112.418 190.144 112.111C190.439 111.803 190.768 111.466 191.131 111.104C192.937 109.303 195.552 106.9 198.776 104.501C205.292 99.6541 213.959 95.0774 223.293 95.0774C232.627 95.0774 241.294 99.6541 247.81 104.501C251.035 106.9 253.649 109.303 255.455 111.104C255.818 111.466 256.148 111.803 256.442 112.111C256.148 112.418 255.818 112.755 255.455 113.117C253.649 114.918 251.035 117.322 247.81 119.72C241.294 124.567 232.627 129.144 223.293 129.144C213.959 129.144 205.292 124.567 198.776 119.72C195.552 117.322 192.937 114.918 191.131 113.117Z" fill="white" stroke="black" stroke-width="6"/>
<circle cx="236.056" cy="111.702" r="11.4475" fill="black"/>
<circle cx="314.463" cy="111.702" r="38.7017" stroke="black" stroke-width="6"/>
<path d="M281.893 112.299C281.53 111.937 281.2 111.6 280.906 111.293C281.2 110.986 281.53 110.649 281.893 110.286C283.699 108.485 286.314 106.082 289.538 103.683C296.054 98.8363 304.721 94.2596 314.055 94.2596C323.389 94.2596 332.056 98.8363 338.572 103.683C341.796 106.082 344.411 108.485 346.217 110.286C346.58 110.649 346.91 110.986 347.204 111.293C346.91 111.6 346.58 111.937 346.217 112.299C344.411 114.101 341.796 116.504 338.572 118.902C332.056 123.749 323.389 128.326 314.055 128.326C304.721 128.326 296.054 123.749 289.538 118.902C286.314 116.504 283.699 114.101 281.893 112.299Z" fill="white" stroke="black" stroke-width="6"/>
<circle cx="326.818" cy="110.884" r="11.4475" fill="black"/>
<rect x="102.5" y="113.5" width="51.1277" height="51.1277" fill="#FF8577" stroke="black"/>
<path d="M131.67 143.284H129.988C129.684 143.284 129.392 143.163 129.176 142.948C128.961 142.732 128.84 142.44 128.84 142.136C128.84 141.831 128.961 141.539 129.176 141.324C129.392 141.109 129.684 140.988 129.988 140.988H132.284V138.692H129.988C129.684 138.692 129.392 138.571 129.176 138.355C128.961 138.14 128.84 137.848 128.84 137.544C128.84 137.239 128.961 136.947 129.176 136.732C129.392 136.516 129.684 136.395 129.988 136.395H132.284V134.099H129.988C129.684 134.099 129.392 133.978 129.176 133.763C128.961 133.548 128.84 133.256 128.84 132.951C128.84 132.647 128.961 132.355 129.176 132.14C129.392 131.924 129.684 131.803 129.988 131.803H131.67C131.267 131.105 130.687 130.525 129.989 130.122C129.291 129.719 128.498 129.507 127.692 129.507C125.993 129.507 124.508 130.43 123.714 131.803H125.396C125.7 131.803 125.992 131.924 126.208 132.14C126.423 132.355 126.544 132.647 126.544 132.951C126.544 133.256 126.423 133.548 126.208 133.763C125.992 133.978 125.7 134.099 125.396 134.099H123.1V136.395H125.396C125.7 136.395 125.992 136.516 126.208 136.732C126.423 136.947 126.544 137.239 126.544 137.544C126.544 137.848 126.423 138.14 126.208 138.355C125.992 138.571 125.7 138.692 125.396 138.692H123.1V140.988H125.396C125.7 140.988 125.992 141.109 126.208 141.324C126.423 141.539 126.544 141.831 126.544 142.136C126.544 142.44 126.423 142.732 126.208 142.948C125.992 143.163 125.7 143.284 125.396 143.284H123.714C124.117 143.982 124.697 144.562 125.395 144.965C126.093 145.368 126.886 145.58 127.692 145.58C129.391 145.58 130.876 144.657 131.67 143.284ZM129.957 147.495C130.012 147.824 129.995 148.161 129.907 148.483C129.818 148.804 129.661 149.103 129.445 149.358C129.23 149.612 128.961 149.817 128.659 149.957C128.356 150.098 128.026 150.17 127.693 150.17C127.359 150.17 127.029 150.098 126.727 149.957C126.424 149.817 126.156 149.612 125.94 149.358C125.724 149.103 125.567 148.804 125.479 148.483C125.39 148.161 125.373 147.824 125.428 147.495C124.077 147.024 122.906 146.145 122.078 144.979C121.249 143.813 120.804 142.418 120.804 140.988V134.099C120.804 132.272 121.529 130.52 122.821 129.229C124.113 127.937 125.865 127.211 127.692 127.211C129.519 127.211 131.271 127.937 132.563 129.229C133.855 130.52 134.58 132.272 134.58 134.099V140.988C134.58 142.418 134.135 143.813 133.307 144.979C132.478 146.145 131.308 147.024 129.957 147.495Z" fill="black"/>
<rect x="64.5" y="58.5" width="63.0426" height="63.0426" fill="#C6B8FF" stroke="black"/>
<path d="M93.9899 79.834C87.217 79.834 83.1533 85.267 83.1533 87.9838C83.1533 90.7005 84.5077 92.738 87.217 92.738C89.9262 92.738 91.2811 93.4168 91.2811 95.4542C91.2811 98.1705 93.3127 100.208 96.0219 100.208C104.827 100.208 108.89 95.4542 108.89 90.7005C108.889 82.5508 102.116 79.834 93.9899 79.834ZM92.2966 82.5508C92.5193 82.551 92.7397 82.5952 92.9453 82.6806C93.1508 82.7661 93.3376 82.8912 93.4948 83.0488C93.652 83.2065 93.7767 83.3935 93.8616 83.5993C93.9466 83.8051 93.9901 84.0256 93.9899 84.2483C93.9899 85.1866 93.2317 85.9463 92.2966 85.9463C91.3616 85.9463 90.6034 85.186 90.6034 84.2483C90.6031 84.0256 90.6467 83.8051 90.7316 83.5993C90.8166 83.3935 90.9412 83.2065 91.0985 83.0488C91.2557 82.8912 91.4424 82.7661 91.648 82.6806C91.8536 82.5952 92.074 82.551 92.2966 82.5508ZM97.7141 82.5508C97.9367 82.551 98.1571 82.5952 98.3627 82.6806C98.5683 82.7661 98.755 82.8912 98.9123 83.0488C99.0695 83.2065 99.1942 83.3935 99.2791 83.5993C99.364 83.8051 99.4076 84.0256 99.4073 84.2483C99.4077 84.471 99.3642 84.6915 99.2792 84.8974C99.1943 85.1033 99.0697 85.2904 98.9125 85.4481C98.7552 85.6057 98.5685 85.7309 98.3629 85.8164C98.1572 85.9019 97.9368 85.946 97.7141 85.9463C97.4915 85.946 97.2711 85.9018 97.0655 85.8162C96.86 85.7307 96.6733 85.6055 96.5161 85.4479C96.3589 85.2902 96.2343 85.1031 96.1494 84.8973C96.0646 84.6914 96.0211 84.4709 96.0214 84.2483C96.0208 83.7987 96.1988 83.3674 96.5163 83.049C96.8337 82.7307 97.2646 82.5515 97.7141 82.5508ZM103.133 85.267C103.355 85.2672 103.576 85.3113 103.782 85.3968C103.987 85.4822 104.174 85.6074 104.331 85.7651C104.489 85.9228 104.613 86.1099 104.698 86.3158C104.783 86.5217 104.827 86.7423 104.826 86.965C104.827 87.1878 104.783 87.4083 104.698 87.6142C104.613 87.8201 104.489 88.0072 104.331 88.1648C104.174 88.3225 103.987 88.4476 103.782 88.533C103.576 88.6184 103.355 88.6624 103.133 88.6626C102.91 88.6624 102.69 88.6183 102.484 88.5328C102.278 88.4474 102.092 88.3223 101.934 88.1646C101.777 88.007 101.653 87.8199 101.568 87.614C101.483 87.4082 101.44 87.1877 101.44 86.965C101.44 86.7424 101.483 86.5218 101.568 86.316C101.653 86.1101 101.777 85.923 101.934 85.7653C102.092 85.6076 102.278 85.4824 102.484 85.3969C102.69 85.3114 102.91 85.2673 103.133 85.267ZM87.5558 86.6257C87.7784 86.6259 87.9988 86.6699 88.2043 86.7553C88.4099 86.8408 88.5966 86.9658 88.7538 87.1234C88.911 87.281 89.0356 87.468 89.1205 87.6738C89.2053 87.8796 89.2489 88.1 89.2485 88.3226C89.2485 89.2609 88.4904 90.0207 87.5558 90.0207C86.6213 90.0207 85.8626 89.2604 85.8626 88.3226C85.8622 87.8731 86.0403 87.4418 86.3578 87.1235C86.6754 86.8053 87.1063 86.6262 87.5558 86.6257ZM96.0214 93.4168C97.1436 93.4168 98.053 94.3283 98.053 95.4548C98.053 96.5797 97.1436 97.4917 96.0214 97.4917C94.8992 97.4917 93.9899 96.5797 93.9899 95.4548C93.9894 95.1875 94.0415 94.9228 94.1434 94.6758C94.2452 94.4287 94.3947 94.2041 94.5834 94.0149C94.7721 93.8256 94.9962 93.6754 95.2429 93.5728C95.4896 93.4701 95.7542 93.4171 96.0214 93.4168Z" fill="black"/>
<rect x="385.5" y="64.5" width="45.9149" height="45.9149" fill="#0FA958" stroke="black"/>
<path d="M408.83 90.4362C409.76 90.4362 410.552 90.1103 411.204 89.4584C411.856 88.8066 412.181 88.0155 412.181 87.0851C412.181 86.1543 411.855 85.3629 411.203 84.7111C410.551 84.0592 409.76 83.7336 408.83 83.7341C407.899 83.7341 407.107 84.06 406.456 84.7118C405.804 85.3637 405.478 86.1548 405.479 87.0851C405.479 88.016 405.804 88.8073 406.456 89.4592C407.108 90.111 407.899 90.4367 408.83 90.4362ZM408.83 89.6915L408.01 87.9043L406.223 87.0851L408.01 86.266L408.83 84.4787L409.649 86.266L411.436 87.0851L409.649 87.9043L408.83 89.6915ZM402.872 93.0426C402.463 93.0426 402.112 92.8966 401.82 92.6047C401.528 92.3128 401.382 91.9623 401.383 91.5532V82.617C401.383 82.2075 401.529 81.8567 401.821 81.5648C402.113 81.2729 402.463 81.1272 402.872 81.1277H405.218L406.596 79.6383H411.064L412.441 81.1277H414.787C415.197 81.1277 415.547 81.2736 415.839 81.5655C416.131 81.8575 416.277 82.208 416.276 82.617V91.5532C416.276 91.9628 416.13 92.3135 415.839 92.6054C415.547 92.8974 415.196 93.0431 414.787 93.0426H402.872Z" fill="black"/>
<rect x="417.5" y="103.5" width="55.5958" height="55.5958" fill="#FFC700" stroke="black"/>
<path d="M445.298 119.755V120.872L444.438 120.157L440.562 124.782L444.181 127.016V124.402L443.935 124.223L445.298 122.615V144.33H447.532V133.428L449.688 131.272C452.558 131.719 455.496 130.211 457.205 128.502L455.619 126.915C454.346 128.2 451.665 129.373 449.766 128.982L447.532 126.726V119.755M450.883 123.106C450.29 123.106 449.722 123.342 449.303 123.761C448.884 124.18 448.649 124.748 448.649 125.34C448.649 125.933 448.884 126.501 449.303 126.92C449.722 127.339 450.29 127.575 450.883 127.575C451.475 127.575 452.044 127.339 452.463 126.92C452.881 126.501 453.117 125.933 453.117 125.34C453.117 124.748 452.881 124.18 452.463 123.761C452.044 123.342 451.475 123.106 450.883 123.106ZM444.181 127.306L439.824 131.663C437.758 133.718 436.708 135.226 435.312 138.923L437.412 139.705C438.529 136.734 439.333 135.55 440.684 134.098L442.192 135.606L436.663 141.135L438.249 142.721L444.181 136.779V127.306Z" fill="black"/>
</svg>
