<svg width="535" height="395" viewBox="0 0 535 395" fill="none" xmlns="http://www.w3.org/2000/svg">
<path d="M510.076 106.301C510.197 106.514 510.043 106.779 509.798 106.779L50.1775 106.779C50.0905 106.779 50.0073 106.743 49.947 106.68L29.5391 85.3921C29.4195 85.2673 29.4209 85.0701 29.5422 84.947L62.8885 51.1145C62.9527 51.0494 63.0417 51.0149 63.133 51.0198L144.563 55.3828L217.072 51.0121L274.016 45.8346C274.035 45.833 274.053 45.8329 274.072 45.8345L334.9 51.0122L367.887 56.0256C367.907 56.0287 367.928 56.0298 367.949 56.0289L478.429 51.021C478.549 51.0156 478.662 51.0778 478.721 51.1821L510.076 106.301Z" fill="#90B05B"/>
<path d="M293.471 54.0881L230.025 64.4482L164.637 68.9808L128.382 59.2682L73.3529 64.4482L39.6877 85.1684L44.2196 108.479L112.197 92.9385H387.992L478.629 81.2834L444.964 64.4482L350.443 81.2834L293.471 54.0881Z" fill="#9ED35D"/>
<path d="M172.943 33.84V42.928H187.599V51.376H172.943V61.232H189.519V70H161.999V25.072H189.519V33.84H172.943ZM212.688 59.76L220.432 34.288H232.08L219.408 70H205.904L193.232 34.288H204.944L212.688 59.76ZM270.351 51.568C270.351 52.592 270.287 53.6587 270.159 54.768H245.391C245.561 56.9867 246.265 58.6933 247.503 59.888C248.783 61.04 250.34 61.616 252.175 61.616C254.905 61.616 256.804 60.464 257.871 58.16H269.519C268.921 60.5067 267.833 62.6187 266.255 64.496C264.719 66.3733 262.777 67.8453 260.431 68.912C258.084 69.9787 255.46 70.512 252.559 70.512C249.06 70.512 245.945 69.7653 243.215 68.272C240.484 66.7787 238.351 64.6453 236.815 61.872C235.279 59.0987 234.511 55.856 234.511 52.144C234.511 48.432 235.257 45.1893 236.751 42.416C238.287 39.6427 240.42 37.5093 243.151 36.016C245.881 34.5227 249.017 33.776 252.559 33.776C256.015 33.776 259.087 34.5013 261.775 35.952C264.463 37.4027 266.553 39.472 268.047 42.16C269.583 44.848 270.351 47.984 270.351 51.568ZM259.151 48.688C259.151 46.8107 258.511 45.3173 257.231 44.208C255.951 43.0987 254.351 42.544 252.431 42.544C250.596 42.544 249.039 43.0773 247.759 44.144C246.521 45.2107 245.753 46.7253 245.455 48.688H259.151ZM297.884 33.904C302.066 33.904 305.394 35.2693 307.868 38C310.386 40.688 311.644 44.4 311.644 49.136V70H300.764V50.608C300.764 48.2187 300.146 46.3627 298.908 45.04C297.671 43.7173 296.007 43.056 293.916 43.056C291.826 43.056 290.162 43.7173 288.924 45.04C287.687 46.3627 287.068 48.2187 287.068 50.608V70H276.124V34.288H287.068V39.024C288.178 37.4453 289.671 36.208 291.548 35.312C293.426 34.3733 295.538 33.904 297.884 33.904ZM339.153 60.72V70H333.585C329.617 70 326.524 69.04 324.305 67.12C322.087 65.1573 320.977 61.9787 320.977 57.584V43.376H316.625V34.288H320.977V25.584H331.921V34.288H339.089V43.376H331.921V57.712C331.921 58.7787 332.177 59.5467 332.689 60.016C333.201 60.4853 334.055 60.72 335.249 60.72H339.153ZM359.777 70.512C356.663 70.512 353.889 69.9787 351.457 68.912C349.025 67.8453 347.105 66.3947 345.697 64.56C344.289 62.6827 343.5 60.592 343.329 58.288H354.145C354.273 59.5253 354.849 60.528 355.873 61.296C356.897 62.064 358.156 62.448 359.649 62.448C361.015 62.448 362.06 62.192 362.785 61.68C363.553 61.1253 363.937 60.4213 363.937 59.568C363.937 58.544 363.404 57.7973 362.337 57.328C361.271 56.816 359.543 56.2613 357.153 55.664C354.593 55.0667 352.46 54.448 350.753 53.808C349.047 53.1253 347.575 52.08 346.337 50.672C345.1 49.2213 344.481 47.28 344.481 44.848C344.481 42.8 345.036 40.944 346.145 39.28C347.297 37.5733 348.961 36.2293 351.137 35.248C353.356 34.2667 355.98 33.776 359.009 33.776C363.489 33.776 367.009 34.8853 369.569 37.104C372.172 39.3227 373.665 42.2667 374.049 45.936H363.937C363.767 44.6987 363.212 43.7173 362.273 42.992C361.377 42.2667 360.183 41.904 358.689 41.904C357.409 41.904 356.428 42.16 355.745 42.672C355.063 43.1413 354.721 43.8027 354.721 44.656C354.721 45.68 355.255 46.448 356.321 46.96C357.431 47.472 359.137 47.984 361.441 48.496C364.087 49.1787 366.241 49.8613 367.905 50.544C369.569 51.184 371.02 52.2507 372.257 53.744C373.537 55.1947 374.199 57.1573 374.241 59.632C374.241 61.7227 373.644 63.6 372.449 65.264C371.297 66.8853 369.612 68.1653 367.393 69.104C365.217 70.0427 362.679 70.512 359.777 70.512Z" fill="white"/>
<g filter="url(#filter0_d_286_66)">
<path d="M530.23 141.258C530.321 141.468 530.167 141.703 529.937 141.703L4.54199 141.703C4.29871 141.703 4.14484 141.442 4.2627 141.229L23.131 107.166C23.1544 107.124 23.1871 107.087 23.2266 107.06L61.6677 80.0111C61.6893 79.9959 61.7127 79.9834 61.7374 79.974L105.622 63.1918C105.688 63.1667 105.76 63.164 105.828 63.1841L161.976 79.9665C162.023 79.9808 162.074 79.9837 162.123 79.975L202.147 72.8728C202.174 72.868 202.201 72.8667 202.228 72.8689L290.839 79.9848C290.868 79.9871 290.896 79.9855 290.924 79.9803L380.143 63.1684C380.196 63.1583 380.251 63.1621 380.303 63.1793L430.656 79.9662C430.699 79.9807 430.745 79.9857 430.791 79.9808L500.352 72.5254C500.491 72.5104 500.624 72.5879 500.679 72.7164L530.23 141.258Z" fill="#B9EE79"/>
</g>
<rect x="216.107" y="248.836" width="21.2112" height="93.2455" rx="0.0736841" fill="#AE0D94"/>
<rect x="192.966" y="202.208" width="21.2112" height="93.2455" rx="0.0736841" fill="#AE0D94"/>
<rect x="198.751" y="204.731" width="21.2112" height="93.2455" rx="0.0736841" fill="#AE0D94"/>
<rect x="416.649" y="223.633" width="21.2112" height="93.2455" rx="0.0736841" fill="#AE0D94"/>
<rect x="329.873" y="212.293" width="21.2112" height="93.2455" rx="0.0736841" fill="#AE0D94"/>
<rect x="399.292" y="184.571" width="21.2112" height="93.2455" rx="0.0736841" fill="#AE0D94"/>
<rect x="383.866" y="195.91" width="21.2112" height="93.2455" rx="0.0736841" fill="#AE0D94"/>
<rect x="351.083" y="247.575" width="21.2112" height="93.2455" rx="0.0736841" fill="#AE0D94"/>
<rect x="385.796" y="168.19" width="21.2112" height="93.2455" rx="0.0736841" fill="#AE0D94"/>
<rect x="140.902" y="223.633" width="21.2112" height="93.2455" rx="0.0736841" fill="#AE0D94"/>
<rect x="160.185" y="258.916" width="21.2112" height="93.2455" rx="0.0736841" fill="#AE0D94"/>
<rect x="160.185" y="218.592" width="21.2112" height="93.2455" rx="0.0736841" fill="#AE0D94"/>
<rect x="119.692" y="197.172" width="21.2112" height="93.2455" rx="0.0736841" fill="#660050"/>
<rect x="117.765" y="177.009" width="21.2112" height="93.2455" rx="0.0736841" fill="#660050"/>
<rect x="212.252" y="184.571" width="21.2112" height="93.2455" rx="0.0736841" fill="#660050"/>
<rect x="181.398" y="221.112" width="21.2112" height="93.2455" rx="0.0736841" fill="#660050"/>
<rect x="362.658" y="202.208" width="21.2112" height="93.2455" rx="0.0736841" fill="#660050"/>
<rect x="169.827" y="188.349" width="21.2112" height="93.2455" rx="0.0736841" fill="#660050"/>
<rect x="370.368" y="171.97" width="21.2112" height="93.2455" rx="0.0736841" fill="#660050"/>
<path d="M370.368 172.044C370.368 172.003 370.401 171.97 370.442 171.97H391.505C391.546 171.97 391.579 172.003 391.579 172.044V265.142C391.579 265.183 391.546 265.216 391.505 265.216H370.442C370.401 265.216 370.368 265.183 370.368 265.142V172.044Z" fill="#660050"/>
<path d="M406.041 228.747C406.041 228.707 406.074 228.674 406.115 228.674H427.179C427.219 228.674 427.252 228.707 427.252 228.747V321.845C427.252 321.886 427.219 321.919 427.179 321.919H406.115C406.074 321.919 406.041 321.886 406.041 321.845V228.747Z" fill="#660050"/>
<path d="M370.368 114.081C370.368 114.04 370.401 114.007 370.442 114.007H391.505C391.546 114.007 391.579 114.04 391.579 114.081V202.141C391.579 202.181 391.546 202.214 391.505 202.214H370.442C370.401 202.214 370.368 202.181 370.368 202.141V114.081Z" fill="#660050"/>
<path d="M406.041 165.746C406.041 165.705 406.074 165.672 406.115 165.672H427.179C427.219 165.672 427.252 165.705 427.252 165.746V258.844C427.252 258.885 427.219 258.918 427.179 258.918H406.115C406.074 258.918 406.041 258.885 406.041 258.844V165.746Z" fill="#660050"/>
<path d="M67.626 160.629H133.188L125.475 260.174L123.546 275.925L116.797 260.174L102.335 287.266L87.873 274.665L81.124 244.424L67.626 261.435V160.629Z" fill="#344C4C"/>
<path d="M312.523 168.19H378.085L370.372 267.736L368.444 283.487L361.695 267.736L347.233 294.828L332.77 282.227L326.021 251.985L312.523 268.996V168.19Z" fill="#336262"/>
<path d="M410.865 149.287H476.426L468.713 248.833L466.785 264.584L460.036 248.833L445.574 275.925L431.112 263.324L424.363 233.082L410.865 250.093V149.287Z" fill="#2A5A5A"/>
<path d="M329.873 202.208H229.602L234.422 353.756L244.347 377.735L254.669 353.756L276.788 395L298.907 375.817L309.229 329.777L329.873 355.674V202.208Z" fill="#273535"/>
<rect x="418.578" y="126.606" width="84.8446" height="31.5018" rx="0.147368" fill="#745B5F"/>
<rect x="293.238" y="221.112" width="123.41" height="50.403" rx="0.147368" transform="rotate(-180 293.238 221.112)" fill="#665754"/>
<rect x="460.998" y="192.128" width="131.124" height="52.9231" rx="0.17193" transform="rotate(-180 460.998 192.128)" fill="#665754"/>
<rect x="46.4153" y="141.728" width="84.8446" height="31.5018" rx="0.147368" fill="#745B5F"/>
<path d="M48.4178 131.722C73.6458 132.576 124.285 131.349 130.095 131.722C148.13 132.881 138.039 153.07 138.039 153.07H38.7273C38.7273 153.07 30.319 131.109 48.4178 131.722Z" fill="#7DA55A"/>
<path d="M420.361 119.109C445.134 119.812 494.86 118.801 500.565 119.109C518.275 120.063 508.366 136.69 508.366 136.69H410.845C410.845 136.69 402.589 118.604 420.361 119.109Z" fill="#97D263"/>
<path d="M100.481 139.28C125.709 140.134 176.348 138.906 182.158 139.28C200.193 140.439 190.102 160.628 190.102 160.628H90.7903C90.7903 160.628 82.382 138.667 100.481 139.28Z" fill="#96CC5B"/>
<rect x="98.4829" y="156.849" width="84.8446" height="31.5018" rx="0.147368" fill="#7C655D"/>
<path d="M353.015 136.832C353.015 136.751 353.081 136.685 353.163 136.685H437.712C437.794 136.685 437.86 136.751 437.86 136.832V162.999C437.86 163.081 437.794 163.147 437.712 163.147H353.163C353.081 163.147 353.015 163.081 353.015 162.999V136.832Z" fill="#7C655D"/>
<path d="M355.018 125.42C380.246 126.274 430.885 125.046 436.695 125.42C454.73 126.579 444.639 146.768 444.639 146.768H345.327C345.327 146.768 336.919 124.807 355.018 125.42Z" fill="#7DA55A"/>
<path d="M345.153 121.567C345.235 121.567 345.301 121.633 345.301 121.715L345.301 202.064C345.301 202.146 345.235 202.212 345.153 202.212L268.317 202.212C268.235 202.212 268.169 202.146 268.169 202.064L268.169 121.715C268.169 121.633 268.235 121.567 268.317 121.567L345.153 121.567Z" fill="#705E5B"/>
<path d="M268.172 121.715C268.172 121.633 268.238 121.567 268.319 121.567L391.435 121.567C391.516 121.567 391.582 121.633 391.582 121.715V171.823C391.582 171.904 391.516 171.97 391.435 171.97H268.319C268.238 171.97 268.172 171.904 268.172 171.823V121.715Z" fill="#705E5B"/>
<rect x="183.328" y="139.207" width="96.4144" height="31.5018" rx="0.147368" fill="#7D6463"/>
<path d="M194.759 135.489C219.531 136.192 269.257 135.182 274.962 135.489C292.672 136.444 282.763 153.07 282.763 153.07H185.243C185.243 153.07 176.986 134.985 194.759 135.489Z" fill="#97D263"/>
<path d="M275.77 112.81C308.956 113.564 375.57 112.481 383.213 112.81C406.937 113.833 393.663 131.647 393.663 131.647H263.022C263.022 131.647 251.962 112.27 275.77 112.81Z" fill="#A4D965"/>
<rect x="208.394" y="156.849" width="80.6447" height="77.1315" rx="0.147368" transform="rotate(90 208.394 156.849)" fill="#705E5B"/>
<path d="M129.406 146.842C154.634 147.696 205.273 146.468 211.083 146.842C229.119 148.001 219.028 168.19 219.028 168.19H119.716C119.716 168.19 111.307 146.229 129.406 146.842Z" fill="#A3D768"/>
<path d="M207.937 369.464L215.65 364.708L224.015 376.009L215.601 381.197L207.937 369.464Z" fill="#344C4C"/>
<path d="M122.67 316.596L130.384 311.84L138.749 323.14L130.334 328.329L122.67 316.596Z" fill="#477474"/>
<path d="M389.294 342.467L393.921 336.231L400.073 342.382L395.025 349.185L389.294 342.467Z" fill="#336262"/>
<path d="M282.683 314.294L287.31 308.058L293.461 314.208L288.413 321.011L282.683 314.294Z" fill="#336262"/>
<path d="M165.058 294.132L169.685 287.896L175.837 294.046L170.789 300.849L165.058 294.132Z" fill="#336262"/>
<path d="M82.1428 276.492L86.77 270.256L92.9215 276.406L87.8737 283.209L82.1428 276.492Z" fill="#336262"/>
<path d="M345.655 370.69L340.974 376.909L334.876 370.736L339.982 363.952L345.655 370.69Z" fill="#273535"/>
<defs>
<filter id="filter0_d_286_66" x="0.222168" y="63.1628" width="534.034" height="86.5405" filterUnits="userSpaceOnUse" color-interpolation-filters="sRGB">
<feFlood flood-opacity="0" result="BackgroundImageFix"/>
<feColorMatrix in="SourceAlpha" type="matrix" values="0 0 0 0 0 0 0 0 0 0 0 0 0 0 0 0 0 0 127 0" result="hardAlpha"/>
<feOffset dy="4"/>
<feGaussianBlur stdDeviation="2"/>
<feComposite in2="hardAlpha" operator="out"/>
<feColorMatrix type="matrix" values="0 0 0 0 0 0 0 0 0 0 0 0 0 0 0 0 0 0 0.25 0"/>
<feBlend mode="normal" in2="BackgroundImageFix" result="effect1_dropShadow_286_66"/>
<feBlend mode="normal" in="SourceGraphic" in2="effect1_dropShadow_286_66" result="shape"/>
</filter>
</defs>
</svg>
