<svg width="331" height="128" viewBox="0 0 331 128" fill="none" xmlns="http://www.w3.org/2000/svg">
<path d="M195.952 56.9732C196.544 57.1002 196.544 57.1005 196.544 57.1008L196.544 57.1015L196.544 57.1032L196.543 57.1077L196.54 57.1214C196.537 57.1325 196.533 57.1477 196.529 57.1667C196.519 57.2047 196.506 57.2581 196.487 57.3257C196.448 57.4608 196.39 57.6524 196.304 57.8896C196.132 58.364 195.852 59.0223 195.416 59.777C194.541 61.2881 193.036 63.1847 190.515 64.7604C188.06 66.2949 186.475 66.9411 185.164 67.2107C184.509 67.3453 183.94 67.3824 183.393 67.3982C183.221 67.4031 183.056 67.406 182.892 67.4088C182.522 67.4153 182.161 67.4216 181.752 67.4512C180.511 67.5412 178.919 67.5407 177.65 67.5186C177.012 67.5076 176.451 67.491 176.05 67.4771C175.849 67.4702 175.688 67.464 175.576 67.4595L175.448 67.4541L175.436 67.4536C173.781 67.5542 171.491 67.5802 168.573 67.533C169.289 70.0292 170.493 72.1589 172.196 73.9195C175.665 77.4941 179.906 79.3196 184.978 79.405C189.825 79.4687 194.242 77.9781 198.292 74.871L198.338 74.8357L198.389 74.8098L198.42 74.7945L198.48 74.7467L198.487 74.7408L198.495 74.7351C198.513 74.7217 198.526 74.7105 198.548 74.6915C198.563 74.6793 198.581 74.6637 198.608 74.6422C198.658 74.6009 198.728 74.545 198.813 74.4921C199.047 74.3311 199.282 74.1827 199.483 74.0557C199.535 74.0228 199.585 73.9913 199.632 73.9614L199.644 73.9537L199.656 73.9465C200.054 73.7191 200.425 73.5449 200.746 73.4723C201.034 73.4072 201.546 73.3763 201.843 73.8238C202.131 74.2368 201.975 74.688 201.823 74.958C201.658 75.2487 201.384 75.552 201.051 75.8614L201.044 75.8684L201.044 75.8683C200.809 76.0796 200.555 76.2875 200.261 76.5135L200.233 76.5349L200.203 76.5529C200.168 76.5737 200.153 76.587 200.119 76.6166C200.09 76.6425 200.046 76.681 199.962 76.7482L199.93 76.7736L199.895 76.7946L199.849 76.8221L199.836 76.8353L199.808 76.8636L199.776 76.8879C196.651 79.2817 193.749 81.0493 191.115 82.1524C184.807 84.8011 178.725 84.9474 172.954 82.5259L172.954 82.5257C170.525 81.5043 168.386 80.026 166.588 78.0466C164.723 76.0216 163.445 73.7179 162.737 71.1854L162.737 71.1833L162.737 71.1833C161.33 66.0793 161.97 61.1249 164.616 56.3762L164.617 56.3742C167.168 51.8367 170.899 48.5365 175.792 46.5073L175.792 46.5073C178.301 45.4675 180.902 44.9247 183.569 44.8569L183.57 44.8569C186.427 44.7889 189.049 45.3333 191.404 46.4537C193.573 47.4799 194.918 48.9135 195.874 50.6154C196.633 51.9671 196.785 53.6112 196.765 54.8612C196.755 55.4955 196.701 56.0496 196.649 56.4457C196.623 56.6442 196.598 56.8039 196.579 56.9154C196.569 56.9712 196.561 57.0149 196.555 57.0455L196.548 57.0813L196.546 57.0916L196.545 57.0947L196.545 57.0958L196.545 57.0962C196.545 57.0963 196.545 57.0965 195.952 56.9732ZM195.952 56.9732L196.544 57.1002L196.545 57.0965L195.952 56.9732ZM168.156 62.6583C168.061 62.6583 167.963 62.6652 167.863 62.6786C167.832 58.7209 168.986 55.3182 171.329 52.4388C172.379 51.1516 173.967 50.2843 176.212 49.9066L176.212 49.9066L176.216 49.9059C177.899 49.6115 179.857 49.6078 182.078 49.888C184.172 50.166 185.937 50.7178 187.413 51.5699L187.416 51.5717C189.198 52.5872 190.364 53.9309 190.946 55.5766L190.946 55.5767L190.948 55.581C191.331 56.6383 191.395 57.5282 191.203 58.2768C191.012 59.0188 190.553 59.6869 189.769 60.2776C188.169 61.482 185.293 62.3073 181.01 62.6583H168.156Z" fill="#0C0F47" stroke="#0C0F47" stroke-width="1.2122"/>
<path d="M103.332 75.1569C105.386 77.0834 107.749 78.3475 110.45 78.9386C113.392 79.5746 116.527 78.2197 119.871 74.5315C120.608 73.7103 121.711 72.4623 123.179 70.7485C122.18 62.9576 122.365 55.4597 123.76 48.3003C123.787 47.7522 124.135 47.2774 124.557 46.8814C125.013 46.4532 125.666 46.013 126.485 45.5531L126.496 45.5472L126.496 45.5473C127.121 45.2124 127.703 44.9312 128.253 44.7399L128.264 44.736L128.276 44.7325C128.82 44.5671 129.399 44.4899 129.893 44.7181L130.289 44.9008L130.242 45.3343C129.495 52.1643 129.013 57.3845 128.772 60.9983C128.556 64.5301 128.966 67.9715 130.019 71.3045L130.021 71.309C130.347 72.3706 131.028 73.6537 131.899 74.8811C132.759 76.093 133.778 77.2123 134.769 77.9838C136.708 79.0745 139.17 79.0487 141.366 78.9171C143.444 78.7753 145.37 77.7904 147.131 75.8411L147.135 75.8372C148.56 74.2855 149.75 72.3015 150.693 69.8479C150.728 69.7161 150.786 69.5979 150.843 69.5003V48.556C150.843 47.9796 151.202 47.4822 151.641 47.0702C152.097 46.642 152.751 46.2019 153.57 45.7419L153.58 45.736L153.58 45.7361C154.205 45.4012 154.787 45.1201 155.338 44.9287L155.349 44.9248L155.36 44.9213C155.614 44.8439 155.86 44.7806 156.059 44.7673C156.149 44.7614 156.32 44.7572 156.492 44.8363C156.59 44.8814 156.699 44.9591 156.781 45.0852C156.863 45.2119 156.89 45.3453 156.89 45.4568C156.89 45.4569 156.89 45.4571 156.89 45.4572L156.912 74.3842C156.975 75.4972 157.276 76.2658 157.724 76.7658L157.731 76.7739L157.738 76.7823C158.171 77.3014 158.906 77.715 160.015 77.9622C160.186 77.9978 160.414 78.0898 160.566 78.3186C160.723 78.5552 160.713 78.8101 160.67 78.9883C160.593 79.3077 160.356 79.6233 160.097 79.9049C159.925 80.1017 159.711 80.3144 159.461 80.5418L159.44 80.561L159.417 80.5782C159.369 80.6137 159.312 80.6697 159.24 80.7417L159.209 80.7722L159.175 80.798L159.121 80.8381L159.108 80.8515L159.089 80.871L159.067 80.8886L158.942 80.9931L158.936 80.9985L158.788 81.1249L158.782 81.1304L158.782 81.1303C158.645 81.2445 158.531 81.3358 158.421 81.4236L158.421 81.4237L158.411 81.4317L158.4 81.4392C158.255 81.5461 158.098 81.6635 157.95 81.7746C157.798 81.8884 157.655 81.9955 157.541 82.0779L157.533 82.084L157.525 82.0898C156.764 82.604 156.005 82.9397 155.324 82.7962L155.32 82.7953C154.052 82.5187 153.032 82.0661 152.306 81.3679C151.493 80.605 151.056 79.5331 150.913 78.2757C150.827 77.6009 150.769 76.832 150.743 75.9696C147.492 79.5197 144.14 81.9598 140.713 83.2118C138.347 84.0813 135.468 84.1917 132.839 83.6213C130.215 83.0522 127.751 81.7842 126.294 79.8019L126.292 79.8C125.334 78.4849 124.559 76.8846 123.959 75.0511C122.012 76.9665 120.432 78.3964 119.223 79.3479L119.22 79.3507C115.83 81.9774 112.359 83.4635 108.79 83.7611M103.332 75.1569L108.789 83.7611C108.789 83.7611 108.79 83.7611 108.79 83.7611M103.332 75.1569C101.442 73.3492 100.29 71.0184 99.889 68.1302C99.5299 65.4887 99.8453 62.843 100.845 60.1845L100.845 60.1843C102.567 55.5981 106.77 52.5049 113.713 51.0105C113.95 50.9849 114.211 50.9364 114.495 50.8453L115.932 50.5706C116.62 50.4824 117.328 50.1331 118.045 49.6012L118.064 49.5865L118.083 49.5702C118.542 49.1679 118.911 48.7981 119.174 48.4632C119.422 48.147 119.64 47.7842 119.672 47.4042C119.69 47.1957 119.651 46.9771 119.529 46.7782C119.41 46.5845 119.239 46.4545 119.066 46.3684C118.74 46.2058 118.32 46.1568 117.881 46.1568H98.1018C96.8593 46.1568 95.6542 46.9237 94.4567 48.1664L94.4567 48.1664L94.4527 48.1706C93.8785 48.7779 93.4621 49.2666 93.2302 49.6193C93.1301 49.7715 92.9975 49.9938 92.9711 50.2285C92.956 50.3638 92.9668 50.6042 93.1585 50.803C93.3405 50.9918 93.5666 51.0172 93.6844 51.0172H105.686C102.328 53.1159 99.487 55.6495 97.1831 58.633C94.721 61.8022 93.5583 65.4567 93.6719 69.526C93.7858 73.739 95.2733 77.2356 98.1454 79.9699L98.1482 79.9725C101.191 82.8327 104.744 84.1058 108.79 83.7611M103.332 75.1569L108.79 83.7611" fill="#0C0F47" stroke="#0C0F47" stroke-width="1.2122"/>
<path d="M214.054 54.5504L214.054 54.5505C214.766 55.7919 215.58 56.2005 217.039 56.9324C217.29 57.0584 217.56 57.194 217.852 57.3451L217.857 57.3478L217.857 57.3478C218.902 57.9012 220.571 58.4362 222.861 58.9382L224.326 59.2225L224.331 59.2235L224.331 59.2235L225.846 59.5308C225.847 59.5309 225.847 59.531 225.847 59.5311C227.067 59.775 228.088 60.0191 228.865 60.2189C228.866 60.2191 228.866 60.2193 228.867 60.2195L228.716 60.8065C231.002 61.3779 232.782 62.1031 234.057 62.9602L214.054 54.5504ZM214.054 54.5504L214.048 54.5401M214.054 54.5504L214.048 54.5401M214.048 54.5401C213.616 53.8195 213.326 53.054 213.447 52.2493C213.48 52.0451 213.498 51.962 213.504 51.934C213.529 51.896 213.617 51.7529 213.718 51.5527C213.755 51.5195 213.793 51.4847 213.832 51.4487C214.166 51.1436 214.59 50.7557 215.011 50.5452L215.045 50.5284L215.077 50.5074L216.895 49.2952L216.895 49.2953L216.902 49.2902L218.338 48.3022L220.829 46.7981C223.484 46.2011 225.817 46.5654 227.909 47.8449C229.564 48.8587 231.284 50.6261 233.059 53.2433L214.048 54.5401ZM209.462 50.7653L209.464 50.7631C209.495 50.7302 209.527 50.6969 209.559 50.663C210.469 49.7038 211.728 48.3755 214.106 46.8206C216.093 45.5209 219.264 43.9175 220.351 43.4341C222.906 42.281 225.392 41.7523 227.824 41.821L209.462 50.7653ZM209.462 50.7653C207.996 52.3244 207.298 53.987 207.499 55.7307C207.676 57.3852 208.648 58.9202 210.277 60.32C211.7 61.5561 213.521 62.4704 215.737 63.1035C216.528 63.3296 217.492 63.5532 218.669 63.7753C218.669 63.7754 218.67 63.7755 218.67 63.7756L220.138 64.0604L220.14 64.0607L221.584 64.3453C226.125 65.3016 229.146 66.8217 230.796 68.8379C231.925 70.2247 232.358 71.9353 232.051 74.0093C231.702 76.14 230.74 77.5623 229.179 78.4025C227.142 79.4729 224.963 79.9759 222.632 79.8925C220.396 79.7865 218.29 79.1966 216.307 78.0996C214.321 77.0009 212.748 75.5719 211.575 73.7918C210.343 71.9128 209.741 69.8747 209.741 67.6634C209.741 67.5518 209.714 67.4182 209.632 67.2913C209.55 67.1652 209.44 67.0875 209.342 67.0425C209.171 66.9633 208.999 66.9675 208.91 66.9734C208.711 66.9867 208.465 67.0501 208.211 67.1275C207.655 67.2966 207.068 67.5571 206.431 67.8983L209.462 50.7653ZM238.88 49.208L238.883 49.2113C239.118 49.5648 239.029 49.9419 238.914 50.1879C238.801 50.4316 238.608 50.678 238.389 50.92C238.389 50.9204 238.389 50.9208 238.388 50.9212L238.88 49.208ZM238.88 49.208C237.305 46.8788 235.811 45.1458 234.393 44.076M238.88 49.208L234.393 44.076M234.393 44.076C232.505 42.6315 230.315 41.8903 227.824 41.821L234.393 44.076ZM237.785 67.0877C237.282 65.1548 236.131 63.6075 234.393 62.4561L206.431 67.8983C205.609 68.3374 204.954 68.7663 204.497 69.1867C204.06 69.5876 203.695 70.0795 203.693 70.6488C203.671 72.968 204.2 75.0897 205.238 77.0262L205.24 77.0297C206.232 78.8526 207.616 80.3736 209.383 81.5901C211.103 82.7821 213.068 83.6028 215.227 84.0576C217.414 84.5356 219.644 84.5804 221.915 84.1947C223.869 83.8763 225.879 83.2194 227.92 82.2548L227.92 82.2548L227.928 82.2512C230.038 81.2184 231.912 79.9785 233.52 78.506C235.283 76.9011 236.574 75.1831 237.341 73.3473L237.341 73.3464C238.202 71.2769 238.372 69.1832 237.785 67.0877ZM208.528 67.6634C208.528 67.6642 208.528 67.665 208.528 67.6659C208.528 67.665 208.528 67.6642 208.528 67.6634Z" fill="#0C0F47" stroke="#0C0F47" stroke-width="1.2122"/>
<path d="M329.232 82.6229L329.172 82.925V82.9249L329.232 82.6229ZM329.232 82.6229L329.244 82.5636L329.232 82.6229ZM313.944 76.4936L313.943 76.4936L313.949 76.502L314.85 77.7986L314.855 77.805L314.859 77.8112C315.596 78.8164 316.313 79.6905 317.033 80.477L317.035 80.4802C318.538 82.0997 320.437 83.1024 322.705 83.5421L322.707 83.5424C324.735 83.9298 326.868 83.8424 329.056 83.2455H329.116L329.21 83.2144L329.407 83.1484C329.497 83.1184 329.595 83.0791 329.684 83.0237C329.77 82.9713 329.896 82.8755 329.978 82.7127L330.042 82.5847V82.4416C330.042 82.2138 329.923 82.0595 329.842 81.9838C329.766 81.912 329.688 81.8734 329.646 81.8548C329.559 81.8161 329.468 81.7948 329.401 81.7813L329.291 81.7593L329.232 81.7476H329.172H329.133L328.194 81.6621L328.194 81.6621L328.184 81.6613C327.602 81.6182 327.197 81.5561 326.913 81.4675L326.899 81.463L326.884 81.4593C326.375 81.3273 325.933 81.1051 325.524 80.7521L325.497 80.7291L325.468 80.7093C324.919 80.3369 324.214 79.6597 323.366 78.6821L323.366 78.6821L323.361 78.6764C321.822 76.9443 320.331 74.6816 318.873 71.9174L318.872 71.915C318.352 70.9398 317.742 69.6988 317.064 68.2127L317.064 68.2126L317.061 68.2058L314.204 62.1401L314.204 62.1401L314.201 62.1335L313.082 59.8304C312.479 58.5347 311.482 56.6529 310.099 54.1934C309.798 53.6394 309.473 53.0714 309.145 52.499C309.015 52.2711 308.884 52.0425 308.755 51.8138L308.747 51.8005L308.739 51.7876C308.646 51.6423 308.571 51.5115 308.491 51.374C308.448 51.2995 308.404 51.223 308.355 51.1411C308.313 51.0415 308.258 50.9565 308.225 50.9064L308.22 50.897L308.176 50.809L308.14 50.773C306.718 48.3495 304.708 46.4892 302.125 45.1975L302.123 45.1965C299.588 43.9405 296.889 43.3918 294.014 43.5744L294.013 43.5744C292.298 43.6858 290.792 43.887 289.5 44.1817L289.5 44.1817L289.493 44.1833C289.34 44.22 289.181 44.268 289.046 44.3379C288.979 44.3727 288.886 44.4291 288.804 44.5185C288.716 44.6129 288.617 44.772 288.617 44.9869C288.617 45.1972 288.712 45.3519 288.789 45.4414C288.865 45.5287 288.95 45.5878 289.014 45.6261C289.138 45.7008 289.288 45.7589 289.436 45.8069C289.637 45.8816 289.876 45.9522 290.147 46.02L290.161 46.0235L290.175 46.0263C290.252 46.0416 290.321 46.0497 290.364 46.0547C290.368 46.0551 290.371 46.0555 290.374 46.0559C290.398 46.0586 290.411 46.0603 290.421 46.0619C290.431 46.0634 290.434 46.0641 290.433 46.0639C290.556 46.0947 290.657 46.1018 290.716 46.1035C291.113 46.1486 291.568 46.1699 292.118 46.1699H293.519C294.572 46.1915 295.386 46.3392 295.969 46.5834C297.207 47.1147 298.579 48.3533 300.12 50.371L300.12 50.371L300.123 50.3753C300.803 51.2491 301.49 52.3294 302.203 53.5918L284.589 75.6683C284.459 75.8093 284.104 76.2319 283.756 76.6649C283.38 77.1338 282.936 77.7091 282.756 78.0338C282.645 78.2353 282.629 78.4624 282.698 78.6675C282.761 78.8557 282.882 78.99 282.994 79.0772C283.166 79.2118 283.399 79.3869 283.665 79.5836L284.025 79.0961L283.665 79.5836C283.857 79.7256 284.079 79.8901 284.317 80.0669C285.198 80.7202 286.307 81.5427 286.996 82.0265C287.559 82.4219 288.306 82.2462 288.665 81.6968L290.343 79.1242L290.35 79.1124L290.357 79.1003L292.612 75.2664L293.504 73.8947L293.505 73.8934L304.25 57.4733L304.347 57.6621C305.025 58.9972 305.879 60.7268 306.864 62.8512L306.865 62.8525L308.096 65.4897L308.096 65.4897L308.098 65.4952L309.351 68.1102C309.351 68.1103 309.351 68.1104 309.351 68.1105C311.049 71.6609 312.58 74.4592 313.944 76.4936ZM329.114 82.2674L329.119 82.2833L329.114 82.2674Z" fill="#0C0F47" stroke="#0C0F47" stroke-width="1.2122"/>
<path d="M2.20336 82.7217L2.26378 83.0239V83.0238L2.20336 82.7217ZM2.20336 82.7217L2.19151 82.6625L2.20336 82.7217ZM17.492 76.5924L17.4921 76.5925L17.4863 76.6008L16.5852 77.8975L16.5808 77.9038L16.5762 77.91C15.8391 78.9153 15.122 79.7894 14.403 80.5759L14.4 80.5791C12.8979 82.1986 10.9983 83.2013 8.73053 83.6409L8.72888 83.6413C6.70066 84.0287 4.56767 83.9413 2.37957 83.3443H2.31923L2.22591 83.3132L2.02816 83.2473C1.93815 83.2173 1.84104 83.1779 1.75105 83.1225C1.666 83.0702 1.53945 82.9744 1.458 82.8115L1.39399 82.6836V82.5405C1.39399 82.3127 1.5128 82.1584 1.59319 82.0827C1.66944 82.0109 1.74767 81.9723 1.78958 81.9537C1.8766 81.915 1.96772 81.8937 2.03503 81.8802L2.14491 81.8582L2.20376 81.8464H2.26378H2.30219L3.24184 81.761L3.24183 81.7609L3.25193 81.7602C3.8336 81.7171 4.23896 81.655 4.52248 81.5663L4.53672 81.5619L4.55116 81.5582C5.06021 81.4262 5.50275 81.204 5.91144 80.851L5.93811 80.828L5.96727 80.8082C6.51613 80.4358 7.22199 79.7586 8.06925 78.781L8.06921 78.781L8.07427 78.7753C9.61393 77.0431 11.1042 74.7805 12.5625 72.0163L12.5638 72.0139C13.0839 71.0387 13.6937 69.7977 14.3712 68.3115L14.3711 68.3115L14.3744 68.3047L17.2314 62.239L17.2314 62.239L17.2345 62.2324L18.3532 59.9293C18.9567 58.6335 19.9535 56.7518 21.337 54.2923C21.6378 53.7383 21.9627 53.1703 22.2901 52.5979C22.4205 52.37 22.5512 52.1414 22.681 51.9127L22.6886 51.8994L22.6968 51.8865C22.7892 51.7412 22.8648 51.6104 22.9442 51.4729C22.9873 51.3983 23.0315 51.3218 23.0802 51.24C23.123 51.1404 23.1773 51.0554 23.2107 51.0052L23.2154 50.9958L23.2594 50.9079L23.2954 50.8718C24.7171 48.4484 26.7271 46.5881 29.3104 45.2964L29.3124 45.2954C31.8472 44.0394 34.5466 43.4907 37.4218 43.6732L37.4227 43.6733C39.1375 43.7847 40.6434 43.9859 41.9356 44.2806L41.9356 44.2805L41.9423 44.2821C42.0952 44.3188 42.255 44.3668 42.3895 44.4368C42.4564 44.4716 42.5491 44.528 42.6319 44.6173C42.7193 44.7118 42.819 44.8709 42.819 45.0858C42.819 45.2961 42.7233 45.4508 42.6462 45.5403C42.5709 45.6276 42.4856 45.6867 42.4217 45.725C42.2972 45.7997 42.1476 45.8578 41.9997 45.9057C41.7981 45.9805 41.5593 46.0511 41.2885 46.1188L41.2745 46.1223L41.2604 46.1252C41.1837 46.1405 41.1144 46.1486 41.0716 46.1535C41.0679 46.154 41.0645 46.1544 41.0612 46.1548C41.038 46.1575 41.0248 46.1592 41.0142 46.1608C41.0046 46.1623 41.0018 46.163 41.0028 46.1628C40.8797 46.1935 40.7781 46.2007 40.7192 46.2024C40.3223 46.2474 39.8672 46.2688 39.3174 46.2688H37.917C36.8639 46.2903 36.0495 46.4381 35.4662 46.6823C34.2282 47.2136 32.8564 48.4521 31.3159 50.4699L31.316 50.4699L31.3126 50.4742C30.633 51.348 29.9452 52.4283 29.2324 53.6906L46.8463 75.7672C46.9766 75.9082 47.3318 76.3308 47.6793 76.7638C48.0556 77.2327 48.4996 77.808 48.6791 78.1327C48.7906 78.3342 48.8069 78.5613 48.738 78.7664C48.6748 78.9545 48.5532 79.0889 48.4417 79.176C48.2694 79.3107 48.0368 79.4857 47.7705 79.6825L47.4103 79.195L47.7705 79.6825C47.5784 79.8245 47.3566 79.9889 47.1181 80.1658C46.2373 80.8191 45.1283 81.6416 44.4398 82.1254C43.877 82.5208 43.1291 82.3451 42.7708 81.7957L41.0929 79.2231L41.0852 79.2113L41.0781 79.1992L38.8238 75.3653L37.9311 73.9935L37.9303 73.9923L27.1852 57.5722L27.089 57.761C26.4105 59.0961 25.5566 60.8257 24.5711 62.9501L24.5705 62.9513L23.3398 65.5886L23.3398 65.5886L23.3372 65.5941L22.0846 68.2091C22.0846 68.2092 22.0845 68.2093 22.0845 68.2094C20.3864 71.7598 18.8557 74.5581 17.492 76.5924ZM2.32186 82.3663L2.31654 82.3822L2.32186 82.3663Z" fill="#0C0F47" stroke="#0C0F47" stroke-width="1.2122"/>
<path d="M295.762 81.9817L295.762 81.9818L296.701 82.0672H296.74H296.8L296.859 82.079L296.968 82.101L296.969 82.101L296.852 82.6853L295.762 81.9817ZM295.762 81.9817L295.752 81.981C295.17 81.9379 294.765 81.8758 294.481 81.7872L294.467 81.7827L294.452 81.779C293.943 81.647 293.501 81.4248 293.092 81.0718L293.065 81.0488L293.036 81.029C292.487 80.6566 291.782 79.9794 290.934 79.0018L290.708 78.7405L290.368 78.8025L284.939 79.7914L283.852 79.9895L284.603 80.7999C286.106 82.4194 288.005 83.4221 290.273 83.8618L290.275 83.8621C292.303 84.2495 294.436 84.1621 296.624 83.5651M295.762 81.9817L296.624 83.5651M296.624 83.5651H296.684L296.778 83.534L296.975 83.4681C296.975 83.4681 296.975 83.4681 296.975 83.4681L296.624 83.5651Z" fill="#0C0F47" stroke="#0C0F47" stroke-width="1.2122"/>
<path d="M35.6739 82.081L35.6739 82.0811L34.7342 82.1666H34.6958H34.6358L34.5769 82.1783L34.4671 82.2003L34.467 82.2003L34.5839 82.7846L35.6739 82.081ZM35.6739 82.081L35.684 82.0803C36.2656 82.0372 36.671 81.9751 36.9545 81.8865L36.9687 81.882L36.9832 81.8783C37.4922 81.7463 37.9348 81.5241 38.3435 81.1711L38.3701 81.1481L38.3993 81.1283C38.9482 80.7559 39.654 80.0787 40.5013 79.1011L40.7277 78.8398L41.0679 78.9018L46.4963 79.8907L47.5837 80.0888L46.8321 80.8992C45.3299 82.5187 43.4303 83.5214 41.1626 83.9611L41.1609 83.9614C39.1327 84.3488 36.9997 84.2614 34.8116 83.6645M35.6739 82.081L34.8116 83.6645M34.8116 83.6645H34.7513L34.6579 83.6333L34.4602 83.5674C34.4602 83.5674 34.4602 83.5674 34.4602 83.5674L34.8116 83.6645Z" fill="#0C0F47" stroke="#0C0F47" stroke-width="1.2122"/>
<path d="M306.208 74.0956L306.208 74.0956C304.756 74.1836 303.216 73.8876 301.595 73.1836C300.759 72.8155 299.99 72.3698 299.266 71.835L298.993 71.6336L298.812 71.92L297.567 73.887L297.414 74.128L297.638 74.3039C298.209 74.7512 299.427 75.3923 300.435 75.7705C301.112 76.0242 302.195 76.1838 303.279 76.2435C304.365 76.3033 305.501 76.2651 306.291 76.0992C306.942 75.9628 307.917 75.51 308.843 75.0236C309.781 74.5309 310.709 73.9818 311.278 73.6255L311.558 73.4499L311.369 73.1782L310.9 72.5034L310.703 72.2189L310.438 72.4424C309.246 73.4485 307.847 73.9965 306.208 74.0956Z" fill="#0C0F47" stroke="#0C0F47" stroke-width="0.630837"/>
<path d="M25.228 74.1949L25.228 74.1949C26.68 74.2829 28.2199 73.9869 29.8404 73.2829C30.6768 72.9148 31.4454 72.4692 32.1698 71.9343L32.4424 71.733L32.6236 72.0193L33.869 73.9863L34.0216 74.2273L33.7972 74.4033C33.2268 74.8505 32.0086 75.4916 31.0002 75.8698C30.3235 76.1235 29.2404 76.2832 28.157 76.3428C27.0702 76.4026 25.9343 76.3644 25.1442 76.1985C24.494 76.0621 23.5183 75.6093 22.5922 75.1229C21.6541 74.6302 20.7268 74.0811 20.1579 73.7248L19.8775 73.5492L20.0663 73.2775L20.5352 72.6027L20.7329 72.3182L20.9977 72.5417C22.1898 73.5478 23.5881 74.0958 25.228 74.1949Z" fill="#0C0F47" stroke="#0C0F47" stroke-width="0.630837"/>
<path d="M60.4417 52.8561C60.4162 51.9936 60.358 51.2247 60.2721 50.5499C60.129 49.2925 59.6925 48.2207 58.879 47.4578C58.1533 46.7596 57.1333 46.307 55.8656 46.0304L55.8612 46.0295C55.18 45.886 54.4207 46.2217 53.6606 46.7359L53.652 46.7417L53.6437 46.7477C53.5304 46.8301 53.3875 46.9372 53.2356 47.051C53.0873 47.1621 52.9305 47.2795 52.7846 47.3865L52.7744 47.394L52.7644 47.402L52.7639 47.4024C52.6542 47.4902 52.5402 47.5813 52.4034 47.6953L52.4034 47.6953L52.397 47.7008L52.2463 47.83L52.2432 47.8326L52.1177 47.9371L52.0966 47.9547L52.0771 47.9742L52.0637 47.9876L52.0103 48.0277L51.9758 48.0535L51.9453 48.084C51.8733 48.156 51.8158 48.2119 51.7685 48.2475L51.7456 48.2646L51.7244 48.2839C51.4741 48.5114 51.2603 48.7241 51.0875 48.921C50.8292 49.2025 50.5926 49.5181 50.5155 49.8374C50.4725 50.0156 50.4626 50.2705 50.6192 50.5071C50.7706 50.7359 50.999 50.8279 51.1703 50.8635C52.2792 51.1107 53.0141 51.5243 53.4467 52.0434L53.4537 52.0518L53.461 52.0599C53.9092 52.5599 54.21 53.3285 54.2732 54.4415L54.2952 83.3685C54.2952 83.3686 54.2952 83.3688 54.2952 83.3689C54.2952 83.4804 54.322 83.6138 54.4041 83.7405C54.4858 83.8666 54.5955 83.9443 54.6933 83.9893C54.8651 84.0685 55.0363 84.0643 55.1256 84.0584C55.3252 84.0451 55.5706 83.9817 55.8249 83.9043L55.8363 83.9009L55.8476 83.897C56.3977 83.7056 56.9798 83.4245 57.605 83.0896L57.605 83.0897L57.6156 83.0838C58.4345 82.6238 59.0878 82.1837 59.544 81.7555C59.9828 81.3435 60.3423 80.8461 60.3423 80.2697V59.3254C60.3993 59.2278 60.4574 59.1096 60.4922 58.9778C61.4352 56.5242 62.6246 54.5402 64.0505 52.9885L64.0505 52.9885L64.054 52.9846C65.8147 51.0353 67.7409 50.0504 69.8188 49.9086C72.0148 49.777 74.4768 49.7512 76.4163 50.8418C77.4071 51.6134 78.4259 52.7327 79.286 53.9445C80.1572 55.172 80.8378 56.455 81.1645 57.5167L81.1645 57.5167L81.1659 57.5212C82.2195 60.8541 82.6287 64.2953 82.4136 67.827C82.1726 71.4408 81.6902 76.6611 80.9435 83.4914L80.8961 83.9249L81.292 84.1076C81.7865 84.3358 82.3656 84.2586 82.9092 84.0932L82.9206 84.0897L82.9319 84.0858C83.482 83.8944 84.0641 83.6133 84.6893 83.2784L84.6893 83.2785L84.6998 83.2726C85.5188 82.8126 86.1721 82.3725 86.6283 81.9443C87.0501 81.5483 87.3985 81.0735 87.425 80.5254C88.8363 73.2845 89.0092 65.6973 87.9712 57.811C87.8486 56.824 87.5793 55.4425 87.4592 54.8697L87.3067 54.042L87.2998 54.0045L87.2883 53.9683C86.6801 52.0537 85.8849 50.3869 84.8929 49.0257L84.8914 49.0238C83.4346 47.0415 80.9698 45.7735 78.3463 45.2043C75.7171 44.634 72.8384 44.7444 70.4729 45.6137C67.0455 46.8657 63.6932 49.3057 60.4417 52.8561Z" fill="#0C0F47" stroke="#0C0F47" stroke-width="1.2122"/>
<path d="M261.394 45.681C257.971 46.9312 254.623 49.3664 251.376 52.9089C251.388 40.7837 251.324 39.5212 251.193 38.4951C251.05 37.2378 250.613 36.166 249.8 35.4031C249.074 34.7049 248.054 34.2523 246.786 33.9757L246.782 33.9747C246.101 33.8313 245.342 34.167 244.581 34.6812L244.573 34.687L244.565 34.693C244.451 34.7754 244.308 34.8825 244.156 34.9963C244.008 35.1074 243.851 35.2248 243.706 35.3318L243.695 35.3393L243.685 35.3473L243.685 35.3477C243.575 35.4354 243.461 35.5266 243.324 35.6406L243.324 35.6406L243.318 35.6461L243.167 35.7753L243.164 35.7779L243.039 35.8824L243.017 35.9L242.998 35.9195L242.985 35.9329L242.931 35.973L242.897 35.9988L242.866 36.0293C242.794 36.1012 242.737 36.1572 242.689 36.1928L242.666 36.2099L242.645 36.2292C242.395 36.4567 242.181 36.6693 242.008 36.8662C241.75 37.1477 241.513 37.4633 241.436 37.7826C241.393 37.9609 241.383 38.2158 241.54 38.4524C241.692 38.6812 241.92 38.7732 242.091 38.8088C243.2 39.0559 243.935 39.4696 244.368 39.9886L244.375 39.9971L244.382 40.0052C244.83 40.5051 245.131 41.2737 245.194 42.3866L245.194 54.6163V54.6168L245.216 83.4357C245.216 83.4359 245.216 83.436 245.216 83.4362C245.216 83.5477 245.243 83.6811 245.325 83.8077C245.407 83.9338 245.516 84.0115 245.614 84.0566C245.786 84.1358 245.957 84.1316 246.047 84.1256C246.246 84.1123 246.492 84.049 246.746 83.9716L246.757 83.9681L246.768 83.9642C247.319 83.7729 247.901 83.4917 248.526 83.1568L248.526 83.1569L248.536 83.151C249.355 82.6911 250.009 82.251 250.465 81.8227C250.904 81.4107 251.263 80.9134 251.263 80.3369V59.3926C251.32 59.2951 251.378 59.1768 251.413 59.045C252.356 56.5915 253.546 54.6075 254.971 53.0557L254.971 53.0558L254.975 53.0519C256.736 51.1026 258.662 50.1177 260.74 49.9759C262.936 49.8442 265.398 49.8185 267.337 50.9091C268.328 51.6806 269.347 52.8 270.207 54.0118C271.078 55.2392 271.759 56.5223 272.085 57.584L272.085 57.584L272.087 57.5884C273.14 60.9213 273.55 64.3625 273.334 67.8942C273.094 71.508 272.611 76.7284 271.864 83.5587L271.817 83.9921L272.213 84.1748C272.707 84.4031 273.286 84.3259 273.83 84.1604L273.842 84.157L273.853 84.153C274.403 83.9617 274.985 83.6806 275.61 83.3456L275.61 83.3458L275.621 83.3398C276.44 82.8799 277.093 82.4398 277.549 82.0116C277.971 81.6156 278.319 81.1407 278.346 80.5927C279.757 73.3517 279.93 65.7646 278.892 57.8783C278.77 56.8912 278.5 55.5098 278.38 54.937L278.228 54.1092L278.221 54.0718L278.209 54.0355C277.601 52.1209 276.806 50.4542 275.814 49.093L275.812 49.091C274.355 47.1087 271.891 45.8408 269.267 45.2716C266.638 44.7012 263.759 44.8116 261.394 45.681Z" fill="#0C0F47" stroke="#0C0F47" stroke-width="1.2122"/>
<path d="M24.067 114.932L24.1091 115.437H16.1582L16.1372 114.9C16.4001 114.9 16.5894 114.9 16.7156 114.89C16.8418 114.879 16.9996 114.848 17.1994 114.795C17.3992 114.743 17.5465 114.669 17.6411 114.574C17.7358 114.48 17.8094 114.333 17.862 114.133C17.9146 113.933 17.9356 113.691 17.9251 113.407L17.3887 105.225L13.2766 115.479H11.657L7.46068 105.204L6.85069 113.407C6.81914 113.765 6.85069 114.059 6.94534 114.28C7.04 114.501 7.19775 114.648 7.41861 114.732C7.63946 114.816 7.83929 114.869 8.00756 114.89C8.17583 114.911 8.42824 114.922 8.75427 114.922V115.458H3.02251V114.922C3.2644 114.922 3.4537 114.922 3.57991 114.911C3.70611 114.9 3.86387 114.869 4.05317 114.816C4.24248 114.764 4.38972 114.69 4.48437 114.595C4.57902 114.501 4.67367 114.354 4.75781 114.154C4.84195 113.954 4.89453 113.712 4.90505 113.428L5.80951 101.628C5.72537 101.407 5.57814 101.249 5.3678 101.144C5.15746 101.039 4.96815 100.976 4.78936 100.965C4.61057 100.955 4.35816 100.944 4.03214 100.944V100.398H9.80596L13.6341 110.462L13.7288 110.241C13.6552 109.915 13.6867 109.579 13.8235 109.232L17.3151 100.398H23.152V100.944C22.8365 100.944 22.5946 100.955 22.4263 100.976C22.2581 100.997 22.0583 101.05 21.8269 101.123C21.5955 101.197 21.4378 101.344 21.3431 101.565C21.2484 101.786 21.2064 102.08 21.2169 102.438L22.0583 113.533C22.0898 113.859 22.1634 114.122 22.2791 114.333C22.3948 114.543 22.5631 114.69 22.7839 114.774C23.0048 114.858 23.1941 114.9 23.3518 114.911C23.5096 114.922 23.7515 114.932 24.067 114.932ZM37.3298 100.934H37.2877C37.0248 100.934 36.8355 100.934 36.7093 100.944C36.5831 100.955 36.4253 100.986 36.236 101.039C36.0467 101.092 35.8995 101.165 35.7943 101.27C35.6891 101.376 35.605 101.523 35.5314 101.723C35.4577 101.923 35.4157 102.164 35.4157 102.448V113.428C35.4157 113.712 35.4577 113.954 35.5314 114.154C35.605 114.354 35.6996 114.501 35.8048 114.595C35.91 114.69 36.0572 114.764 36.2465 114.816C36.4358 114.869 36.5936 114.9 36.7198 114.911C36.846 114.922 37.0458 114.922 37.3087 114.922V115.458H29.3789V114.922C29.6418 114.922 29.8417 114.922 29.9679 114.911C30.0941 114.9 30.2518 114.869 30.4411 114.816C30.6304 114.764 30.7777 114.69 30.8829 114.595C30.988 114.501 31.0827 114.354 31.1563 114.154C31.2299 113.954 31.272 113.712 31.272 113.428V102.448C31.272 102.164 31.2299 101.923 31.1563 101.723C31.0827 101.523 30.9985 101.376 30.8934 101.27C30.7882 101.165 30.641 101.092 30.4517 101.039C30.2623 100.986 30.1046 100.955 29.9784 100.944C29.8522 100.934 29.6629 100.934 29.4 100.934V100.387H37.3298V100.934ZM60.2682 114.932L60.2156 115.468C59.6792 115.605 58.943 115.679 58.007 115.679C56.9132 115.679 55.9562 115.531 55.1359 115.237C54.3155 114.943 53.6214 114.49 53.043 113.87C52.4645 113.249 51.9808 112.534 51.5916 111.724C51.2025 110.915 50.8449 109.915 50.5189 108.738C50.1508 108.78 49.8248 108.801 49.5513 108.801V108.222C50.6872 107.917 51.497 107.507 51.9808 106.992C52.4645 106.476 52.7064 105.74 52.7064 104.783C52.7064 102.659 51.8125 101.596 50.0141 101.596C49.4251 101.596 48.9308 101.639 48.5312 101.723V101.796C48.731 101.996 48.8362 102.301 48.8362 102.701V113.418C48.8362 113.775 48.8783 114.07 48.9729 114.29C49.0676 114.511 49.2148 114.659 49.4146 114.743C49.6144 114.827 49.7827 114.879 49.9194 114.9C50.0562 114.922 50.256 114.932 50.5189 114.932V115.468H42.81V114.932C43.0729 114.932 43.2727 114.932 43.3989 114.922C43.5251 114.911 43.6829 114.879 43.8722 114.827C44.0615 114.774 44.2087 114.701 44.3139 114.606C44.4191 114.511 44.5137 114.364 44.5873 114.164C44.6609 113.964 44.703 113.723 44.703 113.439V102.459C44.703 102.175 44.6609 101.933 44.5873 101.733C44.5137 101.533 44.4296 101.386 44.3244 101.281C44.2192 101.176 44.072 101.102 43.8827 101.05C43.6934 100.997 43.5356 100.965 43.4094 100.955C43.2832 100.944 43.0939 100.944 42.831 100.944V100.398H44.703C45.1027 100.398 46.0913 100.377 47.6688 100.334C49.2463 100.292 50.3086 100.271 50.8554 100.271C54.8835 100.271 56.9027 101.512 56.9027 103.994C56.9027 104.93 56.5872 105.761 55.9667 106.497C55.3462 107.234 54.4943 107.791 53.4111 108.17L53.4531 108.275C53.8423 108.264 54.1052 108.285 54.2419 108.348C54.3786 108.411 54.4838 108.527 54.5574 108.706C55.6196 110.715 56.461 112.113 57.0815 112.902C58.1332 114.269 59.1323 114.953 60.0788 114.953C60.1525 114.953 60.2156 114.943 60.2682 114.932ZM78.0427 113.533L78.0743 113.523C78.3477 114.164 78.6106 114.553 78.8735 114.701C79.1365 114.848 79.5361 114.922 80.0725 114.922V115.458H72.7632V114.922C72.9209 114.922 73.0471 114.922 73.1313 114.911C73.2154 114.9 73.3101 114.879 73.4152 114.848C73.5204 114.816 73.594 114.764 73.6256 114.69C73.6571 114.617 73.6676 114.511 73.6571 114.364C73.6466 114.217 73.6045 114.038 73.5309 113.817L73.0997 112.702C72.963 112.303 72.8999 111.966 72.9104 111.693L72.8894 111.619H68.2304L68.2093 111.693C68.2514 111.819 68.1673 112.134 67.9569 112.639L67.5047 113.817C67.4731 114.007 67.4416 114.164 67.41 114.29C67.3785 114.417 67.4205 114.522 67.5257 114.606C67.6309 114.69 67.715 114.753 67.7781 114.795C67.8412 114.837 67.9569 114.869 68.1252 114.89C68.2935 114.911 68.4197 114.922 68.5038 114.922H68.8719V115.458H63.2453V114.922C63.5187 114.922 63.7291 114.911 63.8763 114.89C64.0236 114.869 64.2024 114.816 64.4127 114.732C64.623 114.648 64.8123 114.501 64.9701 114.29C65.1278 114.08 65.2751 113.786 65.4013 113.418L70.765 100.345H72.6159L78.0427 113.533ZM68.8614 109.968H72.4161L72.3951 109.905C72.2373 109.726 72.0691 109.432 71.8903 109.021L70.6913 105.635L69.3557 109.021C69.1664 109.463 69.0086 109.758 68.8824 109.905L68.8614 109.968ZM93.5982 107.37L100.434 107.391V107.928C100.129 107.928 99.9084 107.938 99.7716 107.949C99.6349 107.959 99.4877 108.012 99.3194 108.106C99.1511 108.201 99.0354 108.359 98.9723 108.569C98.9092 108.78 98.8777 109.064 98.8777 109.432V114.49C98.6884 114.606 98.3624 114.753 97.8891 114.932C97.4158 115.111 96.7112 115.3 95.7647 115.5C94.8181 115.7 93.8821 115.805 92.9671 115.805C90.3379 115.805 88.2555 115.079 86.7201 113.628C85.1846 112.177 84.4168 110.378 84.4168 108.222C84.4168 106.014 85.2161 104.1 86.8042 102.49C88.3923 100.881 90.4641 100.072 93.0092 100.072C93.8821 100.072 94.7761 100.187 95.691 100.419C96.606 100.65 97.1003 100.766 97.1845 100.766C97.5 100.766 97.6893 100.608 97.7629 100.292H98.2782V104.993H97.9627C97.5631 102.774 96.1748 101.66 93.8085 101.649C92.1363 101.649 90.9163 102.175 90.1381 103.227C89.3598 104.278 88.9707 105.73 88.9707 107.581C88.9707 109.705 89.4334 111.272 90.3589 112.282C91.2844 113.291 92.4623 113.796 93.8821 113.796C94.3764 113.796 94.8497 113.744 95.3019 113.628V113.565C95.1021 113.365 94.9969 113.06 94.9969 112.66V109.432C94.9969 109.074 94.9549 108.78 94.8812 108.559C94.8076 108.338 94.6919 108.18 94.5237 108.096C94.3554 108.012 94.2187 107.959 94.103 107.938C93.9873 107.917 93.819 107.907 93.5982 107.907V107.37ZM117.094 111.567L117.578 111.703L117.031 115.51H105.662V114.974C105.925 114.974 106.125 114.974 106.251 114.964C106.377 114.953 106.535 114.922 106.724 114.869C106.914 114.816 107.061 114.743 107.166 114.648C107.271 114.553 107.366 114.406 107.439 114.206C107.513 114.007 107.555 113.765 107.555 113.481V102.501C107.555 102.217 107.513 101.975 107.439 101.775C107.366 101.575 107.282 101.428 107.176 101.323C107.071 101.218 106.924 101.144 106.735 101.092C106.545 101.039 106.388 101.008 106.261 100.997C106.135 100.986 105.946 100.986 105.683 100.986V100.44H115.317C115.863 100.44 116.2 100.345 116.326 100.166H116.558L116.284 103.679L115.832 103.605C115.832 103.069 115.737 102.711 115.537 102.522C115.338 102.333 114.885 102.238 114.17 102.238H111.415V102.312C111.615 102.511 111.72 102.816 111.72 103.216V105.383C111.72 105.782 111.615 106.087 111.415 106.287V106.361H113.718C114.402 106.361 114.843 106.256 115.033 106.056C115.222 105.856 115.317 105.54 115.317 105.109H115.79V109.221H115.317C115.317 109 115.306 108.832 115.275 108.706C115.243 108.58 115.18 108.454 115.085 108.327C114.991 108.201 114.833 108.106 114.601 108.043C114.37 107.98 114.076 107.949 113.718 107.949H111.415V108.012C111.615 108.212 111.72 108.548 111.72 109.021V112.503C111.72 112.902 111.615 113.207 111.415 113.407V113.481H115.075C115.737 113.481 116.2 113.323 116.463 113.018C116.726 112.713 116.936 112.229 117.094 111.567ZM140.99 100.072L140.969 100.093C142.305 100.093 143.504 100.292 144.566 100.703C145.628 101.113 146.491 101.67 147.153 102.375C147.816 103.079 148.321 103.879 148.668 104.773C149.015 105.667 149.183 106.603 149.183 107.591C149.183 108.59 149.025 109.568 148.699 110.515C148.373 111.461 147.889 112.334 147.248 113.134C146.606 113.933 145.733 114.574 144.629 115.069C143.525 115.563 142.263 115.805 140.843 115.805C138.245 115.805 136.226 115.058 134.796 113.554C133.365 112.05 132.65 110.231 132.65 108.096C132.65 107.107 132.808 106.15 133.134 105.225C133.46 104.299 133.944 103.447 134.585 102.669C135.227 101.891 136.1 101.26 137.204 100.787C138.308 100.313 139.57 100.072 140.99 100.072ZM140.601 101.575L140.559 101.596C139.497 101.596 138.666 102.112 138.077 103.142C137.488 104.173 137.194 105.603 137.194 107.444C137.194 109.484 137.551 111.146 138.266 112.429C138.981 113.712 139.949 114.354 141.169 114.354C142.252 114.354 143.083 113.828 143.672 112.776C144.261 111.724 144.556 110.284 144.556 108.464C144.556 106.382 144.198 104.71 143.483 103.458C142.768 102.206 141.811 101.575 140.601 101.575ZM165.611 100.114L165.285 103.637L164.833 103.563C164.833 103.027 164.738 102.669 164.549 102.48C164.36 102.291 163.908 102.196 163.192 102.196H160.174V102.27C160.374 102.469 160.479 102.774 160.479 103.174V105.561C160.479 105.961 160.374 106.266 160.174 106.466V106.529H162.372C163.056 106.529 163.497 106.424 163.687 106.224C163.876 106.024 163.971 105.709 163.971 105.277H164.444V109.39H163.971C163.971 109.169 163.96 109 163.929 108.885C163.897 108.769 163.834 108.643 163.739 108.517C163.645 108.39 163.487 108.296 163.256 108.243C163.024 108.191 162.73 108.159 162.372 108.159H160.174V108.222C160.374 108.422 160.479 108.759 160.479 109.232V113.428C160.479 113.712 160.521 113.954 160.595 114.154C160.668 114.354 160.763 114.501 160.868 114.595C160.973 114.69 161.131 114.764 161.352 114.816C161.573 114.869 161.762 114.9 161.909 114.911C162.057 114.922 162.288 114.922 162.593 114.922V115.458H154.453V114.922C154.716 114.922 154.916 114.922 155.042 114.911C155.168 114.9 155.326 114.869 155.515 114.816C155.704 114.764 155.852 114.69 155.957 114.595C156.062 114.501 156.157 114.354 156.23 114.154C156.304 113.954 156.346 113.712 156.346 113.428V102.448C156.346 102.164 156.304 101.923 156.23 101.723C156.157 101.523 156.072 101.376 155.967 101.27C155.862 101.165 155.715 101.092 155.526 101.039C155.336 100.986 155.179 100.955 155.052 100.944C154.926 100.934 154.737 100.934 154.474 100.934V100.387H164.36C164.907 100.387 165.243 100.292 165.369 100.114H165.611ZM193.946 113.533L193.977 113.523C194.251 114.164 194.514 114.553 194.777 114.701C195.04 114.848 195.439 114.922 195.976 114.922V115.458H188.666V114.922C188.824 114.922 188.95 114.922 189.034 114.911C189.119 114.9 189.213 114.879 189.318 114.848C189.424 114.816 189.497 114.764 189.529 114.69C189.56 114.617 189.571 114.511 189.56 114.364C189.55 114.217 189.508 114.038 189.434 113.817L189.003 112.702C188.866 112.303 188.803 111.966 188.814 111.693L188.792 111.619H184.133L184.112 111.693C184.154 111.819 184.07 112.134 183.86 112.639L183.408 113.817C183.376 114.007 183.345 114.164 183.313 114.29C183.282 114.417 183.324 114.522 183.429 114.606C183.534 114.69 183.618 114.753 183.681 114.795C183.744 114.837 183.86 114.869 184.028 114.89C184.197 114.911 184.323 114.922 184.407 114.922H184.775V115.458H179.148V114.922C179.422 114.922 179.632 114.911 179.779 114.89C179.927 114.869 180.105 114.816 180.316 114.732C180.526 114.648 180.715 114.501 180.873 114.29C181.031 114.08 181.178 113.786 181.304 113.418L186.668 100.345H188.519L193.946 113.533ZM184.764 109.968H188.319L188.298 109.905C188.14 109.726 187.972 109.432 187.793 109.021L186.594 105.635L185.259 109.021C185.069 109.463 184.912 109.758 184.786 109.905L184.764 109.968ZM212.046 111.567L212.53 111.703L211.983 115.51H200.614V114.974C200.877 114.974 201.077 114.974 201.203 114.964C201.33 114.953 201.487 114.922 201.677 114.869C201.866 114.816 202.013 114.743 202.118 114.648C202.224 114.553 202.318 114.406 202.392 114.206C202.465 114.007 202.507 113.765 202.507 113.481V102.501C202.507 102.217 202.465 101.975 202.392 101.775C202.318 101.575 202.234 101.428 202.129 101.323C202.024 101.218 201.876 101.144 201.687 101.092C201.498 101.039 201.34 101.008 201.214 100.997C201.088 100.986 200.898 100.986 200.635 100.986V100.44H210.269C210.816 100.44 211.152 100.345 211.279 100.166H211.51L211.237 103.679L210.784 103.605C210.784 103.069 210.69 102.711 210.49 102.522C210.29 102.333 209.838 102.238 209.123 102.238H206.367V102.312C206.567 102.511 206.672 102.816 206.672 103.216V105.383C206.672 105.782 206.567 106.087 206.367 106.287V106.361H208.67C209.354 106.361 209.796 106.256 209.985 106.056C210.174 105.856 210.269 105.54 210.269 105.109H210.742V109.221H210.269C210.269 109 210.258 108.832 210.227 108.706C210.195 108.58 210.132 108.454 210.038 108.327C209.943 108.201 209.785 108.106 209.554 108.043C209.322 107.98 209.028 107.949 208.67 107.949H206.367V108.012C206.567 108.212 206.672 108.548 206.672 109.021V112.503C206.672 112.902 206.567 113.207 206.367 113.407V113.481H210.027C210.69 113.481 211.152 113.323 211.415 113.018C211.678 112.713 211.889 112.229 212.046 111.567ZM228.874 100.093L228.633 104.278H228.275C228.096 103.363 227.707 102.69 227.097 102.259C226.487 101.828 225.782 101.607 224.994 101.607C224.278 101.607 223.753 101.775 223.427 102.112C223.101 102.448 222.932 102.827 222.932 103.248C222.932 103.689 223.174 104.1 223.647 104.478C224.121 104.857 224.699 105.214 225.383 105.54C226.066 105.866 226.75 106.224 227.434 106.624C228.117 107.023 228.696 107.56 229.169 108.233C229.642 108.906 229.884 109.684 229.884 110.578C229.884 112.04 229.327 113.27 228.212 114.28C227.097 115.29 225.614 115.794 223.753 115.794C223.027 115.794 222.385 115.721 221.828 115.574C221.271 115.426 220.818 115.279 220.482 115.132C220.145 114.985 219.893 114.911 219.714 114.911C219.367 114.911 219.167 115.111 219.115 115.51H218.683L219.052 110.473H219.42C219.577 111.567 220.009 112.429 220.713 113.071C221.418 113.712 222.343 114.028 223.49 114.028C224.205 114.028 224.783 113.828 225.214 113.439C225.646 113.049 225.867 112.576 225.867 112.019C225.867 111.503 225.635 111.041 225.172 110.631C224.71 110.22 224.152 109.852 223.49 109.526C222.827 109.2 222.165 108.843 221.491 108.464C220.818 108.085 220.25 107.57 219.788 106.929C219.325 106.287 219.094 105.54 219.094 104.688C219.094 103.416 219.567 102.333 220.513 101.439C221.46 100.545 222.785 100.093 224.499 100.093C225.172 100.093 225.898 100.177 226.676 100.345C227.455 100.513 227.896 100.597 228.001 100.597C228.159 100.597 228.264 100.555 228.317 100.471C228.37 100.387 228.412 100.261 228.443 100.093H228.874ZM249.531 100.114H249.762L249.489 104.268L249.078 104.226C249.11 103.553 249.015 103.079 248.805 102.806C248.595 102.532 248.142 102.396 247.459 102.396H244.314V102.459C244.514 102.659 244.619 102.964 244.619 103.363V113.418C244.619 113.702 244.661 113.943 244.735 114.143C244.808 114.343 244.903 114.49 245.008 114.585C245.113 114.68 245.261 114.753 245.45 114.806C245.639 114.858 245.797 114.89 245.923 114.9C246.049 114.911 246.249 114.911 246.512 114.911V115.447H238.582V114.911C238.845 114.911 239.045 114.911 239.171 114.9C239.298 114.89 239.455 114.858 239.645 114.806C239.834 114.753 239.981 114.68 240.086 114.585C240.192 114.49 240.286 114.343 240.37 114.143C240.454 113.943 240.497 113.702 240.497 113.418V103.363C240.497 102.964 240.591 102.659 240.791 102.459V102.396H237.909C237.236 102.396 236.774 102.532 236.511 102.816C236.248 103.1 236.027 103.584 235.848 104.268L235.438 104.184L235.764 100.072H236.006C236.185 100.292 236.542 100.398 237.078 100.387H248.51C249.068 100.398 249.404 100.303 249.531 100.114ZM273.153 100.934L273.079 100.944C272.816 100.944 272.627 100.944 272.501 100.955C272.374 100.965 272.217 100.997 272.027 101.05C271.838 101.102 271.691 101.176 271.586 101.281C271.48 101.386 271.386 101.533 271.302 101.733C271.217 101.933 271.175 102.175 271.175 102.459V113.439C271.175 113.723 271.217 113.964 271.302 114.164C271.386 114.364 271.48 114.511 271.586 114.606C271.691 114.701 271.838 114.774 272.027 114.827C272.217 114.879 272.374 114.911 272.501 114.922C272.627 114.932 272.827 114.932 273.089 114.932V115.468H265.328V114.932C265.612 114.932 265.833 114.922 265.98 114.9C266.127 114.879 266.306 114.827 266.506 114.743C266.706 114.659 266.853 114.511 266.937 114.29C267.021 114.07 267.063 113.775 267.063 113.407V108.979C267.063 108.506 267.168 108.17 267.368 107.97V107.907H261.079V107.97C261.279 108.17 261.384 108.506 261.384 108.979V113.407C261.384 113.765 261.426 114.059 261.51 114.28C261.594 114.501 261.742 114.648 261.941 114.732C262.141 114.816 262.31 114.869 262.457 114.89C262.604 114.911 262.825 114.922 263.109 114.922V115.458H255.358V114.922C255.621 114.922 255.821 114.922 255.947 114.911C256.073 114.9 256.231 114.869 256.42 114.816C256.609 114.764 256.757 114.69 256.862 114.595C256.967 114.501 257.062 114.354 257.135 114.154C257.209 113.954 257.251 113.712 257.251 113.428V102.448C257.251 102.164 257.209 101.923 257.135 101.723C257.062 101.523 256.977 101.376 256.872 101.27C256.767 101.165 256.62 101.092 256.431 101.039C256.241 100.986 256.084 100.955 255.957 100.944C255.831 100.934 255.642 100.934 255.379 100.934V100.387H263.13V100.934C262.846 100.934 262.636 100.944 262.488 100.965C262.341 100.986 262.173 101.039 261.973 101.113C261.773 101.186 261.636 101.334 261.552 101.554C261.468 101.775 261.426 102.07 261.426 102.427V105.141C261.426 105.54 261.321 105.845 261.121 106.045V106.108H267.41V106.045C267.21 105.845 267.105 105.54 267.105 105.141V102.427C267.105 102.07 267.063 101.775 266.979 101.554C266.895 101.334 266.748 101.186 266.548 101.113C266.348 101.039 266.18 100.986 266.033 100.965C265.885 100.944 265.675 100.934 265.391 100.934V100.387H273.153V100.934ZM290.086 111.567L290.57 111.703L290.023 115.51H278.654V114.974C278.917 114.974 279.117 114.974 279.243 114.964C279.369 114.953 279.527 114.922 279.716 114.869C279.905 114.816 280.053 114.743 280.158 114.648C280.263 114.553 280.358 114.406 280.431 114.206C280.505 114.007 280.547 113.765 280.547 113.481V102.501C280.547 102.217 280.505 101.975 280.431 101.775C280.358 101.575 280.273 101.428 280.168 101.323C280.063 101.218 279.916 101.144 279.727 101.092C279.537 101.039 279.379 101.008 279.253 100.997C279.127 100.986 278.938 100.986 278.675 100.986V100.44H288.308C288.855 100.44 289.192 100.345 289.318 100.166H289.549L289.276 103.679L288.824 103.605C288.824 103.069 288.729 102.711 288.529 102.522C288.329 102.333 287.877 102.238 287.162 102.238H284.407V102.312C284.606 102.511 284.712 102.816 284.712 103.216V105.383C284.712 105.782 284.606 106.087 284.407 106.287V106.361H286.71C287.393 106.361 287.835 106.256 288.024 106.056C288.214 105.856 288.308 105.54 288.308 105.109H288.782V109.221H288.308C288.308 109 288.298 108.832 288.266 108.706C288.235 108.58 288.172 108.454 288.077 108.327C287.982 108.201 287.825 108.106 287.593 108.043C287.362 107.98 287.067 107.949 286.71 107.949H284.407V108.012C284.606 108.212 284.712 108.548 284.712 109.021V112.503C284.712 112.902 284.606 113.207 284.407 113.407V113.481H288.067C288.729 113.481 289.192 113.323 289.455 113.018C289.718 112.713 289.928 112.229 290.086 111.567ZM309.69 100.114H309.922L309.648 104.268L309.238 104.226C309.27 103.553 309.175 103.079 308.965 102.806C308.754 102.532 308.302 102.396 307.618 102.396H304.474V102.459C304.674 102.659 304.779 102.964 304.779 103.363V113.418C304.779 113.702 304.821 113.943 304.895 114.143C304.968 114.343 305.063 114.49 305.168 114.585C305.273 114.68 305.42 114.753 305.61 114.806C305.799 114.858 305.957 114.89 306.083 114.9C306.209 114.911 306.409 114.911 306.672 114.911V115.447H298.742V114.911C299.005 114.911 299.205 114.911 299.331 114.9C299.457 114.89 299.615 114.858 299.804 114.806C299.994 114.753 300.141 114.68 300.246 114.585C300.351 114.49 300.446 114.343 300.53 114.143C300.614 113.943 300.656 113.702 300.656 113.418V103.363C300.656 102.964 300.751 102.659 300.951 102.459V102.396H298.069C297.396 102.396 296.933 102.532 296.67 102.816C296.407 103.1 296.186 103.584 296.008 104.268L295.598 104.184L295.924 100.072H296.165C296.344 100.292 296.702 100.398 297.238 100.387H308.67C309.228 100.398 309.564 100.303 309.69 100.114ZM326.981 111.567L327.465 111.703L326.918 115.51H315.549V114.974C315.812 114.974 316.012 114.974 316.138 114.964C316.264 114.953 316.422 114.922 316.611 114.869C316.801 114.816 316.948 114.743 317.053 114.648C317.158 114.553 317.253 114.406 317.326 114.206C317.4 114.007 317.442 113.765 317.442 113.481V102.501C317.442 102.217 317.4 101.975 317.326 101.775C317.253 101.575 317.169 101.428 317.064 101.323C316.958 101.218 316.811 101.144 316.622 101.092C316.433 101.039 316.275 101.008 316.149 100.997C316.022 100.986 315.833 100.986 315.57 100.986V100.44H325.204C325.751 100.44 326.087 100.345 326.213 100.166H326.445L326.171 103.679L325.719 103.605C325.719 103.069 325.624 102.711 325.425 102.522C325.225 102.333 324.773 102.238 324.057 102.238H321.302V102.312C321.502 102.511 321.607 102.816 321.607 103.216V105.383C321.607 105.782 321.502 106.087 321.302 106.287V106.361H323.605C324.289 106.361 324.73 106.256 324.92 106.056C325.109 105.856 325.204 105.54 325.204 105.109H325.677V109.221H325.204C325.204 109 325.193 108.832 325.162 108.706C325.13 108.58 325.067 108.454 324.972 108.327C324.878 108.201 324.72 108.106 324.489 108.043C324.257 107.98 323.963 107.949 323.605 107.949H321.302V108.012C321.502 108.212 321.607 108.548 321.607 109.021V112.503C321.607 112.902 321.502 113.207 321.302 113.407V113.481H324.962C325.624 113.481 326.087 113.323 326.35 113.018C326.613 112.713 326.823 112.229 326.981 111.567Z" fill="#0C0F47"/>
<path fill-rule="evenodd" clip-rule="evenodd" d="M172.764 90.6559C172.764 90.6559 172.763 90.6559 172.763 90.6559C168.903 90.6559 165.77 87.5368 165.749 83.681V90.6562H172.764V90.6559Z" fill="#0C0F47"/>
<path fill-rule="evenodd" clip-rule="evenodd" d="M172.764 90.6559C172.764 90.6559 172.763 90.6559 172.763 90.6559C168.903 90.6559 165.77 93.775 165.749 97.6308V90.6559H172.764Z" fill="#0C0F47"/>
<path fill-rule="evenodd" clip-rule="evenodd" d="M158.734 90.6559C162.608 90.6558 165.749 87.5155 165.749 83.6415H165.749V90.6561H158.734V90.6559Z" fill="#0C0F47"/>
<path fill-rule="evenodd" clip-rule="evenodd" d="M158.765 90.6561C162.625 90.6725 165.749 93.8067 165.749 97.6706C165.749 97.6706 165.749 97.6706 165.749 97.6707H165.749V90.6561H158.765Z" fill="#0C0F47"/>
<rect x="3.21289" y="89.6542" width="142.696" height="2.00416" fill="#0C0F47"/>
<rect x="185.991" y="89.6542" width="142.696" height="2.00416" fill="#0C0F47"/>
<rect x="3.21289" y="125.328" width="325.475" height="2.00416" fill="#0C0F47"/>
<path d="M103.486 62.6988C103.275 63.0414 103.089 63.4418 102.931 63.9095C102.94 62.7199 103.066 61.8438 103.275 61.2109C103.439 60.7149 103.649 60.3824 103.881 60.1635C104.11 59.9473 104.375 59.8279 104.676 59.7802C105.298 59.6815 106.068 59.8882 106.928 60.2258C107.308 60.3747 107.693 60.5437 108.08 60.7137C108.126 60.7338 108.171 60.7539 108.217 60.7739C108.222 60.7759 108.226 60.7779 108.23 60.7798C108.194 60.7801 108.158 60.7803 108.122 60.7806C107.929 60.7819 107.733 60.7832 107.531 60.7877C106.816 60.8034 106.062 60.8592 105.359 61.1229C104.646 61.3905 103.998 61.8672 103.486 62.6988Z" fill="#0C0F47" stroke="#0C0F47" stroke-width="0.606099"/>
<path d="M115.181 58.0946C114.795 58.2052 114.387 58.3751 113.955 58.6133C114.764 57.7418 115.449 57.1802 116.03 56.854C116.485 56.5985 116.865 56.4949 117.184 56.49C117.499 56.4851 117.775 56.5759 118.029 56.7437C118.555 57.0905 118.983 57.7627 119.391 58.5927C119.57 58.9587 119.74 59.3431 119.911 59.7298C119.931 59.7755 119.951 59.8212 119.972 59.8669C119.974 59.8714 119.976 59.8758 119.978 59.8803C119.951 59.8562 119.924 59.8319 119.897 59.8076C119.754 59.6787 119.608 59.5468 119.456 59.414C118.918 58.9428 118.324 58.4753 117.627 58.1956C116.92 57.9119 116.12 57.8261 115.181 58.0946Z" fill="#0C0F47" stroke="#0C0F47" stroke-width="0.606099"/>
<path d="M137.774 58.5338C136.926 58.2536 136.006 57.6811 134.833 56.6422C135.155 58.0283 135.516 58.9304 135.893 59.4874C136.117 59.8199 136.339 60.017 136.548 60.1262C136.754 60.2337 136.966 60.2655 137.191 60.2388C137.661 60.1831 138.185 59.8738 138.762 59.4364C139.015 59.2441 139.268 59.0357 139.524 58.825C139.554 58.8002 139.584 58.7753 139.614 58.7505C139.615 58.7499 139.616 58.7492 139.617 58.7485C139.013 58.7862 138.421 58.7472 137.774 58.5338Z" fill="#0C0F47" stroke="#0C0F47" stroke-width="0.606099"/>
<path d="M144.537 60.7246C145.334 61.1352 146.391 61.3912 147.959 61.5002C146.74 62.245 145.84 62.6205 145.176 62.7428C144.781 62.8157 144.484 62.7957 144.258 62.7226C144.037 62.6507 143.865 62.5215 143.726 62.3415C143.435 61.9655 143.288 61.3731 143.196 60.6533C143.156 60.3369 143.127 60.0093 143.098 59.6783C143.095 59.6393 143.091 59.6003 143.088 59.5613C143.088 59.5593 143.087 59.5574 143.087 59.5555C143.485 60.015 143.929 60.4116 144.537 60.7246Z" fill="#0C0F47" stroke="#0C0F47" stroke-width="0.606099"/>
<path d="M112.842 71.9663C111.011 71.4621 108.617 70.2364 105.525 67.9997C107.114 68.2472 109.156 68.3182 111.208 67.9152C113.712 67.4235 116.253 66.2205 117.984 63.7502C118.245 65.0673 118.389 66.4846 118.309 67.7793C118.215 69.3188 117.81 70.6283 116.978 71.4172C116.166 72.187 114.875 72.5265 112.842 71.9663Z" fill="#0C0F47" stroke="#0C0F47" stroke-width="0.606099"/>
<path d="M141.525 64.3104C142.243 65.3257 142.777 66.955 142.946 69.3843C141.999 68.3375 140.861 67.4344 139.365 66.9837C137.692 66.4799 135.614 66.5543 132.918 67.551C133.513 66.4219 134.323 65.3936 135.228 64.5911C136.317 63.6261 137.519 63.008 138.627 62.9054C139.714 62.8047 140.736 63.1954 141.525 64.3104Z" fill="#0C0F47" stroke="#0C0F47" stroke-width="0.606099"/>
<path d="M235.965 13.9059C236.751 14.1177 238.676 14.4492 240.083 14.0808C241.49 13.7124 241.335 7.69653 241.082 4.73464C239.156 3.35938 234.161 1.03313 229.593 2.73021C229.083 3.17702 226.116 7.39964 225.048 10.4987C224.713 12.0901 227.477 12.9954 228.901 13.2492L228.101 16.0191L235.366 17.8272L235.965 13.9059Z" fill="#0C0F47"/>
<path d="M227.772 17.8272L235.045 19.698L234.406 23.0317L226.684 20.9103L227.772 17.8272Z" fill="#0C0F47"/>
<path d="M226.172 22.5674L226.029 23.0317L225.348 24.8499L233.857 27.2025L234.127 25.153L234.188 24.6904L226.172 22.5674Z" fill="#0C0F47"/>
<path d="M224.135 28.7896L233.227 30.9109L233.569 28.7896L224.742 26.5964L224.135 28.7896Z" fill="#0C0F47"/>
<path d="M222.849 32.7293L232.772 34.8506L233.051 32.7293L223.529 30.5238L222.849 32.7293Z" fill="#0C0F47"/>
<path d="M221.913 35.7598L232.427 37.8811L232.573 36.3659L222.317 34.4513L221.913 35.7598Z" fill="#0C0F47"/>
<path d="M220.151 41.4713C222.95 40.0203 227.469 39.0933 232.015 40.6086L232.174 39.3964L221.446 37.275L220.151 41.4713Z" fill="#0C0F47"/>
<path d="M235.965 13.9059C236.751 14.1177 238.676 14.4492 240.083 14.0808C241.49 13.7124 241.335 7.69653 241.082 4.73464C239.156 3.35938 234.161 1.03313 229.593 2.73021C229.083 3.17702 226.116 7.39964 225.048 10.4987C224.713 12.0901 227.477 12.9954 228.901 13.2492L228.101 16.0191L235.366 17.8272L235.965 13.9059Z" stroke="#0C0F47" stroke-width="1.2122"/>
<path d="M227.772 17.8272L235.045 19.698L234.406 23.0317L226.684 20.9103L227.772 17.8272Z" stroke="#0C0F47" stroke-width="1.2122"/>
<path d="M226.172 22.5674L226.029 23.0317L225.348 24.8499L233.857 27.2025L234.127 25.153L234.188 24.6904L226.172 22.5674Z" stroke="#0C0F47" stroke-width="1.2122"/>
<path d="M224.135 28.7896L233.227 30.9109L233.569 28.7896L224.742 26.5964L224.135 28.7896Z" stroke="#0C0F47" stroke-width="1.2122"/>
<path d="M222.849 32.7293L232.772 34.8506L233.051 32.7293L223.529 30.5238L222.849 32.7293Z" stroke="#0C0F47" stroke-width="1.2122"/>
<path d="M221.913 35.7598L232.427 37.8811L232.573 36.3659L222.317 34.4513L221.913 35.7598Z" stroke="#0C0F47" stroke-width="1.2122"/>
<path d="M220.151 41.4713C222.95 40.0203 227.469 39.0933 232.015 40.6086L232.174 39.3964L221.446 37.275L220.151 41.4713Z" stroke="#0C0F47" stroke-width="1.2122"/>
<circle cx="224.545" cy="6.32735" r="1.2122" transform="rotate(-5.34747 224.545 6.32735)" fill="#0C0F47"/>
<circle cx="226.129" cy="3.74385" r="1.2122" transform="rotate(-5.34747 226.129 3.74385)" fill="#0C0F47"/>
<circle cx="243.594" cy="7.03431" r="1.2122" transform="rotate(-22.1204 243.594 7.03431)" fill="#0C0F47"/>
<circle cx="243.612" cy="10.2987" r="1.2122" transform="rotate(-22.1204 243.612 10.2987)" fill="#0C0F47"/>
<path d="M215.043 68.489L215.043 69.3982L224.134 71.5195L225.043 70.7656M213.83 68.186L213.492 70.7656L225.952 73.9439L226.424 71.0458L213.83 68.186Z" stroke="#0C0F47" stroke-width="1.2122"/>
<path d="M215.953 68.4892L223.073 38.1838M223.53 70.6103L229.616 38.6533M218.074 69.3979L224.818 38.1838M220.801 69.7011L227.364 38.1838" stroke="#0C0F47" stroke-width="0.606099"/>
<circle cx="291.109" cy="35.7597" r="5.45489" fill="#0C0F47"/>
<circle cx="25.6385" cy="38.1841" r="5.45489" fill="#0C0F47"/>
<path d="M287.473 46.9726C292.624 47.6797 301.474 52.9124 289.594 62.1251C292.321 59.7007 294.503 52.0638 287.473 46.9726Z" fill="#0C0F47"/>
<path d="M292.799 55.5505C292.805 53.1241 291.977 50.49 289.774 48.1722C290.31 48.3662 290.848 48.6013 291.362 48.8771C292.669 49.5782 293.777 50.5136 294.386 51.6465C294.981 52.7517 295.133 54.0986 294.441 55.7341C294.033 56.6966 293.331 57.7644 292.243 58.9334C292.588 57.8996 292.796 56.7499 292.799 55.5505Z" stroke="#0C0F47" stroke-width="1.2122"/>
<path d="M295.979 41.3562C297.573 41.8403 301.475 41.8733 304.332 38.132C307.189 34.3907 312.907 34.5142 315.409 35.0436C312.771 35.2154 308.379 36.3657 306.708 39.1608C304.817 42.3254 297.749 42.3549 295.979 41.3562Z" fill="#0C0F47"/>
<path d="M304.233 40.427C303.509 40.7544 302.672 40.986 301.806 41.1328C302.848 40.562 303.884 39.7173 304.814 38.4998C306.117 36.7931 308.096 35.9386 310.109 35.5831C310.271 35.5546 310.432 35.5294 310.593 35.5073C310.552 35.5234 310.511 35.5397 310.47 35.5561C308.776 36.2373 307.12 37.2897 306.188 38.8498C305.8 39.4988 305.122 40.0252 304.233 40.427Z" stroke="#0C0F47" stroke-width="1.2122"/>
<path d="M65.7543 40.4921L65.3223 42.9671C71.6612 41.6243 82.2223 42.7818 89.9779 47.9812L91.1907 45.2944C76.8702 40.6589 77.5141 41.6266 65.7543 40.4921Z" fill="#0C0F47"/>
<path fill-rule="evenodd" clip-rule="evenodd" d="M61.845 38.9756C56.0087 34.3534 69.1723 31.325 78.1237 32.7058C77.8718 35.3572 85.0882 36.4785 85.2511 34.1019C93.0684 37.461 95.8809 41.2786 96.1443 43.6397C96.3284 45.2908 94.2538 45.442 92.6882 44.886C76.808 39.2464 63.5294 40.6365 61.845 38.9756ZM61.9189 36.8738C61.7113 37.5152 63.6679 38.7761 73.1551 38.689C69.8434 38.4268 62.9597 37.6966 61.9189 36.8738Z" fill="#0C0F47"/>
<path d="M78.9335 33.7541C78.2458 33.1474 78.4792 32.1166 79.3802 31.9456C80.93 31.6516 83.2857 31.9857 84.4806 33.2476C84.9694 33.7637 84.7557 34.5842 84.0818 34.8104C82.5612 35.3209 80.2925 34.9531 78.9335 33.7541Z" fill="#0C0F47"/>
<path d="M65.7543 40.4921L65.3223 42.9671C71.6612 41.6243 82.2223 42.7818 89.9779 47.9812L91.1907 45.2944C76.8702 40.6589 77.5141 41.6266 65.7543 40.4921Z" stroke="#0C0F47"/>
<path fill-rule="evenodd" clip-rule="evenodd" d="M61.845 38.9756C56.0087 34.3534 69.1723 31.325 78.1237 32.7058C77.8718 35.3572 85.0882 36.4785 85.2511 34.1019C93.0684 37.461 95.8809 41.2786 96.1443 43.6397C96.3284 45.2908 94.2538 45.442 92.6882 44.886C76.808 39.2464 63.5294 40.6365 61.845 38.9756ZM61.9189 36.8738C61.7113 37.5152 63.6679 38.7761 73.1551 38.689C69.8434 38.4268 62.9597 37.6966 61.9189 36.8738Z" stroke="#0C0F47"/>
<path d="M78.9335 33.7541C78.2458 33.1474 78.4792 32.1166 79.3802 31.9456C80.93 31.6516 83.2857 31.9857 84.4806 33.2476C84.9694 33.7637 84.7557 34.5842 84.0818 34.8104C82.5612 35.3209 80.2925 34.9531 78.9335 33.7541Z" stroke="#0C0F47"/>
<path d="M151.387 35.2003C153.673 33.2309 151.314 29.9039 149.848 28.4866C152.489 29.5261 156.003 31.4373 158.18 33.8575C158.18 33.8575 158.861 37.2144 158.18 36.0954C157.499 34.9765 156.223 33.8575 156.223 33.8575C156.223 33.8575 156.069 35.8717 155.783 35.4241C155.498 34.9765 154.684 33.6337 154.684 33.6337C154.684 33.6337 153.805 36.543 153.365 36.3192C152.926 36.0954 152.926 33.6337 152.926 33.6337C152.926 33.6337 151.607 36.3192 150.947 36.3192C150.409 36.3192 150.603 36.0285 150.693 35.9221C150.713 35.8983 150.727 35.8837 150.727 35.8837C150.93 35.661 151.149 35.4331 151.387 35.2003Z" fill="#0C0F47"/>
<path d="M158.18 33.8575C160.533 36.4738 161.027 39.6849 157.464 43.0329L156.663 43.0329L155.014 43.0329L154.19 43.0329L153.365 43.0329L152.596 43.0329L151.827 43.0329L150.191 43.0329C148.598 42.328 147.058 39.9577 150.693 35.9221C150.603 36.0285 150.409 36.3192 150.947 36.3192C151.607 36.3192 152.926 33.6337 152.926 33.6337C152.926 33.6337 152.926 36.0954 153.365 36.3192C153.805 36.543 154.684 33.6337 154.684 33.6337C154.684 33.6337 155.498 34.9765 155.783 35.4241C156.069 35.8717 156.223 33.8575 156.223 33.8575C156.223 33.8575 157.499 34.9765 158.18 36.0954C158.861 37.2144 158.18 33.8575 158.18 33.8575Z" fill="#0C0F47"/>
<path d="M158.18 33.8575C156.003 31.4373 152.489 29.5261 149.848 28.4866C151.314 29.9039 153.673 33.2309 151.387 35.2003C151.149 35.4331 150.93 35.661 150.727 35.8837M158.18 33.8575C160.533 36.4738 161.027 39.6849 157.464 43.0329L156.663 43.0329M158.18 33.8575C158.18 33.8575 158.861 37.2144 158.18 36.0954C157.499 34.9765 156.223 33.8575 156.223 33.8575C156.223 33.8575 156.069 35.8717 155.783 35.4241C155.498 34.9765 154.684 33.6337 154.684 33.6337C154.684 33.6337 153.805 36.543 153.365 36.3192C152.926 36.0954 152.926 33.6337 152.926 33.6337C152.926 33.6337 151.607 36.3192 150.947 36.3192C150.409 36.3192 150.603 36.0285 150.693 35.9221M150.727 35.8837C150.727 35.8837 150.713 35.8983 150.693 35.9221M150.727 35.8837C150.716 35.8965 150.704 35.9093 150.693 35.9221M156.663 43.0329C157.029 42.3616 157.718 40.8398 157.542 40.1237M156.663 43.0329L155.014 43.0329M151.827 43.0329L150.191 43.0329C148.598 42.328 147.058 39.9577 150.693 35.9221M151.827 43.0329C151.314 42.66 150.332 41.6454 150.508 40.5712M151.827 43.0329L152.596 43.0329M155.014 43.0329C155.527 42.4362 156.399 40.8398 155.783 39.2285M155.014 43.0329L154.19 43.0329M152.926 39.2285C152.413 39.9745 151.629 41.7797 152.596 43.0329M152.596 43.0329L153.365 43.0329L154.19 43.0329M154.19 43.0329C154.025 42.66 153.794 41.6454 154.19 40.5712" stroke="#0C0F47" stroke-width="0.606099"/>
<path d="M150.494 46.2968V43.9886L154.235 43.9887C153.441 44.24 152.587 44.7403 151.844 45.2568C151.334 45.6111 150.867 45.9801 150.494 46.2968Z" fill="#0C0F47" stroke="#0C0F47" stroke-width="0.606099"/>
<path d="M41.6342 41.2255L37.4481 56.2229L40.4252 57.5254L47.1364 43.2794L41.6342 41.2255Z" fill="#0C0F47" stroke="#0C0F47" stroke-width="0.606099"/>
<path d="M42.7824 40.6162L46.4955 42.0949C47.231 42.022 47.9111 41.7659 48.4908 41.3735L41.8688 38.8946C42.0413 39.5408 42.3583 40.1266 42.7824 40.6162Z" fill="#0C0F47"/>
<path d="M41.7224 37.8537C41.7102 37.2354 41.8275 36.6448 42.0493 36.1077L50.2037 39.0783C50.0233 39.6506 49.7276 40.1726 49.3435 40.6162L41.7224 37.8537Z" fill="#0C0F47"/>
<path d="M45.9772 33.4209C48.3743 33.3736 50.356 35.2817 50.4033 37.6826C50.4052 37.7774 50.404 37.8714 50.3999 37.9648L42.6092 35.1331C43.3846 34.115 44.5996 33.448 45.9772 33.4209Z" fill="#0C0F47"/>
<path d="M42.7824 40.6162L46.4955 42.0949C47.231 42.022 47.9111 41.7659 48.4908 41.3735L41.8688 38.8946C42.0413 39.5408 42.3583 40.1266 42.7824 40.6162Z" stroke="#0C0F47" stroke-width="0.606099"/>
<path d="M41.7224 37.8537C41.7102 37.2354 41.8275 36.6448 42.0493 36.1077L50.2037 39.0783C50.0233 39.6506 49.7276 40.1726 49.3435 40.6162L41.7224 37.8537Z" stroke="#0C0F47" stroke-width="0.606099"/>
<path d="M45.9772 33.4209C48.3743 33.3736 50.356 35.2817 50.4033 37.6826C50.4052 37.7774 50.404 37.8714 50.3999 37.9648L42.6092 35.1331C43.3846 34.115 44.5996 33.448 45.9772 33.4209Z" stroke="#0C0F47" stroke-width="0.606099"/>
<path d="M262.336 52.7305C250.233 52.7305 251.455 81.51 260.854 81.51C269.09 81.51 269.584 61.6002 262.915 60.7393C259.921 60.3528 258.799 67.8583 259.704 70.2737C259.951 69.5109 260.544 67.604 261.927 67.604C263.656 67.604 264.792 73.9755 261.348 73.5012C257.297 72.9433 255.173 59.9766 262.583 58.0697C269.992 56.1629 272.795 79.2217 261.928 83.0355C273.536 81.51 272.965 50.6939 262.583 54.6374C252.541 58.4511 255.914 77.3149 261.101 76.5521C266.288 75.7894 266.373 65.3158 262.336 63.409C267.361 62.2648 267.361 81.51 260.36 78.8404C253.358 76.1708 252.788 56.5443 262.336 52.7305Z" fill="#0C0F47"/>
</svg>
