<svg width="1070" height="291" viewBox="0 0 1070 291" fill="none" xmlns="http://www.w3.org/2000/svg">
<g filter="url(#filter0_d_573_210)">
<rect width="1065" height="286" rx="20" fill="#E7E6FF"/>
<rect x="36" y="154" width="140" height="54" rx="4" fill="#6560D3"/>
<path d="M65.08 189L61.576 182.64H60.592V189H56.488V172.152H63.376C64.704 172.152 65.832 172.384 66.76 172.848C67.704 173.312 68.408 173.952 68.872 174.768C69.336 175.568 69.568 176.464 69.568 177.456C69.568 178.576 69.248 179.576 68.608 180.456C67.984 181.336 67.056 181.96 65.824 182.328L69.712 189H65.08ZM60.592 179.736H63.136C63.888 179.736 64.448 179.552 64.816 179.184C65.2 178.816 65.392 178.296 65.392 177.624C65.392 176.984 65.2 176.48 64.816 176.112C64.448 175.744 63.888 175.56 63.136 175.56H60.592V179.736ZM84.7682 182.088C84.7682 182.472 84.7443 182.872 84.6963 183.288H75.4083C75.4723 184.12 75.7363 184.76 76.2003 185.208C76.6803 185.64 77.2643 185.856 77.9523 185.856C78.9763 185.856 79.6883 185.424 80.0883 184.56H84.4563C84.2323 185.44 83.8243 186.232 83.2323 186.936C82.6563 187.64 81.9283 188.192 81.0483 188.592C80.1683 188.992 79.1843 189.192 78.0963 189.192C76.7843 189.192 75.6163 188.912 74.5923 188.352C73.5683 187.792 72.7683 186.992 72.1923 185.952C71.6163 184.912 71.3283 183.696 71.3283 182.304C71.3283 180.912 71.6083 179.696 72.1683 178.656C72.7443 177.616 73.5443 176.816 74.5683 176.256C75.5923 175.696 76.7683 175.416 78.0963 175.416C79.3923 175.416 80.5443 175.688 81.5523 176.232C82.5603 176.776 83.3443 177.552 83.9043 178.56C84.4803 179.568 84.7682 180.744 84.7682 182.088ZM80.5683 181.008C80.5683 180.304 80.3283 179.744 79.8483 179.328C79.3683 178.912 78.7683 178.704 78.0483 178.704C77.3603 178.704 76.7763 178.904 76.2963 179.304C75.8323 179.704 75.5443 180.272 75.4323 181.008H80.5683ZM92.0213 175.416C92.9653 175.416 93.7893 175.608 94.4933 175.992C95.2133 176.376 95.7653 176.88 96.1493 177.504V175.608H100.253V188.976C100.253 190.208 100.005 191.32 99.5093 192.312C99.0293 193.32 98.2853 194.12 97.2773 194.712C96.2853 195.304 95.0453 195.6 93.5573 195.6C91.5733 195.6 89.9653 195.128 88.7333 194.184C87.5013 193.256 86.7973 191.992 86.6213 190.392H90.6773C90.8053 190.904 91.1093 191.304 91.5893 191.592C92.0693 191.896 92.6613 192.048 93.3653 192.048C94.2133 192.048 94.8853 191.8 95.3813 191.304C95.8933 190.824 96.1493 190.048 96.1493 188.976V187.08C95.7493 187.704 95.1973 188.216 94.4933 188.616C93.7893 189 92.9653 189.192 92.0213 189.192C90.9173 189.192 89.9173 188.912 89.0213 188.352C88.1253 187.776 87.4133 186.968 86.8853 185.928C86.3733 184.872 86.1173 183.656 86.1173 182.28C86.1173 180.904 86.3733 179.696 86.8853 178.656C87.4133 177.616 88.1253 176.816 89.0213 176.256C89.9173 175.696 90.9173 175.416 92.0213 175.416ZM96.1493 182.304C96.1493 181.28 95.8613 180.472 95.2853 179.88C94.7253 179.288 94.0373 178.992 93.2213 178.992C92.4053 178.992 91.7093 179.288 91.1333 179.88C90.5733 180.456 90.2933 181.256 90.2933 182.28C90.2933 183.304 90.5733 184.12 91.1333 184.728C91.7093 185.32 92.4053 185.616 93.2213 185.616C94.0373 185.616 94.7253 185.32 95.2853 184.728C95.8613 184.136 96.1493 183.328 96.1493 182.304ZM105.286 174.216C104.566 174.216 103.974 174.008 103.51 173.592C103.062 173.16 102.838 172.632 102.838 172.008C102.838 171.368 103.062 170.84 103.51 170.424C103.974 169.992 104.566 169.776 105.286 169.776C105.99 169.776 106.566 169.992 107.014 170.424C107.478 170.84 107.71 171.368 107.71 172.008C107.71 172.632 107.478 173.16 107.014 173.592C106.566 174.008 105.99 174.216 105.286 174.216ZM107.326 175.608V189H103.222V175.608H107.326ZM115.749 189.192C114.581 189.192 113.541 188.992 112.629 188.592C111.717 188.192 110.997 187.648 110.469 186.96C109.941 186.256 109.645 185.472 109.581 184.608H113.637C113.685 185.072 113.901 185.448 114.285 185.736C114.669 186.024 115.141 186.168 115.701 186.168C116.213 186.168 116.605 186.072 116.877 185.88C117.165 185.672 117.309 185.408 117.309 185.088C117.309 184.704 117.109 184.424 116.709 184.248C116.309 184.056 115.661 183.848 114.765 183.624C113.805 183.4 113.005 183.168 112.365 182.928C111.725 182.672 111.173 182.28 110.709 181.752C110.245 181.208 110.013 180.48 110.013 179.568C110.013 178.8 110.221 178.104 110.637 177.48C111.069 176.84 111.693 176.336 112.509 175.968C113.341 175.6 114.325 175.416 115.461 175.416C117.141 175.416 118.461 175.832 119.421 176.664C120.397 177.496 120.957 178.6 121.101 179.976H117.309C117.245 179.512 117.037 179.144 116.685 178.872C116.349 178.6 115.901 178.464 115.341 178.464C114.861 178.464 114.493 178.56 114.237 178.752C113.981 178.928 113.853 179.176 113.853 179.496C113.853 179.88 114.053 180.168 114.453 180.36C114.869 180.552 115.509 180.744 116.373 180.936C117.365 181.192 118.173 181.448 118.797 181.704C119.421 181.944 119.965 182.344 120.429 182.904C120.909 183.448 121.157 184.184 121.173 185.112C121.173 185.896 120.949 186.6 120.501 187.224C120.069 187.832 119.437 188.312 118.605 188.664C117.789 189.016 116.837 189.192 115.749 189.192ZM131.147 185.52V189H129.059C127.571 189 126.411 188.64 125.579 187.92C124.747 187.184 124.331 185.992 124.331 184.344V179.016H122.699V175.608H124.331V172.344H128.435V175.608H131.123V179.016H128.435V184.392C128.435 184.792 128.531 185.08 128.723 185.256C128.915 185.432 129.235 185.52 129.683 185.52H131.147ZM146.057 182.088C146.057 182.472 146.033 182.872 145.985 183.288H136.697C136.761 184.12 137.025 184.76 137.489 185.208C137.969 185.64 138.553 185.856 139.241 185.856C140.265 185.856 140.977 185.424 141.377 184.56H145.745C145.521 185.44 145.113 186.232 144.521 186.936C143.945 187.64 143.217 188.192 142.337 188.592C141.457 188.992 140.473 189.192 139.385 189.192C138.073 189.192 136.905 188.912 135.881 188.352C134.857 187.792 134.057 186.992 133.481 185.952C132.905 184.912 132.617 183.696 132.617 182.304C132.617 180.912 132.897 179.696 133.457 178.656C134.033 177.616 134.833 176.816 135.857 176.256C136.881 175.696 138.057 175.416 139.385 175.416C140.681 175.416 141.833 175.688 142.841 176.232C143.849 176.776 144.633 177.552 145.193 178.56C145.769 179.568 146.057 180.744 146.057 182.088ZM141.857 181.008C141.857 180.304 141.617 179.744 141.137 179.328C140.657 178.912 140.057 178.704 139.337 178.704C138.649 178.704 138.065 178.904 137.585 179.304C137.121 179.704 136.833 180.272 136.721 181.008H141.857ZM152.326 177.84C152.806 177.104 153.406 176.528 154.126 176.112C154.846 175.68 155.646 175.464 156.526 175.464V179.808H155.398C154.374 179.808 153.606 180.032 153.094 180.48C152.582 180.912 152.326 181.68 152.326 182.784V189H148.222V175.608H152.326V177.84Z" fill="black"/>
<rect x="36" y="154" width="140" height="54" rx="4" stroke="black" stroke-width="2"/>
<rect x="226" y="154" width="229" height="54" rx="4" fill="#F5C567"/>
<path d="M251.576 175.416C252.52 175.416 253.344 175.608 254.048 175.992C254.768 176.376 255.32 176.88 255.704 177.504V175.608H259.808V188.976C259.808 190.208 259.56 191.32 259.064 192.312C258.584 193.32 257.84 194.12 256.832 194.712C255.84 195.304 254.6 195.6 253.112 195.6C251.128 195.6 249.52 195.128 248.288 194.184C247.056 193.256 246.352 191.992 246.176 190.392H250.232C250.36 190.904 250.664 191.304 251.144 191.592C251.624 191.896 252.216 192.048 252.92 192.048C253.768 192.048 254.44 191.8 254.936 191.304C255.448 190.824 255.704 190.048 255.704 188.976V187.08C255.304 187.704 254.752 188.216 254.048 188.616C253.344 189 252.52 189.192 251.576 189.192C250.472 189.192 249.472 188.912 248.576 188.352C247.68 187.776 246.968 186.968 246.44 185.928C245.928 184.872 245.672 183.656 245.672 182.28C245.672 180.904 245.928 179.696 246.44 178.656C246.968 177.616 247.68 176.816 248.576 176.256C249.472 175.696 250.472 175.416 251.576 175.416ZM255.704 182.304C255.704 181.28 255.416 180.472 254.84 179.88C254.28 179.288 253.592 178.992 252.776 178.992C251.96 178.992 251.264 179.288 250.688 179.88C250.128 180.456 249.848 181.256 249.848 182.28C249.848 183.304 250.128 184.12 250.688 184.728C251.264 185.32 251.96 185.616 252.776 185.616C253.592 185.616 254.28 185.32 254.84 184.728C255.416 184.136 255.704 183.328 255.704 182.304ZM275.401 182.088C275.401 182.472 275.377 182.872 275.329 183.288H266.041C266.105 184.12 266.369 184.76 266.833 185.208C267.313 185.64 267.897 185.856 268.585 185.856C269.609 185.856 270.321 185.424 270.721 184.56H275.089C274.865 185.44 274.457 186.232 273.865 186.936C273.289 187.64 272.561 188.192 271.681 188.592C270.801 188.992 269.817 189.192 268.729 189.192C267.417 189.192 266.249 188.912 265.225 188.352C264.201 187.792 263.401 186.992 262.825 185.952C262.249 184.912 261.961 183.696 261.961 182.304C261.961 180.912 262.241 179.696 262.801 178.656C263.377 177.616 264.177 176.816 265.201 176.256C266.225 175.696 267.401 175.416 268.729 175.416C270.025 175.416 271.177 175.688 272.185 176.232C273.193 176.776 273.977 177.552 274.537 178.56C275.113 179.568 275.401 180.744 275.401 182.088ZM271.201 181.008C271.201 180.304 270.961 179.744 270.481 179.328C270.001 178.912 269.401 178.704 268.681 178.704C267.993 178.704 267.409 178.904 266.929 179.304C266.465 179.704 266.177 180.272 266.065 181.008H271.201ZM285.03 185.52V189H282.942C281.454 189 280.294 188.64 279.462 187.92C278.63 187.184 278.214 185.992 278.214 184.344V179.016H276.582V175.608H278.214V172.344H282.318V175.608H285.006V179.016H282.318V184.392C282.318 184.792 282.414 185.08 282.606 185.256C282.798 185.432 283.118 185.52 283.566 185.52H285.03ZM302.89 186.024H296.602L295.594 189H291.298L297.394 172.152H302.146L308.242 189H303.898L302.89 186.024ZM301.834 182.856L299.746 176.688L297.682 182.856H301.834ZM318.257 175.464C319.825 175.464 321.073 175.976 322.001 177C322.945 178.008 323.417 179.4 323.417 181.176V189H319.337V181.728C319.337 180.832 319.105 180.136 318.641 179.64C318.177 179.144 317.553 178.896 316.769 178.896C315.985 178.896 315.361 179.144 314.897 179.64C314.433 180.136 314.201 180.832 314.201 181.728V189H310.097V175.608H314.201V177.384C314.617 176.792 315.177 176.328 315.881 175.992C316.585 175.64 317.377 175.464 318.257 175.464ZM345.493 175.608L341.869 189H337.333L335.221 180.312L333.037 189H328.525L324.877 175.608H328.981L330.877 185.184L333.133 175.608H337.477L339.757 185.136L341.629 175.608H345.493ZM359.682 182.088C359.682 182.472 359.658 182.872 359.61 183.288H350.322C350.386 184.12 350.65 184.76 351.114 185.208C351.594 185.64 352.178 185.856 352.866 185.856C353.89 185.856 354.602 185.424 355.002 184.56H359.37C359.146 185.44 358.738 186.232 358.146 186.936C357.57 187.64 356.842 188.192 355.962 188.592C355.082 188.992 354.098 189.192 353.01 189.192C351.698 189.192 350.53 188.912 349.506 188.352C348.482 187.792 347.682 186.992 347.106 185.952C346.53 184.912 346.242 183.696 346.242 182.304C346.242 180.912 346.522 179.696 347.082 178.656C347.658 177.616 348.458 176.816 349.482 176.256C350.506 175.696 351.682 175.416 353.01 175.416C354.306 175.416 355.458 175.688 356.466 176.232C357.474 176.776 358.258 177.552 358.818 178.56C359.394 179.568 359.682 180.744 359.682 182.088ZM355.482 181.008C355.482 180.304 355.242 179.744 354.762 179.328C354.282 178.912 353.682 178.704 352.962 178.704C352.274 178.704 351.69 178.904 351.21 179.304C350.746 179.704 350.458 180.272 350.346 181.008H355.482ZM367.295 189.192C366.127 189.192 365.087 188.992 364.175 188.592C363.263 188.192 362.543 187.648 362.015 186.96C361.487 186.256 361.191 185.472 361.127 184.608H365.183C365.231 185.072 365.447 185.448 365.831 185.736C366.215 186.024 366.687 186.168 367.247 186.168C367.759 186.168 368.151 186.072 368.423 185.88C368.711 185.672 368.855 185.408 368.855 185.088C368.855 184.704 368.655 184.424 368.255 184.248C367.855 184.056 367.207 183.848 366.311 183.624C365.351 183.4 364.551 183.168 363.911 182.928C363.271 182.672 362.719 182.28 362.255 181.752C361.791 181.208 361.559 180.48 361.559 179.568C361.559 178.8 361.767 178.104 362.183 177.48C362.615 176.84 363.239 176.336 364.055 175.968C364.887 175.6 365.871 175.416 367.007 175.416C368.687 175.416 370.007 175.832 370.967 176.664C371.943 177.496 372.503 178.6 372.647 179.976H368.855C368.791 179.512 368.583 179.144 368.231 178.872C367.895 178.6 367.447 178.464 366.887 178.464C366.407 178.464 366.039 178.56 365.783 178.752C365.527 178.928 365.399 179.176 365.399 179.496C365.399 179.88 365.599 180.168 365.999 180.36C366.415 180.552 367.055 180.744 367.919 180.936C368.911 181.192 369.719 181.448 370.343 181.704C370.967 181.944 371.511 182.344 371.975 182.904C372.455 183.448 372.703 184.184 372.719 185.112C372.719 185.896 372.495 186.6 372.047 187.224C371.615 187.832 370.983 188.312 370.151 188.664C369.335 189.016 368.383 189.192 367.295 189.192ZM383.462 175.464C384.998 175.464 386.23 175.976 387.158 177C388.086 178.008 388.55 179.4 388.55 181.176V189H384.47V181.728C384.47 180.832 384.238 180.136 383.774 179.64C383.31 179.144 382.686 178.896 381.902 178.896C381.118 178.896 380.494 179.144 380.03 179.64C379.566 180.136 379.334 180.832 379.334 181.728V189H375.23V171.24H379.334V177.408C379.75 176.816 380.318 176.344 381.038 175.992C381.758 175.64 382.566 175.464 383.462 175.464ZM390.586 182.28C390.586 180.904 390.842 179.696 391.354 178.656C391.882 177.616 392.594 176.816 393.49 176.256C394.386 175.696 395.386 175.416 396.49 175.416C397.434 175.416 398.258 175.608 398.962 175.992C399.682 176.376 400.234 176.88 400.618 177.504V175.608H404.722V189H400.618V187.104C400.218 187.728 399.658 188.232 398.938 188.616C398.234 189 397.41 189.192 396.466 189.192C395.378 189.192 394.386 188.912 393.49 188.352C392.594 187.776 391.882 186.968 391.354 185.928C390.842 184.872 390.586 183.656 390.586 182.28ZM400.618 182.304C400.618 181.28 400.33 180.472 399.754 179.88C399.194 179.288 398.506 178.992 397.69 178.992C396.874 178.992 396.178 179.288 395.602 179.88C395.042 180.456 394.762 181.256 394.762 182.28C394.762 183.304 395.042 184.12 395.602 184.728C396.178 185.32 396.874 185.616 397.69 185.616C398.506 185.616 399.194 185.32 399.754 184.728C400.33 184.136 400.618 183.328 400.618 182.304ZM416.881 172.152V189H412.777V172.152H416.881ZM426.167 172.152C427.943 172.152 429.495 172.504 430.823 173.208C432.151 173.912 433.175 174.904 433.895 176.184C434.631 177.448 434.999 178.912 434.999 180.576C434.999 182.224 434.631 183.688 433.895 184.968C433.175 186.248 432.143 187.24 430.799 187.944C429.471 188.648 427.927 189 426.167 189H419.855V172.152H426.167ZM425.903 185.448C427.455 185.448 428.663 185.024 429.527 184.176C430.391 183.328 430.823 182.128 430.823 180.576C430.823 179.024 430.391 177.816 429.527 176.952C428.663 176.088 427.455 175.656 425.903 175.656H423.959V185.448H425.903Z" fill="black"/>
<rect x="226" y="154" width="229" height="54" rx="4" stroke="black" stroke-width="2"/>
<rect x="719" y="154" width="85" height="54" rx="4" fill="#0FA958"/>
<path d="M752.328 177.576C752.328 178.552 752.104 179.448 751.656 180.264C751.208 181.064 750.52 181.712 749.592 182.208C748.664 182.704 747.512 182.952 746.136 182.952H743.592V189H739.488V172.152H746.136C747.48 172.152 748.616 172.384 749.544 172.848C750.472 173.312 751.168 173.952 751.632 174.768C752.096 175.584 752.328 176.52 752.328 177.576ZM745.824 179.688C746.608 179.688 747.192 179.504 747.576 179.136C747.96 178.768 748.152 178.248 748.152 177.576C748.152 176.904 747.96 176.384 747.576 176.016C747.192 175.648 746.608 175.464 745.824 175.464H743.592V179.688H745.824ZM753.649 182.28C753.649 180.904 753.905 179.696 754.417 178.656C754.945 177.616 755.657 176.816 756.553 176.256C757.449 175.696 758.449 175.416 759.553 175.416C760.497 175.416 761.321 175.608 762.025 175.992C762.745 176.376 763.297 176.88 763.681 177.504V175.608H767.785V189H763.681V187.104C763.281 187.728 762.721 188.232 762.001 188.616C761.297 189 760.473 189.192 759.529 189.192C758.441 189.192 757.449 188.912 756.553 188.352C755.657 187.776 754.945 186.968 754.417 185.928C753.905 184.872 753.649 183.656 753.649 182.28ZM763.681 182.304C763.681 181.28 763.393 180.472 762.817 179.88C762.257 179.288 761.569 178.992 760.753 178.992C759.937 178.992 759.241 179.288 758.665 179.88C758.105 180.456 757.825 181.256 757.825 182.28C757.825 183.304 758.105 184.12 758.665 184.728C759.241 185.32 759.937 185.616 760.753 185.616C761.569 185.616 762.257 185.32 762.817 184.728C763.393 184.136 763.681 183.328 763.681 182.304ZM784.434 175.608L776.034 195.36H771.618L774.69 188.544L769.242 175.608H773.826L776.922 183.984L779.994 175.608H784.434Z" fill="black"/>
<rect x="719" y="154" width="85" height="54" rx="4" stroke="black" stroke-width="2"/>
<rect x="854" y="154" width="176" height="54" rx="4" fill="#FF8577"/>
<path d="M887.328 177.576C887.328 178.552 887.104 179.448 886.656 180.264C886.208 181.064 885.52 181.712 884.592 182.208C883.664 182.704 882.512 182.952 881.136 182.952H878.592V189H874.488V172.152H881.136C882.48 172.152 883.616 172.384 884.544 172.848C885.472 173.312 886.168 173.952 886.632 174.768C887.096 175.584 887.328 176.52 887.328 177.576ZM880.824 179.688C881.608 179.688 882.192 179.504 882.576 179.136C882.96 178.768 883.152 178.248 883.152 177.576C883.152 176.904 882.96 176.384 882.576 176.016C882.192 175.648 881.608 175.464 880.824 175.464H878.592V179.688H880.824ZM888.649 182.28C888.649 180.904 888.905 179.696 889.417 178.656C889.945 177.616 890.657 176.816 891.553 176.256C892.449 175.696 893.449 175.416 894.553 175.416C895.497 175.416 896.321 175.608 897.025 175.992C897.745 176.376 898.297 176.88 898.681 177.504V175.608H902.785V189H898.681V187.104C898.281 187.728 897.721 188.232 897.001 188.616C896.297 189 895.473 189.192 894.529 189.192C893.441 189.192 892.449 188.912 891.553 188.352C890.657 187.776 889.945 186.968 889.417 185.928C888.905 184.872 888.649 183.656 888.649 182.28ZM898.681 182.304C898.681 181.28 898.393 180.472 897.817 179.88C897.257 179.288 896.569 178.992 895.753 178.992C894.937 178.992 894.241 179.288 893.665 179.88C893.105 180.456 892.825 181.256 892.825 182.28C892.825 183.304 893.105 184.12 893.665 184.728C894.241 185.32 894.937 185.616 895.753 185.616C896.569 185.616 897.257 185.32 897.817 184.728C898.393 184.136 898.681 183.328 898.681 182.304ZM909.858 177.84C910.338 177.104 910.938 176.528 911.658 176.112C912.378 175.68 913.178 175.464 914.058 175.464V179.808H912.93C911.906 179.808 911.138 180.032 910.626 180.48C910.114 180.912 909.858 181.68 909.858 182.784V189H905.754V175.608H909.858V177.84ZM923.483 185.52V189H921.395C919.907 189 918.747 188.64 917.915 187.92C917.083 187.184 916.667 185.992 916.667 184.344V179.016H915.035V175.608H916.667V172.344H920.771V175.608H923.459V179.016H920.771V184.392C920.771 184.792 920.867 185.08 921.059 185.256C921.251 185.432 921.571 185.52 922.019 185.52H923.483ZM927.833 174.216C927.113 174.216 926.521 174.008 926.057 173.592C925.609 173.16 925.385 172.632 925.385 172.008C925.385 171.368 925.609 170.84 926.057 170.424C926.521 169.992 927.113 169.776 927.833 169.776C928.537 169.776 929.113 169.992 929.561 170.424C930.025 170.84 930.257 171.368 930.257 172.008C930.257 172.632 930.025 173.16 929.561 173.592C929.113 174.008 928.537 174.216 927.833 174.216ZM929.873 175.608V189H925.769V175.608H929.873ZM932.031 182.304C932.031 180.912 932.311 179.696 932.871 178.656C933.447 177.616 934.239 176.816 935.247 176.256C936.271 175.696 937.439 175.416 938.751 175.416C940.431 175.416 941.831 175.856 942.951 176.736C944.087 177.616 944.831 178.856 945.183 180.456H940.815C940.447 179.432 939.735 178.92 938.679 178.92C937.927 178.92 937.327 179.216 936.879 179.808C936.431 180.384 936.207 181.216 936.207 182.304C936.207 183.392 936.431 184.232 936.879 184.824C937.327 185.4 937.927 185.688 938.679 185.688C939.735 185.688 940.447 185.176 940.815 184.152H945.183C944.831 185.72 944.087 186.952 942.951 187.848C941.815 188.744 940.415 189.192 938.751 189.192C937.439 189.192 936.271 188.912 935.247 188.352C934.239 187.792 933.447 186.992 932.871 185.952C932.311 184.912 932.031 183.696 932.031 182.304ZM949.443 174.216C948.723 174.216 948.131 174.008 947.667 173.592C947.219 173.16 946.995 172.632 946.995 172.008C946.995 171.368 947.219 170.84 947.667 170.424C948.131 169.992 948.723 169.776 949.443 169.776C950.147 169.776 950.723 169.992 951.171 170.424C951.635 170.84 951.867 171.368 951.867 172.008C951.867 172.632 951.635 173.16 951.171 173.592C950.723 174.008 950.147 174.216 949.443 174.216ZM951.483 175.608V189H947.379V175.608H951.483ZM958.561 177.504C958.961 176.88 959.513 176.376 960.217 175.992C960.921 175.608 961.745 175.416 962.689 175.416C963.793 175.416 964.793 175.696 965.689 176.256C966.585 176.816 967.289 177.616 967.801 178.656C968.329 179.696 968.593 180.904 968.593 182.28C968.593 183.656 968.329 184.872 967.801 185.928C967.289 186.968 966.585 187.776 965.689 188.352C964.793 188.912 963.793 189.192 962.689 189.192C961.761 189.192 960.937 189 960.217 188.616C959.513 188.232 958.961 187.736 958.561 187.128V195.384H954.457V175.608H958.561V177.504ZM964.417 182.28C964.417 181.256 964.129 180.456 963.553 179.88C962.993 179.288 962.297 178.992 961.465 178.992C960.649 178.992 959.953 179.288 959.377 179.88C958.817 180.472 958.537 181.28 958.537 182.304C958.537 183.328 958.817 184.136 959.377 184.728C959.953 185.32 960.649 185.616 961.465 185.616C962.281 185.616 962.977 185.32 963.553 184.728C964.129 184.12 964.417 183.304 964.417 182.28ZM969.93 182.28C969.93 180.904 970.186 179.696 970.698 178.656C971.226 177.616 971.938 176.816 972.834 176.256C973.73 175.696 974.73 175.416 975.834 175.416C976.778 175.416 977.602 175.608 978.306 175.992C979.026 176.376 979.578 176.88 979.962 177.504V175.608H984.066V189H979.962V187.104C979.562 187.728 979.002 188.232 978.282 188.616C977.578 189 976.754 189.192 975.81 189.192C974.722 189.192 973.73 188.912 972.834 188.352C971.938 187.776 971.226 186.968 970.698 185.928C970.186 184.872 969.93 183.656 969.93 182.28ZM979.962 182.304C979.962 181.28 979.674 180.472 979.098 179.88C978.538 179.288 977.85 178.992 977.034 178.992C976.218 178.992 975.522 179.288 974.946 179.88C974.386 180.456 974.106 181.256 974.106 182.28C974.106 183.304 974.386 184.12 974.946 184.728C975.522 185.32 976.218 185.616 977.034 185.616C977.85 185.616 978.538 185.32 979.098 184.728C979.674 184.136 979.962 183.328 979.962 182.304ZM994.499 185.52V189H992.411C990.923 189 989.763 188.64 988.931 187.92C988.099 187.184 987.683 185.992 987.683 184.344V179.016H986.051V175.608H987.683V172.344H991.787V175.608H994.475V179.016H991.787V184.392C991.787 184.792 991.883 185.08 992.075 185.256C992.267 185.432 992.587 185.52 993.035 185.52H994.499ZM1009.41 182.088C1009.41 182.472 1009.38 182.872 1009.34 183.288H1000.05C1000.11 184.12 1000.38 184.76 1000.84 185.208C1001.32 185.64 1001.9 185.856 1002.59 185.856C1003.62 185.856 1004.33 185.424 1004.73 184.56H1009.1C1008.87 185.44 1008.46 186.232 1007.87 186.936C1007.3 187.64 1006.57 188.192 1005.69 188.592C1004.81 188.992 1003.82 189.192 1002.74 189.192C1001.42 189.192 1000.26 188.912 999.233 188.352C998.209 187.792 997.409 186.992 996.833 185.952C996.257 184.912 995.969 183.696 995.969 182.304C995.969 180.912 996.249 179.696 996.809 178.656C997.385 177.616 998.185 176.816 999.209 176.256C1000.23 175.696 1001.41 175.416 1002.74 175.416C1004.03 175.416 1005.18 175.688 1006.19 176.232C1007.2 176.776 1007.98 177.552 1008.54 178.56C1009.12 179.568 1009.41 180.744 1009.41 182.088ZM1005.21 181.008C1005.21 180.304 1004.97 179.744 1004.49 179.328C1004.01 178.912 1003.41 178.704 1002.69 178.704C1002 178.704 1001.42 178.904 1000.94 179.304C1000.47 179.704 1000.18 180.272 1000.07 181.008H1005.21Z" fill="black"/>
<rect x="854" y="154" width="176" height="54" rx="4" stroke="black" stroke-width="2"/>
<rect x="505" y="154" width="164" height="54" rx="4" fill="#A8A4FF"/>
<path d="M538.328 177.576C538.328 178.552 538.104 179.448 537.656 180.264C537.208 181.064 536.52 181.712 535.592 182.208C534.664 182.704 533.512 182.952 532.136 182.952H529.592V189H525.488V172.152H532.136C533.48 172.152 534.616 172.384 535.544 172.848C536.472 173.312 537.168 173.952 537.632 174.768C538.096 175.584 538.328 176.52 538.328 177.576ZM531.824 179.688C532.608 179.688 533.192 179.504 533.576 179.136C533.96 178.768 534.152 178.248 534.152 177.576C534.152 176.904 533.96 176.384 533.576 176.016C533.192 175.648 532.608 175.464 531.824 175.464H529.592V179.688H531.824ZM542.529 174.216C541.809 174.216 541.217 174.008 540.753 173.592C540.305 173.16 540.081 172.632 540.081 172.008C540.081 171.368 540.305 170.84 540.753 170.424C541.217 169.992 541.809 169.776 542.529 169.776C543.233 169.776 543.809 169.992 544.257 170.424C544.721 170.84 544.953 171.368 544.953 172.008C544.953 172.632 544.721 173.16 544.257 173.592C543.809 174.008 543.233 174.216 542.529 174.216ZM544.569 175.608V189H540.465V175.608H544.569ZM546.727 182.304C546.727 180.912 547.007 179.696 547.567 178.656C548.143 177.616 548.935 176.816 549.943 176.256C550.967 175.696 552.135 175.416 553.447 175.416C555.127 175.416 556.527 175.856 557.647 176.736C558.783 177.616 559.527 178.856 559.879 180.456H555.511C555.143 179.432 554.431 178.92 553.375 178.92C552.623 178.92 552.023 179.216 551.575 179.808C551.127 180.384 550.903 181.216 550.903 182.304C550.903 183.392 551.127 184.232 551.575 184.824C552.023 185.4 552.623 185.688 553.375 185.688C554.431 185.688 555.143 185.176 555.511 184.152H559.879C559.527 185.72 558.783 186.952 557.647 187.848C556.511 188.744 555.111 189.192 553.447 189.192C552.135 189.192 550.967 188.912 549.943 188.352C548.935 187.792 548.143 186.992 547.567 185.952C547.007 184.912 546.727 183.696 546.727 182.304ZM570.258 189L566.178 183.384V189H562.074V171.24H566.178V181.056L570.234 175.608H575.298L569.73 182.328L575.346 189H570.258ZM586.1 175.44V178.848H591.596V182.016H586.1V185.712H592.316V189H581.996V172.152H592.316V175.44H586.1ZM601.004 185.16L603.908 175.608H608.276L603.524 189H598.46L593.708 175.608H598.1L601.004 185.16ZM622.628 182.088C622.628 182.472 622.604 182.872 622.556 183.288H613.268C613.332 184.12 613.596 184.76 614.06 185.208C614.54 185.64 615.124 185.856 615.812 185.856C616.836 185.856 617.548 185.424 617.948 184.56H622.316C622.092 185.44 621.684 186.232 621.092 186.936C620.516 187.64 619.788 188.192 618.908 188.592C618.028 188.992 617.044 189.192 615.956 189.192C614.644 189.192 613.476 188.912 612.452 188.352C611.428 187.792 610.628 186.992 610.052 185.952C609.476 184.912 609.188 183.696 609.188 182.304C609.188 180.912 609.468 179.696 610.028 178.656C610.604 177.616 611.404 176.816 612.428 176.256C613.452 175.696 614.628 175.416 615.956 175.416C617.252 175.416 618.404 175.688 619.412 176.232C620.42 176.776 621.204 177.552 621.764 178.56C622.34 179.568 622.628 180.744 622.628 182.088ZM618.428 181.008C618.428 180.304 618.188 179.744 617.708 179.328C617.228 178.912 616.628 178.704 615.908 178.704C615.22 178.704 614.636 178.904 614.156 179.304C613.692 179.704 613.404 180.272 613.292 181.008H618.428ZM632.953 175.464C634.521 175.464 635.769 175.976 636.697 177C637.641 178.008 638.113 179.4 638.113 181.176V189H634.033V181.728C634.033 180.832 633.801 180.136 633.337 179.64C632.873 179.144 632.249 178.896 631.465 178.896C630.681 178.896 630.057 179.144 629.593 179.64C629.129 180.136 628.897 180.832 628.897 181.728V189H624.793V175.608H628.897V177.384C629.313 176.792 629.873 176.328 630.577 175.992C631.281 175.64 632.073 175.464 632.953 175.464ZM648.429 185.52V189H646.341C644.853 189 643.693 188.64 642.861 187.92C642.029 187.184 641.613 185.992 641.613 184.344V179.016H639.981V175.608H641.613V172.344H645.717V175.608H648.405V179.016H645.717V184.392C645.717 184.792 645.813 185.08 646.005 185.256C646.197 185.432 646.517 185.52 646.965 185.52H648.429Z" fill="black"/>
<rect x="505" y="154" width="164" height="54" rx="4" stroke="black" stroke-width="2"/>
<path d="M194.26 178.58H198.56L202.62 183L198.56 187.42H194.26L198.34 183L194.26 178.58ZM205.08 178.58H209.38L213.44 183L209.38 187.42H205.08L209.16 183L205.08 178.58Z" fill="black"/>
<path d="M471.26 178.58H475.56L479.62 183L475.56 187.42H471.26L475.34 183L471.26 178.58ZM482.08 178.58H486.38L490.44 183L486.38 187.42H482.08L486.16 183L482.08 178.58Z" fill="black"/>
<path d="M686.26 178.58H690.56L694.62 183L690.56 187.42H686.26L690.34 183L686.26 178.58ZM697.08 178.58H701.38L705.44 183L701.38 187.42H697.08L701.16 183L697.08 178.58Z" fill="black"/>
<path d="M820.26 176.58H824.56L828.62 181L824.56 185.42H820.26L824.34 181L820.26 176.58ZM831.08 176.58H835.38L839.44 181L835.38 185.42H831.08L835.16 181L831.08 176.58Z" fill="black"/>
<path d="M299.12 64.728V90H292.964V79.596H283.388V90H277.232V64.728H283.388V74.628H292.964V64.728H299.12ZM312.708 90.288C310.74 90.288 308.964 89.868 307.38 89.028C305.82 88.188 304.584 86.988 303.672 85.428C302.784 83.868 302.34 82.044 302.34 79.956C302.34 77.892 302.796 76.08 303.708 74.52C304.62 72.936 305.868 71.724 307.452 70.884C309.036 70.044 310.812 69.624 312.78 69.624C314.748 69.624 316.524 70.044 318.108 70.884C319.692 71.724 320.94 72.936 321.852 74.52C322.764 76.08 323.22 77.892 323.22 79.956C323.22 82.02 322.752 83.844 321.816 85.428C320.904 86.988 319.644 88.188 318.036 89.028C316.452 89.868 314.676 90.288 312.708 90.288ZM312.708 84.96C313.884 84.96 314.88 84.528 315.696 83.664C316.536 82.8 316.956 81.564 316.956 79.956C316.956 78.348 316.548 77.112 315.732 76.248C314.94 75.384 313.956 74.952 312.78 74.952C311.58 74.952 310.584 75.384 309.792 76.248C309 77.088 308.604 78.324 308.604 79.956C308.604 81.564 308.988 82.8 309.756 83.664C310.548 84.528 311.532 84.96 312.708 84.96ZM355.322 69.912L349.886 90H343.082L339.914 76.968L336.638 90H329.87L324.398 69.912H330.554L333.398 84.276L336.782 69.912H343.298L346.718 84.204L349.526 69.912H355.322ZM376.494 84.78V90H373.362C371.13 90 369.39 89.46 368.142 88.38C366.894 87.276 366.27 85.488 366.27 83.016V75.024H363.822V69.912H366.27V65.016H372.426V69.912H376.458V75.024H372.426V83.088C372.426 83.688 372.57 84.12 372.858 84.384C373.146 84.648 373.626 84.78 374.298 84.78H376.494ZM389.067 90.288C387.099 90.288 385.323 89.868 383.739 89.028C382.179 88.188 380.943 86.988 380.031 85.428C379.143 83.868 378.699 82.044 378.699 79.956C378.699 77.892 379.155 76.08 380.067 74.52C380.979 72.936 382.227 71.724 383.811 70.884C385.395 70.044 387.171 69.624 389.139 69.624C391.107 69.624 392.883 70.044 394.467 70.884C396.051 71.724 397.299 72.936 398.211 74.52C399.123 76.08 399.579 77.892 399.579 79.956C399.579 82.02 399.111 83.844 398.175 85.428C397.263 86.988 396.003 88.188 394.395 89.028C392.811 89.868 391.035 90.288 389.067 90.288ZM389.067 84.96C390.243 84.96 391.239 84.528 392.055 83.664C392.895 82.8 393.315 81.564 393.315 79.956C393.315 78.348 392.907 77.112 392.091 76.248C391.299 75.384 390.315 74.952 389.139 74.952C387.939 74.952 386.943 75.384 386.151 76.248C385.359 77.088 384.963 78.324 384.963 79.956C384.963 81.564 385.347 82.8 386.115 83.664C386.907 84.528 387.891 84.96 389.067 84.96ZM418.106 69.624C419.522 69.624 420.758 69.912 421.814 70.488C422.894 71.064 423.722 71.82 424.298 72.756V69.912H430.454V89.964C430.454 91.812 430.082 93.48 429.338 94.968C428.618 96.48 427.502 97.68 425.99 98.568C424.502 99.456 422.642 99.9 420.41 99.9C417.434 99.9 415.022 99.192 413.174 97.776C411.326 96.384 410.27 94.488 410.006 92.088H416.09C416.282 92.856 416.738 93.456 417.458 93.888C418.178 94.344 419.066 94.572 420.122 94.572C421.394 94.572 422.402 94.2 423.146 93.456C423.914 92.736 424.298 91.572 424.298 89.964V87.12C423.698 88.056 422.87 88.824 421.814 89.424C420.758 90 419.522 90.288 418.106 90.288C416.45 90.288 414.95 89.868 413.606 89.028C412.262 88.164 411.194 86.952 410.402 85.392C409.634 83.808 409.25 81.984 409.25 79.92C409.25 77.856 409.634 76.044 410.402 74.484C411.194 72.924 412.262 71.724 413.606 70.884C414.95 70.044 416.45 69.624 418.106 69.624ZM424.298 79.956C424.298 78.42 423.866 77.208 423.002 76.32C422.162 75.432 421.13 74.988 419.906 74.988C418.682 74.988 417.638 75.432 416.774 76.32C415.934 77.184 415.514 78.384 415.514 79.92C415.514 81.456 415.934 82.68 416.774 83.592C417.638 84.48 418.682 84.924 419.906 84.924C421.13 84.924 422.162 84.48 423.002 83.592C423.866 82.704 424.298 81.492 424.298 79.956ZM453.844 79.632C453.844 80.208 453.808 80.808 453.736 81.432H439.804C439.9 82.68 440.296 83.64 440.992 84.312C441.712 84.96 442.588 85.284 443.62 85.284C445.156 85.284 446.224 84.636 446.824 83.34H453.376C453.04 84.66 452.428 85.848 451.54 86.904C450.676 87.96 449.584 88.788 448.264 89.388C446.944 89.988 445.468 90.288 443.836 90.288C441.868 90.288 440.116 89.868 438.58 89.028C437.044 88.188 435.844 86.988 434.98 85.428C434.116 83.868 433.684 82.044 433.684 79.956C433.684 77.868 434.104 76.044 434.944 74.484C435.808 72.924 437.008 71.724 438.544 70.884C440.08 70.044 441.844 69.624 443.836 69.624C445.78 69.624 447.508 70.032 449.02 70.848C450.532 71.664 451.708 72.828 452.548 74.34C453.412 75.852 453.844 77.616 453.844 79.632ZM447.544 78.012C447.544 76.956 447.184 76.116 446.464 75.492C445.744 74.868 444.844 74.556 443.764 74.556C442.732 74.556 441.856 74.856 441.136 75.456C440.44 76.056 440.008 76.908 439.84 78.012H447.544ZM468.287 84.78V90H465.155C462.923 90 461.183 89.46 459.935 88.38C458.687 87.276 458.063 85.488 458.063 83.016V75.024H455.615V69.912H458.063V65.016H464.219V69.912H468.251V75.024H464.219V83.088C464.219 83.688 464.363 84.12 464.651 84.384C464.939 84.648 465.419 84.78 466.091 84.78H468.287ZM488.489 90.252C486.641 90.252 484.985 89.952 483.521 89.352C482.057 88.752 480.881 87.864 479.993 86.688C479.129 85.512 478.673 84.096 478.625 82.44H485.177C485.273 83.376 485.597 84.096 486.149 84.6C486.701 85.08 487.421 85.32 488.309 85.32C489.221 85.32 489.941 85.116 490.469 84.708C490.997 84.276 491.261 83.688 491.261 82.944C491.261 82.32 491.045 81.804 490.613 81.396C490.205 80.988 489.689 80.652 489.065 80.388C488.465 80.124 487.601 79.824 486.473 79.488C484.841 78.984 483.509 78.48 482.477 77.976C481.445 77.472 480.557 76.728 479.813 75.744C479.069 74.76 478.697 73.476 478.697 71.892C478.697 69.54 479.549 67.704 481.253 66.384C482.957 65.04 485.177 64.368 487.913 64.368C490.697 64.368 492.941 65.04 494.645 66.384C496.349 67.704 497.261 69.552 497.381 71.928H490.721C490.673 71.112 490.373 70.476 489.821 70.02C489.269 69.54 488.561 69.3 487.697 69.3C486.953 69.3 486.353 69.504 485.897 69.912C485.441 70.296 485.213 70.86 485.213 71.604C485.213 72.42 485.597 73.056 486.365 73.512C487.133 73.968 488.333 74.46 489.965 74.988C491.597 75.54 492.917 76.068 493.925 76.572C494.957 77.076 495.845 77.808 496.589 78.768C497.333 79.728 497.705 80.964 497.705 82.476C497.705 83.916 497.333 85.224 496.589 86.4C495.869 87.576 494.813 88.512 493.421 89.208C492.029 89.904 490.385 90.252 488.489 90.252ZM512.69 84.78V90H509.558C507.326 90 505.586 89.46 504.338 88.38C503.09 87.276 502.466 85.488 502.466 83.016V75.024H500.018V69.912H502.466V65.016H508.622V69.912H512.654V75.024H508.622V83.088C508.622 83.688 508.766 84.12 509.054 84.384C509.342 84.648 509.822 84.78 510.494 84.78H512.69ZM514.895 79.92C514.895 77.856 515.279 76.044 516.047 74.484C516.839 72.924 517.907 71.724 519.251 70.884C520.595 70.044 522.095 69.624 523.751 69.624C525.167 69.624 526.403 69.912 527.459 70.488C528.539 71.064 529.367 71.82 529.943 72.756V69.912H536.099V90H529.943V87.156C529.343 88.092 528.503 88.848 527.423 89.424C526.367 90 525.131 90.288 523.715 90.288C522.083 90.288 520.595 89.868 519.251 89.028C517.907 88.164 516.839 86.952 516.047 85.392C515.279 83.808 514.895 81.984 514.895 79.92ZM529.943 79.956C529.943 78.42 529.511 77.208 528.647 76.32C527.807 75.432 526.775 74.988 525.551 74.988C524.327 74.988 523.283 75.432 522.419 76.32C521.579 77.184 521.159 78.384 521.159 79.92C521.159 81.456 521.579 82.68 522.419 83.592C523.283 84.48 524.327 84.924 525.551 84.924C526.775 84.924 527.807 84.48 528.647 83.592C529.511 82.704 529.943 81.492 529.943 79.956ZM546.708 73.26C547.428 72.156 548.328 71.292 549.408 70.668C550.488 70.02 551.688 69.696 553.008 69.696V76.212H551.316C549.78 76.212 548.628 76.548 547.86 77.22C547.092 77.868 546.708 79.02 546.708 80.676V90H540.552V69.912H546.708V73.26ZM567.147 84.78V90H564.015C561.783 90 560.043 89.46 558.795 88.38C557.547 87.276 556.923 85.488 556.923 83.016V75.024H554.475V69.912H556.923V65.016H563.079V69.912H567.111V75.024H563.079V83.088C563.079 83.688 563.223 84.12 563.511 84.384C563.799 84.648 564.279 84.78 564.951 84.78H567.147ZM589.512 79.632C589.512 80.208 589.476 80.808 589.404 81.432H575.472C575.568 82.68 575.964 83.64 576.66 84.312C577.38 84.96 578.256 85.284 579.288 85.284C580.824 85.284 581.892 84.636 582.492 83.34H589.044C588.708 84.66 588.096 85.848 587.208 86.904C586.344 87.96 585.252 88.788 583.932 89.388C582.612 89.988 581.136 90.288 579.504 90.288C577.536 90.288 575.784 89.868 574.248 89.028C572.712 88.188 571.512 86.988 570.648 85.428C569.784 83.868 569.352 82.044 569.352 79.956C569.352 77.868 569.772 76.044 570.612 74.484C571.476 72.924 572.676 71.724 574.212 70.884C575.748 70.044 577.512 69.624 579.504 69.624C581.448 69.624 583.176 70.032 584.688 70.848C586.2 71.664 587.376 72.828 588.216 74.34C589.08 75.852 589.512 77.616 589.512 79.632ZM583.212 78.012C583.212 76.956 582.852 76.116 582.132 75.492C581.412 74.868 580.512 74.556 579.432 74.556C578.4 74.556 577.524 74.856 576.804 75.456C576.108 76.056 575.676 76.908 575.508 78.012H583.212ZM591.535 79.92C591.535 77.856 591.919 76.044 592.687 74.484C593.479 72.924 594.547 71.724 595.891 70.884C597.235 70.044 598.735 69.624 600.391 69.624C601.711 69.624 602.911 69.9 603.991 70.452C605.095 71.004 605.959 71.748 606.583 72.684V63.36H612.739V90H606.583V87.12C606.007 88.08 605.179 88.848 604.099 89.424C603.043 90 601.807 90.288 600.391 90.288C598.735 90.288 597.235 89.868 595.891 89.028C594.547 88.164 593.479 86.952 592.687 85.392C591.919 83.808 591.535 81.984 591.535 79.92ZM606.583 79.956C606.583 78.42 606.151 77.208 605.287 76.32C604.447 75.432 603.415 74.988 602.191 74.988C600.967 74.988 599.923 75.432 599.059 76.32C598.219 77.184 597.799 78.384 597.799 79.92C597.799 81.456 598.219 82.68 599.059 83.592C599.923 84.48 600.967 84.924 602.191 84.924C603.415 84.924 604.447 84.48 605.287 83.592C606.151 82.704 606.583 81.492 606.583 79.956ZM624.573 63.324C627.141 63.324 629.193 63.996 630.729 65.34C632.289 66.684 633.069 68.58 633.069 71.028C633.069 73.284 632.325 75.048 630.837 76.32C629.373 77.568 627.429 78.204 625.005 78.228L624.825 80.928H619.425L619.245 74.232H621.405C623.253 74.232 624.657 74.004 625.617 73.548C626.601 73.092 627.093 72.264 627.093 71.064C627.093 70.224 626.865 69.564 626.409 69.084C625.953 68.604 625.317 68.364 624.501 68.364C623.637 68.364 622.965 68.616 622.485 69.12C622.005 69.6 621.765 70.26 621.765 71.1H615.969C615.921 69.636 616.221 68.316 616.869 67.14C617.541 65.964 618.525 65.04 619.821 64.368C621.141 63.672 622.725 63.324 624.573 63.324ZM622.197 90.288C621.117 90.288 620.229 89.976 619.533 89.352C618.861 88.704 618.525 87.912 618.525 86.976C618.525 86.016 618.861 85.212 619.533 84.564C620.229 83.916 621.117 83.592 622.197 83.592C623.253 83.592 624.117 83.916 624.789 84.564C625.485 85.212 625.833 86.016 625.833 86.976C625.833 87.912 625.485 88.704 624.789 89.352C624.117 89.976 623.253 90.288 622.197 90.288ZM653.337 90.252C651.489 90.252 649.833 89.952 648.369 89.352C646.905 88.752 645.729 87.864 644.841 86.688C643.977 85.512 643.521 84.096 643.473 82.44H650.025C650.121 83.376 650.445 84.096 650.997 84.6C651.549 85.08 652.269 85.32 653.157 85.32C654.069 85.32 654.789 85.116 655.317 84.708C655.845 84.276 656.109 83.688 656.109 82.944C656.109 82.32 655.893 81.804 655.461 81.396C655.053 80.988 654.537 80.652 653.913 80.388C653.313 80.124 652.449 79.824 651.321 79.488C649.689 78.984 648.357 78.48 647.325 77.976C646.293 77.472 645.405 76.728 644.661 75.744C643.917 74.76 643.545 73.476 643.545 71.892C643.545 69.54 644.397 67.704 646.101 66.384C647.805 65.04 650.025 64.368 652.761 64.368C655.545 64.368 657.789 65.04 659.493 66.384C661.197 67.704 662.109 69.552 662.229 71.928H655.569C655.521 71.112 655.221 70.476 654.669 70.02C654.117 69.54 653.409 69.3 652.545 69.3C651.801 69.3 651.201 69.504 650.745 69.912C650.289 70.296 650.061 70.86 650.061 71.604C650.061 72.42 650.445 73.056 651.213 73.512C651.981 73.968 653.181 74.46 654.813 74.988C656.445 75.54 657.765 76.068 658.773 76.572C659.805 77.076 660.693 77.808 661.437 78.768C662.181 79.728 662.553 80.964 662.553 82.476C662.553 83.916 662.181 85.224 661.437 86.4C660.717 87.576 659.661 88.512 658.269 89.208C656.877 89.904 655.233 90.252 653.337 90.252ZM669.437 67.824C668.357 67.824 667.469 67.512 666.773 66.888C666.101 66.24 665.765 65.448 665.765 64.512C665.765 63.552 666.101 62.76 666.773 62.136C667.469 61.488 668.357 61.164 669.437 61.164C670.493 61.164 671.357 61.488 672.029 62.136C672.725 62.76 673.073 63.552 673.073 64.512C673.073 65.448 672.725 66.24 672.029 66.888C671.357 67.512 670.493 67.824 669.437 67.824ZM672.497 69.912V90H666.341V69.912H672.497ZM702.591 69.696C705.087 69.696 707.067 70.452 708.531 71.964C710.019 73.476 710.763 75.576 710.763 78.264V90H704.643V79.092C704.643 77.796 704.295 76.8 703.599 76.104C702.927 75.384 701.991 75.024 700.791 75.024C699.591 75.024 698.643 75.384 697.947 76.104C697.275 76.8 696.939 77.796 696.939 79.092V90H690.819V79.092C690.819 77.796 690.471 76.8 689.775 76.104C689.103 75.384 688.167 75.024 686.967 75.024C685.767 75.024 684.819 75.384 684.123 76.104C683.451 76.8 683.115 77.796 683.115 79.092V90H676.959V69.912H683.115V72.432C683.739 71.592 684.555 70.932 685.563 70.452C686.571 69.948 687.711 69.696 688.983 69.696C690.495 69.696 691.839 70.02 693.015 70.668C694.215 71.316 695.151 72.24 695.823 73.44C696.519 72.336 697.467 71.436 698.667 70.74C699.867 70.044 701.175 69.696 702.591 69.696ZM721.224 72.756C721.824 71.82 722.652 71.064 723.708 70.488C724.764 69.912 726 69.624 727.416 69.624C729.072 69.624 730.572 70.044 731.916 70.884C733.26 71.724 734.316 72.924 735.084 74.484C735.876 76.044 736.272 77.856 736.272 79.92C736.272 81.984 735.876 83.808 735.084 85.392C734.316 86.952 733.26 88.164 731.916 89.028C730.572 89.868 729.072 90.288 727.416 90.288C726.024 90.288 724.788 90 723.708 89.424C722.652 88.848 721.824 88.104 721.224 87.192V99.576H715.068V69.912H721.224V72.756ZM730.008 79.92C730.008 78.384 729.576 77.184 728.712 76.32C727.872 75.432 726.828 74.988 725.58 74.988C724.356 74.988 723.312 75.432 722.448 76.32C721.608 77.208 721.188 78.42 721.188 79.956C721.188 81.492 721.608 82.704 722.448 83.592C723.312 84.48 724.356 84.924 725.58 84.924C726.804 84.924 727.848 84.48 728.712 83.592C729.576 82.68 730.008 81.456 730.008 79.92ZM745.658 63.36V90H739.502V63.36H745.658ZM769.055 79.632C769.055 80.208 769.019 80.808 768.947 81.432H755.015C755.111 82.68 755.507 83.64 756.203 84.312C756.923 84.96 757.799 85.284 758.831 85.284C760.367 85.284 761.435 84.636 762.035 83.34H768.587C768.251 84.66 767.639 85.848 766.751 86.904C765.887 87.96 764.795 88.788 763.475 89.388C762.155 89.988 760.679 90.288 759.047 90.288C757.079 90.288 755.327 89.868 753.791 89.028C752.255 88.188 751.055 86.988 750.191 85.428C749.327 83.868 748.895 82.044 748.895 79.956C748.895 77.868 749.315 76.044 750.155 74.484C751.019 72.924 752.219 71.724 753.755 70.884C755.291 70.044 757.055 69.624 759.047 69.624C760.991 69.624 762.719 70.032 764.231 70.848C765.743 71.664 766.919 72.828 767.759 74.34C768.623 75.852 769.055 77.616 769.055 79.632ZM762.755 78.012C762.755 76.956 762.395 76.116 761.675 75.492C760.955 74.868 760.055 74.556 758.975 74.556C757.943 74.556 757.067 74.856 756.347 75.456C755.651 76.056 755.219 76.908 755.051 78.012H762.755ZM775.182 90.288C774.102 90.288 773.214 89.976 772.518 89.352C771.846 88.704 771.51 87.912 771.51 86.976C771.51 86.016 771.846 85.212 772.518 84.564C773.214 83.916 774.102 83.592 775.182 83.592C776.238 83.592 777.102 83.916 777.774 84.564C778.47 85.212 778.818 86.016 778.818 86.976C778.818 87.912 778.47 88.704 777.774 89.352C777.102 89.976 776.238 90.288 775.182 90.288ZM785.342 90.288C784.262 90.288 783.374 89.976 782.678 89.352C782.006 88.704 781.67 87.912 781.67 86.976C781.67 86.016 782.006 85.212 782.678 84.564C783.374 83.916 784.262 83.592 785.342 83.592C786.398 83.592 787.262 83.916 787.934 84.564C788.63 85.212 788.978 86.016 788.978 86.976C788.978 87.912 788.63 88.704 787.934 89.352C787.262 89.976 786.398 90.288 785.342 90.288Z" fill="black"/>
</g>
<defs>
<filter id="filter0_d_573_210" x="0" y="0" width="1070" height="291" filterUnits="userSpaceOnUse" color-interpolation-filters="sRGB">
<feFlood flood-opacity="0" result="BackgroundImageFix"/>
<feColorMatrix in="SourceAlpha" type="matrix" values="0 0 0 0 0 0 0 0 0 0 0 0 0 0 0 0 0 0 127 0" result="hardAlpha"/>
<feOffset dx="5" dy="5"/>
<feComposite in2="hardAlpha" operator="out"/>
<feColorMatrix type="matrix" values="0 0 0 0 0 0 0 0 0 0 0 0 0 0 0 0 0 0 1 0"/>
<feBlend mode="normal" in2="BackgroundImageFix" result="effect1_dropShadow_573_210"/>
<feBlend mode="normal" in="SourceGraphic" in2="effect1_dropShadow_573_210" result="shape"/>
</filter>
</defs>
</svg>
