<svg width="503" height="756" viewBox="0 0 503 756" fill="none" xmlns="http://www.w3.org/2000/svg">
<g filter="url(#filter0_d_583_892)">
<rect width="498" height="751" rx="20" fill="#E7E6FF"/>
<rect x="180" y="212" width="140" height="54" rx="4" fill="#6560D3"/>
<path d="M209.08 247L205.576 240.64H204.592V247H200.488V230.152H207.376C208.704 230.152 209.832 230.384 210.76 230.848C211.704 231.312 212.408 231.952 212.872 232.768C213.336 233.568 213.568 234.464 213.568 235.456C213.568 236.576 213.248 237.576 212.608 238.456C211.984 239.336 211.056 239.96 209.824 240.328L213.712 247H209.08ZM204.592 237.736H207.136C207.888 237.736 208.448 237.552 208.816 237.184C209.2 236.816 209.392 236.296 209.392 235.624C209.392 234.984 209.2 234.48 208.816 234.112C208.448 233.744 207.888 233.56 207.136 233.56H204.592V237.736ZM228.768 240.088C228.768 240.472 228.744 240.872 228.696 241.288H219.408C219.472 242.12 219.736 242.76 220.2 243.208C220.68 243.64 221.264 243.856 221.952 243.856C222.976 243.856 223.688 243.424 224.088 242.56H228.456C228.232 243.44 227.824 244.232 227.232 244.936C226.656 245.64 225.928 246.192 225.048 246.592C224.168 246.992 223.184 247.192 222.096 247.192C220.784 247.192 219.616 246.912 218.592 246.352C217.568 245.792 216.768 244.992 216.192 243.952C215.616 242.912 215.328 241.696 215.328 240.304C215.328 238.912 215.608 237.696 216.168 236.656C216.744 235.616 217.544 234.816 218.568 234.256C219.592 233.696 220.768 233.416 222.096 233.416C223.392 233.416 224.544 233.688 225.552 234.232C226.56 234.776 227.344 235.552 227.904 236.56C228.48 237.568 228.768 238.744 228.768 240.088ZM224.568 239.008C224.568 238.304 224.328 237.744 223.848 237.328C223.368 236.912 222.768 236.704 222.048 236.704C221.36 236.704 220.776 236.904 220.296 237.304C219.832 237.704 219.544 238.272 219.432 239.008H224.568ZM236.021 233.416C236.965 233.416 237.789 233.608 238.493 233.992C239.213 234.376 239.765 234.88 240.149 235.504V233.608H244.253V246.976C244.253 248.208 244.005 249.32 243.509 250.312C243.029 251.32 242.285 252.12 241.277 252.712C240.285 253.304 239.045 253.6 237.557 253.6C235.573 253.6 233.965 253.128 232.733 252.184C231.501 251.256 230.797 249.992 230.621 248.392H234.677C234.805 248.904 235.109 249.304 235.589 249.592C236.069 249.896 236.661 250.048 237.365 250.048C238.213 250.048 238.885 249.8 239.381 249.304C239.893 248.824 240.149 248.048 240.149 246.976V245.08C239.749 245.704 239.197 246.216 238.493 246.616C237.789 247 236.965 247.192 236.021 247.192C234.917 247.192 233.917 246.912 233.021 246.352C232.125 245.776 231.413 244.968 230.885 243.928C230.373 242.872 230.117 241.656 230.117 240.28C230.117 238.904 230.373 237.696 230.885 236.656C231.413 235.616 232.125 234.816 233.021 234.256C233.917 233.696 234.917 233.416 236.021 233.416ZM240.149 240.304C240.149 239.28 239.861 238.472 239.285 237.88C238.725 237.288 238.037 236.992 237.221 236.992C236.405 236.992 235.709 237.288 235.133 237.88C234.573 238.456 234.293 239.256 234.293 240.28C234.293 241.304 234.573 242.12 235.133 242.728C235.709 243.32 236.405 243.616 237.221 243.616C238.037 243.616 238.725 243.32 239.285 242.728C239.861 242.136 240.149 241.328 240.149 240.304ZM249.286 232.216C248.566 232.216 247.974 232.008 247.51 231.592C247.062 231.16 246.838 230.632 246.838 230.008C246.838 229.368 247.062 228.84 247.51 228.424C247.974 227.992 248.566 227.776 249.286 227.776C249.99 227.776 250.566 227.992 251.014 228.424C251.478 228.84 251.71 229.368 251.71 230.008C251.71 230.632 251.478 231.16 251.014 231.592C250.566 232.008 249.99 232.216 249.286 232.216ZM251.326 233.608V247H247.222V233.608H251.326ZM259.749 247.192C258.581 247.192 257.541 246.992 256.629 246.592C255.717 246.192 254.997 245.648 254.469 244.96C253.941 244.256 253.645 243.472 253.581 242.608H257.637C257.685 243.072 257.901 243.448 258.285 243.736C258.669 244.024 259.141 244.168 259.701 244.168C260.213 244.168 260.605 244.072 260.877 243.88C261.165 243.672 261.309 243.408 261.309 243.088C261.309 242.704 261.109 242.424 260.709 242.248C260.309 242.056 259.661 241.848 258.765 241.624C257.805 241.4 257.005 241.168 256.365 240.928C255.725 240.672 255.173 240.28 254.709 239.752C254.245 239.208 254.013 238.48 254.013 237.568C254.013 236.8 254.221 236.104 254.637 235.48C255.069 234.84 255.693 234.336 256.509 233.968C257.341 233.6 258.325 233.416 259.461 233.416C261.141 233.416 262.461 233.832 263.421 234.664C264.397 235.496 264.957 236.6 265.101 237.976H261.309C261.245 237.512 261.037 237.144 260.685 236.872C260.349 236.6 259.901 236.464 259.341 236.464C258.861 236.464 258.493 236.56 258.237 236.752C257.981 236.928 257.853 237.176 257.853 237.496C257.853 237.88 258.053 238.168 258.453 238.36C258.869 238.552 259.509 238.744 260.373 238.936C261.365 239.192 262.173 239.448 262.797 239.704C263.421 239.944 263.965 240.344 264.429 240.904C264.909 241.448 265.157 242.184 265.173 243.112C265.173 243.896 264.949 244.6 264.501 245.224C264.069 245.832 263.437 246.312 262.605 246.664C261.789 247.016 260.837 247.192 259.749 247.192ZM275.147 243.52V247H273.059C271.571 247 270.411 246.64 269.579 245.92C268.747 245.184 268.331 243.992 268.331 242.344V237.016H266.699V233.608H268.331V230.344H272.435V233.608H275.123V237.016H272.435V242.392C272.435 242.792 272.531 243.08 272.723 243.256C272.915 243.432 273.235 243.52 273.683 243.52H275.147ZM290.057 240.088C290.057 240.472 290.033 240.872 289.985 241.288H280.697C280.761 242.12 281.025 242.76 281.489 243.208C281.969 243.64 282.553 243.856 283.241 243.856C284.265 243.856 284.977 243.424 285.377 242.56H289.745C289.521 243.44 289.113 244.232 288.521 244.936C287.945 245.64 287.217 246.192 286.337 246.592C285.457 246.992 284.473 247.192 283.385 247.192C282.073 247.192 280.905 246.912 279.881 246.352C278.857 245.792 278.057 244.992 277.481 243.952C276.905 242.912 276.617 241.696 276.617 240.304C276.617 238.912 276.897 237.696 277.457 236.656C278.033 235.616 278.833 234.816 279.857 234.256C280.881 233.696 282.057 233.416 283.385 233.416C284.681 233.416 285.833 233.688 286.841 234.232C287.849 234.776 288.633 235.552 289.193 236.56C289.769 237.568 290.057 238.744 290.057 240.088ZM285.857 239.008C285.857 238.304 285.617 237.744 285.137 237.328C284.657 236.912 284.057 236.704 283.337 236.704C282.649 236.704 282.065 236.904 281.585 237.304C281.121 237.704 280.833 238.272 280.721 239.008H285.857ZM296.326 235.84C296.806 235.104 297.406 234.528 298.126 234.112C298.846 233.68 299.646 233.464 300.526 233.464V237.808H299.398C298.374 237.808 297.606 238.032 297.094 238.48C296.582 238.912 296.326 239.68 296.326 240.784V247H292.222V233.608H296.326V235.84Z" fill="black"/>
<rect x="180" y="212" width="140" height="54" rx="4" stroke="black" stroke-width="2"/>
<rect x="135" y="311" width="229" height="54" rx="4" fill="#F5C567"/>
<path d="M160.576 332.416C161.52 332.416 162.344 332.608 163.048 332.992C163.768 333.376 164.32 333.88 164.704 334.504V332.608H168.808V345.976C168.808 347.208 168.56 348.32 168.064 349.312C167.584 350.32 166.84 351.12 165.832 351.712C164.84 352.304 163.6 352.6 162.112 352.6C160.128 352.6 158.52 352.128 157.288 351.184C156.056 350.256 155.352 348.992 155.176 347.392H159.232C159.36 347.904 159.664 348.304 160.144 348.592C160.624 348.896 161.216 349.048 161.92 349.048C162.768 349.048 163.44 348.8 163.936 348.304C164.448 347.824 164.704 347.048 164.704 345.976V344.08C164.304 344.704 163.752 345.216 163.048 345.616C162.344 346 161.52 346.192 160.576 346.192C159.472 346.192 158.472 345.912 157.576 345.352C156.68 344.776 155.968 343.968 155.44 342.928C154.928 341.872 154.672 340.656 154.672 339.28C154.672 337.904 154.928 336.696 155.44 335.656C155.968 334.616 156.68 333.816 157.576 333.256C158.472 332.696 159.472 332.416 160.576 332.416ZM164.704 339.304C164.704 338.28 164.416 337.472 163.84 336.88C163.28 336.288 162.592 335.992 161.776 335.992C160.96 335.992 160.264 336.288 159.688 336.88C159.128 337.456 158.848 338.256 158.848 339.28C158.848 340.304 159.128 341.12 159.688 341.728C160.264 342.32 160.96 342.616 161.776 342.616C162.592 342.616 163.28 342.32 163.84 341.728C164.416 341.136 164.704 340.328 164.704 339.304ZM184.401 339.088C184.401 339.472 184.377 339.872 184.329 340.288H175.041C175.105 341.12 175.369 341.76 175.833 342.208C176.313 342.64 176.897 342.856 177.585 342.856C178.609 342.856 179.321 342.424 179.721 341.56H184.089C183.865 342.44 183.457 343.232 182.865 343.936C182.289 344.64 181.561 345.192 180.681 345.592C179.801 345.992 178.817 346.192 177.729 346.192C176.417 346.192 175.249 345.912 174.225 345.352C173.201 344.792 172.401 343.992 171.825 342.952C171.249 341.912 170.961 340.696 170.961 339.304C170.961 337.912 171.241 336.696 171.801 335.656C172.377 334.616 173.177 333.816 174.201 333.256C175.225 332.696 176.401 332.416 177.729 332.416C179.025 332.416 180.177 332.688 181.185 333.232C182.193 333.776 182.977 334.552 183.537 335.56C184.113 336.568 184.401 337.744 184.401 339.088ZM180.201 338.008C180.201 337.304 179.961 336.744 179.481 336.328C179.001 335.912 178.401 335.704 177.681 335.704C176.993 335.704 176.409 335.904 175.929 336.304C175.465 336.704 175.177 337.272 175.065 338.008H180.201ZM194.03 342.52V346H191.942C190.454 346 189.294 345.64 188.462 344.92C187.63 344.184 187.214 342.992 187.214 341.344V336.016H185.582V332.608H187.214V329.344H191.318V332.608H194.006V336.016H191.318V341.392C191.318 341.792 191.414 342.08 191.606 342.256C191.798 342.432 192.118 342.52 192.566 342.52H194.03ZM211.89 343.024H205.602L204.594 346H200.298L206.394 329.152H211.146L217.242 346H212.898L211.89 343.024ZM210.834 339.856L208.746 333.688L206.682 339.856H210.834ZM227.257 332.464C228.825 332.464 230.073 332.976 231.001 334C231.945 335.008 232.417 336.4 232.417 338.176V346H228.337V338.728C228.337 337.832 228.105 337.136 227.641 336.64C227.177 336.144 226.553 335.896 225.769 335.896C224.985 335.896 224.361 336.144 223.897 336.64C223.433 337.136 223.201 337.832 223.201 338.728V346H219.097V332.608H223.201V334.384C223.617 333.792 224.177 333.328 224.881 332.992C225.585 332.64 226.377 332.464 227.257 332.464ZM254.493 332.608L250.869 346H246.333L244.221 337.312L242.037 346H237.525L233.877 332.608H237.981L239.877 342.184L242.133 332.608H246.477L248.757 342.136L250.629 332.608H254.493ZM268.682 339.088C268.682 339.472 268.658 339.872 268.61 340.288H259.322C259.386 341.12 259.65 341.76 260.114 342.208C260.594 342.64 261.178 342.856 261.866 342.856C262.89 342.856 263.602 342.424 264.002 341.56H268.37C268.146 342.44 267.738 343.232 267.146 343.936C266.57 344.64 265.842 345.192 264.962 345.592C264.082 345.992 263.098 346.192 262.01 346.192C260.698 346.192 259.53 345.912 258.506 345.352C257.482 344.792 256.682 343.992 256.106 342.952C255.53 341.912 255.242 340.696 255.242 339.304C255.242 337.912 255.522 336.696 256.082 335.656C256.658 334.616 257.458 333.816 258.482 333.256C259.506 332.696 260.682 332.416 262.01 332.416C263.306 332.416 264.458 332.688 265.466 333.232C266.474 333.776 267.258 334.552 267.818 335.56C268.394 336.568 268.682 337.744 268.682 339.088ZM264.482 338.008C264.482 337.304 264.242 336.744 263.762 336.328C263.282 335.912 262.682 335.704 261.962 335.704C261.274 335.704 260.69 335.904 260.21 336.304C259.746 336.704 259.458 337.272 259.346 338.008H264.482ZM276.295 346.192C275.127 346.192 274.087 345.992 273.175 345.592C272.263 345.192 271.543 344.648 271.015 343.96C270.487 343.256 270.191 342.472 270.127 341.608H274.183C274.231 342.072 274.447 342.448 274.831 342.736C275.215 343.024 275.687 343.168 276.247 343.168C276.759 343.168 277.151 343.072 277.423 342.88C277.711 342.672 277.855 342.408 277.855 342.088C277.855 341.704 277.655 341.424 277.255 341.248C276.855 341.056 276.207 340.848 275.311 340.624C274.351 340.4 273.551 340.168 272.911 339.928C272.271 339.672 271.719 339.28 271.255 338.752C270.791 338.208 270.559 337.48 270.559 336.568C270.559 335.8 270.767 335.104 271.183 334.48C271.615 333.84 272.239 333.336 273.055 332.968C273.887 332.6 274.871 332.416 276.007 332.416C277.687 332.416 279.007 332.832 279.967 333.664C280.943 334.496 281.503 335.6 281.647 336.976H277.855C277.791 336.512 277.583 336.144 277.231 335.872C276.895 335.6 276.447 335.464 275.887 335.464C275.407 335.464 275.039 335.56 274.783 335.752C274.527 335.928 274.399 336.176 274.399 336.496C274.399 336.88 274.599 337.168 274.999 337.36C275.415 337.552 276.055 337.744 276.919 337.936C277.911 338.192 278.719 338.448 279.343 338.704C279.967 338.944 280.511 339.344 280.975 339.904C281.455 340.448 281.703 341.184 281.719 342.112C281.719 342.896 281.495 343.6 281.047 344.224C280.615 344.832 279.983 345.312 279.151 345.664C278.335 346.016 277.383 346.192 276.295 346.192ZM292.462 332.464C293.998 332.464 295.23 332.976 296.158 334C297.086 335.008 297.55 336.4 297.55 338.176V346H293.47V338.728C293.47 337.832 293.238 337.136 292.774 336.64C292.31 336.144 291.686 335.896 290.902 335.896C290.118 335.896 289.494 336.144 289.03 336.64C288.566 337.136 288.334 337.832 288.334 338.728V346H284.23V328.24H288.334V334.408C288.75 333.816 289.318 333.344 290.038 332.992C290.758 332.64 291.566 332.464 292.462 332.464ZM299.586 339.28C299.586 337.904 299.842 336.696 300.354 335.656C300.882 334.616 301.594 333.816 302.49 333.256C303.386 332.696 304.386 332.416 305.49 332.416C306.434 332.416 307.258 332.608 307.962 332.992C308.682 333.376 309.234 333.88 309.618 334.504V332.608H313.722V346H309.618V344.104C309.218 344.728 308.658 345.232 307.938 345.616C307.234 346 306.41 346.192 305.466 346.192C304.378 346.192 303.386 345.912 302.49 345.352C301.594 344.776 300.882 343.968 300.354 342.928C299.842 341.872 299.586 340.656 299.586 339.28ZM309.618 339.304C309.618 338.28 309.33 337.472 308.754 336.88C308.194 336.288 307.506 335.992 306.69 335.992C305.874 335.992 305.178 336.288 304.602 336.88C304.042 337.456 303.762 338.256 303.762 339.28C303.762 340.304 304.042 341.12 304.602 341.728C305.178 342.32 305.874 342.616 306.69 342.616C307.506 342.616 308.194 342.32 308.754 341.728C309.33 341.136 309.618 340.328 309.618 339.304ZM325.881 329.152V346H321.777V329.152H325.881ZM335.167 329.152C336.943 329.152 338.495 329.504 339.823 330.208C341.151 330.912 342.175 331.904 342.895 333.184C343.631 334.448 343.999 335.912 343.999 337.576C343.999 339.224 343.631 340.688 342.895 341.968C342.175 343.248 341.143 344.24 339.799 344.944C338.471 345.648 336.927 346 335.167 346H328.855V329.152H335.167ZM334.903 342.448C336.455 342.448 337.663 342.024 338.527 341.176C339.391 340.328 339.823 339.128 339.823 337.576C339.823 336.024 339.391 334.816 338.527 333.952C337.663 333.088 336.455 332.656 334.903 332.656H332.959V342.448H334.903Z" fill="black"/>
<rect x="135" y="311" width="229" height="54" rx="4" stroke="black" stroke-width="2"/>
<rect x="206" y="509" width="85" height="54" rx="4" fill="#0FA958"/>
<path d="M239.328 532.576C239.328 533.552 239.104 534.448 238.656 535.264C238.208 536.064 237.52 536.712 236.592 537.208C235.664 537.704 234.512 537.952 233.136 537.952H230.592V544H226.488V527.152H233.136C234.48 527.152 235.616 527.384 236.544 527.848C237.472 528.312 238.168 528.952 238.632 529.768C239.096 530.584 239.328 531.52 239.328 532.576ZM232.824 534.688C233.608 534.688 234.192 534.504 234.576 534.136C234.96 533.768 235.152 533.248 235.152 532.576C235.152 531.904 234.96 531.384 234.576 531.016C234.192 530.648 233.608 530.464 232.824 530.464H230.592V534.688H232.824ZM240.649 537.28C240.649 535.904 240.905 534.696 241.417 533.656C241.945 532.616 242.657 531.816 243.553 531.256C244.449 530.696 245.449 530.416 246.553 530.416C247.497 530.416 248.321 530.608 249.025 530.992C249.745 531.376 250.297 531.88 250.681 532.504V530.608H254.785V544H250.681V542.104C250.281 542.728 249.721 543.232 249.001 543.616C248.297 544 247.473 544.192 246.529 544.192C245.441 544.192 244.449 543.912 243.553 543.352C242.657 542.776 241.945 541.968 241.417 540.928C240.905 539.872 240.649 538.656 240.649 537.28ZM250.681 537.304C250.681 536.28 250.393 535.472 249.817 534.88C249.257 534.288 248.569 533.992 247.753 533.992C246.937 533.992 246.241 534.288 245.665 534.88C245.105 535.456 244.825 536.256 244.825 537.28C244.825 538.304 245.105 539.12 245.665 539.728C246.241 540.32 246.937 540.616 247.753 540.616C248.569 540.616 249.257 540.32 249.817 539.728C250.393 539.136 250.681 538.328 250.681 537.304ZM271.434 530.608L263.034 550.36H258.618L261.69 543.544L256.242 530.608H260.826L263.922 538.984L266.994 530.608H271.434Z" fill="black"/>
<rect x="206" y="509" width="85" height="54" rx="4" stroke="black" stroke-width="2"/>
<rect x="162" y="608" width="176" height="54" rx="4" fill="#FF8577"/>
<path d="M195.328 631.576C195.328 632.552 195.104 633.448 194.656 634.264C194.208 635.064 193.52 635.712 192.592 636.208C191.664 636.704 190.512 636.952 189.136 636.952H186.592V643H182.488V626.152H189.136C190.48 626.152 191.616 626.384 192.544 626.848C193.472 627.312 194.168 627.952 194.632 628.768C195.096 629.584 195.328 630.52 195.328 631.576ZM188.824 633.688C189.608 633.688 190.192 633.504 190.576 633.136C190.96 632.768 191.152 632.248 191.152 631.576C191.152 630.904 190.96 630.384 190.576 630.016C190.192 629.648 189.608 629.464 188.824 629.464H186.592V633.688H188.824ZM196.649 636.28C196.649 634.904 196.905 633.696 197.417 632.656C197.945 631.616 198.657 630.816 199.553 630.256C200.449 629.696 201.449 629.416 202.553 629.416C203.497 629.416 204.321 629.608 205.025 629.992C205.745 630.376 206.297 630.88 206.681 631.504V629.608H210.785V643H206.681V641.104C206.281 641.728 205.721 642.232 205.001 642.616C204.297 643 203.473 643.192 202.529 643.192C201.441 643.192 200.449 642.912 199.553 642.352C198.657 641.776 197.945 640.968 197.417 639.928C196.905 638.872 196.649 637.656 196.649 636.28ZM206.681 636.304C206.681 635.28 206.393 634.472 205.817 633.88C205.257 633.288 204.569 632.992 203.753 632.992C202.937 632.992 202.241 633.288 201.665 633.88C201.105 634.456 200.825 635.256 200.825 636.28C200.825 637.304 201.105 638.12 201.665 638.728C202.241 639.32 202.937 639.616 203.753 639.616C204.569 639.616 205.257 639.32 205.817 638.728C206.393 638.136 206.681 637.328 206.681 636.304ZM217.858 631.84C218.338 631.104 218.938 630.528 219.658 630.112C220.378 629.68 221.178 629.464 222.058 629.464V633.808H220.93C219.906 633.808 219.138 634.032 218.626 634.48C218.114 634.912 217.858 635.68 217.858 636.784V643H213.754V629.608H217.858V631.84ZM231.483 639.52V643H229.395C227.907 643 226.747 642.64 225.915 641.92C225.083 641.184 224.667 639.992 224.667 638.344V633.016H223.035V629.608H224.667V626.344H228.771V629.608H231.459V633.016H228.771V638.392C228.771 638.792 228.867 639.08 229.059 639.256C229.251 639.432 229.571 639.52 230.019 639.52H231.483ZM235.833 628.216C235.113 628.216 234.521 628.008 234.057 627.592C233.609 627.16 233.385 626.632 233.385 626.008C233.385 625.368 233.609 624.84 234.057 624.424C234.521 623.992 235.113 623.776 235.833 623.776C236.537 623.776 237.113 623.992 237.561 624.424C238.025 624.84 238.257 625.368 238.257 626.008C238.257 626.632 238.025 627.16 237.561 627.592C237.113 628.008 236.537 628.216 235.833 628.216ZM237.873 629.608V643H233.769V629.608H237.873ZM240.031 636.304C240.031 634.912 240.311 633.696 240.871 632.656C241.447 631.616 242.239 630.816 243.247 630.256C244.271 629.696 245.439 629.416 246.751 629.416C248.431 629.416 249.831 629.856 250.951 630.736C252.087 631.616 252.831 632.856 253.183 634.456H248.815C248.447 633.432 247.735 632.92 246.679 632.92C245.927 632.92 245.327 633.216 244.879 633.808C244.431 634.384 244.207 635.216 244.207 636.304C244.207 637.392 244.431 638.232 244.879 638.824C245.327 639.4 245.927 639.688 246.679 639.688C247.735 639.688 248.447 639.176 248.815 638.152H253.183C252.831 639.72 252.087 640.952 250.951 641.848C249.815 642.744 248.415 643.192 246.751 643.192C245.439 643.192 244.271 642.912 243.247 642.352C242.239 641.792 241.447 640.992 240.871 639.952C240.311 638.912 240.031 637.696 240.031 636.304ZM257.443 628.216C256.723 628.216 256.131 628.008 255.667 627.592C255.219 627.16 254.995 626.632 254.995 626.008C254.995 625.368 255.219 624.84 255.667 624.424C256.131 623.992 256.723 623.776 257.443 623.776C258.147 623.776 258.723 623.992 259.171 624.424C259.635 624.84 259.867 625.368 259.867 626.008C259.867 626.632 259.635 627.16 259.171 627.592C258.723 628.008 258.147 628.216 257.443 628.216ZM259.483 629.608V643H255.379V629.608H259.483ZM266.561 631.504C266.961 630.88 267.513 630.376 268.217 629.992C268.921 629.608 269.745 629.416 270.689 629.416C271.793 629.416 272.793 629.696 273.689 630.256C274.585 630.816 275.289 631.616 275.801 632.656C276.329 633.696 276.593 634.904 276.593 636.28C276.593 637.656 276.329 638.872 275.801 639.928C275.289 640.968 274.585 641.776 273.689 642.352C272.793 642.912 271.793 643.192 270.689 643.192C269.761 643.192 268.937 643 268.217 642.616C267.513 642.232 266.961 641.736 266.561 641.128V649.384H262.457V629.608H266.561V631.504ZM272.417 636.28C272.417 635.256 272.129 634.456 271.553 633.88C270.993 633.288 270.297 632.992 269.465 632.992C268.649 632.992 267.953 633.288 267.377 633.88C266.817 634.472 266.537 635.28 266.537 636.304C266.537 637.328 266.817 638.136 267.377 638.728C267.953 639.32 268.649 639.616 269.465 639.616C270.281 639.616 270.977 639.32 271.553 638.728C272.129 638.12 272.417 637.304 272.417 636.28ZM277.93 636.28C277.93 634.904 278.186 633.696 278.698 632.656C279.226 631.616 279.938 630.816 280.834 630.256C281.73 629.696 282.73 629.416 283.834 629.416C284.778 629.416 285.602 629.608 286.306 629.992C287.026 630.376 287.578 630.88 287.962 631.504V629.608H292.066V643H287.962V641.104C287.562 641.728 287.002 642.232 286.282 642.616C285.578 643 284.754 643.192 283.81 643.192C282.722 643.192 281.73 642.912 280.834 642.352C279.938 641.776 279.226 640.968 278.698 639.928C278.186 638.872 277.93 637.656 277.93 636.28ZM287.962 636.304C287.962 635.28 287.674 634.472 287.098 633.88C286.538 633.288 285.85 632.992 285.034 632.992C284.218 632.992 283.522 633.288 282.946 633.88C282.386 634.456 282.106 635.256 282.106 636.28C282.106 637.304 282.386 638.12 282.946 638.728C283.522 639.32 284.218 639.616 285.034 639.616C285.85 639.616 286.538 639.32 287.098 638.728C287.674 638.136 287.962 637.328 287.962 636.304ZM302.499 639.52V643H300.411C298.923 643 297.763 642.64 296.931 641.92C296.099 641.184 295.683 639.992 295.683 638.344V633.016H294.051V629.608H295.683V626.344H299.787V629.608H302.475V633.016H299.787V638.392C299.787 638.792 299.883 639.08 300.075 639.256C300.267 639.432 300.587 639.52 301.035 639.52H302.499ZM317.409 636.088C317.409 636.472 317.385 636.872 317.337 637.288H308.049C308.113 638.12 308.377 638.76 308.841 639.208C309.321 639.64 309.905 639.856 310.593 639.856C311.617 639.856 312.329 639.424 312.729 638.56H317.097C316.873 639.44 316.465 640.232 315.873 640.936C315.297 641.64 314.569 642.192 313.689 642.592C312.809 642.992 311.825 643.192 310.737 643.192C309.425 643.192 308.257 642.912 307.233 642.352C306.209 641.792 305.409 640.992 304.833 639.952C304.257 638.912 303.969 637.696 303.969 636.304C303.969 634.912 304.249 633.696 304.809 632.656C305.385 631.616 306.185 630.816 307.209 630.256C308.233 629.696 309.409 629.416 310.737 629.416C312.033 629.416 313.185 629.688 314.193 630.232C315.201 630.776 315.985 631.552 316.545 632.56C317.121 633.568 317.409 634.744 317.409 636.088ZM313.209 635.008C313.209 634.304 312.969 633.744 312.489 633.328C312.009 632.912 311.409 632.704 310.689 632.704C310.001 632.704 309.417 632.904 308.937 633.304C308.473 633.704 308.185 634.272 308.073 635.008H313.209Z" fill="black"/>
<rect x="162" y="608" width="176" height="54" rx="4" stroke="black" stroke-width="2"/>
<rect x="168" y="410" width="164" height="54" rx="4" fill="#A8A4FF"/>
<path d="M201.328 433.576C201.328 434.552 201.104 435.448 200.656 436.264C200.208 437.064 199.52 437.712 198.592 438.208C197.664 438.704 196.512 438.952 195.136 438.952H192.592V445H188.488V428.152H195.136C196.48 428.152 197.616 428.384 198.544 428.848C199.472 429.312 200.168 429.952 200.632 430.768C201.096 431.584 201.328 432.52 201.328 433.576ZM194.824 435.688C195.608 435.688 196.192 435.504 196.576 435.136C196.96 434.768 197.152 434.248 197.152 433.576C197.152 432.904 196.96 432.384 196.576 432.016C196.192 431.648 195.608 431.464 194.824 431.464H192.592V435.688H194.824ZM205.529 430.216C204.809 430.216 204.217 430.008 203.753 429.592C203.305 429.16 203.081 428.632 203.081 428.008C203.081 427.368 203.305 426.84 203.753 426.424C204.217 425.992 204.809 425.776 205.529 425.776C206.233 425.776 206.809 425.992 207.257 426.424C207.721 426.84 207.953 427.368 207.953 428.008C207.953 428.632 207.721 429.16 207.257 429.592C206.809 430.008 206.233 430.216 205.529 430.216ZM207.569 431.608V445H203.465V431.608H207.569ZM209.727 438.304C209.727 436.912 210.007 435.696 210.567 434.656C211.143 433.616 211.935 432.816 212.943 432.256C213.967 431.696 215.135 431.416 216.447 431.416C218.127 431.416 219.527 431.856 220.647 432.736C221.783 433.616 222.527 434.856 222.879 436.456H218.511C218.143 435.432 217.431 434.92 216.375 434.92C215.623 434.92 215.023 435.216 214.575 435.808C214.127 436.384 213.903 437.216 213.903 438.304C213.903 439.392 214.127 440.232 214.575 440.824C215.023 441.4 215.623 441.688 216.375 441.688C217.431 441.688 218.143 441.176 218.511 440.152H222.879C222.527 441.72 221.783 442.952 220.647 443.848C219.511 444.744 218.111 445.192 216.447 445.192C215.135 445.192 213.967 444.912 212.943 444.352C211.935 443.792 211.143 442.992 210.567 441.952C210.007 440.912 209.727 439.696 209.727 438.304ZM233.258 445L229.178 439.384V445H225.074V427.24H229.178V437.056L233.234 431.608H238.298L232.73 438.328L238.346 445H233.258ZM249.1 431.44V434.848H254.596V438.016H249.1V441.712H255.316V445H244.996V428.152H255.316V431.44H249.1ZM264.004 441.16L266.908 431.608H271.276L266.524 445H261.46L256.708 431.608H261.1L264.004 441.16ZM285.628 438.088C285.628 438.472 285.604 438.872 285.556 439.288H276.268C276.332 440.12 276.596 440.76 277.06 441.208C277.54 441.64 278.124 441.856 278.812 441.856C279.836 441.856 280.548 441.424 280.948 440.56H285.316C285.092 441.44 284.684 442.232 284.092 442.936C283.516 443.64 282.788 444.192 281.908 444.592C281.028 444.992 280.044 445.192 278.956 445.192C277.644 445.192 276.476 444.912 275.452 444.352C274.428 443.792 273.628 442.992 273.052 441.952C272.476 440.912 272.188 439.696 272.188 438.304C272.188 436.912 272.468 435.696 273.028 434.656C273.604 433.616 274.404 432.816 275.428 432.256C276.452 431.696 277.628 431.416 278.956 431.416C280.252 431.416 281.404 431.688 282.412 432.232C283.42 432.776 284.204 433.552 284.764 434.56C285.34 435.568 285.628 436.744 285.628 438.088ZM281.428 437.008C281.428 436.304 281.188 435.744 280.708 435.328C280.228 434.912 279.628 434.704 278.908 434.704C278.22 434.704 277.636 434.904 277.156 435.304C276.692 435.704 276.404 436.272 276.292 437.008H281.428ZM295.953 431.464C297.521 431.464 298.769 431.976 299.697 433C300.641 434.008 301.113 435.4 301.113 437.176V445H297.033V437.728C297.033 436.832 296.801 436.136 296.337 435.64C295.873 435.144 295.249 434.896 294.465 434.896C293.681 434.896 293.057 435.144 292.593 435.64C292.129 436.136 291.897 436.832 291.897 437.728V445H287.793V431.608H291.897V433.384C292.313 432.792 292.873 432.328 293.577 431.992C294.281 431.64 295.073 431.464 295.953 431.464ZM311.429 441.52V445H309.341C307.853 445 306.693 444.64 305.861 443.92C305.029 443.184 304.613 441.992 304.613 440.344V435.016H302.981V431.608H304.613V428.344H308.717V431.608H311.405V435.016H308.717V440.392C308.717 440.792 308.813 441.08 309.005 441.256C309.197 441.432 309.517 441.52 309.965 441.52H311.429Z" fill="black"/>
<rect x="168" y="410" width="164" height="54" rx="4" stroke="black" stroke-width="2"/>
<path d="M253.42 279.26V283.56L249 287.62L244.58 283.56V279.26L249 283.34L253.42 279.26ZM253.42 290.08V294.38L249 298.44L244.58 294.38V290.08L249 294.16L253.42 290.08Z" fill="black"/>
<path d="M253.42 378.26V382.56L249 386.62L244.58 382.56V378.26L249 382.34L253.42 378.26ZM253.42 389.08V393.38L249 397.44L244.58 393.38V389.08L249 393.16L253.42 389.08Z" fill="black"/>
<path d="M253.42 477.26V481.56L249 485.62L244.58 481.56V477.26L249 481.34L253.42 477.26ZM253.42 488.08V492.38L249 496.44L244.58 492.38V488.08L249 492.16L253.42 488.08Z" fill="black"/>
<path d="M253.42 576.26V580.56L249 584.62L244.58 580.56V576.26L249 580.34L253.42 576.26ZM253.42 587.08V591.38L249 595.44L244.58 591.38V587.08L249 591.16L253.42 587.08Z" fill="black"/>
<path d="M93.954 64.728V90H87.798V79.596H78.222V90H72.066V64.728H78.222V74.628H87.798V64.728H93.954ZM107.542 90.288C105.574 90.288 103.798 89.868 102.214 89.028C100.654 88.188 99.418 86.988 98.506 85.428C97.618 83.868 97.174 82.044 97.174 79.956C97.174 77.892 97.63 76.08 98.542 74.52C99.454 72.936 100.702 71.724 102.286 70.884C103.87 70.044 105.646 69.624 107.614 69.624C109.582 69.624 111.358 70.044 112.942 70.884C114.526 71.724 115.774 72.936 116.686 74.52C117.598 76.08 118.054 77.892 118.054 79.956C118.054 82.02 117.586 83.844 116.65 85.428C115.738 86.988 114.478 88.188 112.87 89.028C111.286 89.868 109.51 90.288 107.542 90.288ZM107.542 84.96C108.718 84.96 109.714 84.528 110.53 83.664C111.37 82.8 111.79 81.564 111.79 79.956C111.79 78.348 111.382 77.112 110.566 76.248C109.774 75.384 108.79 74.952 107.614 74.952C106.414 74.952 105.418 75.384 104.626 76.248C103.834 77.088 103.438 78.324 103.438 79.956C103.438 81.564 103.822 82.8 104.59 83.664C105.382 84.528 106.366 84.96 107.542 84.96ZM150.156 69.912L144.72 90H137.916L134.748 76.968L131.472 90H124.704L119.232 69.912H125.388L128.232 84.276L131.616 69.912H138.132L141.552 84.204L144.36 69.912H150.156ZM171.328 84.78V90H168.196C165.964 90 164.224 89.46 162.976 88.38C161.728 87.276 161.104 85.488 161.104 83.016V75.024H158.656V69.912H161.104V65.016H167.26V69.912H171.292V75.024H167.26V83.088C167.26 83.688 167.404 84.12 167.692 84.384C167.98 84.648 168.46 84.78 169.132 84.78H171.328ZM183.901 90.288C181.933 90.288 180.157 89.868 178.573 89.028C177.013 88.188 175.777 86.988 174.865 85.428C173.977 83.868 173.533 82.044 173.533 79.956C173.533 77.892 173.989 76.08 174.901 74.52C175.813 72.936 177.061 71.724 178.645 70.884C180.229 70.044 182.005 69.624 183.973 69.624C185.941 69.624 187.717 70.044 189.301 70.884C190.885 71.724 192.133 72.936 193.045 74.52C193.957 76.08 194.413 77.892 194.413 79.956C194.413 82.02 193.945 83.844 193.009 85.428C192.097 86.988 190.837 88.188 189.229 89.028C187.645 89.868 185.869 90.288 183.901 90.288ZM183.901 84.96C185.077 84.96 186.073 84.528 186.889 83.664C187.729 82.8 188.149 81.564 188.149 79.956C188.149 78.348 187.741 77.112 186.925 76.248C186.133 75.384 185.149 74.952 183.973 74.952C182.773 74.952 181.777 75.384 180.985 76.248C180.193 77.088 179.797 78.324 179.797 79.956C179.797 81.564 180.181 82.8 180.949 83.664C181.741 84.528 182.725 84.96 183.901 84.96ZM212.94 69.624C214.356 69.624 215.592 69.912 216.648 70.488C217.728 71.064 218.556 71.82 219.132 72.756V69.912H225.288V89.964C225.288 91.812 224.916 93.48 224.172 94.968C223.452 96.48 222.336 97.68 220.824 98.568C219.336 99.456 217.476 99.9 215.244 99.9C212.268 99.9 209.856 99.192 208.008 97.776C206.16 96.384 205.104 94.488 204.84 92.088H210.924C211.116 92.856 211.572 93.456 212.292 93.888C213.012 94.344 213.9 94.572 214.956 94.572C216.228 94.572 217.236 94.2 217.98 93.456C218.748 92.736 219.132 91.572 219.132 89.964V87.12C218.532 88.056 217.704 88.824 216.648 89.424C215.592 90 214.356 90.288 212.94 90.288C211.284 90.288 209.784 89.868 208.44 89.028C207.096 88.164 206.028 86.952 205.236 85.392C204.468 83.808 204.084 81.984 204.084 79.92C204.084 77.856 204.468 76.044 205.236 74.484C206.028 72.924 207.096 71.724 208.44 70.884C209.784 70.044 211.284 69.624 212.94 69.624ZM219.132 79.956C219.132 78.42 218.7 77.208 217.836 76.32C216.996 75.432 215.964 74.988 214.74 74.988C213.516 74.988 212.472 75.432 211.608 76.32C210.768 77.184 210.348 78.384 210.348 79.92C210.348 81.456 210.768 82.68 211.608 83.592C212.472 84.48 213.516 84.924 214.74 84.924C215.964 84.924 216.996 84.48 217.836 83.592C218.7 82.704 219.132 81.492 219.132 79.956ZM248.678 79.632C248.678 80.208 248.642 80.808 248.57 81.432H234.638C234.734 82.68 235.13 83.64 235.826 84.312C236.546 84.96 237.422 85.284 238.454 85.284C239.99 85.284 241.058 84.636 241.658 83.34H248.21C247.874 84.66 247.262 85.848 246.374 86.904C245.51 87.96 244.418 88.788 243.098 89.388C241.778 89.988 240.302 90.288 238.67 90.288C236.702 90.288 234.95 89.868 233.414 89.028C231.878 88.188 230.678 86.988 229.814 85.428C228.95 83.868 228.518 82.044 228.518 79.956C228.518 77.868 228.938 76.044 229.778 74.484C230.642 72.924 231.842 71.724 233.378 70.884C234.914 70.044 236.678 69.624 238.67 69.624C240.614 69.624 242.342 70.032 243.854 70.848C245.366 71.664 246.542 72.828 247.382 74.34C248.246 75.852 248.678 77.616 248.678 79.632ZM242.378 78.012C242.378 76.956 242.018 76.116 241.298 75.492C240.578 74.868 239.678 74.556 238.598 74.556C237.566 74.556 236.69 74.856 235.97 75.456C235.274 76.056 234.842 76.908 234.674 78.012H242.378ZM263.121 84.78V90H259.989C257.757 90 256.017 89.46 254.769 88.38C253.521 87.276 252.897 85.488 252.897 83.016V75.024H250.449V69.912H252.897V65.016H259.053V69.912H263.085V75.024H259.053V83.088C259.053 83.688 259.197 84.12 259.485 84.384C259.773 84.648 260.253 84.78 260.925 84.78H263.121ZM283.323 90.252C281.475 90.252 279.819 89.952 278.355 89.352C276.891 88.752 275.715 87.864 274.827 86.688C273.963 85.512 273.507 84.096 273.459 82.44H280.011C280.107 83.376 280.431 84.096 280.983 84.6C281.535 85.08 282.255 85.32 283.143 85.32C284.055 85.32 284.775 85.116 285.303 84.708C285.831 84.276 286.095 83.688 286.095 82.944C286.095 82.32 285.879 81.804 285.447 81.396C285.039 80.988 284.523 80.652 283.899 80.388C283.299 80.124 282.435 79.824 281.307 79.488C279.675 78.984 278.343 78.48 277.311 77.976C276.279 77.472 275.391 76.728 274.647 75.744C273.903 74.76 273.531 73.476 273.531 71.892C273.531 69.54 274.383 67.704 276.087 66.384C277.791 65.04 280.011 64.368 282.747 64.368C285.531 64.368 287.775 65.04 289.479 66.384C291.183 67.704 292.095 69.552 292.215 71.928H285.555C285.507 71.112 285.207 70.476 284.655 70.02C284.103 69.54 283.395 69.3 282.531 69.3C281.787 69.3 281.187 69.504 280.731 69.912C280.275 70.296 280.047 70.86 280.047 71.604C280.047 72.42 280.431 73.056 281.199 73.512C281.967 73.968 283.167 74.46 284.799 74.988C286.431 75.54 287.751 76.068 288.759 76.572C289.791 77.076 290.679 77.808 291.423 78.768C292.167 79.728 292.539 80.964 292.539 82.476C292.539 83.916 292.167 85.224 291.423 86.4C290.703 87.576 289.647 88.512 288.255 89.208C286.863 89.904 285.219 90.252 283.323 90.252ZM307.524 84.78V90H304.392C302.16 90 300.42 89.46 299.172 88.38C297.924 87.276 297.3 85.488 297.3 83.016V75.024H294.852V69.912H297.3V65.016H303.456V69.912H307.488V75.024H303.456V83.088C303.456 83.688 303.6 84.12 303.888 84.384C304.176 84.648 304.656 84.78 305.328 84.78H307.524ZM309.729 79.92C309.729 77.856 310.113 76.044 310.881 74.484C311.673 72.924 312.741 71.724 314.085 70.884C315.429 70.044 316.929 69.624 318.585 69.624C320.001 69.624 321.237 69.912 322.293 70.488C323.373 71.064 324.201 71.82 324.777 72.756V69.912H330.933V90H324.777V87.156C324.177 88.092 323.337 88.848 322.257 89.424C321.201 90 319.965 90.288 318.549 90.288C316.917 90.288 315.429 89.868 314.085 89.028C312.741 88.164 311.673 86.952 310.881 85.392C310.113 83.808 309.729 81.984 309.729 79.92ZM324.777 79.956C324.777 78.42 324.345 77.208 323.481 76.32C322.641 75.432 321.609 74.988 320.385 74.988C319.161 74.988 318.117 75.432 317.253 76.32C316.413 77.184 315.993 78.384 315.993 79.92C315.993 81.456 316.413 82.68 317.253 83.592C318.117 84.48 319.161 84.924 320.385 84.924C321.609 84.924 322.641 84.48 323.481 83.592C324.345 82.704 324.777 81.492 324.777 79.956ZM341.542 73.26C342.262 72.156 343.162 71.292 344.242 70.668C345.322 70.02 346.522 69.696 347.842 69.696V76.212H346.15C344.614 76.212 343.462 76.548 342.694 77.22C341.926 77.868 341.542 79.02 341.542 80.676V90H335.386V69.912H341.542V73.26ZM361.981 84.78V90H358.849C356.617 90 354.877 89.46 353.629 88.38C352.381 87.276 351.757 85.488 351.757 83.016V75.024H349.309V69.912H351.757V65.016H357.913V69.912H361.945V75.024H357.913V83.088C357.913 83.688 358.057 84.12 358.345 84.384C358.633 84.648 359.113 84.78 359.785 84.78H361.981ZM384.346 79.632C384.346 80.208 384.31 80.808 384.238 81.432H370.306C370.402 82.68 370.798 83.64 371.494 84.312C372.214 84.96 373.09 85.284 374.122 85.284C375.658 85.284 376.726 84.636 377.326 83.34H383.878C383.542 84.66 382.93 85.848 382.042 86.904C381.178 87.96 380.086 88.788 378.766 89.388C377.446 89.988 375.97 90.288 374.338 90.288C372.37 90.288 370.618 89.868 369.082 89.028C367.546 88.188 366.346 86.988 365.482 85.428C364.618 83.868 364.186 82.044 364.186 79.956C364.186 77.868 364.606 76.044 365.446 74.484C366.31 72.924 367.51 71.724 369.046 70.884C370.582 70.044 372.346 69.624 374.338 69.624C376.282 69.624 378.01 70.032 379.522 70.848C381.034 71.664 382.21 72.828 383.05 74.34C383.914 75.852 384.346 77.616 384.346 79.632ZM378.046 78.012C378.046 76.956 377.686 76.116 376.966 75.492C376.246 74.868 375.346 74.556 374.266 74.556C373.234 74.556 372.358 74.856 371.638 75.456C370.942 76.056 370.51 76.908 370.342 78.012H378.046ZM386.369 79.92C386.369 77.856 386.753 76.044 387.521 74.484C388.313 72.924 389.381 71.724 390.725 70.884C392.069 70.044 393.569 69.624 395.225 69.624C396.545 69.624 397.745 69.9 398.825 70.452C399.929 71.004 400.793 71.748 401.417 72.684V63.36H407.573V90H401.417V87.12C400.841 88.08 400.013 88.848 398.933 89.424C397.877 90 396.641 90.288 395.225 90.288C393.569 90.288 392.069 89.868 390.725 89.028C389.381 88.164 388.313 86.952 387.521 85.392C386.753 83.808 386.369 81.984 386.369 79.92ZM401.417 79.956C401.417 78.42 400.985 77.208 400.121 76.32C399.281 75.432 398.249 74.988 397.025 74.988C395.801 74.988 394.757 75.432 393.893 76.32C393.053 77.184 392.633 78.384 392.633 79.92C392.633 81.456 393.053 82.68 393.893 83.592C394.757 84.48 395.801 84.924 397.025 84.924C398.249 84.924 399.281 84.48 400.121 83.592C400.985 82.704 401.417 81.492 401.417 79.956ZM419.407 63.324C421.975 63.324 424.027 63.996 425.563 65.34C427.123 66.684 427.903 68.58 427.903 71.028C427.903 73.284 427.159 75.048 425.671 76.32C424.207 77.568 422.263 78.204 419.839 78.228L419.659 80.928H414.259L414.079 74.232H416.239C418.087 74.232 419.491 74.004 420.451 73.548C421.435 73.092 421.927 72.264 421.927 71.064C421.927 70.224 421.699 69.564 421.243 69.084C420.787 68.604 420.151 68.364 419.335 68.364C418.471 68.364 417.799 68.616 417.319 69.12C416.839 69.6 416.599 70.26 416.599 71.1H410.803C410.755 69.636 411.055 68.316 411.703 67.14C412.375 65.964 413.359 65.04 414.655 64.368C415.975 63.672 417.559 63.324 419.407 63.324ZM417.031 90.288C415.951 90.288 415.063 89.976 414.367 89.352C413.695 88.704 413.359 87.912 413.359 86.976C413.359 86.016 413.695 85.212 414.367 84.564C415.063 83.916 415.951 83.592 417.031 83.592C418.087 83.592 418.951 83.916 419.623 84.564C420.319 85.212 420.667 86.016 420.667 86.976C420.667 87.912 420.319 88.704 419.623 89.352C418.951 89.976 418.087 90.288 417.031 90.288ZM186.661 144.252C184.813 144.252 183.157 143.952 181.693 143.352C180.229 142.752 179.053 141.864 178.165 140.688C177.301 139.512 176.845 138.096 176.797 136.44H183.349C183.445 137.376 183.769 138.096 184.321 138.6C184.873 139.08 185.593 139.32 186.481 139.32C187.393 139.32 188.113 139.116 188.641 138.708C189.169 138.276 189.433 137.688 189.433 136.944C189.433 136.32 189.217 135.804 188.785 135.396C188.377 134.988 187.861 134.652 187.237 134.388C186.637 134.124 185.773 133.824 184.645 133.488C183.013 132.984 181.681 132.48 180.649 131.976C179.617 131.472 178.729 130.728 177.985 129.744C177.241 128.76 176.869 127.476 176.869 125.892C176.869 123.54 177.721 121.704 179.425 120.384C181.129 119.04 183.349 118.368 186.085 118.368C188.869 118.368 191.113 119.04 192.817 120.384C194.521 121.704 195.433 123.552 195.553 125.928H188.893C188.845 125.112 188.545 124.476 187.993 124.02C187.441 123.54 186.733 123.3 185.869 123.3C185.125 123.3 184.525 123.504 184.069 123.912C183.613 124.296 183.385 124.86 183.385 125.604C183.385 126.42 183.769 127.056 184.537 127.512C185.305 127.968 186.505 128.46 188.137 128.988C189.769 129.54 191.089 130.068 192.097 130.572C193.129 131.076 194.017 131.808 194.761 132.768C195.505 133.728 195.877 134.964 195.877 136.476C195.877 137.916 195.505 139.224 194.761 140.4C194.041 141.576 192.985 142.512 191.593 143.208C190.201 143.904 188.557 144.252 186.661 144.252ZM202.762 121.824C201.682 121.824 200.794 121.512 200.098 120.888C199.426 120.24 199.09 119.448 199.09 118.512C199.09 117.552 199.426 116.76 200.098 116.136C200.794 115.488 201.682 115.164 202.762 115.164C203.818 115.164 204.682 115.488 205.354 116.136C206.05 116.76 206.398 117.552 206.398 118.512C206.398 119.448 206.05 120.24 205.354 120.888C204.682 121.512 203.818 121.824 202.762 121.824ZM205.822 123.912V144H199.666V123.912H205.822ZM235.915 123.696C238.411 123.696 240.391 124.452 241.855 125.964C243.343 127.476 244.087 129.576 244.087 132.264V144H237.967V133.092C237.967 131.796 237.619 130.8 236.923 130.104C236.251 129.384 235.315 129.024 234.115 129.024C232.915 129.024 231.967 129.384 231.271 130.104C230.599 130.8 230.263 131.796 230.263 133.092V144H224.143V133.092C224.143 131.796 223.795 130.8 223.099 130.104C222.427 129.384 221.491 129.024 220.291 129.024C219.091 129.024 218.143 129.384 217.447 130.104C216.775 130.8 216.439 131.796 216.439 133.092V144H210.283V123.912H216.439V126.432C217.063 125.592 217.879 124.932 218.887 124.452C219.895 123.948 221.035 123.696 222.307 123.696C223.819 123.696 225.163 124.02 226.339 124.668C227.539 125.316 228.475 126.24 229.147 127.44C229.843 126.336 230.791 125.436 231.991 124.74C233.191 124.044 234.499 123.696 235.915 123.696ZM254.548 126.756C255.148 125.82 255.976 125.064 257.032 124.488C258.088 123.912 259.324 123.624 260.74 123.624C262.396 123.624 263.896 124.044 265.24 124.884C266.584 125.724 267.64 126.924 268.408 128.484C269.2 130.044 269.596 131.856 269.596 133.92C269.596 135.984 269.2 137.808 268.408 139.392C267.64 140.952 266.584 142.164 265.24 143.028C263.896 143.868 262.396 144.288 260.74 144.288C259.348 144.288 258.112 144 257.032 143.424C255.976 142.848 255.148 142.104 254.548 141.192V153.576H248.392V123.912H254.548V126.756ZM263.332 133.92C263.332 132.384 262.9 131.184 262.036 130.32C261.196 129.432 260.152 128.988 258.904 128.988C257.68 128.988 256.636 129.432 255.772 130.32C254.932 131.208 254.512 132.42 254.512 133.956C254.512 135.492 254.932 136.704 255.772 137.592C256.636 138.48 257.68 138.924 258.904 138.924C260.128 138.924 261.172 138.48 262.036 137.592C262.9 136.68 263.332 135.456 263.332 133.92ZM278.982 117.36V144H272.826V117.36H278.982ZM302.379 133.632C302.379 134.208 302.343 134.808 302.271 135.432H288.339C288.435 136.68 288.831 137.64 289.527 138.312C290.247 138.96 291.123 139.284 292.155 139.284C293.691 139.284 294.759 138.636 295.359 137.34H301.911C301.575 138.66 300.963 139.848 300.075 140.904C299.211 141.96 298.119 142.788 296.799 143.388C295.479 143.988 294.003 144.288 292.371 144.288C290.403 144.288 288.651 143.868 287.115 143.028C285.579 142.188 284.379 140.988 283.515 139.428C282.651 137.868 282.219 136.044 282.219 133.956C282.219 131.868 282.639 130.044 283.479 128.484C284.343 126.924 285.543 125.724 287.079 124.884C288.615 124.044 290.379 123.624 292.371 123.624C294.315 123.624 296.043 124.032 297.555 124.848C299.067 125.664 300.243 126.828 301.083 128.34C301.947 129.852 302.379 131.616 302.379 133.632ZM296.079 132.012C296.079 130.956 295.719 130.116 294.999 129.492C294.279 128.868 293.379 128.556 292.299 128.556C291.267 128.556 290.391 128.856 289.671 129.456C288.975 130.056 288.543 130.908 288.375 132.012H296.079ZM308.507 144.288C307.427 144.288 306.539 143.976 305.843 143.352C305.171 142.704 304.835 141.912 304.835 140.976C304.835 140.016 305.171 139.212 305.843 138.564C306.539 137.916 307.427 137.592 308.507 137.592C309.563 137.592 310.427 137.916 311.099 138.564C311.795 139.212 312.143 140.016 312.143 140.976C312.143 141.912 311.795 142.704 311.099 143.352C310.427 143.976 309.563 144.288 308.507 144.288ZM318.667 144.288C317.587 144.288 316.699 143.976 316.003 143.352C315.331 142.704 314.995 141.912 314.995 140.976C314.995 140.016 315.331 139.212 316.003 138.564C316.699 137.916 317.587 137.592 318.667 137.592C319.723 137.592 320.587 137.916 321.259 138.564C321.955 139.212 322.303 140.016 322.303 140.976C322.303 141.912 321.955 142.704 321.259 143.352C320.587 143.976 319.723 144.288 318.667 144.288Z" fill="black"/>
</g>
<defs>
<filter id="filter0_d_583_892" x="0" y="0" width="503" height="756" filterUnits="userSpaceOnUse" color-interpolation-filters="sRGB">
<feFlood flood-opacity="0" result="BackgroundImageFix"/>
<feColorMatrix in="SourceAlpha" type="matrix" values="0 0 0 0 0 0 0 0 0 0 0 0 0 0 0 0 0 0 127 0" result="hardAlpha"/>
<feOffset dx="5" dy="5"/>
<feComposite in2="hardAlpha" operator="out"/>
<feColorMatrix type="matrix" values="0 0 0 0 0 0 0 0 0 0 0 0 0 0 0 0 0 0 1 0"/>
<feBlend mode="normal" in2="BackgroundImageFix" result="effect1_dropShadow_583_892"/>
<feBlend mode="normal" in="SourceGraphic" in2="effect1_dropShadow_583_892" result="shape"/>
</filter>
</defs>
</svg>
