<svg width="388" height="291" viewBox="0 0 388 291" fill="none" xmlns="http://www.w3.org/2000/svg">
<path d="M372.83 78.3132C372.92 78.47 372.806 78.6648 372.626 78.6648L34.0193 78.6648C33.9552 78.6648 33.8939 78.6386 33.8495 78.5923L18.8148 62.9092C18.7267 62.8173 18.7277 62.672 18.8171 62.5813L43.3836 37.6566C43.4309 37.6087 43.4965 37.5832 43.5637 37.5869L103.554 40.8011L156.972 37.5812L198.923 33.7669C198.937 33.7656 198.951 33.7656 198.964 33.7668L243.777 37.5812L268.078 41.2746C268.094 41.2769 268.109 41.2777 268.124 41.2771L349.516 37.5877C349.604 37.5837 349.687 37.6296 349.731 37.7064L372.83 78.3132Z" fill="#90B05B"/>
<path d="M213.256 39.8472L166.515 47.4795L118.343 50.8187L91.6341 43.6634L51.0934 47.4795L26.292 62.7443L29.6306 79.9171L79.7104 68.4686H282.891L349.664 59.8821L324.863 47.4795L255.228 59.8821L213.256 39.8472Z" fill="#9ED35D"/>
<path d="M151.591 18.9012V25.3606H142.822V52H134.759V25.3606H125.989V18.9012H151.591ZM180.438 38.421C180.438 39.1754 180.391 39.9612 180.297 40.7785H162.05C162.176 42.413 162.695 43.6703 163.606 44.5504C164.549 45.3991 165.696 45.8234 167.048 45.8234C169.06 45.8234 170.458 44.9747 171.244 43.2774H179.825C179.385 45.0062 178.584 46.5621 177.421 47.9452C176.289 49.3282 174.859 50.4126 173.13 51.1985C171.401 51.9843 169.468 52.3772 167.331 52.3772C164.753 52.3772 162.459 51.8271 160.447 50.727C158.435 49.6268 156.864 48.0552 155.732 46.012C154.601 43.9689 154.035 41.58 154.035 38.8453C154.035 36.1107 154.585 33.7218 155.685 31.6786C156.817 29.6355 158.388 28.0638 160.4 26.9637C162.412 25.8635 164.722 25.3135 167.331 25.3135C169.877 25.3135 172.14 25.8478 174.12 26.9165C176.101 27.9853 177.641 29.5098 178.741 31.49C179.873 33.4703 180.438 35.7806 180.438 38.421ZM172.187 36.2993C172.187 34.9162 171.716 33.8161 170.773 32.9988C169.83 32.1816 168.651 31.7729 167.237 31.7729C165.885 31.7729 164.738 32.1658 163.795 32.9517C162.883 33.7375 162.317 34.8534 162.097 36.2993H172.187ZM183.089 38.7982C183.089 36.0949 183.592 33.7218 184.597 31.6786C185.635 29.6355 187.034 28.0638 188.794 26.9637C190.554 25.8635 192.519 25.3135 194.687 25.3135C196.542 25.3135 198.161 25.6907 199.544 26.445C200.958 27.1994 202.043 28.1896 202.797 29.4155V25.6907H210.86V52H202.797V48.2752C202.011 49.5011 200.911 50.4912 199.497 51.2456C198.114 52 196.495 52.3772 194.64 52.3772C192.503 52.3772 190.554 51.8271 188.794 50.727C187.034 49.5954 185.635 48.008 184.597 45.9649C183.592 43.8903 183.089 41.5014 183.089 38.7982ZM202.797 38.8453C202.797 36.8336 202.231 35.2463 201.1 34.0832C200 32.9202 198.648 32.3387 197.045 32.3387C195.442 32.3387 194.074 32.9202 192.943 34.0832C191.843 35.2148 191.293 36.7865 191.293 38.7982C191.293 40.8099 191.843 42.413 192.943 43.6074C194.074 44.7704 195.442 45.3519 197.045 45.3519C198.648 45.3519 200 44.7704 201.1 43.6074C202.231 42.4444 202.797 40.857 202.797 38.8453ZM250.263 25.4078C253.532 25.4078 256.125 26.3979 258.043 28.3782C259.991 30.3584 260.966 33.1088 260.966 36.6293V52H252.95V37.7137C252.95 36.0164 252.495 34.7119 251.583 33.8003C250.703 32.8574 249.477 32.3859 247.905 32.3859C246.334 32.3859 245.092 32.8574 244.181 33.8003C243.301 34.7119 242.86 36.0164 242.86 37.7137V52H234.845V37.7137C234.845 36.0164 234.389 34.7119 233.478 33.8003C232.598 32.8574 231.372 32.3859 229.8 32.3859C228.228 32.3859 226.987 32.8574 226.075 33.8003C225.195 34.7119 224.755 36.0164 224.755 37.7137V52H216.693V25.6907H224.755V28.9911C225.572 27.891 226.641 27.0266 227.961 26.3979C229.281 25.7378 230.774 25.4078 232.44 25.4078C234.421 25.4078 236.181 25.8321 237.721 26.6808C239.293 27.5295 240.519 28.7396 241.399 30.3113C242.31 28.8654 243.552 27.6866 245.124 26.7751C246.695 25.8635 248.408 25.4078 250.263 25.4078Z" fill="white"/>
<path d="M387.679 104.066C387.746 104.221 387.632 104.394 387.463 104.394L0.399658 104.394C0.220428 104.394 0.107025 104.202 0.193878 104.045L14.0944 78.95C14.1116 78.9189 14.1357 78.8921 14.1648 78.8716L42.4847 58.9448C42.5006 58.9336 42.5178 58.9244 42.536 58.9175L74.8665 46.5539C74.9149 46.5354 74.9681 46.5334 75.0179 46.5483L116.382 58.912C116.418 58.9225 116.455 58.9246 116.491 58.9182L145.977 53.686C145.997 53.6825 146.017 53.6815 146.037 53.6831L211.317 58.9254C211.338 58.9271 211.359 58.926 211.38 58.9221L277.108 46.5366C277.147 46.5292 277.188 46.532 277.226 46.5447L314.321 58.9118C314.353 58.9224 314.387 58.9261 314.421 58.9225L365.667 53.43C365.77 53.419 365.868 53.4761 365.908 53.5708L387.679 104.066Z" fill="#B9EE79"/>
<rect x="156.263" y="183.32" width="15.6264" height="68.6947" rx="0.0542837" fill="#AE0D94"/>
<rect x="139.214" y="148.969" width="15.6264" height="68.6947" rx="0.0542837" fill="#AE0D94"/>
<rect x="143.476" y="150.827" width="15.6264" height="68.6947" rx="0.0542837" fill="#AE0D94"/>
<rect x="304.004" y="164.752" width="15.6264" height="68.6947" rx="0.0542837" fill="#AE0D94"/>
<rect x="240.074" y="156.398" width="15.6264" height="68.6947" rx="0.0542837" fill="#AE0D94"/>
<rect x="291.216" y="135.975" width="15.6264" height="68.6947" rx="0.0542837" fill="#AE0D94"/>
<rect x="279.852" y="144.329" width="15.6264" height="68.6947" rx="0.0542837" fill="#AE0D94"/>
<rect x="255.701" y="182.391" width="15.6264" height="68.6947" rx="0.0542837" fill="#AE0D94"/>
<rect x="281.273" y="123.907" width="15.6264" height="68.6947" rx="0.0542837" fill="#AE0D94"/>
<rect x="100.858" y="164.752" width="15.6264" height="68.6947" rx="0.0542837" fill="#AE0D94"/>
<rect x="115.064" y="190.746" width="15.6264" height="68.6947" rx="0.0542837" fill="#AE0D94"/>
<rect x="115.064" y="161.038" width="15.6264" height="68.6947" rx="0.0542837" fill="#AE0D94"/>
<rect x="85.2324" y="145.258" width="15.6264" height="68.6947" rx="0.0542837" fill="#660050"/>
<rect x="83.8135" y="130.404" width="15.6264" height="68.6947" rx="0.0542837" fill="#660050"/>
<rect x="153.422" y="135.975" width="15.6264" height="68.6947" rx="0.0542837" fill="#660050"/>
<rect x="130.692" y="162.895" width="15.6264" height="68.6947" rx="0.0542837" fill="#660050"/>
<rect x="264.228" y="148.969" width="15.6264" height="68.6947" rx="0.0542837" fill="#660050"/>
<rect x="122.167" y="138.758" width="15.6264" height="68.6947" rx="0.0542837" fill="#660050"/>
<rect x="269.907" y="126.692" width="15.6264" height="68.6947" rx="0.0542837" fill="#660050"/>
<path d="M269.907 126.746C269.907 126.716 269.932 126.692 269.962 126.692H285.479C285.509 126.692 285.534 126.716 285.534 126.746V195.332C285.534 195.362 285.509 195.387 285.479 195.387H269.962C269.932 195.387 269.907 195.362 269.907 195.332V126.746Z" fill="#660050"/>
<path d="M296.188 168.52C296.188 168.49 296.212 168.466 296.242 168.466H311.76C311.79 168.466 311.815 168.49 311.815 168.52V237.106C311.815 237.136 311.79 237.16 311.76 237.16H296.242C296.212 237.16 296.188 237.136 296.188 237.106V168.52Z" fill="#660050"/>
<path d="M269.907 84.0445C269.907 84.0145 269.932 83.9902 269.962 83.9902H285.479C285.509 83.9902 285.534 84.0145 285.534 84.0445V148.919C285.534 148.949 285.509 148.973 285.479 148.973H269.962C269.932 148.973 269.907 148.949 269.907 148.919V84.0445Z" fill="#660050"/>
<path d="M296.188 122.106C296.188 122.076 296.212 122.052 296.242 122.052H311.76C311.79 122.052 311.815 122.076 311.815 122.106V190.693C311.815 190.723 311.79 190.747 311.76 190.747H296.242C296.212 190.747 296.188 190.723 296.188 190.693V122.106Z" fill="#660050"/>
<path d="M46.875 118.337H95.1749L89.4926 191.673L88.072 203.277L83.0999 191.673L72.4455 211.632L61.7912 202.348L56.8191 180.069L46.875 192.601V118.337Z" fill="#344C4C"/>
<path d="M227.293 123.907H275.593L269.911 197.244L268.49 208.848L263.518 197.244L252.864 217.202L242.209 207.919L237.237 185.64L227.293 198.172V123.907Z" fill="#336262"/>
<path d="M299.741 109.981H348.041L342.359 183.317L340.938 194.921L335.966 183.317L325.312 203.276L314.657 193.993L309.685 171.714L299.741 184.246V109.981Z" fill="#2A5A5A"/>
<path d="M240.074 148.969H166.204L169.755 260.615L177.067 278.281L184.671 260.615L200.966 291L217.261 276.867L224.866 242.95L240.074 262.028V148.969Z" fill="#273535"/>
<rect x="305.425" y="93.272" width="62.5058" height="23.2077" rx="0.108567" fill="#745B5F"/>
<rect x="213.086" y="162.895" width="90.9175" height="37.1323" rx="0.108567" transform="rotate(-180 213.086 162.895)" fill="#665754"/>
<rect x="336.676" y="141.543" width="96.5998" height="38.9889" rx="0.126662" transform="rotate(-180 336.676 141.543)" fill="#665754"/>
<rect x="31.249" y="104.412" width="62.5058" height="23.2077" rx="0.108567" fill="#745B5F"/>
<path d="M32.7242 97.0409C51.3099 97.6701 88.6163 96.7659 92.8966 97.0409C106.183 97.8948 98.7493 112.769 98.7493 112.769H25.5851C25.5851 112.769 19.3907 96.5896 32.7242 97.0409Z" fill="#7DA55A"/>
<path d="M306.738 87.7485C324.989 88.2667 361.622 87.522 365.825 87.7485C378.872 88.4517 371.572 100.701 371.572 100.701H299.728C299.728 100.701 293.645 87.3768 306.738 87.7485Z" fill="#97D263"/>
<path d="M71.0787 102.609C89.6644 103.238 126.971 102.334 131.251 102.609C144.538 103.463 137.104 118.336 137.104 118.336H63.9396C63.9396 118.336 57.7452 102.157 71.0787 102.609Z" fill="#96CC5B"/>
<rect x="69.6074" y="115.552" width="62.5058" height="23.2077" rx="0.108567" fill="#7C655D"/>
<path d="M257.124 100.806C257.124 100.746 257.173 100.697 257.233 100.697H319.521C319.581 100.697 319.63 100.746 319.63 100.806V120.083C319.63 120.143 319.581 120.191 319.521 120.191H257.233C257.173 120.191 257.124 120.143 257.124 120.083V100.806Z" fill="#7C655D"/>
<path d="M258.599 92.3976C277.185 93.0268 314.491 92.1226 318.772 92.3976C332.058 93.2515 324.624 108.125 324.624 108.125H251.46C251.46 108.125 245.266 91.9463 258.599 92.3976Z" fill="#7DA55A"/>
<path d="M251.332 89.5596C251.392 89.5596 251.44 89.6082 251.44 89.6681L251.44 148.863C251.44 148.923 251.392 148.971 251.332 148.971L194.726 148.971C194.666 148.971 194.617 148.923 194.617 148.863L194.617 89.6681C194.617 89.6082 194.666 89.5596 194.726 89.5596L251.332 89.5596Z" fill="#705E5B"/>
<path d="M194.619 89.6681C194.619 89.6082 194.668 89.5596 194.728 89.5596L285.428 89.5596C285.488 89.5596 285.537 89.6082 285.537 89.6681V126.583C285.537 126.643 285.488 126.692 285.428 126.692H194.728C194.668 126.692 194.619 126.643 194.619 126.583V89.6681Z" fill="#705E5B"/>
<rect x="132.113" y="102.555" width="71.0293" height="23.2077" rx="0.108567" fill="#7D6463"/>
<path d="M140.534 99.8161C158.785 100.334 195.418 99.5896 199.621 99.8161C212.668 100.519 205.368 112.768 205.368 112.768H133.524C133.524 112.768 127.441 99.4444 140.534 99.8161Z" fill="#97D263"/>
<path d="M200.217 83.1084C224.665 83.6635 273.74 82.8656 279.371 83.1084C296.849 83.8618 287.07 96.9856 287.07 96.9856H190.825C190.825 96.9856 182.677 82.7101 200.217 83.1084Z" fill="#A4D965"/>
<rect x="150.58" y="115.552" width="59.4117" height="56.8234" rx="0.108567" transform="rotate(90 150.58 115.552)" fill="#705E5B"/>
<path d="M92.3893 108.18C110.975 108.809 148.281 107.905 152.562 108.18C165.848 109.033 158.414 123.907 158.414 123.907H85.2502C85.2502 123.907 79.0558 107.728 92.3893 108.18Z" fill="#A3D768"/>
<path d="M150.243 272.187L155.926 268.683L162.088 277.009L155.889 280.831L150.243 272.187Z" fill="#344C4C"/>
<path d="M87.4267 233.239L93.1094 229.735L99.2719 238.061L93.0726 241.883L87.4267 233.239Z" fill="#477474"/>
<path d="M283.851 252.299L287.26 247.705L291.792 252.236L288.073 257.247L283.851 252.299Z" fill="#336262"/>
<path d="M205.309 231.543L208.718 226.949L213.25 231.48L209.531 236.492L205.309 231.543Z" fill="#336262"/>
<path d="M118.655 216.689L122.063 212.095L126.595 216.626L122.877 221.638L118.655 216.689Z" fill="#336262"/>
<path d="M57.5696 203.694L60.9785 199.1L65.5104 203.631L61.7916 208.642L57.5696 203.694Z" fill="#336262"/>
<path d="M251.702 273.091L248.253 277.672L243.76 273.124L247.523 268.127L251.702 273.091Z" fill="#273535"/>
</svg>
