<svg width="537" height="185" viewBox="0 0 537 185" fill="none" xmlns="http://www.w3.org/2000/svg">
<rect width="537" height="185" fill="#6560D3"/>
<path d="M163.936 56.2279C163.936 62.4041 162.09 68.4417 158.632 73.577C155.175 78.7124 150.26 82.7149 144.51 85.0784C138.76 87.442 132.433 88.0604 126.329 86.8555C120.225 85.6505 114.618 82.6764 110.217 78.3092C105.816 73.9419 102.819 68.3777 101.605 62.3201C100.39 56.2625 101.014 49.9837 103.395 44.2776C105.777 38.5715 109.81 33.6944 114.985 30.2631C120.16 26.8318 126.244 25.0003 132.468 25.0003C136.605 24.982 140.706 25.7773 144.532 27.3402C148.358 28.903 151.834 31.2025 154.76 34.1059C157.686 37.0093 160.003 40.4591 161.578 44.256C163.153 48.053 163.954 52.1219 163.936 56.2279Z" fill="#F2F2F2"/>
<path d="M145.144 48.8588L144.99 49.1376C146.363 45.7456 145.114 41.566 142.664 39.0084C140.215 36.4507 136.81 35.2815 133.456 34.8176C130.967 34.4732 128.383 34.4832 126.017 35.3971C122.589 36.7205 119.97 39.7841 117.784 42.9712C116.784 44.4289 115.8 46.0907 115.9 47.9127C115.993 49.6035 116.994 51.0383 117.814 52.4728C118.634 53.9073 119.319 55.687 118.73 57.2527C118.38 58.1857 117.638 58.8576 117.037 59.6209C116.435 60.3841 115.941 61.4157 116.231 62.3733C116.36 62.7397 116.582 63.0663 116.874 63.3211C117.167 63.576 117.52 63.7504 117.9 63.8273C118.627 63.9971 119.382 63.8862 120.118 63.7747L139.231 60.8803C140.53 60.6837 141.762 60.1751 142.822 59.398C143.883 58.6209 144.74 57.5984 145.32 56.4175C145.901 55.2367 146.188 53.9326 146.158 52.6165C146.127 51.3003 145.779 50.0111 145.144 48.8588Z" fill="#2F2E41"/>
<path d="M140.333 52.6995C141.164 47.5826 137.689 42.7614 132.572 41.931C127.455 41.1007 122.634 44.5756 121.803 49.6925C120.973 54.8094 124.448 59.6307 129.565 60.461C134.682 61.2914 139.503 57.8164 140.333 52.6995Z" fill="#FFB9B9"/>
<path d="M156.249 76.7477C150.776 82.9607 143.073 86.7772 134.804 87.3734C126.534 87.9696 118.362 85.2977 112.05 79.9345L114.76 72.3914C115.372 71.0516 116.338 69.9034 117.555 69.0699C118.772 68.2363 120.193 67.7489 121.666 67.6599L123.39 67.5543L127.5 64.0175C127.5 64.0175 138.576 63.623 138.412 63.4341L145.121 67.4599L145.115 67.4321L147.752 67.5932C149.226 67.6819 150.647 68.1691 151.864 69.0027C153.081 69.8363 154.047 70.9847 154.659 72.3247L156.249 76.7477Z" fill="#FFC700"/>
<path d="M139.878 42.3654C139.635 41.0826 138.326 40.496 137.204 40.2117C133.949 39.3822 130.564 39.1964 127.238 39.665C124.814 40.0104 122.332 40.772 120.573 42.6626C119.155 44.2545 118.351 46.2995 118.306 48.4303C118.235 49.7044 118.519 50.9732 119.129 52.0945C119.762 53.165 120.841 53.9414 121.955 53.9141L122.068 54.3061C126.788 53.649 131.173 50.7147 133.935 46.3649C133.417 48.2138 132.385 49.8786 130.96 51.1666C134.147 49.8926 136.917 47.7596 138.962 45.0052C139.52 44.2647 140.062 43.3413 139.878 42.3654Z" fill="#2F2E41"/>
<path d="M307.138 160.391C324.385 160.391 338.366 146.41 338.366 129.164C338.366 111.917 324.385 97.9358 307.138 97.9358C289.891 97.9358 275.91 111.917 275.91 129.164C275.91 146.41 289.891 160.391 307.138 160.391Z" fill="#F2F2F2"/>
<path d="M298.49 117.153C300.878 117.153 302.814 115.217 302.814 112.829C302.814 110.441 300.878 108.505 298.49 108.505C296.102 108.505 294.166 110.441 294.166 112.829C294.166 115.217 296.102 117.153 298.49 117.153Z" fill="#2F2E41"/>
<path d="M305.456 133.968C311.691 133.968 316.746 129.021 316.746 122.918C316.746 116.815 311.691 111.868 305.456 111.868C299.221 111.868 294.166 116.815 294.166 122.918C294.166 129.021 299.221 133.968 305.456 133.968Z" fill="#2F2E41"/>
<path d="M306.657 133.968C311.699 133.968 315.786 129.989 315.786 125.08C315.786 120.171 311.699 116.192 306.657 116.192C301.616 116.192 297.529 120.171 297.529 125.08C297.529 129.989 301.616 133.968 306.657 133.968Z" fill="#9E616A"/>
<path d="M312.758 115.808C311.178 114.827 309.367 114.296 307.517 114.271C305.666 114.247 303.842 114.728 302.237 115.666C300.632 116.605 299.303 117.964 298.391 119.604C297.479 121.243 297.016 123.102 297.051 124.986C301.647 126.161 306.475 127.06 311.376 125.267L312.534 122.384L313.216 125.269C314.709 125.89 316.205 126.416 317.701 125.263C317.763 123.385 317.338 121.523 316.471 119.863C315.603 118.204 314.323 116.805 312.758 115.808Z" fill="#2F2E41"/>
<path d="M294.341 101.071C291.32 99.6783 287.531 100.332 285.016 102.515C282.502 104.698 281.306 108.252 281.792 111.557C282.287 114.928 284.325 117.831 286.204 120.668C288.083 123.504 289.919 126.612 289.917 130.02C289.915 132.475 288.946 134.829 287.221 136.566C285.496 138.302 283.156 139.281 280.715 139.285C283.58 140.526 286.57 141.79 289.686 141.643C292.802 141.496 296.068 139.482 296.577 136.387C296.943 134.158 295.855 131.983 294.947 129.916C293.469 126.546 292.401 123.01 291.766 119.384C291.463 117.653 291.265 115.833 291.826 114.169C292.273 112.936 293.103 111.879 294.192 111.156C295.281 110.432 296.573 110.08 297.876 110.151L298.906 109.219C299.364 105.91 297.361 102.463 294.341 101.071Z" fill="#2F2E41"/>
<path d="M330.679 150.164C325.265 156.377 317.646 160.194 309.467 160.79C301.287 161.386 293.203 158.714 286.96 153.351L289.64 145.808C290.246 144.468 291.202 143.32 292.405 142.486C293.609 141.653 295.014 141.165 296.472 141.076L298.177 140.971L302.243 137.434C302.243 137.434 313.198 137.039 313.035 136.851L319.671 140.876L319.666 140.849L322.274 141.01C323.732 141.098 325.138 141.586 326.341 142.419C327.545 143.253 328.501 144.401 329.106 145.741L330.679 150.164Z" fill="#FFC700"/>
<path d="M251.871 56.2831C251.86 62.4594 250.004 68.4937 246.537 73.623C243.07 78.7523 238.148 82.7462 232.394 85.0996C226.64 87.453 220.312 88.0603 214.21 86.8446C208.108 85.629 202.506 82.6449 198.113 78.2699C193.72 73.8949 190.733 68.3254 189.529 62.2657C188.326 56.206 188.96 49.9282 191.352 44.2263C193.744 38.5243 197.786 33.6543 202.967 30.2321C208.148 26.8099 214.235 24.9891 220.459 25C224.595 24.9967 228.69 25.8043 232.51 27.3766C236.33 28.9489 239.799 31.2549 242.718 34.1619C245.637 37.0689 247.948 40.5197 249.519 44.316C251.09 48.1123 251.889 52.1793 251.871 56.2831Z" fill="#F2F2F2"/>
<path d="M205.817 46.2848C207.118 42.1537 210.077 38.3647 214.168 36.9682C218.26 35.5716 224.252 37.699 227.328 40.7536C232.955 46.341 234.328 65.5357 230.462 71.6014C229.693 71.5609 227.04 71.5309 226.262 71.5019L225.161 67.8459V71.4658C223.921 71.4276 222.671 71.4013 221.412 71.3867C217.19 71.3346 213.152 69.6535 210.149 66.6969C207.145 63.7402 205.408 59.7384 205.305 55.5327C205.204 51.5092 205.305 47.9128 205.817 46.2848Z" fill="#2F2E41"/>
<path d="M219.923 59.5907C224.832 59.5907 228.811 55.6115 228.811 50.7028C228.811 45.7942 224.832 41.8149 219.923 41.8149C215.014 41.8149 211.035 45.7942 211.035 50.7028C211.035 55.6115 215.014 59.5907 219.923 59.5907Z" fill="#9E616A"/>
<path d="M212.477 43.1779L222.57 37.9714C224.634 38.9294 226.411 40.4386 227.718 42.3425C229.024 44.2465 229.812 46.4758 230.001 48.7994L230.252 51.9038L226.026 50.7954L225.563 46.8258L224.845 50.4858L222.894 49.9745L222.913 43.8117L220.961 49.9701L213.994 48.3213L212.477 43.1779Z" fill="#2F2E41"/>
<path d="M243.704 76.9619C238.29 83.0506 230.671 86.7908 222.492 87.3751C214.312 87.9594 206.229 85.3409 199.985 80.0849L202.666 72.6927C203.271 71.3797 204.227 70.2545 205.431 69.4376C206.634 68.6208 208.04 68.1431 209.497 68.0558L211.202 67.9524L215.268 64.4863C215.268 64.4863 226.223 64.0997 226.061 63.9146L232.697 67.8598L232.691 67.8326L235.3 67.9905C236.757 68.0774 238.163 68.5549 239.367 69.3718C240.57 70.1887 241.526 71.3141 242.131 72.6273L243.704 76.9619Z" fill="#0FA958"/>
<path d="M308.099 87.4555C325.345 87.4555 339.327 73.4744 339.327 56.2278C339.327 38.9811 325.345 25 308.099 25C290.852 25 276.871 38.9811 276.871 56.2278C276.871 73.4744 290.852 87.4555 308.099 87.4555Z" fill="#F2F2F2"/>
<path d="M309.3 59.5907C315.005 59.5907 319.629 54.9662 319.629 49.2616C319.629 43.5569 315.005 38.9324 309.3 38.9324C303.595 38.9324 298.971 43.5569 298.971 49.2616C298.971 54.9662 303.595 59.5907 309.3 59.5907Z" fill="#FFB8B8"/>
<path d="M318.097 42.563C318.097 42.563 320.711 37.396 314.959 36.9263C314.959 36.9263 310.056 32.3278 305.058 36.0856C305.058 36.0856 302.332 36.0856 300.842 39.2749C300.842 39.2749 298.698 38.4342 298.227 40.6841C298.227 40.6841 296.658 45.3813 298.227 49.6089C299.795 53.8364 300.316 54.3062 300.316 54.3062C300.316 54.3062 299.216 49.06 305.491 48.5903C311.766 48.1206 317.522 44.0565 318.045 49.2234C318.568 54.3904 319.143 52.0563 319.143 52.0563C319.143 52.0563 324.11 44.6768 318.097 42.563Z" fill="#2F2E41"/>
<path d="M331.159 77.2282C325.746 83.4411 318.127 87.2577 309.947 87.8539C301.768 88.4501 293.684 85.7782 287.44 80.4149L290.121 72.8718C290.726 71.5321 291.682 70.3839 292.886 69.5503C294.089 68.7168 295.495 68.2294 296.952 68.1404L298.657 68.0348L302.723 64.498C302.723 64.498 313.678 64.1035 313.516 63.9146L320.152 67.9403L320.146 67.9125L322.755 68.0737C324.212 68.1623 325.618 68.6496 326.822 69.4832C328.025 70.3167 328.981 71.4652 329.586 72.8051L331.159 77.2282Z" fill="#C6B8FF"/>
<path d="M395.794 87.4555C413.173 87.4555 427.262 73.4744 427.262 56.2278C427.262 38.9811 413.173 25 395.794 25C378.415 25 364.326 38.9811 364.326 56.2278C364.326 73.4744 378.415 87.4555 395.794 87.4555Z" fill="#F2F2F2"/>
<path d="M382.972 44.1208C382.54 46.4025 381.832 48.625 380.863 50.7411C375.312 62.2879 391.12 58.5242 396.769 58.5242C402.946 58.5242 408.855 61.7179 407.953 47.5272C407.567 41.4656 402.946 36.5303 396.769 36.5303C391.493 36.5303 384.075 38.8361 382.972 44.1208Z" fill="#2F2E41"/>
<path d="M396.034 58.63C401.076 58.63 405.162 54.5432 405.162 49.5019C405.162 44.4606 401.076 40.3738 396.034 40.3738C390.993 40.3738 386.906 44.4606 386.906 49.5019C386.906 54.5432 390.993 58.63 396.034 58.63Z" fill="#FFB6B6"/>
<path d="M389.933 40.408C391.514 39.4664 393.324 38.9571 395.175 38.9333C397.026 38.9094 398.849 39.3719 400.455 40.2725C402.06 41.173 403.388 42.4785 404.301 44.0524C405.213 45.6263 405.676 47.4108 405.641 49.2194C401.045 50.347 396.217 51.21 391.316 49.4891L390.158 46.7209L389.476 49.4912C387.983 50.0873 386.487 50.5918 384.99 49.4854C384.929 47.682 385.353 45.8944 386.221 44.3015C387.088 42.7085 388.368 41.366 389.933 40.408Z" fill="#2F2E41"/>
<path d="M420.056 77.2282C414.642 83.4411 407.023 87.2577 398.844 87.8539C390.664 88.4501 382.58 85.7782 376.337 80.4149L379.017 72.8718C379.623 71.5321 380.579 70.3839 381.782 69.5503C382.986 68.7168 384.391 68.2294 385.849 68.1404L387.554 68.0348L391.62 64.498C391.62 64.498 402.575 64.1035 402.412 63.9146L409.048 67.9403L409.043 67.9125L411.651 68.0737C413.109 68.1623 414.515 68.6496 415.718 69.4832C416.922 70.3167 417.877 71.4652 418.483 72.8051L420.056 77.2282Z" fill="#FF8577"/>
<path d="M394.593 160.391C411.84 160.391 425.821 146.41 425.821 129.164C425.821 111.917 411.84 97.9358 394.593 97.9358C377.346 97.9358 363.365 111.917 363.365 129.164C363.365 146.41 377.346 160.391 394.593 160.391Z" fill="#F2F2F2"/>
<path d="M393.632 133.007C399.204 133.007 403.721 128.49 403.721 122.918C403.721 117.346 399.204 112.829 393.632 112.829C388.06 112.829 383.543 117.346 383.543 122.918C383.543 128.49 388.06 133.007 393.632 133.007Z" fill="#FFB6B6"/>
<path d="M418.134 150.164C412.72 156.377 405.101 160.194 396.922 160.79C388.742 161.386 380.658 158.714 374.415 153.351L377.095 145.808C377.701 144.468 378.657 143.32 379.86 142.486C381.064 141.653 382.47 141.165 383.927 141.076L385.632 140.971L389.698 137.434C389.698 137.434 400.653 137.039 400.49 136.851L407.126 140.876L407.121 140.849L409.729 141.01C411.187 141.098 412.593 141.586 413.796 142.419C415 143.253 415.956 144.401 416.561 145.741L418.134 150.164Z" fill="#0FA958"/>
<path d="M404.222 116.818C403.386 113.846 401.486 111.28 398.879 109.6C396.802 108.28 394.209 107.607 391.856 108.305C389.502 109.002 387.554 111.296 387.708 113.774C386.858 113.487 385.892 113.869 385.271 114.521C384.649 115.174 384.314 116.052 384.075 116.925C383.32 119.704 383.37 122.638 384.219 125.389L384.172 125.784C385.321 125.595 386.192 124.617 386.733 123.575C387.275 122.532 387.586 121.376 388.173 120.359C388.76 119.342 389.735 118.435 390.898 118.403L390.796 120.168C391.796 119.657 392.796 119.145 393.797 118.633C393.559 119.198 393.321 119.764 393.083 120.329C393.957 119.966 394.83 119.604 395.704 119.241C395.606 119.784 395.509 120.328 395.411 120.872C396.278 118.913 398.957 118.053 400.78 119.148C401.839 119.784 402.533 120.917 402.899 122.107C403.264 123.297 403.336 124.556 403.406 125.801C404.756 123.001 405.046 119.812 404.222 116.818Z" fill="#2F2E41"/>
<path d="M132.228 160.391C149.474 160.391 163.456 146.41 163.456 129.164C163.456 111.917 149.474 97.9358 132.228 97.9358C114.981 97.9358 101 111.917 101 129.164C101 146.41 114.981 160.391 132.228 160.391Z" fill="#F2F2F2"/>
<path d="M131.507 132.527C136.681 132.527 140.875 128.225 140.875 122.918C140.875 117.611 136.681 113.31 131.507 113.31C126.333 113.31 122.139 117.611 122.139 122.918C122.139 128.225 126.333 132.527 131.507 132.527Z" fill="#9E616A"/>
<path d="M155.288 149.684C149.874 155.897 142.255 159.713 134.076 160.309C125.896 160.906 117.813 158.234 111.569 152.871L114.25 145.327C114.855 143.988 115.811 142.839 117.015 142.006C118.218 141.172 119.624 140.685 121.081 140.596L122.786 140.49L126.852 136.954C126.852 136.954 137.807 136.559 137.645 136.37L144.281 140.396L144.275 140.368L146.884 140.529C148.341 140.618 149.747 141.105 150.951 141.939C152.154 142.772 153.11 143.921 153.715 145.261L155.288 149.684Z" fill="#C6B8FF"/>
<path d="M142.792 119.625C142.744 118.661 142.494 117.719 142.058 116.859C141.623 116 141.012 115.243 140.265 114.64C139.717 114.202 139.082 113.832 138.719 113.229C138.512 112.801 138.337 112.36 138.194 111.906C137.471 110.17 135.412 109.247 133.565 109.51C131.718 109.773 130.119 111.027 129.043 112.565C128.512 112.309 127.92 112.211 127.336 112.284C126.752 112.356 126.201 112.596 125.748 112.975C125.295 113.354 124.96 113.856 124.781 114.422C124.602 114.988 124.587 115.593 124.738 116.167C123.782 115.389 122.234 116.011 121.637 117.095C121.04 118.179 121.135 119.505 121.312 120.732C121.634 122.949 122.17 125.13 122.912 127.242C123.843 126.414 123.786 124.906 123.672 123.631C123.554 122.307 123.625 120.691 124.772 120.037C125.88 119.406 127.225 120.099 128.447 120.457C129.413 120.734 130.427 120.795 131.419 120.638C132.411 120.48 133.357 120.107 134.192 119.545C134.829 119.11 135.396 118.566 136.082 118.216C136.768 117.867 137.641 117.746 138.28 118.177C138.863 118.571 139.101 119.305 139.299 119.985C139.77 121.596 140.24 123.206 140.71 124.817C141.401 124.149 141.944 123.341 142.303 122.446C142.661 121.552 142.828 120.59 142.792 119.625Z" fill="#2F2E41"/>
<path d="M219.683 160.391C236.929 160.391 250.911 146.41 250.911 129.164C250.911 111.917 236.929 97.9358 219.683 97.9358C202.436 97.9358 188.455 111.917 188.455 129.164C188.455 146.41 202.436 160.391 219.683 160.391Z" fill="#F2F2F2"/>
<path d="M220.163 130.605C227.062 130.605 232.654 125.013 232.654 118.114C232.654 111.215 227.062 105.623 220.163 105.623C213.264 105.623 207.672 111.215 207.672 118.114C207.672 125.013 213.264 130.605 220.163 130.605Z" fill="#2F2E41"/>
<path d="M220.163 132.046C226.266 132.046 231.213 127.099 231.213 120.996C231.213 114.894 226.266 109.947 220.163 109.947C214.06 109.947 209.113 114.894 209.113 120.996C209.113 127.099 214.06 132.046 220.163 132.046Z" fill="#FFB8B8"/>
<path d="M243.224 149.684C237.81 155.897 230.191 159.713 222.012 160.309C213.832 160.906 205.748 158.234 199.505 152.871L202.185 145.327C202.791 143.988 203.747 142.839 204.95 142.006C206.154 141.172 207.559 140.685 209.017 140.596L210.722 140.49L214.788 136.954C214.788 136.954 225.743 136.559 225.58 136.37L232.216 140.396L232.211 140.368L234.819 140.529C236.277 140.618 237.683 141.105 238.886 141.939C240.09 142.772 241.045 143.921 241.651 145.261L243.224 149.684Z" fill="#FF8577"/>
<path d="M232.03 116.991C232.109 116.165 232.145 115.337 232.139 114.508C232.185 112.869 231.879 111.238 231.242 109.723C230.459 108.045 229.063 106.718 227.331 106.006C225.614 105.325 223.696 105.326 221.98 106.01C220.431 105.048 218.711 104.285 216.898 104.19C215.086 104.096 213.17 104.757 212.053 106.213C211.803 106.597 211.52 106.959 211.206 107.295C210.309 108.113 208.944 107.995 207.751 107.827C208.286 108.279 208.821 108.73 209.357 109.181C208.709 109.347 208.061 109.514 207.413 109.68C208.169 110.131 208.925 110.583 209.681 111.034C207.486 112.329 206.489 115.158 206.752 117.727C207.002 120.159 208.195 122.383 209.622 124.359C210.191 123.178 210.069 121.764 210.059 120.433C210.054 120.001 210.081 119.57 210.14 119.142C214.962 120.279 220.001 121.009 225.111 119.203L226.136 116.734C226.28 116.749 226.424 116.763 226.568 116.778L227.162 119.205C228.509 119.747 229.859 120.22 231.209 119.723C231.275 120.098 231.314 120.481 231.345 120.848C231.461 120.408 231.561 119.965 231.652 119.52C231.83 119.426 232.001 119.319 232.163 119.199C232.196 118.46 232.151 117.72 232.03 116.991Z" fill="#2F2E41"/>
</svg>
