<svg width="537" height="185" viewBox="0 0 537 185" fill="none" xmlns="http://www.w3.org/2000/svg">
<path d="M0 10C0 4.47716 4.47715 0 10 0H527C532.523 0 537 4.47715 537 10V185H0V10Z" fill="#6560D3"/>
<path d="M82 79H38L24 94.5H31.5L30 101L38 94.5L38.5 106L41 122.5L44 112L49 110V127L54.5 117.5L61.5 141L67 116L74.5 122.5L77 107L81 114L85 94.5L94.5 89.5L82 79Z" fill="#FFC700" stroke="black"/>
<path d="M445.255 34H415.439L407 40.7257L411.034 44.4248V50.4091L414.5 46.7788L415.439 52.8319L418.912 51.7045L420.235 59.8938L423.324 56.4545L424.647 62.9318L428.618 59.8938L431.025 72L435.235 58.1818L440.529 62.9318L441.867 52.8319L446.949 55.1591V46.7788L452 44.4248L445.255 34Z" fill="#C6B8FF" stroke="black"/>
<path d="M123.32 78.92V107H116.48V78.92H123.32ZM138.437 107.28C136.384 107.28 134.544 106.947 132.917 106.28C131.29 105.613 129.984 104.627 128.997 103.32C128.037 102.013 127.53 100.44 127.477 98.6H134.757C134.864 99.64 135.224 100.44 135.837 101C136.45 101.533 137.25 101.8 138.237 101.8C139.25 101.8 140.05 101.573 140.637 101.12C141.224 100.64 141.517 99.9867 141.517 99.16C141.517 98.4667 141.277 97.8933 140.797 97.44C140.344 96.9867 139.77 96.6133 139.077 96.32C138.41 96.0267 137.45 95.6933 136.197 95.32C134.384 94.76 132.904 94.2 131.757 93.64C130.61 93.08 129.624 92.2533 128.797 91.16C127.97 90.0667 127.557 88.64 127.557 86.88C127.557 84.2667 128.504 82.2267 130.397 80.76C132.29 79.2667 134.757 78.52 137.797 78.52C140.89 78.52 143.384 79.2667 145.277 80.76C147.17 82.2267 148.184 84.28 148.317 86.92H140.917C140.864 86.0133 140.53 85.3067 139.917 84.8C139.304 84.2667 138.517 84 137.557 84C136.73 84 136.064 84.2267 135.557 84.68C135.05 85.1067 134.797 85.7333 134.797 86.56C134.797 87.4667 135.224 88.1733 136.077 88.68C136.93 89.1867 138.264 89.7333 140.077 90.32C141.89 90.9333 143.357 91.52 144.477 92.08C145.624 92.64 146.61 93.4533 147.437 94.52C148.264 95.5867 148.677 96.96 148.677 98.64C148.677 100.24 148.264 101.693 147.437 103C146.637 104.307 145.464 105.347 143.917 106.12C142.37 106.893 140.544 107.28 138.437 107.28ZM159.726 101.72H168.686V107H152.886V78.92H159.726V101.72ZM178.789 84.4V90.08H187.949V95.36H178.789V101.52H189.149V107H171.949V78.92H189.149V84.4H178.789ZM203.749 107.28C201.696 107.28 199.856 106.947 198.229 106.28C196.603 105.613 195.296 104.627 194.309 103.32C193.349 102.013 192.843 100.44 192.789 98.6H200.069C200.176 99.64 200.536 100.44 201.149 101C201.763 101.533 202.563 101.8 203.549 101.8C204.563 101.8 205.363 101.573 205.949 101.12C206.536 100.64 206.829 99.9867 206.829 99.16C206.829 98.4667 206.589 97.8933 206.109 97.44C205.656 96.9867 205.083 96.6133 204.389 96.32C203.723 96.0267 202.763 95.6933 201.509 95.32C199.696 94.76 198.216 94.2 197.069 93.64C195.923 93.08 194.936 92.2533 194.109 91.16C193.283 90.0667 192.869 88.64 192.869 86.88C192.869 84.2667 193.816 82.2267 195.709 80.76C197.603 79.2667 200.069 78.52 203.109 78.52C206.203 78.52 208.696 79.2667 210.589 80.76C212.483 82.2267 213.496 84.28 213.629 86.92H206.229C206.176 86.0133 205.843 85.3067 205.229 84.8C204.616 84.2667 203.829 84 202.869 84C202.043 84 201.376 84.2267 200.869 84.68C200.363 85.1067 200.109 85.7333 200.109 86.56C200.109 87.4667 200.536 88.1733 201.389 88.68C202.243 89.1867 203.576 89.7333 205.389 90.32C207.203 90.9333 208.669 91.52 209.789 92.08C210.936 92.64 211.923 93.4533 212.749 94.52C213.576 95.5867 213.989 96.96 213.989 98.64C213.989 100.24 213.576 101.693 212.749 103C211.949 104.307 210.776 105.347 209.229 106.12C207.683 106.893 205.856 107.28 203.749 107.28ZM236.835 107.32C234.649 107.32 232.675 106.853 230.915 105.92C229.182 104.987 227.809 103.653 226.795 101.92C225.809 100.187 225.315 98.16 225.315 95.84C225.315 93.5467 225.822 91.5333 226.835 89.8C227.849 88.04 229.235 86.6933 230.995 85.76C232.755 84.8267 234.729 84.36 236.915 84.36C239.102 84.36 241.075 84.8267 242.835 85.76C244.595 86.6933 245.982 88.04 246.995 89.8C248.009 91.5333 248.515 93.5467 248.515 95.84C248.515 98.1333 247.995 100.16 246.955 101.92C245.942 103.653 244.542 104.987 242.755 105.92C240.995 106.853 239.022 107.32 236.835 107.32ZM236.835 101.4C238.142 101.4 239.249 100.92 240.155 99.96C241.089 99 241.555 97.6267 241.555 95.84C241.555 94.0533 241.102 92.68 240.195 91.72C239.315 90.76 238.222 90.28 236.915 90.28C235.582 90.28 234.475 90.76 233.595 91.72C232.715 92.6533 232.275 94.0267 232.275 95.84C232.275 97.6267 232.702 99 233.555 99.96C234.435 100.92 235.529 101.4 236.835 101.4ZM263.344 90.36H259.664V107H252.824V90.36H250.344V84.68H252.824V84.04C252.824 81.2933 253.611 79.2133 255.184 77.8C256.757 76.36 259.064 75.64 262.104 75.64C262.611 75.64 262.984 75.6533 263.224 75.68V81.48C261.917 81.4 260.997 81.5867 260.464 82.04C259.931 82.4933 259.664 83.3067 259.664 84.48V84.68H263.344V90.36ZM281.755 78.92V95.72C281.755 97.4 282.168 98.6933 282.995 99.6C283.821 100.507 285.035 100.96 286.635 100.96C288.235 100.96 289.461 100.507 290.315 99.6C291.168 98.6933 291.595 97.4 291.595 95.72V78.92H298.435V95.68C298.435 98.1867 297.901 100.307 296.835 102.04C295.768 103.773 294.328 105.08 292.515 105.96C290.728 106.84 288.728 107.28 286.515 107.28C284.301 107.28 282.315 106.853 280.555 106C278.821 105.12 277.448 103.813 276.435 102.08C275.421 100.32 274.915 98.1867 274.915 95.68V78.92H281.755ZM323.438 78.92V84.4H315.998V107H309.158V84.4H301.718V78.92H323.438ZM340.151 107.28C337.511 107.28 335.084 106.667 332.871 105.44C330.684 104.213 328.937 102.507 327.631 100.32C326.351 98.1067 325.711 95.6267 325.711 92.88C325.711 90.1333 326.351 87.6667 327.631 85.48C328.937 83.2933 330.684 81.5867 332.871 80.36C335.084 79.1333 337.511 78.52 340.151 78.52C342.791 78.52 345.204 79.1333 347.391 80.36C349.604 81.5867 351.337 83.2933 352.591 85.48C353.871 87.6667 354.511 90.1333 354.511 92.88C354.511 95.6267 353.871 98.1067 352.591 100.32C351.311 102.507 349.577 104.213 347.391 105.44C345.204 106.667 342.791 107.28 340.151 107.28ZM340.151 101.04C342.391 101.04 344.177 100.293 345.511 98.8C346.871 97.3067 347.551 95.3333 347.551 92.88C347.551 90.4 346.871 88.4267 345.511 86.96C344.177 85.4667 342.391 84.72 340.151 84.72C337.884 84.72 336.071 85.4533 334.711 86.92C333.377 88.3867 332.711 90.3733 332.711 92.88C332.711 95.36 333.377 97.3467 334.711 98.84C336.071 100.307 337.884 101.04 340.151 101.04ZM379.716 87.96C379.716 89.5867 379.343 91.08 378.596 92.44C377.849 93.7733 376.703 94.8533 375.156 95.68C373.609 96.5067 371.689 96.92 369.396 96.92H365.156V107H358.316V78.92H369.396C371.636 78.92 373.529 79.3067 375.076 80.08C376.623 80.8533 377.783 81.92 378.556 83.28C379.329 84.64 379.716 86.2 379.716 87.96ZM368.876 91.48C370.183 91.48 371.156 91.1733 371.796 90.56C372.436 89.9467 372.756 89.08 372.756 87.96C372.756 86.84 372.436 85.9733 371.796 85.36C371.156 84.7467 370.183 84.44 368.876 84.44H365.156V91.48H368.876ZM390.117 78.92V107H383.277V78.92H390.117ZM412.554 102.04H402.074L400.394 107H393.234L403.394 78.92H411.314L421.474 107H414.234L412.554 102.04ZM410.794 96.76L407.314 86.48L403.874 96.76H410.794Z" fill="white"/>
<mask id="path-5-inside-1_462_3643" fill="white">
<path fill-rule="evenodd" clip-rule="evenodd" d="M472.577 57.0428C471.069 54.6316 468.175 53 464.852 53C459.974 53 456.02 56.5147 456.02 60.8502C456.02 61.9266 456.264 62.9525 456.705 63.8865C453.757 65.0416 451.814 67.0176 451.814 69.2611C451.814 71.9198 454.543 74.2026 458.438 75.1891C458.973 76.5933 459.907 78.2776 461.151 79.5396C461.96 80.3608 463.107 81.2116 464.568 81.4677C464.812 81.5104 465.055 81.5349 465.296 81.5417V93H453.064L444 97.5L449.5 103.5L448.5 109.5L452 107.796L454.5 125L459.5 126.5L461 135.5L463.5 118L468 140L474 119.5L477.5 128L480.5 117L483.5 122L485 113.5L492 114.805L489 103.5L495.5 99.5L486.856 93H470.296V75.9008C470.589 75.9496 470.889 75.9722 471.195 75.9654C472.653 75.933 473.795 75.2437 474.592 74.4867C476.083 73.0695 476.886 70.9449 477.228 69.5945C477.252 69.4999 477.27 69.4052 477.283 69.3107C478.01 68.6218 478.45 67.7221 478.45 66.7379C478.45 65.7432 478 64.835 477.26 64.1433C478 63.3775 478.45 62.3719 478.45 61.2707C478.45 58.8707 476.316 56.9251 473.683 56.9251C473.302 56.9251 472.932 56.9658 472.577 57.0428ZM465.296 75.5337V76.4898C465.174 76.4276 464.975 76.297 464.712 76.0295C464.593 75.9094 464.478 75.7784 464.367 75.6394C464.681 75.6119 464.991 75.5766 465.296 75.5337Z"/>
</mask>
<path fill-rule="evenodd" clip-rule="evenodd" d="M472.577 57.0428C471.069 54.6316 468.175 53 464.852 53C459.974 53 456.02 56.5147 456.02 60.8502C456.02 61.9266 456.264 62.9525 456.705 63.8865C453.757 65.0416 451.814 67.0176 451.814 69.2611C451.814 71.9198 454.543 74.2026 458.438 75.1891C458.973 76.5933 459.907 78.2776 461.151 79.5396C461.96 80.3608 463.107 81.2116 464.568 81.4677C464.812 81.5104 465.055 81.5349 465.296 81.5417V93H453.064L444 97.5L449.5 103.5L448.5 109.5L452 107.796L454.5 125L459.5 126.5L461 135.5L463.5 118L468 140L474 119.5L477.5 128L480.5 117L483.5 122L485 113.5L492 114.805L489 103.5L495.5 99.5L486.856 93H470.296V75.9008C470.589 75.9496 470.889 75.9722 471.195 75.9654C472.653 75.933 473.795 75.2437 474.592 74.4867C476.083 73.0695 476.886 70.9449 477.228 69.5945C477.252 69.4999 477.27 69.4052 477.283 69.3107C478.01 68.6218 478.45 67.7221 478.45 66.7379C478.45 65.7432 478 64.835 477.26 64.1433C478 63.3775 478.45 62.3719 478.45 61.2707C478.45 58.8707 476.316 56.9251 473.683 56.9251C473.302 56.9251 472.932 56.9658 472.577 57.0428ZM465.296 75.5337V76.4898C465.174 76.4276 464.975 76.297 464.712 76.0295C464.593 75.9094 464.478 75.7784 464.367 75.6394C464.681 75.6119 464.991 75.5766 465.296 75.5337Z" fill="#0FA958"/>
<path d="M472.577 57.0428L471.729 57.5729L472.101 58.1691L472.789 58.0201L472.577 57.0428ZM456.705 63.8865L457.07 64.8176L458.066 64.4271L457.609 63.4595L456.705 63.8865ZM458.438 75.1891L459.373 74.8333L459.188 74.3473L458.684 74.2197L458.438 75.1891ZM461.151 79.5396L460.439 80.2416L460.439 80.2416L461.151 79.5396ZM464.568 81.4677L464.74 80.4827L464.568 81.4677ZM465.296 81.5417H466.296V80.5694L465.324 80.5421L465.296 81.5417ZM465.296 93V94H466.296V93H465.296ZM453.064 93V92H452.829L452.619 92.1043L453.064 93ZM444 97.5L443.555 96.6043L442.364 97.1956L443.263 98.1757L444 97.5ZM449.5 103.5L450.486 103.664L450.567 103.184L450.237 102.824L449.5 103.5ZM448.5 109.5L447.514 109.336L447.195 111.247L448.938 110.399L448.5 109.5ZM452 107.796L452.99 107.653L452.793 106.298L451.562 106.897L452 107.796ZM454.5 125L453.51 125.144L453.602 125.775L454.213 125.958L454.5 125ZM459.5 126.5L460.486 126.336L460.384 125.721L459.787 125.542L459.5 126.5ZM461 135.5L460.014 135.664L461.99 135.641L461 135.5ZM463.5 118L464.48 117.8L462.51 117.859L463.5 118ZM468 140L467.02 140.2L468.96 140.281L468 140ZM474 119.5L474.925 119.119L473.84 116.486L473.04 119.219L474 119.5ZM477.5 128L476.575 128.381L477.693 131.094L478.465 128.263L477.5 128ZM480.5 117L481.357 116.486L480.152 114.476L479.535 116.737L480.5 117ZM483.5 122L482.643 122.514L484.02 124.81L484.485 122.174L483.5 122ZM485 113.5L485.183 112.517L484.191 112.332L484.015 113.326L485 113.5ZM492 114.805L491.817 115.788L493.372 116.078L492.967 114.549L492 114.805ZM489 103.5L488.476 102.648L487.843 103.038L488.033 103.756L489 103.5ZM495.5 99.5L496.024 100.352L497.274 99.5826L496.101 98.7008L495.5 99.5ZM486.856 93L487.457 92.2008L487.19 92H486.856V93ZM470.296 93H469.296V94H470.296V93ZM470.296 75.9008L470.46 74.9144L469.296 74.7205V75.9008H470.296ZM471.195 75.9654L471.172 74.9656H471.172L471.195 75.9654ZM474.592 74.4867L473.903 73.7618L474.592 74.4867ZM477.228 69.5945L476.259 69.349L476.259 69.349L477.228 69.5945ZM477.283 69.3107L476.595 68.585L476.339 68.8278L476.292 69.1775L477.283 69.3107ZM477.26 64.1433L476.541 63.4482L475.834 64.1796L476.577 64.874L477.26 64.1433ZM465.296 76.4898L464.841 77.3807L466.296 78.122V76.4898H465.296ZM465.296 75.5337H466.296V74.3831L465.156 74.5434L465.296 75.5337ZM464.712 76.0295L463.999 76.7315L463.999 76.7315L464.712 76.0295ZM464.367 75.6394L464.279 74.6432L462.416 74.8062L463.586 76.2651L464.367 75.6394ZM464.852 54C467.854 54 470.416 55.4736 471.729 57.5729L473.425 56.5128C471.722 53.7897 468.496 52 464.852 52V54ZM457.02 60.8502C457.02 57.1744 460.412 54 464.852 54V52C459.536 52 455.02 55.8549 455.02 60.8502H457.02ZM457.609 63.4595C457.229 62.6538 457.02 61.7734 457.02 60.8502H455.02C455.02 62.0799 455.299 63.2511 455.801 64.3135L457.609 63.4595ZM452.814 69.2611C452.814 67.644 454.255 65.9204 457.07 64.8176L456.34 62.9554C453.259 64.1628 450.814 66.3911 450.814 69.2611H452.814ZM458.684 74.2197C456.85 73.7553 455.348 72.9987 454.325 72.1007C453.304 71.2044 452.814 70.223 452.814 69.2611H450.814C450.814 70.9579 451.689 72.4472 453.006 73.6036C454.321 74.7583 456.131 75.6364 458.193 76.1585L458.684 74.2197ZM461.863 78.8376C460.741 77.6992 459.872 76.1451 459.373 74.8333L457.503 75.5448C458.073 77.0415 459.073 78.856 460.439 80.2416L461.863 78.8376ZM464.74 80.4827C463.563 80.2764 462.596 79.5808 461.863 78.8376L460.439 80.2416C461.325 81.1409 462.65 82.1468 464.395 82.4526L464.74 80.4827ZM465.324 80.5421C465.132 80.5367 464.937 80.5171 464.74 80.4827L464.395 82.4526C464.687 82.5037 464.978 82.5331 465.267 82.5413L465.324 80.5421ZM466.296 93V81.5417H464.296V93H466.296ZM465.296 92H453.064V94H465.296V92ZM452.619 92.1043L443.555 96.6043L444.445 98.3957L453.509 93.8957L452.619 92.1043ZM443.263 98.1757L448.763 104.176L450.237 102.824L444.737 96.8243L443.263 98.1757ZM448.514 103.336L447.514 109.336L449.486 109.664L450.486 103.664L448.514 103.336ZM448.938 110.399L452.438 108.696L451.562 106.897L448.062 108.601L448.938 110.399ZM451.01 107.94L453.51 125.144L455.49 124.856L452.99 107.653L451.01 107.94ZM454.213 125.958L459.213 127.458L459.787 125.542L454.787 124.042L454.213 125.958ZM458.514 126.664L460.014 135.664L461.986 135.336L460.486 126.336L458.514 126.664ZM461.99 135.641L464.49 118.141L462.51 117.859L460.01 135.359L461.99 135.641ZM462.52 118.2L467.02 140.2L468.98 139.8L464.48 117.8L462.52 118.2ZM468.96 140.281L474.96 119.781L473.04 119.219L467.04 139.719L468.96 140.281ZM473.075 119.881L476.575 128.381L478.425 127.619L474.925 119.119L473.075 119.881ZM478.465 128.263L481.465 117.263L479.535 116.737L476.535 127.737L478.465 128.263ZM479.643 117.514L482.643 122.514L484.357 121.486L481.357 116.486L479.643 117.514ZM484.485 122.174L485.985 113.674L484.015 113.326L482.515 121.826L484.485 122.174ZM484.817 114.483L491.817 115.788L492.183 113.822L485.183 112.517L484.817 114.483ZM492.967 114.549L489.967 103.244L488.033 103.756L491.033 115.062L492.967 114.549ZM489.524 104.352L496.024 100.352L494.976 98.6483L488.476 102.648L489.524 104.352ZM496.101 98.7008L487.457 92.2008L486.255 93.7992L494.899 100.299L496.101 98.7008ZM486.856 92H470.296V94H486.856V92ZM469.296 75.9008V93H471.296V75.9008H469.296ZM471.172 74.9656C470.93 74.971 470.693 74.9532 470.46 74.9144L470.131 76.8872C470.485 76.9461 470.847 76.9734 471.217 76.9652L471.172 74.9656ZM473.903 73.7618C473.226 74.4049 472.31 74.9404 471.172 74.9656L471.217 76.9652C472.996 76.9256 474.364 76.0825 475.281 75.2115L473.903 73.7618ZM476.259 69.349C475.935 70.6281 475.193 72.5362 473.903 73.7618L475.281 75.2115C476.974 73.6028 477.837 71.2617 478.197 69.84L476.259 69.349ZM476.292 69.1775C476.284 69.2342 476.273 69.2914 476.259 69.349L478.197 69.84C478.231 69.7083 478.256 69.5761 478.274 69.444L476.292 69.1775ZM477.45 66.7379C477.45 67.4093 477.152 68.0568 476.595 68.585L477.971 70.0365C478.867 69.1868 479.45 68.0349 479.45 66.7379H477.45ZM476.577 64.874C477.146 65.4052 477.45 66.0595 477.45 66.7379H479.45C479.45 65.4269 478.855 64.2648 477.942 63.4125L476.577 64.874ZM477.45 61.2707C477.45 62.0906 477.117 62.8524 476.541 63.4482L477.979 64.8384C478.884 63.9025 479.45 62.6533 479.45 61.2707H477.45ZM473.683 57.9251C475.852 57.9251 477.45 59.5079 477.45 61.2707H479.45C479.45 58.2335 476.779 55.9251 473.683 55.9251V57.9251ZM472.789 58.0201C473.074 57.9582 473.374 57.9251 473.683 57.9251V55.9251C473.231 55.9251 472.789 55.9735 472.365 56.0655L472.789 58.0201ZM466.296 76.4898V75.5337H464.296V76.4898H466.296ZM463.999 76.7315C464.324 77.0603 464.607 77.261 464.841 77.3807L465.75 75.5989C465.741 75.5942 465.627 75.5337 465.424 75.3274L463.999 76.7315ZM463.586 76.2651C463.716 76.4268 463.854 76.584 463.999 76.7315L465.424 75.3274C465.333 75.2349 465.24 75.1299 465.147 75.0137L463.586 76.2651ZM465.156 74.5434C464.869 74.5839 464.576 74.6173 464.279 74.6432L464.454 76.6356C464.785 76.6066 465.112 76.5693 465.435 76.5239L465.156 74.5434Z" fill="black" mask="url(#path-5-inside-1_462_3643)"/>
<mask id="path-7-inside-2_462_3643" fill="white">
<path fill-rule="evenodd" clip-rule="evenodd" d="M102.192 20.8317C102.192 21.2155 102.145 21.5884 102.057 21.9448C104.057 22.4448 105.538 24.2537 105.538 26.4086C105.538 28.9497 103.478 31.0096 100.937 31.0096C99.8036 31.0096 98.7656 30.5995 97.9636 29.9195C97.3189 30.9541 96.3604 31.7729 95.2212 32.2427V41H110.168L114 52.5281L109.317 50.8202L108.465 60.6404L103.356 57.6517L102.079 70.4607L96.9703 65.6053L93.1386 79L89.5079 68.7528L88.0297 72.5955L85.9112 61.6153L83.3465 65.6053L82.0693 59.3596L79.5149 61.6153L78.7179 55.6302L75.2574 59.3596V49.1124H71L78.7179 41H91.0385V32.3495C89.8854 31.942 88.898 31.1835 88.2047 30.2025C87.4643 30.7116 86.5674 31.0096 85.601 31.0096C83.0599 31.0096 81 28.9497 81 26.4086C81 24.6079 82.0345 23.0487 83.5417 22.2931C83.5204 22.1343 83.5095 21.9723 83.5095 21.8077C83.5095 19.8057 85.1324 18.1827 87.1345 18.1827L87.1532 18.1827C87.3645 15.8377 89.3354 14 91.7354 14C93.546 14 95.1123 15.0458 95.8632 16.5664C96.3968 16.3499 96.9802 16.2307 97.5915 16.2307C100.133 16.2307 102.192 18.2907 102.192 20.8317Z"/>
</mask>
<path fill-rule="evenodd" clip-rule="evenodd" d="M102.192 20.8317C102.192 21.2155 102.145 21.5884 102.057 21.9448C104.057 22.4448 105.538 24.2537 105.538 26.4086C105.538 28.9497 103.478 31.0096 100.937 31.0096C99.8036 31.0096 98.7656 30.5995 97.9636 29.9195C97.3189 30.9541 96.3604 31.7729 95.2212 32.2427V41H110.168L114 52.5281L109.317 50.8202L108.465 60.6404L103.356 57.6517L102.079 70.4607L96.9703 65.6053L93.1386 79L89.5079 68.7528L88.0297 72.5955L85.9112 61.6153L83.3465 65.6053L82.0693 59.3596L79.5149 61.6153L78.7179 55.6302L75.2574 59.3596V49.1124H71L78.7179 41H91.0385V32.3495C89.8854 31.942 88.898 31.1835 88.2047 30.2025C87.4643 30.7116 86.5674 31.0096 85.601 31.0096C83.0599 31.0096 81 28.9497 81 26.4086C81 24.6079 82.0345 23.0487 83.5417 22.2931C83.5204 22.1343 83.5095 21.9723 83.5095 21.8077C83.5095 19.8057 85.1324 18.1827 87.1345 18.1827L87.1532 18.1827C87.3645 15.8377 89.3354 14 91.7354 14C93.546 14 95.1123 15.0458 95.8632 16.5664C96.3968 16.3499 96.9802 16.2307 97.5915 16.2307C100.133 16.2307 102.192 18.2907 102.192 20.8317Z" fill="#FF8577"/>
<path d="M102.057 21.9448L101.086 21.7037L100.846 22.6728L101.814 22.915L102.057 21.9448ZM97.9636 29.9195L98.6104 29.1568L97.7273 28.408L97.1149 29.3906L97.9636 29.9195ZM95.2212 32.2427L94.84 31.3182L94.2212 31.5734V32.2427H95.2212ZM95.2212 41H94.2212V42H95.2212V41ZM110.168 41L111.117 40.6846L110.89 40H110.168V41ZM114 52.5281L113.657 53.4676L115.602 54.1766L114.949 52.2127L114 52.5281ZM109.317 50.8202L109.659 49.8807L108.433 49.4336L108.321 50.7338L109.317 50.8202ZM108.465 60.6404L107.96 61.5036L109.325 62.3019L109.462 60.7268L108.465 60.6404ZM103.356 57.6517L103.861 56.7885L102.516 56.0015L102.361 57.5525L103.356 57.6517ZM102.079 70.4607L101.39 71.1855L102.872 72.5932L103.074 70.5599L102.079 70.4607ZM96.9703 65.6053L97.6592 64.8805L96.4628 63.7435L96.0089 65.3303L96.9703 65.6053ZM93.1386 79L92.196 79.334L93.2402 82.2809L94.1 79.275L93.1386 79ZM89.5079 68.7528L90.4505 68.4188L89.5464 65.8673L88.5746 68.3938L89.5079 68.7528ZM88.0297 72.5955L87.0478 72.785L87.7093 76.2137L88.963 72.9545L88.0297 72.5955ZM85.9112 61.6153L86.8931 61.4258L86.4201 58.9742L85.07 61.0746L85.9112 61.6153ZM83.3465 65.6053L82.3668 65.8057L82.8591 68.2131L84.1877 66.146L83.3465 65.6053ZM82.0693 59.3596L83.049 59.1592L82.7028 57.4661L81.4074 58.61L82.0693 59.3596ZM79.5149 61.6153L78.5236 61.7473L78.7711 63.6061L80.1768 62.3649L79.5149 61.6153ZM78.7179 55.6302L79.7091 55.4982L79.4289 53.3937L77.9848 54.95L78.7179 55.6302ZM75.2574 59.3596H74.2574V61.9074L75.9905 60.0397L75.2574 59.3596ZM75.2574 49.1124H76.2574V48.1124H75.2574V49.1124ZM71 49.1124L70.2755 48.4231L68.6684 50.1124H71V49.1124ZM78.7179 41V40H78.289L77.9934 40.3107L78.7179 41ZM91.0385 41V42H92.0385V41H91.0385ZM91.0385 32.3495H92.0385V31.6423L91.3717 31.4067L91.0385 32.3495ZM88.2047 30.2025L89.0214 29.6254L88.4516 28.8191L87.6381 29.3785L88.2047 30.2025ZM83.5417 22.2931L83.9899 23.1871L84.6275 22.8674L84.5328 22.1605L83.5417 22.2931ZM87.1345 18.1827L87.137 17.1827H87.1345V18.1827ZM87.1532 18.1827L87.1507 19.1827L88.0669 19.1851L88.1492 18.2725L87.1532 18.1827ZM95.8632 16.5664L94.9666 17.0092L95.378 17.8423L96.2391 17.4931L95.8632 16.5664ZM103.027 22.186C103.135 21.7513 103.192 21.2975 103.192 20.8317H101.192C101.192 21.1336 101.156 21.4255 101.086 21.7037L103.027 22.186ZM106.538 26.4086C106.538 23.784 104.734 21.5833 102.299 20.9747L101.814 22.915C103.38 23.3063 104.538 24.7234 104.538 26.4086H106.538ZM100.937 32.0096C104.031 32.0096 106.538 29.502 106.538 26.4086H104.538C104.538 28.3974 102.926 30.0096 100.937 30.0096V32.0096ZM97.3169 30.6823C98.2928 31.5097 99.558 32.0096 100.937 32.0096V30.0096C100.049 30.0096 99.2385 29.6893 98.6104 29.1568L97.3169 30.6823ZM95.6025 33.1671C96.937 32.6168 98.0582 31.6586 98.8123 30.4484L97.1149 29.3906C96.5797 30.2496 95.7838 30.929 94.84 31.3182L95.6025 33.1671ZM96.2212 41V32.2427H94.2212V41H96.2212ZM110.168 40H95.2212V42H110.168V40ZM114.949 52.2127L111.117 40.6846L109.219 41.3154L113.051 52.8435L114.949 52.2127ZM108.974 51.7597L113.657 53.4676L114.343 51.5886L109.659 49.8807L108.974 51.7597ZM109.462 60.7268L110.313 50.9066L108.321 50.7338L107.469 60.5541L109.462 60.7268ZM102.851 58.5148L107.96 61.5036L108.97 59.7773L103.861 56.7885L102.851 58.5148ZM103.074 70.5599L104.351 57.7509L102.361 57.5525L101.084 70.3615L103.074 70.5599ZM96.2814 66.3302L101.39 71.1855L102.768 69.7358L97.6592 64.8805L96.2814 66.3302ZM94.1 79.275L97.9317 65.8804L96.0089 65.3303L92.1772 78.725L94.1 79.275ZM88.5653 69.0868L92.196 79.334L94.0812 78.666L90.4505 68.4188L88.5653 69.0868ZM88.963 72.9545L90.4412 69.1118L88.5746 68.3938L87.0964 72.2365L88.963 72.9545ZM84.9293 61.8047L87.0478 72.785L89.0116 72.4061L86.8931 61.4258L84.9293 61.8047ZM84.1877 66.146L86.7524 62.156L85.07 61.0746L82.5053 65.0646L84.1877 66.146ZM81.0896 59.5599L82.3668 65.8057L84.3263 65.405L83.049 59.1592L81.0896 59.5599ZM80.1768 62.3649L82.7312 60.1091L81.4074 58.61L78.8529 60.8657L80.1768 62.3649ZM77.7266 55.7622L78.5236 61.7473L80.5061 61.4833L79.7091 55.4982L77.7266 55.7622ZM75.9905 60.0397L79.4509 56.3104L77.9848 54.95L74.5244 58.6794L75.9905 60.0397ZM74.2574 49.1124V59.3596H76.2574V49.1124H74.2574ZM71 50.1124H75.2574V48.1124H71V50.1124ZM77.9934 40.3107L70.2755 48.4231L71.7245 49.8016L79.4424 41.6893L77.9934 40.3107ZM91.0385 40H78.7179V42H91.0385V40ZM90.0385 32.3495V41H92.0385V32.3495H90.0385ZM87.3881 30.7796C88.1988 31.9269 89.3538 32.8148 90.7053 33.2924L91.3717 31.4067C90.4169 31.0692 89.5972 30.4402 89.0214 29.6254L87.3881 30.7796ZM85.601 32.0096C86.7761 32.0096 87.8695 31.6466 88.7713 31.0265L87.6381 29.3785C87.0591 29.7766 86.3587 30.0096 85.601 30.0096V32.0096ZM80 26.4086C80 29.502 82.5076 32.0096 85.601 32.0096V30.0096C83.6122 30.0096 82 28.3974 82 26.4086H80ZM83.0935 21.3992C81.2612 22.3178 80 24.215 80 26.4086H82C82 25.0007 82.8078 23.7797 83.9899 23.1871L83.0935 21.3992ZM82.5095 21.8077C82.5095 22.0168 82.5234 22.2231 82.5505 22.4258L84.5328 22.1605C84.5175 22.0455 84.5095 21.9278 84.5095 21.8077H82.5095ZM87.1345 17.1827C84.5801 17.1827 82.5095 19.2534 82.5095 21.8077H84.5095C84.5095 20.3579 85.6847 19.1827 87.1345 19.1827V17.1827ZM87.1558 17.1827L87.137 17.1827L87.1319 19.1827L87.1507 19.1827L87.1558 17.1827ZM91.7354 13C88.8132 13 86.4146 15.2372 86.1572 18.093L88.1492 18.2725C88.3145 16.4382 89.8575 15 91.7354 15V13ZM96.7598 16.1236C95.8469 14.275 93.941 13 91.7354 13V15C93.151 15 94.3777 15.8167 94.9666 17.0092L96.7598 16.1236ZM97.5915 15.2307C96.8492 15.2307 96.1383 15.3757 95.4874 15.6397L96.2391 17.4931C96.6553 17.3242 97.1113 17.2307 97.5915 17.2307V15.2307ZM103.192 20.8317C103.192 17.7384 100.685 15.2307 97.5915 15.2307V17.2307C99.5803 17.2307 101.192 18.8429 101.192 20.8317H103.192Z" fill="black" mask="url(#path-7-inside-2_462_3643)"/>
</svg>
