<svg width="537" height="185" viewBox="0 0 537 185" fill="none" xmlns="http://www.w3.org/2000/svg">
<rect width="537" height="185" fill="#6560D3"/>
<path d="M82 79H38L24 94.5H31.5L30 101L38 94.5L38.5 106L41 122.5L44 112L49 110V127L54.5 117.5L61.5 141L67 116L74.5 122.5L77 107L81 114L85 94.5L94.5 89.5L82 79Z" fill="#FFC700" stroke="black"/>
<path d="M445.255 34H415.439L407 40.7257L411.034 44.4248V50.4091L414.5 46.7788L415.439 52.8319L418.912 51.7045L420.235 59.8938L423.324 56.4545L424.647 62.9318L428.618 59.8938L431.025 72L435.235 58.1818L440.529 62.9318L441.867 52.8319L446.949 55.1591V46.7788L452 44.4248L445.255 34Z" fill="#C6B8FF" stroke="black"/>
<path d="M110.168 41H78.7179L71 49.1124H75.2574V59.3596L78.7179 55.6302L79.5149 61.6153L82.0693 59.3596L83.3465 65.6053L85.9112 61.6153L88.0297 72.5955L89.5079 68.7528L93.1386 79L96.9703 65.6053L102.079 70.4607L103.356 57.6517L108.465 60.6404L109.317 50.8202L114 52.5281L110.168 41Z" fill="#FF8577" stroke="black"/>
<path d="M123.32 78.92V107H116.48V78.92H123.32ZM138.437 107.28C136.384 107.28 134.544 106.947 132.917 106.28C131.29 105.613 129.984 104.627 128.997 103.32C128.037 102.013 127.53 100.44 127.477 98.6H134.757C134.864 99.64 135.224 100.44 135.837 101C136.45 101.533 137.25 101.8 138.237 101.8C139.25 101.8 140.05 101.573 140.637 101.12C141.224 100.64 141.517 99.9867 141.517 99.16C141.517 98.4667 141.277 97.8933 140.797 97.44C140.344 96.9867 139.77 96.6133 139.077 96.32C138.41 96.0267 137.45 95.6933 136.197 95.32C134.384 94.76 132.904 94.2 131.757 93.64C130.61 93.08 129.624 92.2533 128.797 91.16C127.97 90.0667 127.557 88.64 127.557 86.88C127.557 84.2667 128.504 82.2267 130.397 80.76C132.29 79.2667 134.757 78.52 137.797 78.52C140.89 78.52 143.384 79.2667 145.277 80.76C147.17 82.2267 148.184 84.28 148.317 86.92H140.917C140.864 86.0133 140.53 85.3067 139.917 84.8C139.304 84.2667 138.517 84 137.557 84C136.73 84 136.064 84.2267 135.557 84.68C135.05 85.1067 134.797 85.7333 134.797 86.56C134.797 87.4667 135.224 88.1733 136.077 88.68C136.93 89.1867 138.264 89.7333 140.077 90.32C141.89 90.9333 143.357 91.52 144.477 92.08C145.624 92.64 146.61 93.4533 147.437 94.52C148.264 95.5867 148.677 96.96 148.677 98.64C148.677 100.24 148.264 101.693 147.437 103C146.637 104.307 145.464 105.347 143.917 106.12C142.37 106.893 140.544 107.28 138.437 107.28ZM159.726 101.72H168.686V107H152.886V78.92H159.726V101.72ZM178.789 84.4V90.08H187.949V95.36H178.789V101.52H189.149V107H171.949V78.92H189.149V84.4H178.789ZM203.749 107.28C201.696 107.28 199.856 106.947 198.229 106.28C196.603 105.613 195.296 104.627 194.309 103.32C193.349 102.013 192.843 100.44 192.789 98.6H200.069C200.176 99.64 200.536 100.44 201.149 101C201.763 101.533 202.563 101.8 203.549 101.8C204.563 101.8 205.363 101.573 205.949 101.12C206.536 100.64 206.829 99.9867 206.829 99.16C206.829 98.4667 206.589 97.8933 206.109 97.44C205.656 96.9867 205.083 96.6133 204.389 96.32C203.723 96.0267 202.763 95.6933 201.509 95.32C199.696 94.76 198.216 94.2 197.069 93.64C195.923 93.08 194.936 92.2533 194.109 91.16C193.283 90.0667 192.869 88.64 192.869 86.88C192.869 84.2667 193.816 82.2267 195.709 80.76C197.603 79.2667 200.069 78.52 203.109 78.52C206.203 78.52 208.696 79.2667 210.589 80.76C212.483 82.2267 213.496 84.28 213.629 86.92H206.229C206.176 86.0133 205.843 85.3067 205.229 84.8C204.616 84.2667 203.829 84 202.869 84C202.043 84 201.376 84.2267 200.869 84.68C200.363 85.1067 200.109 85.7333 200.109 86.56C200.109 87.4667 200.536 88.1733 201.389 88.68C202.243 89.1867 203.576 89.7333 205.389 90.32C207.203 90.9333 208.669 91.52 209.789 92.08C210.936 92.64 211.923 93.4533 212.749 94.52C213.576 95.5867 213.989 96.96 213.989 98.64C213.989 100.24 213.576 101.693 212.749 103C211.949 104.307 210.776 105.347 209.229 106.12C207.683 106.893 205.856 107.28 203.749 107.28ZM236.835 107.32C234.649 107.32 232.675 106.853 230.915 105.92C229.182 104.987 227.809 103.653 226.795 101.92C225.809 100.187 225.315 98.16 225.315 95.84C225.315 93.5467 225.822 91.5333 226.835 89.8C227.849 88.04 229.235 86.6933 230.995 85.76C232.755 84.8267 234.729 84.36 236.915 84.36C239.102 84.36 241.075 84.8267 242.835 85.76C244.595 86.6933 245.982 88.04 246.995 89.8C248.009 91.5333 248.515 93.5467 248.515 95.84C248.515 98.1333 247.995 100.16 246.955 101.92C245.942 103.653 244.542 104.987 242.755 105.92C240.995 106.853 239.022 107.32 236.835 107.32ZM236.835 101.4C238.142 101.4 239.249 100.92 240.155 99.96C241.089 99 241.555 97.6267 241.555 95.84C241.555 94.0533 241.102 92.68 240.195 91.72C239.315 90.76 238.222 90.28 236.915 90.28C235.582 90.28 234.475 90.76 233.595 91.72C232.715 92.6533 232.275 94.0267 232.275 95.84C232.275 97.6267 232.702 99 233.555 99.96C234.435 100.92 235.529 101.4 236.835 101.4ZM263.344 90.36H259.664V107H252.824V90.36H250.344V84.68H252.824V84.04C252.824 81.2933 253.611 79.2133 255.184 77.8C256.757 76.36 259.064 75.64 262.104 75.64C262.611 75.64 262.984 75.6533 263.224 75.68V81.48C261.917 81.4 260.997 81.5867 260.464 82.04C259.931 82.4933 259.664 83.3067 259.664 84.48V84.68H263.344V90.36ZM281.755 78.92V95.72C281.755 97.4 282.168 98.6933 282.995 99.6C283.821 100.507 285.035 100.96 286.635 100.96C288.235 100.96 289.461 100.507 290.315 99.6C291.168 98.6933 291.595 97.4 291.595 95.72V78.92H298.435V95.68C298.435 98.1867 297.901 100.307 296.835 102.04C295.768 103.773 294.328 105.08 292.515 105.96C290.728 106.84 288.728 107.28 286.515 107.28C284.301 107.28 282.315 106.853 280.555 106C278.821 105.12 277.448 103.813 276.435 102.08C275.421 100.32 274.915 98.1867 274.915 95.68V78.92H281.755ZM323.438 78.92V84.4H315.998V107H309.158V84.4H301.718V78.92H323.438ZM340.151 107.28C337.511 107.28 335.084 106.667 332.871 105.44C330.684 104.213 328.937 102.507 327.631 100.32C326.351 98.1067 325.711 95.6267 325.711 92.88C325.711 90.1333 326.351 87.6667 327.631 85.48C328.937 83.2933 330.684 81.5867 332.871 80.36C335.084 79.1333 337.511 78.52 340.151 78.52C342.791 78.52 345.204 79.1333 347.391 80.36C349.604 81.5867 351.337 83.2933 352.591 85.48C353.871 87.6667 354.511 90.1333 354.511 92.88C354.511 95.6267 353.871 98.1067 352.591 100.32C351.311 102.507 349.577 104.213 347.391 105.44C345.204 106.667 342.791 107.28 340.151 107.28ZM340.151 101.04C342.391 101.04 344.177 100.293 345.511 98.8C346.871 97.3067 347.551 95.3333 347.551 92.88C347.551 90.4 346.871 88.4267 345.511 86.96C344.177 85.4667 342.391 84.72 340.151 84.72C337.884 84.72 336.071 85.4533 334.711 86.92C333.377 88.3867 332.711 90.3733 332.711 92.88C332.711 95.36 333.377 97.3467 334.711 98.84C336.071 100.307 337.884 101.04 340.151 101.04ZM379.716 87.96C379.716 89.5867 379.343 91.08 378.596 92.44C377.849 93.7733 376.703 94.8533 375.156 95.68C373.609 96.5067 371.689 96.92 369.396 96.92H365.156V107H358.316V78.92H369.396C371.636 78.92 373.529 79.3067 375.076 80.08C376.623 80.8533 377.783 81.92 378.556 83.28C379.329 84.64 379.716 86.2 379.716 87.96ZM368.876 91.48C370.183 91.48 371.156 91.1733 371.796 90.56C372.436 89.9467 372.756 89.08 372.756 87.96C372.756 86.84 372.436 85.9733 371.796 85.36C371.156 84.7467 370.183 84.44 368.876 84.44H365.156V91.48H368.876ZM390.117 78.92V107H383.277V78.92H390.117ZM412.554 102.04H402.074L400.394 107H393.234L403.394 78.92H411.314L421.474 107H414.234L412.554 102.04ZM410.794 96.76L407.314 86.48L403.874 96.76H410.794Z" fill="white"/>
</svg>
