<svg width="527" height="395" viewBox="0 0 527 395" fill="none" xmlns="http://www.w3.org/2000/svg">
<path d="M506.653 106.301C506.774 106.514 506.621 106.779 506.376 106.779L46.7552 106.779C46.6682 106.779 46.5849 106.743 46.5247 106.68L26.1167 85.3922C25.9971 85.2674 25.9985 85.0702 26.1198 84.9471L59.4662 51.1146C59.5303 51.0495 59.6193 51.015 59.7106 51.0199L141.14 55.3829L213.65 51.0122L270.594 45.8347C270.612 45.833 270.631 45.833 270.65 45.8346L331.478 51.0122L364.464 56.0256C364.485 56.0288 364.506 56.0299 364.527 56.0289L475.007 51.0211C475.126 51.0156 475.239 51.0779 475.299 51.1822L506.653 106.301Z" fill="#90B05B"/>
<path d="M290.049 54.0882L226.603 64.4483L161.215 68.9808L124.96 59.2682L69.9307 64.4483L36.2656 85.1685L40.7975 108.479L108.775 92.9385H384.57L475.207 81.2834L441.542 64.4483L347.021 81.2834L290.049 54.0882Z" fill="#9ED35D"/>
<path d="M186.084 25.072V33.84H174.18V70H163.236V33.84H151.332V25.072H186.084ZM213.529 33.904C217.625 33.904 220.91 35.2693 223.385 38C225.86 40.688 227.097 44.4 227.097 49.136V70H216.217V50.608C216.217 48.2187 215.598 46.3627 214.361 45.04C213.124 43.7173 211.46 43.056 209.369 43.056C207.278 43.056 205.614 43.7173 204.377 45.04C203.14 46.3627 202.521 48.2187 202.521 50.608V70H191.577V22.64H202.521V39.088C203.63 37.5093 205.145 36.2507 207.065 35.312C208.985 34.3733 211.14 33.904 213.529 33.904ZM268.366 51.568C268.366 52.592 268.302 53.6587 268.174 54.768H243.406C243.577 56.9867 244.281 58.6933 245.518 59.888C246.798 61.04 248.355 61.616 250.19 61.616C252.921 61.616 254.819 60.464 255.886 58.16H267.534C266.937 60.5067 265.849 62.6187 264.27 64.496C262.734 66.3733 260.793 67.8453 258.446 68.912C256.099 69.9787 253.475 70.512 250.574 70.512C247.075 70.512 243.961 69.7653 241.23 68.272C238.499 66.7787 236.366 64.6453 234.83 61.872C233.294 59.0987 232.526 55.856 232.526 52.144C232.526 48.432 233.273 45.1893 234.766 42.416C236.302 39.6427 238.435 37.5093 241.166 36.016C243.897 34.5227 247.033 33.776 250.574 33.776C254.03 33.776 257.102 34.5013 259.79 35.952C262.478 37.4027 264.569 39.472 266.062 42.16C267.598 44.848 268.366 47.984 268.366 51.568ZM257.166 48.688C257.166 46.8107 256.526 45.3173 255.246 44.208C253.966 43.0987 252.366 42.544 250.446 42.544C248.611 42.544 247.054 43.0773 245.774 44.144C244.537 45.2107 243.769 46.7253 243.47 48.688H257.166ZM319.707 33.904C324.145 33.904 327.665 35.248 330.267 37.936C332.913 40.624 334.235 44.3573 334.235 49.136V70H323.355V50.608C323.355 48.304 322.737 46.5333 321.499 45.296C320.305 44.016 318.641 43.376 316.507 43.376C314.374 43.376 312.689 44.016 311.451 45.296C310.257 46.5333 309.659 48.304 309.659 50.608V70H298.779V50.608C298.779 48.304 298.161 46.5333 296.923 45.296C295.729 44.016 294.065 43.376 291.931 43.376C289.798 43.376 288.113 44.016 286.875 45.296C285.681 46.5333 285.083 48.304 285.083 50.608V70H274.139V34.288H285.083V38.768C286.193 37.2747 287.643 36.1013 289.435 35.248C291.227 34.352 293.254 33.904 295.515 33.904C298.203 33.904 300.593 34.48 302.683 35.632C304.817 36.784 306.481 38.4267 307.675 40.56C308.913 38.5973 310.598 36.9973 312.731 35.76C314.865 34.5227 317.19 33.904 319.707 33.904ZM375.553 51.568C375.553 52.592 375.489 53.6587 375.361 54.768H350.593C350.764 56.9867 351.468 58.6933 352.705 59.888C353.985 61.04 355.543 61.616 357.377 61.616C360.108 61.616 362.007 60.464 363.073 58.16H374.721C374.124 60.5067 373.036 62.6187 371.457 64.496C369.921 66.3733 367.98 67.8453 365.633 68.912C363.287 69.9787 360.663 70.512 357.761 70.512C354.263 70.512 351.148 69.7653 348.417 68.272C345.687 66.7787 343.553 64.6453 342.017 61.872C340.481 59.0987 339.713 55.856 339.713 52.144C339.713 48.432 340.46 45.1893 341.953 42.416C343.489 39.6427 345.623 37.5093 348.353 36.016C351.084 34.5227 354.22 33.776 357.761 33.776C361.217 33.776 364.289 34.5013 366.977 35.952C369.665 37.4027 371.756 39.472 373.249 42.16C374.785 44.848 375.553 47.984 375.553 51.568ZM364.353 48.688C364.353 46.8107 363.713 45.3173 362.433 44.208C361.153 43.0987 359.553 42.544 357.633 42.544C355.799 42.544 354.241 43.0773 352.961 44.144C351.724 45.2107 350.956 46.7253 350.657 48.688H364.353Z" fill="white"/>
<path d="M526.808 141.258C526.899 141.468 526.744 141.703 526.515 141.703L1.11963 141.703C0.876343 141.703 0.722473 141.442 0.840332 141.229L19.7087 107.166C19.7321 107.124 19.7647 107.087 19.8042 107.06L58.2453 80.0112C58.2669 79.996 58.2904 79.9835 58.315 79.9741L102.2 63.1919C102.266 63.1667 102.338 63.164 102.406 63.1842L158.553 79.9666C158.601 79.9808 158.651 79.9837 158.7 79.975L198.725 72.8729C198.751 72.8681 198.779 72.8668 198.806 72.869L287.417 79.9848C287.445 79.9871 287.474 79.9856 287.502 79.9803L376.72 63.1685C376.774 63.1584 376.829 63.1621 376.88 63.1793L427.234 79.9663C427.277 79.9808 427.323 79.9857 427.369 79.9809L496.93 72.5254C497.069 72.5105 497.202 72.5879 497.257 72.7165L526.808 141.258Z" fill="#B9EE79"/>
<rect x="212.685" y="248.836" width="21.2112" height="93.2455" rx="0.0736841" fill="#AE0D94"/>
<rect x="189.544" y="202.208" width="21.2112" height="93.2455" rx="0.0736841" fill="#AE0D94"/>
<rect x="195.329" y="204.731" width="21.2112" height="93.2455" rx="0.0736841" fill="#AE0D94"/>
<rect x="413.228" y="223.632" width="21.2112" height="93.2455" rx="0.0736841" fill="#AE0D94"/>
<rect x="326.451" y="212.293" width="21.2112" height="93.2455" rx="0.0736841" fill="#AE0D94"/>
<rect x="395.87" y="184.571" width="21.2112" height="93.2455" rx="0.0736841" fill="#AE0D94"/>
<rect x="380.444" y="195.91" width="21.2112" height="93.2455" rx="0.0736841" fill="#AE0D94"/>
<rect x="347.661" y="247.575" width="21.2112" height="93.2455" rx="0.0736841" fill="#AE0D94"/>
<rect x="382.374" y="168.19" width="21.2112" height="93.2455" rx="0.0736841" fill="#AE0D94"/>
<rect x="137.48" y="223.632" width="21.2112" height="93.2455" rx="0.0736841" fill="#AE0D94"/>
<rect x="156.763" y="258.916" width="21.2112" height="93.2455" rx="0.0736841" fill="#AE0D94"/>
<rect x="156.763" y="218.591" width="21.2112" height="93.2455" rx="0.0736841" fill="#AE0D94"/>
<rect x="116.271" y="197.172" width="21.2112" height="93.2455" rx="0.0736841" fill="#660050"/>
<rect x="114.343" y="177.009" width="21.2112" height="93.2455" rx="0.0736841" fill="#660050"/>
<rect x="208.83" y="184.571" width="21.2112" height="93.2455" rx="0.0736841" fill="#660050"/>
<rect x="177.976" y="221.112" width="21.2112" height="93.2455" rx="0.0736841" fill="#660050"/>
<rect x="359.236" y="202.208" width="21.2112" height="93.2455" rx="0.0736841" fill="#660050"/>
<rect x="166.405" y="188.349" width="21.2112" height="93.2455" rx="0.0736841" fill="#660050"/>
<rect x="366.946" y="171.97" width="21.2112" height="93.2455" rx="0.0736841" fill="#660050"/>
<path d="M366.946 172.044C366.946 172.003 366.979 171.97 367.019 171.97H388.083C388.124 171.97 388.157 172.003 388.157 172.044V265.142C388.157 265.183 388.124 265.216 388.083 265.216H367.019C366.979 265.216 366.946 265.183 366.946 265.142V172.044Z" fill="#660050"/>
<path d="M402.619 228.747C402.619 228.706 402.652 228.673 402.693 228.673H423.757C423.797 228.673 423.83 228.706 423.83 228.747V321.845C423.83 321.886 423.797 321.919 423.757 321.919H402.693C402.652 321.919 402.619 321.886 402.619 321.845V228.747Z" fill="#660050"/>
<path d="M366.946 114.081C366.946 114.04 366.979 114.007 367.019 114.007H388.083C388.124 114.007 388.157 114.04 388.157 114.081V202.141C388.157 202.181 388.124 202.214 388.083 202.214H367.019C366.979 202.214 366.946 202.181 366.946 202.141V114.081Z" fill="#660050"/>
<path d="M402.619 165.746C402.619 165.705 402.652 165.672 402.693 165.672H423.757C423.797 165.672 423.83 165.705 423.83 165.746V258.844C423.83 258.885 423.797 258.918 423.757 258.918H402.693C402.652 258.918 402.619 258.885 402.619 258.844V165.746Z" fill="#660050"/>
<path d="M64.2036 160.629H129.765L122.052 260.174L120.124 275.925L113.375 260.174L98.9128 287.266L84.4506 274.665L77.7016 244.424L64.2036 261.435V160.629Z" fill="#344C4C"/>
<path d="M309.102 168.19H374.663L366.95 267.736L365.022 283.487L358.273 267.736L343.811 294.828L329.349 282.227L322.6 251.985L309.102 268.996V168.19Z" fill="#336262"/>
<path d="M407.442 149.287H473.004L465.291 248.833L463.363 264.584L456.614 248.833L442.152 275.925L427.689 263.324L420.94 233.082L407.442 250.093V149.287Z" fill="#2A5A5A"/>
<path d="M326.451 202.208H226.18L231 353.756L240.925 377.735L251.247 353.756L273.366 395L295.485 375.817L305.807 329.777L326.451 355.674V202.208Z" fill="#273535"/>
<rect x="415.156" y="126.606" width="84.8446" height="31.5018" rx="0.147368" fill="#745B5F"/>
<rect x="289.815" y="221.112" width="123.41" height="50.403" rx="0.147368" transform="rotate(-180 289.815 221.112)" fill="#665754"/>
<rect x="457.576" y="192.128" width="131.124" height="52.9231" rx="0.17193" transform="rotate(-180 457.576 192.128)" fill="#665754"/>
<rect x="42.9932" y="141.727" width="84.8446" height="31.5018" rx="0.147368" fill="#745B5F"/>
<path d="M44.9957 131.722C70.2236 132.576 120.863 131.349 126.673 131.722C144.708 132.881 134.617 153.07 134.617 153.07H35.3051C35.3051 153.07 26.8969 131.109 44.9957 131.722Z" fill="#7DA55A"/>
<path d="M416.938 119.109C441.711 119.812 491.437 118.801 497.142 119.109C514.852 120.063 504.943 136.69 504.943 136.69H407.423C407.423 136.69 399.166 118.604 416.938 119.109Z" fill="#97D263"/>
<path d="M97.0586 139.28C122.287 140.134 172.926 138.906 178.736 139.28C196.771 140.439 186.68 160.628 186.68 160.628H87.3681C87.3681 160.628 78.9599 138.667 97.0586 139.28Z" fill="#96CC5B"/>
<rect x="95.061" y="156.849" width="84.8446" height="31.5018" rx="0.147368" fill="#7C655D"/>
<path d="M349.593 136.832C349.593 136.751 349.659 136.685 349.741 136.685H434.291C434.372 136.685 434.438 136.751 434.438 136.832V162.999C434.438 163.081 434.372 163.147 434.291 163.147H349.741C349.659 163.147 349.593 163.081 349.593 162.999V136.832Z" fill="#7C655D"/>
<path d="M351.596 125.42C376.824 126.274 427.463 125.046 433.273 125.42C451.308 126.579 441.217 146.768 441.217 146.768H341.905C341.905 146.768 333.497 124.807 351.596 125.42Z" fill="#7DA55A"/>
<path d="M341.731 121.567C341.812 121.567 341.878 121.633 341.878 121.714L341.878 202.064C341.878 202.146 341.812 202.212 341.731 202.212L264.894 202.212C264.813 202.212 264.747 202.146 264.747 202.064L264.747 121.714C264.747 121.633 264.813 121.567 264.894 121.567L341.731 121.567Z" fill="#705E5B"/>
<path d="M264.75 121.714C264.75 121.633 264.815 121.567 264.897 121.567L388.012 121.567C388.094 121.567 388.16 121.633 388.16 121.714V171.823C388.16 171.904 388.094 171.97 388.012 171.97H264.897C264.815 171.97 264.75 171.904 264.75 171.823V121.714Z" fill="#705E5B"/>
<rect x="179.906" y="139.207" width="96.4144" height="31.5018" rx="0.147368" fill="#7D6463"/>
<path d="M191.336 135.489C216.109 136.192 265.835 135.182 271.54 135.489C289.25 136.444 279.341 153.07 279.341 153.07H181.821C181.821 153.07 173.564 134.984 191.336 135.489Z" fill="#97D263"/>
<path d="M272.347 112.81C305.534 113.564 372.148 112.481 379.79 112.81C403.515 113.833 390.241 131.647 390.241 131.647H259.6C259.6 131.647 248.539 112.27 272.347 112.81Z" fill="#A4D965"/>
<rect x="204.972" y="156.849" width="80.6447" height="77.1315" rx="0.147368" transform="rotate(90 204.972 156.849)" fill="#705E5B"/>
<path d="M125.984 146.841C151.212 147.695 201.851 146.468 207.661 146.841C225.697 148 215.606 168.19 215.606 168.19H116.293C116.293 168.19 107.885 146.229 125.984 146.841Z" fill="#A3D768"/>
<path d="M204.514 369.464L212.228 364.708L220.593 376.008L212.178 381.197L204.514 369.464Z" fill="#344C4C"/>
<path d="M119.248 316.596L126.962 311.84L135.327 323.14L126.912 328.329L119.248 316.596Z" fill="#477474"/>
<path d="M385.872 342.467L390.499 336.231L396.651 342.382L391.603 349.184L385.872 342.467Z" fill="#336262"/>
<path d="M279.261 314.294L283.888 308.058L290.039 314.208L284.991 321.011L279.261 314.294Z" fill="#336262"/>
<path d="M161.636 294.131L166.263 287.895L172.415 294.046L167.367 300.849L161.636 294.131Z" fill="#336262"/>
<path d="M78.721 276.491L83.3481 270.255L89.4996 276.406L84.4518 283.209L78.721 276.491Z" fill="#336262"/>
<path d="M342.233 370.69L337.552 376.909L331.454 370.736L336.56 363.952L342.233 370.69Z" fill="#273535"/>
</svg>
