<svg width="1728" height="3190" viewBox="0 0 1728 3190" fill="none" xmlns="http://www.w3.org/2000/svg">
<g opacity="0.56">
<g filter="url(#filter0_f_4603_3)">
<path d="M1184.78 850.304C1428.43 994.993 1677.28 956.547 1771.25 919.238V998.707C1654.44 1030.41 1549.58 1040.05 1511.75 1040.92C1402.45 1055.39 1277.02 997.558 1227.98 966.834C1157.91 948.227 1002.59 753.488 933.69 658.444C878.336 563.343 750.053 458.02 692.831 417.246C490.334 315.942 373.729 325.074 340.738 342.302C206.908 358.152 74.7715 524.637 25.4318 605.898V568.856C73.3116 501.378 203.405 358.841 340.738 328.519C478.072 298.197 638.528 367.57 701.589 406.047C761.147 419.83 889.314 572.015 945.952 646.384C998.503 729.77 1127.06 817.075 1184.78 850.304Z" fill="url(#paint0_linear_4603_3)"/>
</g>
<g filter="url(#filter1_f_4603_3)">
<path d="M1768.57 555.364C1746.04 549.021 1678.43 547.151 1588.29 590.419C1547.73 607.946 1455.79 659.326 1412.52 724.628L1340.41 827.789C1328.55 848.321 1291.13 893.191 1236.24 908.415C1207.7 921.435 1140.59 948.077 1100.53 950.481C1051.62 956.657 952.2 970.111 945.79 974.518C867.523 987.739 859.468 1032.86 795.976 1045.58C768.746 1051.04 739.141 1052.87 709.859 1051.78C689.647 1055.55 668.261 1056.86 648.162 1053.72C603.512 1046.74 557.998 1021.77 537.972 999.33C534.727 995.861 532.147 992.284 530.31 988.619C532.106 992.062 534.699 995.662 537.972 999.33C564.635 1027.83 636.227 1049.04 709.859 1051.78C748.735 1044.54 783.272 1028.23 795.976 1017.1C826.338 984.707 908.503 964.198 945.79 957.992L992.864 947.476L1025.41 943.47C1055.29 941.133 1123.47 932.453 1157.12 916.428C1186.67 905.41 1253.07 870.957 1282.32 821.279L1359.94 685.567C1377.63 657.19 1429.85 590.419 1497.15 550.356C1528.2 532.996 1608.12 497.474 1679.43 494.269C1700.97 493.935 1748.94 496.673 1768.57 510.294V555.364Z" fill="url(#paint1_linear_4603_3)"/>
</g>
<g filter="url(#filter2_f_4603_3)">
<path d="M1346.07 396.418C1497.11 406.168 1694.37 322.461 1757.56 300.322C1757.63 330.273 1812.64 426.276 1760.41 442.881C1743.9 448.129 1546.35 483.362 1472.25 493.454C1312.59 505.042 1279.33 452.092 1282.66 424.169C1296.37 378.257 1276.24 358.201 1264.46 353.912L1182.72 342.402L1091.77 338.39L964.229 331.305C786.854 315.026 655.284 268.47 611.671 247.226C488.066 187.02 449.041 154.128 364.389 137.197C240.679 112.454 70.6848 188.565 -32.6803 227.169L-30.4847 211.578C68.754 160.864 219.824 128.951 282.954 119.333C417.682 100.201 519.488 170.296 583.753 209.32C721.216 286.524 867.179 299.445 966.945 312.017C1042.65 315.588 1115.55 310.789 1142.53 307.943L1230 300.322C1308.91 293.711 1325.73 338.91 1324.28 362.336C1316.89 389.651 1335.73 396.439 1346.07 396.418Z" fill="url(#paint2_linear_4603_3)"/>
</g>
<g filter="url(#filter3_f_4603_3)">
<path d="M1369.03 208.619C1561.2 116.378 1705.33 120.364 1753.37 133.887V37.8022C1711.52 8.76343 1609.24 2.92719 1563.34 3.63892C1411.31 10.4716 1240.92 86.2003 1174.73 123.211C1031.24 208.619 919.928 350.966 882.206 411.464L716.727 700.785C654.379 806.691 512.814 880.142 449.826 903.629C378.083 937.793 232.746 956.298 169.046 961.28L99.6516 969.821L-0.703247 992.241V1027.47C12.962 1018.08 224.917 989.394 329.187 976.227C414.595 971.102 557.654 914.305 618.507 886.548C735.517 854.093 815.302 758.435 840.569 714.664L994.304 494.737C1086.54 355.521 1282.56 245.985 1369.03 208.619Z" fill="url(#paint3_linear_4603_3)"/>
</g>
</g>
<g opacity="0.56">
<g filter="url(#filter4_f_4603_3)">
<path d="M554.083 1959.98C310.434 2104.67 61.5775 2066.23 -32.3945 2028.92V2108.39C84.4196 2140.09 189.279 2149.74 227.107 2150.6C336.413 2165.07 461.835 2107.24 510.883 2076.51C580.951 2057.91 736.269 1863.17 805.169 1768.13C860.523 1673.02 988.806 1567.7 1046.03 1526.93C1248.53 1425.62 1365.13 1434.75 1398.12 1451.98C1531.95 1467.83 1664.09 1634.32 1713.43 1715.58V1678.54C1665.55 1611.06 1535.45 1468.52 1398.12 1438.2C1260.79 1407.88 1100.33 1477.25 1037.27 1515.73C977.712 1529.51 849.546 1681.7 792.907 1756.07C740.356 1839.45 611.795 1926.76 554.083 1959.98Z" fill="url(#paint4_linear_4603_3)"/>
</g>
<g filter="url(#filter5_f_4603_3)">
<path d="M392.792 1506.1C241.75 1515.85 44.4924 1432.14 -18.697 1410C-18.7657 1439.95 -73.7821 1535.96 -21.5542 1552.56C-5.04511 1557.81 192.513 1593.04 266.61 1603.14C426.27 1614.72 459.529 1561.77 456.201 1533.85C442.487 1487.94 462.618 1467.88 474.398 1463.59L556.14 1452.08L647.094 1448.07L774.631 1440.99C952.005 1424.71 1083.58 1378.15 1127.19 1356.91C1250.79 1296.7 1289.82 1263.81 1374.47 1246.88C1498.18 1222.13 1668.17 1298.25 1771.54 1336.85L1769.34 1321.26C1670.11 1270.55 1519.04 1238.63 1455.91 1229.01C1321.18 1209.88 1219.37 1279.98 1155.11 1319C1017.64 1396.21 871.681 1409.13 771.915 1421.7C696.21 1425.27 623.314 1420.47 596.329 1417.62L508.858 1410C429.947 1403.39 413.124 1448.59 414.577 1472.02C421.968 1499.33 403.133 1506.12 392.792 1506.1Z" fill="url(#paint5_linear_4603_3)"/>
</g>
<g filter="url(#filter6_f_4603_3)">
<path d="M348.343 1954.22C197.416 1942.82 40.715 1878.5 -18.7699 1847.76C-23.0144 1877.41 -28.9567 1940.21 -18.7699 1954.22C-8.5831 1968.24 137.896 2012.39 209.863 2032.72C366.347 2066.46 406.665 2018.66 407.263 1990.55C400.085 1943.17 422.815 1926.12 435.078 1923.51H517.627L608.252 1932.22L735.53 1942.99C913.442 1951.6 1050.22 1923.85 1096.37 1908.89C1221.27 1844.29 1321.88 1832.33 1356.58 1834.42C1428.36 1823.65 1640.25 1926.24 1737.22 1978.88V1963.14C1646.02 1899.08 1500.88 1846.41 1439.71 1828.09C1308.96 1790.36 1178.29 1843.81 1129.3 1875.25C1055.59 1917.37 836.075 1924.98 735.53 1923.51C660.067 1916.49 588.553 1901.58 562.228 1895L476.674 1875.25C399.456 1857.7 376.495 1900.11 374.667 1923.51C378.177 1951.59 358.58 1955.69 348.343 1954.22Z" fill="url(#paint6_linear_4603_3)"/>
</g>
<g filter="url(#filter7_f_4603_3)">
<path d="M-23.793 1717.7C22.4768 1736.38 145.008 1755.63 264.975 1683.19C293.391 1666.56 356.692 1622.85 382.567 1581.11C410.455 1543.87 473.561 1467.69 502.886 1460.79C533.936 1441.52 612.941 1406.79 680.561 1421.97C748.181 1437.15 835.811 1542.29 835.811 1542.29C835.811 1542.29 879.375 1584.75 914.624 1598.26C939.989 1607.98 961.865 1621.41 982.982 1611.12C973.055 1616.99 945.486 1625.2 914.624 1611.12C902.014 1605.12 868.597 1586.67 835.811 1560.84C765.726 1487.94 753.376 1457.95 680.561 1428.87C664.317 1420.25 606.904 1415.68 507.199 1466.39C479.024 1486.81 415.86 1539.53 388.605 1587.14C354.68 1634.72 278.205 1732.22 243.705 1741.53C219.555 1756.91 157.8 1785.86 103.98 1778.62C85.3543 1778.19 33.7237 1773.36 -23.793 1757.49V1717.7Z" fill="url(#paint7_linear_4603_3)"/>
</g>
</g>
<g opacity="0.56">
<g filter="url(#filter8_f_4603_3)">
<path d="M1170.79 2993.72C1414.44 3138.41 1663.29 3099.96 1757.26 3062.65V3142.12C1640.45 3173.82 1535.59 3183.47 1497.76 3184.33C1388.46 3198.8 1263.03 3140.97 1213.99 3110.25C1143.92 3091.64 988.6 2896.9 919.7 2801.86C864.346 2706.76 736.063 2601.44 678.841 2560.66C476.344 2459.36 359.739 2468.49 326.748 2485.72C192.918 2501.57 60.7812 2668.05 11.4415 2749.31V2712.27C59.3214 2644.79 189.415 2502.26 326.748 2471.94C464.082 2441.61 624.538 2510.99 687.599 2549.46C747.157 2563.25 875.323 2715.43 931.962 2789.8C984.513 2873.19 1113.07 2960.49 1170.79 2993.72Z" fill="url(#paint8_linear_4603_3)"/>
</g>
<g filter="url(#filter9_f_4603_3)">
<path d="M1739.38 2482C1716.85 2488.34 1649.24 2490.21 1559.1 2446.95C1518.54 2429.42 1426.59 2378.04 1383.33 2312.74L1311.21 2209.58C1299.36 2189.04 1261.94 2144.17 1207.05 2128.95C1178.51 2115.93 1111.4 2089.29 1071.34 2086.88C1022.43 2080.71 923.009 2067.25 916.599 2062.85C838.331 2049.63 830.277 2004.5 766.784 1991.78C739.554 1986.32 709.95 1984.49 680.668 1985.58C660.455 1981.82 639.07 1980.5 618.97 1983.64C574.321 1990.62 528.806 2015.6 508.781 2038.03C505.535 2041.5 502.955 2045.08 501.119 2048.75C502.915 2045.3 505.507 2041.7 508.781 2038.03C535.444 2009.54 607.035 1988.32 680.668 1985.58C719.543 1992.83 754.081 2009.14 766.784 2020.26C797.146 2052.66 879.311 2073.17 916.599 2079.37L963.672 2089.89L996.223 2093.89C1026.1 2096.23 1094.28 2104.91 1127.93 2120.94C1157.47 2131.95 1223.88 2166.41 1253.12 2216.09L1330.74 2351.8C1348.44 2380.17 1400.65 2446.95 1467.96 2487.01C1499.01 2504.37 1578.93 2539.89 1650.24 2543.1C1671.78 2543.43 1719.75 2540.69 1739.38 2527.07V2482Z" fill="url(#paint9_linear_4603_3)"/>
</g>
<g filter="url(#filter10_f_4603_3)">
<path d="M1569.16 2638.64C1636.22 2633.57 1717.82 2584.53 1744.24 2570.87C1746.13 2584.04 1776.28 2622.87 1754.33 2633.41C1747.4 2636.75 1662.66 2664.49 1630.69 2673.52C1561.16 2688.51 1543.25 2667.27 1542.98 2654.78C1546.17 2633.73 1536.07 2626.15 1530.63 2625H1493.95L1453.68 2628.87L1397.14 2633.65C1318.09 2637.48 1257.32 2625.15 1236.82 2618.5C1181.32 2589.8 1136.62 2584.48 1121.21 2585.41C1089.31 2580.63 995.173 2626.21 952.089 2649.6V2642.6C992.607 2614.14 1057.09 2590.74 1084.27 2582.6C1142.36 2565.84 1200.42 2589.58 1222.19 2603.55C1254.93 2622.27 1352.46 2625.65 1397.14 2625C1430.66 2621.88 1462.44 2615.25 1474.13 2612.33L1512.14 2603.55C1546.45 2595.76 1556.65 2614.6 1557.47 2625C1555.91 2637.47 1564.61 2639.29 1569.16 2638.64Z" fill="url(#paint10_linear_4603_3)"/>
</g>
<g filter="url(#filter11_f_4603_3)">
<path d="M1355.04 2352.04C1547.21 2259.79 1691.34 2263.78 1739.38 2277.3V2181.22C1697.53 2152.18 1595.26 2146.34 1549.35 2147.06C1397.32 2153.89 1226.93 2229.62 1160.74 2266.63C1017.25 2352.04 905.939 2494.38 868.217 2554.88L702.739 2844.2C640.391 2950.11 498.826 3023.56 435.838 3047.05C364.094 3081.21 218.758 3099.71 155.058 3104.7L85.6633 3113.24L-14.6915 3135.66V3170.89C-1.02625 3161.49 210.929 3132.81 315.198 3119.64C400.607 3114.52 543.666 3057.72 604.519 3029.96C721.528 2997.51 801.314 2901.85 826.581 2858.08L980.316 2638.15C1072.56 2498.94 1268.57 2389.4 1355.04 2352.04Z" fill="url(#paint11_linear_4603_3)"/>
</g>
<g filter="url(#filter12_f_4603_3)">
<path d="M1370.42 2885.28C1521.34 2873.87 1678.04 2809.55 1737.53 2778.82C1741.77 2808.47 1747.72 2871.27 1737.53 2885.28C1727.34 2899.29 1580.86 2943.45 1508.9 2963.77C1352.41 2997.51 1312.1 2949.72 1311.5 2921.6C1318.68 2874.23 1295.94 2857.17 1283.68 2854.57H1201.13L1110.51 2863.28L983.23 2874.05C805.318 2882.66 668.541 2854.9 622.392 2839.95C497.492 2775.35 396.878 2763.38 362.183 2765.48C290.401 2754.71 78.5115 2857.3 -18.4607 2909.94V2894.19C72.7369 2830.14 217.881 2777.47 279.053 2759.14C409.797 2721.41 540.469 2774.86 589.461 2806.31C663.169 2848.43 882.685 2856.03 983.23 2854.57C1058.69 2847.55 1130.21 2832.63 1156.53 2826.05L1242.09 2806.31C1319.3 2788.76 1342.26 2831.17 1344.09 2854.57C1340.58 2882.65 1360.18 2886.74 1370.42 2885.28Z" fill="url(#paint12_linear_4603_3)"/>
</g>
</g>
<defs>
<filter id="filter0_f_4603_3" x="22.4316" y="318.057" width="1751.82" height="728.144" filterUnits="userSpaceOnUse" color-interpolation-filters="sRGB">
<feFlood flood-opacity="0" result="BackgroundImageFix"/>
<feBlend mode="normal" in="SourceGraphic" in2="BackgroundImageFix" result="shape"/>
<feGaussianBlur stdDeviation="1.5" result="effect1_foregroundBlur_4603_3"/>
</filter>
<filter id="filter1_f_4603_3" x="527.311" y="491.243" width="1244.26" height="567.24" filterUnits="userSpaceOnUse" color-interpolation-filters="sRGB">
<feFlood flood-opacity="0" result="BackgroundImageFix"/>
<feBlend mode="normal" in="SourceGraphic" in2="BackgroundImageFix" result="shape"/>
<feGaussianBlur stdDeviation="1.5" result="effect1_foregroundBlur_4603_3"/>
</filter>
<filter id="filter2_f_4603_3" x="-35.6797" y="113.089" width="1821.6" height="384.997" filterUnits="userSpaceOnUse" color-interpolation-filters="sRGB">
<feFlood flood-opacity="0" result="BackgroundImageFix"/>
<feBlend mode="normal" in="SourceGraphic" in2="BackgroundImageFix" result="shape"/>
<feGaussianBlur stdDeviation="1.5" result="effect1_foregroundBlur_4603_3"/>
</filter>
<filter id="filter3_f_4603_3" x="-3.70312" y="0.583374" width="1760.07" height="1029.89" filterUnits="userSpaceOnUse" color-interpolation-filters="sRGB">
<feFlood flood-opacity="0" result="BackgroundImageFix"/>
<feBlend mode="normal" in="SourceGraphic" in2="BackgroundImageFix" result="shape"/>
<feGaussianBlur stdDeviation="1.5" result="effect1_foregroundBlur_4603_3"/>
</filter>
<filter id="filter4_f_4603_3" x="-35.3945" y="1427.74" width="1751.82" height="728.144" filterUnits="userSpaceOnUse" color-interpolation-filters="sRGB">
<feFlood flood-opacity="0" result="BackgroundImageFix"/>
<feBlend mode="normal" in="SourceGraphic" in2="BackgroundImageFix" result="shape"/>
<feGaussianBlur stdDeviation="1.5" result="effect1_foregroundBlur_4603_3"/>
</filter>
<filter id="filter5_f_4603_3" x="-47.0625" y="1222.77" width="1821.6" height="384.997" filterUnits="userSpaceOnUse" color-interpolation-filters="sRGB">
<feFlood flood-opacity="0" result="BackgroundImageFix"/>
<feBlend mode="normal" in="SourceGraphic" in2="BackgroundImageFix" result="shape"/>
<feGaussianBlur stdDeviation="1.5" result="effect1_foregroundBlur_4603_3"/>
</filter>
<filter id="filter6_f_4603_3" x="-27.3945" y="1812.11" width="1767.62" height="235.212" filterUnits="userSpaceOnUse" color-interpolation-filters="sRGB">
<feFlood flood-opacity="0" result="BackgroundImageFix"/>
<feBlend mode="normal" in="SourceGraphic" in2="BackgroundImageFix" result="shape"/>
<feGaussianBlur stdDeviation="1.5" result="effect1_foregroundBlur_4603_3"/>
</filter>
<filter id="filter7_f_4603_3" x="-26.793" y="1415.24" width="1012.78" height="367.523" filterUnits="userSpaceOnUse" color-interpolation-filters="sRGB">
<feFlood flood-opacity="0" result="BackgroundImageFix"/>
<feBlend mode="normal" in="SourceGraphic" in2="BackgroundImageFix" result="shape"/>
<feGaussianBlur stdDeviation="1.5" result="effect1_foregroundBlur_4603_3"/>
</filter>
<filter id="filter8_f_4603_3" x="8.44141" y="2461.47" width="1751.82" height="728.144" filterUnits="userSpaceOnUse" color-interpolation-filters="sRGB">
<feFlood flood-opacity="0" result="BackgroundImageFix"/>
<feBlend mode="normal" in="SourceGraphic" in2="BackgroundImageFix" result="shape"/>
<feGaussianBlur stdDeviation="1.5" result="effect1_foregroundBlur_4603_3"/>
</filter>
<filter id="filter9_f_4603_3" x="498.119" y="1978.88" width="1244.26" height="567.24" filterUnits="userSpaceOnUse" color-interpolation-filters="sRGB">
<feFlood flood-opacity="0" result="BackgroundImageFix"/>
<feBlend mode="normal" in="SourceGraphic" in2="BackgroundImageFix" result="shape"/>
<feGaussianBlur stdDeviation="1.5" result="effect1_foregroundBlur_4603_3"/>
</filter>
<filter id="filter10_f_4603_3" x="949.088" y="2567.87" width="816.215" height="113.801" filterUnits="userSpaceOnUse" color-interpolation-filters="sRGB">
<feFlood flood-opacity="0" result="BackgroundImageFix"/>
<feBlend mode="normal" in="SourceGraphic" in2="BackgroundImageFix" result="shape"/>
<feGaussianBlur stdDeviation="1.5" result="effect1_foregroundBlur_4603_3"/>
</filter>
<filter id="filter11_f_4603_3" x="-17.6914" y="2144" width="1760.07" height="1029.89" filterUnits="userSpaceOnUse" color-interpolation-filters="sRGB">
<feFlood flood-opacity="0" result="BackgroundImageFix"/>
<feBlend mode="normal" in="SourceGraphic" in2="BackgroundImageFix" result="shape"/>
<feGaussianBlur stdDeviation="1.5" result="effect1_foregroundBlur_4603_3"/>
</filter>
<filter id="filter12_f_4603_3" x="-21.4609" y="2743.17" width="1767.62" height="235.212" filterUnits="userSpaceOnUse" color-interpolation-filters="sRGB">
<feFlood flood-opacity="0" result="BackgroundImageFix"/>
<feBlend mode="normal" in="SourceGraphic" in2="BackgroundImageFix" result="shape"/>
<feGaussianBlur stdDeviation="1.5" result="effect1_foregroundBlur_4603_3"/>
</filter>
<linearGradient id="paint0_linear_4603_3" x1="1731.77" y1="965.163" x2="-256.343" y2="420.724" gradientUnits="userSpaceOnUse">
<stop stop-color="#FE805D"/>
<stop offset="1" stop-color="#DEE1E9"/>
</linearGradient>
<linearGradient id="paint1_linear_4603_3" x1="-245.547" y1="1488.6" x2="1756.76" y2="514.107" gradientUnits="userSpaceOnUse">
<stop offset="0.316667" stop-color="#DEE1E9"/>
<stop offset="1" stop-color="#F64483"/>
</linearGradient>
<linearGradient id="paint2_linear_4603_3" x1="1924.27" y1="362.187" x2="-422.092" y2="227.725" gradientUnits="userSpaceOnUse">
<stop stop-color="#0069EE"/>
<stop offset="1" stop-color="white"/>
</linearGradient>
<linearGradient id="paint3_linear_4603_3" x1="60.4996" y1="1027.95" x2="1728.18" y2="45.9309" gradientUnits="userSpaceOnUse">
<stop stop-color="#DEE1E9"/>
<stop offset="1" stop-color="#DC2834"/>
</linearGradient>
<linearGradient id="paint4_linear_4603_3" x1="7.08717" y1="2074.84" x2="1995.2" y2="1530.4" gradientUnits="userSpaceOnUse">
<stop stop-color="#FE805D"/>
<stop offset="1" stop-color="#DEE1E9"/>
</linearGradient>
<linearGradient id="paint5_linear_4603_3" x1="-185.411" y1="1471.87" x2="2160.95" y2="1337.41" gradientUnits="userSpaceOnUse">
<stop stop-color="#0069EE"/>
<stop offset="1" stop-color="white"/>
</linearGradient>
<linearGradient id="paint6_linear_4603_3" x1="-23.9803" y1="1930.11" x2="1956.57" y2="1930.11" gradientUnits="userSpaceOnUse">
<stop stop-color="#07BFDB"/>
<stop offset="1" stop-color="#DEE1E9"/>
</linearGradient>
<linearGradient id="paint7_linear_4603_3" x1="-24.2797" y1="1731.41" x2="1201.49" y2="1599.16" gradientUnits="userSpaceOnUse">
<stop stop-color="#E0A68A"/>
<stop offset="1" stop-color="#DEE1E9"/>
</linearGradient>
<linearGradient id="paint8_linear_4603_3" x1="1717.78" y1="3108.58" x2="-270.333" y2="2564.14" gradientUnits="userSpaceOnUse">
<stop stop-color="#FE805D"/>
<stop offset="1" stop-color="#DEE1E9"/>
</linearGradient>
<linearGradient id="paint9_linear_4603_3" x1="-274.738" y1="1548.77" x2="1727.57" y2="2523.26" gradientUnits="userSpaceOnUse">
<stop offset="0.316667" stop-color="#DEE1E9"/>
<stop offset="1" stop-color="#F64483"/>
</linearGradient>
<linearGradient id="paint10_linear_4603_3" x1="1748.86" y1="2596.54" x2="975.883" y2="2635.29" gradientUnits="userSpaceOnUse">
<stop stop-color="#639ED3"/>
<stop offset="1" stop-color="#DEE1E9"/>
</linearGradient>
<linearGradient id="paint11_linear_4603_3" x1="46.5113" y1="3171.36" x2="1714.19" y2="2189.35" gradientUnits="userSpaceOnUse">
<stop stop-color="#DEE1E9"/>
<stop offset="1" stop-color="#DC2834"/>
</linearGradient>
<linearGradient id="paint12_linear_4603_3" x1="1742.74" y1="2861.17" x2="-237.812" y2="2861.17" gradientUnits="userSpaceOnUse">
<stop stop-color="#07BFDB"/>
<stop offset="1" stop-color="#DEE1E9"/>
</linearGradient>
</defs>
</svg>
