<svg width="502" height="47" viewBox="0 0 502 47" fill="none" xmlns="http://www.w3.org/2000/svg">
<path d="M26.176 0.727997H36.48V47H25.472V26.968L19.264 43.288H19.008L12.736 26.968V47H1.728V5.592C1.728 4.65333 1.57867 3.8 1.28 3.032C1.024 2.264 0.725333 1.496 0.384 0.727997H12.032L19.136 20.504L26.176 0.727997ZM67.7555 47H57.5155C55.0835 47 52.8008 46.4667 50.6675 45.4C48.5342 44.3333 46.6568 42.9253 45.0355 41.176C43.4568 39.384 42.1982 37.3787 41.2595 35.16C40.3635 32.8987 39.9155 30.5947 39.9155 28.248V0.727997H50.9235V27.48C50.9235 29.4427 51.4782 31.1493 52.5875 32.6C53.7395 34.0507 55.1262 35.032 56.7475 35.544V0.727997H67.7555V47ZM95.612 47H71.228V0.727997H82.3V35.928H90.748C91.6867 35.928 92.54 35.8 93.308 35.544C94.076 35.2453 94.844 34.9253 95.612 34.584V47ZM91.6655 0.727997H119.058V13.144C118.29 12.8027 117.522 12.504 116.754 12.248C115.986 11.9493 115.132 11.8 114.194 11.8H110.866V47H99.8575V11.8H96.0815C95.2282 11.8853 94.4602 12.056 93.7775 12.312C93.0948 12.5253 92.3908 12.8027 91.6655 13.144V0.727997ZM122.541 0.727997H133.549V47H122.541V0.727997ZM162.77 13.144C162.002 12.8027 161.234 12.504 160.466 12.248C159.698 11.9493 158.845 11.8 157.906 11.8H147.986V27.352C147.986 28.5893 148.242 29.7627 148.754 30.872C149.309 31.9387 150.013 32.8773 150.866 33.688C151.762 34.4987 152.765 35.1387 153.874 35.608C155.026 36.0773 156.178 36.312 157.33 36.312H159.826C160.253 36.2693 160.701 36.1627 161.17 35.992C161.682 35.8213 162.215 35.6293 162.77 35.416V47H154.578C152.146 47 149.863 46.4667 147.73 45.4C145.597 44.3333 143.719 42.9253 142.098 41.176C140.519 39.384 139.261 37.3787 138.322 35.16C137.426 32.8987 136.978 30.5947 136.978 28.248V0.727997H162.77V13.144ZM166.228 0.727997H177.236V47H166.228V0.727997ZM180.666 0.727997H208.058V13.144C207.29 12.8027 206.522 12.504 205.754 12.248C204.986 11.9493 204.132 11.8 203.194 11.8H199.866V47H188.858V11.8H185.082C184.228 11.8853 183.46 12.056 182.778 12.312C182.095 12.5253 181.391 12.8027 180.666 13.144V0.727997ZM212.053 34.648C212.65 34.9467 213.247 35.224 213.845 35.48C214.485 35.6933 215.146 35.8427 215.829 35.928H228.117C228.202 35.928 228.245 35.864 228.245 35.736L227.989 35.48C226.154 34.5413 224.255 33.4533 222.293 32.216C220.373 30.936 218.602 29.528 216.981 27.992C215.402 26.4133 214.101 24.6853 213.077 22.808C212.053 20.888 211.541 18.84 211.541 16.664V0.727997H222.549V13.464C222.549 14.36 222.741 15.2133 223.125 16.024C223.509 16.8347 223.978 17.6027 224.533 18.328C225.13 19.0533 225.77 19.736 226.453 20.376C227.178 21.016 227.839 21.592 228.437 22.104V0.727997H239.445V43.672C239.445 43.928 239.381 44.248 239.253 44.632C239.125 44.9733 238.954 45.336 238.741 45.72C238.527 46.0613 238.271 46.36 237.973 46.616C237.717 46.872 237.439 47 237.141 47H212.053V34.648ZM265.746 0.727997H278.226L290.386 47H279.058L277.586 40.28H269.074L267.538 47H256.21L267.09 5.336C267.047 4.48267 266.877 3.69333 266.578 2.968C266.322 2.2 266.045 1.45333 265.746 0.727997ZM273.298 20.44L271.378 31.128H275.282L273.298 20.44ZM318.068 47H307.828C305.396 47 303.113 46.4667 300.98 45.4C298.847 44.3333 296.969 42.9253 295.348 41.176C293.769 39.384 292.511 37.3787 291.572 35.16C290.676 32.8987 290.228 30.5947 290.228 28.248V0.727997H301.236V27.48C301.236 29.4427 301.791 31.1493 302.9 32.6C304.052 34.0507 305.439 35.032 307.06 35.544V0.727997H318.068V47ZM321.541 47V0.727997H349.381V28.248C349.381 30.5947 348.911 32.8987 347.973 35.16C347.034 37.3787 345.754 39.384 344.133 41.176C342.554 42.9253 340.698 44.3333 338.565 45.4C336.431 46.4667 334.149 47 331.717 47H321.541ZM332.549 11.8V35.544C334.17 35.032 335.535 34.0507 336.645 32.6C337.797 31.1493 338.373 29.4427 338.373 27.48V11.8H332.549ZM352.853 0.727997H363.861V47H352.853V0.727997ZM367.291 0.727997H394.683V13.144C393.915 12.8027 393.147 12.504 392.379 12.248C391.611 11.9493 390.757 11.8 389.819 11.8H386.491V47H375.483V11.8H371.707C370.853 11.8853 370.085 12.056 369.403 12.312C368.72 12.5253 368.016 12.8027 367.291 13.144V0.727997ZM398.166 0.727997H409.174V47H398.166V0.727997ZM438.459 47H414.907C414.608 47 414.31 46.872 414.011 46.616C413.755 46.3173 413.52 45.9973 413.307 45.656C413.094 45.272 412.923 44.888 412.795 44.504C412.667 44.12 412.603 43.8 412.603 43.544V4.184C412.603 3.928 412.667 3.608 412.795 3.224C412.923 2.84 413.094 2.47733 413.307 2.136C413.52 1.752 413.755 1.432 414.011 1.176C414.31 0.877331 414.608 0.727997 414.907 0.727997H438.459C438.758 0.727997 439.035 0.877331 439.291 1.176C439.59 1.432 439.846 1.752 440.059 2.136C440.315 2.47733 440.507 2.84 440.635 3.224C440.763 3.608 440.827 3.928 440.827 4.184V43.544C440.827 43.8 440.763 44.12 440.635 44.504C440.507 44.888 440.315 45.272 440.059 45.656C439.846 45.9973 439.59 46.3173 439.291 46.616C439.035 46.872 438.758 47 438.459 47ZM423.611 13.016V34.712C423.611 34.968 423.675 35.224 423.803 35.48C423.974 35.736 424.208 35.864 424.507 35.864H428.859C429.158 35.864 429.392 35.736 429.563 35.48C429.734 35.224 429.819 34.968 429.819 34.712V13.016C429.819 12.76 429.734 12.504 429.563 12.248C429.392 11.992 429.158 11.864 428.859 11.864H424.507C424.208 11.864 423.974 11.992 423.803 12.248C423.675 12.504 423.611 12.76 423.611 13.016ZM442.947 0.727997H454.467L461.571 20.504V0.727997H472.643V47H463.043L455.299 26.968V47H444.291V5.592C444.291 4.65333 444.141 3.8 443.843 3.032C443.587 2.264 443.288 1.496 442.947 0.727997ZM476.103 34.584C476.871 34.9253 477.639 35.2453 478.407 35.544C479.218 35.8 480.092 35.928 481.031 35.928H489.991C490.119 35.8853 490.204 35.672 490.247 35.288C490.29 34.904 490.311 34.6053 490.311 34.392C490.311 32.3867 489.884 30.616 489.031 29.08C488.22 27.5013 487.154 26.136 485.831 24.984C484.508 23.7893 483.015 22.7653 481.351 21.912C479.73 21.0587 478.13 20.3333 476.551 19.736C476.466 19.6933 476.359 19.6507 476.231 19.608C476.146 19.5227 476.103 19.48 476.103 19.48V4.12C476.103 3.864 476.167 3.544 476.295 3.16C476.423 2.776 476.594 2.41333 476.807 2.072C477.02 1.688 477.255 1.368 477.511 1.112C477.81 0.855998 478.108 0.727997 478.407 0.727997H500.743V13.144C500.018 12.8027 499.292 12.5253 498.567 12.312C497.884 12.056 497.116 11.8853 496.263 11.8H487.495C489.33 12.7387 491.079 13.8693 492.743 15.192C494.407 16.472 495.879 17.9227 497.159 19.544C498.439 21.1653 499.442 22.9573 500.167 24.92C500.935 26.84 501.319 28.888 501.319 31.064V43.672C501.319 43.928 501.255 44.248 501.127 44.632C500.999 44.9733 500.828 45.336 500.615 45.72C500.402 46.0613 500.146 46.36 499.847 46.616C499.591 46.872 499.314 47 499.015 47H476.103V34.584Z" fill="white"/>
</svg>
