<svg width="149" height="47" viewBox="0 0 149 47" fill="none" xmlns="http://www.w3.org/2000/svg">
<path d="M26.2 0.727997C26.456 0.727997 26.776 0.855999 27.032 1.112C27.288 1.368 27.544 1.688 27.8 2.072C27.992 2.456 28.184 2.776 28.312 3.16C28.44 3.544 28.504 3.8 28.504 4.056V16.536C28.504 18.712 27.928 20.76 26.904 22.68C25.88 24.6 24.536 26.328 22.936 27.864C21.336 29.464 19.544 30.872 17.624 32.152C15.704 33.432 13.784 34.52 11.992 35.416C11.864 35.544 11.8 35.608 11.736 35.672C11.672 35.8 11.608 35.864 11.608 35.864V47H0.6V0.727997H26.2ZM11.608 11.8V21.912C12.184 21.464 12.824 20.952 13.528 20.312C14.168 19.672 14.808 19.032 15.448 18.264C16.024 17.56 16.536 16.792 16.92 15.96C17.304 15.192 17.56 14.36 17.56 13.464C17.56 13.272 17.496 12.952 17.496 12.504C17.432 12.12 17.368 11.864 17.24 11.8H11.608ZM31.725 0.727997H57.517V13.144C56.749 12.824 55.981 12.504 55.213 12.248C54.445 11.992 53.549 11.8 52.653 11.8H42.733V17.176H54.125V27.288H42.733V27.352C42.733 28.632 42.989 29.784 43.501 30.872C44.013 31.96 44.717 32.92 45.613 33.688C46.509 34.52 47.469 35.16 48.621 35.608C49.773 36.12 50.925 36.312 52.077 36.312H54.573C54.957 36.312 55.405 36.184 55.917 35.992C56.429 35.864 56.941 35.672 57.517 35.416V47H49.325C46.893 47 44.589 46.488 42.477 45.4C40.301 44.376 38.445 42.968 36.845 41.176C35.245 39.384 33.965 37.4 33.069 35.16C32.173 32.92 31.725 30.616 31.725 28.248V0.727997ZM86.325 0.727997C86.581 0.727997 86.901 0.855999 87.157 1.112C87.413 1.368 87.669 1.688 87.925 2.072C88.117 2.456 88.309 2.776 88.437 3.16C88.565 3.544 88.629 3.8 88.629 4.056V16.536C88.629 18.968 87.989 21.272 86.709 23.32C85.429 25.368 83.829 27.288 81.909 28.952C83.829 30.872 85.493 33.112 86.837 35.608C88.181 38.168 88.885 40.856 88.885 43.672V47H77.877C77.877 44.312 77.301 42.136 76.149 40.344C74.997 38.552 73.525 37.208 71.733 36.184V47H60.725V0.727997H86.325ZM71.733 21.912C72.309 21.464 72.949 20.952 73.653 20.312C74.293 19.672 74.933 19.032 75.573 18.264C76.149 17.56 76.661 16.792 77.045 15.96C77.429 15.192 77.685 14.36 77.685 13.464C77.685 13.272 77.621 12.952 77.621 12.504C77.557 12.12 77.493 11.864 77.365 11.8H71.733V21.912ZM120.26 0.727997V4.12C120.26 7.064 119.556 9.816 118.276 12.248C116.932 14.744 115.268 16.92 113.22 18.84C115.14 20.568 116.74 22.424 118.02 24.472C119.3 26.52 120.004 28.76 120.004 31.192V47H108.996V34.264C108.996 33.368 108.804 32.536 108.42 31.768C108.036 31 107.524 30.232 106.948 29.528C106.372 28.824 105.732 28.184 105.028 27.544C104.324 26.904 103.684 26.328 103.108 25.816V47H92.1V0.727997H103.108V11.8C104.964 10.904 106.436 9.496 107.588 7.576C108.676 5.656 109.252 3.352 109.252 0.727997H120.26ZM123.475 34.584C124.243 34.968 125.011 35.288 125.779 35.544C126.547 35.8 127.443 35.928 128.403 35.928H137.363C137.491 35.928 137.555 35.672 137.619 35.288C137.619 34.904 137.683 34.648 137.683 34.392C137.683 32.408 137.235 30.616 136.403 29.08C135.571 27.544 134.483 26.136 133.203 24.984C131.859 23.832 130.387 22.808 128.723 21.912C127.059 21.08 125.459 20.376 123.923 19.736C123.795 19.736 123.731 19.672 123.603 19.608L123.475 19.48V4.12C123.475 3.864 123.539 3.544 123.667 3.16C123.795 2.776 123.923 2.456 124.179 2.072C124.371 1.688 124.627 1.368 124.883 1.112C125.139 0.855999 125.459 0.727997 125.779 0.727997H148.115V11.8H134.867C136.659 12.76 138.451 13.912 140.115 15.192C141.779 16.472 143.251 17.944 144.531 19.544C145.811 21.208 146.771 23 147.539 24.92C148.307 26.84 148.691 28.888 148.691 31.064V43.672C148.691 43.928 148.627 44.248 148.499 44.632C148.371 45.016 148.179 45.336 147.987 45.72C147.731 46.104 147.475 46.36 147.219 46.616C146.963 46.872 146.643 47 146.387 47H123.475V34.584Z" fill="white"/>
</svg>
