<svg width="662" height="47" viewBox="0 0 662 47" fill="none" xmlns="http://www.w3.org/2000/svg">
<path d="M11.608 26.072V47H0.6V0.727997H26.2C26.456 0.727997 26.776 0.855999 27.032 1.112C27.288 1.368 27.544 1.688 27.8 2.072C27.992 2.456 28.184 2.776 28.312 3.16C28.44 3.544 28.504 3.8 28.504 4.056V16.664C28.504 18.008 28.12 19.288 27.416 20.44C26.648 21.656 25.944 22.808 25.24 23.896C25.944 24.984 26.648 26.136 27.416 27.288C28.12 28.504 28.504 29.784 28.504 31.064V47H17.56V34.328C17.56 33.496 17.304 32.664 16.92 31.896C16.536 31.128 16.024 30.36 15.448 29.656C14.808 28.952 14.168 28.312 13.528 27.672C12.824 27.096 12.184 26.584 11.608 26.072ZM11.608 11.8V21.656C12.184 21.208 12.824 20.696 13.528 20.056C14.168 19.48 14.808 18.84 15.448 18.136C16.024 17.432 16.536 16.664 16.92 15.896C17.304 15.128 17.56 14.36 17.56 13.464C17.56 13.272 17.496 12.952 17.496 12.504C17.432 12.12 17.368 11.864 17.24 11.8H11.608ZM31.725 0.727997H57.517V13.144C56.749 12.824 55.981 12.504 55.213 12.248C54.445 11.992 53.549 11.8 52.653 11.8H42.733V17.176H54.125V27.288H42.733V27.352C42.733 28.632 42.989 29.784 43.501 30.872C44.013 31.96 44.717 32.92 45.613 33.688C46.509 34.52 47.469 35.16 48.621 35.608C49.773 36.12 50.925 36.312 52.077 36.312H54.573C54.957 36.312 55.405 36.184 55.917 35.992C56.429 35.864 56.941 35.672 57.517 35.416V47H49.325C46.893 47 44.589 46.488 42.477 45.4C40.301 44.376 38.445 42.968 36.845 41.176C35.245 39.384 33.965 37.4 33.069 35.16C32.173 32.92 31.725 30.616 31.725 28.248V0.727997ZM103.349 47H93.109C90.741 47 88.693 46.552 86.965 45.592C85.237 44.632 83.573 43.288 81.973 41.56C80.373 43.288 78.709 44.632 76.981 45.592C75.253 46.552 73.205 47 70.901 47H60.725V0.727997H71.733V35.544C73.333 35.032 74.549 34.072 75.381 32.6C76.149 31.192 76.597 29.464 76.597 27.48V0.727997H87.477V27.48C87.477 29.464 87.861 31.192 88.693 32.6C89.461 34.072 90.677 35.032 92.341 35.544V0.727997H103.349V47ZM115.306 0.727997H127.786L139.946 47H128.618L127.146 40.28H118.634L117.098 47H105.77L116.65 5.336C116.586 4.504 116.394 3.736 116.138 2.968C115.882 2.2 115.562 1.496 115.306 0.727997ZM122.858 20.44L120.938 31.128H124.842L122.858 20.44ZM167.95 0.727997C168.206 0.727997 168.526 0.855999 168.782 1.112C169.038 1.368 169.294 1.688 169.55 2.072C169.742 2.456 169.934 2.776 170.062 3.16C170.19 3.544 170.254 3.8 170.254 4.056V16.536C170.254 18.968 169.614 21.272 168.334 23.32C167.054 25.368 165.454 27.288 163.534 28.952C165.454 30.872 167.118 33.112 168.462 35.608C169.806 38.168 170.51 40.856 170.51 43.672V47H159.502C159.502 44.312 158.926 42.136 157.774 40.344C156.622 38.552 155.15 37.208 153.358 36.184V47H142.35V0.727997H167.95ZM153.358 21.912C153.934 21.464 154.574 20.952 155.278 20.312C155.918 19.672 156.558 19.032 157.198 18.264C157.774 17.56 158.286 16.792 158.67 15.96C159.054 15.192 159.31 14.36 159.31 13.464C159.31 13.272 159.246 12.952 159.246 12.504C159.182 12.12 159.118 11.864 158.99 11.8H153.358V21.912ZM173.725 47V0.727997H201.565V28.248C201.565 30.616 201.053 32.92 200.157 35.16C199.197 37.4 197.917 39.384 196.317 41.176C194.717 42.968 192.861 44.376 190.749 45.4C188.573 46.488 186.333 47 183.901 47H173.725ZM184.733 11.8V35.544C186.333 35.032 187.677 34.072 188.829 32.6C189.981 31.192 190.557 29.464 190.557 27.48V11.8H184.733ZM204.788 34.584C205.556 34.968 206.324 35.288 207.092 35.544C207.86 35.8 208.756 35.928 209.716 35.928H218.676C218.804 35.928 218.868 35.672 218.932 35.288C218.932 34.904 218.996 34.648 218.996 34.392C218.996 32.408 218.548 30.616 217.716 29.08C216.884 27.544 215.796 26.136 214.516 24.984C213.172 23.832 211.7 22.808 210.036 21.912C208.372 21.08 206.772 20.376 205.236 19.736C205.108 19.736 205.044 19.672 204.916 19.608L204.788 19.48V4.12C204.788 3.864 204.852 3.544 204.98 3.16C205.108 2.776 205.236 2.456 205.492 2.072C205.684 1.688 205.94 1.368 206.196 1.112C206.452 0.855999 206.772 0.727997 207.092 0.727997H229.428V11.8H216.18C217.972 12.76 219.764 13.912 221.428 15.192C223.092 16.472 224.564 17.944 225.844 19.544C227.124 21.208 228.084 23 228.852 24.92C229.62 26.84 230.004 28.888 230.004 31.064V43.672C230.004 43.928 229.94 44.248 229.812 44.632C229.684 45.016 229.492 45.336 229.3 45.72C229.044 46.104 228.788 46.36 228.532 46.616C228.276 46.872 227.956 47 227.7 47H204.788V34.584ZM255.931 0.727997H268.411L280.571 47H269.243L267.771 40.28H259.259L257.723 47H246.395L257.275 5.336C257.211 4.504 257.019 3.736 256.763 2.968C256.507 2.2 256.187 1.496 255.931 0.727997ZM263.483 20.44L261.562 31.128H265.467L263.483 20.44ZM281.631 0.727997H293.151L300.255 20.504V0.727997H311.327V47H301.727L293.983 26.968V47H282.975V5.592C282.975 4.696 282.783 3.8 282.527 3.032C282.271 2.264 281.951 1.496 281.631 0.727997ZM314.538 47V0.727997H342.378V28.248C342.378 30.616 341.866 32.92 340.97 35.16C340.01 37.4 338.73 39.384 337.13 41.176C335.53 42.968 333.674 44.376 331.562 45.4C329.385 46.488 327.146 47 324.714 47H314.538ZM325.546 11.8V35.544C327.146 35.032 328.49 34.072 329.642 32.6C330.794 31.192 331.37 29.464 331.37 27.48V11.8H325.546ZM370.546 26.072V47H359.538V0.727997H385.138C385.394 0.727997 385.714 0.855999 385.97 1.112C386.226 1.368 386.482 1.688 386.738 2.072C386.93 2.456 387.122 2.776 387.25 3.16C387.378 3.544 387.442 3.8 387.442 4.056V16.664C387.442 18.008 387.058 19.288 386.354 20.44C385.586 21.656 384.882 22.808 384.178 23.896C384.882 24.984 385.586 26.136 386.354 27.288C387.058 28.504 387.442 29.784 387.442 31.064V47H376.498V34.328C376.498 33.496 376.242 32.664 375.858 31.896C375.474 31.128 374.962 30.36 374.385 29.656C373.746 28.952 373.106 28.312 372.466 27.672C371.762 27.096 371.122 26.584 370.546 26.072ZM370.546 11.8V21.656C371.122 21.208 371.762 20.696 372.466 20.056C373.106 19.48 373.746 18.84 374.385 18.136C374.962 17.432 375.474 16.664 375.858 15.896C376.242 15.128 376.498 14.36 376.498 13.464C376.498 13.272 376.434 12.952 376.434 12.504C376.37 12.12 376.306 11.864 376.178 11.8H370.546ZM390.663 0.727997H416.455V13.144C415.687 12.824 414.919 12.504 414.151 12.248C413.383 11.992 412.487 11.8 411.591 11.8H401.671V17.176H413.063V27.288H401.671V27.352C401.671 28.632 401.927 29.784 402.439 30.872C402.951 31.96 403.655 32.92 404.551 33.688C405.447 34.52 406.407 35.16 407.559 35.608C408.711 36.12 409.863 36.312 411.015 36.312H413.511C413.895 36.312 414.343 36.184 414.855 35.992C415.367 35.864 415.879 35.672 416.455 35.416V47H408.263C405.831 47 403.527 46.488 401.415 45.4C399.239 44.376 397.383 42.968 395.783 41.176C394.183 39.384 392.903 37.4 392.007 35.16C391.111 32.92 390.663 30.616 390.663 28.248V0.727997ZM445.455 13.144C444.687 12.824 443.919 12.504 443.151 12.248C442.383 11.992 441.487 11.8 440.591 11.8H430.671V27.352C430.671 28.632 430.927 29.784 431.439 30.872C431.951 31.96 432.655 32.92 433.551 33.688C434.447 34.52 435.407 35.16 436.559 35.608C437.711 36.12 438.863 36.312 440.015 36.312H442.511C442.895 36.312 443.343 36.184 443.855 35.992C444.367 35.864 444.879 35.672 445.455 35.416V47H437.263C434.831 47 432.527 46.488 430.415 45.4C428.239 44.376 426.383 42.968 424.783 41.176C423.183 39.384 421.903 37.4 421.007 35.16C420.111 32.92 419.663 30.616 419.663 28.248V0.727997H445.455V13.144ZM474.519 47H450.967C450.647 47 450.327 46.872 450.071 46.616C449.815 46.36 449.559 46.04 449.367 45.656C449.111 45.272 448.983 44.888 448.855 44.504C448.727 44.12 448.663 43.8 448.663 43.544V4.184C448.663 3.928 448.727 3.608 448.855 3.224C448.983 2.84 449.111 2.52 449.367 2.136C449.559 1.752 449.815 1.432 450.071 1.176C450.327 0.919998 450.647 0.727997 450.967 0.727997H474.519C474.775 0.727997 475.095 0.919998 475.351 1.176C475.607 1.432 475.863 1.752 476.119 2.136C476.375 2.52 476.567 2.84 476.695 3.224C476.823 3.608 476.887 3.928 476.887 4.184V43.544C476.887 43.8 476.823 44.12 476.695 44.504C476.567 44.888 476.375 45.272 476.119 45.656C475.863 46.04 475.607 46.36 475.351 46.616C475.095 46.872 474.775 47 474.519 47ZM459.671 13.016V34.712C459.671 34.968 459.735 35.224 459.863 35.48C459.991 35.736 460.247 35.864 460.567 35.864H464.919C465.175 35.864 465.431 35.736 465.623 35.48C465.751 35.224 465.878 34.968 465.878 34.712V13.016C465.878 12.76 465.751 12.504 465.623 12.248C465.431 11.992 465.175 11.864 464.919 11.864H460.567C460.247 11.864 459.991 11.992 459.863 12.248C459.735 12.504 459.671 12.76 459.671 13.016ZM507.94 47H497.7C495.268 47 492.964 46.488 490.852 45.4C488.676 44.376 486.82 42.968 485.22 41.176C483.62 39.384 482.34 37.4 481.444 35.16C480.548 32.92 480.1 30.616 480.1 28.248V0.727997H507.94V13.08C507.62 12.952 507.236 12.696 506.788 12.312C506.34 11.992 505.956 11.8 505.636 11.8H491.108V27.48C491.108 29.464 491.62 31.128 492.772 32.536C493.924 33.944 495.332 34.968 497.06 35.544V22.104C497.06 21.656 496.868 21.144 496.548 20.632C496.228 20.12 495.972 19.608 495.78 19.224H507.94V47ZM509.819 0.727997H521.339L528.443 20.504V0.727997H539.515V47H529.915L522.171 26.968V47H511.163V5.592C511.163 4.696 510.971 3.8 510.715 3.032C510.459 2.264 510.139 1.496 509.819 0.727997ZM542.725 0.727997H553.733V47H542.725V0.727997ZM556.913 0.727997H584.305V13.144C583.537 12.824 582.769 12.504 582.001 12.248C581.233 11.992 580.337 11.8 579.441 11.8H576.113V47H565.105V11.8H561.329C560.433 11.928 559.665 12.056 559.025 12.312C558.321 12.568 557.617 12.824 556.913 13.144V0.727997ZM587.475 0.727997H598.483V47H587.475V0.727997ZM627.519 47H603.967C603.647 47 603.327 46.872 603.071 46.616C602.815 46.36 602.559 46.04 602.367 45.656C602.111 45.272 601.983 44.888 601.855 44.504C601.727 44.12 601.663 43.8 601.663 43.544V4.184C601.663 3.928 601.727 3.608 601.855 3.224C601.983 2.84 602.111 2.52 602.367 2.136C602.559 1.752 602.815 1.432 603.071 1.176C603.327 0.919998 603.647 0.727997 603.967 0.727997H627.519C627.775 0.727997 628.095 0.919998 628.351 1.176C628.607 1.432 628.863 1.752 629.119 2.136C629.375 2.52 629.567 2.84 629.695 3.224C629.823 3.608 629.887 3.928 629.887 4.184V43.544C629.887 43.8 629.823 44.12 629.695 44.504C629.567 44.888 629.375 45.272 629.119 45.656C628.863 46.04 628.607 46.36 628.351 46.616C628.095 46.872 627.775 47 627.519 47ZM612.671 13.016V34.712C612.671 34.968 612.735 35.224 612.863 35.48C612.991 35.736 613.247 35.864 613.567 35.864H617.919C618.175 35.864 618.431 35.736 618.623 35.48C618.751 35.224 618.878 34.968 618.878 34.712V13.016C618.878 12.76 618.751 12.504 618.623 12.248C618.431 11.992 618.175 11.864 617.919 11.864H613.567C613.247 11.864 612.991 11.992 612.863 12.248C612.735 12.504 612.671 12.76 612.671 13.016ZM631.756 0.727997H643.276L650.38 20.504V0.727997H661.452V47H651.852L644.108 26.968V47H633.1V5.592C633.1 4.696 632.908 3.8 632.652 3.032C632.396 2.264 632.076 1.496 631.756 0.727997Z" fill="white"/>
</svg>
