<svg width="478" height="538" viewBox="0 0 478 538" fill="none" xmlns="http://www.w3.org/2000/svg">
<path d="M147.628 76.2151C152.746 88.901 114.529 118.578 72.9986 128.286L147.628 76.2151Z" fill="#355B4D"/>
<path d="M156.891 70.4564C163.266 66.6639 168.564 63.715 172.835 61.359C186.198 53.9867 189.508 52.4193 184.307 48.9773C177.444 44.4348 157.444 50.1722 150.458 54.0699C147.472 55.7367 146.917 50.7379 149.889 47.56C152.865 44.382 82.3195 21.247 59.7178 70.3885C43.2749 106.136 59.6865 117.309 60.4751 119.488C60.8894 120.637 50.3972 123.478 41.7854 126.661C33.1695 129.842 20.4962 149.951 44.9812 150.373L50.517 146.834C50.517 146.834 58.9176 149.572 65.9087 135.631C71.5883 129.813 84.2957 123.654 97.8536 117.005C117.401 107.417 138.717 96.8089 143.285 84.7291C145.182 81.5221 157.424 85.2853 170.75 88.4213C185.677 91.9354 201.967 94.662 206.607 85.9251C209.359 80.7384 201.103 75.376 190.798 71.0942C180.491 66.8117 186.223 60.4227 179.318 64.0344C161.41 73.4026 146.737 76.4964 156.891 70.4564Z" fill="#49826F"/>
<path d="M31.1094 139.254C34.7242 134.125 41.751 127.824 55.8117 121.852C55.8117 121.852 32.8236 124.765 31.1094 139.254Z" fill="#71B59B"/>
<path d="M30.7553 141.034C32.07 144.341 36.0916 146.807 44.5015 146.953L50.0361 143.412C50.0361 143.412 58.4393 146.15 65.4297 132.209C71.1088 126.393 83.8134 120.235 97.369 113.587C116.917 103.999 138.236 93.3892 142.806 81.3079C144.702 78.1006 156.944 81.8638 170.269 85.0002C185.197 88.514 201.487 91.2409 206.127 82.5036C206.297 82.1814 206.427 81.8597 206.514 81.5347C207.283 82.9967 207.379 84.4673 206.606 85.9259C201.966 94.6627 185.676 91.9362 170.749 88.4228C157.423 85.2861 145.181 81.5228 143.284 84.7299C138.716 96.8096 117.4 107.417 97.8526 117.005C84.2947 123.654 71.5873 129.813 65.9077 135.632C58.9166 149.572 50.5161 146.835 50.5161 146.835L44.9802 150.374C33.8515 150.181 30.4009 145.922 30.7553 141.034Z" fill="#346654"/>
<path d="M159.523 68.9023C152.978 70.9602 150.546 70.5244 156.414 67.0312C162.785 63.2421 168.08 60.2951 172.349 57.9403C179.598 53.9412 183.889 51.6515 185.469 49.8433C188.849 52.7377 185.027 54.6323 172.831 61.3606C169.163 63.3847 164.737 65.8457 159.523 68.9023Z" fill="#346654"/>
<path d="M59.9968 116.065C60.0951 116.335 59.5828 116.699 58.6444 117.137C56.5297 114.518 53.2847 109.751 52.5743 101.655C54.3829 110.93 59.5602 114.864 59.9968 116.065Z" fill="#346654"/>
<path d="M149.888 47.56C148.989 48.52 148.418 49.6494 148.133 50.7092C147.22 49.9782 147.185 47.847 148.223 45.8369C149.607 46.5767 150.227 47.1973 149.888 47.56Z" fill="#346654"/>
<path d="M150.569 83.7518C151.098 80.0378 154.777 73.9378 157.038 73.1804C157.038 73.1804 153.284 73.1502 161.275 67.8583C155.852 63.2606 153.599 58.9394 151.671 53.0709L132.404 66.6425L137.843 89.2081C137.843 89.2081 143.796 83.6778 150.569 83.7518Z" fill="#346654"/>
<path d="M67.9979 122.707C17.2942 134.868 28.3423 150.894 44.981 150.373C44.981 150.373 69.7966 135.973 73.3821 124.762L67.9979 122.707Z" fill="#58937E"/>
<path d="M55.9508 125.847C55.6248 138.357 50.8405 147.493 33.8348 138.169C38.182 132.522 44.5304 129.096 55.9508 125.847Z" fill="#71B59B"/>
<path d="M59.0244 118.503C65.6807 124.625 67.4179 129.323 65.9311 135.525C71.3637 131.363 80.8965 125.99 90.2139 121.924C90.2139 121.924 90.9336 105.379 59.0244 118.503Z" fill="#346654"/>
<path d="M151.352 46.8332C147.771 40.6642 76.6747 22.8641 56.7311 72.8403C48.2223 94.1641 53.4467 112.242 55.8641 119.926C85.2851 114.872 139.838 88.4693 151.352 46.8332Z" fill="#98D3A3"/>
<path d="M151.351 46.8339C143.569 71.3066 119.325 104.091 55.8639 119.927C66.5074 117.587 94.1987 113.152 89.8503 123.881C89.8503 123.881 134.779 110.064 144.569 87.6437C143.484 61.3738 153.037 49.9869 151.351 46.8339Z" fill="#7F935C"/>
<path d="M143.401 89.3429C116.151 112.801 98.7803 110.628 81.2554 117.21C89.2151 117.116 90.5995 121.152 89.7363 124.265C119.63 114.735 133.379 103.713 143.401 89.3429Z" fill="#65724A"/>
<path d="M149.199 46.46C136.996 73.3492 111.238 100.599 56.9437 117.547C41.5632 49.1941 97.9394 27.1871 149.199 46.46Z" fill="#98D3A3"/>
<path d="M76.8636 135.19C81.7199 143.644 93.5779 157.008 133.59 136.455C133.59 136.455 115.762 116.344 87.723 123.733C85.4657 117.45 70.7172 124.5 76.8636 135.19Z" fill="#346654"/>
<path d="M77.0617 133.05C81.46 140.702 92.1899 152.796 128.406 134.193C128.406 134.193 112.271 115.992 86.89 122.68C84.8478 116.994 71.4994 123.373 77.0617 133.05Z" fill="#49826F"/>
<path d="M151.685 43.7886C139.679 84.3213 93.9991 110.99 54.1473 119.515L55.0315 121.148C55.0315 121.148 138.951 105.301 154.137 44.4839L151.685 43.7886Z" fill="#E2EAA7"/>
<path d="M123.153 129.377C115.456 130.624 107.148 140.251 127.235 134.336L123.153 129.377Z" fill="#5CA088"/>
<path d="M115.815 126.278C113.297 127.426 111.117 129.981 111.19 131.235C111.26 132.459 113.477 132.445 119.619 128.675L115.815 126.278Z" fill="#5CA088"/>
<path d="M116.472 138.572C110.354 133.549 94.618 138.366 108.324 141.285L116.472 138.572Z" fill="#5CA088"/>
<path d="M108.817 132.504C109.74 134.163 99.6152 138.136 99.2741 133.523C98.7553 126.561 107.38 129.91 108.817 132.504Z" fill="#5CA088"/>
<path d="M100.774 141.727C102.969 140.068 95.3056 134.122 93.0607 137.044C88.7592 142.64 97.3327 144.331 100.774 141.727Z" fill="#5CA088"/>
<path d="M82.9856 135.269C85.3994 135.051 82.9515 125.534 79.8575 126.829C73.932 129.308 79.1959 135.613 82.9856 135.269Z" fill="#5CA088"/>
<path d="M90.2679 134.371C92.0597 134.923 87.3619 141.378 85.366 139.938C81.5488 137.181 87.4599 133.503 90.2679 134.371Z" fill="#5CA088"/>
<path d="M201.608 77.6234C195.218 78.0909 187.651 85.4885 204.541 82.0569L201.608 77.6234Z" fill="#5CA088"/>
<path d="M193.457 73.4005C189.104 74.4686 184.827 80.2931 196.053 76.0045L193.457 73.4005Z" fill="#5CA088"/>
<path d="M198.284 86.8883C194.315 81.7307 180.966 83.1447 191.331 87.8058L198.284 86.8883Z" fill="#5CA088"/>
<path d="M183.95 75.3565C184.389 76.8825 175.642 78.5162 176.189 74.6414C177.012 68.7923 183.267 72.9742 183.95 75.3565Z" fill="#5CA088"/>
<path d="M178.931 85.1281C179.919 84.6363 179.243 82.9285 178.022 81.5364C176.727 80.0579 174.818 78.9347 173.633 79.9924C169.228 83.9191 175.734 86.7233 178.931 85.1281Z" fill="#5CA088"/>
<path d="M166.31 77.7456C167.635 78.4938 162.76 83.0696 161.432 81.552C158.888 78.6461 164.234 76.5674 166.31 77.7456Z" fill="#5CA088"/>
<path d="M43.0498 136.365C44.1732 137.875 49.2642 139.312 47.7708 133.203L43.0498 136.365Z" fill="#346654"/>
<path d="M58.4366 136.54L56.431 136.87C56.431 136.87 58.5984 141.609 50.5169 146.834L52.3079 146.999C52.3079 146.999 62.3269 140.82 58.4366 136.54Z" fill="#22493A"/>
<path d="M55.5281 135.143C56.152 134.09 58.1598 131.014 60.5058 135.93C57.1196 134.019 56.1853 134.827 55.5281 135.143Z" fill="#346654"/>
<path d="M44.4034 131.704C47.3653 129.746 53.4388 126.505 53.4827 130.515C51.43 129.896 50.1654 129.253 44.4034 131.704Z" fill="#58937E"/>
<path d="M50.2481 137.331C46.7272 140.41 39.3495 145.739 38.4634 140.589C41.3097 140.992 43.1195 141.579 50.2481 137.331Z" fill="#58937E"/>
<path d="M36.946 144.499C33.3366 141.529 29.8711 141.381 34.0927 146.258L36.946 144.499Z" fill="#346654"/>
<path d="M128.429 93.8774C130.123 96.6757 131.396 101.519 129.685 103.893L126.593 105.585C128.565 102.853 128.802 99.2727 128.429 93.8774Z" fill="#65724A"/>
<path d="M116.41 96.8056C119.256 100.012 122.441 105.709 121.559 108.7L118.969 110.992C119.988 107.551 118.866 103.238 116.41 96.8056Z" fill="#65724A"/>
<path d="M103.139 106.193C106.061 108.247 109.715 112.208 109.531 114.714L107.812 116.955C108.031 114.066 106.324 110.857 103.139 106.193Z" fill="#65724A"/>
<path d="M127.488 78.6175L124.803 69.5825L117.073 67.9208L108.172 75.4395L111.03 83.5387L119.137 86.0132L127.488 78.6175Z" fill="#6BAF8A"/>
<path d="M140.035 64.7762L142.778 60.5035L135.769 60.097L127.443 69.2113L129.349 77.8158L133.882 73.9562L140.035 64.7762Z" fill="#6BAF8A"/>
<path d="M134.222 60.0462L130.741 51.3295L122.828 50.3057L114.536 58.4479L118.107 66.226L126.47 68.0229L134.222 60.0462Z" fill="#6BAF8A"/>
<path d="M149.585 47.5247L148.812 45.3955L139.323 42.5564L132.425 50.0214L135.997 57.7999L143.952 59.0102L149.585 47.5247Z" fill="#6BAF8A"/>
<path d="M109.13 84.0297L106.443 74.9969L97.3903 74.1159L89.8144 80.8546L92.6714 88.9552L100.778 91.4272L109.13 84.0297Z" fill="#6BAF8A"/>
<path d="M90.1446 89.7024L87.2445 81.0808L79.8883 78.3702L71.6064 84.2547L73.3787 92.7267L81.0212 96.1587L90.1446 89.7024Z" fill="#6BAF8A"/>
<path d="M96.1462 72.443L93.2435 63.8229L83.6426 62.4028L77.713 68.7509L80.4827 76.8252L87.6182 78.9814L96.1462 72.443Z" fill="#6BAF8A"/>
<path d="M78.0916 76.9768L75.9935 68.9582L69.1389 65.1008L62.9596 69.7899L63.1248 77.3569L71.3254 81.2695L78.0916 76.9768Z" fill="#6BAF8A"/>
<path d="M82.7464 61.5009L80.6502 53.4839L74.7444 50.9623L67.3105 57.0343L70.2328 63.4944L76.5583 67.3921L82.7464 61.5009Z" fill="#6BAF8A"/>
<path d="M60.5628 108.705L60.6231 99L53.0863 94.4529L52.9177 104.429L54.3149 111.628L60.5628 108.705Z" fill="#6BAF8A"/>
<path d="M61.5498 77.6039L61.6817 70.3549L58.7725 68.8947L56.0321 75.0032L55.3021 80.5284L61.5498 77.6039Z" fill="#6BAF8A"/>
<path d="M68.2672 63.8774L66.8036 57.8932L63.7177 60.9016L60.321 67.1378L62.4931 68.6134L68.2672 63.8774Z" fill="#6BAF8A"/>
<path d="M66.9278 115.442L67.8517 114.122L60.7936 110.242L54.5062 112.165L56.7427 118.441L66.9278 115.442Z" fill="#6BAF8A"/>
<path d="M102.281 99.5569L100.284 93.4009L91.6784 91.0138L81.6741 97.3671L83.9931 107.429L87.4637 107.324L102.281 99.5569Z" fill="#6BAF8A"/>
<path d="M81.7194 106.861L79.0514 97.6643L71.1256 94.6102L62.8295 98.9501L62.2858 109.19L69.6924 111.989L81.7194 106.861Z" fill="#6BAF8A"/>
<path d="M70.2971 93.1874L69.2479 83.0686L62.3127 79.0989L54.1412 83.353L52.6229 91.4384L61.5952 97.4808L70.2971 93.1874Z" fill="#6BAF8A"/>
<path d="M117.9 87.1437L110.091 85.3672L102.059 92.699L103.579 97.9742L117.9 87.1437Z" fill="#6BAF8A"/>
<path d="M115.751 66.0632L112.556 57.7607L103.174 57.3426L95.6786 63.9658L99.0076 71.3939L107.489 73.3355L115.751 66.0632Z" fill="#6BAF8A"/>
<path d="M120.593 48.2332L116.821 41.3683L108.453 41.4153L100.805 47.9723L104.078 55.1885L113.203 55.9458L120.593 48.2332Z" fill="#6BAF8A"/>
<path d="M101.717 55.5157L98.6818 48.2697L90.4261 47.5509L82.2325 53.4436L84.7457 60.9944L93.6686 62.587L101.717 55.5157Z" fill="#6BAF8A"/>
<path d="M137.987 41.9937C131.195 40.2664 118.935 39.8791 118.935 39.8791L122.028 47.8905L131.153 48.6466L137.987 41.9937Z" fill="#6BAF8A"/>
<path d="M107.841 39.5087C101.813 38.9083 89.5268 42.8871 89.5268 42.8871L91.0435 46.3291L100.102 46.4634L107.841 39.5087Z" fill="#6BAF8A"/>
<path d="M88.876 46.6884C87.9677 45.1547 87.6282 43.8903 87.6282 43.8903L75.3419 49.7053L81.3752 52.1081L88.876 46.6884Z" fill="#6BAF8A"/>
<path d="M154.137 52.3374C154.137 52.3374 160.76 59.5523 184.628 49.1491C178.534 44.7179 169.843 45.8437 154.137 52.3374Z" fill="#5CA088"/>
<path d="M332.782 406.791C320.283 436.195 208.154 422.089 123.531 369.534L332.782 406.791Z" fill="#355B4D"/>
<path d="M357.59 412.578C374.382 416.843 388.003 420.723 398.947 423.886C433.192 433.779 441.248 436.657 438.342 422.382C434.51 403.546 392.004 379.991 374.029 374.89C366.344 372.711 373.684 363.54 383.84 363.199C394.005 362.866 315.704 208.149 197.217 251.98C111.022 283.863 119.674 329.42 117.379 334.32C116.165 336.903 94.1442 324.267 74.6651 315.3C55.1811 306.325 1.04026 318.605 40.7816 359.74L55.7687 363.038C55.7687 363.038 65.1215 381.433 99.6911 369.955C118.681 369.726 149.839 380.541 183.211 391.952C231.33 408.4 284.053 426.085 311.547 413.679C319.977 411.515 333.979 437.948 350.809 465.136C369.658 495.593 392.059 526.999 414.151 520.233C427.262 516.212 422.484 493.721 412.536 469.63C402.586 445.535 422.604 444.45 405.235 439.01C360.188 424.907 330.845 405.783 357.59 412.578Z" fill="#49826F"/>
<path d="M36.2354 318.467C50.6759 315.966 72.6868 317.165 105.772 330.524C105.772 330.524 62.996 297.368 36.2354 318.467Z" fill="#71B59B"/>
<path d="M32.7121 320.821C29.4214 328.454 31.9906 339.169 45.6377 353.3L60.6263 356.593C60.6263 356.593 69.9827 374.992 104.552 363.513C123.537 363.286 154.689 374.1 188.056 385.507C236.175 401.956 288.907 419.642 316.408 407.238C324.836 405.073 338.838 431.505 355.666 458.693C374.517 489.15 396.916 520.556 419.01 513.79C419.822 513.538 420.568 513.221 421.25 512.829C420.104 516.513 417.834 519.1 414.149 520.233C392.056 526.999 369.656 495.592 350.806 465.138C333.977 437.948 319.975 411.515 311.545 413.678C284.051 426.085 231.328 408.4 183.209 391.951C149.837 380.541 118.679 369.726 99.6889 369.955C65.1194 381.433 55.7666 363.038 55.7666 363.038L40.7795 359.74C22.7179 341.042 24.054 328.308 32.7121 320.821Z" fill="#346654"/>
<path d="M364.504 414.359C350.295 406.948 346.998 402.211 362.459 406.133C379.238 410.397 392.85 414.275 403.789 417.436C422.367 422.805 433.235 426.109 438.831 425.732C439.633 436.095 430.191 432.911 398.937 423.881C389.537 421.167 378.163 417.922 364.504 414.359Z" fill="#346654"/>
<path d="M122.241 327.878C121.957 328.487 120.509 328.242 118.237 327.415C119.07 319.597 121.583 306.366 133.781 291.821C121.45 310.126 123.503 325.174 122.241 327.878Z" fill="#346654"/>
<path d="M383.839 363.199C380.767 363.299 377.96 364.221 375.738 365.501C375.438 362.786 378.9 359.208 383.934 357.603C384.999 361.111 384.997 363.159 383.839 363.199Z" fill="#346654"/>
<path d="M325.191 424.095C332.198 418.835 348.349 414.837 353.333 417.32C353.333 417.32 347.183 411.07 369.122 415.528C367.758 398.978 371.174 388.121 377.681 375.244L323.448 365.839L295.163 412.089C295.163 412.089 314.128 412.788 325.191 424.095Z" fill="#346654"/>
<path d="M124.485 352.06C20.6612 288.406 12.4403 333.12 40.7793 359.74C40.7793 359.74 105.546 376.941 129.983 364.346L124.485 352.06Z" fill="#58937E"/>
<path d="M99.4022 337.352C78.2046 357.473 55.2146 364.66 42.5272 321.176C59.0329 319.03 75.1756 323.856 99.4022 337.352Z" fill="#71B59B"/>
<path d="M116.607 330.299C117.491 351.402 112.6 362.031 99.9017 369.819C115.749 371.916 140.366 378.786 162.469 387.46C162.469 387.46 190.982 361.324 116.607 330.299Z" fill="#346654"/>
<path d="M387.455 364.415C391.73 348.314 303.709 201.498 188.233 251.098C138.964 272.262 117.735 310.747 109.037 327.43C165.975 367.672 299.675 414.163 387.455 364.415Z" fill="#98D3A3"/>
<path d="M387.455 364.416C334.185 391.98 240.001 406.085 109.038 327.43C130.48 341.145 183.538 379.553 158.637 390.091C158.637 390.091 255.658 441.472 308.856 420.614C350.449 375.435 385.032 372.407 387.455 364.416Z" fill="#7F935C"/>
<path d="M304.119 421.49C220.374 415.227 195.273 382.95 155.459 364.878C168.76 377.868 164.382 386.819 157.814 390.536C222.924 424.167 263.835 428.672 304.119 421.49Z" fill="#65724A"/>
<path d="M384.517 360.243C319.954 384.498 232.41 386.963 114.75 325.283C202.236 186.993 331.689 243.755 384.517 360.243Z" fill="#98D3A3"/>
<path d="M118.51 387.318C112.569 409.301 110.081 450.956 210.108 483.093C210.108 483.093 213.879 420.436 155.366 386.332C162.015 372.227 126.014 359.513 118.51 387.318Z" fill="#346654"/>
<path d="M122.372 384.113C117 404.013 114.746 441.708 205.281 470.797C205.281 470.797 208.694 414.091 155.732 383.217C161.748 370.455 129.169 358.944 122.372 384.113Z" fill="#49826F"/>
<path d="M393.035 359.937C306.266 407.05 186.778 375.653 106.882 323.916L105.646 328.072C105.646 328.072 270.414 440.495 395.936 365.135L393.035 359.937Z" fill="#E2EAA7"/>
<path d="M204.563 454.168C189.79 443.515 160.169 445.695 203.113 469.1L204.563 454.168Z" fill="#5CA088"/>
<path d="M197.559 436.929C191.505 434.668 183.686 435.287 181.734 437.478C179.829 439.616 183.513 443.253 199.884 447.171L197.559 436.929Z" fill="#5CA088"/>
<path d="M178.339 458.321C176.53 439.92 142.587 421.886 160.402 449.344L178.339 458.321Z" fill="#5CA088"/>
<path d="M175.721 435.656C174.502 439.92 151.22 429.761 158.275 421.579C168.917 409.224 177.63 428.997 175.721 435.656Z" fill="#5CA088"/>
<path d="M147.203 437.603C153.567 438.49 150.73 416.013 142.197 417.131C125.852 419.268 137.219 436.22 147.203 437.603Z" fill="#5CA088"/>
<path d="M128.49 397.56C132.836 401.187 144.512 381.426 137.263 378.454C123.383 372.762 121.663 391.869 128.49 397.56Z" fill="#5CA088"/>
<path d="M142 408.105C144.048 411.975 125.629 414.877 124.71 409.203C122.96 398.345 138.796 402.033 142 408.105Z" fill="#5CA088"/>
<path d="M419.606 498.266C408.28 488.484 383.566 488.205 417.129 510.433L419.606 498.266Z" fill="#5CA088"/>
<path d="M413.116 477.829C404.164 472.405 387.481 474.96 413.104 486.418L413.116 477.829Z" fill="#5CA088"/>
<path d="M398.814 508.079C400.777 493.006 376.394 473.294 385.814 498.109L398.814 508.079Z" fill="#5CA088"/>
<path d="M394.188 465.36C392.392 468.605 375.249 456.858 382.552 451.361C393.57 443.059 396.994 460.297 394.188 465.36Z" fill="#5CA088"/>
<path d="M369.759 473.208C372.203 474.027 373.908 470.091 374.191 465.776C374.494 461.195 373.196 456.188 369.491 455.977C355.732 455.187 361.846 470.564 369.759 473.208Z" fill="#5CA088"/>
<path d="M361.107 440.172C362.059 443.596 346.452 443.103 346.765 438.403C347.362 429.402 359.624 434.798 361.107 440.172Z" fill="#5CA088"/>
<path d="M60.7262 333.414C60.0874 337.764 66.1216 348.546 73.7448 335.99L60.7262 333.414Z" fill="#346654"/>
<path d="M85.8491 359.116L81.9914 356.35C81.9914 356.35 77.7454 367.754 55.7683 363.038L58.4536 366.268C58.4536 366.268 85.2051 372.61 85.8491 359.116Z" fill="#22493A"/>
<path d="M83.351 352.006C86.1204 351.297 94.5181 349.531 90.2722 361.526C87.8371 352.776 84.9594 352.568 83.351 352.006Z" fill="#346654"/>
<path d="M70.6577 327.953C78.7838 329.61 94.1677 334.287 87.6169 340.983C85.249 336.571 84.2216 333.421 70.6577 327.953Z" fill="#58937E"/>
<path d="M71.0192 346.899C60.1184 346.169 39.1324 342.786 46.1746 332.817C50.21 338.183 52.2306 342.141 71.0192 346.899Z" fill="#58937E"/>
<path d="M37.211 336.768C36.155 325.902 30.6756 319.935 29.5934 334.961L37.211 336.768Z" fill="#346654"/>
<path d="M271.902 404.251C270.078 411.67 264.183 421.773 257.435 422.866L249.534 420.555C257.302 419.3 263.608 413.778 271.902 404.251Z" fill="#65724A"/>
<path d="M247.216 389.238C246.619 399.233 242.471 413.903 236.077 417.385L228.012 416.893C235.379 412.894 240.649 403.917 247.216 389.238Z" fill="#65724A"/>
<path d="M209.797 382.827C211.23 391.043 210.724 403.62 206.28 407.455L199.74 408.316C204.874 403.908 207.354 395.788 209.797 382.827Z" fill="#65724A"/>
<path d="M295.55 377.494L306.037 358.139L296.016 342.628L268.897 340.345L260.241 358.441L269.544 375.917L295.55 377.494Z" fill="#6BAF8A"/>
<path d="M339.133 375.359L350.72 372.833L339.815 360.585L311.012 361.888L299.949 379.246L313.81 380.358L339.133 375.359Z" fill="#6BAF8A"/>
<path d="M337.344 357.946L345.991 337.801L334.613 323.042L307.472 322.795L300.523 341.538L311.367 358.317L337.344 357.946Z" fill="#6BAF8A"/>
<path d="M383.398 362.64L385.638 357.847L374.656 337.487L350.935 338.424L343.987 357.169L355.126 372.305L383.398 362.64Z" fill="#6BAF8A"/>
<path d="M256.294 356.117L266.774 336.761L253.278 320.354L229.637 318.971L220.977 337.068L230.283 354.54L256.294 356.117Z" fill="#6BAF8A"/>
<path d="M215.572 334.13L225.022 315.102L217.349 298.476L193.953 294.517L182.888 311.435L189.842 329.726L215.572 334.13Z" fill="#6BAF8A"/>
<path d="M253.988 315.538L263.43 296.507L249.919 278.306L229.642 278.997L220.881 296.906L229.105 312.252L253.988 315.538Z" fill="#6BAF8A"/>
<path d="M216.682 293.206L226.46 276.498L221.51 258.807L203.56 256.345L191.336 269.116L198.417 289.121L216.682 293.206Z" fill="#6BAF8A"/>
<path d="M249.926 275.335L259.705 258.633L254.115 244.714L231.81 242.465L225.967 257.961L229.977 274.845L249.926 275.335Z" fill="#6BAF8A"/>
<path d="M135.331 316.657L151.46 300.728L146.522 280.771L129.768 296.968L120.185 311.166L135.331 316.657Z" fill="#6BAF8A"/>
<path d="M188.327 266.923L200.517 255.169L198.124 247.952L183.509 253.515L173.179 261.434L188.327 266.923Z" fill="#6BAF8A"/>
<path d="M222.09 255.347L229.556 243.047L219.491 242.919L203.581 247.608L204.732 253.632L222.09 255.347Z" fill="#6BAF8A"/>
<path d="M134.717 338.295L138.422 337.642L133.173 319.577L119.614 312.369L112.942 326.427L134.717 338.295Z" fill="#6BAF8A"/>
<path d="M219.338 370.448L226.207 356.984L215.937 338.828L188.922 332.799L176.134 353.246L182.04 358.804L219.338 370.448Z" fill="#6BAF8A"/>
<path d="M173.317 348.551L184.099 328.957L176.053 310.823L155.184 304.289L137.375 320.302L144.984 337.158L173.317 348.551Z" fill="#6BAF8A"/>
<path d="M177.033 307.105L192.012 288.66L187.115 270.65L166.593 264.18L150.732 275.026L155.571 299.824L177.033 307.105Z" fill="#6BAF8A"/>
<path d="M265.635 375.742L255.672 359.911L230.298 358.755L224.097 369.978L265.635 375.742Z" fill="#6BAF8A"/>
<path d="M296.902 337.378L305.337 318.389L290.534 302.205L267.216 300.764L260.446 318.53L271.247 335.744L296.902 337.378Z" fill="#6BAF8A"/>
<path d="M334.344 315.927L339.453 298.36L325.555 284.618L302.095 282.816L295.583 300.14L309.403 316.461L334.344 315.927Z" fill="#6BAF8A"/>
<path d="M291.141 296.781L298.096 279.802L285.649 264.981L262.385 261.18L254.065 277.802L266.171 295.168L291.141 296.781Z" fill="#6BAF8A"/>
<path d="M373.376 334.349C365.011 320.279 345.403 299.391 345.403 299.391L337.28 317.731L351.102 334.05L373.376 334.349Z" fill="#6BAF8A"/>
<path d="M327.693 280.457C318.731 269.512 291.868 255.791 291.868 255.791L288.688 263.98L303.426 279.162L327.693 280.457Z" fill="#6BAF8A"/>
<path d="M284.513 260.993C285.546 256.96 287.073 254.311 287.073 254.311L257.178 243.624L263.174 257.556L284.513 260.993Z" fill="#6BAF8A"/>
<path d="M382.964 378.105C382.964 378.105 381.987 400.959 438.588 423.197C435.841 405.814 419.629 393.32 382.964 378.105Z" fill="#5CA088"/>
</svg>
