<svg width="160" height="38" viewBox="0 0 160 38" fill="none" xmlns="http://www.w3.org/2000/svg">
<path fill-rule="evenodd" clip-rule="evenodd" d="M88.8567 36.0027C91.2794 36.033 93.4887 35.3264 95.5059 33.8629L95.5486 33.8427L95.602 33.8023C95.6447 33.772 95.6874 33.7316 95.7407 33.7013C95.8795 33.6105 96.0182 33.5298 96.1356 33.4591C96.5092 33.2572 96.7333 33.2068 96.808 33.3178C96.8934 33.4288 96.776 33.6206 96.4665 33.8931C96.3598 33.984 96.2424 34.0748 96.1036 34.1758C96.0502 34.206 96.0076 34.2464 95.9542 34.2868L95.9008 34.3171L95.8688 34.3474C94.3639 35.4375 92.9764 36.2349 91.7277 36.7295C88.7286 37.9205 85.8575 37.9811 83.1359 36.9011C81.9939 36.4468 80.9907 35.7908 80.1475 34.9126C79.2723 34.0143 78.6746 32.9948 78.3438 31.8744C77.682 29.6033 77.9809 27.4028 79.2296 25.2832C80.4357 23.2543 82.1967 21.7806 84.5127 20.8722C85.6974 20.4079 86.9248 20.1656 88.1843 20.1353C89.5291 20.1051 90.7564 20.3473 91.8558 20.8419C92.8484 21.286 93.4585 21.9013 93.8961 22.6381C94.5573 23.7516 94.1904 25.4219 94.1904 25.4219C94.1904 25.4219 93.7489 27.3705 91.3941 28.7623C89.0394 30.1542 88.4507 29.8758 87.2733 29.9566C86.0959 30.0373 84.2246 29.9566 84.2246 29.9566C83.3601 30.007 82.122 30.0171 80.5104 29.9868C80.8519 31.3293 81.4923 32.4699 82.4422 33.3985C84.1819 35.0943 86.3165 35.9623 88.8567 36.0027ZM82.0046 23.1635C82.5703 22.5074 83.4134 22.0834 84.5554 21.9017C85.4093 21.7604 86.3912 21.7604 87.4905 21.8916C88.5365 22.0229 89.433 22.2853 90.1908 22.6992C91.1087 23.1937 91.7277 23.8599 92.0372 24.6876C92.8377 26.777 91.1407 27.9883 86.9462 28.3113H80.6918C80.5744 28.3113 80.425 28.3416 80.2649 28.4021C80.1688 26.3733 80.7452 24.6271 82.0046 23.1635Z" fill="white"/>
<path d="M57.4611 33.6726C57.8347 33.279 58.4004 32.6733 59.1581 31.8356C58.6565 28.2321 58.7419 24.7699 59.425 21.4693C59.425 21.1766 59.8199 20.8334 60.599 20.4195C60.8978 20.2681 61.1647 20.147 61.4101 20.0662C61.6556 19.9956 61.8477 19.9855 61.9865 20.0461C61.6236 23.1852 61.3888 25.5875 61.2714 27.253C61.1647 28.9084 61.3674 30.5234 61.8904 32.0879C62.232 33.1377 63.2839 34.5525 64.3141 35.304C65.3443 35.8607 66.6333 35.8387 67.7006 35.7781C68.7999 35.7075 69.8032 35.2129 70.6997 34.2741C71.4255 33.5272 72.0231 32.5784 72.4928 31.4176C72.5034 31.3671 72.5355 31.3167 72.5781 31.2561V21.556C72.5781 21.2633 72.973 20.9201 73.7522 20.5062C74.051 20.3548 74.3178 20.2337 74.5633 20.153C74.8088 20.0823 74.9262 20.0722 74.9262 20.1328L74.9369 33.4263C74.9689 33.9814 75.129 34.4054 75.4065 34.6981C75.6733 35.0009 76.1002 35.2129 76.6766 35.334C76.8367 35.3643 76.8046 35.5157 76.5592 35.768C76.4845 35.8488 76.3884 35.9396 76.271 36.0405C76.2283 36.0708 76.1856 36.1112 76.1536 36.1415L76.1109 36.1718L76.0896 36.192L76.0255 36.2424L75.9508 36.303C75.8868 36.3534 75.8334 36.3938 75.78 36.4342C75.6199 36.5452 75.4812 36.6462 75.3638 36.7269C75.0009 36.9591 74.7234 37.0499 74.5206 37.0095C73.9336 36.8884 73.496 36.6966 73.1972 36.4241C72.8663 36.1314 72.6742 35.7075 72.6102 35.1725C72.5461 34.6981 72.5141 34.1126 72.5248 33.4162C70.8064 35.3239 69.0454 36.5957 67.263 37.2114C65.0857 37.9684 61.9011 37.4174 60.599 35.7419C60.14 35.1463 59.7665 34.4095 59.4783 33.5515L59.4036 33.1679C58.2829 34.2278 57.3971 34.9949 56.746 35.4794C55.1344 36.6604 53.5015 37.3165 51.8365 37.4477C49.958 37.5991 48.3144 37.0439 46.8949 35.7822C45.5607 34.5811 44.867 33.0468 44.8136 31.1795C44.7603 29.3727 45.3046 27.7577 46.4573 26.3547C47.7594 24.7598 49.4244 23.4477 51.4416 22.408H44.5255C44.3654 22.408 44.5575 22.1254 45.1125 21.5702C45.6781 21.0151 46.1905 20.7324 46.6707 20.7324H56.2764C57.0769 20.7324 57.0449 21.0958 56.1804 21.8125C55.8495 22.0446 55.5507 22.1758 55.2838 22.2061L54.5581 22.3373C54.43 22.3777 54.3126 22.3979 54.2059 22.408C50.7692 23.1045 48.6132 24.5681 47.7274 26.7988C47.2257 28.0605 47.0656 29.3222 47.2471 30.5839C47.4499 31.9668 48.0369 33.0973 49.0081 33.9754C50.0434 34.894 51.2388 35.4996 52.6049 35.7822C54.1845 36.1052 55.8068 35.3987 57.4611 33.6726Z" fill="white"/>
<path d="M102.726 24.4478C103.185 25.2048 103.763 25.3859 104.691 25.8401C105.235 26.1126 106.079 26.365 107.199 26.5971L107.914 26.7284L108.651 26.8697C109.238 26.9807 109.729 27.0917 110.102 27.1826C111.212 27.445 112.077 27.7781 112.696 28.1718C113.486 28.6664 113.998 29.3225 114.222 30.1401C114.489 31.0384 114.414 31.9367 114.019 32.8351C113.667 33.6325 113.069 34.3895 112.237 35.1062C111.479 35.7623 110.593 36.3174 109.59 36.7818C108.619 37.2158 107.669 37.5085 106.751 37.6498C105.684 37.8214 104.638 37.8012 103.613 37.5893C102.599 37.3874 101.681 37.024 100.881 36.4991C100.059 35.9642 99.4187 35.298 98.9597 34.5006C98.4795 33.6527 98.234 32.7241 98.2447 31.7046C98.2447 31.422 98.6396 31.0788 99.4187 30.6851C99.7175 30.5337 99.9844 30.4227 100.23 30.352C100.475 30.2814 100.593 30.2713 100.593 30.3318C100.593 31.4018 100.902 32.391 101.532 33.2994C102.13 34.1574 102.93 34.8438 103.933 35.3686C104.937 35.8935 106.004 36.1761 107.135 36.2266C108.32 36.267 109.43 36.0247 110.465 35.5099C111.319 35.0759 111.831 34.3391 112.013 33.2893C112.173 32.2698 111.949 31.4018 111.34 30.6952C110.476 29.6959 108.928 28.9793 106.698 28.5352L105.993 28.4039L105.278 28.2727C104.712 28.1718 104.254 28.0708 103.88 27.9699C102.834 27.6873 101.991 27.2835 101.34 26.7486C100.582 26.1328 100.166 25.4868 100.091 24.8206C100.006 24.1242 100.294 23.4378 100.966 22.7615C101.408 22.3219 102.002 21.7132 103.168 20.9921C104.117 20.4052 105.643 19.6752 106.16 19.4578C107.366 18.943 108.53 18.7109 109.661 18.7412C110.814 18.7715 111.817 19.0945 112.681 19.7203C113.332 20.1846 114.037 20.9517 114.795 22.0115C114.859 22.1024 114.784 22.2437 114.581 22.4557C114.4 22.6475 114.144 22.8392 113.823 23.0512C113.503 23.2531 113.215 23.4045 112.959 23.5155C112.681 23.6265 112.511 23.6366 112.457 23.5559C111.582 22.3345 110.718 21.4867 109.864 20.9921C108.764 20.3562 107.537 20.1846 106.16 20.4874L104.903 21.2056L104.198 21.6641L103.315 22.2208C103.021 22.36 102.726 22.6384 102.579 22.7615C102.432 23.0559 102.45 22.8965 102.396 23.2094C102.322 23.6737 102.502 24.0945 102.726 24.4478Z" fill="white"/>
<path d="M151.737 34.2322C151.086 33.3136 150.349 32.0418 149.527 30.4167L148.919 29.2156L148.321 28.0043C147.841 27.0252 147.425 26.2278 147.094 25.6121L146.816 25.0973L141.32 33.0411L140.882 33.677L139.784 35.4433L139.095 36.4428C138.938 36.6706 138.621 36.7333 138.387 36.5745C137.956 36.2815 137.344 35.8492 136.963 35.5825C136.861 35.5113 136.77 35.4472 136.697 35.394C136.617 35.3361 136.585 35.2537 136.639 35.1736C136.832 34.8871 137.398 34.248 137.459 34.1906L146.144 23.8961C145.76 23.24 145.386 22.6748 145.013 22.2206C144.255 21.2819 143.55 20.6661 142.878 20.3936C142.547 20.2624 142.11 20.1917 141.576 20.1816H140.893C140.626 20.1816 140.413 20.1715 140.231 20.1514C140.221 20.1514 140.188 20.1514 140.146 20.1413C140.103 20.1312 140.06 20.1312 140.007 20.1211C139.879 20.0908 139.772 20.0605 139.687 20.0302C139.42 19.9495 139.42 19.8788 139.687 19.8183C140.295 19.687 141.01 19.5962 141.832 19.5457C143.177 19.465 144.436 19.7072 145.621 20.2624C146.838 20.8377 147.777 21.6654 148.439 22.7455L148.449 22.7556L148.46 22.7757C148.481 22.806 148.503 22.8363 148.513 22.8666C148.577 22.9675 148.641 23.0785 148.716 23.1896C148.94 23.563 149.164 23.9264 149.367 24.2797C150.04 25.4102 150.52 26.2682 150.808 26.8536L151.352 27.9135L152.74 30.6993C153.071 31.3857 153.37 31.9611 153.626 32.4153C154.341 33.6972 155.077 34.757 155.846 35.5746C156.262 36.0288 156.625 36.3619 156.924 36.5537C157.159 36.7455 157.415 36.8666 157.703 36.9373C157.874 36.9878 158.098 37.018 158.386 37.0382L158.856 37.0786H158.888L158.941 37.0887C158.994 37.0988 159.016 37.1089 159.016 37.119C159.005 37.1392 158.973 37.1593 158.909 37.1795L158.813 37.2098H158.792C157.756 37.4823 156.753 37.5227 155.803 37.3511C154.757 37.1593 153.893 36.7253 153.21 36.0288C152.868 35.6756 152.526 35.2819 152.174 34.8277L151.737 34.2322Z" fill="white"/>
<path d="M7.27897 34.2778C7.93002 33.3593 8.66646 32.0875 9.48828 30.4624L10.0966 29.2612L10.6943 28.05C11.1746 27.0709 11.5909 26.2735 11.9217 25.6578L12.1992 25.143L17.6958 33.0868L18.1334 33.7227L19.2315 35.489L19.9208 36.4885C20.0779 36.7163 20.3949 36.779 20.6284 36.6202C21.0592 36.3272 21.6713 35.8949 22.053 35.6282C22.1548 35.557 22.2452 35.4929 22.3185 35.4397C22.3982 35.3818 22.4302 35.2994 22.3762 35.2193C22.1832 34.9328 21.6171 34.2937 21.5564 34.2363L12.8716 23.9418C13.2558 23.2857 13.6294 22.7205 14.003 22.2663C14.7607 21.3276 15.4651 20.7118 16.1375 20.4393C16.4684 20.3081 16.906 20.2374 17.4396 20.2273H18.1227C18.3895 20.2273 18.603 20.2172 18.7845 20.197C18.7951 20.197 18.8271 20.197 18.8698 20.187C18.9125 20.1769 18.9552 20.1769 19.0086 20.1668C19.1367 20.1365 19.2434 20.1062 19.3288 20.0759C19.5956 19.9952 19.5956 19.9245 19.3288 19.864C18.7204 19.7327 18.0053 19.6419 17.1835 19.5914C15.8387 19.5107 14.5793 19.7529 13.3946 20.3081C12.1779 20.8834 11.2387 21.7111 10.5769 22.7911L10.5663 22.8012L10.5556 22.8214C10.5342 22.8517 10.5129 22.882 10.5022 22.9123C10.4382 23.0132 10.3741 23.1242 10.2994 23.2353C10.0753 23.6087 9.85116 23.9721 9.64837 24.3254C8.97597 25.4559 8.4957 26.3139 8.20753 26.8993L7.6632 27.9592L6.27571 30.745C5.94485 31.4314 5.646 32.0068 5.38985 32.461C4.67476 33.7429 3.93831 34.8027 3.16985 35.6203C2.7536 36.0745 2.39073 36.4076 2.09189 36.5994C1.85709 36.7912 1.60094 36.9123 1.31277 36.983C1.142 37.0334 0.917858 37.0637 0.629687 37.0839L0.160072 37.1243H0.128057L0.0747001 37.1344C0.0213352 37.1445 0 37.1546 0 37.1647C0.010673 37.1849 0.0426765 37.205 0.106714 37.2252L0.202758 37.2555H0.2241C1.25938 37.528 2.26264 37.5684 3.21254 37.3968C4.25849 37.205 5.12302 36.771 5.80609 36.0745C6.14763 35.7213 6.48918 35.3276 6.84139 34.8734L7.27897 34.2778Z" fill="white"/>
<path d="M142.636 37.1853C142.347 37.1651 142.123 37.1348 141.953 37.0843C141.664 37.0137 141.408 36.8926 141.173 36.7008C140.875 36.509 140.512 36.1759 140.095 35.7217L137.459 36.1759C138.142 36.8724 139.007 37.3064 140.053 37.4982C141.003 37.6698 142.006 37.6294 143.041 37.3569H143.063L143.159 37.3266C143.223 37.3064 143.255 37.2862 143.265 37.266C143.265 37.2559 143.244 37.2458 143.191 37.2358L143.137 37.2257H143.105L142.636 37.1853Z" fill="white"/>
<path d="M16.38 37.231C16.6682 37.2108 16.8923 37.1805 17.0631 37.13C17.3513 37.0594 17.6074 36.9383 17.8422 36.7465C18.1411 36.5547 18.5039 36.2216 18.9202 35.7674L21.5564 36.2216C20.8734 36.9181 20.0088 37.3521 18.9629 37.5439C18.013 37.7155 17.0097 37.6751 15.9744 37.4026H15.9531L15.8571 37.3723C15.793 37.3521 15.761 37.3319 15.7503 37.3117C15.7503 37.3016 15.7717 37.2915 15.825 37.2814L15.8784 37.2713H15.9104L16.38 37.231Z" fill="white"/>
<path d="M147.744 33.4307C147.011 33.4727 146.239 33.3309 145.434 32.9999C145.017 32.8266 144.634 32.6165 144.273 32.3643L143.668 33.2678C143.929 33.4609 144.505 33.749 144.986 33.9197C145.598 34.137 147.015 34.2094 147.744 34.0645C148.328 33.9486 149.569 33.2715 150.116 32.9474L149.888 32.6375C149.283 33.1207 148.572 33.3834 147.744 33.4307Z" fill="white"/>
<path d="M11.2715 33.4761C12.0047 33.5181 12.7767 33.3763 13.5821 33.0454C13.9987 32.872 14.3819 32.6619 14.7429 32.4098L15.3477 33.3132C15.0873 33.5063 14.5112 33.7945 14.0302 33.9651C13.4174 34.1824 12.0014 34.2548 11.2715 34.11C10.6876 33.9941 9.44706 33.3169 8.8998 32.9928L9.12753 32.6829C9.73294 33.1662 10.4439 33.4288 11.2715 33.4761Z" fill="white"/>
<path d="M41.459 25.842C41.9607 29.4454 41.8753 32.9076 41.1922 36.2082C41.1922 36.501 40.7973 36.8442 40.0182 37.258C39.7193 37.4094 39.4525 37.5305 39.207 37.6113C38.9615 37.6819 38.7694 37.692 38.6307 37.6315C38.9936 34.4923 39.2284 32.09 39.3458 30.4245C39.4525 28.7691 39.2497 27.1541 38.7267 25.5896C38.3852 24.5399 37.3333 23.125 36.3031 22.3735C35.2729 21.8168 33.9839 21.8389 32.9166 21.8994C31.8173 21.9701 30.814 22.4647 29.9175 23.4034C29.1917 24.1503 28.594 25.0991 28.1244 26.2599C28.1137 26.3104 28.0817 26.3609 28.039 26.4214V36.1215C28.039 36.4142 27.6441 36.7574 26.865 37.1713C26.5661 37.3227 26.2993 37.4438 26.0538 37.5246C25.8084 37.5952 25.691 37.6053 25.691 37.5447L25.6803 24.2513C25.6483 23.6961 25.4882 23.2722 25.2107 22.9795C24.9438 22.6766 24.5169 22.4647 23.9406 22.3435C23.7805 22.3133 23.8125 22.1619 24.058 21.9095C24.1327 21.8288 24.2288 21.7379 24.3462 21.637C24.3889 21.6067 24.4315 21.5663 24.4636 21.536L24.5063 21.5058L24.5276 21.4856L24.5916 21.4351L24.6664 21.3745C24.7304 21.3241 24.7838 21.2837 24.8371 21.2433C24.9972 21.1323 25.136 21.0314 25.2534 20.9506C25.6162 20.7184 25.8937 20.6276 26.0965 20.668C26.6835 20.7891 27.1211 20.9809 27.42 21.2534C27.7508 21.5461 27.943 21.9701 28.007 22.505C28.071 22.9795 28.1031 23.5649 28.0924 24.2614C29.8107 22.3536 31.5718 21.0818 33.3542 20.4661C35.5315 19.7091 38.7161 20.2601 40.0182 21.9357C40.4771 22.5312 40.8507 23.268 41.1388 24.126L41.2135 24.5096C41.2711 24.7689 41.4009 25.3985 41.459 25.842Z" fill="white"/>
<path d="M134.178 25.8731C134.679 29.4766 134.594 32.9387 133.911 36.2394C133.911 36.5321 133.516 36.8753 132.737 37.2891C132.438 37.4405 132.171 37.5617 131.926 37.6424C131.68 37.7131 131.488 37.7232 131.349 37.6626C131.712 34.5234 131.947 32.1211 132.065 30.4557C132.171 28.8003 131.968 27.1853 131.445 25.6207C131.104 24.571 130.052 23.1561 129.022 22.4047C127.992 21.8479 126.703 21.87 125.635 21.9305C124.536 22.0012 123.533 22.4958 122.636 23.4345C121.91 24.1815 121.313 25.1303 120.843 26.2911C120.832 26.3415 120.8 26.392 120.758 26.4526V36.1527C120.758 36.4454 120.363 36.7886 119.584 37.2024C119.285 37.3538 119.018 37.4749 118.773 37.5557C118.527 37.6263 118.41 37.6364 118.41 37.5759L118.399 18.715C118.367 18.1598 118.207 17.7359 117.929 17.4432C117.663 17.1404 117.236 16.9284 116.659 16.8073C116.499 16.777 116.531 16.6256 116.777 16.3732C116.851 16.2925 116.948 16.2016 117.065 16.1007C117.108 16.0704 117.15 16.03 117.182 15.9998L117.225 15.9695L117.246 15.9493L117.31 15.8988L117.385 15.8383C117.449 15.7878 117.503 15.7474 117.556 15.707C117.716 15.596 117.855 15.4951 117.972 15.4143C118.335 15.1822 118.612 15.0913 118.815 15.1317C119.402 15.2528 119.84 15.4446 120.139 15.7171C120.47 16.0098 120.662 16.4338 120.726 16.9688C120.789 17.4367 120.821 18.0126 120.812 24.264C120.811 18.706 120.811 24.283 120.811 24.2925C122.529 22.3848 124.291 21.113 126.073 20.4972C128.25 19.7402 131.435 20.2912 132.737 21.9668C133.196 22.5623 133.569 23.2992 133.858 24.1571L133.932 24.5407C133.99 24.8001 134.12 25.4296 134.178 25.8731Z" fill="white"/>
<path d="M48.9219 29.7231C48.4998 25.1232 50.6831 26.7399 52.2541 27.2785C51.002 27.4336 49.265 26.788 48.9219 29.7231Z" fill="white"/>
<path d="M53.5046 26.9382C56.4755 23.2742 56.933 25.8608 57.7079 27.2609C56.6733 26.5763 55.8522 24.9913 53.5046 26.9382Z" fill="white"/>
<path d="M64.2701 24.8716C64.9874 28.4232 66.269 26.7652 67.3317 26.043C66.3532 26.1782 65.7359 26.2009 64.2701 24.8716Z" fill="white"/>
<path d="M71.3518 27.3833C68.1606 29.3935 68.5145 27.3611 68.3142 26.1346C68.8995 26.8917 69.316 27.3254 71.3518 27.3833Z" fill="white"/>
<path d="M49.6558 30.2241C51.2277 30.6131 54.7762 30.7485 56.3951 28.1779C57.0948 30.9777 56.7265 35.3065 49.6558 30.2241Z" fill="white"/>
<path d="M68.6176 31.5258C67.6041 30.3247 66.2076 29.3951 63.2843 30.5389C64.4948 27.8996 68.4382 26.1003 68.6176 31.5258Z" fill="white"/>
<path d="M113.622 5.64172C114.004 5.739 114.939 5.89125 115.622 5.72205C116.305 5.55285 116.23 2.78986 116.107 1.42952C115.172 0.797881 112.746 -0.270526 110.528 0.508916C110.28 0.714126 108.839 2.65351 108.321 4.07684C108.158 4.80775 109.5 5.22356 110.192 5.3401L109.803 6.61226L113.331 7.4427L113.622 5.64172Z" fill="white"/>
<path d="M109.643 7.4427L113.176 8.30195L112.865 9.83304L109.115 8.85874L109.643 7.4427Z" fill="white"/>
<path d="M108.867 9.61978L108.797 9.83304L108.466 10.6681L112.599 11.7486L112.759 10.5949L108.867 9.61978Z" fill="white"/>
<path d="M107.877 12.4776L112.293 13.4518L112.459 12.4776L108.172 11.4703L107.877 12.4776Z" fill="white"/>
<path d="M107.253 14.287L112.072 15.2613L112.207 14.287L107.583 13.2741L107.253 14.287Z" fill="white"/>
<path d="M106.798 15.6788L111.904 16.6531L111.975 15.9572L106.994 15.0779L106.798 15.6788Z" fill="white"/>
<path d="M105.942 18.302C107.302 17.6356 109.496 17.2099 111.704 17.9058L111.781 17.3491L106.571 16.3748L105.942 18.302Z" fill="white"/>
<path d="M108.663 2.10931C108.693 2.41545 108.455 2.68686 108.132 2.71552C107.808 2.74417 107.521 2.51923 107.491 2.21308C107.46 1.90694 107.698 1.63554 108.022 1.60688C108.346 1.57822 108.633 1.80317 108.663 2.10931Z" fill="white"/>
<path d="M109.432 0.922662C109.463 1.2288 109.225 1.50021 108.901 1.52887C108.577 1.55752 108.29 1.33258 108.26 1.02643C108.23 0.720292 108.468 0.448885 108.791 0.420229C109.115 0.391574 109.402 0.61652 109.432 0.922662Z" fill="white"/>
<path d="M117.873 2.27614C117.995 2.56099 117.85 2.88576 117.549 3.00155C117.248 3.11733 116.905 2.98028 116.782 2.69543C116.66 2.41058 116.805 2.08581 117.106 1.97002C117.407 1.85424 117.75 1.99129 117.873 2.27614Z" fill="white"/>
<path d="M117.882 3.77558C118.004 4.06043 117.859 4.38521 117.558 4.50099C117.257 4.61677 116.913 4.47972 116.791 4.19487C116.668 3.91002 116.813 3.58525 117.115 3.46947C117.416 3.35368 117.759 3.49074 117.882 3.77558Z" fill="white"/>
<path d="M102.709 31.7566L102.873 30.5719L108.989 31.8853L108.76 33.2164L102.709 31.7566Z" fill="white"/>
<path d="M143.052 15.6789C143.052 17.0626 141.866 18.1842 140.403 18.1842C138.94 18.1842 137.754 17.0626 137.754 15.6789C137.754 14.2952 138.94 13.1736 140.403 13.1736C141.866 13.1736 143.052 14.2952 143.052 15.6789Z" fill="white"/>
<path d="M14.1285 16.7925C14.1285 18.1762 12.9425 19.2978 11.4794 19.2978C10.0164 19.2978 8.83033 18.1762 8.83033 16.7925C8.83033 15.4088 10.0164 14.2872 11.4794 14.2872C12.9425 14.2872 14.1285 15.4088 14.1285 16.7925Z" fill="white"/>
<path d="M138.636 20.8289C141.138 21.1537 145.436 23.557 139.667 27.7882C140.991 26.6747 142.051 23.1672 138.636 20.8289Z" fill="white"/>
<path d="M142.768 18.2495C143.542 18.4719 145.437 18.487 146.825 16.7687C148.212 15.0504 150.989 15.1071 152.204 15.3503C150.923 15.4291 148.79 15.9575 147.978 17.2412C147.06 18.6946 143.628 18.7082 142.768 18.2495Z" fill="white"/>
<path d="M30.9615 17.8524L30.7517 18.9891C33.8301 18.3724 38.959 18.904 42.7254 21.292L43.3144 20.058C36.3598 17.929 36.6725 18.3735 30.9615 17.8524Z" fill="white"/>
<path fill-rule="evenodd" clip-rule="evenodd" d="M29.063 17.1559C26.2286 15.033 32.6214 13.6421 36.9685 14.2763C36.8462 15.494 40.3508 16.009 40.4299 14.9175C43.3096 16.0878 44.7909 17.3792 45.3941 18.4079C46.0984 19.6091 44.4737 19.9893 43.0923 19.5655C35.8062 17.3306 29.8472 17.8872 29.063 17.1559ZM29.0988 16.1906C28.998 16.4852 29.9482 17.0643 34.5556 17.0243C32.9473 16.9038 29.6043 16.5685 29.0988 16.1906Z" fill="white"/>
<path d="M37.8444 15.0615C37.1272 14.7227 37.3556 13.8751 38.1573 13.8815C38.6792 13.8856 39.2599 14.0018 39.7025 14.2582C40.2324 14.5652 40.0372 15.2691 39.4193 15.3318C38.9135 15.3831 38.3311 15.2915 37.8444 15.0615Z" fill="white"/>
<path d="M72.5481 15.4221C73.6584 14.5176 72.5126 12.9896 71.8009 12.3386C73.0834 12.8161 74.7898 13.6938 75.847 14.8054C75.847 14.8054 76.1778 16.3472 75.847 15.8332C75.5163 15.3193 74.8968 14.8054 74.8968 14.8054C74.8968 14.8054 74.8218 15.7305 74.6833 15.5249C74.5447 15.3193 74.1495 14.7026 74.1495 14.7026C74.1495 14.7026 73.7225 16.0388 73.509 15.936C73.2955 15.8332 73.2955 14.7026 73.2955 14.7026C73.2955 14.7026 72.655 15.936 72.3347 15.936C72.0731 15.936 72.1677 15.8025 72.211 15.7536C72.2208 15.7427 72.2279 15.736 72.2279 15.736C72.326 15.6337 72.4326 15.5291 72.5481 15.4221Z" fill="white"/>
<path d="M75.847 14.8054C76.9899 16.007 77.2295 17.4818 75.4994 19.0195H75.1103H74.3096H73.9093H73.1354H72.7617H71.9672C71.1938 18.6958 70.446 17.6071 72.211 15.7536C72.1677 15.8025 72.0731 15.936 72.3347 15.936C72.655 15.936 73.2955 14.7026 73.2955 14.7026C73.2955 14.7026 73.2955 15.8332 73.509 15.936C73.7225 16.0388 74.1495 14.7026 74.1495 14.7026C74.1495 14.7026 74.5447 15.3193 74.6833 15.5249C74.8218 15.7305 74.8968 14.8054 74.8968 14.8054C74.8968 14.8054 75.5163 15.3193 75.847 15.8332C76.1778 16.3472 75.847 14.8054 75.847 14.8054Z" fill="white"/>
<path d="M71.9674 19.3194V20.8291C72.3395 20.4971 73.2726 19.7819 74.0278 19.5763C74.7831 19.3708 75.058 19.4372 75.058 19.4372C75.2052 19.4372 75.3818 19.6042 75.4995 19.7155V19.3195L71.9674 19.3194Z" fill="white"/>
<path d="M19.2476 18.1894L17.2147 25.0774L18.6605 25.6757L21.9198 19.1327L19.2476 18.1894Z" fill="white"/>
<path d="M19.8053 17.9095L21.6085 18.5887C21.9657 18.5552 22.296 18.4376 22.5776 18.2574L19.3616 17.1188C19.4454 17.4156 19.5994 17.6847 19.8053 17.9095Z" fill="white"/>
<path d="M19.2906 16.6408C19.2846 16.3568 19.3416 16.0855 19.4493 15.8389L23.4094 17.2032C23.3218 17.4661 23.1782 17.7058 22.9917 17.9095L19.2906 16.6408Z" fill="white"/>
<path d="M21.3568 14.6049C22.521 14.5832 23.4834 15.4595 23.5063 16.5622C23.5072 16.6057 23.5067 16.6489 23.5047 16.6918L19.7212 15.3913C20.0978 14.9237 20.6878 14.6173 21.3568 14.6049Z" fill="white"/>
<path d="M126.462 23.4774C120.582 23.4774 121.175 33.9547 125.742 33.9547C129.743 33.9547 129.983 26.7064 126.743 26.393C125.288 26.2523 124.743 28.9847 125.183 29.864C125.303 29.5864 125.591 28.8922 126.263 28.8922C127.103 28.8922 127.655 31.2117 125.982 31.039C124.013 30.8359 122.982 26.1153 126.582 25.4211C130.182 24.7269 131.543 33.1217 126.263 34.5101C131.903 33.9547 131.626 22.7359 126.582 24.1716C121.703 25.56 123.342 32.4274 125.862 32.1498C128.382 31.8721 128.423 28.0591 126.462 27.3649C128.903 26.9484 128.903 33.9547 125.502 32.9828C122.1 32.0109 121.823 24.8658 126.462 23.4774Z" fill="white"/>
</svg>
