<svg width="148" height="33" viewBox="0 0 148 33" fill="none" xmlns="http://www.w3.org/2000/svg">
<g clip-path="url(#clip0_24_584)">
<path d="M10.3577 15.8927C10.3639 15.7376 9.94841 15.9536 9.89981 15.9818C9.72325 16.0843 9.45524 16.2838 9.34351 16.4582C9.16047 16.7441 8.84652 17.0353 8.78956 17.3781C8.73161 17.7269 8.63023 18.0531 8.57238 18.4012C8.54956 18.5385 8.4681 18.5946 8.42841 18.7155C8.35737 18.9317 8.30762 19.1426 8.27014 19.3681C8.21968 19.6719 7.99774 19.998 7.79778 20.2229C7.50778 20.5493 7.15484 20.4767 6.76949 20.5581C6.2713 20.6634 5.19993 20.8058 5.09521 21.436" stroke="white" stroke-width="0.373938" stroke-linecap="round"/>
<path d="M15.8706 8.60599C16.4049 8.60599 16.9344 8.70726 17.4909 8.70726C17.8057 8.70726 18.0224 8.70605 18.3066 8.54973C18.5525 8.41451 18.7964 8.11529 19.0324 8.02088C19.4672 7.84697 19.998 7.31403 20.3264 6.98569C20.7372 6.57491 21.1339 6.69575 21.6429 6.50185C22.0121 6.36123 22.6852 6.47935 23.0831 6.47935C23.7245 6.47935 24.3659 6.47935 25.0073 6.47935C25.352 6.47935 26.1739 6.62133 26.4475 6.37807C26.5885 6.25278 26.9278 6.22799 27.1114 6.17554C27.3535 6.10636 27.3683 5.87173 27.6178 5.87173" stroke="white" stroke-width="0.373938" stroke-linecap="round"/>
<path d="M35.6174 6.37809C36.419 6.37809 37.2774 6.49034 37.969 6.02928C38.2089 5.86939 38.4667 5.51784 38.7567 5.46667C38.9497 5.43262 38.9807 5.23068 39.0774 5.11786C39.2121 4.96074 39.7696 5.06159 39.9719 5.06159" stroke="white" stroke-width="0.373938" stroke-linecap="round"/>
<path d="M15.5659 11.5428C16.3944 11.5428 17.0704 11.5872 17.8163 11.2953C18.6379 10.9738 19.5334 10.574 20.2636 10.0745C20.4367 9.95601 20.5322 9.79876 20.7081 9.67499C20.8366 9.58459 21.1507 9.36603 21.237 9.24742C21.4825 8.90968 21.8497 8.72547 22.0921 8.38101C22.3153 8.06383 22.7141 7.6967 23.0091 7.44709C23.6072 6.94107 24.19 6.20476 25.0063 6.17561C25.4182 6.16089 25.8128 6.07434 26.2385 6.07434C26.51 6.07434 26.3915 5.96008 26.5648 5.88305C26.7057 5.8204 26.9813 5.8718 27.133 5.8718C28.5868 5.8718 29.8764 6.22144 31.2119 6.68195C32.0548 6.97262 32.9651 6.88448 33.8448 6.88448C34.5318 6.88448 35.3037 6.43831 35.9659 6.25437C37.2382 5.90095 38.1434 6.06266 39.4428 6.25437C40.0845 6.34905 41.1538 6.61437 41.5976 7.13203C41.7663 7.32893 42.1455 7.20828 42.3233 7.36832C42.5345 7.55838 42.9466 7.56649 43.2066 7.59899C43.7584 7.66798 44.3751 7.7959 44.9338 7.7959C46.0035 7.7959 47.156 7.93096 48.1688 7.59336C48.5682 7.46023 48.9259 7.17319 49.3389 7.0814C49.8024 6.9784 50.3183 6.58068 50.8074 6.58068" stroke="white" stroke-width="0.373938" stroke-linecap="round"/>
<path d="M15.7088 25.6272V32.7195H8.47461V12.6351C8.52914 8.51777 9.97036 7.86502 12.4944 7.86502H21.4689C24.4137 7.89941 24.8344 10.9377 24.8344 12.6351V32.7195H17.6474V25.6272V23.5113C17.0012 23.4957 15.7088 23.4739 15.7088 23.5113V25.6272Z" fill="white"/>
<path d="M135.088 25.4278V32.5202H127.854V12.4358C127.908 8.31846 129.35 7.66571 131.874 7.66571H140.849C143.793 7.7001 144.214 10.7384 144.214 12.4358V32.5202H137.027V25.4278V23.312C136.381 23.2964 135.088 23.2746 135.088 23.312V25.4278Z" fill="white"/>
<path d="M46.242 25.9887C47.9018 17.0071 45.8898 10.5473 44.98 7.85275H51.159C53.0797 14.0862 53.2777 18.7319 51.159 25.9887C51.5789 25.9887 52.2888 26.0252 52.3402 25.9887C53.6181 25.0808 54.1572 12.4031 51.9071 7.85275H56.671C55.343 15.7441 55.31 19.9122 56.671 25.9887H58.2548C55.2165 17.2012 56.4292 15.4042 57.7734 7.85275H64.191C61.3738 15.4092 61.8539 18.8839 63.2094 25.4746C64.565 32.0652 63.2094 32.3924 62.498 32.7196H52.3402H46.6161C45.5089 32.1479 45.4473 30.289 46.242 25.9887Z" fill="white"/>
<path d="M67.276 7.85261C67.3936 7.72439 76.0242 7.85261 81.3921 7.85261C84.3836 11.592 83.1683 15.6119 81.3921 17.0141C80.2861 17.6753 79.5513 18.0451 78.4473 18.1359C75.3612 18.39 72.2836 16.7169 72.1839 14.3108V17.2011C73.0843 18.6759 74.516 19.2935 76.2037 19.585C77.7061 19.8445 79.3915 19.9329 81.3921 18.7903V23.6048C79.8652 22.8621 75.8859 21.7257 72.1839 24.4305V25.7082C75.414 23.7803 80.2235 24.2592 82.4161 25.7082C84.1007 26.8214 83.7759 31.5042 82.4161 32.7194H67.0891C64.2686 26.1412 61.8636 13.7455 67.276 7.85261Z" fill="white"/>
<path d="M92.6559 15.7452C92.9568 19.2339 99.2231 18.8483 101.943 21.034C103.86 22.483 106.542 26.8487 101.943 32.7195H99.9289H88.0749C85.8254 31.0431 82.9434 26.8251 86.9542 21.7819C87.1773 21.5014 88.0293 20.9345 88.6837 21.6884C91.7219 25.1885 97.8844 25.869 97.2375 25.5212C96.5279 25.14 85.764 18.6638 85.0845 16.8272C83.9507 13.7629 83.9123 9.5354 88.0749 7.66571H100.603C106.181 11.2555 104.575 16.5467 101.943 18.0892C99.6868 19.4122 97.5264 18.677 95.1621 15.7452C93.0392 12.1113 92.6067 14.2311 92.6559 15.7452Z" fill="white"/>
<path d="M138.885 18.8839H133.276V18.5617H133.815V13.4318H133.3V13.1932H133.815C133.908 11.3417 135.384 10.9185 136.11 10.9384C137.815 10.9098 138.32 12.4296 138.358 13.1932H138.839V13.4318H138.358V18.5617H138.885V18.8839Z" fill="white" stroke="white" stroke-width="0.186969"/>
<path d="M136.119 18.8839H134.482V17.3729V15.6939V13.7152H136.119H137.756V15.6939V17.3729V18.8839H136.119Z" fill="#63262D"/>
<path d="M135.35 13.4754H134.412C134.327 12.9669 134.65 12.616 134.822 12.5041L135.456 13.1157C135.305 13.2116 135.323 13.3955 135.35 13.4754Z" fill="#63262D"/>
<path d="M136.7 13.4753H135.502C135.502 13.0244 135.894 12.9117 136.089 12.9117C136.559 12.9308 136.691 13.2954 136.7 13.4753Z" fill="#63262D"/>
<path d="M136.043 12.7797C135.79 12.7701 135.632 12.9037 135.585 12.9717L134.951 12.348C135.234 11.8971 135.797 11.8483 136.043 11.8803V12.7797Z" fill="#63262D"/>
<path d="M136.653 13.0076C136.587 12.8254 136.328 12.7798 136.207 12.7798V11.8803C136.742 11.8448 137.118 12.2014 137.24 12.384L136.653 13.0076Z" fill="#63262D"/>
<path d="M136.923 13.4754C136.96 13.3411 136.844 13.1796 136.782 13.1157L137.381 12.5041C137.747 12.7727 137.784 13.2636 137.756 13.4754H136.923Z" fill="#63262D"/>
<path d="M136.119 18.8838H134.482V17.3728M136.119 18.8838H137.756V17.3728M136.119 18.8838V13.7151M134.482 17.3728V15.6938M134.482 17.3728H137.756M137.756 17.3728V15.6938M136.119 13.7151H137.756V15.6938M136.119 13.7151H134.482V15.6938M137.756 15.6938H134.482M134.412 13.4753H135.35C135.323 13.3953 135.305 13.2114 135.456 13.1155L134.822 12.504C134.65 12.6159 134.327 12.9668 134.412 13.4753ZM135.503 13.4753H136.7C136.692 13.2954 136.559 12.9308 136.09 12.9116C135.894 12.9116 135.503 13.0244 135.503 13.4753ZM135.585 12.9717C135.632 12.9037 135.79 12.7701 136.043 12.7797V11.8803C135.796 11.8483 135.233 11.8971 134.951 12.348L135.585 12.9717ZM136.207 12.7797C136.328 12.7797 136.587 12.8254 136.653 13.0076L137.24 12.384C137.118 12.2013 136.742 11.8448 136.207 11.8803V12.7797ZM136.782 13.1155C136.844 13.1795 136.96 13.341 136.923 13.4753H137.756C137.784 13.2634 137.746 12.7725 137.381 12.504L136.782 13.1155Z" stroke="white" stroke-width="0.186969"/>
<mask id="mask0_24_584" style="mask-type:luminance" maskUnits="userSpaceOnUse" x="97" y="-1" width="7" height="8">
<path fill-rule="evenodd" clip-rule="evenodd" d="M102.133 0.0610835C102.034 0.192738 101.809 0.33019 101.355 0.536623C100.827 0.777088 100.633 0.880043 100.546 0.96518C100.36 1.14775 100.284 1.45785 100.34 1.81297C100.349 1.86922 100.354 1.91808 100.35 1.92156C100.339 1.9321 100.212 1.73489 100.145 1.60511C100.052 1.4238 100.02 1.33077 99.9688 1.08969C99.8968 0.756984 99.8192 0.623188 99.6453 0.531888C99.4658 0.438156 99.2125 0.416201 99.0629 0.481394C98.962 0.525347 98.8451 0.623057 98.7684 0.728328C98.7086 0.809779 98.6834 0.830845 98.5824 0.881048L98.4656 0.939275L98.4749 0.879809C98.4824 0.832258 98.4805 0.820342 98.4628 0.820342C98.4497 0.820342 98.4403 0.829782 98.4403 0.841335C98.4403 0.880028 98.4123 0.879926 98.3328 0.84097C98.2898 0.819685 98.2524 0.800412 98.2496 0.798139C98.2468 0.795881 98.259 0.750078 98.2758 0.696379C98.3113 0.582877 98.315 0.471284 98.2851 0.415342C98.2618 0.371607 98.1907 0.302918 98.1169 0.253502C98.0907 0.235656 98.0692 0.211662 98.0692 0.200197C98.0692 0.165276 98.0112 0.175678 98.0028 0.212113C97.971 0.347978 97.9654 0.392498 97.9654 0.518908C97.9654 0.671846 97.9458 0.697196 97.929 0.566241C97.9168 0.472246 97.8542 0.344584 97.8018 0.307493C97.7813 0.293026 97.7158 0.271217 97.6569 0.259038C97.5971 0.246859 97.5354 0.229027 97.5195 0.219413C97.4634 0.185031 97.4578 0.223681 97.498 0.359865C97.5662 0.591604 97.6233 0.677528 97.7317 0.711108C97.7747 0.724351 97.8186 0.738073 97.8299 0.7416C97.843 0.745678 97.828 0.763903 97.7887 0.79189C97.6803 0.868738 97.6672 0.904328 97.6728 1.09714C97.6775 1.2299 97.6831 1.26554 97.6999 1.26882C97.7252 1.27366 97.9084 1.15048 97.9794 1.08053C98.0598 1.00236 98.0841 0.952288 98.0841 0.866479C98.0841 0.823736 98.0888 0.79103 98.0954 0.793783C98.2281 0.853775 98.4113 0.95657 98.4011 0.966143C98.3665 0.999386 98.0094 1.16999 97.9738 1.16999C97.8944 1.16999 97.8084 1.2379 97.7298 1.3638C97.7111 1.39341 97.6859 1.41764 97.6747 1.41764C97.6532 1.41764 97.6448 1.46897 97.6653 1.48112C97.6709 1.48492 97.7439 1.4957 97.8252 1.50505C98.0355 1.52908 98.1281 1.51105 98.2132 1.42949C98.2477 1.39604 98.2861 1.34691 98.2992 1.32033C98.3122 1.29372 98.33 1.27196 98.3384 1.27196C98.3665 1.27196 98.3394 1.35462 98.2982 1.39477C98.2533 1.43903 98.1945 1.56148 98.1795 1.63981C98.1617 1.73436 98.1823 1.78952 98.2702 1.88199C98.3141 1.92921 98.3506 1.97775 98.3506 1.98984C98.3506 2.02447 98.3992 2.03496 98.4216 2.00517C98.4609 1.95254 98.5291 1.70981 98.5291 1.62339C98.5291 1.53396 98.516 1.5086 98.4216 1.40883C98.388 1.37331 98.3814 1.35532 98.3889 1.32506C98.3945 1.30386 98.4039 1.28653 98.4095 1.28653C98.416 1.28653 98.4534 1.31916 98.4936 1.35905C98.5534 1.41861 98.6235 1.52136 98.7339 1.70796C98.7413 1.72091 98.7563 1.72495 98.7731 1.71866C98.7974 1.7095 98.7993 1.69251 98.7928 1.53759C98.7862 1.35493 98.7703 1.30449 98.6946 1.22262L98.6553 1.18057L98.7077 1.18839C98.7843 1.19998 98.9321 1.29058 99.0078 1.37298C99.119 1.49448 99.1209 1.5175 99.062 1.96193C99.0162 2.30602 99.0115 2.37714 99.0115 2.69965C99.0115 3.09289 99.0255 3.20378 99.1087 3.44903C99.1499 3.56873 99.1517 3.5848 99.1358 3.64788C99.1106 3.74286 99.1321 3.78302 99.2536 3.87241C99.3284 3.9279 99.3611 3.96314 99.3883 4.02039C99.4284 4.10652 99.4649 4.1283 99.549 4.11723C99.6014 4.11037 99.636 4.12237 99.822 4.21245C100.146 4.36955 100.589 4.5148 101.052 4.61641C101.154 4.63863 101.245 4.66389 101.254 4.67253C101.264 4.68117 101.369 4.92096 101.489 5.20541C101.787 5.91298 101.81 5.96854 101.823 5.98202C101.828 5.9885 101.854 5.96228 101.881 5.92374C101.96 5.80372 101.979 5.78814 102.038 5.78814C102.067 5.78814 102.111 5.7777 102.137 5.76492C102.181 5.74264 102.219 5.74304 102.315 5.76688C102.347 5.77463 102.367 5.76808 102.404 5.73733C102.453 5.69667 102.459 5.6962 102.591 5.72362C102.639 5.73344 102.64 5.73239 102.63 5.69552C102.621 5.65722 102.621 5.65722 102.67 5.67703C102.698 5.68794 102.739 5.70116 102.761 5.70641C102.802 5.71587 102.802 5.71536 102.793 5.65827L102.784 5.60056L102.878 5.62802C103.015 5.66779 103.059 5.67008 103.066 5.63771C103.069 5.62309 103.059 5.60145 103.044 5.58962C103.018 5.56911 103.018 5.56849 103.048 5.57648C103.099 5.59 103.132 5.57027 103.124 5.53115C103.118 5.4993 103.122 5.49677 103.182 5.49677C103.254 5.49677 103.37 5.45713 103.358 5.43696C103.353 5.42979 103.337 5.42394 103.323 5.42394C103.151 5.42394 102.833 5.18834 102.309 4.6707L102.03 4.39627L101.993 4.26056C101.937 4.05307 101.837 3.81529 101.671 3.49764C101.589 3.33881 101.524 3.20707 101.527 3.20487C101.531 3.20265 101.583 3.17695 101.645 3.1477C101.715 3.11427 101.793 3.06145 101.852 3.0054C101.91 2.95174 101.986 2.89945 102.042 2.87399C102.162 2.82028 102.31 2.72177 102.424 2.62077C102.511 2.54337 102.512 2.5413 102.485 2.51252C102.458 2.48345 102.457 2.48343 102.412 2.51124C102.375 2.53297 102.337 2.5393 102.241 2.53935C102.116 2.5394 101.915 2.50068 101.937 2.48093C101.943 2.475 101.985 2.45874 102.03 2.44481C102.14 2.41053 102.318 2.32321 102.433 2.24673C102.527 2.18373 102.787 1.94854 102.787 1.92598C102.787 1.91938 102.773 1.90661 102.756 1.89761C102.729 1.8839 102.718 1.88712 102.685 1.91734C102.625 1.9728 102.384 2.07576 102.363 2.05505C102.359 2.05145 102.395 2.02515 102.442 1.99663C102.666 1.86109 102.903 1.62425 103.044 1.3955C103.074 1.34726 103.099 1.30326 103.099 1.29768C103.099 1.2921 103.085 1.28033 103.068 1.27152C103.043 1.25796 103.029 1.26297 102.983 1.30408C102.929 1.35121 102.657 1.49898 102.645 1.4872C102.642 1.48397 102.685 1.44078 102.742 1.3912C102.931 1.22499 103.115 0.971546 103.215 0.739881C103.255 0.648668 103.327 0.412136 103.317 0.404459C103.316 0.402827 103.3 0.397131 103.282 0.391829C103.254 0.38351 103.244 0.392848 103.214 0.459207C103.09 0.720329 102.722 0.955654 102.122 1.15661C102.004 1.19601 101.902 1.22825 101.895 1.22825C101.889 1.22825 101.903 1.18729 101.925 1.1372C101.963 1.05611 101.994 0.951017 102.023 0.810551C102.031 0.770052 102.028 0.763743 101.998 0.759562C101.973 0.756094 101.943 0.774801 101.888 0.827625C101.847 0.867689 101.79 0.913258 101.762 0.92889L101.711 0.957308L101.738 0.921606C101.852 0.763 101.995 0.524152 102.106 0.306108C102.179 0.163499 102.239 0.0380655 102.239 0.0273723C102.239 0.0166646 102.225 0.00474775 102.211 0.000858007C102.191 -0.00419721 102.169 0.0127312 102.133 0.0610835ZM98.3356 1.18377L98.373 1.19467L98.3337 1.21315C98.3001 1.22888 98.2814 1.22722 98.2075 1.20196L98.1206 1.17229L98.2104 1.17258C98.259 1.17275 98.316 1.17779 98.3356 1.18377Z" fill="black" stroke="black" stroke-width="0.186969"/>
</mask>
<g mask="url(#mask0_24_584)">
<path fill-rule="evenodd" clip-rule="evenodd" d="M102.133 0.0610835C102.034 0.192738 101.809 0.33019 101.355 0.536623C100.827 0.777088 100.633 0.880043 100.546 0.96518C100.36 1.14775 100.284 1.45785 100.34 1.81297C100.35 1.86922 100.354 1.91808 100.35 1.92156C100.339 1.9321 100.212 1.73489 100.146 1.60511C100.052 1.4238 100.02 1.33077 99.969 1.08969C99.897 0.756984 99.8195 0.623188 99.6456 0.531888C99.4661 0.438156 99.2127 0.416201 99.0632 0.481394C98.9622 0.525347 98.8454 0.623057 98.7687 0.728328C98.7089 0.809779 98.6836 0.830845 98.5827 0.881048L98.4658 0.939275L98.4752 0.879809C98.4826 0.832258 98.4808 0.820342 98.463 0.820342C98.4499 0.820342 98.4406 0.829782 98.4406 0.841335C98.4406 0.880028 98.4125 0.879926 98.3331 0.84097C98.2901 0.819685 98.2527 0.800412 98.2499 0.798139C98.247 0.795881 98.2592 0.750078 98.276 0.696379C98.3116 0.582877 98.3153 0.471284 98.2854 0.415342C98.262 0.371607 98.191 0.302918 98.1171 0.253502C98.0909 0.235656 98.0694 0.211662 98.0694 0.200197C98.0694 0.165276 98.0115 0.175678 98.0031 0.212113C97.9713 0.347978 97.9657 0.392498 97.9657 0.518908C97.9657 0.671846 97.946 0.697196 97.9292 0.566241C97.9171 0.472246 97.8544 0.344584 97.8021 0.307493C97.7815 0.293026 97.7161 0.271217 97.6572 0.259038C97.5973 0.246859 97.5356 0.229027 97.5197 0.219413C97.4637 0.185031 97.458 0.223681 97.4982 0.359865C97.5665 0.591604 97.6235 0.677528 97.732 0.711108C97.775 0.724351 97.8189 0.738073 97.8301 0.7416C97.8432 0.745678 97.8282 0.763903 97.789 0.79189C97.6805 0.868738 97.6674 0.904328 97.6731 1.09714C97.6777 1.2299 97.6833 1.26554 97.7002 1.26882C97.7254 1.27366 97.9086 1.15048 97.9797 1.08053C98.0601 1.00236 98.0844 0.952288 98.0844 0.866479C98.0844 0.823736 98.0891 0.79103 98.0956 0.793783C98.2284 0.853775 98.4116 0.95657 98.4013 0.966143C98.3667 0.999386 98.0096 1.16999 97.9741 1.16999C97.8946 1.16999 97.8086 1.2379 97.7301 1.3638C97.7114 1.39341 97.6861 1.41764 97.6749 1.41764C97.6534 1.41764 97.645 1.46897 97.6656 1.48112C97.6712 1.48492 97.7441 1.4957 97.8254 1.50505C98.0358 1.52908 98.1283 1.51105 98.2134 1.42949C98.248 1.39604 98.2863 1.34691 98.2994 1.32033C98.3125 1.29372 98.3303 1.27196 98.3387 1.27196C98.3667 1.27196 98.3396 1.35462 98.2985 1.39477C98.2536 1.43903 98.1947 1.56148 98.1797 1.63981C98.162 1.73436 98.1826 1.78952 98.2704 1.88199C98.3144 1.92921 98.3508 1.97775 98.3508 1.98984C98.3508 2.02447 98.3994 2.03496 98.4219 2.00517C98.4611 1.95254 98.5294 1.70981 98.5294 1.62339C98.5294 1.53396 98.5163 1.5086 98.4219 1.40883C98.3882 1.37331 98.3817 1.35532 98.3892 1.32506C98.3948 1.30386 98.4041 1.28653 98.4097 1.28653C98.4163 1.28653 98.4537 1.31916 98.4939 1.35905C98.5537 1.41861 98.6238 1.52136 98.7341 1.70796C98.7416 1.72091 98.7565 1.72495 98.7734 1.71866C98.7977 1.7095 98.7995 1.69251 98.793 1.53759C98.7865 1.35493 98.7706 1.30449 98.6948 1.22262L98.6556 1.18057L98.7079 1.18839C98.7846 1.19998 98.9323 1.29058 99.008 1.37298C99.1193 1.49448 99.1211 1.5175 99.0622 1.96193C99.0164 2.30602 99.0118 2.37714 99.0118 2.69965C99.0118 3.09289 99.0258 3.20378 99.109 3.44903C99.1501 3.56873 99.152 3.5848 99.1361 3.64788C99.1109 3.74286 99.1324 3.78302 99.2539 3.87241C99.3287 3.9279 99.3614 3.96314 99.3885 4.02039C99.4287 4.10652 99.4652 4.1283 99.5493 4.11723C99.6016 4.11037 99.6362 4.12237 99.8223 4.21245C100.147 4.36955 100.589 4.5148 101.053 4.61641C101.154 4.63863 101.245 4.66389 101.254 4.67253C101.264 4.68117 101.369 4.92096 101.489 5.20541C101.787 5.91298 101.811 5.96854 101.823 5.98202C101.828 5.9885 101.855 5.96228 101.881 5.92374C101.96 5.80372 101.979 5.78814 102.038 5.78814C102.067 5.78814 102.112 5.7777 102.137 5.76492C102.181 5.74264 102.219 5.74304 102.315 5.76688C102.347 5.77463 102.367 5.76808 102.404 5.73733C102.453 5.69667 102.459 5.6962 102.591 5.72362C102.639 5.73344 102.64 5.73239 102.631 5.69552C102.621 5.65722 102.621 5.65722 102.671 5.67703C102.698 5.68794 102.739 5.70116 102.761 5.70641C102.803 5.71587 102.803 5.71536 102.793 5.65827L102.784 5.60056L102.878 5.62802C103.015 5.66779 103.06 5.67008 103.066 5.63771C103.069 5.62309 103.06 5.60145 103.045 5.58962C103.018 5.56911 103.018 5.56849 103.048 5.57648C103.099 5.59 103.133 5.57027 103.124 5.53115C103.119 5.4993 103.122 5.49677 103.182 5.49677C103.254 5.49677 103.37 5.45713 103.358 5.43696C103.353 5.42979 103.337 5.42394 103.323 5.42394C103.151 5.42394 102.833 5.18834 102.309 4.6707L102.03 4.39627L101.993 4.26056C101.937 4.05307 101.837 3.81529 101.671 3.49764C101.589 3.33881 101.525 3.20707 101.527 3.20487C101.531 3.20265 101.584 3.17695 101.645 3.1477C101.715 3.11427 101.793 3.06145 101.853 3.0054C101.911 2.95174 101.986 2.89945 102.043 2.87399C102.162 2.82028 102.31 2.72177 102.424 2.62077C102.511 2.54337 102.512 2.5413 102.486 2.51252C102.459 2.48345 102.458 2.48343 102.412 2.51124C102.375 2.53297 102.337 2.5393 102.242 2.53935C102.116 2.5394 101.915 2.50068 101.937 2.48093C101.943 2.475 101.985 2.45874 102.03 2.44481C102.141 2.41053 102.318 2.32321 102.433 2.24673C102.528 2.18373 102.788 1.94854 102.788 1.92598C102.788 1.91938 102.774 1.90661 102.756 1.89761C102.73 1.8839 102.718 1.88712 102.686 1.91734C102.625 1.9728 102.385 2.07576 102.363 2.05505C102.359 2.05145 102.395 2.02515 102.443 1.99663C102.666 1.86109 102.904 1.62425 103.045 1.3955C103.075 1.34726 103.099 1.30326 103.099 1.29768C103.099 1.2921 103.085 1.28033 103.068 1.27152C103.043 1.25796 103.03 1.26297 102.983 1.30408C102.93 1.35121 102.658 1.49898 102.645 1.4872C102.643 1.48397 102.686 1.44078 102.742 1.3912C102.932 1.22499 103.116 0.971546 103.216 0.739881C103.255 0.648668 103.327 0.412136 103.318 0.404459C103.316 0.402827 103.3 0.397131 103.282 0.391829C103.254 0.38351 103.245 0.392848 103.214 0.459207C103.09 0.720329 102.722 0.955654 102.122 1.15661C102.004 1.19601 101.902 1.22825 101.896 1.22825C101.889 1.22825 101.903 1.18729 101.926 1.1372C101.963 1.05611 101.994 0.951017 102.023 0.810551C102.031 0.770052 102.028 0.763743 101.999 0.759562C101.973 0.756094 101.943 0.774801 101.888 0.827625C101.847 0.867689 101.79 0.913258 101.762 0.92889L101.712 0.957308L101.738 0.921606C101.852 0.763 101.995 0.524152 102.106 0.306108C102.179 0.163499 102.239 0.0380655 102.239 0.0273723C102.239 0.0166646 102.226 0.00474775 102.211 0.000858007C102.191 -0.00419721 102.17 0.0127312 102.133 0.0610835ZM98.3359 1.18377L98.3733 1.19467L98.334 1.21315C98.3003 1.22888 98.2816 1.22722 98.2078 1.20196L98.1208 1.17229L98.2106 1.17258C98.2592 1.17275 98.3162 1.17779 98.3359 1.18377Z" fill="white" stroke="white" stroke-width="0.186969"/>
</g>
<path d="M31.4175 16.4631C32.9922 22.58 32.0735 29.8494 31.4175 32.7196H26.5164L26.5501 11.8258C26.5389 10.7975 27.0586 8.56323 29.2274 7.85275H37.4433C35.5471 14.5206 36.6532 21.7442 37.4433 24.5225H38.528C36.4069 17.9648 37.6442 10.677 38.528 7.85275H43.3487C46.4989 15.8031 44.9045 26.4387 43.3487 32.7196H32.4619C34.3581 25.9966 33.252 19.0807 32.4619 16.4631H31.4175Z" fill="white"/>
<path d="M119.814 17.6686C119.278 19.5002 118.661 20.889 118.01 21.9275M118.01 21.9275C117.907 22.2824 117.764 23.057 118.01 23.3163C118.256 23.5756 118.112 24.4705 118.01 24.7174M118.01 21.9275C117.272 23.1046 116.49 23.8315 115.731 24.2427M115.731 24.2427C114.261 25.0381 112.876 24.6515 112.055 24.057C112.483 24.6342 113.131 25.2611 113.916 25.6645M115.731 24.2427C115.458 24.4123 114.905 24.8532 114.868 25.2606M119.814 22.8534C118.733 24.7057 117.607 25.6187 116.547 25.9463M116.547 25.9463C115.591 26.2419 114.687 26.0613 113.916 25.6645M116.547 25.9463C117.425 25.5172 119.188 23.9829 119.224 21.2794M113.916 25.6645C114.533 25.8395 114.808 25.4682 114.868 25.2606M114.868 25.2606C115.005 25.4921 115.195 26.0383 114.868 26.3716C114.733 26.5414 114.542 26.9642 114.868 27.2975" stroke="white" stroke-width="0.280453"/>
<path d="M97.6061 26.2808C93.0811 26.7307 89.4727 24.4817 88.1698 22.7635C87.5603 22.8415 86.4071 23.2363 86.9545 24.7734C86.3993 25.0546 85.397 25.8359 86.3001 27.1105C86.216 29.2046 86.7766 30.1295 87.5621 30.7564C88.7443 31.8698 90.545 31.5709 92.3638 31.6445C94.2805 31.722 97.7249 31.8289 98.9205 31.6445C102.894 31.3446 102.887 28.5173 102.473 26.7366C101.277 25.0964 98.7709 26.0934 97.6061 26.2808Z" fill="#63262D"/>
<path d="M86.9545 24.7734C86.4071 23.2363 87.5603 22.8415 88.1698 22.7635C89.4727 24.4817 93.0811 26.7307 97.6061 26.2808C98.7709 26.0934 101.277 25.0964 102.473 26.7366C102.887 28.5173 102.894 31.3446 98.9205 31.6445C97.7249 31.8289 94.2805 31.722 92.3638 31.6445C90.545 31.5709 88.7443 31.8698 87.5621 30.7564C86.7766 30.1295 86.216 29.2046 86.3001 27.1105M86.9545 24.7734C86.3993 25.0546 85.397 25.8359 86.3001 27.1105M86.9545 24.7734C87.7101 25.6002 89.2918 26.443 90.9743 27.3442M86.3001 27.1105C87.3139 28.3973 89.589 29.4528 92.3638 29.8919" stroke="white" stroke-width="0.467422"/>
<path d="M58.9089 14.9796C59.2428 13.4655 60.4859 13.2447 61.0657 13.3236C61.4267 13.4608 61.7121 13.6096 61.9354 13.764C62.6312 12.494 63.3849 12.806 63.6748 13.1208C63.7584 12.8233 63.5241 12.6589 63.3965 12.6138C66.8475 9.09886 68.8699 11.3528 69.4497 12.9191C70.427 12.5846 71.4106 13.1111 71.8501 13.4926C73.3251 14.7633 72.743 16.7484 72.2675 17.582C69.9576 19.6639 68.3132 18.3594 67.7799 17.4469C65.9151 19.5828 63.9183 18.4882 63.153 17.6738C62.3525 18.2778 61.1578 17.9952 60.6135 17.751C58.8879 17.0751 58.7581 15.6218 58.9089 14.9796Z" fill="#63262D"/>
<path d="M60.8918 15.7232C61.1469 16.0724 61.8101 16.5275 62.4225 15.5542C62.705 15.1974 62.9003 14.4305 61.9354 13.764M61.9354 13.764C61.7121 13.6096 61.4267 13.4608 61.0657 13.3236C60.4859 13.2447 59.2428 13.4655 58.9089 14.9796C58.7581 15.6218 58.8879 17.0751 60.6135 17.751C61.1578 17.9952 62.3525 18.2778 63.153 17.6738M61.9354 13.764C62.6312 12.494 63.3849 12.806 63.6748 13.1208C63.7584 12.8233 63.5241 12.6589 63.3965 12.6138C66.8475 9.09886 68.8699 11.3528 69.4497 12.9191M63.153 17.6738C63.2391 17.6089 63.3208 17.5335 63.3965 17.4469L63.153 17.6738ZM63.153 17.6738C63.9183 18.4882 65.9151 19.5828 67.7799 17.4469M67.7799 17.4469L68.5451 16.1625C68.8815 15.7232 69.7071 15.0608 70.3194 15.926C70.5165 16.3879 70.5698 17.2711 69.2062 17.1088M67.7799 17.4469C68.3132 18.3594 69.9576 19.6639 72.2675 17.582C72.743 16.7484 73.3251 14.7633 71.8501 13.4926C71.4106 13.1111 70.427 12.5846 69.4497 12.9191M69.4497 12.9191C69.2149 12.9995 68.9804 13.1298 68.7539 13.3236L69.4497 12.9191Z" stroke="white" stroke-width="0.467422"/>
<path d="M46.7557 28.4659C46.4751 29.4475 46.1781 31.1965 47.3632 31.9716" stroke="#63262D" stroke-width="0.467422"/>
<path d="M62.8823 28.545C63.116 29.6201 63.4369 31.7706 61.7605 32.1061" stroke="#63262D" stroke-width="0.467422"/>
<path d="M79.71 25.6148C80.7719 25.4846 82.7278 26.3373 82.6546 28.0453" stroke="#63262D" stroke-width="0.467422"/>
<path d="M66.9021 30.1488C67.463 31.3172 67.0424 32.0651 69.7066 32.0652" stroke="#63262D" stroke-width="0.467422"/>
<path d="M114.05 19.7251C113.956 19.99 113.825 20.5665 114.05 20.7535C114.274 20.9404 114.143 21.3922 114.05 21.5948C113.987 21.8129 113.966 22.2586 114.377 22.2959C114.485 22.4829 114.639 22.941 114.377 23.2775" stroke="white" stroke-width="0.280453"/>
<path d="M27.5916 11.4986C27.6072 10.6884 28.0122 9.03995 29.508 8.92776" stroke="#63262D" stroke-width="0.467422"/>
<path d="M18.244 19.1667H15.2058V15.7989V13.8381C15.1684 12.5667 16.2808 12.3112 16.8417 12.3424C17.8888 12.3424 18.2129 13.3396 18.244 13.8381V19.1667Z" fill="#63262D" stroke="white" stroke-width="0.467422"/>
<path d="M1.33932 29.2929C0.663965 27.3836 2.32422 26.9726 3.23876 27.0057C2.98548 25.8124 4.01371 25.8456 4.5595 26.0113C4.83262 24.6108 6.06671 24.2915 6.72109 24.3208C8.15622 24.1618 8.9371 25.3153 9.14815 25.9119C10.0768 25.2755 10.6606 25.8125 10.8366 26.2103L10.942 26.4733C11.4103 26.2722 11.9231 26.2102 12.2084 26.2103C14.3189 26.2103 14.5651 27.8677 14.4243 28.6963C13.4957 31.242 11.0124 30.5525 9.88682 29.8896C8.19843 31.7193 5.5955 30.5194 4.50508 29.6907C2.73227 30.4863 1.6559 29.757 1.33932 29.2929Z" fill="#63262D"/>
<path d="M4.50508 29.6907C2.73227 30.4863 1.6559 29.757 1.33932 29.2929C0.663965 27.3836 2.32422 26.9726 3.23876 27.0057C2.98548 25.8124 4.01371 25.8456 4.5595 26.0113M4.50508 29.6907C4.39955 29.5913 4.1674 29.3128 4.08298 28.9946M4.50508 29.6907C5.5955 30.5194 8.19843 31.7193 9.88682 29.8896C11.0124 30.5525 13.4957 31.242 14.4243 28.6963C14.5651 27.8677 14.3189 26.2103 12.2084 26.2103C11.9231 26.2102 11.4103 26.2722 10.942 26.4733M4.5595 26.0113C4.83263 24.6108 6.06671 24.2915 6.72109 24.3208C8.15622 24.1618 8.9371 25.3153 9.14815 25.9119M4.5595 26.0113C4.52432 26.1918 4.50508 26.3901 4.50508 26.6081M10.942 26.4733C10.6599 26.5946 10.3938 26.7664 10.2034 27.0057M10.942 26.4733L10.8366 26.2103C10.6606 25.8125 10.0768 25.2755 9.14815 25.9119M9.14815 25.9119C9.25367 26.2103 9.3592 26.4091 9.3592 26.6081" stroke="white" stroke-width="0.467422"/>
<path d="M105.605 11.243V7.66571H106.589V9.45201H107.71V7.66571H108.776V9.45201H109.869V7.66571H110.994V9.45201H112.036V7.66571H113.177V11.243H112.221V12.2525C113.177 12.9476 113.177 13.5742 113.177 14.3176V32.7195H105.605V14.3176C105.605 13.1061 105.605 12.7606 106.414 12.2525V11.243H105.605Z" fill="white"/>
<path d="M118.786 11.243V7.66571H119.771V9.45201H120.891V7.66571H121.957V9.45201H123.051V7.66571H124.176V9.45201H125.217V7.66571H126.358V11.243H125.402V12.2525C126.358 12.9476 126.358 13.5742 126.358 14.3176V32.7195H118.786V14.3176C118.786 13.1061 118.786 12.7606 119.596 12.2525V11.243H118.786Z" fill="white"/>
<path fill-rule="evenodd" clip-rule="evenodd" d="M146.466 9.49793C146.42 9.5801 146.35 9.67565 146.313 9.71023C146.246 9.7724 146.246 9.7738 146.314 9.86C146.381 9.94525 146.38 9.95058 146.248 10.1322C146.173 10.234 146.069 10.3309 146.017 10.3473C145.965 10.3638 145.905 10.427 145.885 10.4878C145.848 10.5975 145.854 10.5985 146.558 10.5985H147.269L147.218 10.4762C147.189 10.409 147.129 10.3417 147.084 10.3268C146.98 10.2919 146.779 10.0552 146.779 9.96601C146.779 9.92824 146.806 9.87028 146.839 9.83719C146.891 9.78586 146.892 9.77212 146.848 9.74417C146.819 9.72622 146.744 9.62974 146.68 9.5299C146.618 9.43016 146.563 9.34845 146.56 9.34845C146.556 9.34845 146.514 9.41576 146.466 9.49793ZM145.647 10.8363C145.586 10.9373 145.475 11.0658 145.4 11.1218C145.256 11.231 145.22 11.3595 145.334 11.3595C145.42 11.3595 145.575 11.5121 145.575 11.5972C145.575 11.6314 145.602 11.6865 145.635 11.7198C145.671 11.7542 145.701 11.8583 145.705 11.9622C145.71 12.0624 145.737 12.3163 145.766 12.5265C145.794 12.7365 145.849 13.1759 145.887 13.5028C145.949 14.0345 145.95 14.102 145.903 14.1441C145.874 14.17 145.849 14.2266 145.849 14.2699C145.849 14.3362 145.962 14.3487 146.553 14.3487C146.951 14.3487 147.265 14.3268 147.276 14.2982C147.287 14.2703 147.267 14.2149 147.23 14.1749C147.167 14.1042 147.168 14.0726 147.304 12.9347C147.413 12.0264 147.458 11.7512 147.508 11.6955C147.542 11.656 147.563 11.6029 147.554 11.5774C147.534 11.5281 147.723 11.3595 147.798 11.3595C147.903 11.3595 147.869 11.2495 147.728 11.1378C147.642 11.0712 147.524 10.9348 147.462 10.8348L147.351 10.6528H146.555H145.76L145.647 10.8363ZM145.985 12.2698C146.038 12.8703 146.121 13.6849 146.144 13.8505C146.158 13.9491 146.149 13.9731 146.103 13.959C146.055 13.9446 146.031 13.8194 145.982 13.3431C145.949 13.0144 145.9 12.5314 145.874 12.2698C145.828 11.8284 145.829 11.7943 145.883 11.7943C145.931 11.7943 145.95 11.8848 145.985 12.2698ZM146.985 11.8204C146.985 11.9239 146.842 13.8467 146.83 13.9004C146.82 13.9465 146.734 13.9684 146.559 13.9684H146.303L146.283 13.7645C146.272 13.6525 146.239 13.2427 146.211 12.8541C146.182 12.4655 146.152 12.068 146.144 11.9709L146.129 11.7943H146.557C146.793 11.7943 146.985 11.806 146.985 11.8204ZM147.281 11.9438C147.27 12.0259 147.239 12.3256 147.211 12.6096C147.095 13.8286 147.076 13.9684 147.031 13.9684C147.006 13.9684 146.985 13.9482 146.985 13.9236C146.985 13.8169 147.132 12.3112 147.179 11.9438C147.189 11.8603 147.22 11.7943 147.249 11.7943C147.287 11.7943 147.296 11.8333 147.281 11.9438ZM143.804 13.7475C143.717 13.8996 143.766 13.9684 143.959 13.9684C144.144 13.9684 144.179 13.8929 144.067 13.7321C143.983 13.6124 143.878 13.6184 143.804 13.7475ZM143.739 14.0585C143.727 14.0781 143.736 14.131 143.759 14.176C143.783 14.2209 143.802 14.3087 143.802 14.3712C143.802 14.4659 143.826 14.4875 143.949 14.5013C144.09 14.5176 144.095 14.513 144.095 14.3564C144.095 14.2675 144.113 14.1851 144.135 14.1735C144.157 14.1618 144.164 14.123 144.151 14.0874C144.124 14.0196 143.78 13.9954 143.739 14.0585ZM146.045 14.4394C146.002 14.5076 146.021 14.5662 146.089 14.5662C146.138 14.5662 146.158 14.6102 146.166 14.7416C146.173 14.8556 146.203 14.9372 146.25 14.9747C146.379 15.0756 146.435 15.1737 146.435 15.3015C146.435 15.3983 146.42 15.4194 146.366 15.3976C146.255 15.3514 145.951 15.557 145.789 15.7891C145.698 15.9189 145.564 16.2146 145.456 16.5228C145.24 17.1403 145.095 17.3335 144.848 17.3363C144.721 17.3377 144.671 17.309 144.599 17.1949C144.548 17.1161 144.508 17.0182 144.508 16.9774C144.508 16.9271 144.463 16.9033 144.37 16.9033C144.186 16.9033 144.193 16.8053 144.379 16.7841C144.51 16.7691 144.526 16.7517 144.536 16.618C144.542 16.5236 144.53 16.4666 144.501 16.4635C144.476 16.4607 144.41 16.4547 144.353 16.4499C144.282 16.444 144.239 16.4031 144.215 16.317C144.184 16.2021 144.163 16.1938 143.94 16.2082L143.699 16.2239L143.689 16.781C143.676 17.5108 143.685 17.5331 143.968 17.5104L144.191 17.4923L144.214 17.2432L144.239 16.994L144.299 17.2091C144.428 17.6601 144.75 17.9015 145.049 17.7693C145.305 17.6562 145.487 17.3506 145.682 16.7038C145.861 16.1132 146 15.8705 146.227 15.755C146.294 15.7212 146.368 15.6691 146.392 15.6395C146.422 15.6011 146.435 15.61 146.435 15.6705C146.435 15.7879 146.492 15.8326 146.592 15.7932C146.667 15.763 146.676 15.7321 146.676 15.4686C146.676 15.1695 146.702 15.098 146.86 14.9747C146.908 14.9372 146.938 14.8556 146.944 14.7416C146.953 14.6102 146.972 14.5662 147.022 14.5662C147.058 14.5662 147.089 14.5295 147.089 14.4847C147.089 14.4159 147.009 14.4032 146.579 14.4032C146.297 14.4032 146.057 14.4194 146.045 14.4394ZM143.716 14.6749C143.623 14.8232 143.62 15.2707 143.712 15.4025C143.871 15.6302 144.208 15.5303 144.254 15.2417C144.285 15.0404 144.243 14.7129 144.175 14.6342C144.079 14.5231 143.796 14.5481 143.716 14.6749ZM146.733 15.4181C146.681 15.4995 146.716 15.6529 146.81 15.7591C147.061 16.041 146.992 16.6787 146.71 16.6841C146.632 16.6856 146.635 16.6771 146.744 16.5907C146.844 16.5124 146.867 16.4617 146.875 16.3027C146.895 15.9252 146.606 15.7628 146.443 16.0606C146.246 16.423 146.469 16.9657 146.776 16.8689C147.002 16.7974 147.155 16.3718 147.091 15.9938C147.05 15.7497 146.788 15.3302 146.733 15.4181ZM143.8 15.6984C143.812 15.7574 143.793 15.8488 143.752 15.9228C143.714 15.9915 143.692 16.069 143.702 16.095C143.712 16.1211 143.827 16.1423 143.959 16.1423C144.207 16.1423 144.263 16.0773 144.146 15.925C144.118 15.8878 144.095 15.7992 144.095 15.7281C144.095 15.6109 144.08 15.5988 143.938 15.5988C143.801 15.5988 143.783 15.6118 143.8 15.6984ZM144.547 15.6911C144.41 15.7978 144.249 16.155 144.281 16.2835C144.297 16.3499 144.328 16.3647 144.403 16.3411C144.485 16.3153 144.525 16.3404 144.607 16.4704C144.731 16.6671 144.901 16.6862 145.036 16.5189C145.112 16.4249 145.127 16.3626 145.127 16.1433C145.127 15.9163 145.113 15.861 145.021 15.7396C144.896 15.5736 144.721 15.5556 144.547 15.6911ZM143.715 17.7155C143.735 17.7736 143.765 17.8348 143.782 17.8514C143.799 17.8681 143.805 17.9306 143.795 17.9903C143.779 18.0874 143.794 18.0991 143.936 18.0991C144.08 18.0991 144.095 18.0872 144.095 17.9698C144.095 17.8987 144.118 17.8102 144.146 17.7729C144.243 17.6457 144.198 17.6099 143.939 17.6099C143.693 17.6099 143.682 17.6153 143.715 17.7155ZM143.835 18.2213C143.826 18.2587 143.823 19.7078 143.827 21.4416L143.837 24.594H143.957H144.078L144.086 21.4179C144.094 18.9131 144.086 18.2326 144.052 18.1984C143.985 18.1316 143.854 18.1455 143.835 18.2213ZM143.797 24.7964C143.811 24.8771 143.793 24.9582 143.743 25.0409L143.669 25.1647H143.957H144.244L144.169 25.039C144.128 24.9698 144.095 24.8597 144.095 24.7943C144.095 24.6893 144.076 24.6755 143.936 24.6755C143.789 24.6755 143.779 24.6844 143.797 24.7964ZM143.702 25.3385C143.684 25.4756 143.612 28.7032 143.612 29.3362L143.613 29.7302H143.962H144.312L144.285 28.7383C144.271 28.1928 144.249 27.2078 144.236 26.5495C144.223 25.8912 144.201 25.3264 144.189 25.2945C144.176 25.2625 144.066 25.2312 143.942 25.2249C143.734 25.2142 143.717 25.2219 143.702 25.3385ZM143.534 29.8192C143.521 29.84 143.509 29.8896 143.509 29.9295C143.509 29.9863 143.608 30.002 143.959 30.002C144.37 30.002 144.409 29.9935 144.398 29.9069C144.388 29.8236 144.335 29.8099 143.972 29.7966C143.744 29.7883 143.547 29.7984 143.534 29.8192ZM143.441 30.1107C143.441 30.1445 143.637 30.165 143.959 30.165C144.296 30.165 144.47 30.146 144.456 30.1107C144.443 30.0785 144.232 30.0564 143.938 30.0564C143.629 30.0564 143.441 30.0769 143.441 30.1107ZM143.395 30.2544C143.382 30.275 143.372 30.3245 143.372 30.3643C143.372 30.4219 143.493 30.4368 143.959 30.4368C144.5 30.4368 144.546 30.4293 144.536 30.3417C144.526 30.2565 144.466 30.245 143.972 30.2317C143.668 30.2235 143.409 30.2337 143.395 30.2544ZM143.428 30.8309C143.418 31.0177 143.401 31.5191 143.392 31.945L143.373 32.7196H143.945H144.516L144.501 31.6709C144.493 31.0943 144.474 30.5929 144.46 30.5568C144.442 30.5104 144.289 30.4912 143.94 30.4912H143.446L143.428 30.8309Z" fill="white"/>
<path d="M9.96948 10.6573C10.1097 10.1275 10.6706 9.06802 11.7924 9.06802" stroke="#63262D" stroke-width="0.467422"/>
<path d="M129.35 10.6573C129.49 10.1275 130.051 9.06802 131.173 9.06802" stroke="#63262D" stroke-width="0.467422"/>
<path d="M23.479 10.6573C23.3387 10.1275 22.7778 9.06802 21.656 9.06802" stroke="#63262D" stroke-width="0.467422"/>
<path d="M142.391 10.5638C142.25 10.034 141.689 8.97455 140.568 8.97455" stroke="#63262D" stroke-width="0.467422"/>
<path d="M43.8271 15.6975C44.3093 17.4062 44.3877 18.0298 44.0923 19.2578" stroke="#63262D" stroke-width="0.467422"/>
<path d="M81.4345 12.0213C81.0921 9.90267 79.097 8.46278 76.9784 8.8052C74.8598 9.14763 73.4199 11.1427 73.7623 13.2613C74.1047 15.3799 76.0998 16.8198 78.2184 16.4774C80.337 16.1349 81.7769 14.1399 81.4345 12.0213Z" fill="#63262D"/>
<path d="M75.6156 8.49239C77.7342 8.14997 79.1424 8.49561 79.4848 10.6142C79.8272 12.7329 78.3874 14.7279 76.2688 15.0703C74.1501 15.4128 73.8568 14.3539 73.5143 12.2352C73.1719 10.1167 73.497 8.83481 75.6156 8.49239Z" fill="white"/>
<path d="M8.25518 16.1116C8.18866 16.2313 8.09606 16.2853 8.00702 16.3796C7.9497 16.4403 8.00351 16.5553 7.9425 16.6277C7.79675 16.8009 7.74624 17.0262 7.98716 17.0595C8.21097 17.0906 8.37269 17.1837 8.60261 17.1837C8.81809 17.1837 9.01939 17.2283 9.2379 17.2283C9.41658 17.2283 9.59525 17.2283 9.77393 17.2283C9.981 17.2283 10.3232 17.2213 10.5085 17.139C10.7137 17.0477 10.9915 17.0792 11.2133 17.0397C11.4816 16.992 11.7304 16.871 11.9975 16.871C12.1679 16.871 12.3694 16.742 12.5434 16.7022C12.7495 16.6551 13.0036 16.6922 13.2134 16.6922C13.8124 16.6922 14.4112 16.6922 15.0102 16.6922C15.247 16.6922 15.3571 16.4848 15.571 16.4689C15.6773 16.461 15.9682 16.339 16.0177 16.2456C16.1918 15.9166 15.8198 15.7989 15.5809 15.7989" stroke="#63262D" stroke-width="0.560907" stroke-linecap="round"/>
<path d="M8.25518 16.2051C8.18866 16.3248 8.09606 16.3788 8.00702 16.4731C7.9497 16.5338 8.00351 16.6487 7.9425 16.7212C7.79675 16.8943 7.74624 17.1196 7.98716 17.153C8.21097 17.184 8.37269 17.2771 8.60261 17.2771C8.81809 17.2771 9.01939 17.3217 9.2379 17.3217C9.41658 17.3217 9.59525 17.3217 9.77393 17.3217C9.981 17.3217 10.3232 17.3147 10.5085 17.2325C10.7137 17.1412 10.9915 17.1726 11.2133 17.1332C11.4816 17.0855 11.7304 16.9644 11.9975 16.9644C12.1679 16.9644 12.3694 16.8354 12.5434 16.7957C12.7495 16.7486 13.0036 16.7857 13.2134 16.7857C13.8124 16.7857 14.4112 16.7857 15.0102 16.7857C15.247 16.7857 15.3571 16.5783 15.571 16.5624C15.6773 16.5545 15.9682 16.4325 16.0177 16.339C16.1918 16.0101 15.8198 15.8924 15.5809 15.8924" stroke="white" stroke-width="0.373938" stroke-linecap="round"/>
<path d="M8.24023 16.5V15.7054L15.4385 15.3782V16.1728H12.3068L8.24023 16.5Z" fill="white"/>
<path d="M8.26143 13.7002C8.17458 13.8061 8.07381 13.8427 7.96935 13.9195C7.90211 13.969 7.9345 14.0918 7.86151 14.1522C7.68718 14.2964 7.5972 14.5091 7.82828 14.5851C8.04294 14.6555 8.18541 14.776 8.41163 14.8171C8.62364 14.8556 8.8137 14.9355 9.0287 14.9746C9.2045 15.0066 9.3803 15.0385 9.5561 15.0704C9.75982 15.1074 10.0978 15.1618 10.2948 15.1138C10.5131 15.0608 10.7807 15.1413 11.0059 15.1421C11.2785 15.1432 11.545 15.0686 11.8077 15.1163C11.9754 15.1468 12.1967 15.0559 12.375 15.0479C12.5863 15.0384 12.8296 15.1203 13.036 15.1578C13.6253 15.265 14.2146 15.372 14.8038 15.479C15.0369 15.5214 15.1822 15.3369 15.3955 15.3596C15.5015 15.3708 15.8095 15.3027 15.875 15.2196C16.1051 14.9271 15.7601 14.7448 15.5251 14.7021" stroke="#63262D" stroke-width="0.560907" stroke-linecap="round"/>
<path d="M8.26143 13.7938C8.17458 13.8997 8.07381 13.9363 7.96935 14.0131C7.90211 14.0626 7.9345 14.1854 7.86151 14.2458C7.68718 14.3899 7.5972 14.6027 7.82828 14.6786C8.04294 14.7491 8.18541 14.8696 8.41163 14.9107C8.62364 14.9492 8.8137 15.0291 9.0287 15.0682C9.2045 15.1001 9.3803 15.132 9.5561 15.164C9.75982 15.201 10.0978 15.2553 10.2948 15.2074C10.5131 15.1544 10.7807 15.2349 11.0059 15.2357C11.2785 15.2367 11.545 15.1621 11.8077 15.2099C11.9754 15.2404 12.1967 15.1495 12.375 15.1415C12.5863 15.1319 12.8296 15.2139 13.036 15.2514C13.6253 15.3585 14.2146 15.4656 14.8038 15.5726C15.0369 15.615 15.1822 15.4304 15.3955 15.4531C15.5015 15.4644 15.8095 15.3963 15.875 15.3132C16.1051 15.0207 15.7601 14.8384 15.5251 14.7957" stroke="white" stroke-width="0.373938" stroke-linecap="round"/>
<path d="M8.24023 14.2123V13.2749L15.4385 14.311V15.0043L8.24023 14.2123Z" fill="white"/>
<path d="M43.2075 5.0783L43.2077 5.07749C43.2069 5.08165 43.2063 5.08235 43.2075 5.0783ZM43.2249 4.96016C43.2246 4.95202 43.2236 4.94308 43.2218 4.93385C43.2194 4.92198 43.2131 4.89621 43.1933 4.87061C43.169 4.83929 43.1288 4.81439 43.0789 4.81439C43.0511 4.81439 43.0299 4.82295 43.0253 4.82487L43.0249 4.82501C43.017 4.82821 43.0108 4.83153 43.0072 4.83346C43 4.83748 42.9937 4.84169 42.9894 4.8446C42.9802 4.85079 42.9699 4.85847 42.9595 4.86643C42.9382 4.88271 42.9101 4.90535 42.8775 4.93211C42.812 4.98572 42.7251 5.05896 42.6318 5.13865C42.5357 5.21787 42.445 5.30015 42.376 5.36847C42.3416 5.4026 42.3111 5.43462 42.2878 5.46194C42.2781 5.47322 42.2687 5.48486 42.2603 5.49635C42.2233 5.49521 42.1847 5.50536 42.1502 5.53124C42.1046 5.56546 42.0841 5.61387 42.0782 5.65796C42.0778 5.65869 42.0774 5.65948 42.077 5.66033C42.0714 5.67067 42.0625 5.6854 42.0498 5.70375C42.0245 5.74016 41.9893 5.7841 41.95 5.82597C41.8793 5.89979 41.8251 5.97175 41.7873 6.07153C41.7515 6.16643 41.7338 6.2785 41.7198 6.42621V6.42698L41.7198 6.42774C41.7112 6.53056 41.7069 6.6393 41.7076 6.73327C41.7083 6.82031 41.7131 6.91165 41.7297 6.97095C41.7373 7.00063 41.7454 7.03078 41.754 7.05452C41.7583 7.06652 41.7651 7.08347 41.7755 7.10029C41.7845 7.11507 41.8069 7.14722 41.8496 7.16523C41.9009 7.18686 41.949 7.17539 41.9798 7.15922C42.0058 7.1456 42.0233 7.12723 42.0321 7.11746C42.0373 7.11157 42.0426 7.10512 42.0477 7.0984C42.057 7.10767 42.0672 7.11815 42.0786 7.12997C42.0541 7.14578 42.0307 7.16859 42.0141 7.20157C41.9828 7.2643 41.9919 7.32766 42.0128 7.37347C42.0329 7.41744 42.0659 7.45144 42.1002 7.47435L42.1043 7.47703L42.1085 7.47944C42.1528 7.5048 42.2089 7.5156 42.2503 7.52088C42.2968 7.52681 42.3487 7.52852 42.3969 7.52508L42.4017 7.52473L42.4067 7.52403C42.4199 7.52215 42.4464 7.52347 42.4811 7.53255C42.5128 7.54085 42.5397 7.5526 42.5557 7.56211C42.6017 7.5954 42.6589 7.62892 42.7276 7.63489C42.795 7.64076 42.8516 7.61873 42.8978 7.59008C42.9047 7.59567 42.9134 7.60339 42.9244 7.61402C42.9483 7.63718 42.9781 7.66928 43.0168 7.71337C43.0436 7.74486 43.0643 7.77086 43.0801 7.79194C43.0374 7.84378 43.021 7.91375 43.0275 7.97258L43.0283 7.98011L43.0299 7.98751C43.042 8.04181 43.0774 8.08 43.0987 8.10017C43.1238 8.12416 43.1541 8.14588 43.185 8.16502C43.2472 8.20349 43.3263 8.24035 43.41 8.27033C43.5574 8.32502 43.7386 8.40358 43.8088 8.44577L43.8104 8.44678L43.8121 8.44774C43.8608 8.47518 43.9133 8.5002 43.9615 8.51631C43.9848 8.52406 44.0111 8.53112 44.0379 8.53428C44.0713 8.60877 44.1402 8.6512 44.2018 8.67775C44.2756 8.70957 44.3775 8.73515 44.5076 8.76012C44.7073 8.80003 45.0184 8.83422 45.1993 8.83422C45.3181 8.83422 45.4137 8.82906 45.4855 8.81177C45.5313 8.80075 45.5809 8.78124 45.6203 8.74513C45.6604 8.7671 45.708 8.782 45.7653 8.77741C45.8345 8.77187 45.8991 8.73805 45.9555 8.70573L45.9564 8.7053L45.9571 8.70485C46.012 8.67254 46.1394 8.64719 46.3738 8.6581L46.3751 8.65815L46.3763 8.65819C46.4767 8.66106 46.5729 8.65833 46.6487 8.64981C46.6859 8.64563 46.7231 8.63952 46.7551 8.63015C46.7709 8.62551 46.7903 8.61868 46.8092 8.60812C46.8215 8.60129 46.8437 8.58739 46.8628 8.56293C46.8651 8.56227 46.868 8.56161 46.8712 8.56103C46.8776 8.55989 46.8845 8.55927 46.8912 8.55927C46.9501 8.55927 47.0054 8.54094 47.0495 8.51392C47.0731 8.49945 47.0976 8.47996 47.1186 8.45527C47.1197 8.45592 47.1208 8.45657 47.1219 8.45725L47.1228 8.45777L47.1237 8.45827C47.1681 8.4837 47.2159 8.50576 47.2591 8.51811C47.2795 8.52394 47.3082 8.5304 47.339 8.52928C47.3632 8.52839 47.4398 8.51993 47.478 8.4432L47.4806 8.43799L47.4828 8.43257C47.4977 8.39557 47.5022 8.34937 47.5037 8.31433C47.5043 8.29995 47.5045 8.28471 47.5042 8.26888L47.5269 8.32575L47.6568 8.27454C48.0241 8.12969 48.2197 8.01937 48.3342 7.93028L48.3356 7.92909L48.3372 7.92784C48.4282 7.8528 48.5624 7.75077 48.63 7.70393L48.6309 7.70334L48.6317 7.70274C48.6967 7.65623 48.7503 7.578 48.7924 7.50176C48.837 7.42091 48.8785 7.32376 48.9135 7.22168L48.9143 7.2193L48.9151 7.21688C48.9412 7.13025 48.9727 7.04266 49.0022 6.97184C49.0171 6.93638 49.0308 6.90654 49.0427 6.88382C49.0534 6.86325 49.0598 6.854 49.0613 6.85184C49.0616 6.85133 49.0616 6.85121 49.0615 6.85143L49.0633 6.84928L49.0652 6.84706C49.0977 6.80721 49.1282 6.75682 49.1371 6.70021C49.1405 6.67802 49.1411 6.65151 49.1345 6.62366C49.1579 6.61237 49.1814 6.59901 49.2041 6.58395C49.2659 6.54366 49.3321 6.49125 49.3597 6.39688C49.3825 6.31876 49.3722 6.22808 49.3593 6.13505C49.341 5.98932 49.2826 5.78003 49.2293 5.64945L49.2288 5.64838L49.2283 5.64731C49.197 5.57421 49.1465 5.49738 49.0946 5.43188C49.0432 5.3669 48.9829 5.30381 48.9265 5.26114C48.7986 5.16215 48.5724 5.09186 48.3662 5.06319L48.365 5.06302L48.3638 5.06287C48.1772 5.04023 47.7879 5.01247 47.4981 5.00689C47.3577 5.00418 47.2221 4.99743 47.1177 4.98878C47.0653 4.98444 47.0225 4.97976 46.9916 4.97515C46.9761 4.97282 46.9654 4.97079 46.959 4.96929C46.9589 4.96926 46.9588 4.96924 46.9587 4.96922C46.8565 4.92251 46.7245 4.96848 46.6834 5.08526C46.6651 5.12833 46.6623 5.17349 46.6658 5.20914C46.6694 5.24503 46.6826 5.3016 46.726 5.34517C46.7526 5.37167 46.7839 5.38538 46.8019 5.39229C46.8233 5.40049 46.8462 5.4065 46.8679 5.41095C46.9117 5.41989 46.9624 5.42479 47.012 5.42479C47.0653 5.42479 47.1003 5.44597 47.1225 5.48313L47.1242 5.48599L47.1261 5.48877C47.1373 5.50561 47.1546 5.54327 47.1719 5.59667C47.1884 5.64754 47.2017 5.7022 47.2086 5.74634L47.2092 5.74986L47.2099 5.75335C47.2178 5.79083 47.2219 5.8489 47.22 5.91284C47.2181 5.9766 47.2107 6.0353 47.2006 6.07378L47.1992 6.07881L47.1982 6.08392C47.1929 6.11305 47.1877 6.1337 47.1829 6.14819C47.0989 6.13696 46.9405 6.12803 46.8106 6.12334C46.7278 6.11772 46.6513 6.11733 46.5935 6.1232C46.5678 6.12581 46.5351 6.13058 46.5056 6.14176C46.4857 6.08533 46.438 6.06044 46.4209 6.0528C46.3971 6.04223 46.3729 6.03779 46.3571 6.03542C46.3392 6.03272 46.3193 6.03094 46.2986 6.02963C46.2573 6.027 46.2028 6.02559 46.1361 6.02422L46.1346 6.02419H46.1332C46.0619 6.02419 45.9958 6.01903 45.9484 6.01103C45.9346 6.00868 45.9238 6.00636 45.916 6.00434C45.8997 5.98699 45.8798 5.97273 45.8566 5.9629C45.8187 5.9468 45.7813 5.94631 45.7516 5.95095C45.6962 5.95962 45.6468 5.98908 45.6073 6.0209C45.606 6.02175 45.5986 6.02649 45.582 6.03406C45.5645 6.04197 45.542 6.05074 45.5154 6.05959C45.4627 6.07719 45.4002 6.09312 45.3424 6.10287C45.3068 6.10808 45.2796 6.11183 45.2584 6.11423C45.2579 6.10918 45.2573 6.10375 45.2567 6.09789C45.2529 6.03958 45.2409 5.98292 45.2236 5.9365C45.2148 5.91327 45.2029 5.88765 45.1866 5.8646C45.1749 5.84803 45.1406 5.80291 45.0786 5.79046L45.0763 5.79001L45.0741 5.78964C44.9966 5.7767 44.9437 5.82167 44.9211 5.84792C44.8982 5.8746 44.8844 5.90522 44.8757 5.92826C44.8577 5.97664 44.8462 6.03632 44.8401 6.09476V6.09548C44.8321 6.17435 44.8222 6.18924 44.8165 6.19648C44.8061 6.20944 44.7817 6.22893 44.6906 6.27328C44.5593 6.32928 44.5117 6.32518 44.4941 6.31954C44.4454 6.29131 44.3901 6.2798 44.3457 6.27568C44.295 6.27098 44.2393 6.27417 44.1901 6.28759C44.1869 6.28847 44.1831 6.28904 44.179 6.28911C44.176 6.28916 44.1733 6.28894 44.1709 6.28859C44.1421 6.25863 44.1075 6.24355 44.0903 6.23659C44.0618 6.22498 44.0295 6.21634 43.9974 6.20983C43.9325 6.19668 43.8531 6.18916 43.7711 6.18916H43.7695L43.768 6.1892C43.7052 6.19059 43.6654 6.19064 43.6366 6.18808C43.6145 6.18613 43.6066 6.18315 43.6049 6.18241C43.6034 6.18112 43.5994 6.17689 43.5923 6.16607C43.5796 6.1463 43.5649 6.11687 43.5408 6.0661L43.5396 6.06347L43.5383 6.06091C43.4901 5.96876 43.4499 5.78833 43.4499 5.6695C43.4499 5.5728 43.4574 5.52783 43.4673 5.50212C43.474 5.4848 43.4839 5.46946 43.5207 5.44424L43.5262 5.44049L43.5313 5.43623C43.5418 5.42757 43.5755 5.40937 43.6321 5.39337C43.6852 5.37836 43.7423 5.3698 43.7875 5.3698C43.8933 5.3698 44.0788 5.40031 44.1869 5.44263L44.1897 5.44374L44.1926 5.44472C44.2907 5.47832 44.3762 5.50591 44.4488 5.50591C44.492 5.50591 44.5328 5.49673 44.5716 5.47625C44.6071 5.45746 44.6347 5.43229 44.6558 5.41116C44.6853 5.38168 44.7128 5.34689 44.734 5.31226C44.7509 5.28456 44.7792 5.23255 44.7792 5.17458C44.7792 5.14507 44.7747 5.10768 44.7569 5.07205C44.7401 5.03841 44.698 4.98494 44.6234 4.97977C44.6192 4.979 44.6127 4.9777 44.6037 4.97576C44.5849 4.97176 44.5589 4.96582 44.5268 4.95831C44.4631 4.94337 44.3786 4.92294 44.2881 4.90095C44.1838 4.8749 44.0869 4.85819 44.0073 4.85194C43.9677 4.84883 43.9294 4.84807 43.8949 4.85098C43.8658 4.85348 43.8196 4.85993 43.7791 4.88523L43.7786 4.88557C43.7753 4.8867 43.7702 4.88833 43.763 4.89034C43.7423 4.89606 43.7126 4.90258 43.6747 4.90944C43.5998 4.923 43.5023 4.93627 43.4005 4.94702C43.3264 4.95353 43.2692 4.95797 43.2249 4.96016ZM42.9448 4.96668C42.9448 4.96681 42.9448 4.96695 42.9448 4.96709C42.9449 4.96548 42.945 4.96523 42.9448 4.96668ZM42.2124 7.37386C42.2124 7.37386 42.2125 7.37384 42.2128 7.3738C42.2126 7.37385 42.2124 7.37387 42.2124 7.37386ZM42.9182 7.57716C42.9182 7.57716 42.9181 7.57719 42.918 7.57724L42.9182 7.57716ZM43.7831 4.88379C43.7832 4.88379 43.7828 4.88399 43.7818 4.88437C43.7827 4.88396 43.7831 4.88378 43.7831 4.88379ZM44.6278 4.9805C44.6278 4.98051 44.6272 4.98045 44.6261 4.98025C44.6271 4.98038 44.6277 4.98049 44.6278 4.9805ZM46.9543 4.96804C46.9543 4.96803 46.9549 4.96817 46.9558 4.96848C46.9548 4.9682 46.9543 4.96805 46.9543 4.96804ZM44.0224 8.48595C44.0224 8.48595 44.0225 8.48624 44.0227 8.4869C44.0224 8.4863 44.0223 8.48597 44.0224 8.48595ZM43.1368 4.95998C43.1344 4.95961 43.1333 4.95932 43.1334 4.95927C43.1334 4.95922 43.1347 4.95941 43.1368 4.95998Z" fill="white"/>
<path d="M42.0812 5.65164C42.0812 5.65164 42.0811 5.65177 42.081 5.65205M42.0926 7.03442C42.0926 7.03442 42.0925 7.03453 42.0923 7.03473M42.0185 6.96128C42.0185 6.96129 42.0184 6.96115 42.0183 6.96084M47.1419 7.89336C47.1419 7.89335 47.1419 7.89339 47.142 7.89346M46.6261 6.18614C46.6261 6.18614 46.6262 6.18617 46.6264 6.18626M45.1407 6.02102C45.1407 6.02102 45.1406 6.02117 45.1405 6.02144M43.6055 6.1829C43.6055 6.18292 43.6053 6.18281 43.605 6.18249M45.2659 6.16429C45.2659 6.16428 45.2659 6.16419 45.2658 6.16402M45.9015 5.99986C45.9015 5.99986 45.9016 5.99991 45.9019 6M43.2075 5.0783L43.2077 5.07749C43.2069 5.08165 43.2063 5.08235 43.2075 5.0783ZM43.2249 4.96016C43.2246 4.95202 43.2236 4.94308 43.2218 4.93385C43.2194 4.92198 43.2131 4.89621 43.1933 4.87061C43.169 4.83929 43.1288 4.81439 43.0789 4.81439C43.0511 4.81439 43.0299 4.82295 43.0253 4.82487L43.0249 4.82501C43.017 4.82821 43.0108 4.83153 43.0072 4.83346C43 4.83748 42.9937 4.84169 42.9894 4.8446C42.9802 4.85079 42.9699 4.85847 42.9595 4.86643C42.9382 4.88271 42.9101 4.90535 42.8775 4.93211C42.812 4.98572 42.7251 5.05896 42.6318 5.13865C42.5357 5.21787 42.445 5.30015 42.376 5.36847C42.3416 5.4026 42.3111 5.43462 42.2878 5.46194C42.2781 5.47322 42.2687 5.48486 42.2603 5.49635C42.2233 5.49521 42.1847 5.50536 42.1502 5.53124C42.1046 5.56546 42.0841 5.61387 42.0782 5.65796C42.0778 5.65869 42.0774 5.65948 42.077 5.66033C42.0714 5.67067 42.0625 5.6854 42.0498 5.70375C42.0245 5.74016 41.9893 5.7841 41.95 5.82597C41.8793 5.89979 41.8251 5.97175 41.7873 6.07153C41.7515 6.16643 41.7338 6.2785 41.7198 6.42621V6.42698L41.7198 6.42774C41.7112 6.53056 41.7069 6.6393 41.7076 6.73327C41.7083 6.82031 41.7131 6.91165 41.7297 6.97095C41.7373 7.00063 41.7454 7.03078 41.754 7.05452C41.7583 7.06652 41.7651 7.08347 41.7755 7.10029C41.7845 7.11507 41.8069 7.14722 41.8496 7.16523C41.9009 7.18686 41.949 7.17539 41.9798 7.15922C42.0058 7.1456 42.0233 7.12723 42.0321 7.11746C42.0373 7.11157 42.0426 7.10512 42.0477 7.0984C42.057 7.10767 42.0672 7.11815 42.0786 7.12997C42.0541 7.14578 42.0307 7.16859 42.0141 7.20157C41.9828 7.2643 41.9919 7.32766 42.0128 7.37347C42.0329 7.41744 42.0659 7.45144 42.1002 7.47435L42.1043 7.47703L42.1085 7.47944C42.1528 7.5048 42.2089 7.5156 42.2503 7.52088C42.2968 7.52681 42.3487 7.52852 42.3969 7.52508L42.4017 7.52473L42.4067 7.52403C42.4199 7.52215 42.4464 7.52347 42.4811 7.53255C42.5128 7.54085 42.5397 7.5526 42.5557 7.56211C42.6017 7.5954 42.6589 7.62892 42.7276 7.63489C42.795 7.64076 42.8516 7.61873 42.8978 7.59008C42.9047 7.59567 42.9134 7.60339 42.9244 7.61402C42.9483 7.63718 42.9781 7.66928 43.0168 7.71337C43.0436 7.74486 43.0643 7.77086 43.0801 7.79194C43.0374 7.84378 43.021 7.91375 43.0275 7.97258L43.0283 7.98011L43.0299 7.98751C43.042 8.04181 43.0774 8.08 43.0987 8.10017C43.1238 8.12416 43.1541 8.14588 43.185 8.16502C43.2472 8.20349 43.3263 8.24035 43.41 8.27033C43.5574 8.32502 43.7386 8.40358 43.8088 8.44577L43.8104 8.44678L43.8121 8.44774C43.8608 8.47518 43.9133 8.5002 43.9615 8.51631C43.9848 8.52406 44.0111 8.53112 44.0379 8.53428C44.0713 8.60877 44.1402 8.6512 44.2018 8.67775C44.2756 8.70957 44.3775 8.73515 44.5076 8.76012C44.7073 8.80003 45.0184 8.83422 45.1993 8.83422C45.3181 8.83422 45.4137 8.82906 45.4855 8.81177C45.5313 8.80075 45.5809 8.78124 45.6203 8.74513C45.6604 8.7671 45.708 8.782 45.7653 8.77741C45.8345 8.77187 45.8991 8.73805 45.9555 8.70573L45.9564 8.7053L45.9571 8.70485C46.012 8.67254 46.1394 8.64719 46.3738 8.6581L46.3751 8.65815L46.3763 8.65819C46.4767 8.66106 46.5729 8.65833 46.6487 8.64981C46.6859 8.64563 46.7231 8.63952 46.7551 8.63015C46.7709 8.62551 46.7903 8.61868 46.8092 8.60812C46.8215 8.60129 46.8437 8.58739 46.8628 8.56293C46.8651 8.56227 46.868 8.56161 46.8712 8.56103C46.8776 8.55989 46.8845 8.55927 46.8912 8.55927C46.9501 8.55927 47.0054 8.54094 47.0495 8.51392C47.0731 8.49945 47.0976 8.47996 47.1186 8.45527C47.1197 8.45592 47.1208 8.45657 47.1219 8.45725L47.1228 8.45777L47.1237 8.45827C47.1681 8.4837 47.2159 8.50576 47.2591 8.51811C47.2795 8.52394 47.3082 8.5304 47.339 8.52928C47.3632 8.52839 47.4398 8.51993 47.478 8.4432L47.4806 8.43799L47.4828 8.43258C47.4977 8.39557 47.5022 8.34937 47.5037 8.31433C47.5043 8.29995 47.5045 8.28471 47.5042 8.26888L47.5269 8.32575L47.6568 8.27454C48.0241 8.12969 48.2197 8.01937 48.3342 7.93028L48.3356 7.92909L48.3372 7.92784C48.4282 7.8528 48.5624 7.75077 48.63 7.70393L48.6309 7.70334L48.6317 7.70274C48.6967 7.65623 48.7503 7.578 48.7924 7.50176C48.837 7.42091 48.8785 7.32376 48.9135 7.22168L48.9143 7.2193L48.9151 7.21688C48.9412 7.13025 48.9727 7.04266 49.0022 6.97184C49.0171 6.93638 49.0308 6.90654 49.0427 6.88382C49.0534 6.86325 49.0598 6.854 49.0613 6.85184C49.0616 6.85133 49.0616 6.85121 49.0615 6.85143L49.0633 6.84928L49.0652 6.84706C49.0977 6.80721 49.1282 6.75682 49.1371 6.70021C49.1405 6.67802 49.1411 6.65151 49.1345 6.62366C49.1579 6.61237 49.1814 6.59901 49.2041 6.58395C49.2659 6.54366 49.3321 6.49125 49.3597 6.39688C49.3825 6.31876 49.3722 6.22808 49.3593 6.13505C49.341 5.98932 49.2826 5.78003 49.2293 5.64945L49.2288 5.64838L49.2283 5.64731C49.197 5.57421 49.1465 5.49738 49.0946 5.43188C49.0432 5.3669 48.9829 5.30381 48.9265 5.26114C48.7986 5.16215 48.5724 5.09186 48.3662 5.06319L48.365 5.06302L48.3638 5.06287C48.1772 5.04023 47.7879 5.01247 47.4981 5.00689C47.3577 5.00418 47.2221 4.99743 47.1177 4.98878C47.0653 4.98444 47.0225 4.97976 46.9916 4.97515C46.9761 4.97282 46.9654 4.97079 46.959 4.96929C46.9589 4.96926 46.9588 4.96924 46.9587 4.96922C46.8565 4.92251 46.7245 4.96848 46.6834 5.08526C46.6651 5.12833 46.6623 5.17349 46.6658 5.20914C46.6694 5.24503 46.6826 5.3016 46.726 5.34517C46.7526 5.37167 46.7839 5.38538 46.8019 5.39229C46.8233 5.40049 46.8462 5.4065 46.8679 5.41095C46.9117 5.41989 46.9624 5.42479 47.012 5.42479C47.0653 5.42479 47.1003 5.44597 47.1225 5.48313L47.1242 5.48599L47.1261 5.48877C47.1373 5.50561 47.1546 5.54327 47.1719 5.59667C47.1884 5.64754 47.2017 5.7022 47.2086 5.74634L47.2092 5.74986L47.2099 5.75335C47.2178 5.79083 47.2219 5.8489 47.22 5.91284C47.2181 5.9766 47.2107 6.0353 47.2006 6.07378L47.1992 6.07881L47.1982 6.08392C47.1929 6.11305 47.1877 6.1337 47.1829 6.14819C47.0989 6.13696 46.9405 6.12803 46.8106 6.12334C46.7278 6.11772 46.6513 6.11733 46.5935 6.1232C46.5678 6.12581 46.5351 6.13058 46.5056 6.14176C46.4857 6.08533 46.438 6.06044 46.4209 6.0528C46.3971 6.04223 46.3729 6.03779 46.3571 6.03542C46.3392 6.03272 46.3193 6.03094 46.2986 6.02963C46.2573 6.027 46.2028 6.02559 46.1361 6.02422L46.1346 6.02419H46.1332C46.0619 6.02419 45.9958 6.01903 45.9484 6.01103C45.9346 6.00868 45.9238 6.00636 45.916 6.00434C45.8997 5.98699 45.8798 5.97273 45.8566 5.9629C45.8187 5.9468 45.7813 5.94631 45.7516 5.95095C45.6962 5.95962 45.6468 5.98908 45.6073 6.0209C45.606 6.02175 45.5986 6.02649 45.582 6.03406C45.5645 6.04197 45.542 6.05074 45.5154 6.05959C45.4627 6.07719 45.4002 6.09312 45.3424 6.10287C45.3068 6.10808 45.2796 6.11183 45.2584 6.11423C45.2579 6.10918 45.2573 6.10375 45.2567 6.09789C45.2529 6.03958 45.2409 5.98292 45.2236 5.9365C45.2148 5.91327 45.2029 5.88765 45.1866 5.8646C45.1749 5.84803 45.1406 5.80291 45.0786 5.79046L45.0763 5.79001L45.0741 5.78964C44.9966 5.7767 44.9437 5.82167 44.9211 5.84792C44.8982 5.8746 44.8844 5.90522 44.8757 5.92826C44.8577 5.97664 44.8462 6.03632 44.8401 6.09476V6.09548C44.8321 6.17435 44.8222 6.18924 44.8165 6.19648C44.8061 6.20944 44.7817 6.22893 44.6906 6.27328C44.5593 6.32928 44.5117 6.32518 44.4941 6.31954C44.4454 6.29131 44.3901 6.2798 44.3457 6.27568C44.295 6.27098 44.2393 6.27417 44.1901 6.28759C44.1869 6.28847 44.1831 6.28904 44.179 6.28911C44.176 6.28916 44.1733 6.28894 44.1709 6.28859C44.1421 6.25863 44.1075 6.24355 44.0903 6.23659C44.0618 6.22498 44.0295 6.21634 43.9974 6.20983C43.9325 6.19668 43.8531 6.18916 43.7711 6.18916H43.7695L43.768 6.1892C43.7052 6.19059 43.6654 6.19064 43.6366 6.18808C43.6145 6.18613 43.6066 6.18315 43.6049 6.18241C43.6034 6.18112 43.5994 6.17689 43.5923 6.16607C43.5796 6.1463 43.5649 6.11687 43.5408 6.0661L43.5396 6.06347L43.5383 6.06091C43.4901 5.96876 43.4499 5.78833 43.4499 5.6695C43.4499 5.5728 43.4574 5.52783 43.4673 5.50212C43.474 5.4848 43.4839 5.46946 43.5207 5.44424L43.5262 5.44049L43.5313 5.43623C43.5418 5.42757 43.5755 5.40937 43.6321 5.39337C43.6852 5.37836 43.7423 5.3698 43.7875 5.3698C43.8933 5.3698 44.0788 5.40031 44.1869 5.44263L44.1897 5.44374L44.1926 5.44472C44.2907 5.47832 44.3762 5.50591 44.4488 5.50591C44.492 5.50591 44.5328 5.49673 44.5716 5.47625C44.6071 5.45746 44.6347 5.43229 44.6558 5.41116C44.6853 5.38168 44.7128 5.34689 44.734 5.31226C44.7509 5.28456 44.7792 5.23255 44.7792 5.17458C44.7792 5.14507 44.7747 5.10768 44.7569 5.07205C44.7401 5.03841 44.698 4.98494 44.6234 4.97977C44.6192 4.979 44.6127 4.9777 44.6037 4.97576C44.5849 4.97176 44.5589 4.96582 44.5268 4.95831C44.4631 4.94337 44.3786 4.92294 44.2881 4.90095C44.1838 4.8749 44.0869 4.85819 44.0073 4.85194C43.9677 4.84883 43.9294 4.84807 43.8949 4.85098C43.8658 4.85348 43.8196 4.85993 43.7791 4.88523L43.7786 4.88557C43.7753 4.8867 43.7702 4.88833 43.763 4.89034C43.7423 4.89606 43.7126 4.90258 43.6747 4.90944C43.5998 4.923 43.5023 4.93627 43.4005 4.94702C43.3264 4.95353 43.2692 4.95797 43.2249 4.96016ZM42.9448 4.96668C42.9448 4.96681 42.9448 4.96695 42.9448 4.96709C42.9449 4.96548 42.945 4.96523 42.9448 4.96668ZM42.2124 7.37386C42.2124 7.37386 42.2125 7.37384 42.2128 7.3738C42.2126 7.37385 42.2124 7.37387 42.2124 7.37386ZM42.9182 7.57716C42.9182 7.57716 42.9181 7.57719 42.918 7.57724L42.9182 7.57716ZM43.7831 4.88379C43.7832 4.88379 43.7828 4.88399 43.7818 4.88437C43.7827 4.88396 43.7831 4.88378 43.7831 4.88379ZM44.6278 4.9805C44.6278 4.98051 44.6272 4.98045 44.6261 4.98025C44.6271 4.98038 44.6277 4.98049 44.6278 4.9805ZM46.9543 4.96804C46.9543 4.96803 46.9549 4.96817 46.9558 4.96848C46.9548 4.9682 46.9543 4.96805 46.9543 4.96804ZM44.0224 8.48595C44.0224 8.48595 44.0225 8.48624 44.0227 8.4869C44.0224 8.4863 44.0223 8.48597 44.0224 8.48595ZM43.1368 4.95998C43.1344 4.95961 43.1333 4.95932 43.1334 4.95927C43.1334 4.95922 43.1347 4.95941 43.1368 4.95998Z" stroke="#63262D" stroke-width="0.280453"/>
<path d="M116.245 17.3777C116.176 17.2806 116.092 17.2011 116.058 17.2011C116.016 17.2011 115.933 17.2806 115.871 17.3689C115.78 17.5014 115.599 17.5632 115.051 17.6339C114.453 17.7045 114.336 17.7045 114.246 17.5897C114.19 17.5191 114.078 17.4749 114.003 17.5014C113.926 17.5279 113.849 17.6251 113.829 17.7134C113.808 17.8193 113.704 17.9077 113.551 17.9518C113.419 17.9871 113.093 18.1108 112.822 18.2256C112.558 18.3404 112.245 18.4287 112.134 18.4111C111.982 18.4022 111.905 18.4464 111.856 18.5877C111.815 18.6937 111.635 18.9057 111.454 19.047C111.204 19.2589 111.121 19.3738 111.121 19.5416C111.121 19.6652 111.169 19.78 111.224 19.8065C111.28 19.833 111.426 19.7889 111.538 19.7182C111.655 19.6475 111.759 19.5857 111.781 19.5857C111.801 19.5857 111.815 19.7094 111.815 19.8506C111.815 20.0538 111.753 20.1775 111.565 20.3629L111.322 20.6014L111.364 22.1028L112.024 22.147C112.024 21.4669 112.058 21.1754 112.107 21.0695C112.148 20.9547 112.231 20.8221 112.294 20.7603C112.356 20.6985 112.488 20.6543 112.6 20.6455C112.717 20.6455 112.863 20.7427 112.996 20.9105C113.176 21.1401 113.203 21.2373 113.203 21.6612V22.147L114.072 22.1028C114.141 20.2393 114.149 20.1775 114.336 19.9743C114.453 19.8419 114.607 19.7624 114.766 19.7624C114.926 19.7624 115.079 19.8419 115.204 19.9743C115.384 20.1775 115.391 20.2393 115.426 21.149L115.461 22.1028L116.432 22.1558C116.517 20.2746 116.523 20.2393 116.738 20.0097C116.884 19.8419 117.03 19.7624 117.197 19.7624C117.356 19.7624 117.509 19.8419 117.635 19.9743C117.815 20.1775 117.822 20.2393 117.856 21.149L117.891 22.1028L118.759 22.147C118.759 21.4669 118.8 21.1666 118.849 21.0429C118.891 20.9194 119.002 20.7869 119.092 20.7339C119.176 20.6897 119.308 20.6455 119.384 20.6455C119.46 20.6455 119.62 20.7692 119.731 20.9105C119.912 21.1401 119.94 21.2373 119.94 21.6612V22.147L120.599 22.1028C120.634 20.6367 120.62 20.5484 120.495 20.4512C120.398 20.3717 120.356 20.2393 120.356 20.0097C120.356 19.7005 120.37 19.6828 120.495 19.7624C120.592 19.8242 120.669 19.8153 120.738 19.7447C120.801 19.6828 120.85 19.5593 120.842 19.4797C120.842 19.3915 120.738 19.2324 120.606 19.1264C120.467 19.0116 120.349 18.8262 120.335 18.7026C120.315 18.5789 120.252 18.4552 120.19 18.4199C120.127 18.3757 120.016 18.3934 119.94 18.4375C119.835 18.5082 119.634 18.4552 119.092 18.2168C118.697 18.049 118.322 17.8282 118.259 17.731C118.19 17.6339 118.12 17.5544 118.099 17.5544C118.079 17.5544 117.995 17.5985 117.912 17.6515C117.794 17.7222 117.572 17.7222 117.058 17.6515C116.523 17.5721 116.335 17.5103 116.245 17.3777Z" fill="white"/>
</g>
<defs>
<clipPath id="clip0_24_584">
<rect width="146.958" height="33" fill="white" transform="translate(0.902344)"/>
</clipPath>
</defs>
</svg>
