<?xml version="1.0" encoding="UTF-8" standalone="no"?>
<svg
   width="1729.1536"
   height="228.47266"
   viewBox="0 0 1729.1536 228.47266"
   fill="none"
   version="1.1"
   id="svg10"
   sodipodi:docname="nav bar.svg"
   inkscape:version="1.1.2 (0a00cf5339, 2022-02-04)"
   xmlns:inkscape="http://www.inkscape.org/namespaces/inkscape"
   xmlns:sodipodi="http://sodipodi.sourceforge.net/DTD/sodipodi-0.dtd"
   xmlns="http://www.w3.org/2000/svg"
   xmlns:svg="http://www.w3.org/2000/svg">
  <defs
     id="defs14" />
  <sodipodi:namedview
     id="namedview12"
     pagecolor="#ffffff"
     bordercolor="#666666"
     borderopacity="1.0"
     inkscape:pageshadow="2"
     inkscape:pageopacity="0.0"
     inkscape:pagecheckerboard="0"
     showgrid="false"
     inkscape:zoom="0.6140625"
     inkscape:cx="1003.1552"
     inkscape:cy="105.03817"
     inkscape:window-width="1920"
     inkscape:window-height="1007"
     inkscape:window-x="0"
     inkscape:window-y="0"
     inkscape:window-maximized="1"
     inkscape:current-layer="svg10" />
  <g
     id="g1051"
     transform="translate(223.00003,33)">
    <rect
       y="-13"
       width="1280"
       height="72"
       fill="#0CC7E9"
       id="rect2"
       style="fill:#4e1dd9;fill-opacity:1"
       x="0" />
    <path
       d="m 556.087,74 c -7.501,-2 -13.001,-5.5 -14,-14 -1,-8.5 7,-18 7,-18 l 88,1.5 37,6 c 22.5,0 73.499,-9.5 62,12 -5.959,11.9173 -6.986,11.9994 -19.244,12.9795 L 716.587,74.5 c -11.001,0.5 -17.501,5.5 -20,12.5 -27.501,-3 -31.501,11.5 -29,19 -11.001,-2 -23.001,5 -27,11 -3.501,-9 -17.501,-10.5 -26,-11 6.5,-21 -29.001,-20.5 -30.5,-20.5 -5.001,-7 -15.001,-10 -28,-11.5 z"
       fill="#0CC7E9"
       id="path4"
       style="fill:#4e1dd9;fill-opacity:1" />
    <path
       d="M -190.906,94.96 C -207.993,90.4 -220.525,82.42 -222.803,63.04 -225.081,43.66 -206.854,22 -206.854,22 L -6.35626,25.42 77.944,39.1 c 51.264,0 167.461,-21.66 141.26,27.36 -13.576,27.1714 -15.917,27.3587 -43.843,29.5932 L 174.775,96.1 c -25.062,1.14 -39.871,12.54 -45.567,28.5 C 66.5521,117.76 57.4385,150.82 63.1345,167.92 38.0722,163.36 10.7316,179.32 1.61809,193 -6.35629,172.48 -38.2537,169.06 -57.6199,167.92 c 14.8095,-47.88 -66.0731,-46.74 -69.4911,-46.74 -11.392,-15.96 -34.176,-22.8 -63.795,-26.22 z"
       fill="#0CC7E9"
       id="path6"
       style="fill:#4e1dd9;fill-opacity:1" />
    <path
       d="m 1474.0662,97.432646 c 17.08,-4.56 29.61,-12.54 31.89,-31.92 2.28,-19.38 -15.95,-41.04 -15.95,-41.04 l -200.49,3.42 -84.3,13.68 c -51.27,0 -167.47,-21.66 -141.26,27.36 13.57,27.1714 15.91,27.3587 43.84,29.5932 l 0.58,0.0468 c 25.07,1.14 39.88,12.540004 45.57,28.500004 62.66,-6.84 71.77,26.22 66.08,43.32 25.06,-4.56 52.4,11.4 61.51,25.08 7.98,-20.52 39.87,-23.94 59.24,-25.08 -14.81,-47.88 66.07,-46.74 69.49,-46.74 11.39,-15.96 34.18,-22.8 63.8,-26.220004 z"
       fill="#0CC7E9"
       id="path8"
       style="fill:#4e1dd9;fill-opacity:1" />
  </g>
  <g
     style="fill:none"
     id="g1383"
     transform="translate(223.00003,13)">
    <rect
       y="-13"
       width="1280"
       height="72"
       fill="#0cc7e9"
       id="rect1257"
       x="0" />
    <path
       d="m 556.087,74 c -7.501,-2 -13.001,-5.5 -14,-14 -1,-8.5 7,-18 7,-18 l 88,1.5 37,6 c 22.5,0 73.499,-9.5 62,12 -5.959,11.9173 -6.986,11.9994 -19.244,12.9795 L 716.587,74.5 c -11.001,0.5 -17.501,5.5 -20,12.5 -27.501,-3 -31.501,11.5 -29,19 -11.001,-2 -23.001,5 -27,11 -3.501,-9 -17.501,-10.5 -26,-11 6.5,-21 -29.001,-20.5 -30.5,-20.5 -5.001,-7 -15.001,-10 -28,-11.5 z"
       fill="#0cc7e9"
       id="path1259" />
    <path
       d="M -190.906,94.96 C -207.993,90.4 -220.525,82.42 -222.803,63.04 -225.081,43.66 -206.854,22 -206.854,22 L -6.35626,25.42 77.944,39.1 c 51.264,0 167.461,-21.66 141.26,27.36 -13.576,27.1714 -15.917,27.3587 -43.843,29.5932 L 174.775,96.1 c -25.062,1.14 -39.871,12.54 -45.567,28.5 C 66.5521,117.76 57.4385,150.82 63.1345,167.92 38.0722,163.36 10.7316,179.32 1.61809,193 -6.35629,172.48 -38.2537,169.06 -57.6199,167.92 c 14.8095,-47.88 -66.0731,-46.74 -69.4911,-46.74 -11.392,-15.96 -34.176,-22.8 -63.795,-26.22 z"
       fill="#0cc7e9"
       id="path1261" />
    <path
       d="m 1473.0039,96.793333 c 17.08,-4.56 29.61,-12.54 31.89,-31.92 2.28,-19.38 -15.95,-41.04 -15.95,-41.04 l -200.49,3.42 -84.3,13.68 c -51.27,0 -167.47,-21.66 -141.26,27.36 13.57,27.1714 15.91,27.3587 43.84,29.5932 l 0.58,0.0468 c 25.07,1.14 39.88,12.539997 45.57,28.499997 62.66,-6.84 71.77,26.22 66.08,43.32 25.06,-4.56 52.4,11.4 61.51,25.08 7.98,-20.52 39.87,-23.94 59.24,-25.08 -14.81,-47.88 66.07,-46.74 69.49,-46.74 11.39,-15.96 34.18,-22.8 63.8,-26.219997 z"
       fill="#0cc7e9"
       id="path1263" />
  </g>
</svg>
